<?xml version="1.0" encoding="UTF-8" standalone="no"?><!DOCTYPE svg PUBLIC "-//W3C//DTD SVG 1.1//EN" "http://www.w3.org/Graphics/SVG/1.1/DTD/svg11.dtd"><svg width="100%" height="100%" viewBox="0 0 24 8" version="1.1" xmlns="http://www.w3.org/2000/svg" xmlns:xlink="http://www.w3.org/1999/xlink" xml:space="preserve" xmlns:serif="http://www.serif.com/" style="fill-rule:evenodd;clip-rule:evenodd;stroke-linejoin:round;stroke-miterlimit:2;"><path d="M19.666,0.392c0.037,0.031 0.074,0.061 0.111,0.092c0.261,0.138 0.27,0.114 0.292,0.126c0.14,0.07 0.127,0.082 0.284,0.071c0.075,0.019 0.149,0.037 0.224,0.056c0.042,0.001 0.314,0.005 0.523,-0.003c0.808,0.059 0.847,0.009 1.441,0.554c0.493,0.452 0.397,0.519 0.817,1.045c0.596,0.747 0.48,0.806 0.456,1.75c-0.88,1.338 -1.004,1.419 -1.129,1.501c-0.075,-0.01 -0.15,-0.021 -0.226,-0.031c-0.055,0.018 -0.049,0.004 -0.095,0.019c-0.19,0.061 -0.102,0.196 -0.108,0.209c-0.281,0.149 -0.279,0.126 -0.83,0.326c-0.097,-0.076 -0.065,-0.107 -0.187,-0.147c-0.224,-0.074 0.114,-0.279 0.278,-0.73c0.028,-0.034 0.056,-0.068 0.083,-0.102c0.181,-1.13 1.16,-0.091 1.774,-1.056c0.359,-0.564 0.089,-0.649 -0.062,-1.184c-0.062,-0.092 -0.045,-0.083 -0.122,-0.179c-0.024,-0.03 -0.167,-0.207 -0.423,-0.23c-0.048,-0.004 -0.064,0.094 -0.112,0.089l-0.104,-0.003l-0.108,-0.01c-0.046,-0.041 -0.092,-0.082 -0.138,-0.123c0.217,-0.131 0.217,-0.128 0.234,-0.142c0.026,-0.02 0.088,-0.09 -0.287,-0.299c-0.067,-0.044 -0.056,-0.04 -0.295,-0.231c-0.035,-0.068 -0.069,-0.136 -0.104,-0.203c0.005,-0.016 0.164,-0.648 -0.171,-0.122c-0.092,0 -0.084,-0.013 -0.261,-0.081c-0.468,-0.18 -0.446,-0.25 -0.944,-0.24c-0.149,-0.064 -0.146,-0.054 -0.278,-0.162c-0.131,-0.107 -0.588,-0.097 -0.639,0.311c-0.202,0.288 -0.186,0.296 -0.205,0.319c-0.067,0.396 -0.132,0.401 0.049,0.771c0.059,0.312 0.041,0.345 0.335,0.477l-0.018,0.152c-0.187,-0.033 -0.636,-0.163 -1.41,0.204c-0.422,0.277 -0.444,0.245 -0.702,0.674c-0.154,0.188 0.009,0.325 -0.17,0.341c-0.059,0.005 -0.087,-0.107 -0.146,-0.102c-0.078,-0.345 -0.109,-0.319 -0.357,-0.552c-0.603,-0.431 -0.647,-0.351 -0.84,-0.415c-0.884,-0.103 -0.889,-0.139 -1.98,0.127l-0.298,0.137c-0.074,0.025 -0.147,0.051 -0.221,0.076c-0.428,0.269 -0.495,0.183 -0.785,0.589c-0.232,0.324 -0.274,0.552 0.132,0.506c0.258,0.115 0.264,0.022 0.539,0.048c0.165,0.015 0.222,-0.169 0.305,-0.092c0.021,0.019 0.013,0.024 0.17,0.319c0.121,0.373 0.217,0.282 0.391,0.365c0.033,0.036 0.046,0.088 0.079,0.124c0.613,0.66 0.774,0.247 1.661,0.384c-0.025,0.054 -0.274,0.6 -0.621,0.413c-0.415,-0.224 -0.385,0.187 -0.858,0.179c-0.694,-0.012 -0.104,0.38 0.032,0.33c0.653,-0.241 0.703,-0 1.348,-0.256c0.555,-0.22 0.363,-0.567 0.957,-0.643c-0.009,0.065 -0.04,0.307 -0.213,0.794c-2.786,0.629 -3.334,0.071 -3.478,-0.005c0.115,-0.21 0.275,-0.33 0.291,-0.365c0.076,-0.17 0.004,-0.166 -0.129,-0.522c-0.317,0.108 -0.511,0.238 -0.459,-0.097c0.005,-0.03 -0.088,-1.563 -0.313,-0.207c-0.064,0.384 -0.019,0.39 -0.178,0.738c-0.009,0.02 0.009,0.018 0.122,0.249l-0.039,0.062c-0.396,0.159 -0.393,0.158 -0.427,0.172c-0.097,0.037 -0.093,0.019 -0.195,0.058c-0.553,0.17 -1.457,0.584 -2.931,0.325c0.252,-0.199 0.28,-0.379 0.287,-0.419c-0.167,-0.156 -0.189,-0.099 -0.696,-0.177c-0.917,-0.141 -1.156,-0.735 -0.832,-1.002c0.96,-0.793 1.708,-0.949 1.874,-0.983c0.232,0.231 0.233,0.215 0.534,0.32l0.108,0.011l0.109,0.094c-0.079,0.162 -0.101,0.148 -0.111,0.336c-0.44,-0.03 -0.402,-0.224 -0.851,-0.192c-0.779,0.032 -0.768,0.019 -0.834,0.026c-0.386,0.045 0.146,0.56 0.511,0.336c0.156,-0.096 0.153,-0.01 0.329,0.099c0.017,0.011 0.078,0.048 0.202,-0.148c0.666,0.587 1.467,0.831 1.873,0.624c0.73,-0.014 0.666,-0.499 0.869,-0.722c0.287,-0.315 0.158,-0.739 0.072,-1.06c-0.051,-0.114 -0.192,-0.426 -1.454,-0.57c-0.32,-0.146 -0.392,-0.012 -0.609,-0.283c-0.895,-0.596 -0.915,-0.855 -2.633,-0.542c-0.348,0.037 -0.697,0.074 -1.045,0.111l-0.207,-0.047c-0.061,-0.016 -0.122,-0.031 -0.183,-0.047c-0.023,-0.057 -0.045,-0.114 -0.068,-0.171c-0.348,-0.449 -0.367,-0.423 -0.879,-0.68l-0.524,-0.106c0.039,-0.353 0.709,-0.2 1.03,0.044c0.305,0.232 0.416,0.077 0.623,0.411c0.016,0.025 0.022,0.017 0.296,0.223c0.197,0.475 0.286,0.081 0.286,0.058c-0,-0.132 0.023,-0.119 0.05,-0.257c0.046,0.016 0.311,0.104 0.599,0.122c0.092,0.006 0.94,0.064 1.133,-0.189c0.243,-0.319 0.061,-0.494 0.454,-0.612c0.308,-0.138 0.305,-0.12 0.33,-0.134l0.1,0.024c-0.256,0.208 -0.547,0.268 -0.234,0.394c0.325,0.25 0.037,0.413 0.322,0.691c0.833,0.815 1.456,0.493 1.571,0.485l0.208,-0.085c0.055,0.021 0.052,0.12 0.107,0.142c0.065,0.025 0.139,-0.028 0.209,-0.02c0.006,0.001 0.134,0.121 0.316,0.029c0.66,-0.335 1.881,-0.058 2.395,-0.334c0.135,-0.079 0.148,-0.053 0.233,-0.179c0.765,0.001 0.641,-0.278 0.651,-0.316c0.174,-0.48 -0.229,-0.397 -0.212,-0.631c0.006,-0.082 0.069,-0.261 0.998,0.227c0.151,0.053 0.149,0.046 0.255,0.176c-0.43,0.258 -0.569,0.202 -0.567,0.709c0,0.033 0.031,0.163 0.401,-0.103c-0.002,0.025 -0.025,0.274 0.016,0.312c0.569,0.531 1.653,0.1 1.786,0.047c0.438,-0.119 0.417,-0.128 0.844,-0.242c0.159,-0.043 -0.042,-0.656 -0.061,-0.737c-0.481,-0.433 -0.469,-0.551 -1.111,-0.449c-0.769,0.123 -0.876,0.191 -0.942,0.232c-0.07,-0.05 -0.14,-0.101 -0.21,-0.151c0.421,-0.319 0.39,-0.354 0.428,-0.379c0.429,0.183 0.449,-0.076 0.622,-0.224c0.296,0.147 0.296,0.109 0.625,0.132c0.036,0.003 0.072,0.006 0.108,0.009c0.096,-0.051 0.192,-0.101 0.289,-0.152c0.475,-0.298 0.641,-0.177 0.882,-0.627Z" style="fill:#76553f;fill-opacity:0.99;"/><path d="M13.691,0.204c0.071,-0.001 0.142,-0.001 0.213,-0.002c0.589,0.008 0.571,0.076 1.148,0.226c0.357,0.233 0.331,0.253 0.73,0.41c0.195,0.089 0.184,0.098 0.399,0.065c-0.07,0.086 -0.14,0.172 -0.211,0.257c-0.047,0.025 -0.038,0.109 -0.085,0.135c-0.277,0.151 -0.533,-0.075 -0.568,-0.105c-0.021,-0.009 -0.01,-0.015 -0.254,-0.146c0.013,-0.033 0.26,-0.711 -0.391,-0.198c0.025,0.073 0.049,0.145 0.074,0.218c-0.044,0.026 -0.088,0.053 -0.132,0.079c-0.236,0.02 -0.226,0.023 -0.417,0.162c-0.26,-0.214 -0.285,-0.154 -0.608,-0.043c-0.532,0.027 -0.227,0.413 -0.875,1.004c-0.862,0.244 -0.889,0.254 -0.927,0.188c-0.014,-0.024 0.085,-0.041 -0.077,-0.343c-0.096,-0.014 -0.192,-0.029 -0.288,-0.043c0.112,-0.51 -0.214,-0.322 -0.676,-0.565c-0.377,0.018 -0.347,-0.267 -0.703,-0.135c-0.023,0.009 -0.063,0.023 -0.304,0.066l-0.1,-0.024c-0.193,-0.013 -0.19,-0.001 -0.33,0.134c-0.393,0.118 -0.211,0.294 -0.454,0.612c-0.193,0.253 -1.041,0.195 -1.133,0.189c-0.244,-0.468 -0.236,-0.463 -0.294,-0.547c-0.07,-0.012 -0.139,-0.025 -0.209,-0.037c-0.002,0.249 -0.005,0.238 -0.095,0.462c-0.126,-0.103 -0.121,-0.097 -0.226,-0.219c-0.037,0.14 -0.073,0.279 -0.11,0.419c-0.274,-0.206 -0.281,-0.198 -0.296,-0.223c-0.207,-0.335 -0.318,-0.18 -0.623,-0.411c-0.32,-0.243 -0.99,-0.397 -1.03,-0.044c-0.932,-0.067 -0.945,-0.177 -1.792,0.11c-0.141,0.048 -0.135,0.005 -0.449,-0.115l0.038,-0.062c0.125,-0.151 0.337,-0.331 0.368,-0.358c0.314,0.195 0.325,0.149 0.679,0.076c0.803,-0.165 1.232,-0.037 1.666,-0.368c0.217,0.054 0.231,0.126 0.379,-0.022c0.638,-0.642 2.355,0.18 1.708,-0.708c1.43,0.154 1.458,0.665 1.851,0.403c0.528,-0.351 0.551,-0.261 1.171,-0.389c0.39,-0.008 0.388,-0.009 0.422,-0.009c0.061,0 0.051,0.011 0.102,0.011c0.11,0.017 0.943,0.147 1.359,0.298c0.154,0.063 0.153,0.063 0.305,-0.001c0.059,-0.023 0.708,-0.27 0.736,-0.284c0.172,-0.039 0.159,-0.042 0.307,-0.125Z" style="fill:#bf935c;fill-opacity:0.98;"/><path d="M4.933,2.073c-0.203,0.143 -0.177,0.249 -0.531,0.167c-0.143,-0.033 -0.133,-0.004 -0.276,0.028c-0.643,-0.165 -0.732,0.065 -0.855,0.292c-0.44,0.02 -0.46,0.313 -0.825,0.062c-0.088,-0.061 -0.554,0.152 -0.025,0.342c0.623,0.224 0.634,0.251 1.261,0.067c0.027,-0.008 0.026,-0.001 0.356,-0.019l0.005,0.167l-0.077,0.046c-0.118,0.056 -0.235,0.112 -0.353,0.167c0.076,0.097 0.08,0.081 0.188,0.127c0.505,0.547 1.163,0.466 1.322,0.799c0.057,0.121 0.087,0.038 0.229,-0.018c0.073,-0.046 0.145,-0.092 0.218,-0.138l0.068,0.033c-0.059,0.254 -0.088,0.25 -0.008,0.508c-0.232,0.388 -0.274,0.35 -0.717,0.476c-2.103,0.599 -3.346,-0.634 -3.618,-0.625c-0.155,-0.383 -0.029,-0.381 0.012,-0.78c0,-0.003 -0,-0 0.213,-0.424c0.085,-0.169 -0.115,-0.182 -0.007,-0.387c0.946,-0.842 2.586,-1.337 3.419,-0.891Z" style="fill:#684b3b;fill-opacity:0.99;"/><path d="M18.18,4.301c0.281,0.137 0.224,0.229 0.528,0.28c0.252,0.042 0.242,-0.011 0.503,0.028c0.027,0.043 0.053,0.086 0.08,0.128c0.145,0.161 0.242,0.119 0.253,-0.098l0.097,-0.033c0.159,0.203 0.153,0.194 0.319,0.406l-0.023,0.115c0.074,0.2 0.02,0.206 0.116,0.411c-0.646,0.542 -0.59,0.785 -1.461,0.688c-0.4,-0.044 -0.549,0.226 -0.628,0.294c-0.839,-0.142 -1.137,-0.026 -1.228,0.01c0.173,-0.487 0.205,-0.728 0.213,-0.794c0.092,-0.384 0.021,-0.838 0.01,-0.91l0.02,-0.177l0.069,-0.138c0.665,0.348 0.717,0.148 1.132,-0.21Z" style="fill:#5b4137;fill-opacity:0.99;"/><path d="M19.973,2.388c0.013,0.008 -0.022,0.164 0.607,0.034c0.276,0.082 0.259,0.083 0.52,0.198c0.008,0.185 0.027,0.167 0.117,0.334c-0.228,0.358 -0.039,0.388 0.309,0.477c0.066,-0.031 0.132,-0.062 0.198,-0.093l0.097,-0.101c0.646,-0.493 0.942,0.258 1.493,-0.349c0.151,0.534 0.42,0.619 0.062,1.184c-0.613,0.965 -1.593,-0.074 -1.774,1.056l-0.083,0.102c-0.165,0.451 -0.503,0.656 -0.278,0.73c0.122,0.04 0.09,0.071 0.187,0.147c-0.059,0.006 -0.053,0.033 -0.729,0.102c-0,-0.002 -0.197,-0.104 -0.003,-0.233c0.463,-0.307 0.68,-1.354 0.741,-1.481c-0.057,-0.301 0.005,-0.36 -0.277,-0.484c-0.277,-0.788 -0.63,-0.783 -1.015,-0.927l-0.379,-0.087l-0.042,-0.014l0.018,-0.152c0.002,-0.024 0.006,-0.015 0.043,-0.292c0.063,-0.05 0.127,-0.099 0.19,-0.149Z" style="fill:#76543f;fill-opacity:0.99;"/><path d="M10.987,3.511c1.261,0.144 1.402,0.457 1.454,0.57c-0.352,0.203 -0.373,0.129 -0.731,-0.068c-0.178,-0.021 -0.355,-0.041 -0.533,-0.062c-0.095,0.04 -0.093,0.008 -0.189,0.049c-0.018,0.008 -0.016,0.008 -0.213,0.11c-0.593,0.048 -0.549,0.263 -1.145,0.246c-0.166,0.034 -0.914,0.19 -1.874,0.983c-0.324,0.268 -0.085,0.862 0.832,1.002c0.507,0.078 0.529,0.021 0.696,0.177c-0.006,0.04 -0.035,0.221 -0.287,0.419c-1.206,-0.183 -1.202,-0.133 -2.398,0.145c-1.361,0.316 -2.193,-0.093 -2.527,-0.239c-0.026,-0.565 0.312,0.003 0.862,-0.048c0.485,-0.045 0.52,0.167 0.939,-0.106c0.128,-0.083 0.719,0.335 1.164,-0.211c0.141,0.199 0.541,0.261 0.322,-0.225c0.016,-0.218 -0.049,-0.206 -0.047,-0.423c0.087,-0.602 0.09,-0.621 0.555,-1.01c0.965,-0.709 2.308,-0.793 2.825,-1.036c0.162,-0.133 0.148,-0.126 0.294,-0.274Z" style="fill:#976f4d;fill-opacity:0.98;"/><path d="M14.728,3.892l0.094,0.012l0.045,0.025c0.022,0.068 -0.058,0.115 0.201,0.329c0.262,0.217 0.316,0.059 0.4,-0.265c0.414,0.003 0.585,0.049 0.635,0.062l0.106,0.115l0.016,0.216c-0.019,0.033 -0.169,-0.03 -0.113,0.315c0.022,0.138 0.325,0.641 0.396,0.833c-0.198,0.117 -0.186,0.115 -0.416,0.18c-0.886,-0.137 -1.047,0.277 -1.661,-0.384c-0.033,-0.036 -0.046,-0.088 -0.079,-0.124c-0.09,-0.343 -0.069,-0.527 -0.391,-0.365c-0.157,-0.295 -0.149,-0.299 -0.17,-0.319c-0.084,-0.077 -0.14,0.108 -0.305,0.092c-0.275,-0.025 -0.281,0.067 -0.539,-0.048c0.211,-0.181 0.124,-0.348 0.96,-0.524c0.146,-0.031 0.171,0.109 0.823,-0.15Z" style="fill:#775741;fill-opacity:1;"/><path d="M1.284,4.905c3.544,1.72 4.006,0.141 4.804,0.513c0.002,0.093 0.004,0.185 0.006,0.278c-0.046,0.008 -0.093,0.016 -0.139,0.024c-0.322,-0.267 -0.217,0.121 -0.212,0.141c0.181,0.76 -0.663,0.433 -1.026,0.337c-0.352,-0.093 -0.426,0.321 -0.825,0.095c-0.168,-0.095 -0.13,0.03 -0.252,0.225c-0.582,-0.295 -1.466,0.252 -2.671,-1.288c0.128,-0.2 0.104,-0.223 0.314,-0.324Z" style="fill:#614438;fill-opacity:0.99;"/><path d="M19.765,2.996l0.379,0.087c0.385,0.144 0.738,0.139 1.015,0.927c-0.03,0.409 0.142,0.369 0.277,0.484c-0.061,0.127 -0.278,1.174 -0.741,1.481c-0.195,0.129 0.003,0.231 0.003,0.233c-0.21,0.068 -0.42,0.137 -0.63,0.205c0.045,-0.079 0.238,-0.421 0.702,-0.891c0.289,-0.737 0.314,-0.737 0.29,-0.817c-0.023,-0.076 -0.036,-0.059 -0.569,-0.447c-0.185,-0.484 -0.281,-0.572 -0.322,-0.61c-0.259,-0.146 -0.387,-0.27 -0.42,-0.257c-0.152,0.059 -0.065,0.105 0.012,0.506c-0.069,0.023 -0.138,0.046 -0.207,0.069c-0.165,-0.119 -0.169,-0.073 -0.353,-0.007c-0.495,0.258 -0.581,0.017 -1.021,0.344c-0.327,-0.169 -0.328,-0.156 -0.569,-0.441c0.257,-0.429 0.28,-0.397 0.702,-0.674c0.584,0.222 0.6,0.032 1.221,0.071c0,0 0.212,-0.24 0.231,-0.261Z" style="fill:#a47b51;fill-opacity:0.99;"/><path d="M19.666,0.392c-0.241,0.45 -0.406,0.329 -0.882,0.627c-0.096,0.051 -0.192,0.101 -0.289,0.152l-0.108,-0.009c-0.329,-0.023 -0.329,0.014 -0.625,-0.132c-0.456,-0.025 -1.092,-0.395 -0.725,0.11c0.03,0.041 0.073,0.073 0.103,0.114c-0.038,0.026 -0.006,0.06 -0.428,0.379l-0.11,-0.009c-0.275,-0.306 -0.241,-0.335 -0.412,-0.39c-0.037,-0.012 -0.061,0.073 -0.098,0.061c-0.058,-0.019 -0.066,-0.116 -0.124,-0.135c0.07,-0.086 0.14,-0.172 0.211,-0.257c0.168,-0.144 0.201,-0.099 0.321,-0.281c0.627,-0.475 2.422,-0.79 3.165,-0.231Z" style="fill:#d3a86d;fill-opacity:0.98;"/><path d="M6.217,3.156c0.197,1.034 -0.143,1.066 0.159,2.075c-0.116,0.147 -0.107,0.162 -0.288,0.186c-0.798,-0.372 -1.26,1.207 -4.804,-0.513c0.004,-0.117 0.009,-0.233 0.013,-0.35c0.272,-0.009 1.514,1.224 3.618,0.625c0.443,-0.126 0.485,-0.088 0.717,-0.476c0.317,0.531 0.378,0.065 0.37,0.036c-0.104,-0.38 -0.035,-0.369 0.086,-0.761c0.007,-0.037 0.014,-0.073 0.02,-0.11l-0.028,-0.101c-0.115,-0.373 -0.124,-0.369 -0.124,-0.402c0,-0.097 0.089,-0.048 0.089,-0.151c0.057,-0.019 0.114,-0.039 0.171,-0.058Z" style="fill:#9f734f;fill-opacity:0.99;"/><path d="M6.094,5.695l0.191,0.028c-0.107,0.243 -0.046,0.313 0.224,0.307c0.229,-0.005 0.185,0.144 0.409,0.141c0.111,-0.001 0.084,-0.04 0.21,-0.247c0.062,-0.031 0.123,-0.063 0.185,-0.094c-0.002,0.217 0.062,0.205 0.047,0.423c-0.31,0.178 -0.33,0.103 -0.351,0.124c-0.025,0.025 0.053,0.076 0.029,0.101c-0.445,0.546 -1.036,0.127 -1.164,0.211c-0.419,0.274 -0.454,0.061 -0.939,0.106c-0.55,0.051 -0.888,-0.517 -0.862,0.048c-0.244,-0.126 -0.252,-0.102 -0.43,-0.326c0.122,-0.195 0.085,-0.32 0.252,-0.225c0.399,0.226 0.473,-0.187 0.825,-0.095c0.363,0.096 1.207,0.423 1.026,-0.337c0.071,-0.047 0.141,-0.094 0.212,-0.141c0.046,-0.008 0.093,-0.016 0.139,-0.024Z" style="fill:#825d45;fill-opacity:0.99;"/><path d="M13.591,1.263c0.116,0.139 0.139,0.117 0.177,0.296c-0.456,0.56 0.475,0.864 0.865,1.179c-0.514,0.276 -1.735,-0.001 -2.395,0.334c-0.183,0.093 -0.311,-0.028 -0.316,-0.029c-0.069,-0.009 -0.143,0.045 -0.209,0.02c-0.055,-0.021 -0.052,-0.12 -0.107,-0.142l0.106,-0.095c0.588,-0.208 0.808,0.048 1.004,-0.558c0.648,-0.591 0.343,-0.978 0.875,-1.004Z" style="fill:#7f573e;fill-opacity:1;"/><path d="M10.693,3.785c-0.517,0.244 -1.86,0.327 -2.825,1.036c-0.206,-0.323 -0.282,-0.126 -0.641,-0.016c-0.443,0.135 -0.473,0.066 -0.731,-0.306c-0.247,-0.355 0.278,-0.105 0.301,-0.095c0.013,0.019 0.265,0.379 0.274,0.094c0.007,-0.233 0.042,-0.214 0.157,-0.42c0.463,-0.054 0.391,-0.461 0.824,-0.269c0.229,0.101 0.116,0.325 0.465,0.308c0.191,-0.01 -0.102,-0.319 -0.061,-0.349c0.077,-0.057 0.503,0.003 0.546,0.009c0.016,0.002 -0,0 0.161,0.113c0.183,0.068 0.173,0.016 0.361,-0.016c0.835,-0.145 0.892,-0.406 1.17,-0.089Z" style="fill:#6c4d3c;fill-opacity:1;"/><path d="M2.599,1.742c0.313,0.12 0.307,0.162 0.449,0.115c0.847,-0.286 0.86,-0.176 1.792,-0.11l0.524,0.106c-0.186,0.172 -0.179,0.169 -0.43,0.221c-0.832,-0.447 -2.473,0.048 -3.419,0.891c-0.415,0.241 -0.816,0.956 -0.804,1.008c0.054,0.225 -0.007,0.237 0.14,0.422c0.103,0.13 0.023,0.133 -0.115,0.432c-0.069,-0.143 -0.139,-0.286 -0.208,-0.43l-0.012,-0.1l0.008,-0.324l0.008,-0.212c0.13,-0.384 0.109,-0.38 0.124,-0.411c0.101,-0.079 0.211,-0.076 0.315,-0.416c0.116,-0.092 0.083,-0.114 0.208,-0.208c0.309,-0.22 0.3,-0.208 0.616,-0.429c0.127,-0.082 0.116,-0.071 0.223,-0.186c0.044,-0.024 0.087,-0.048 0.131,-0.072c0.29,-0.017 0.262,-0.071 0.45,-0.298Z" style="fill:#d0a56d;fill-opacity:0.98;"/><path d="M18.976,2.001c0.019,0.081 0.22,0.695 0.061,0.737c-0.427,0.114 -0.406,0.123 -0.844,0.242c-0.133,0.053 -1.217,0.484 -1.786,-0.047c-0.041,-0.038 -0.018,-0.287 -0.016,-0.312l0.048,-0.105c0.178,0.094 0.176,0.076 0.385,0.067c0.28,-0.012 0.183,-0.408 0.417,-0.243c0.27,0.19 0.289,0.074 0.731,0.007c0.069,-0.037 0.138,-0.073 0.206,-0.11c0.162,-0.044 0.151,-0.039 0.317,-0.043c0.34,0.107 0.32,-0.05 0.481,-0.195Z" style="fill:#956c49;fill-opacity:1;"/><path d="M6.494,2.75l0.207,0.047c-0.157,0.177 -0.166,0.156 -0.232,0.371c0.022,0.17 0.004,0.298 0.259,0.565c-0,0.109 -0.124,0.026 -0.125,0.137c-0,0.013 0.022,-0.009 0.124,0.105c0.155,0.175 0.04,0.199 0.069,0.428c-0.023,-0.011 -0.548,-0.261 -0.301,0.095c0.259,0.373 0.289,0.441 0.731,0.306c0.358,-0.109 0.434,-0.306 0.641,0.016c-0.465,0.389 -0.468,0.408 -0.555,1.01c-0.062,0.031 -0.123,0.063 -0.185,0.094c-0.045,-0.004 -0.178,-0.017 -0.52,-0.216c0.003,-0.285 -0.04,-0.268 -0.231,-0.478c-0.303,-1.009 0.038,-1.041 -0.159,-2.075c0.082,-0.243 0.084,-0.23 0.277,-0.406Z" style="fill:#523930;fill-opacity:1;"/><path d="M14.615,1.144c0.031,0.047 0.384,0.594 0.703,0.047c0.035,0.031 0.29,0.256 0.568,0.105c0.047,-0.025 0.038,-0.109 0.085,-0.135c0.058,0.019 0.066,0.116 0.124,0.135c0.036,0.012 0.061,-0.073 0.098,-0.061c0.171,0.055 0.137,0.084 0.412,0.39c-0.149,0.126 -0.154,0.096 -0.301,0.215c-0.929,-0.488 -0.991,-0.309 -0.998,-0.227c-0.018,0.234 0.385,0.151 0.212,0.631c-0.01,0.037 0.114,0.317 -0.651,0.316c-0.278,-0.246 -0.296,-0.332 -0.304,-0.369c-0.017,-0.015 -0.003,-0.022 -0.197,-0.206c-0.098,-0.093 -0.115,-0.043 -0.241,-0.089c0.316,-0.097 0.296,-0.123 0.323,-0.129l-0.022,-0.083c-0.003,-0.246 -0.024,-0.243 -0.227,-0.376c0.191,-0.14 0.18,-0.142 0.417,-0.162Z" style="fill:#ab7e51;fill-opacity:1;"/><path d="M7.746,2.686c1.718,-0.312 1.738,-0.053 2.633,0.542c-0.227,0.253 -0.223,0.317 -0.548,0.255c-0.365,-0.069 -0.333,0.14 -0.7,0.142l-0.228,-0.191c-0.497,-0.252 -0.48,-0.281 -0.636,-0.275c-0.073,0.003 -0.164,0.065 -0.218,0.017c-0.11,-0.098 0.053,-0.184 -0.079,-0.254c-0.023,-0.012 -0.017,-0.018 -0.224,-0.237Z" style="fill:#d0a468;fill-opacity:1;"/><path d="M11.183,4.794c0.336,0.081 0.582,0.101 0.317,1.069c-0.406,0.206 -1.207,-0.038 -1.873,-0.624c-0.07,-0.105 -0.139,-0.21 -0.209,-0.314c0.449,-0.033 0.411,0.162 0.851,0.192c0.181,0.153 0.565,-0.076 0.607,-0.101c0.102,-0.074 0.204,-0.147 0.306,-0.221Z" style="fill:#72503e;fill-opacity:1;"/><path d="M6.788,3.054l0.046,0.083c0.087,0.193 0.146,0.255 0.274,0.092c0.176,-0.223 0.206,-0.357 0.412,-0.156c0.271,0.265 0.331,0.139 0.661,0.351c0.593,0.381 0.705,0.023 0.721,0.011l0.228,0.191c0.011,0.088 0.021,0.176 0.032,0.264c-0.161,-0.113 -0.146,-0.111 -0.161,-0.113c-0.043,-0.006 -0.469,-0.066 -0.546,-0.009c-0.04,0.03 0.252,0.339 0.061,0.349c-0.349,0.018 -0.236,-0.206 -0.465,-0.308c-0.433,-0.192 -0.361,0.215 -0.824,0.269c-0.041,-0.026 -0.315,-0.203 -0.499,-0.345c-0.255,-0.267 -0.238,-0.396 -0.259,-0.565c0.295,-0.12 0.295,-0.103 0.32,-0.115Z" style="fill:#866347;fill-opacity:1;"/><path d="M11.71,4.014c0.358,0.196 0.379,0.271 0.731,0.068c0.086,0.321 0.215,0.745 -0.072,1.06c-0.203,0.223 -0.139,0.707 -0.869,0.722c0.265,-0.968 0.019,-0.989 -0.317,-1.069c0.263,-0.33 0.371,-0.254 0.527,-0.78Z" style="fill:#9b6f4a;fill-opacity:1;"/><path d="M4.126,2.267c-0.008,0.017 -0.252,0.16 -0.004,0.317c0.134,0.085 0.146,0.12 0.271,0.015c0.354,-0.3 0.503,0.122 0.857,-0.181c0.116,-0.099 0.124,-0.003 0.206,-0.004c-0.088,0.702 0.438,0.337 0.856,0.291c0.061,0.016 0.122,0.031 0.183,0.047c-0.193,0.176 -0.195,0.163 -0.277,0.406c-0.057,0.019 -0.114,0.039 -0.171,0.058c-0.24,-0.026 -0.397,-0.099 -0.313,0.132c0.08,0.219 0.081,0.262 -0.138,0.357c-0.071,-0.167 -0.167,-0.126 -0.194,-0.457c-0.001,-0.008 -0.002,-0.027 0.015,-0.105c0.039,-0.178 -0.059,-0.129 -0.257,-0.22c-0.266,-0.198 -0.504,-0.006 -0.878,0.205c-0.079,0.017 -0.158,0.034 -0.236,0.052l-0.005,-0.167c-0.168,-0.482 -0.272,-0.409 -0.768,-0.452c0.123,-0.227 0.212,-0.457 0.855,-0.292Z" style="fill:#a27851;fill-opacity:1;"/><path d="M22.254,1.992c0.011,0.216 0.046,0.406 0.052,0.441c0.046,0.041 0.092,0.082 0.138,0.123c-0.047,0.057 -0.304,0.236 0.105,0.253c0.038,-0.063 0.183,-0.011 0.107,-0.24c0.048,0.004 0.064,-0.094 0.112,-0.089c0.256,0.022 0.399,0.2 0.423,0.23c0.077,0.095 0.059,0.087 0.122,0.179c-0.551,0.608 -0.846,-0.144 -1.493,0.349c-0.032,0.034 -0.064,0.068 -0.097,0.101c-0.066,0.031 -0.132,0.062 -0.198,0.093c-0.349,-0.089 -0.537,-0.119 -0.309,-0.477c0.036,-0.025 0.19,-0.131 0.476,-0.264c0.158,-0.38 0.505,-0.654 0.562,-0.698Z" style="fill:#b78a58;fill-opacity:0.99;"/><path d="M20.491,4.257c0.533,0.388 0.546,0.371 0.569,0.447c0.024,0.081 -0.001,0.08 -0.29,0.817c-0.321,-0.201 -0.339,0.035 -0.718,0.017c-0.095,-0.205 -0.041,-0.211 -0.116,-0.411c0.008,-0.038 0.015,-0.077 0.023,-0.115c-0.166,-0.211 -0.159,-0.203 -0.319,-0.406c0.199,-0.282 0.201,-0.412 0.51,-0.264c0.189,0.091 0.18,0.023 0.34,-0.086Z" style="fill:#856047;fill-opacity:1;"/><path d="M20.053,5.538c0.378,0.018 0.396,-0.218 0.718,-0.017c-0.464,0.47 -0.658,0.812 -0.702,0.891c-1.037,0.261 -1.039,0.216 -2.105,0.107c0.08,-0.068 0.228,-0.338 0.628,-0.294c0.871,0.097 0.815,-0.146 1.461,-0.688Z" style="fill:#855f48;fill-opacity:0.99;"/><path d="M16.923,1.784c0.051,0.02 0.029,0.123 0.08,0.144c0.373,0.15 1.046,-0.391 1.492,0.268c-0.165,0.003 -0.155,-0.001 -0.317,0.043c-0.069,0.037 -0.138,0.073 -0.206,0.11c-0.442,0.067 -0.461,0.183 -0.731,-0.007c-0.235,-0.166 -0.137,0.231 -0.417,0.243c-0.209,0.009 -0.207,0.027 -0.385,-0.067l-0.048,0.105c-0.371,0.265 -0.401,0.136 -0.401,0.103c-0.002,-0.507 0.137,-0.451 0.567,-0.709c0.122,-0.077 0.244,-0.154 0.366,-0.232Z" style="fill:#9b714a;fill-opacity:1;"/><path d="M10.167,1.871c0.086,0.008 0.844,0.076 1.059,0.177c0.037,0.017 0.029,0.096 0.07,0.101c0.05,0.006 0.078,-0.084 0.127,-0.079c0.096,0.014 0.192,0.029 0.288,0.043c0.162,0.302 0.063,0.318 0.077,0.343c0.038,0.066 0.065,0.056 0.927,-0.188c-0.195,0.606 -0.415,0.35 -1.004,0.558c-0.104,-0.067 -0.085,-0.081 -0.207,-0.132c-0.198,-0.084 -0.203,-0.014 -0.416,-0.074c-0.288,-0.082 -0.318,-0.187 -0.532,0.026c-0.229,-0.391 -0.402,-0.32 -0.389,-0.774Z" style="fill:#b38453;fill-opacity:1;"/><path d="M16.959,4.826c0.011,0.072 0.082,0.526 -0.01,0.91c-0.594,0.076 -0.402,0.423 -0.957,0.643c-0.645,0.256 -0.695,0.016 -1.348,0.256c-0.136,0.05 -0.725,-0.342 -0.032,-0.33c0.473,0.008 0.443,-0.403 0.858,-0.179c0.347,0.187 0.596,-0.359 0.621,-0.413c0.23,-0.065 0.218,-0.063 0.416,-0.18c0.039,-0.047 0.223,-0.049 0.249,-0.514c0.001,-0.022 0.015,-0.014 0.203,-0.193Z" style="fill:#614437;fill-opacity:1;"/><path d="M16.098,3.131c0.193,0.065 0.237,-0.016 0.84,0.415c-0.117,0.173 -0.127,0.161 -0.17,0.358c-0.125,0.088 -0.127,0.065 -0.254,0.155c-0.033,0.001 -0.032,-0.014 -0.411,-0.005c-0.049,-0.013 -0.22,-0.059 -0.635,-0.062c-0.299,-0.055 -0.3,0.02 -0.6,-0.064l-0.045,-0.025c0.15,-0.189 0.13,-0.216 0.671,-0.422c0.381,-0.054 0.35,-0.136 0.382,-0.136c0.179,-0.005 0.177,-0.03 0.222,-0.215Z" style="fill:#c69a5f;fill-opacity:1;"/><path d="M11.177,3.952c0.178,0.021 0.355,0.041 0.533,0.062c-0.156,0.527 -0.264,0.45 -0.527,0.78c-0.102,0.074 -0.204,0.147 -0.306,0.221c-0.237,-0.143 -0.244,-0.108 -0.496,-0.235l-0.109,-0.094c-0.036,-0.004 -0.072,-0.007 -0.108,-0.011c-0.301,-0.105 -0.303,-0.089 -0.534,-0.32c0.596,0.017 0.553,-0.197 1.145,-0.246c0.405,0.251 0.504,0.219 0.548,0.205c0.03,-0.01 0.066,-0.039 -0.145,-0.363Z" style="fill:#a4794f;fill-opacity:0.99;"/><path d="M19.561,1.263c0.369,-0.018 0.352,-0.091 0.383,-0.089c0.257,0.016 0.044,0.279 0.566,0.591c0.057,0.037 0.113,0.075 0.17,0.112l-0.072,0.153c0.01,0.057 0.02,0.113 0.03,0.17c-0.019,0.075 -0.039,0.149 -0.058,0.224c-0.629,0.13 -0.594,-0.026 -0.607,-0.034c-0.061,-0.054 -0.251,-0.222 -0.617,-0.806c0.019,-0.023 0.003,-0.031 0.205,-0.319Z" style="fill:#a97d50;fill-opacity:1;"/><path d="M6.046,3.214c-0,0.103 -0.089,0.055 -0.089,0.151c-0,0.034 0.009,0.03 0.124,0.402c-0.233,0.168 -0.41,0.389 -0.441,0.427l-0.068,-0.033c-0.078,-0.004 -0.054,-0.05 -0.126,-0.054c-0.017,-0.001 0,0 -0.092,0.192c-0.142,0.056 -0.172,0.138 -0.229,0.018c-0.159,-0.333 -0.816,-0.253 -1.322,-0.799c0.169,-0.01 0.148,-0.039 0.284,-0.143c0.124,0.043 0.128,0.001 0.232,0.08c0.553,0.422 0.595,0.338 1.275,0.249c0.219,-0.095 0.218,-0.139 0.138,-0.357c-0.084,-0.231 0.073,-0.159 0.313,-0.132Z" style="fill:#8d6749;fill-opacity:1;"/><path d="M21.959,1.76c0.239,0.192 0.229,0.188 0.295,0.231c-0.056,0.044 -0.403,0.319 -0.562,0.698c-0.207,-0.272 -0.263,-0.135 -0.593,-0.07c-0.26,-0.115 -0.243,-0.116 -0.52,-0.198c0.019,-0.075 0.039,-0.149 0.058,-0.224c-0.01,-0.057 -0.02,-0.113 -0.03,-0.17l0.072,-0.153l0.103,-0.02c0.378,-0.05 0.368,-0.011 0.74,0.052c0.065,-0.008 0.13,-0.016 0.195,-0.024c0.08,-0.041 0.16,-0.083 0.24,-0.124Z" style="fill:#a2764d;fill-opacity:1;"/><path d="M13.599,3.472c0.089,0.056 0.105,0.194 0.194,0.25c0.114,0.072 0.305,-0.464 0.935,0.17c-0.652,0.259 -0.677,0.119 -0.823,0.15c-0.835,0.177 -0.749,0.343 -0.96,0.524c-0.406,0.046 -0.363,-0.181 -0.132,-0.506c0.29,-0.406 0.357,-0.321 0.785,-0.589Z" style="fill:#8a6546;fill-opacity:1;"/><path d="M3.796,0.891c0.219,0.014 0.205,-0.005 0.408,-0.056l0.417,-0.003c0.323,0.063 0.324,0.118 0.621,-0.002l0.094,-0.016l0.014,0.217c-0.435,0.331 -0.864,0.203 -1.666,0.368c-0.354,0.073 -0.365,0.118 -0.679,-0.076c0.153,-0.148 0.143,-0.148 0.157,-0.16c0.109,-0.096 0.286,-0.194 0.312,-0.209c0.171,-0.005 0.158,-0.012 0.321,-0.063Z" style="fill:#cca267;fill-opacity:0.93;"/><path d="M13.418,5.637c0.133,0.357 0.205,0.352 0.129,0.522c-0.016,0.036 -0.176,0.155 -0.291,0.365c-0.255,-0.094 -0.244,-0.084 -0.501,-0.137c-0.055,-0.022 -0.111,-0.045 -0.166,-0.067c-0.113,-0.231 -0.131,-0.229 -0.122,-0.249c0.16,-0.349 0.114,-0.354 0.178,-0.738c0.225,-1.356 0.317,0.178 0.313,0.207c-0.052,0.335 0.142,0.205 0.459,0.097Z" style="fill:#412e28;fill-opacity:0.98;"/><path d="M1.515,2.964c-0.108,0.205 0.092,0.218 0.007,0.387c-0.213,0.424 -0.212,0.421 -0.213,0.424c-0.041,0.399 -0.167,0.397 -0.012,0.78c-0.004,0.117 -0.009,0.233 -0.013,0.35c-0.211,0.101 -0.187,0.124 -0.314,0.324l-0.234,-0.402c0.138,-0.3 0.218,-0.303 0.115,-0.432c-0.147,-0.185 -0.086,-0.197 -0.14,-0.422c-0.013,-0.052 0.389,-0.766 0.804,-1.008Z" style="fill:#8c6447;fill-opacity:0.99;"/><path d="M7.746,2.686c0.207,0.219 0.201,0.224 0.224,0.237c0.131,0.07 -0.032,0.156 0.079,0.254c0.054,0.048 0.145,-0.014 0.218,-0.017c0.156,-0.006 0.14,0.023 0.636,0.275c-0.016,0.012 -0.128,0.369 -0.721,-0.011c-0.33,-0.212 -0.39,-0.086 -0.661,-0.351c-0.206,-0.201 -0.236,-0.067 -0.412,0.156c-0.129,0.163 -0.187,0.101 -0.274,-0.092c-0.015,-0.028 -0.031,-0.056 -0.046,-0.083c-0.025,0.012 -0.025,-0.005 -0.32,0.115c0.066,-0.215 0.075,-0.194 0.232,-0.371c0.348,-0.037 0.697,-0.074 1.045,-0.111Z" style="fill:#b78e5c;fill-opacity:1;"/><path d="M24.416,1.776c0.045,-0.324 0.191,-0.128 0.615,0.153c0.289,0.192 0.216,0.303 -0.07,0.485c-0.29,0.127 -0.332,0.143 -0.286,0.455l-0.046,0.043l-0.087,0.024c-0.15,0.018 -0.166,0.024 -0.208,-0.109c-0.013,-0.04 -0.068,-0.216 -0.334,-0.401c0.107,-0.187 0.082,-0.185 0.202,-0.356c0.11,-0.155 0.152,-0.119 0.214,-0.295Z" style="fill:#f1c87e;fill-opacity:0.82;"/><path d="M6.915,0.317c0.175,-0.005 0.349,-0.011 0.524,-0.016c0.647,0.888 -1.07,0.066 -1.708,0.708c-0.148,0.149 -0.162,0.076 -0.379,0.022l-0.014,-0.217c0.576,-0.266 0.546,-0.342 1.054,-0.393c0.481,-0.108 0.482,-0.093 0.523,-0.105Z" style="fill:#d9b172;fill-opacity:0.96;"/><path d="M5.364,1.852c0.513,0.257 0.531,0.231 0.879,0.68c-0.022,-0.003 -0.216,-0.027 -0.273,-0.046c-0.126,-0.042 -0.474,-0.07 -0.515,-0.073c-0.082,0.002 -0.09,-0.095 -0.206,0.004c-0.355,0.303 -0.503,-0.119 -0.857,0.181c-0.125,0.106 -0.137,0.071 -0.271,-0.015c-0.247,-0.157 -0.004,-0.3 0.004,-0.317c0.143,-0.031 0.134,-0.061 0.276,-0.028c0.354,0.082 0.328,-0.024 0.531,-0.167c0.252,-0.051 0.245,-0.048 0.43,-0.221Z" style="fill:#b08557;fill-opacity:1;"/><path d="M9.74,1.436c0.241,-0.043 0.281,-0.057 0.304,-0.066c0.357,-0.132 0.326,0.153 0.703,0.135c0.462,0.243 0.788,0.055 0.676,0.565c-0.05,-0.006 -0.078,0.084 -0.127,0.079c-0.041,-0.005 -0.033,-0.084 -0.07,-0.101c-0.215,-0.1 -0.974,-0.169 -1.059,-0.177c-0.273,-0.131 -0.447,-0.077 -0.661,-0.041c-0.313,-0.125 -0.022,-0.186 0.234,-0.394Z" style="fill:#b58755;fill-opacity:0.99;"/><path d="M9.506,1.83c0.214,-0.037 0.387,-0.09 0.661,0.041c-0.013,0.454 0.16,0.383 0.389,0.774c0.349,0.329 0.448,0.052 0.636,0.17c0.079,0.05 0.128,0.141 0.207,0.191c-0.115,0.009 -0.738,0.33 -1.571,-0.485c-0.284,-0.278 0.003,-0.442 -0.322,-0.691Z" style="fill:#855d41;fill-opacity:0.99;"/><path d="M3.271,2.559c0.497,0.043 0.601,-0.03 0.768,0.452c-0.33,0.018 -0.329,0.011 -0.356,0.019c-0.628,0.184 -0.638,0.157 -1.261,-0.067c-0.529,-0.191 -0.064,-0.403 0.025,-0.342c0.365,0.251 0.385,-0.041 0.825,-0.062Z" style="fill:#866246;fill-opacity:0.99;"/><path d="M5.159,2.922c0.199,0.091 0.296,0.042 0.257,0.22c-0.017,0.077 -0.015,0.096 -0.015,0.105c0.027,0.332 0.123,0.291 0.194,0.457c-0.68,0.089 -0.722,0.173 -1.275,-0.249c-0.104,-0.079 -0.108,-0.037 -0.232,-0.08l-0.12,-0.151l0.077,-0.046c0.079,-0.017 0.158,-0.034 0.236,-0.052c0.446,0.314 0.522,0.204 0.878,-0.205Z" style="fill:#c0945e;fill-opacity:0.99;"/><path d="M16.923,1.784c0.066,-0.041 0.173,-0.109 0.942,-0.232c0.642,-0.102 0.63,0.017 1.111,0.449c-0.161,0.144 -0.141,0.301 -0.481,0.195c-0.446,-0.659 -1.118,-0.118 -1.492,-0.268c-0.051,-0.02 -0.029,-0.123 -0.08,-0.144Z" style="fill:#c2935b;fill-opacity:1;"/><path d="M20.169,3.647c0.041,0.037 0.137,0.126 0.322,0.61c-0.16,0.109 -0.151,0.176 -0.34,0.086c-0.309,-0.148 -0.311,-0.018 -0.51,0.264l-0.097,0.033c-0.084,0.033 -0.169,0.065 -0.253,0.098c-0.027,-0.043 -0.053,-0.086 -0.08,-0.128c-0.014,-0.291 -0.046,-0.3 0.12,-0.534c0.145,0.004 0.149,0.004 0.223,-0.111c0.069,-0.023 0.138,-0.046 0.207,-0.069c0.088,-0.014 0.135,0.067 0.408,-0.249Z" style="fill:#916a4a;fill-opacity:1;"/><path d="M20.478,1.113c-0.035,0.075 -0.376,0.337 0.1,0.361c0.775,0.04 0.912,0.357 0.945,0.434c-0.372,-0.063 -0.362,-0.102 -0.74,-0.052c-0.091,-0.031 -0.182,-0.061 -0.273,-0.092c-0.522,-0.312 -0.309,-0.575 -0.566,-0.591c-0.031,-0.002 -0.014,0.071 -0.383,0.089c0.051,-0.408 0.508,-0.418 0.639,-0.311c0.132,0.107 0.129,0.098 0.278,0.162Z" style="fill:#d2a566;fill-opacity:0.99;"/><path d="M16.938,3.547c0.249,0.233 0.279,0.207 0.357,0.552c-0.108,0.226 -0.128,0.201 -0.247,0.413l-0.069,0.138c-0.24,-0.127 -0.236,-0.142 -0.259,-0.137c-0.035,0.008 -0.068,0.039 -0.103,0.032c-0.316,-0.065 -0.315,-0.024 -0.341,-0.031c-0.033,-0.008 0.032,-0.093 -0.001,-0.101c-0.022,-0.081 -0.045,-0.162 -0.067,-0.242l-0.106,-0.115c0.38,-0.009 0.379,0.006 0.411,0.005c0.192,0.084 0.189,0.088 0.207,0.091c0.172,0.03 0.016,-0.083 0.047,-0.246c0.043,-0.198 0.053,-0.185 0.17,-0.358Z" style="fill:#ac7f50;fill-opacity:1;"/><path d="M13.768,1.559c0.221,0.017 0.606,0.111 0.658,0.123l0.022,0.083c-0.027,0.006 -0.007,0.032 -0.323,0.129c0.032,0.055 0.103,0.584 0.438,0.295c0.008,0.037 0.026,0.123 0.304,0.369c-0.085,0.127 -0.098,0.1 -0.233,0.179c-0.391,-0.315 -1.322,-0.619 -0.865,-1.179Z" style="fill:#a87b4e;fill-opacity:1;"/><path d="M10.379,3.228c0.216,0.27 0.288,0.137 0.609,0.283c-0.147,0.148 -0.132,0.141 -0.294,0.274c-0.278,-0.317 -0.335,-0.057 -1.17,0.089c-0.188,0.033 -0.177,0.084 -0.361,0.016c-0.011,-0.088 -0.021,-0.176 -0.032,-0.264c0.367,-0.002 0.335,-0.211 0.7,-0.142c0.326,0.062 0.322,-0.003 0.548,-0.255Z" style="fill:#b28756;fill-opacity:1;"/><path d="M16.224,4.386l0.051,0.027c0.033,0.008 -0.032,0.093 0.001,0.101c0.027,0.007 0.025,-0.034 0.341,0.031c0.035,0.007 0.068,-0.024 0.103,-0.032c0.023,-0.005 0.019,0.01 0.259,0.137l-0.02,0.177c-0.188,0.179 -0.202,0.171 -0.203,0.193c-0.026,0.465 -0.21,0.467 -0.249,0.514c-0.071,-0.192 -0.374,-0.695 -0.396,-0.833c-0.055,-0.345 0.095,-0.282 0.113,-0.315Z" style="fill:#926948;fill-opacity:1;"/><path d="M16.098,3.131c-0.045,0.184 -0.042,0.21 -0.222,0.215c-0.032,0.001 -0.001,0.082 -0.382,0.136c-0.195,-0.765 -0.857,0.471 -1.376,-0.224c1.091,-0.266 1.096,-0.231 1.98,-0.127Z" style="fill:#c79b61;fill-opacity:1;"/><path d="M14.117,3.259c0.52,0.695 1.181,-0.541 1.376,0.224c-0.541,0.205 -0.521,0.233 -0.671,0.422l-0.094,-0.012c-0.631,-0.635 -0.821,-0.098 -0.935,-0.17c-0.089,-0.056 -0.105,-0.194 -0.194,-0.25c0.074,-0.025 0.147,-0.051 0.221,-0.076l0.298,-0.137Z" style="fill:#af8454;fill-opacity:1;"/><path d="M20.478,1.113c0.498,-0.01 0.476,0.06 0.944,0.24c0.177,0.068 0.169,0.081 0.261,0.081l0.013,0.122c0.008,0.109 0.015,0.218 0.023,0.327c-0.065,0.008 -0.13,0.016 -0.195,0.024c-0.033,-0.076 -0.17,-0.393 -0.945,-0.434c-0.476,-0.025 -0.135,-0.287 -0.1,-0.361Z" style="fill:#cb9c5f;fill-opacity:0.99;"/><path d="M8.515,1.082c0.172,-0.296 0.2,0.024 0.504,0.197c-0.047,0.075 -0.21,0.337 -0.851,0.702c-0.027,-0.077 -0.068,-0.034 -0.095,-0.112c-0.005,-0.015 -0,0 -0.029,-0.192c0.133,-0.283 0.132,-0.272 0.343,-0.512l0.052,-0.027l0.077,-0.056Z" style="fill:#d8aa6a;fill-opacity:1;"/><path d="M12.624,1.786c-0.255,-0.098 -0.358,-0.094 -0.39,-0.092c-0.168,0.007 -0.102,-0.078 -0.01,-0.219c0.016,-0.025 0.005,-0.023 -0.084,-0.211c-0.056,-0.119 0.479,-0.489 0.633,-0.34c0.36,0.347 -0.034,0.377 -0.148,0.863Z" style="fill:#e3b56f;fill-opacity:1;"/><path d="M17.611,3.86c0.24,0.286 0.242,0.272 0.569,0.441c-0.415,0.358 -0.467,0.559 -1.132,0.21c0.119,-0.212 0.14,-0.187 0.247,-0.413c0.059,-0.005 0.087,0.107 0.146,0.102c0.179,-0.016 0.016,-0.152 0.17,-0.341Z" style="fill:#704e3b;fill-opacity:1;"/><path d="M19.201,3.958l0.13,0.118c-0.165,0.234 -0.134,0.243 -0.12,0.534c-0.261,-0.039 -0.251,0.014 -0.503,-0.028c-0.304,-0.051 -0.247,-0.143 -0.528,-0.28c0.44,-0.327 0.526,-0.086 1.021,-0.344Z" style="fill:#795641;fill-opacity:1;"/><path d="M19.723,2.982l0.042,0.014c-0.018,0.021 -0.231,0.261 -0.231,0.261c-0.621,-0.039 -0.637,0.15 -1.221,-0.071c0.774,-0.367 1.223,-0.237 1.41,-0.204Z" style="fill:#d1a56a;fill-opacity:1;"/><path d="M9.418,4.925c0.07,0.105 0.139,0.21 0.209,0.314c-0.125,0.195 -0.185,0.158 -0.202,0.148c-0.176,-0.109 -0.173,-0.195 -0.329,-0.099c-0.365,0.224 -0.897,-0.292 -0.511,-0.336c0.066,-0.008 0.055,0.006 0.834,-0.026Z" style="fill:#654739;fill-opacity:1;"/><path d="M6.081,3.768l0.028,0.101l-0.02,0.11c-0.121,0.392 -0.19,0.381 -0.086,0.761c0.008,0.029 -0.053,0.495 -0.37,-0.036c-0.08,-0.258 -0.051,-0.254 0.008,-0.508c0.031,-0.038 0.208,-0.259 0.441,-0.427Z" style="fill:#a0734d;fill-opacity:1;"/><path d="M10.556,2.645c0.214,-0.213 0.245,-0.108 0.532,-0.026c0.214,0.061 0.219,-0.009 0.416,0.074c0.122,0.052 0.103,0.066 0.207,0.132l-0.106,0.095l-0.208,0.085c-0.079,-0.05 -0.128,-0.141 -0.207,-0.191c-0.188,-0.119 -0.287,0.159 -0.636,-0.17Z" style="fill:#936846;fill-opacity:0.99;"/><path d="M19.356,1.582c0.367,0.584 0.556,0.752 0.617,0.806c-0.063,0.05 -0.127,0.099 -0.19,0.149c-0.131,-0.169 -0.158,-0.118 -0.378,-0.185c-0.181,-0.37 -0.116,-0.375 -0.049,-0.771Z" style="fill:#916847;fill-opacity:1;"/><path d="M6.285,5.723c0.107,-0.005 0.215,-0.01 0.322,-0.015c0.342,0.2 0.475,0.212 0.52,0.216c-0.126,0.207 -0.098,0.246 -0.21,0.247c-0.224,0.002 -0.18,-0.146 -0.409,-0.141c-0.27,0.005 -0.331,-0.065 -0.224,-0.307Z" style="fill:#ab8055;fill-opacity:1;"/><path d="M13.591,1.263c0.323,-0.111 0.347,-0.171 0.608,0.043c0.203,0.133 0.224,0.131 0.227,0.376c-0.052,-0.013 -0.437,-0.107 -0.658,-0.123c-0.038,-0.178 -0.061,-0.156 -0.177,-0.296Z" style="fill:#9e7149;fill-opacity:1;"/><path d="M5.455,2.413c0.041,0.003 0.389,0.03 0.515,0.073c0.057,0.019 0.251,0.044 0.273,0.046c0.023,0.057 0.045,0.114 0.068,0.171c-0.418,0.047 -0.944,0.411 -0.856,-0.291Z" style="fill:#996e4b;fill-opacity:1;"/><path d="M6.728,3.734c0.184,0.142 0.458,0.318 0.499,0.345c-0.114,0.206 -0.15,0.187 -0.157,0.42c-0.009,0.285 -0.261,-0.075 -0.274,-0.094c-0.029,-0.229 0.087,-0.253 -0.069,-0.428c-0.102,-0.115 -0.124,-0.092 -0.124,-0.105c0,-0.112 0.124,-0.029 0.125,-0.137Z" style="fill:#755640;fill-opacity:1;"/><path d="M5.159,2.922c-0.356,0.408 -0.432,0.518 -0.878,0.205c0.373,-0.21 0.611,-0.403 0.878,-0.205Z" style="fill:#ebc789;fill-opacity:1;"/><path d="M17.763,1.03c-0.173,0.148 -0.192,0.407 -0.622,0.224c-0.03,-0.041 -0.073,-0.073 -0.103,-0.114c-0.367,-0.505 0.269,-0.135 0.725,-0.11Z" style="fill:#b98a56;fill-opacity:1;"/><path d="M7.219,1.763c0.07,0.012 0.139,0.025 0.209,0.037c0.058,0.084 0.05,0.08 0.294,0.547c-0.288,-0.018 -0.553,-0.106 -0.599,-0.122c0.09,-0.224 0.094,-0.214 0.095,-0.462Z" style="fill:#77523d;fill-opacity:1;"/><path d="M14.867,3.929c0.3,0.084 0.301,0.009 0.6,0.064c-0.084,0.324 -0.138,0.482 -0.4,0.265c-0.259,-0.215 -0.179,-0.261 -0.201,-0.329Z" style="fill:#98714c;fill-opacity:1;"/><path d="M6.377,5.231c0.19,0.21 0.233,0.192 0.231,0.478c-0.107,0.005 -0.215,0.01 -0.322,0.015l-0.191,-0.028c-0.002,-0.093 -0.004,-0.185 -0.006,-0.278c0.181,-0.025 0.172,-0.039 0.288,-0.186Z" style="fill:#76533e;fill-opacity:1;"/><path d="M14.747,1.064c0.151,-0.079 0.146,-0.061 0.317,-0.02c0.244,0.131 0.232,0.137 0.254,0.146c-0.318,0.547 -0.672,0.001 -0.703,-0.047c0.044,-0.026 0.088,-0.053 0.132,-0.079Z" style="fill:#845a3d;fill-opacity:1;"/><path d="M10.38,4.78c0.252,0.127 0.26,0.092 0.496,0.235c-0.042,0.025 -0.427,0.254 -0.607,0.101c0.01,-0.188 0.032,-0.174 0.111,-0.336Z" style="fill:#866247;fill-opacity:0.99;"/><path d="M18.477,0.767c-0.178,0.097 -1.075,0.035 -0.528,-0.265c0.303,-0.166 0.272,0.041 0.528,0.265Z" style="fill:#d7a867;fill-opacity:1;"/><path d="M21.1,2.62c0.33,-0.065 0.386,-0.202 0.593,0.07c-0.286,0.133 -0.44,0.239 -0.476,0.264c-0.09,-0.167 -0.109,-0.149 -0.117,-0.334Z" style="fill:#75513c;fill-opacity:0.99;"/><path d="M20.169,3.647c-0.272,0.316 -0.32,0.235 -0.408,0.249c-0.078,-0.4 -0.165,-0.446 -0.012,-0.506c0.033,-0.013 0.161,0.111 0.42,0.257Z" style="fill:#966d4a;fill-opacity:1;"/><path d="M6.895,1.286c0.212,-0.139 0.207,-0.155 0.228,-0.15c0.2,0.039 0.192,-0.024 0.206,-0.015c0.026,0.018 0.396,0.692 -0.31,0.248l-0.125,-0.082Z" style="fill:#c3965e;fill-opacity:1;"/><path d="M16.604,1.624l0.11,0.009c0.07,0.05 0.14,0.101 0.21,0.151c-0.122,0.077 -0.244,0.154 -0.366,0.232c-0.107,-0.13 -0.104,-0.123 -0.255,-0.176c0.147,-0.119 0.152,-0.088 0.301,-0.215Z" style="fill:#7f583f;fill-opacity:1;"/><path d="M24.416,1.776c-0.062,0.176 -0.104,0.139 -0.214,0.295c-0.121,0.171 -0.096,0.169 -0.202,0.356c-0.017,-0.035 -0.098,0.028 -0.116,-0.007c-0.021,-0.043 0.013,-0.29 0.04,-0.315c0.245,-0.227 0.174,-0.406 0.492,-0.33Z" style="fill:#a98a5d;fill-opacity:0.06;"/><path d="M20.49,2.045c-0.558,0.127 -0.554,-0.004 -0.541,-0.045c0.113,-0.36 0.251,-0.202 0.541,0.045Z" style="fill:#bf9159;fill-opacity:0.99;"/><path d="M6.898,2.006c0.105,0.123 0.1,0.117 0.226,0.219c-0.027,0.138 -0.05,0.125 -0.05,0.257c0,0.023 -0.089,0.417 -0.286,-0.058c0.037,-0.14 0.073,-0.279 0.11,-0.419Z" style="fill:#7a563f;fill-opacity:1;"/><path d="M11.913,4.505c0.028,0.038 0.055,0.077 0.083,0.115c0.012,0.022 0.71,1.33 -0.074,0.303c-0.125,-0.164 -0.263,-0.217 -0.008,-0.417Z" style="fill:#ad8053;fill-opacity:0.99;"/><path d="M14.673,0.847c0.651,-0.513 0.404,0.165 0.391,0.198c-0.171,-0.041 -0.166,-0.059 -0.317,0.02c-0.025,-0.073 -0.049,-0.145 -0.074,-0.218Z" style="fill:#af804e;fill-opacity:0.99;"/><path d="M19.406,2.353c0.22,0.067 0.246,0.015 0.378,0.185c-0.037,0.277 -0.04,0.269 -0.043,0.292c-0.294,-0.131 -0.275,-0.165 -0.335,-0.477Z" style="fill:#835d42;fill-opacity:1;"/><path d="M13.96,4.841c0.321,-0.162 0.301,0.023 0.391,0.365c-0.173,-0.083 -0.27,0.008 -0.391,-0.365Z" style="fill:#5c4438;fill-opacity:1;"/><path d="M11.177,3.952c0.211,0.324 0.175,0.353 0.145,0.363c-0.045,0.014 -0.143,0.046 -0.548,-0.205c0.198,-0.101 0.196,-0.102 0.213,-0.11c0.096,-0.041 0.095,-0.008 0.189,-0.049Z" style="fill:#c3965f;fill-opacity:0.99;"/><path d="M7.359,6.254c0.218,0.486 -0.181,0.424 -0.322,0.225c0.025,-0.025 -0.053,-0.076 -0.029,-0.101c0.021,-0.021 0.041,0.054 0.351,-0.124Z" style="fill:#956d4d;fill-opacity:0.99;"/><path d="M14.124,1.894c0.126,0.047 0.142,-0.004 0.241,0.089c0.194,0.184 0.18,0.191 0.197,0.206c-0.334,0.289 -0.406,-0.241 -0.438,-0.295Z" style="fill:#906545;fill-opacity:1;"/><path d="M2.637,1.68l-0.038,0.062c-0.188,0.227 -0.16,0.28 -0.45,0.298c0.007,-0.019 -0.076,-0.286 0.488,-0.36Z" style="fill:#916e4e;fill-opacity:0.11;"/><path d="M3.968,3.224l0.12,0.151c-0.136,0.104 -0.115,0.134 -0.284,0.143c-0.108,-0.046 -0.112,-0.03 -0.188,-0.127c0.118,-0.056 0.235,-0.112 0.353,-0.167Z" style="fill:#99724e;fill-opacity:1;"/><path d="M14.308,0.829c-0.514,0.129 -0.214,-0.253 -0.09,-0.27c0.192,-0.027 0.101,0.083 0.09,0.27Z" style="fill:#9d7047;fill-opacity:1;"/><path d="M22.254,1.992c0.375,0.209 0.313,0.279 0.287,0.299c-0.017,0.013 -0.017,0.01 -0.234,0.142c-0.006,-0.035 -0.042,-0.224 -0.052,-0.441Z" style="fill:#c4965c;fill-opacity:0.99;"/><path d="M21.159,4.009c0.282,0.124 0.22,0.184 0.277,0.484c-0.135,-0.115 -0.307,-0.076 -0.277,-0.484Z" style="fill:#8b6447;fill-opacity:1;"/><path d="M22.445,2.555l0.108,0.01c0.043,0.12 0.01,0.114 -0.003,0.243c-0.409,-0.017 -0.152,-0.196 -0.105,-0.253Z" style="fill:#9f724b;fill-opacity:0.99;"/><path d="M19.201,3.958c0.184,-0.066 0.188,-0.111 0.353,0.007c-0.074,0.114 -0.077,0.115 -0.223,0.111l-0.13,-0.118Z" style="fill:#604133;fill-opacity:0.99;"/><path d="M21.696,1.557l0.158,0c0.035,0.068 0.069,0.136 0.104,0.203c-0.08,0.041 -0.16,0.083 -0.24,0.124c-0.008,-0.109 -0.015,-0.218 -0.023,-0.327Z" style="fill:#9c6f45;fill-opacity:0.99;"/><path d="M8.044,1.677c0.029,0.192 0.024,0.177 0.029,0.192c0.028,0.077 0.068,0.035 0.095,0.112c-0.029,-0.005 -0.43,-0.069 -0.311,-0.195c0.049,-0.053 0.138,-0.056 0.187,-0.108Z" style="fill:#b18150;fill-opacity:1;"/><path d="M22.46,5.552c0.075,0.01 0.15,0.021 0.226,0.031c-0.219,0.114 -0.208,0.108 -0.429,0.197c0.007,-0.013 -0.082,-0.148 0.108,-0.209c0.046,-0.015 0.04,-0.002 0.095,-0.019Z" style="fill:#755341;fill-opacity:0.84;"/><path d="M21.684,1.435c0.335,-0.526 0.176,0.106 0.171,0.122l-0.158,-0l-0.013,-0.122Z" style="fill:#ba8b52;fill-opacity:0.99;"/><path d="M5.84,1.28c0.293,0.3 -0.25,0.118 -0.249,0.077c0.003,-0.171 0.082,-0.088 0.249,-0.077Z" style="fill:#a47850;fill-opacity:1;"/><path d="M0.971,2.935c-0.104,0.34 -0.215,0.336 -0.315,0.416c0.012,-0.183 0.06,-0.156 0.315,-0.416Z" style="fill:#a17e5a;fill-opacity:0.18;"/><path d="M5.956,5.719c-0.071,0.047 -0.141,0.094 -0.212,0.141c-0.005,-0.02 -0.111,-0.408 0.212,-0.141Z" style="fill:#795741;fill-opacity:1;"/><path d="M4.621,0.832l0.621,-0.002c-0.298,0.12 -0.298,0.065 -0.621,0.002Z" style="fill:#9b7b54;fill-opacity:0.15;"/><path d="M19.545,4.639c-0.011,0.217 -0.108,0.259 -0.253,0.098c0.084,-0.033 0.169,-0.065 0.253,-0.098Z" style="fill:#856248;fill-opacity:1;"/><path d="M16.767,3.905c-0.031,0.163 0.125,0.276 -0.047,0.246c-0.018,-0.003 -0.015,-0.007 -0.207,-0.091c0.127,-0.09 0.129,-0.067 0.254,-0.155Z" style="fill:#bd8f59;fill-opacity:1;"/><path d="M20.578,0.736c0.262,-0.079 0.256,-0.081 0.523,-0.003c-0.209,0.008 -0.481,0.004 -0.523,0.003Z" style="fill:#a08057;fill-opacity:0.15;"/><path d="M10.461,0.314c0.265,-0.073 0.258,-0.073 0.524,0.002c-0.051,-0 -0.041,-0.011 -0.102,-0.011c-0.034,-0 -0.031,0.001 -0.422,0.009Z" style="fill:#a28358;fill-opacity:0.16;"/><path d="M21.206,2.222c0.063,-0.023 0.04,-0.149 0.103,-0.172c0.064,-0.023 0.153,0.134 0.11,0.166c-0.014,0.01 0,0 -0.213,0.005Z" style="fill:#b08454;fill-opacity:1;"/><path d="M21.721,3.708c-0.03,-0.009 -0.061,0.031 -0.091,0.022c-0.147,-0.046 -0.06,-0.099 0.076,-0.17l0.015,0.148Z" style="fill:#8c6649;fill-opacity:1;"/><path d="M13.587,0.202l0.104,0.002c-0.149,0.083 -0.136,0.086 -0.307,0.125c0.078,-0.101 0.073,-0.096 0.203,-0.127Z" style="fill:#b79361;fill-opacity:0.14;"/><path d="M11.913,4.505c0.003,-0.051 -0.114,-0.056 -0.111,-0.107c0.022,-0.419 0.188,0.199 0.194,0.222c-0.028,-0.038 -0.055,-0.077 -0.083,-0.115Z" style="fill:#a2754c;fill-opacity:0.99;"/><path d="M3.796,0.891c0.209,-0.036 0.2,-0.034 0.408,-0.056c-0.204,0.051 -0.189,0.07 -0.408,0.056Z" style="fill:#ac885b;fill-opacity:0.24;"/><path d="M2.019,2.112c-0.107,0.115 -0.096,0.104 -0.223,0.186c0.091,-0.133 0.066,-0.162 0.223,-0.186Z" style="fill:#9d7850;fill-opacity:0.15;"/><path d="M11.937,0.983c0.137,-0.086 0.144,-0.28 0.193,-0.121c0.024,0.079 -0.045,0.122 -0.055,0.128c-0.072,0.045 -0.072,-0.049 -0.138,-0.007Z" style="fill:#d2a460;fill-opacity:0.99;"/><path d="M3.796,0.891c0.19,-0.105 0.184,-0.115 0.408,-0.056c-0.208,0.021 -0.199,0.02 -0.408,0.056Z" style="fill:#8b6e4b;fill-opacity:0.13;"/><path d="M3.474,0.954c-0.026,0.015 -0.203,0.113 -0.312,0.209c0.116,-0.163 0.111,-0.167 0.312,-0.209Z" style="fill:#94744e;fill-opacity:0.26;"/><path d="M5.572,4.162c-0.073,0.046 -0.145,0.092 -0.218,0.138c0.092,-0.192 0.075,-0.193 0.092,-0.192c0.072,0.003 0.048,0.05 0.126,0.054Z" style="fill:#866148;fill-opacity:1;"/><path d="M22.553,2.565l0.104,0.003c0.076,0.229 -0.069,0.177 -0.107,0.24c0.014,-0.129 0.047,-0.124 0.003,-0.243Z" style="fill:#ab7e50;fill-opacity:0.99;"/><path d="M12.343,0.614l0.305,-0.001c-0.152,0.063 -0.151,0.064 -0.305,0.001Z" style="fill:#a28155;fill-opacity:0.1;"/><path d="M22.219,5.144c-0.027,-0.06 -0.065,0.044 -0.088,-0.007c-0.005,-0.012 -0.035,-0.079 0.012,-0.163c0.153,-0.268 0.078,0.156 0.076,0.17Z" style="fill:#c1945f;fill-opacity:0.99;"/><path d="M3.263,6.07c0.037,0.002 0.073,-0.015 0.109,-0.012c0.089,0.006 0.111,0.026 0.058,0.109c-0.068,0.107 -0.057,-0.033 -0.168,-0.097Z" style="fill:#664a3a;fill-opacity:0.99;"/><path d="M17.422,2.893c-0.194,0.041 -0.179,0.046 -0.194,0.041c-0.171,-0.064 0.023,-0.052 0.194,-0.041Z" style="fill:#976d49;fill-opacity:1;"/><path d="M9.64,1.412c-0.025,0.014 -0.022,-0.004 -0.33,0.134c0.14,-0.135 0.137,-0.147 0.33,-0.134Z" style="fill:#ad7f51;fill-opacity:1;"/><path d="M11.229,0.988c0.072,-0.023 0.031,-0.07 0.096,-0.091c0.147,-0.048 -0.01,0.052 -0.039,0.201l-0.058,-0.109Z" style="fill:#cb9d5f;fill-opacity:0.99;"/><path d="M20.07,0.609l0.284,0.071c-0.157,0.012 -0.145,-0.001 -0.284,-0.071Z" style="fill:#9b7951;fill-opacity:0.22;"/><path d="M20.511,1.764c0.091,0.031 0.182,0.061 0.273,0.092l-0.103,0.02c-0.057,-0.037 -0.113,-0.075 -0.17,-0.112Z" style="fill:#c5975e;fill-opacity:1;"/><path d="M13.587,0.202c0.168,-0.029 0.155,-0.033 0.317,0c-0.071,0.001 -0.142,0.001 -0.213,0.002l-0.104,-0.002Z" style="fill:#a48457;fill-opacity:0.18;"/><path d="M0.491,3.793l0.041,-0.032l-0.008,0.212c-0.011,-0.06 -0.022,-0.12 -0.033,-0.18Z" style="fill:#947252;fill-opacity:0.31;"/><path d="M16.208,4.17c0.022,0.081 0.045,0.162 0.067,0.242l-0.051,-0.027l-0.016,-0.216Z" style="fill:#996f4a;fill-opacity:1;"/><path d="M12.59,6.321c0.055,0.022 0.111,0.045 0.166,0.067c-0.069,-0.002 -0.137,-0.004 -0.206,-0.006l0.039,-0.062Z" style="fill:#54392f;fill-opacity:0.76;"/><path d="M12.33,3.513c-0.14,-0.019 -0.271,0.093 -0.187,-0.025c0,0 0.172,0.023 0.187,0.025Z" style="fill:#573a2f;fill-opacity:1;"/><path d="M14.731,2.003c-0.005,-0.008 -0.058,-0.101 -0.058,-0.101c0.056,-0.068 0.015,0.026 0.058,0.101Z" style="fill:#a2774d;fill-opacity:1;"/></svg>