<?xml version="1.0" encoding="UTF-8" standalone="no"?><!DOCTYPE svg PUBLIC "-//W3C//DTD SVG 1.1//EN" "http://www.w3.org/Graphics/SVG/1.1/DTD/svg11.dtd"><svg width="100%" height="100%" viewBox="0 0 12 24" version="1.1" xmlns="http://www.w3.org/2000/svg" xmlns:xlink="http://www.w3.org/1999/xlink" xml:space="preserve" xmlns:serif="http://www.serif.com/" style="fill-rule:evenodd;clip-rule:evenodd;stroke:#000;stroke-width:0.55px;stroke-linecap:round;stroke-linejoin:round;paint-order:stroke fill markers;stroke-miterlimit:2;"><path d="M9.988,6.726c0.008,1.623 0.099,1.722 -0.288,1.966c-0.23,0.145 0.369,0.158 0.759,1.14c0.621,1.562 -0.914,2.544 0.139,9.213c0.331,2.098 0.451,3.081 -0.543,3.91c-0.978,0.816 -3.359,0.715 -5.744,0.693c-2.592,-0.024 -3.161,-0.655 -3.346,-0.86c-1.01,-1.12 -0.582,-2.28 -0.227,-4.659c0.63,-4.225 -0.255,-7.003 -0.143,-7.736c0.196,-1.296 1.028,-1.578 0.963,-1.671c-0.01,-0.014 -0.362,-0.155 -0.372,-0.519c-0.051,-1.786 0.053,-1.929 0.151,-2.062c0.415,-0.566 1.229,-0.457 1.268,-0.566c0.084,-0.235 -0.2,-1.046 1.018,-1.852c1.501,-0.992 0.173,-2.066 1.163,-3.057c0.539,-0.539 2.231,-0.633 2.03,1.477c-0.166,1.742 1.182,1.263 1.643,2.71c0.031,0.098 0.082,0.518 0.082,0.519c0.01,0.111 -0.085,0.24 0.193,0.259c0.463,0.032 0.711,0.175 0.766,0.207c0.551,0.319 0.486,0.757 0.489,0.889Zm-4.761,2.13c0.277,-0 3.369,-0.002 3.468,-0c0.9,0.014 1.38,0.849 1.499,1.421c0.155,0.743 -0.441,2.57 -0.354,5.139c0.004,0.118 0.04,1.166 0.079,1.476c0.298,2.352 0.33,2.346 0.351,2.551c0.09,0.875 0.676,2.831 -0.945,3.487c-0.208,0.084 -0.868,0.351 -2.783,0.361c-4.869,0.024 -6.257,-0.104 -5.673,-3.573c0.586,-3.479 0.477,-4.485 0.471,-5.219c-0.011,-1.318 -0.169,-2.05 -0.204,-2.592c-0.028,-0.438 -0.623,-2.107 0.777,-2.919c0.261,-0.151 0.278,-0.132 3.314,-0.132Zm-1.037,-3.341c-0.086,0.003 -0.778,0.025 -1.075,0.064c-0.234,0.031 -0.046,-0.658 0.057,-0.836c0.518,-0.895 1.575,-0.811 1.641,-2.162c0.022,-0.458 -0.209,-1.538 0.57,-1.805c0.472,-0.162 1.009,0.237 1.025,0.849c0.028,1.135 -0.322,1.572 0.944,2.454c0.323,0.225 0.786,0.546 0.808,1.372c0.005,0.19 -0.099,0.112 -0.5,0.101c-0.393,-0.011 -0.391,-0.038 -1.874,-0.058c-0.108,-0.001 -1.061,0.002 -1.595,0.02Z" style="fill:#0d0d0c;fill-opacity:0.99;"/><path d="M9.63,7.125c0.005,1.032 0.155,1.269 -0.456,1.364c-0.033,0.005 -7.139,0.016 -7.256,-0.006c-0.529,-0.101 -0.382,-0.306 -0.379,-1.398c0.001,-0.476 -0.151,-1.021 0.977,-1.095c0.58,-0.038 0.575,-0.106 2.711,-0.133c0.444,-0.006 3.435,-0.012 4.019,0.248c0.442,0.197 0.387,0.562 0.384,1.02Z" style="fill:#fdfefd;fill-opacity:1;"/><path d="M1.424,20.916c-0.012,-1.819 0.758,-4.499 0.249,-8.011c-0.004,-0.027 -0.177,-0.83 0.158,-0.663c0.157,0.078 0.153,0.324 0.156,0.345c0.573,3.467 -0.103,6.421 -0.17,7.572c-0.072,1.231 0.078,1.329 -0.136,1.399c-0.271,0.089 -0.253,-0.505 -0.257,-0.642Z" style="fill:#0d0c0b;fill-opacity:0.99;"/><path d="M7.738,11.852c1.118,-0.065 1.761,-0.333 1.901,-0.173c0.616,0.706 -5.368,0.656 -6.246,0.552c-0.852,-0.101 -2.036,-0.147 -1.873,-0.523c0.053,-0.123 0.333,-0.064 0.362,-0.058c1.672,0.351 4.614,0.314 5.856,0.202Z" style="fill:#0e0d0c;fill-opacity:0.99;"/><path d="M7.937,18.309c1.116,0.001 1.368,-0.058 1.379,0.177c0.013,0.289 -0.421,0.224 -0.542,0.224c-0.945,0.002 -0.98,0.005 -1.062,-0.115c-0.158,-0.231 0.196,-0.282 0.225,-0.286Z" style="fill:#0d0c0b;fill-opacity:0.98;"/><path d="M8.097,20.455c-0.017,-0 -0.283,0.045 -0.385,-0.106c-0.062,-0.092 -0.022,-0.282 0.225,-0.285c1.213,-0.01 1.465,-0.024 1.387,0.25c-0.058,0.204 -0.377,0.129 -1.108,0.144c-0.01,0 -0.009,-0 -0.12,-0.004Z" style="fill:#0c0c0b;fill-opacity:0.98;"/><path d="M8.695,13.558c-0.709,-0.002 -0.938,0.036 -1.001,-0.134c-0.009,-0.025 -0.095,-0.258 0.204,-0.257c1.3,0.003 1.358,-0.023 1.408,0.132c0.108,0.338 -0.553,0.26 -0.611,0.26Z" style="fill:#0d0d0c;fill-opacity:0.99;"/><path d="M8.217,16.597c0.801,-0.001 0.948,-0.016 1.036,0.055c0.093,0.075 0.073,0.219 0.028,0.267c-0.075,0.078 -0.09,0.081 -1.343,0.067c-0.024,-0 -0.23,-0.003 -0.252,-0.173c-0.037,-0.29 0.497,-0.216 0.531,-0.216Z" style="fill:#0d0c0b;fill-opacity:0.99;"/><path d="M7.897,15.274c-0.341,-0.048 -0.216,-0.358 -0.04,-0.382c0.067,-0.009 1.189,-0.006 1.277,-0.001c0.042,0.002 0.135,0.052 0.164,0.123c0.135,0.32 -0.281,0.265 -1.402,0.26Z" style="fill:#0c0b0a;fill-opacity:0.98;"/><path d="M4.572,7.483c-0.001,0.262 0.073,0.488 -0.181,0.5c-0.045,0.002 -0.171,0.003 -0.175,-0.141c-0.039,-1.408 -0.022,-1.451 0.092,-1.486c0.258,-0.08 0.261,0.144 0.262,0.169c0.007,0.48 -0.003,0.478 0.003,0.957Z" style="fill:#0e0e0e;fill-opacity:1;"/><path d="M5.625,7.984c-0.261,-0.026 -0.202,-0.134 -0.204,-0.66c-0.005,-0.85 -0.039,-1.033 0.248,-0.973c0.109,0.023 0.109,0.068 0.108,1.411c-0,0.193 -0.029,0.202 -0.151,0.222Z" style="fill:#0e0e0d;fill-opacity:1;"/><path d="M6.64,7.762c0,-0.102 0,-1.157 0.004,-1.277c0.003,-0.113 0.121,-0.13 0.136,-0.132c0.283,-0.04 0.212,0.366 0.213,0.492c0.004,1.055 0.018,1.097 -0.087,1.129c-0.213,0.064 -0.254,0.009 -0.265,-0.212Z" style="fill:#0f0f0e;fill-opacity:1;"/><path d="M7.836,7.643c0.002,-0.992 -0.003,-0.99 -0.001,-1.076c0.001,-0.025 0.006,-0.267 0.267,-0.172c0.109,0.04 0.112,0.08 0.09,1.448c-0.003,0.158 -0.222,0.161 -0.297,0.122c-0.048,-0.024 -0.058,-0.297 -0.059,-0.323Z" style="fill:#0e0e0e;fill-opacity:0.99;"/><path d="M2.973,7.364c0,-0.15 0.003,-0.734 0.004,-0.798c0,-0.025 0.001,-0.249 0.262,-0.177c0.112,0.031 0.101,0.079 0.09,1.454c-0.001,0.092 -0.049,0.142 -0.136,0.141c-0.29,-0.003 -0.212,-0.165 -0.22,-0.62Z" style="fill:#0d0e0d;fill-opacity:1;"/><path d="M9.156,7.204c0,0.588 0.054,0.848 -0.221,0.794c-0.117,-0.023 -0.111,-0.07 -0.116,-1.272c-0,-0.107 -0.059,-0.386 0.233,-0.342c0.136,0.021 0.1,0.218 0.105,0.82Z" style="fill:#0d0d0d;fill-opacity:1;"/><path d="M2.016,7.802c-0.002,-1.282 -0.002,-1.324 0.104,-1.345c0.28,-0.056 0.232,0.272 0.231,0.508c-0.005,0.836 0.035,1.04 -0.154,1.056c-0.176,0.015 -0.17,-0.043 -0.18,-0.219Z" style="fill:#0c0c0c;fill-opacity:1;"/><path d="M5.211,2.063c0.003,-0.044 -0.016,-0.131 0.049,-0.322c0.163,-0.478 0.721,-0.335 0.476,-0.17c-0.567,0.382 0.027,0.852 -0.357,1.444c-0.214,0.33 -0.375,0.101 -0.299,0.015c0.262,-0.298 0.152,-0.366 0.131,-0.967Z" style="fill:#0c0a09;fill-opacity:0.98;"/><path d="M3.338,5.091c0.11,-0.782 0.815,-0.742 0.573,-0.518c-0.286,0.264 -0.337,0.251 -0.387,0.642c-0.008,0.061 -0.169,0.182 -0.186,-0.123Z" style="fill:#0b0909;fill-opacity:0.98;"/></svg>