<svg xmlns="http://www.w3.org/2000/svg" xml:space="preserve" style="fill-rule:evenodd;clip-rule:evenodd;stroke-linejoin:round;stroke-miterlimit:2" viewBox="0 0 100 100"><path d="M469.502 156.557c58.341 9.075 80.649 20.559 87.071 23.864-.297 2.068-.009 1.969 1.176 8.043 2.36 12.093-15.024 75.485-21.468 86.892-13.4 23.72-93.329-2.456-99.57-19.931-1.427-3.993-2.002-5.604 11.19-51.807 10.261-35.939 11.887-35.46 21.601-47.061" style="fill:#f7dfb5" transform="translate(-187.51 -38.528)scale(.47568)"/><path d="M463.773 190.298c1.655-6.939.699-7.165 4.177-13.452.911-1.647 3.052-5.518 23.505-1.018 22.803 5.017 59.514-2.65 56.622 15.615-4.911 31.018-19.192 71.159-21.339 77.196-4.184 11.76-48.785 2.821-54.245-3.134 5.728.247 5.647.987 11.186-.541 13.38-3.69-.959-9.737-4.928-5.968-3.056 2.904-2.974 3.137-7.258 3.6-5.03-1.047-11.392-9.705-15.548-15.434-2.643-3.643-3.217-4.435 8.473-55.611z" style="fill:#fdecbc" transform="translate(-187.51 -38.528)scale(.47568)"/><path d="M465.583 154.473c-4.843-6.503 1.656-27.055 11.877-28.267 4.626-.549 4.586-.93 6.865-4.808 11.839-20.138 31.529-10.867 37.719-23.138.629-1.248 6.384-12.657 10.324-14.092 7.888-2.875 22.039-.524 19.638 16.26-1.782 12.46-.459 12.589 6.252 23.231 9.614 15.246.725 22.217 5.377 25.655 3.179 2.35 12.57 3.004 2.484 27.996-1.122 2.778-1.826 1.963-4.731 3.024-.384-.028-.257.394-4.815.087-6.422-3.305-28.73-14.789-87.071-23.864-.828-.478-1.585-.478-3.382-1.825-.159-.119-.377-.14-.537-.259" style="fill:#ea9f61" transform="translate(-187.51 -38.528)scale(.47568)"/><path d="M529.54 141.324c34.432 10.729 38.728 11.872 36.6 21.109-.284 1.23-3.577 15.524-6.711 14.276-77.464-30.85-91.033-18.063-90.586-27.202.088-1.785 1.003-20.475 10.697-19.609 16.616 1.485 39.112 8.409 50 11.426" style="fill:#fdbe82" transform="translate(-187.51 -38.528)scale(.47568)"/><path d="M465.583 154.473c.16.119.378.14.537.259 1.797 1.347 2.554 1.347 3.382 1.825-9.714 11.601-11.34 11.122-21.601 47.061-13.192 46.203-12.617 47.814-11.19 51.807 6.241 17.475 86.17 43.651 99.57 19.931 6.444-11.407 23.828-74.799 21.468-86.892-1.185-6.074-1.473-5.975-1.176-8.043 4.558.307 4.431-.115 4.815-.087 1.028 5.394 8.007 9.06-13.131 83.098-5.332 18.675-10.405 37.62-75.891 19.556-44.584-12.297-43.331-28.198-42.992-32.496.23-2.923 18.097-78.313 28.302-89.845.532-.601 1.71-1.932 7.907-6.174" style="fill:#e7be7e" transform="translate(-187.51 -38.528)scale(.47568)"/><path d="M544.582 91.36c-3.421 4.476-2.639 4.773-3.773 10.199-1.227 5.871-.215 8.881 5.013 6.001 1.076 10.188 2.919 9.446 8.351 18.103 6.139 9.786 4.661 21.507.28 20.019-62.822-21.326-67.068-15.679-66.627-19.462 1.619-13.908 27.453-17.682 30.767-18.317 11.746-2.248 6.49-26.847 25.989-16.543" style="fill:#fde492" transform="translate(-187.51 -38.528)scale(.47568)"/><path d="M522.295 243.648c2.665 4.004 6.541 6.75-.82 8.804-.919.256-6.789 1.894-11.533-3.038-1.58-1.642 5.175-11.481 12.353-5.766" style="fill:#fde79a" transform="translate(-187.51 -38.528)scale(.47568)"/><path d="M531.611 195.167c7.671 3.12 2.341 5.288 1.905 5.208-23.227-4.271-22.768-7.906-21.475-9.259 2.173-2.274 17.131 3.301 19.57 4.051" style="fill:#ecb074" transform="translate(-187.51 -38.528)scale(.47568)"/><path d="M471.493 262.596c4.284-.463 4.202-.696 7.258-3.6 3.969-3.769 18.308 2.278 4.928 5.968-5.539 1.528-5.458.788-11.186.541-.847-2.233-.887-2.141-1-2.909" style="fill:#fdd98b" transform="translate(-187.51 -38.528)scale(.47568)"/><path d="M544.582 91.36c2.956 2.568 3.204 3.03 1.24 16.2-5.228 2.88-6.24-.13-5.013-6.001 1.134-5.426.352-5.723 3.773-10.199" style="fill:#fcefc1" transform="translate(-187.51 -38.528)scale(.47568)"/><path d="M541.349 125.256c1.552-.716 1.488-1.053 3.106-.598 1.181.331 6.091 5.47 6.112 5.799.433 6.884-17.151 3.141-9.218-5.201" style="fill:#fdf7e1" transform="translate(-187.51 -38.528)scale(.47568)"/><path d="M527.712 223.254c6.778 8.11-23.92-2.274-14.234-3.846 3.521-.572 13.143 3.397 14.234 3.846" style="fill:#efad60" transform="translate(-187.51 -38.528)scale(.47568)"/><path d="M545.546 155.762c.56.052 5.117.471 5.183 4.75.069 4.467-14.611-.176-5.183-4.75" style="fill:#fde6c3" transform="translate(-187.51 -38.528)scale(.47568)"/><path d="M524.586 206.197c.516.17 19.419 6.401 4.866 4.737-5.887-.672-11.714-5.469-4.866-4.737" style="fill:#f5bd6d" transform="translate(-187.51 -38.528)scale(.47568)"/></svg>