<?xml version="1.0" encoding="UTF-8" standalone="no"?><!DOCTYPE svg PUBLIC "-//W3C//DTD SVG 1.1//EN" "http://www.w3.org/Graphics/SVG/1.1/DTD/svg11.dtd"><svg width="100%" height="100%" viewBox="0 0 19 23" version="1.1" xmlns="http://www.w3.org/2000/svg" xmlns:xlink="http://www.w3.org/1999/xlink" xml:space="preserve" xmlns:serif="http://www.serif.com/" style="fill-rule:evenodd;clip-rule:evenodd;stroke-linejoin:round;stroke-miterlimit:2;"><path d="M10.37,0.352c3.662,-0.479 4.533,2.991 3.915,4.517c-0.525,1.296 -1.531,1.447 -1.422,2.23c0.086,0.618 -0.143,0.562 -0.731,0.776c-0.431,0.157 -1.055,1.88 -2.826,0.736c-0.855,-0.553 -1.086,-1.261 -1.082,-0.943c0.021,1.804 1.198,1.979 1.629,2.178c0.739,0.342 1.983,2.151 2.033,2.832c0.057,0.776 -0.432,0.83 -0.69,1.158c-0.24,0.305 -0.093,0.812 -0.284,0.473c-0.149,-0.266 0.239,-0.761 0.281,-0.815c0.259,-0.33 0.782,-0.478 -0.167,-1.86c-1.134,-1.652 -1.431,-1.5 -1.965,-1.739c-1.137,-0.509 -1.3,-1.842 -1.08,-2.685c0.173,-0.664 0.348,-0.007 0.813,0.5c1.501,1.636 2.445,0.608 2.587,0.453c0.396,-0.431 0.364,-0.495 0.931,-0.66c0.308,-0.089 0.269,-0.164 0.25,-0.41c-0.082,-1.043 0.939,-1.1 0.986,-1.991c0.009,-0.17 0.094,-0.451 -0.174,-0.251c-1.447,1.08 -3.469,0.137 -4.864,1.128c-0.223,0.159 -1.061,1.025 -0.787,0.501c0.8,-1.529 2.759,-1.39 3.447,-1.401c2.214,-0.035 2.318,-1.021 2.485,-0.859c0.184,0.178 0.165,0.671 0.251,0.663c0.055,-0.005 0.035,-0.032 0.097,-0.297c0.563,-2.396 -1.242,-3.76 -2.551,-3.901c-3.355,-0.363 -4.024,3.622 -4.112,4.016c-0.966,4.323 -3.339,4.519 -5.127,5.902c-2.473,1.913 -1.208,6.736 -0.46,8.346c1.251,2.692 2.462,2.946 3.382,2.933c1.079,-0.014 2.914,-0.849 3.998,-1.501c2.363,-1.421 2.261,-1.617 4.836,-2.616c0.21,-0.082 1.368,-0.281 0.261,-0.906c-2,-1.13 -4.044,0.951 -6.823,1.72c-2.528,0.7 -2.7,0.193 -2.934,-0.391c-1.308,-3.253 0.06,-6.413 0.001,-5.404c-0.088,1.508 0.607,3.682 1.814,4.478c1.223,0.806 2.539,-0.217 3.151,-1.076c1.172,-1.646 -0.855,-2.33 -0.839,-2.606c0.006,-0.097 0.971,0.339 1.404,1.045c0.512,0.835 0.049,1.288 0.422,1.162c0.554,-0.188 0.716,-0.122 0.697,-0.268c-0.085,-0.657 0.091,-0.628 0.438,-1.37c0.132,-0.282 0.552,-0.362 0.643,-0.619c0.53,-1.484 -0.532,-2.509 -1.526,-3.606c-0.118,-0.13 0.144,-0.209 0.439,-0.24c2.715,-0.292 2.902,1.941 3.357,1.932c3.184,-0.058 3.676,2.767 2.889,4.181c-0.732,1.316 -2.181,1.45 -2.271,1.472c-0.098,0.024 -0.052,0.063 -0.087,0.305c-0.047,0.323 -1.233,0.595 -2.343,1.101c-1.745,0.795 -4.767,3.369 -7.412,3.568c-2.842,0.214 -4.704,-3.83 -4.828,-7.691c-0.185,-5.759 3.903,-3.841 5.982,-8.134c0.953,-1.968 0.662,-5.324 3.967,-6.068Zm6.926,13.693c0.289,2.543 -2.237,2.978 -2.416,2.833c-1.564,-1.261 -2.678,-0.446 -2.907,-0.624c-0.127,-0.099 -0.758,-0.723 -0.449,-1.295c0.311,-0.576 0.167,-0.705 0.686,-1.005c0.582,-0.337 0.129,-0.744 0.859,-1.487c0.566,-0.576 3.651,-1.148 4.227,1.578Zm-13.022,0.414c0.016,0.015 0.032,0.031 0.048,0.046c0.473,2.571 2.05,3.235 2.289,3.307c2.095,0.63 2.611,-1.63 4.391,-1.808c0.389,-0.039 0.65,0.393 0.518,0.444c-1.533,0.587 -2.825,1.517 -4.68,1.911c-1.703,0.362 -1.842,0.212 -2.079,-0.398c-0.553,-1.419 -0.528,-3.159 -0.542,-3.351c-0.014,-0.187 0.053,-0.151 0.055,-0.152Zm7.534,-3.786c-0.507,-0.577 -0.544,-0.552 -0.546,-0.618c-0.002,-0.08 0.042,-0.041 0.193,-0.04c1.675,0.002 1.9,0.763 2.462,1.513c0.136,0.182 -0.023,0.164 -0.245,0.225c-0.791,0.22 -1.004,0.762 -1.051,0.571c-0.15,-0.614 -0.079,-0.659 -0.813,-1.651Zm-1.882,5.197c0.022,-0.002 0.03,-0.039 0.053,-0.04c0.034,-0.002 0.091,0.077 0.039,0.136c-0.135,0.153 -0.093,-0.085 -0.092,-0.096Z" style="fill:#000;fill-opacity:1;stroke:#000;stroke-width:0.55px;"/><path d="M13.393,21.185c-0.229,0.029 -1.598,0.204 -2.841,-0.494c-0.168,-0.094 -0.034,-0.132 0.119,-0.254c2.26,-1.804 4.355,-1.417 6.288,-3.62c0.021,-0.024 0.144,-0.266 0.229,-0.088c0.401,0.847 -0.548,3.83 -3.794,4.456Zm-0.232,-0.334c-0.173,0.004 -0.775,0.103 -1.943,-0.242c-0.16,-0.047 -0.024,-0.132 0.702,-0.573c1.511,-0.92 3.497,-1.146 4.761,-2.42c0.037,-0.037 0.232,-0.328 0.247,-0.158c0.008,0.096 -0.179,0.572 -0.198,0.62c-0.122,0.31 -0.86,2.181 -3.164,2.705c-0.032,0.007 -0.032,0.002 -0.405,0.069Z" style="fill:#000;fill-opacity:1;stroke:#000;stroke-width:0.55px;"/><path d="M9.927,15.87c0.022,-0.002 0.03,-0.039 0.053,-0.04c0.034,-0.002 0.091,0.077 0.039,0.136c-0.135,0.153 -0.093,-0.085 -0.092,-0.096Z" style="fill:#000;fill-opacity:1;stroke:#000;stroke-width:0.55px;"/></svg>
