<svg xmlns="http://www.w3.org/2000/svg" xml:space="preserve" style="fill-rule:evenodd;clip-rule:evenodd;stroke-linejoin:round;stroke-miterlimit:2" viewBox="0 0 100 100"><path d="M160.609 142.714c69.065 3.126 69.929-2.618 74.771.895 3.982 9.826 12.915 11.873 11.798 14.787-12.613 32.882 16.519 26.472 25.309 26.353-.311 1.953-1.06 24.73 1.258 28.596.197.328.234.266 3.16 3.595-5.749 1.717-24.195 5.46-33.532 24.5-8.336 17 .426 24.944-3.735 26.332-28.37 9.462-73.65 3.534-73.709-.297-.083-5.284 3.336-16.187-8.826-32.668-4.363-5.912-12.651-11.048-13.891-11.817-8.939-5.539-9.493-3.924-19.741-6.413 5.728-11.414 1.161-15.466 3.975-32.547 4.104.22 3.929.013 8.067.236 4.095.22 3.916.391 7.962.626 10.437.607 10.023-16.393 6.855-25.326-1.722-4.856 7.044-2.88 10.279-16.852" style="fill:#ebf1ee" transform="translate(-44.622 -45.037)scale(.47186)"/><path d="m101.713 181.374 3.82 1.012c-2.314 10.855-4.554 16.471-1.9 33.082 1.867 3.381 7.464 1.237 12.966.385 6.368.673 6.324.652 6.872.724 10.248 2.489 10.802.874 19.741 6.413 1.24.769 9.528 5.905 13.891 11.817 12.162 16.481 8.743 27.384 8.826 32.668.059 3.831 45.339 9.759 73.709.297 4.161-1.388-4.601-9.332 3.735-26.332 9.337-19.04 27.783-22.783 33.532-24.5l2.571-.375 8.051.614c2.938.244 6.277 3.669 7.842-3.68.473-15.056-.845-14.808-2.854-29.717l3.761-.46c5.102 19.692 12.541 48.354-29.985 77.85-40.958 28.409-149.745 22.299-166.87-44.649-3.604-14.092 2.119-34.415 2.292-35.149" style="fill:#9db6bf" transform="translate(-44.622 -45.037)scale(.47186)"/><path d="M110.421 138.467c-2.281 12.214-2.743 12.239-2.094 14.139.888 2.597 2.168.665 34.157 3.194 5.319.42 13.116-6.258 12.052-13.368 3.129-.011 3.026-.013 6.073.282-3.235 13.972-12.001 11.996-10.279 16.852 3.168 8.933 3.582 25.933-6.855 25.326-4.046-.235-3.867-.406-7.962-.626-4.138-.223-3.963-.016-8.067-.236l-4.974-.1-4.985-.194c-.786-.074-6.429-.132-11.954-1.35l-3.82-1.012c-3.143-4.623-6.95-19.585 2.426-27.235 4.362-3.559-7.824-23.244 24.327-25.886 78.597-6.459 155.756-2.445 161.706 7.461 4.148 6.906-.071 16.659 5.23 19.978 4.414 2.763 8.946 20.577.874 27.63l-3.761.46-10.021.61-5.977.259-4.03.098c-8.79.119-37.922 6.529-25.309-26.353 1.117-2.914-7.816-4.961-11.798-14.787 3.006-1.22 2.907-.937 6.076-1.198.979 3.137 1.154 5.857 8.069 13.033.682.708 3.979.14 29.945-.303 6.702-.744 9.76 1.001 9.302-5.663-.078-1.129-.753-10.952-3.552-13.697-6.656-6.529-81.314-6.932-104.733-6.654-65.177.772-67.263 4.428-70.066 9.34" style="fill:#e3be78" transform="translate(-44.622 -45.037)scale(.47186)"/><path d="M202.5 235.03c-1.297-.146-25.34 1.304-36.046-21.507-6.351-13.532 3.484-12.323 18.046-9.023 25.714 5.827 53.545-8.967 52.208 5.012-2.248 23.512-30.8 25.304-34.208 25.518" style="fill:#dbc27f" transform="translate(-44.622 -45.037)scale(.47186)"/><path d="M200.498 231.596c-2.923-.31-24.167-2.561-30.707-20.189-5.044-13.595 20.247 3.035 55.762-4.672 9.992-2.168 9.385 4.212 3.524 12.466-10.132 14.271-25.343 12.229-28.579 12.395" style="fill:#fdea9e" transform="translate(-44.622 -45.037)scale(.47186)"/><path d="M118.451 225.505c5.326-.639 5.49-2.784 9.215-.442.881.554 1.244-.287 11.938 5.158.835.425 6.367 3.242 10.905 4.27 1.699 2.067 14.964 18.215 10.495 31.752-.802 2.43-14.476-2.125-28.123-12.235-21.308-15.786-27.556-33.356-24.466-33.765 7.184-.952 3.839 4.24 13.224 16.142 4.035 5.117 6.666 2.843 5.484 1.344-2.322-2.946-5.948-3.885-8.672-12.224" style="fill:#ead2aa" transform="translate(-44.622 -45.037)scale(.47186)"/><path d="M246.766 245.598c2.04-4.393 11.111-28.922 43.842-24.491 5.945.805-14.146 32.583-39.296 43.006-11.366 4.711-4.976-17.051-4.546-18.515" style="fill:#e4d0aa" transform="translate(-44.622 -45.037)scale(.47186)"/><path d="m124.634 136.904-.703.773-.558 1.011c-.028-.008-2.083.169-4.066-1.21-3.704-2.577-2.537 1.825-6.502 4.022-.806.446-.656-.113-1.125-1l-1.259-2.033c2.803-4.912 4.889-8.568 70.066-9.34 23.419-.278 98.077.125 104.733 6.654 2.799 2.745 3.474 12.568 3.552 13.697.458 6.664-2.6 4.919-9.302 5.663-.627-4.886.356-4.928-.96-9.646-1.188-4.258 1.885-14.957-2.283-7.254-3.725-3.018-4.197-1.331-13.735-.868-8.256-3.852-117.015-4.76-126.011.341-10.287-.806-10.216-.887-11.847-.81" style="fill:#fbe8b6" transform="translate(-44.622 -45.037)scale(.47186)"/><path d="M136.481 137.714c8.996-5.101 117.755-4.193 126.011-.341-10.854 3.299-85.623 6.694-126.011.341" style="fill:#cfd3ad" transform="translate(-44.622 -45.037)scale(.47186)"/><path d="m110.421 138.467 1.259 2.033c.469.887.319 1.446 1.125 1 3.965-2.197 2.798-6.599 6.502-4.022 1.983 1.379 4.038 1.202 4.066 1.21 15.554 2.346 15.474 1.92 31.163 3.744 1.064 7.11-6.733 13.788-12.052 13.368-31.989-2.529-33.269-.597-34.157-3.194-.649-1.9-.187-1.925 2.094-14.139" style="fill:#fce9c7" transform="translate(-44.622 -45.037)scale(.47186)"/><path d="M276.227 138.241c4.168-7.703 1.095 2.996 2.283 7.254 1.316 4.718.333 4.76.96 9.646-25.966.443-29.263 1.011-29.945.303-6.915-7.176-7.09-9.896-8.069-13.033 28.368-3.317 28.474-2.322 34.771-4.17" style="fill:#fdebc6" transform="translate(-44.622 -45.037)scale(.47186)"/><path d="M274.733 180.255c-1.283-9.866-1.603-9.677-1.892-19.714-.043-1.507.441-2.478 18.655-2.688 1.53-.017 5.627-.065 4.589 18.574-.342 6.151-18.797 5.013-21.352 3.828" style="fill:#fde489" transform="translate(-44.622 -45.037)scale(.47186)"/><path d="M268.1 161.542c1.878 7.91 1.379 7.802 1.961 15.971-.154 1.576-.149 1.478-.607 2.936-14.227 1.688-22.311 4.658-21.531-13.946.36-8.585 18.674-9.904 20.177-4.961" style="fill:#fdeaa2" transform="translate(-44.622 -45.037)scale(.47186)"/><path d="M119.457 179.989c-9.949-.631-17.915 3.081-17.032-12.494.757-13.363 5.886-11.442 19.146-9.331 2.276.363 3.34 21.925-2.114 21.825" style="fill:#fde38c" transform="translate(-44.622 -45.037)scale(.47186)"/><path d="M105.533 182.386c5.525 1.218 11.168 1.276 11.954 1.35 2.655 24.131.021 25.167-1.915 25.928-6.206 2.441-6.093 2.345-11.939 5.804-2.654-16.611-.414-22.227 1.9-33.082" style="fill:#d0dde6" transform="translate(-44.622 -45.037)scale(.47186)"/><path d="M124.634 136.904c1.631-.077 1.56.004 11.847.81 40.388 6.353 115.157 2.958 126.011-.341 9.538-.463 10.01-2.15 13.735.868-6.297 1.848-6.403.853-34.771 4.17-3.169.261-3.07-.022-6.076 1.198-4.842-3.513-5.706 2.231-74.771-.895-3.047-.295-2.944-.293-6.073-.282-15.689-1.824-15.609-1.398-31.163-3.744l.558-1.011z" style="fill:#b9b387" transform="translate(-44.622 -45.037)scale(.47186)"/><path d="M292.515 183.782c2.009 14.909 3.327 14.661 2.854 29.717-2.509-.962-2.24-1.497-4.885-1.873-9.633-1.372-9.624-4.519-7.99-27.234z" style="fill:#d0dfe8" transform="translate(-44.622 -45.037)scale(.47186)"/><path d="M126.792 160.534c7.607 6.439 17.307-.373 17.58 8.98.139 4.779 1.73 6.581-4.948 8.896-1.717.595-.807 1.097.088 2.744-1.02-.017-12.065-.202-12.699-1.125-1.545-2.247-.158-17.941-.021-19.495" style="fill:#fde58b" transform="translate(-44.622 -45.037)scale(.47186)"/><path d="m276.517 184.651 5.977-.259c-1.634 22.715-1.643 25.862 7.99 27.234 2.645.376 2.376.911 4.885 1.873-1.565 7.349-4.904 3.924-7.842 3.68l-8.051-.614c-.439-2.225-5.178-5.143-3.32-30.178.071-.958.161-.776.361-1.736" style="fill:#f4f4ee" transform="translate(-44.622 -45.037)scale(.47186)"/><path d="m117.487 183.736 4.985.194c.028.212-.035 24.412-.831 26.622-.198.55-.141.391-5.042 5.301-5.502.852-11.099 2.996-12.966-.385 5.846-3.459 5.733-3.363 11.939-5.804 1.936-.761 4.57-1.797 1.915-25.928" style="fill:#f4f0ea" transform="translate(-44.622 -45.037)scale(.47186)"/><path d="M126.792 160.534c2.425-3.722 20.321-1.712 20.849 2.95 2.257 19.935-4.904 17.456-8.129 17.67-.895-1.647-1.805-2.149-.088-2.744 6.678-2.315 5.087-4.117 4.948-8.896-.273-9.353-9.973-2.541-17.58-8.98" style="fill:#fdefc4" transform="translate(-44.622 -45.037)scale(.47186)"/><path d="M118.557 219.64c20.063-.97 30.259 12.597 31.952 14.851-4.538-1.028-10.07-3.845-10.905-4.27-10.694-5.445-11.057-4.604-11.938-5.158-3.725-2.342-3.889-.197-9.215.442l-.455-3.963c.098-1.046.031-.942.561-1.902" style="fill:#d3c2a0" transform="translate(-44.622 -45.037)scale(.47186)"/><path d="m122.472 183.93 4.974.1c-2.814 17.081 1.753 21.133-3.975 32.547-.548-.072-.504-.051-6.872-.724 4.901-4.91 4.844-4.751 5.042-5.301.796-2.21.859-26.41.831-26.622" style="fill:#c4d6dd" transform="translate(-44.622 -45.037)scale(.47186)"/><path d="m272.487 184.749 4.03-.098c-.2.96-.29.778-.361 1.736-1.858 25.035 2.881 27.953 3.32 30.178l-2.571.375c-2.926-3.329-2.963-3.267-3.16-3.595-2.318-3.866-1.569-26.643-1.258-28.596" style="fill:#b8ced7" transform="translate(-44.622 -45.037)scale(.47186)"/><path d="m266.485 245.716.906.178c-.113 5.177-13.615 10.503-15.894 10.952-2.071.409-7.927-1.69-2.029-2.427 6.632-.829 14.227-7.907 17.017-8.703" style="fill:#a8b0ab" transform="translate(-44.622 -45.037)scale(.47186)"/><path d="M272.642 240.485c.021-3.591.881-3.174 3.241-5.701 3.029-3.244 1.401-4.215 4.591-7.305.281-.272 7.124-6.901 4.76-1.117-5.688 13.917-9.456 10.994-9.734 12.212-.448 1.958-.422 2.867-2.858 1.911" style="fill:#b3b8ad" transform="translate(-44.622 -45.037)scale(.47186)"/><path d="M159.471 257.547c-.277.546.255 1.29-.021 1.836-1.054 2.082-12.456-4.942-13.447-5.553-4.425-2.726-.764-3.385-.537-3.25 12.434 7.394 12.961 6.277 14.005 6.967" style="fill:#a5aea2" transform="translate(-44.622 -45.037)scale(.47186)"/><path d="M171.638 261.5c.044-1.332-.08-2.666-.035-3.998.36-10.752 6.434 4.981 2.741 8.808-2.483 2.574-2.693-4.369-2.706-4.81" style="fill:#a6c1cd" transform="translate(-44.622 -45.037)scale(.47186)"/><path d="M173.514 149.806c-.598-.024-12.767-.514-7.073-2.433 3.928-1.323 16.935.441 7.073 2.433" style="fill:#baccd6" transform="translate(-44.622 -45.037)scale(.47186)"/><path d="M233.447 264.403c-.611-.406-3.38-2.247-2.033-8.942.888-4.413 5.903 5.27 2.033 8.942" style="fill:#b6ced9" transform="translate(-44.622 -45.037)scale(.47186)"/><path d="M209.49 150.256c-.372-.012-24.485-1.569-3.965-2.435.372-.016 23.732-.682 3.965 2.435" style="fill:#bcced3" transform="translate(-44.622 -45.037)scale(.47186)"/><path d="M236.014 245.441c-.085.335-5.543 16.335-4.17 1.141.303-3.352 3.879-6.779 4.17-1.141" style="fill:#bad3db" transform="translate(-44.622 -45.037)scale(.47186)"/><path d="M138.6 216.176c-.549-.199-6.562-2.377-6.272-3.745.602-2.843 18.425 6.485 6.272 3.745" style="fill:#b9d0d7" transform="translate(-44.622 -45.037)scale(.47186)"/><path d="M169.848 245.395c-2.199-14.633 3.835.752 3.884 1.07 1.444 9.282-3.737-.783-3.884-1.07" style="fill:#aac6d0" transform="translate(-44.622 -45.037)scale(.47186)"/><path d="M163.494 230.852c7.444 5.032 3.564 6.829 2.981 6.74-1.014-.153-2.927-3.709-3.122-4.07-1.101-2.046.101-1.906.141-2.67" style="fill:#b7cdd7" transform="translate(-44.622 -45.037)scale(.47186)"/><path d="M238.284 232.308c.314-.231 3.711-2.737 4.839-.577 1.581 3.027-9.217 8.012-4.839.577" style="fill:#bfd3da" transform="translate(-44.622 -45.037)scale(.47186)"/><path d="M133.656 244.292c.252.139 14.04 8.603.757 3.517-.402-.153-4.204-1.61-4.199-3.355.007-2.474 1.218-1.318 3.442-.162" style="fill:#aab0a9" transform="translate(-44.622 -45.037)scale(.47186)"/><path d="M248.325 222.296c.219-.149 9.994-5.656 2.779 1.797-.184.19-8.987 5.97-2.779-1.797" style="fill:#b9cfd6" transform="translate(-44.622 -45.037)scale(.47186)"/><path d="M231.394 147.861c.065.589.434 3.903-7.103 2.098-10.438-2.5 6.51-2.112 7.103-2.098" style="fill:#c9d7de" transform="translate(-44.622 -45.037)scale(.47186)"/><path d="M190.504 150.192c-20.174-1.827 3.549-2.46 3.917-2.433 10.328.76-3.551 2.39-3.917 2.433" style="fill:#bccdd5" transform="translate(-44.622 -45.037)scale(.47186)"/><path d="M260.513 215.544c5.095-1.319 5.298-1.937 5.886-.971 1.954 3.209-15.47 4.643-5.886.971" style="fill:#c4d9df" transform="translate(-44.622 -45.037)scale(.47186)"/><path d="M159.865 225.107c3.97 4.493-3.477 3.168-3.412.395.062-2.606 3.183-.546 3.412-.395" style="fill:#bbd0db" transform="translate(-44.622 -45.037)scale(.47186)"/><path d="M151.669 222.239c-.259-.14-3.241-1.759-2.318-2.862 2.102-2.511 7.432 5.033 2.318 2.862" style="fill:#b8cfda" transform="translate(-44.622 -45.037)scale(.47186)"/><path d="M271.48 241.448c-.195.68.467 1.425.272 2.105-.398 1.385-3.976 2.248-4.361 2.341l-.906-.178c1.844-2.944 1.711-3.078 4.995-4.268" style="fill:#dac8a3" transform="translate(-44.622 -45.037)scale(.47186)"/><path d="M118.557 219.64c-.53.96-.463.856-.561 1.902-2.301-1.752-2.643-1.701-2.475-1.884 1.159-1.255 1.393.224 3.036-.018" style="fill:#b7bbb0" transform="translate(-44.622 -45.037)scale(.47186)"/><path d="M232.336 147.961c1.521.133 3.261-.288 1.762.155-.868.256-.819-.434-1.762-.155" style="fill:#e3eced" transform="translate(-44.622 -45.037)scale(.47186)"/></svg>