<?xml version="1.0" encoding="UTF-8" standalone="no"?><!DOCTYPE svg PUBLIC "-//W3C//DTD SVG 1.1//EN" "http://www.w3.org/Graphics/SVG/1.1/DTD/svg11.dtd"><svg width="100%" height="100%" viewBox="0 0 24 24" version="1.1" xmlns="http://www.w3.org/2000/svg" xmlns:xlink="http://www.w3.org/1999/xlink" xml:space="preserve" xmlns:serif="http://www.serif.com/" style="fill-rule:evenodd;clip-rule:evenodd;stroke-linejoin:round;stroke-miterlimit:2;"><path d="M12.373,1.29c0.2,-0.032 0.185,-0.013 0.381,0.008c0.064,0.042 0.548,0.364 0.708,0.645c0.076,0.103 0.157,0.182 0.172,0.197c0.016,0.121 0.016,0.111 0.091,0.203l0.02,0.085l0.083,0.09c0.06,0.221 0.062,0.21 0.204,0.396c0.08,0.185 0.211,0.459 0.23,0.499c0.09,0.189 0.073,0.18 0.155,0.356c0.021,0.069 0.041,0.138 0.062,0.207c0.004,0.04 0.018,0.185 0.149,0.477c0.021,0.062 0.041,0.123 0.062,0.185c-0.094,0.336 -0.082,0.325 -0.079,0.682c-0.028,0.063 -0.051,0.036 -0.396,0.769c-0.023,0.048 -0.043,0.343 0.657,0.058l0.089,0.001l0.096,0.079c0.097,-0.027 0.193,-0.053 0.29,-0.08c1.256,0.049 1.239,0.087 2.489,0.093c0.174,0.039 1.766,0.396 2.213,0.209c0.281,0.213 0.302,0.142 0.658,0.175c0.361,0.182 0.886,0.294 0.965,0.311c0.518,0.11 0.476,0.202 0.975,0.375c0.085,0.107 0.079,0.1 0.169,0.213c0.022,0.09 0.026,0.087 0.452,1.064c0.009,0.086 0.073,0.678 0.274,1.041c0.044,0.118 0.024,0.116 0.114,0.208c-0.04,0.185 -0.046,0.177 -0.047,0.271c0.02,0.096 -0.01,0.088 0.011,0.186c0.005,0.024 0.006,0.021 0.087,0.289c-0.022,1.246 0.24,1.23 0.126,3.739c-0.014,0.303 -0.009,0.289 -0.017,0.587l-0.005,0.087c-0.073,0.434 -0.075,0.42 -0.111,0.867c-0.038,0.094 -0.075,0.188 -0.113,0.282c-0.137,0.353 -0.167,0.329 -0.28,0.68c-0.027,0.034 -0.054,0.068 -0.081,0.102c-0.038,0.06 -0.075,0.12 -0.113,0.18c-0.166,0.133 -0.17,0.113 -0.275,0.311c-0.091,0.09 -0.258,0.259 -0.28,0.282c-0.163,0.127 -0.452,0.137 -0.492,0.47c-0.071,0.023 -0.143,0.046 -0.214,0.069c-0.029,0.036 -0.059,0.073 -0.088,0.109c-0.082,0.196 -0.082,0.185 -0.062,0.397c-0.062,0.241 -0.129,0.208 -0.174,0.46c-0.146,0.151 -0.156,0.132 -0.221,0.33c-0.035,0.025 -0.014,0.03 -0.399,0.356c-0.057,0.033 -0.115,0.066 -0.172,0.099l-0.002,0.086c-0.05,0.138 -0.079,0.131 -0.04,0.275c-0.296,0.49 -0.525,0.614 -0.586,0.648c-0.017,0.013 -0.013,0.001 -0.222,0.155c-0.756,0.592 -0.986,0.117 -2.164,0.899c-0.611,0.249 -3.641,1.485 -8.215,0.662c-2.464,-0.443 -2.555,-0.968 -3.55,-1.11l-0.474,-0.122c-0.107,-0.036 -0.103,-0.012 -0.204,-0.046c-0.053,-0.018 -0.049,-0.018 -0.66,-0.238c-0.285,-0.286 -0.319,-0.232 -0.584,-0.547c-0.281,-0.571 -0.215,-0.628 -0.738,-0.997c-0.073,-0.051 -0.465,-0.329 -0.626,-0.921c-0.076,-0.266 -0.018,-0.286 -0.191,-0.446c-0.038,-0.108 -0.216,-0.608 -1.045,-0.974c-0.022,-0.196 -0.027,-0.196 -0.188,-0.298c-0.103,-0.294 -0.541,-1.007 -0.695,-1.624c-0.071,-0.097 -0.068,-0.081 -0.097,-0.189c0.069,-0.339 -0.2,-0.329 -0.201,-4.319c0.191,-0.741 0.103,-0.742 0.236,-1.637c0.009,-0.03 0.007,-0.028 0.05,-0.274c0.169,-0.58 0.37,-1.173 0.404,-1.275c0.231,-0.18 0.221,-0.17 0.394,-0.403c0.037,-0.021 0.074,-0.043 0.111,-0.064c0.359,-0.146 0.569,-0.201 1.054,-0.413c0.034,-0.015 0.072,-0.021 0.107,-0.036c0.267,-0.07 0.333,-0.128 0.356,-0.148c0.198,-0.001 0.395,-0.003 0.593,-0.004c0.128,-0.036 0.257,-0.072 0.385,-0.108l0.087,-0c0.937,-0.086 0.948,0.023 1.83,-0.279c0.383,-0.014 0.524,0.003 0.57,0.009c0.201,0.037 0.191,0.038 0.395,-0.013c0.432,-0.001 0.429,0.039 0.852,-0.088c0.3,0.054 0.287,0.074 0.582,0.065c0.157,0.014 0.143,-0.003 0.286,-0.069l0.18,-0.006c0.42,0.153 1.077,-0.006 1.925,0.067c0.146,0.012 0.457,0.09 0.204,-0.225c-0.043,-0.053 -0.084,-0.104 -0.373,-0.767c-0.076,-0.387 -0.039,-0.376 0.021,-0.757c0.092,-0.304 0.155,-0.281 0.128,-0.592c0.027,-0.032 0.021,-0.031 0.094,-0.182c0.034,-0.099 0.068,-0.197 0.102,-0.296c0.121,-0.125 0.106,-0.126 0.175,-0.281c0.171,-0.279 0.113,-0.302 0.313,-0.574l0.034,-0.081c0.108,-0.141 0.09,-0.135 0.155,-0.303l0.029,-0.081c0.029,-0.033 0.058,-0.065 0.087,-0.098c0.377,-0.355 0.281,-0.461 0.756,-0.677Z" style="fill:#7ea3b8;fill-opacity:0.99;"/><path d="M11.973,6.798c1.259,0.269 1.228,-0.27 2.508,-0.255c8.034,0.093 8.26,1.302 8.401,2.128c0.095,0.559 -3.898,1.09 -3.582,1.509c0.219,0.291 0.308,1.403 0.49,2.119c0.067,0.265 0.205,0.804 3.395,-0.415c0.283,-0.108 0.565,0.093 0.118,3.782c-1.326,-0.513 -1.367,-0.25 -2.787,-0.474c-1.434,-0.226 -3.067,-2.223 -3.212,-4.705c-0.084,-1.445 1.167,-0.723 4.477,-2.066c0.762,-0.309 -0.007,-0.375 -0.036,-0.37c0.004,-0.211 -0.032,-0.191 -0.163,-0.345c-0.035,-0.031 -0.07,-0.063 -0.104,-0.094c-0.032,0.056 -0.064,0.112 -0.096,0.168c-0.916,-0.107 -0.906,0.572 -1.248,0.499c-0.177,-0.038 0.341,-0.695 -0.005,-0.748c-0.373,-0.057 -0.383,-0.171 -0.723,0.013c-0.12,-0.029 -0.24,-0.057 -0.359,-0.086c-0.289,-0.116 -0.283,-0.067 -0.917,-0.098l-0.206,-0.004c-0.476,-0.015 -0.951,-0.03 -1.427,-0.044c-0.63,-0.006 -0.62,-0.032 -1.249,0.011c0.228,1.245 -0.026,1.811 1.237,1.702c0.041,-0.122 -0.102,-0.124 -0.028,-1.603c0.081,0.034 0.05,0.063 0.133,0.098c0.216,0.09 0.166,0.295 0.167,0.297c-0.056,1.46 0.623,1.325 0.881,1.043c0.216,-0.065 0.387,-0.087 0.421,-0.092c0.111,0.155 0.107,0.141 0.252,0.263c-0.116,0.036 -1.207,0.37 -1.352,0.682c-0.217,0.465 -0.344,0.383 -2.667,0.515c-0.353,0.008 -3.468,0.083 -4.41,-0.005c-2.27,-0.211 -2.398,-0.097 -2.563,-0.511c-0.314,-0.789 -5.323,-1.839 -5.586,-1.724c-0.416,0.183 1.266,0.571 1.838,0.738c2.271,0.663 3.616,0.549 3.461,1.861c-0.535,4.529 -2.732,4.444 -4.337,4.654c-1.089,0.11 -1.134,0.03 -1.547,0.396l-0.091,0.038c-0.145,-0.519 -0.127,-0.512 -0.218,-1.051l0.134,-0.054c0.056,0.066 0.041,0.176 0.097,0.242c0.057,0.067 0.349,-0.02 0.378,-0.028c0.164,-0.049 0.324,-0.109 0.488,-0.153c0.049,-0.013 0.315,0.053 0.365,0.043c0.138,-0.027 0.296,-0.058 1.738,-0.245c0.405,-0.214 0.365,-0.251 0.76,-0.475c0.429,-0.099 0.575,-0.501 0.848,-0.998c0.088,-0.168 0.205,-0.228 0.025,-0.271c-0.239,-0.057 -0.216,0.162 -0.231,0.206c-0.024,0.092 -0.051,0.195 -0.713,0.958c-0.106,0.011 -0.097,0.026 -0.779,0.384c-0.989,0.246 -1.169,-0.047 -1.221,-0.13c-0.081,-0.132 -0.322,-0.525 -0.448,-1.891l-0.054,-0.129c2.16,0.658 2.191,0.409 2.191,0.409c0.455,-0.352 0.58,-2.371 0.593,-2.582c0.02,-0.325 -1.712,-0.317 -3.739,-1.176c-0.54,-0.229 0.295,-1.065 0.312,-1.08c0.803,-0.682 4.246,-1.005 4.945,-1.023c3.51,-0.092 4.355,-0.261 5.447,0.166Z" style="fill:#edf2f3;fill-opacity:1;"/><path d="M7.34,11.069c0.123,-0.681 0.188,-0.671 0.242,-0.668c5.073,0.317 5.066,0.189 9.198,-0.007c0.139,-0.007 0.191,0.79 0.237,1.048c-0.021,0.054 -0.122,0.047 -0.143,0.101c-0.104,0.266 0.2,1.139 0.233,1.234c0.096,0.276 0.18,0.219 0.256,0.491c0.026,0.093 0.043,0.089 0.038,0.096c-0.061,0.102 -0.114,0.03 -0.18,0.138c-0.22,-0.128 -0.199,-0.151 -0.443,-0.219c-0.07,-0.198 -0.077,-0.195 -0.076,-0.214c0.015,-0.288 -0.139,-0.141 -0.402,-0.046c-0.559,0.054 -0.593,-0.049 -0.977,0.232c-0.056,0.038 -0.113,0.075 -0.169,0.113c-0.423,-0.119 -0.463,-0.361 -1.107,0.037c0.185,0.132 1.272,0.429 0.142,0.714c-1.089,-0.023 -1.075,-0.19 -1.057,-0.276c0.125,-0.589 -0.19,-0.468 -1.132,-0.88l-0.196,-0.123c-0.862,-0.31 -0.937,-0.052 -1.253,-0.072c-0.864,-0.039 -1.37,-0.646 -1.549,0.108c-0.644,-0.502 -0.634,0.14 -0.634,0.193c0.073,0.247 0.035,0.293 0.283,0.37c0,0 0.161,0.108 0.175,0.117l0.159,0.268c-0.097,0.197 -0.059,0.193 -0.064,0.399c-0.087,0.138 -0.082,0.124 -0.187,0.231l-0.193,-0.016c-0.479,-0.125 -0.454,0.025 -0.863,0.281c-0.245,0.066 -0.255,0.037 -0.422,0.234c-0.426,0.13 -0.684,0.461 -0.728,0.517c-0.241,0.13 -0.247,0.091 -0.963,0.212c-0.222,0.011 -0.281,-0.044 -0.323,0.165l-0.069,0.131c-0.427,-0.233 -0.436,-0.089 -0.469,-0.026c-0.669,-0.264 -0.871,-0.054 -0.923,-0.001l-0.013,-0.195c0.055,-0.169 0.015,-0.209 0.183,-0.252c0.782,-0.2 0.757,-0.23 1.49,-0.558c0.057,0.033 0.071,0.118 0.128,0.151c0.046,0.027 0.427,-0.253 0.524,-0.397c0.2,-0.295 0.27,-0.205 0.448,-0.082c0.216,-0.262 0.493,-0.557 0.537,-0.604c0.755,0.327 1.054,-0.192 0.812,-0.215c-0.223,-0.021 -0.21,-0.002 -0.426,-0.033c-0.05,-0.007 -0.034,0.011 -0.075,0.005c-0.093,-0.014 -0.039,-0.053 -0.09,-0.123c0.536,-1.588 0.591,-1.849 0.469,-2.333c0.047,0.008 3.157,0.352 0.575,-0.137c-0.512,-0.097 -0.496,-0.183 -1.005,-0.114Z" style="fill:#fbfbf8;fill-opacity:1;"/><path d="M6.566,15.635c0.073,0.162 0.055,0.172 0.205,0.254c0.485,0.5 1.001,0.539 1.099,0.546c0.172,0.033 0.249,0.252 0.674,0.014c0.014,-0.008 0.138,-0.004 0.178,0.014c0.079,0.036 0.34,0.152 1.046,0.301c0.327,0.286 0.352,0.24 0.69,0.257c0.195,0.138 0.193,0.139 0.211,0.149c0.131,0.077 0.14,0.042 0.271,0.119c0.325,0.378 0.423,0.204 0.867,0.441c0.332,0.055 0.321,0.079 0.662,0.044c0.057,0.014 0.114,0.029 0.171,0.043c0.035,0.026 0.07,0.052 0.105,0.078l0.023,0.05l0.081,0.121c0.196,-0.016 0.182,-0.013 0.387,-0.054c-0.199,0.477 0.348,0.174 0.377,0.158c0.013,0.005 0.014,-0.009 0.173,0.024c0.745,0.281 0.76,-0.265 0.762,-0.332c0.174,-0.02 0.165,-0.004 0.347,-0.025c0.062,0.027 0.333,0.145 0.835,0.143c0.378,0.259 0.367,0.335 0.966,0.299c0.03,-0.009 0.029,-0.003 0.388,-0.042c0.523,0.186 1.288,-0.625 0.979,0.114c-0.145,0.349 -0.146,0.336 -0.302,0.679c-0.03,-0.008 -0.031,-0.153 -0.212,-0.053c-0.116,0.064 -0.137,-0.02 -1.628,0.327c-0.563,0.131 -0.585,0.005 -1.108,0.234c0.075,0.02 0.074,0.159 0.149,0.179c0.044,0.012 0.02,-0.143 0.563,-0.1c0.697,0.055 0.661,-0.119 1.342,-0.259c0.366,-0.075 0.355,-0.037 0.717,-0.033c-0.227,0.326 -0.268,0.294 -0.386,0.672c-0.063,-0.013 -0.07,-0.128 -0.133,-0.14c-0.226,-0.045 -3.075,1.346 -7.371,0.206c-0.794,-0.141 -0.835,-0.005 -1.517,-0.423c-0.16,-0.098 -0.164,-0.05 -0.434,-0.034l-0.159,-0.496c0.001,-0.063 0.003,-0.126 0.004,-0.188c0.816,0.083 0.809,0.088 1.623,-0.012c0.041,-0.02 0.039,-0.002 0.082,-0.022c0.009,-0.004 -0,-0 0.11,-0.068c0.02,-0 0.829,-0.124 0.068,-0.246c-0.437,-0.443 -0.496,-0.353 -1.3,-0.468c-0.272,-0.039 -0.856,-0.284 -1.081,0.056c-0.053,-0.095 -0.261,-0.536 -0.378,-0.673c-0.61,-0.712 -0.513,-0.789 -0.584,-0.828c-0.253,-0.14 -0.172,-0.192 -0.157,-0.353c-0.205,-0.039 -0.234,0.049 -0.794,-0.332l0.069,-0.131c0.214,0.037 0.205,0.066 0.42,0.004c0.618,-0.025 0.87,-0.209 0.903,-0.218Z" style="fill:#faf9f4;fill-opacity:1;"/><path d="M3.846,21.096c0.335,0.236 0.357,0.126 0.771,0.1c0.611,0.22 0.607,0.219 0.66,0.238c0.101,0.034 0.098,0.01 0.204,0.046c0.017,0.08 -0.045,0.164 -0.027,0.245c0.014,0.065 0.284,0.068 0.309,0.069c0.022,0 0.014,-0.014 0.192,-0.191c0.995,0.142 1.086,0.667 3.55,1.11c4.575,0.823 7.605,-0.413 8.215,-0.662c0.05,0.006 0.089,0.229 0.504,-0.05c0.026,-0.017 0.197,-0.132 0.346,-0.177c0.05,-0.015 1.254,-0.246 1.277,-0.23c0.32,0.21 0.489,0.121 0.463,0.491c-0.101,0.045 -0.505,0.225 -1.325,0.393c-0.157,0.032 -0.12,-0.039 -0.192,-0.174c-0.608,-0.029 -0.708,0.123 -0.576,0.721c-1.851,0.17 -1.859,0.107 -2.011,0.163c-0.064,0.024 -0.028,0.159 -0.093,0.183c-0.11,-0.06 -0.054,-0.176 -0.293,-0.16c-1.064,0.073 -1.062,0.039 -1.148,0.074c-0.063,0.026 -0.033,0.154 -0.096,0.179l-0.38,0.001c-0.394,-0.313 -0.462,-0.049 -3.261,-0.117c-0.65,-0.016 -0.67,-0.176 -1.246,0.113c-0.236,0.037 -0.221,0.03 -0.474,0.015c-0.021,-0.797 -0.458,-0.245 -1.248,-0.281c-3.341,-0.151 -3.384,-0.481 -3.826,-0.178l-0.202,-0.035c-0.059,-0.032 -0.035,-0.146 -0.095,-0.179c-0.017,-0.009 -3.102,-0.303 -3.054,-0.907c0.016,-0.205 1.822,-0.577 2.571,-0.607c0.274,-0.011 0.275,-0.006 0.482,-0.194Z" style="fill:#dedfe1;fill-opacity:0.97;"/><path d="M13.937,4.158c0.054,0.176 0.523,1.692 -0.891,2.125c-3.99,0.167 -0.713,-4.282 -0.634,-4.381c0.127,-0.16 0.787,0.487 1.525,2.255Z" style="fill:#f8fdfe;fill-opacity:1;"/><path d="M10,13.392c0.376,0.325 0.465,0.152 0.628,0.101c0.4,0.129 0.462,-0.098 0.787,0.159c0.042,0.033 0.088,0.07 0.615,0.248c0.32,0.282 0.606,0.006 0.621,0.423c0.003,0.089 0.268,0.371 -0.179,0.6c-0.187,0.095 -0.826,0.099 -0.285,0.653c-0.151,0.228 -0.17,0.2 -0.325,0.429l-0.067,0.112c-0.384,0.15 -0.342,0.205 -0.494,0.59c-0.168,-0.051 -0.165,-0.039 -0.287,-0.174c-0.018,-0.048 -0.133,-0.347 -0.558,-0.312c-0.435,0.036 -0.432,0.035 -0.465,0.053c-0.128,0.075 0.075,0.174 -0.05,0.247c-0.058,0.08 -0.117,0.161 -0.175,0.241c-0.706,-0.149 -0.966,-0.265 -1.046,-0.301c-0.041,-0.018 -0.164,-0.022 -0.178,-0.014c-0.425,0.238 -0.502,0.019 -0.674,-0.014c-0.098,-0.007 -0.614,-0.046 -1.099,-0.546c0.103,-0.236 0.049,-0.258 0.237,-0.417c0.205,0.077 0.21,0.044 0.383,0.197l-0.107,0.206c-0.008,-0.001 -0.334,-0.054 -0.088,0.048c0.031,0.013 0.07,-0.01 0.101,0.003c1.495,-0.099 1.567,-0.136 1.687,-0.198c-0.021,-0.084 -0.041,-0.168 -0.062,-0.252c0.053,-0.01 0.05,-0.006 0.386,-0.008c0.023,-0.072 0.056,-0.042 0.078,-0.11c0.006,-0.02 0.003,-0.019 0.043,-0.257c0.066,-0.04 0.132,-0.081 0.197,-0.121l0.068,0.105c0.032,0.023 0.063,0.045 0.095,0.068c0.619,-0.257 0.835,-0.142 0.772,-0.541c0.012,-0.238 -0.065,-0.27 -0.294,-0.176c-0.348,-0.001 -0.339,-0.013 -0.673,-0.095c-0.159,-0.194 -0.174,-0.188 -0.172,-0.21c0.013,-0.196 0.84,0.147 0.452,-0.581c0.042,-0.052 0.085,-0.105 0.127,-0.157Z" style="fill:#cfebf5;fill-opacity:1;"/><path d="M18.152,14.106c0.947,0.973 1.293,1.445 2.942,1.539c0.252,0.014 0.307,-0.047 0.402,0.179c-0.493,0.211 -0.5,0.112 -1.028,0.139c-0.042,-0.128 -0.293,-0.451 -0.308,-0.008c-0.001,0.018 -0.007,0.015 -0.091,0.203c-0.282,0.081 -0.317,0.098 -0.314,0.383c-0.441,0.175 -0.406,0.26 -0.874,0.328c-0.019,0.006 -0.344,0.11 -0.147,0.203c0,0 0.223,0.027 0.242,0.029c-0.334,0.293 -0.344,0.263 -0.368,0.292c-0.391,0.469 -0.469,0.339 -1.07,0.454c-0.09,-0.133 -0.1,-0.175 -0.66,-0.143c-0.023,0.005 -0.019,-0.011 -0.294,-0.032c-0.015,-0.36 -1.132,-0.772 -1.691,0.166c-0.182,0.021 -0.173,0.005 -0.347,0.025c-0.045,-0.147 -0.015,-0.139 0.017,-0.282c0.028,-0.127 -0.038,-0.094 -0.28,-0.208c0.535,-0.161 0.999,-0.127 1.148,-0.281c0.454,-0.47 1.094,-0.181 0.779,-0.761c0.189,-0.167 0.174,-0.174 0.192,-0.186c0.161,-0.321 0.326,-0.216 0.957,-0.47c0.073,-0.027 0.358,-0.133 0.802,-0.55c0.438,-0.178 0.49,-0.168 0.456,-0.216c-0.134,-0.192 -0.364,-0.37 -0.399,-0.398c-0.221,-0.171 -0.132,-0.208 -0.067,-0.407Z" style="fill:#faf8f2;fill-opacity:0.99;"/><path d="M7.74,19.61c0.269,-0.016 0.274,-0.064 0.434,0.034c0.682,0.417 0.723,0.282 1.517,0.423c-0.086,0.075 -0.025,0.145 -0.193,0.167c-0.33,0.043 -0.361,-0.055 -0.608,0.158c-1.18,-0.684 -0.332,0.999 1.087,1.309c0.3,0.065 0.297,0.053 1.247,0.173c0.867,0.024 3.035,0.176 4.977,-0.38c0.202,-0.058 0.191,0.038 0.197,0.024c0.1,-0.226 -0.069,-0.242 0.033,-0.456c0.106,-0.222 0.014,-0.263 -0.235,-0.245c-0.159,0.012 -0.053,0.076 0.011,0.218c-0.757,0.015 -0.871,0.135 -1.049,-0.281c0.808,-0.257 1.569,-0.634 1.888,-0.4c-0.314,0.856 -0.312,0.844 -0.715,1.669c-0.83,0.647 -5.907,0.808 -7.818,-0.003c0.001,-0.134 0.032,-0.132 -0.026,-0.244c-0.231,-0.467 -0.693,-1.992 -0.746,-2.167Z" style="fill:#d7e1e4;fill-opacity:1;"/><path d="M21.682,11.967c-0.864,0.234 -1.462,0.609 -1.592,-0.035c-0.306,-1.519 -0.507,-1.745 0.037,-1.873c2.59,-0.609 2.834,-1.272 2.927,-0.724c0.264,1.56 0.627,1.875 -0.346,2.277c-0.388,0.16 -0.381,0.142 -1.026,0.355Z" style="fill:#e4fcfd;fill-opacity:0.99;"/><path d="M17.196,20.002c-0.013,0.028 0.001,0.018 -0.15,0.353c-0.319,-0.234 -1.08,0.143 -1.888,0.4c0.178,0.417 0.293,0.296 1.049,0.281c-0.158,0.316 -0.242,0.193 -0.578,0.258c-0.033,0.002 -0.065,0.004 -0.098,0.005c-3.465,0.193 -6.187,0.699 -6.533,-0.647c-0.006,-0.022 -0.008,-0.019 -0.108,-0.26c0.247,-0.213 0.279,-0.115 0.608,-0.158c0.167,-0.022 0.106,-0.092 0.193,-0.167c4.297,1.141 7.145,-0.251 7.371,-0.206c0.063,0.013 0.07,0.128 0.133,0.14Z" style="fill:#d7e0e3;fill-opacity:1;"/><path d="M1.195,9.015c0.73,0.322 0.731,0.28 1.5,0.52c-0.125,0.117 -0.177,0.129 -0.065,0.252c0.004,0.005 -0,0.001 0.174,0.109c0.073,-0.005 0.146,-0.011 0.22,-0.016c0.254,0.206 0.488,0.225 0.534,0.229c0.709,0.057 0.532,0.342 0.436,1.047c-0.019,0.191 -0.037,0.383 -0.056,0.574c-0.046,0.016 -0.071,0.176 -1.819,-0.35c-0.169,-0.063 -1.14,-0.307 -1.137,-0.603c0.01,-0.894 0.015,-0.885 0.213,-1.762Z" style="fill:#bce5f3;fill-opacity:1;"/><path d="M19.884,21.151c0.274,0.423 0.381,0.278 0.83,0.033l0.188,-0c0.036,0.017 0.206,0.466 0.771,0.092c0.031,0.005 0.192,0.029 0.378,0.085c0.06,0.041 0.037,0.154 0.096,0.195c0.059,0.04 0.094,-0.115 0.848,0.262c0.898,0.448 -2.182,0.89 -2.384,0.919c-0.503,0.072 -0.449,0.166 -0.57,0.246c-0.427,0.107 -0.416,0.077 -0.86,0.096c-0.059,-0.028 -0.04,-0.14 -0.099,-0.168c-0.049,-0.023 -0.044,0.031 -0.671,0.097c-0.101,0.011 -0.093,0.009 -0.193,0.018c-0.132,-0.598 -0.032,-0.75 0.576,-0.721c0.072,0.135 0.036,0.206 0.192,0.174c0.821,-0.168 1.224,-0.348 1.325,-0.393c0.026,-0.37 -0.143,-0.281 -0.463,-0.491c-0.023,-0.015 -1.227,0.215 -1.277,0.23c-0.148,0.044 -0.32,0.159 -0.346,0.177c-0.416,0.279 -0.454,0.057 -0.504,0.05c1.178,-0.782 1.408,-0.307 2.164,-0.899Z" style="fill:#e0e0e2;fill-opacity:0.93;"/><path d="M12.063,2.903c0.106,0.138 0.128,0.123 0.155,0.298c0.094,0.619 0.12,0.612 0.512,1.097c0.186,0.127 0.191,0.037 0.342,-0.064c0.273,0.251 0.302,0.24 0.637,0.104c1.017,2.096 -3.054,2.421 -2.32,0.011c0.171,-0.563 0.611,-1.335 0.674,-1.446Z" style="fill:#b5e0f1;fill-opacity:1;"/><path d="M20.07,16.16c-0.173,0.66 0.922,1.061 0.027,1.757c-0.485,0.377 -0.633,0.302 -1.016,0.16c-0.05,-0.004 -0.045,-0.112 -0.094,-0.116c-0.201,-0.017 0.009,0.256 0.023,0.274c0.876,0.543 0.072,1.598 -0.693,1.16c-0.086,-0.049 -0.093,-0.055 -0.165,0.023c-0.008,0.025 -0.015,0.051 -0.023,0.076c0.041,0.052 0.673,0.399 0.26,0.846c-0.43,0.466 -0.648,-0.105 -1.174,0.263l-0.027,0.059c0.427,-1.11 0.558,-1.039 1.05,-2.115c0.613,-1.34 1.687,-1.915 1.653,-1.992c-0.019,-0.041 -0.116,0.027 -0.135,-0.014c-0.002,-0.285 0.032,-0.301 0.314,-0.383Z" style="fill:#fbfcf9;fill-opacity:1;"/><path d="M12.062,16.216c0.013,0.026 -0.036,0.059 -0.023,0.085c0.197,0.395 0.37,-0.149 0.823,0.048c-0.271,0.164 -0.282,0.152 -0.293,0.177c-0.021,0.051 0.313,0.138 0.207,0.386c-0.089,0.206 0.023,0.192 0.25,0.221c0.045,-0.444 0.087,-0.428 0.125,-0.866l0.284,0.024c0.285,0.124 0.267,0.162 0.568,0.155c1.42,-0.033 1.587,-0.083 1.719,-0.122c0.093,0.018 0.186,0.037 0.279,0.055c0.07,-0.016 0.14,-0.031 0.21,-0.047c0.315,0.581 -0.325,0.291 -0.779,0.761c-0.149,0.154 -0.612,0.119 -1.148,0.281c-0.146,0.025 -0.134,0.021 -0.282,0.011c-0.457,-0.302 -0.423,0.174 -0.961,0.265c-0.222,0.038 -0.214,0.041 -0.402,0.168c-0.057,-0.014 -0.114,-0.029 -0.171,-0.043c-0.278,-0.451 -0.283,-0.434 -0.304,-0.474c0.175,-0.109 0.163,-0.097 0.175,-0.109c0.127,-0.119 -0.321,-0.73 -0.37,-0.064c-0.231,-0.13 -0.215,-0.129 -0.466,-0.216c0.232,-0.397 0.406,-0.265 0.558,-0.697Z" style="fill:#e7d4b8;fill-opacity:1;"/><path d="M8.891,20.392c0.1,0.241 0.102,0.239 0.108,0.26c0.346,1.345 3.068,0.84 6.533,0.647l0.098,-0.005c0.336,-0.065 0.42,0.057 0.578,-0.258c-0.063,-0.142 -0.17,-0.206 -0.011,-0.218c0.249,-0.019 0.341,0.023 0.235,0.245c-0.102,0.214 0.067,0.23 -0.033,0.456c-0.006,0.015 0.005,-0.081 -0.197,-0.024c-1.942,0.555 -4.11,0.404 -4.977,0.38c-0.951,-0.12 -0.948,-0.108 -1.247,-0.173c-1.419,-0.31 -2.267,-1.993 -1.087,-1.309Z" style="fill:#f9f9f8;fill-opacity:1;"/><path d="M20.4,10.457c1.144,-0.384 1.131,-0.433 1.46,-0.446c0.118,-0.005 0.17,0.032 0.375,1.432c-0.36,0.278 -1.572,0.676 -1.847,0.435c-0.094,-0.358 -0.09,-0.342 -0.181,-0.711c0.157,-0.22 0.148,-0.219 0.199,-0.491c-0.002,-0.073 -0.004,-0.146 -0.006,-0.219Z" style="fill:#cef0f9;fill-opacity:0.99;"/><path d="M1.195,9.015c-0.198,0.876 -0.203,0.868 -0.213,1.762c-0.003,0.296 0.968,0.541 1.137,0.603c1.749,0.526 1.773,0.366 1.819,0.35c0.523,-0.277 0.077,-0.55 0.056,-0.574c0.097,-0.705 0.273,-0.99 -0.436,-1.047c-0.046,-0.004 -0.281,-0.023 -0.534,-0.229c-0.073,0.005 -0.146,0.011 -0.22,0.016c-0.175,-0.108 -0.17,-0.105 -0.174,-0.109c-0.112,-0.123 -0.059,-0.135 0.065,-0.252c1.702,0.434 1.729,0.354 1.832,0.465c0.14,0.151 -0.209,1.872 -0.266,2.037c-0.142,0.41 -2.784,-0.649 -3.015,-0.741c-0.886,-0.355 -0.554,-0.63 -0.414,-1.578c0.074,-0.503 -0.133,-0.836 0.364,-0.702Z" style="fill:#e7fbfd;fill-opacity:1;"/><path d="M15.265,13.864c0.076,0 0.047,0.092 0.942,0.158c-0.087,0.246 0.015,0.261 -0.097,0.497c0.532,0.389 0.595,0.002 1.243,0.064c0.312,0.03 0.449,-0.106 0.491,0.214c0.005,0.036 0.02,0.154 0.318,0.329c-0.444,0.418 -0.729,0.523 -0.802,0.55c-0.207,-0.464 -0.171,-0.624 -0.679,-0.565c-0.202,0.024 -0.197,0.006 -0.365,0.108c-0.256,-0.23 -0.306,-0.368 -0.32,-0.406c-0.12,-0.335 -0.892,-0.171 -0.969,-0.155c-0.009,0.049 -0.017,0.098 -0.026,0.146c0.051,0.42 -0.211,0.15 -0.628,0.16c-0.117,-0.068 -0.122,-0.049 -0.188,-0.176c0.286,-0.236 0.464,-0.094 0.5,-0.455c0.04,-0.409 0.276,-0.201 0.581,-0.469Z" style="fill:#f0dbbd;fill-opacity:0.99;"/><path d="M11.033,7.329c0.113,-0.001 1.401,-0.011 1.417,0.034c0.039,0.114 -0.035,0.125 0.205,1.497c0.011,0.065 -1.134,0.69 -1.417,-0.098c-0.039,-0.109 -0.27,-0.754 -0.205,-1.432Z" style="fill:#f3f4f2;fill-opacity:1;"/><path d="M6.254,17.278c0.527,0.809 0.942,1.305 1.275,2.507c-0.797,0.018 -0.816,-0.09 -1.205,-0.783c0.221,-0.07 0.208,-0.081 0.422,-0.146c0.104,-0.107 0.104,-0.136 -0.025,-0.212c-0.16,0.038 -1.023,0.556 -1.357,-0.581c-0.049,-0.168 -0.023,-0.167 0.102,-0.296c0.495,-0.279 0.727,-0.445 0.788,-0.488Z" style="fill:#f5f7f4;fill-opacity:1;"/><path d="M7.863,7.357c-0.124,0.42 0.433,1.42 0.192,1.842c-1.398,-0.064 -1.371,-0.413 -1.55,-1.809c0.68,-0.059 0.666,-0.035 1.357,-0.033Z" style="fill:#eaeeee;fill-opacity:1;"/><path d="M8.069,7.347c0.616,-0.005 0.604,0.002 1.227,0.014c0.349,1.682 0.341,1.739 0.207,1.792c-0.488,0.194 -0.874,0.005 -0.942,-0.028c-0.296,-0.464 -0.585,-1.636 -0.492,-1.779Z" style="fill:#f0f2f0;fill-opacity:1;"/><path d="M1.373,11.799c-0.108,1.498 0.137,2.188 0.21,2.332c0.045,0.46 -0.164,0.351 -0.612,0.44l-0.134,0.054c-0.034,-0.238 -0.287,-1.99 -0.177,-2.995c0.02,-0.18 0.551,0.106 0.714,0.169Z" style="fill:#e6ecec;fill-opacity:1;"/><path d="M12.001,12.963c0.942,0.412 1.257,0.291 1.132,0.88c-0.018,0.086 -0.031,0.253 1.057,0.276c-0.012,0.027 -0.099,0.479 -0.38,0.304c-0.019,-0.012 -0.02,-0.004 -0.27,-0.052c-0.302,-0.019 -0.504,-0.066 -0.547,-0.075c0.021,0.063 0.141,0.427 0.144,0.813c-0.483,0.015 -0.504,0.17 -0.787,0.24c-0.054,0.076 -0.108,0.152 -0.163,0.228c-0.541,-0.554 0.098,-0.558 0.285,-0.653c0.447,-0.228 0.182,-0.511 0.179,-0.6c-0.015,-0.417 -0.301,-0.141 -0.621,-0.423c0.027,-0.207 0.05,-0.241 -0.144,-0.317c-0.166,-0.065 0.092,-0.575 0.115,-0.62Z" style="fill:#deeff0;fill-opacity:1;"/><path d="M7.343,11.244c0.142,0.025 0.284,0.05 0.427,0.075c0.123,0.484 0.067,0.745 -0.469,2.333c-0.074,0.122 -0.147,0.243 -0.221,0.365c-0.044,0.047 -0.321,0.342 -0.537,0.604c-0.178,-0.124 -0.249,-0.214 -0.448,0.082c-0.097,0.144 -0.478,0.423 -0.524,0.397c-0.057,-0.033 -0.071,-0.118 -0.128,-0.151c1.35,-1.068 1.655,-1.935 1.9,-3.704Z" style="fill:#dfe8eb;fill-opacity:1;"/><path d="M9.6,7.343c0.379,0.003 0.758,0.005 1.137,0.008c0.197,1.626 0.353,1.755 0.098,1.779c-1.247,0.12 -1.134,-0.36 -1.269,-1.611c-0.011,-0.098 0.015,-0.079 0.033,-0.176Z" style="fill:#f3f5f2;fill-opacity:1;"/><path d="M22.846,16.931c-1.086,1.118 -1.749,0.762 -1.56,1.511c0.226,0.89 -1.801,1.707 -1.034,0.496c0.405,-0.638 0.386,-0.637 0.909,-1.193c0.088,-0.093 0.03,-0.097 -0.069,-0.359c1.079,-0.459 1.322,-0.301 1.436,-0.396c0.069,-0.057 0.099,-0.175 0.187,-0.191c0.061,-0.011 0.07,0.143 0.131,0.132Z" style="fill:#c9dee6;fill-opacity:0.99;"/><path d="M19.755,16.542c0.019,0.041 0.116,-0.027 0.135,0.014c0.034,0.076 -1.04,0.651 -1.653,1.992c-0.492,1.076 -0.623,1.005 -1.05,2.115c-0.019,0.053 -0.019,0.041 -0.253,0.649c-0.049,0.237 -0.097,0.475 -0.146,0.712c-0.232,0.067 -0.23,0.058 -0.457,-0c0.403,-0.825 0.401,-0.813 0.715,-1.669c0.151,-0.335 0.137,-0.325 0.15,-0.353c0.118,-0.378 0.159,-0.347 0.386,-0.672c0.059,-0.099 0.118,-0.197 0.178,-0.296c0.156,-0.343 0.157,-0.33 0.302,-0.679c0.308,-0.739 -0.457,0.072 -0.979,-0.114c0.201,-0.244 0.19,-0.239 0.456,-0.392c0.601,-0.114 0.678,0.015 1.07,-0.454c0.024,-0.029 0.034,0 0.368,-0.292c-0,-0.044 0.074,-0.066 0.073,-0.11c-0,-0.017 -0,0 -0.169,-0.123c0.468,-0.068 0.433,-0.152 0.874,-0.328Z" style="fill:#aec3cf;fill-opacity:0.99;"/><path d="M10.553,12.769c0.13,0.09 0.502,0.641 1.253,0.072l0.196,0.123c-0.023,0.045 -0.281,0.555 -0.115,0.62c0.194,0.076 0.171,0.11 0.144,0.317c-0.526,-0.178 -0.573,-0.215 -0.615,-0.248c-0.325,-0.257 -0.386,-0.03 -0.787,-0.159c0.015,-0.183 0.114,-0.26 -0.07,-0.276c-0.233,-0.02 -0.293,-0.148 -0.558,0.174c-0.042,0.052 -0.085,0.105 -0.127,0.157c-0.164,0.075 -0.153,0.078 -0.296,0.192c-0.213,-0.181 -0.188,-0.197 -0.382,-0.276c0.085,-0.13 0.248,-0.168 0.03,-0.307c-0.151,-0.11 -0.132,-0.119 -0.221,-0.281c0.179,-0.754 0.684,-0.148 1.549,-0.108Z" style="fill:#def3f8;fill-opacity:1;"/><path d="M4.548,19.076c0.168,0.253 0.194,0.219 0.347,0.519c0.354,0.691 0.47,0.576 1.176,0.914c0.146,0.07 0.139,0.055 0.295,0.004c0.201,0.288 0.114,0.714 -0.318,0.629c-2.563,-0.503 -1.644,-1.599 -1.635,-1.644c-0.097,-0.232 -0.022,-0.23 0.135,-0.423Z" style="fill:#d2e5ea;fill-opacity:0.99;"/><path d="M14.004,7.329c0.706,-0.028 0.699,-0.051 1.062,-0.015c0.043,0.775 0.111,0.76 0.141,1.542c0.009,0.06 0.019,0.119 0.028,0.179c-0.899,0.245 -1.24,-0.317 -1.232,-1.706Z" style="fill:#f3f5f2;fill-opacity:1;"/><path d="M14.185,14.789c0.065,0.127 0.07,0.108 0.188,0.176c0.096,0.28 0.221,0.212 0.286,0.492c-0.322,0.125 -0.388,0.019 -0.572,0.311c0.025,0.038 0.049,0.076 0.074,0.114c-0.116,0.182 -0.117,0.18 -0.126,0.196c-0.049,0.092 -0.028,0.101 -0.037,0.104c-0.031,0.013 -0.175,-0.27 -0.564,0.108l-0.284,-0.024c-0.19,0.08 -0.174,0.075 -0.19,0.08c-0.053,0.017 -0.05,-0.014 -0.099,0.002c-0.453,-0.198 -0.626,0.347 -0.823,-0.048c-0.013,-0.026 0.036,-0.059 0.023,-0.085c0.249,-0.229 0.373,-0.028 0.571,-0.29c0.313,-0.413 0.551,-0.195 0.728,-0.696c0.09,-0.04 0.181,-0.079 0.271,-0.119c0.31,-0.11 0.288,-0.135 0.553,-0.322Z" style="fill:#e3d7c0;fill-opacity:1;"/><path d="M15.247,7.325c0.629,-0.043 0.619,-0.017 1.249,-0.011l-0.04,0.11c-0.074,1.479 0.069,1.481 0.028,1.603c-1.264,0.109 -1.009,-0.457 -1.237,-1.702Z" style="fill:#f0f2f0;fill-opacity:0.99;"/><path d="M3.558,20.933c0.144,0.097 0.128,0.099 0.288,0.163c-0.208,0.188 -0.208,0.184 -0.482,0.194c-0.749,0.029 -2.555,0.402 -2.571,0.607c-0.049,0.605 3.036,0.898 3.054,0.907c0.059,0.032 0.035,0.146 0.095,0.179c-0.803,-0.02 -0.802,0.002 -0.867,-0.021c-0.279,-0.1 -0.276,-0.043 -0.572,-0.097c-0.535,-0.098 -0.537,-0.074 -0.577,-0.098c-0.753,-0.427 -1.014,0.009 -1.5,-0.696c-0.307,-0.686 1.752,-0.758 1.988,-0.942c0.13,-0.102 0.141,-0.096 0.281,0.005c0.065,0.047 0.306,-0.091 0.382,-0.07c0.265,0.074 0.254,0.006 0.485,-0.13Z" style="fill:#d4d5d7;fill-opacity:0.08;"/><path d="M13.71,7.341c0.036,0.265 -0.035,0.591 0.267,1.525c0.021,0.066 0.07,0.303 -0.84,0.206c-0.105,-0.011 -0.267,-0.028 -0.39,-1.266c-0.068,-0.688 0.282,-0.474 0.962,-0.466Z" style="fill:#f2f4f1;fill-opacity:1;"/><path d="M16.496,7.314c0.476,0.015 0.951,0.03 1.427,0.044c-0.01,0.666 0.011,0.652 0.133,1.307l0.001,0.104c-0.034,0.004 -0.206,0.027 -0.421,0.092c-0.096,-0.031 -0.079,-0.057 -0.184,-0.06c-0.443,-0.015 -0.318,-0.199 -0.473,-0.612c-0.077,-0.205 -0.107,-0.178 -0.224,-0.371c-0.001,-0.002 0.05,-0.207 -0.167,-0.297c-0.083,-0.034 -0.052,-0.064 -0.133,-0.098l0.04,-0.11Z" style="fill:#ebefee;fill-opacity:0.99;"/><path d="M3.556,17.86c0.16,0.277 0.123,0.292 0.365,0.5c0.125,0.226 0.143,0.203 0.627,0.716c-0.158,0.193 -0.232,0.191 -0.135,0.423c-0.555,0.066 -1.058,0.232 -1.348,-0.957c-0.031,-0.129 -0.071,-0.26 0.491,-0.682Z" style="fill:#c5dbe3;fill-opacity:1;"/><path d="M9.873,13.549c0.388,0.728 -0.439,0.385 -0.452,0.581c-0.001,0.022 0.013,0.016 0.172,0.21c0.334,0.082 0.325,0.093 0.673,0.095c0.098,0.059 0.196,0.117 0.294,0.176c0.064,0.398 -0.153,0.284 -0.772,0.541l-0.095,-0.068l-0.068,-0.105c-0.041,-0.366 -0.174,-0.333 -0.508,-0.187c-0.303,-0.129 -0.323,-0.089 -0.582,0.119c-0.174,0.008 -0.346,0.05 -0.375,0.057c-0.013,-0.067 -0.025,-0.134 -0.038,-0.201c0.212,-0.175 0.296,-0.076 0.42,-0.327l0.193,0.016c0.105,-0.107 0.1,-0.093 0.187,-0.231c0.322,-0.037 0.521,-0.374 0.655,-0.484c0.143,-0.114 0.132,-0.117 0.296,-0.192Z" style="fill:#dbf2f8;fill-opacity:1;"/><path d="M19.406,7.547c0.34,-0.184 0.351,-0.07 0.723,-0.013c0.346,0.053 -0.172,0.71 0.005,0.748c0.342,0.073 0.332,-0.606 1.248,-0.499c0.067,-0.025 0.133,-0.05 0.2,-0.075c0.131,0.154 0.167,0.134 0.163,0.345c-1.922,0.596 -1.915,0.601 -2.082,0.651c-0.213,-0.572 -0.192,-0.563 -0.257,-1.158Z" style="fill:#f2f5f5;fill-opacity:1;"/><path d="M16.207,14.022c0.445,0.037 0.434,0.038 0.875,0.041c0.126,0.029 0.484,0.098 0.762,-0.044c0.075,-0.006 0.151,-0.011 0.226,-0.017l0.082,0.104c-0.065,0.199 -0.154,0.235 0.067,0.407c0.036,0.028 0.265,0.206 0.399,0.398c0.034,0.048 -0.018,0.038 -0.456,0.216c-0.297,-0.175 -0.313,-0.293 -0.318,-0.329c-0.042,-0.32 -0.179,-0.184 -0.491,-0.214c-0.648,-0.062 -0.711,0.325 -1.243,-0.064c0.112,-0.236 0.011,-0.251 0.097,-0.497Z" style="fill:#f5e2c5;fill-opacity:0.99;"/><path d="M6.253,7.396c0.003,0.043 -0.06,0.051 0.177,1.177c-0.105,0.075 -0.104,0.053 -0.191,0.162c-0.235,-0.018 -0.508,0.119 -0.832,-0.283c-0.284,-0.391 -0.189,-0.419 -0.287,-0.898c0.082,-0.041 0.33,-0.166 1.132,-0.158Z" style="fill:#e5ecec;fill-opacity:1;"/><path d="M2.238,13.456c-0.243,-0.955 -0.128,-0.964 0.04,-1.242c0.126,1.366 0.367,1.758 0.448,1.891c0.051,0.084 0.231,0.377 1.221,0.13c0.053,0.144 0.039,0.145 0.09,0.195c-1.442,0.187 -1.6,0.218 -1.738,0.245c-0.05,0.01 -0.316,-0.056 -0.365,-0.043c-0.165,0.043 -0.325,0.104 -0.488,0.153c-0.029,0.009 -0.321,0.095 -0.378,0.028c-0.056,-0.066 -0.041,-0.176 -0.097,-0.242c0.448,-0.089 0.657,0.019 0.612,-0.44c0.148,-0.079 0.137,-0.102 0.256,-0.101c0.052,0.107 0.104,0.213 0.156,0.32c0.039,0.024 0.853,0.527 0.464,-0.328c-0.02,-0.044 -0.079,-0.174 -0.222,-0.565Z" style="fill:#becfd7;fill-opacity:1;"/><path d="M11.425,18.065c-0.45,0.421 -2.507,-0.216 -2.273,-0.454c0.293,-0.297 1.17,-0.439 1.677,-0.011c0.306,0.258 0.418,0.122 0.596,0.465Z" style="fill:#f2e5d0;fill-opacity:1;"/><path d="M14.048,13.405c0.644,-0.398 0.683,-0.155 1.107,-0.037c0.062,0.247 0.025,0.24 0.111,0.496c-0.305,0.269 -0.541,0.06 -0.581,0.469c-0.035,0.361 -0.214,0.219 -0.5,0.455c-0.265,0.187 -0.243,0.212 -0.553,0.322c-0.001,-0.103 -0.009,-0.093 -0.067,-0.336c0.343,-0.211 0.02,-0.244 -0.018,-0.266l-0.007,-0.138c0.25,0.048 0.251,0.04 0.27,0.052c0.281,0.175 0.368,-0.277 0.38,-0.304c1.13,-0.285 0.043,-0.582 -0.142,-0.714Z" style="fill:#f4ecdd;fill-opacity:1;"/><path d="M18.129,7.363c0.634,0.031 0.628,-0.018 0.917,0.098c0.002,0.109 0.008,0.424 0.121,1.355c-0.521,0.146 -0.517,0.146 -0.563,0.158c-0.156,0.041 -0.147,0.019 -0.295,0.058c-0.146,-0.121 -0.142,-0.107 -0.252,-0.263l-0.001,-0.104c0.177,0.128 0.179,0.107 0.4,0.117c0.011,-0.036 0.021,-0.072 0.032,-0.108c-0.037,-0.102 -0.124,-0.342 -0.359,-1.311Z" style="fill:#eaefef;fill-opacity:0.99;"/><path d="M7.087,18.166c0.225,-0.34 0.809,-0.095 1.081,-0.056c0.804,0.115 0.863,0.024 1.3,0.468c-0.015,0.126 -0.006,0.121 -0.015,0.126c-0.06,0.036 -0.022,0.049 -0.053,0.119c-0.11,0.068 -0.101,0.064 -0.11,0.068c-0.043,0.02 -0.041,0.002 -0.082,0.022c-0.366,-0.433 -1.097,-0.247 -1.733,-0.247l-0.131,0.011c-0.132,-0.254 -0.125,-0.242 -0.257,-0.512Z" style="fill:#e4ebeb;fill-opacity:1;"/><path d="M21.496,15.825c0.35,0.386 0.018,0.815 -0.061,0.943c-0.695,0.36 -0.904,0.38 -1.172,-0.348c-0.014,-0.038 -0.032,-0.086 0.205,-0.456c0.528,-0.027 0.535,0.072 1.028,-0.139Z" style="fill:#fbfbf9;fill-opacity:0.99;"/><path d="M6.896,20.626c0.105,0.099 0.21,0.198 0.316,0.297c0.028,0.039 0.056,0.078 0.084,0.117c0.339,-0.057 0.351,-0.035 0.567,-0.295c0.312,0.952 0.298,1.052 0.624,1.032c0.059,0.112 0.027,0.111 0.026,0.244c-0.491,0.057 -2.34,-0.647 -1.617,-1.395Z" style="fill:#dbe5e8;fill-opacity:1;"/><path d="M16.503,2.914c-0.015,0.04 -0.133,0.038 0.018,0.37c-0.036,-0.004 -0.041,0.08 -0.077,0.076c-0.052,-0.005 -0.075,-0.078 -0.124,-0.096c-0.154,-0.055 -0.453,0.419 -0.353,0.556c0.181,0.25 0.224,0.389 0.438,0.16c0.275,-0.293 0.312,-0.264 0.312,-0.299c0,-0.047 -0.111,-0.044 -0.109,-0.091c0.001,-0.019 0.008,-0.016 0.104,-0.212c0.138,0.145 0.443,0.258 0.485,0.274c-0.366,0.216 -0.474,0.106 -0.64,0.496l-0.041,0.028c-0.001,0.144 -0.014,0.134 -0.013,0.284c-0.113,0.148 -0.085,0.153 -0.153,0.355c-0.106,0.318 -0.135,-0.03 -0.279,-0.323c0.042,-0.155 0.058,-0.147 0.039,-0.231c0,0 -0.122,-0.149 -0.132,-0.162c-0.131,-0.188 -0.141,-0.184 -0.372,-0.177c-0.139,-0.069 -0.129,-0.058 -0.252,-0.161c-0.053,-0.051 -0.106,-0.102 -0.159,-0.153c0.117,-0.107 0.09,-0.148 0.249,-0.162c0.606,-0.052 0.585,-0.196 0.714,-0.889c0.068,-0.367 0.112,0.063 0.345,0.357Z" style="fill:#f4c575;fill-opacity:0.74;"/><path d="M22.051,21.36c0.067,-0.02 0.315,-0.096 0.869,0.133c1.863,0.769 -1.68,1.492 -2.88,1.488c0.122,-0.081 0.067,-0.174 0.57,-0.246c0.202,-0.029 3.282,-0.471 2.384,-0.919c-0.754,-0.376 -0.789,-0.222 -0.848,-0.262c-0.06,-0.041 -0.037,-0.154 -0.096,-0.195Z" style="fill:#d2d3d4;fill-opacity:0.08;"/><path d="M13.137,15.109c0.075,0.04 0.15,0.081 0.224,0.121c-0.177,0.501 -0.416,0.283 -0.728,0.696c-0.198,0.262 -0.322,0.061 -0.571,0.29c-0.152,0.431 -0.326,0.299 -0.558,0.697c-0.024,0.183 -0.028,0.185 -0.183,0.258c-0.05,-0.089 -0.09,-0.064 -0.092,-0.166c-0.003,-0.155 0.034,-0.138 0.074,-0.297c0.151,-0.385 0.109,-0.44 0.494,-0.59c0.022,-0.037 0.044,-0.075 0.067,-0.112c0.155,-0.229 0.173,-0.201 0.325,-0.429c0.221,0.072 0.254,0.067 0.276,0.063c0.225,-0.036 -0,-0.104 -0.114,-0.291c0.283,-0.07 0.303,-0.224 0.787,-0.24Z" style="fill:#dce2d9;fill-opacity:1;"/><path d="M4.548,19.076c0.403,-0.22 0.375,0 0.371,0.03c-0.032,0.252 0.7,0.201 0.763,0.196c0.185,0.795 0.244,0.775 0.684,1.212c-0.155,0.051 -0.149,0.065 -0.295,-0.004c-0.706,-0.338 -0.821,-0.223 -1.176,-0.914c-0.154,-0.3 -0.18,-0.266 -0.347,-0.519Z" style="fill:#a9c7d4;fill-opacity:0.99;"/><path d="M9.688,20.479c0.099,-0.039 0.051,-0.156 0.292,-0.116c0.061,0.01 0.048,0.022 0.112,0.034c0.296,0.055 0.272,0.087 0.556,0.163c0.493,0.132 0.846,-0.06 0.67,0.423c-0.587,-0.176 -0.594,0.084 -1.526,0.066c-0.17,-0.003 -1.007,-0.526 -0.104,-0.57Z" style="fill:#e2e8e9;fill-opacity:0.99;"/><path d="M15.823,15.357c-0.188,0.186 -0.184,0.189 -0.204,0.201c-0.149,0.09 -0.518,-0.017 -0.259,0.628c-0.13,0.025 -0.128,0.007 -0.885,-0.075c-0.337,-0.036 -0.254,-0.184 -0.315,-0.229c-0.025,-0.038 -0.049,-0.076 -0.074,-0.114c0.184,-0.292 0.251,-0.186 0.572,-0.311c0.338,-0.026 0.439,0.099 0.56,-0.216c0.011,-0.027 0.015,-0.039 0.315,-0.188c0.147,-0.073 0.119,0.029 0.289,0.304Z" style="fill:#e5cead;fill-opacity:1;"/><path d="M15.324,13.256c0.164,0.22 0.132,0.27 0.399,0.317c0.216,-0.069 0.25,-0.169 0.494,0.069c0.256,0.249 0.275,-0.275 0.284,-0.392l0.183,0.025c0.167,0.428 0.44,0.316 0.398,0.787c-0.441,-0.003 -0.43,-0.003 -0.875,-0.041c-0.895,-0.066 -0.865,-0.157 -0.942,-0.158c-0.085,-0.256 -0.049,-0.249 -0.111,-0.496c0.056,-0.038 0.113,-0.075 0.169,-0.113Z" style="fill:#faeeda;fill-opacity:1;"/><path d="M15.026,14.659c0.077,-0.016 0.848,-0.18 0.969,0.155c0.014,0.039 0.064,0.177 0.32,0.406c-0.238,0.197 -0.39,0.123 -0.492,0.137c-0.171,-0.275 -0.143,-0.377 -0.289,-0.304c-0.3,0.149 -0.305,0.161 -0.315,0.188c-0.121,0.315 -0.221,0.189 -0.56,0.216c-0.065,-0.281 -0.19,-0.212 -0.286,-0.492c0.418,-0.01 0.679,0.26 0.628,-0.16l0.026,-0.146Z" style="fill:#ead3b3;fill-opacity:0.99;"/><path d="M4.899,16.814c0.139,-0.276 0.141,-0.263 0.201,-0.571c0.012,-0.061 0.542,0.202 0.98,0.845c-0.429,0.361 -0.663,0.659 -1.119,0.338c0.32,-0.23 0.296,-0.271 0.279,-0.298c-0.017,-0.027 -0.313,-0.289 -0.341,-0.313Z" style="fill:#fbfbf7;fill-opacity:1;"/><path d="M1.647,11.903l0.577,0.183l0.054,0.129c-0.168,0.278 -0.283,0.287 -0.04,1.242c-0.018,0.06 -0.141,0.04 -0.158,0.1c-0.04,0.135 0.154,0.427 -0.084,0.794c-0.052,-0.107 -0.104,-0.213 -0.156,-0.32c-0.134,-1.912 -0.148,-1.962 -0.193,-2.127Z" style="fill:#e2e9eb;fill-opacity:1;"/><path d="M16.585,17.674c-0.435,0.16 -0.42,0.153 -0.856,0.309c-0.502,0.002 -0.773,-0.116 -0.835,-0.143c0.559,-0.938 1.676,-0.526 1.691,-0.166Z" style="fill:#f3e1c8;fill-opacity:0.99;"/><path d="M17.76,19.033c-0.059,0.099 -0.118,0.197 -0.178,0.296c-0.363,-0.004 -0.351,-0.043 -0.717,0.033c-0.681,0.14 -0.645,0.314 -1.342,0.259c-0.544,-0.043 -0.519,0.112 -0.563,0.1c-0.075,-0.02 -0.074,-0.159 -0.149,-0.179c0.523,-0.229 0.546,-0.103 1.108,-0.234c1.491,-0.347 1.512,-0.263 1.628,-0.327c0.181,-0.1 0.182,0.045 0.212,0.053Z" style="fill:#e6eaea;fill-opacity:0.99;"/><path d="M1.373,11.799c0.091,0.035 0.183,0.069 0.274,0.104c0.045,0.165 0.059,0.215 0.193,2.127c-0.119,-0.001 -0.109,0.021 -0.256,0.101c-0.073,-0.144 -0.318,-0.834 -0.21,-2.332Z" style="fill:#c7d6dc;fill-opacity:0.99;"/><path d="M3.783,15.953c0.051,-0.053 0.253,-0.264 0.923,0.001c0.304,0.232 0.237,0.302 0.029,0.695c-0.194,-0.429 -0.305,-0.283 -0.51,-0.209c0.13,0.215 0.109,0.214 0.302,0.391c-0.289,0.087 -0.31,0.127 -0.555,-0.06c-0.323,-0.246 -0.191,-0.742 -0.188,-0.817Z" style="fill:#f2f4f3;fill-opacity:1;"/><path d="M2.163,10.585c-0.159,-0.057 -0.148,-0.059 -0.322,-0.063c-0.693,-0.017 -0.349,-0.698 -0.429,-0.903c-0.155,-0.397 0.182,-0.105 0.709,-0.108c0.009,-0 0.076,-0.009 0.042,1.073Z" style="fill:#a3d5e9;fill-opacity:0.99;"/><path d="M17.018,11.443c0.213,0.838 0.129,1.195 1.052,2.559c-0.075,0.006 -0.151,0.011 -0.226,0.017c-0.32,-0.259 -0.306,-0.251 -0.621,-0.516c0.066,-0.109 0.118,-0.037 0.18,-0.138c0.004,-0.007 -0.012,-0.003 -0.038,-0.096c-0.076,-0.272 -0.16,-0.215 -0.256,-0.491c-0.033,-0.095 -0.337,-0.968 -0.233,-1.234c0.021,-0.054 0.122,-0.047 0.143,-0.101Z" style="fill:#f3f4f1;fill-opacity:0.99;"/><path d="M19.502,20.009l0.112,-0.051c0.235,0.708 -0.477,0.509 -0.52,0.801c-0.003,0.023 0.014,0.016 0.193,0.217c-0.871,0.225 -1.001,0.368 -0.992,0.155c0.013,-0.275 0.082,-0.246 0.57,-0.887c0.062,0.02 0.057,0.135 0.12,0.155c0.127,0.041 0.445,-0.31 0.517,-0.39Z" style="fill:#cbe0e7;fill-opacity:0.99;"/><path d="M22.615,14.421l-0.08,0.216c-0.093,-0.019 -0.315,-0.064 -1.184,-0.048l-0.009,-0.058c0.048,-0.054 0.177,-0.201 0.892,-0.151c0.378,0.027 0.127,-1.832 0.24,-1.955c0.108,-0.118 0.353,0.013 0.141,1.996Z" style="fill:#bcced6;fill-opacity:0.99;"/><path d="M19.962,19.645c0.069,0.039 0.682,0.39 -0.031,0.987c-0.045,0.038 -0.048,0.025 -0.644,0.344c-0.179,-0.201 -0.196,-0.194 -0.193,-0.217c0.043,-0.292 0.755,-0.093 0.52,-0.801c0.149,-0.187 0.159,-0.163 0.348,-0.313Z" style="fill:#d5e8ed;fill-opacity:1;"/><path d="M9.118,14.792c0.106,0.053 0.089,0.062 0.31,0.308c-0.04,0.238 -0.037,0.238 -0.043,0.257c-0.022,0.068 -0.055,0.038 -0.078,0.11c-0.336,0.002 -0.332,-0.002 -0.386,0.008c-0.5,-0.087 -0.492,-0.062 -1.044,0.097c0.019,-0.208 0.009,-0.2 -0.101,-0.388c0.068,-0.009 0.152,-0.02 0.852,-0.012c0.188,0.016 0.188,0.031 0.188,0.016c0.001,-0.075 -0.084,-0.023 -0.083,-0.098c-0.066,-0.059 -0.132,-0.119 -0.197,-0.178c0.258,-0.209 0.278,-0.248 0.582,-0.119Z" style="fill:#ccecf8;fill-opacity:1;"/><path d="M1.726,16.241c0.188,0.695 0.163,1.03 1.352,0.864c0.297,0.452 0.093,0.551 0.023,0.668c-0.314,-0.079 -0.301,-0.097 -0.549,-0.313c-0.221,-0.193 -0.237,0.041 -0.268,0.059c-0.443,-0.396 -0.492,-0.355 -0.713,-0.918c-0.041,-0.217 0.006,-0.207 0.154,-0.36Z" style="fill:#a5c1cf;fill-opacity:0.99;"/><path d="M16.68,15.112c0.053,0.676 -0.445,0.353 -0.856,0.879c-0.155,0.065 -0.31,0.13 -0.464,0.195c-0.259,-0.645 0.11,-0.538 0.259,-0.628c0.02,-0.012 0.015,-0.015 0.204,-0.201c0.102,-0.014 0.254,0.06 0.492,-0.137c0.169,-0.102 0.163,-0.084 0.365,-0.108Z" style="fill:#e4cba9;fill-opacity:0.99;"/><path d="M16.68,15.112c0.508,-0.059 0.472,0.101 0.679,0.565c-0.631,0.254 -0.796,0.149 -0.957,0.47c-0.098,-0.009 -0.195,-0.019 -0.293,-0.028c-0.129,-0.161 -0.153,-0.121 -0.191,-0.135l-0.095,0.007c0.411,-0.526 0.909,-0.202 0.856,-0.879Z" style="fill:#ebd3b2;fill-opacity:0.99;"/><path d="M22.907,11.243c-0.254,0.045 -0.247,-0.031 -0.291,-0.273c-0.259,-1.434 0.011,-1.491 0.103,-1.423c0.113,0.083 0.349,1.361 0.363,1.416c0.057,0.214 -0.146,0.26 -0.175,0.28Z" style="fill:#bbe6f4;fill-opacity:1;"/><path d="M16.576,16.619c0.54,-1.172 1.511,-0.325 1.081,-0.073c-0.69,0.403 -0.896,0.257 -1.072,0.284c-0.003,-0.07 -0.006,-0.14 -0.009,-0.21Z" style="fill:#f3dfc3;fill-opacity:0.99;"/><path d="M11.504,16.913c0.251,0.087 0.235,0.086 0.466,0.216c0.065,0.058 0.13,0.115 0.195,0.173c0.021,0.04 0.026,0.023 0.304,0.474c-0.341,0.034 -0.33,0.01 -0.662,-0.044c-0.444,-0.236 -0.543,-0.062 -0.867,-0.441c0.162,-0.155 0.167,-0.182 0.381,-0.119c0.155,-0.073 0.159,-0.075 0.183,-0.258Z" style="fill:#e8e4d4;fill-opacity:1;"/><path d="M17.244,4.825c0.134,0.06 0.125,0.079 0.268,0.059c0.345,0.536 0.509,0.404 0.55,0.37c0.047,-0.038 0.188,-0.424 0.202,-0.462c0.052,0.011 0.104,0.021 0.155,0.032c0.088,0.056 0.09,0.035 0.177,-0.013c0.242,0.026 0.346,0.276 -0.154,0.452c-0.374,0.224 -0.273,0.342 -0.652,0.559c-0.09,-0.204 -0.029,-0.218 -0.152,-0.406c-0.165,-0.265 -0.197,-0.329 -0.473,-0.197c-0.011,-0.019 -0.26,-0.043 0.079,-0.394Z" style="fill:#f4ca80;fill-opacity:0.66;"/><path d="M14.16,15.882c0.061,0.045 -0.021,0.192 0.315,0.229c0.757,0.081 0.754,0.099 0.885,0.075c0.155,-0.065 0.31,-0.13 0.464,-0.195l0.095,-0.007c-0.181,0.302 -0.183,0.298 -0.197,0.34c-0.132,0.04 -0.299,0.09 -1.719,0.122c-0.302,0.007 -0.284,-0.031 -0.568,-0.155c0.389,-0.378 0.532,-0.096 0.564,-0.108c0.008,-0.003 -0.013,-0.012 0.037,-0.104c0.009,-0.016 0.009,-0.015 0.126,-0.196Z" style="fill:#eedec7;fill-opacity:1;"/><path d="M18.793,12.597c0.605,0.957 0.467,1.143 1.701,1.661c0.01,0.122 -0.002,0.113 -0.072,0.219c-1.053,-0.405 -1.39,-0.69 -1.786,-1.826c0.052,-0.018 0.105,-0.036 0.157,-0.054Z" style="fill:#b7c7d0;fill-opacity:1;"/><path d="M9.943,16.523c0.125,-0.073 -0.078,-0.173 0.05,-0.247c0.032,-0.019 0.03,-0.017 0.465,-0.053c0.425,-0.035 0.54,0.264 0.558,0.312c-0.085,0.238 -0.102,0.221 -0.092,0.474c-0.195,-0.042 -0.183,-0.057 -0.369,-0.025c-0.274,-0.283 -0.37,-0.154 -0.612,-0.461Z" style="fill:#e0edeb;fill-opacity:1;"/><path d="M6.324,19.002c0.389,0.692 0.409,0.801 1.205,0.783c0.031,0.127 0.063,0.255 0.094,0.382c-0.078,0.035 -0.155,0.069 -0.233,0.104c-0.035,-0.076 -0.024,-0.168 -0.06,-0.244c-0.019,-0.04 -0.031,-0.016 -0.325,0.041c-0.621,0.122 -0.454,-0.431 -0.898,-0.884c0.101,-0.099 0.092,-0.094 0.216,-0.182Z" style="fill:#dbe4e6;fill-opacity:1;"/><path d="M8.921,15.475c0.021,0.084 0.041,0.168 0.062,0.252c-0.121,0.063 -0.192,0.1 -1.687,0.198l-0.013,-0.051l0.107,-0.206c0.065,0.003 0.129,0.007 0.194,0.01c0.154,0.002 0.189,0.065 0.293,-0.106c0.552,-0.159 0.544,-0.184 1.044,-0.097Z" style="fill:#e6f3f7;fill-opacity:1;"/><path d="M17.976,20.936c-0.213,0.858 -0.513,0.796 -1.188,1.088c0.049,-0.237 0.097,-0.475 0.146,-0.712c0.571,0.164 0.55,-0.031 1.042,-0.376Z" style="fill:#dee7e9;fill-opacity:0.99;"/><path d="M19.046,7.461c0.12,0.029 0.24,0.057 0.359,0.086c0.066,0.594 0.044,0.586 0.257,1.158c-0.165,0.037 -0.33,0.074 -0.496,0.112c-0.113,-0.932 -0.119,-1.247 -0.121,-1.355Z" style="fill:#c4d6dd;fill-opacity:0.99;"/><path d="M22.096,16.689c-0.411,-0.91 0.505,-1.046 0.639,-0.452c0.048,0.211 -0.192,0.433 -0.222,0.461c-0.18,0.167 -0.203,0.108 -0.417,-0.009Z" style="fill:#f5f6f6;fill-opacity:0.99;"/><path d="M14.002,17.386c0.148,0.01 0.136,0.014 0.282,-0.011c0.242,0.114 0.308,0.081 0.28,0.208c-0.032,0.143 -0.063,0.135 -0.017,0.282c-0.002,0.066 -0.016,0.613 -0.762,0.332c0.008,-0.015 0.122,-0.054 0.113,-0.415c-0.03,-0.026 -0.06,-0.052 -0.089,-0.078c0.133,-0.338 0.192,-0.316 0.193,-0.317Z" style="fill:#f6e7d1;fill-opacity:1;"/><path d="M16.301,13.024c0.187,0.221 0.174,0.214 0.201,0.226c-0.009,0.117 -0.029,0.641 -0.284,0.392c-0.245,-0.238 -0.278,-0.138 -0.494,-0.069c-0.267,-0.047 -0.235,-0.097 -0.399,-0.317c0.384,-0.281 0.418,-0.177 0.977,-0.232Z" style="fill:#faebd6;fill-opacity:0.99;"/><path d="M17.923,7.358l0.206,0.004c0.234,0.968 0.322,1.209 0.359,1.311l-0.032,0.108c-0.221,-0.01 -0.223,0.011 -0.4,-0.117c-0.122,-0.655 -0.143,-0.641 -0.133,-1.307Z" style="fill:#cddce1;fill-opacity:0.99;"/><path d="M7.258,14.955c0.223,0.168 0.235,0.331 0.435,0.137l0.084,0.091c0.11,0.188 0.12,0.18 0.101,0.388c-0.104,0.171 -0.139,0.108 -0.293,0.106c0.102,-0.094 0.182,-0.092 0.087,-0.201c-0.275,-0.318 -0.372,-0.309 -0.664,-0.006c-0.188,0.159 -0.135,0.181 -0.237,0.417c-0.15,-0.082 -0.131,-0.092 -0.205,-0.254c-0.012,-0.054 -0.025,-0.109 -0.037,-0.163c0.044,-0.056 0.303,-0.387 0.728,-0.517Z" style="fill:#cdeaf6;fill-opacity:1;"/><path d="M4.793,7.556l0.023,0.043l0.002,0.105c0.02,0.298 -0.008,0.293 0.094,0.571c-0.096,0 -0.191,0.001 -0.287,0.001c-0.401,-0.258 -0.419,-0.219 -0.742,-0.583l0.022,-0.093c0.451,-0.037 0.442,-0.05 0.887,-0.045Z" style="fill:#d9e5e8;fill-opacity:1;"/><path d="M17.187,20.663l0.027,-0.059c0.215,0.079 0.2,0.115 0.434,0.117c0.066,0.001 0.132,0.003 0.198,0.004c0.103,0.088 0.086,0.085 0.128,0.211c-0.492,0.345 -0.47,0.541 -1.042,0.376c0.235,-0.609 0.235,-0.597 0.253,-0.649Z" style="fill:#f5f6f5;fill-opacity:0.99;"/><path d="M17.922,4.127c0.02,0.045 0.176,0.517 0.342,0.666c-0.014,0.038 -0.155,0.424 -0.202,0.462c-0.041,0.033 -0.205,0.166 -0.55,-0.37c0.039,-0.085 0.078,-0.17 0.117,-0.256c0.223,-0.205 0.087,-0.289 0.293,-0.502Z" style="fill:#fae2ac;fill-opacity:0.93;"/><path d="M8.542,14.44c-0.124,0.251 -0.207,0.151 -0.42,0.327c-0.086,0.095 -0.025,0.095 0.038,0.201c0.029,-0.007 0.202,-0.05 0.375,-0.057c0.066,0.059 0.132,0.119 0.197,0.178l-0.105,0.083c-0.7,-0.008 -0.784,0.004 -0.852,0.012l-0.084,-0.091l0.029,-0.091c0.022,-0.037 0.043,-0.074 0.065,-0.111c-0.036,-0.057 -0.072,-0.113 -0.108,-0.17c0.409,-0.255 0.385,-0.406 0.863,-0.281Z" style="fill:#daf1f7;fill-opacity:1;"/><path d="M7.863,7.357c0.068,-0.003 0.137,-0.007 0.205,-0.01c-0.093,0.143 0.196,1.315 0.492,1.779c-0.239,0.115 -0.241,0.098 -0.505,0.073c0.24,-0.423 -0.316,-1.422 -0.192,-1.842Z" style="fill:#cbdae0;fill-opacity:1;"/><path d="M6.108,19.184c0.443,0.453 0.276,1.006 0.898,0.884c0.294,-0.058 0.306,-0.081 0.325,-0.041c0.035,0.076 0.024,0.168 0.06,0.244c-0.445,0.037 -0.442,0.038 -0.481,0.04c-0.596,0.028 -1.027,-0.686 -0.801,-1.127Z" style="fill:#e3ebed;fill-opacity:1;"/><path d="M12.063,2.903c0.218,-0.308 0.194,-0.347 0.302,-0.34c0.057,0.003 0.037,0.019 0.244,0.719c-0.032,0.049 -0.124,0.033 -0.155,0.082c-0.011,0.017 0.161,0.482 0.241,0.61c0.039,0.062 0.121,0.104 0.129,0.177c0.006,0.058 -0.101,0.089 -0.095,0.147c-0.391,-0.485 -0.418,-0.478 -0.512,-1.097c-0.027,-0.175 -0.048,-0.16 -0.155,-0.298Z" style="fill:#d1f4fc;fill-opacity:1;"/><path d="M9.004,12.878c0.089,0.161 0.07,0.171 0.221,0.281c-0.061,0.158 -0.089,0.149 -0.03,0.307c-0.019,0.024 0.079,0.048 0.06,0.072c-0.08,0.101 -0.121,0.023 -0.211,0.119c-0.068,0.073 0.007,0.099 -0.058,0.169l-0.159,-0.268c0.178,-0.388 -0.041,-0.36 -0.457,-0.487c-0.001,-0.053 -0.01,-0.695 0.634,-0.193Z" style="fill:#ecf8f8;fill-opacity:1;"/><path d="M16.522,3.284c0.064,0.031 0.128,0.063 0.192,0.094c-0.096,0.197 -0.103,0.193 -0.104,0.212c-0.002,0.047 0.109,0.044 0.109,0.091c-0,0.035 -0.038,0.006 -0.312,0.299c-0.214,0.229 -0.257,0.089 -0.438,-0.16c-0.1,-0.137 0.199,-0.611 0.353,-0.556c0.049,0.018 0.072,0.091 0.124,0.096c0.036,0.004 0.041,-0.08 0.077,-0.076Z" style="fill:#fbf5db;fill-opacity:0.99;"/><path d="M16.585,17.674c0.275,0.021 0.27,0.036 0.294,0.032c-0.19,0.258 -0.191,0.257 -0.184,0.577c-0.599,0.036 -0.587,-0.04 -0.966,-0.299c0.436,-0.156 0.421,-0.149 0.856,-0.309Z" style="fill:#f6f1e8;fill-opacity:0.99;"/><path d="M12.993,14.296c0.043,0.01 0.246,0.056 0.547,0.075l0.007,0.138c0.006,0.089 0.012,0.177 0.018,0.266c0.058,0.243 0.066,0.233 0.067,0.336c-0.09,0.04 -0.181,0.079 -0.271,0.119c-0.075,-0.04 -0.15,-0.081 -0.224,-0.121c-0.004,-0.386 -0.123,-0.75 -0.144,-0.813Z" style="fill:#dce8e5;fill-opacity:1;"/><path d="M16.684,13.276l0.095,0.008c0.244,0.068 0.223,0.091 0.443,0.219c0.316,0.265 0.302,0.257 0.621,0.516c-0.277,0.143 -0.636,0.073 -0.762,0.044c0.042,-0.471 -0.231,-0.359 -0.398,-0.787Z" style="fill:#f8e7ce;fill-opacity:0.99;"/><path d="M6.918,17.079c0.436,0.201 0.454,0.115 1.421,0.23c0.036,0.092 0.073,0.184 0.109,0.276l-0.09,0.009c-0.164,-0.099 -0.18,-0.042 -0.333,-0.142c-0.096,0.018 -0.6,0.111 -1.207,-0.184c-0.135,-0.066 -0.014,-0.083 0.1,-0.19Z" style="fill:#cddae0;fill-opacity:1;"/><path d="M2.98,15.718l0.112,0.009c0.136,0.229 0.111,0.502 0.113,0.513c-0.409,-0.072 -0.418,-0.095 -0.788,0.09c-0.029,-0.273 -0.022,-0.261 -0.119,-0.513c0.227,-0.033 0.455,-0.066 0.682,-0.1Z" style="fill:#f1f3f2;fill-opacity:1;"/><path d="M7.718,20.412l0.146,0.333c-0.216,0.259 -0.228,0.238 -0.567,0.295c-0.028,-0.039 -0.056,-0.078 -0.084,-0.117c-0.105,-0.099 -0.21,-0.198 -0.316,-0.297c0.367,-0.223 0.402,-0.093 0.821,-0.214Z" style="fill:#eaeff0;fill-opacity:0.99;"/><path d="M16.686,11.053l0.059,0.103c-0.028,0.027 0.069,0.083 0.041,0.11c-0.036,0.035 -1.308,0.242 -1.545,0.21c-1.181,-0.159 0.287,-0.181 1.445,-0.423Z" style="fill:#a5bac5;fill-opacity:1;"/><path d="M2.693,15.242c-0.091,0.044 -0.087,0.201 -0.178,0.246c-0.229,0.111 -0.256,-0.033 -0.775,0.137c-0.339,0.135 -0.335,0.117 -0.459,0.204c-0.045,-0.064 -0.089,-0.127 -0.134,-0.191c0.412,-0.365 0.458,-0.286 1.547,-0.396Z" style="fill:#7d9db1;fill-opacity:1;"/><path d="M16.755,7.818c0.117,0.193 0.147,0.166 0.224,0.371c0.155,0.412 0.03,0.596 0.473,0.612c0.105,0.004 0.088,0.029 0.184,0.06c-0.258,0.282 -0.937,0.417 -0.881,-1.043Z" style="fill:#e0e8e9;fill-opacity:0.99;"/><path d="M7.34,11.069c0.508,-0.069 0.493,0.017 1.005,0.114c2.582,0.489 -0.529,0.145 -0.575,0.137c-0.142,-0.025 -0.284,-0.05 -0.427,-0.075c-0.001,-0.059 -0.002,-0.117 -0.003,-0.176Z" style="fill:#b7c9d3;fill-opacity:1;"/><path d="M21.123,11.352c-0.04,-0.599 -0.302,-0.806 0.278,-0.973c0.102,-0.029 0.031,1.17 -0.02,1.165c-0.011,-0.001 0.031,-0.04 -0.098,-0.089c-0.095,-0.036 -0.073,-0.047 -0.16,-0.103Z" style="fill:#d8f9fc;fill-opacity:0.99;"/><path d="M4.793,7.556c0.2,-0.045 0.184,-0.045 0.2,-0.045c0.076,-0.003 0.053,0.047 0.127,0.044c0.098,0.479 0.003,0.508 0.287,0.898c-0.183,0.129 -0.17,0.141 -0.183,0.129c-0.252,-0.228 -0.213,-0.255 -0.237,-0.27c-0.023,-0.015 -0.051,-0.021 -0.074,-0.035c-0.102,-0.279 -0.074,-0.273 -0.094,-0.571c-0.001,-0.035 -0.001,-0.07 -0.002,-0.105l-0.023,-0.043Z" style="fill:#c5d7de;fill-opacity:0.99;"/><path d="M6.039,10.777c-0.074,-0.6 -0.144,-0.649 -0.75,-0.706c-0.222,-0.021 -0.174,-0.264 0.085,-0.219c0.072,0.013 1.016,0.175 0.825,0.405c-0.189,0.228 0.091,0.357 -0.161,0.521Z" style="fill:#ccd4d9;fill-opacity:1;"/><path d="M10.553,12.769c0.315,0.019 0.391,-0.238 1.253,0.072c-0.75,0.569 -1.122,0.019 -1.253,-0.072Z" style="fill:#e9f7f9;fill-opacity:0.99;"/><path d="M1.739,15.625c0.002,0.044 0.144,0.099 0.012,0.33c-0.008,0.013 -0.046,0.081 -0.042,0.186c0.001,0.034 0.015,0.067 0.016,0.101c-0.148,0.153 -0.195,0.142 -0.154,0.36c-0.365,-0.191 -0.281,-0.265 -0.339,-0.333c0.199,-0.16 0.114,-0.193 0.047,-0.44c0.124,-0.087 0.12,-0.069 0.459,-0.204Z" style="fill:#99b5c5;fill-opacity:0.99;"/><path d="M13.809,17.703l0.089,0.078c0.009,0.361 -0.106,0.4 -0.113,0.415c-0.158,-0.033 -0.159,-0.019 -0.173,-0.024c-0.098,-0.213 -0.152,-0.123 -0.377,-0.158c-0.205,0.041 -0.191,0.038 -0.387,0.054c-0.027,-0.04 -0.054,-0.081 -0.081,-0.121l-0.023,-0.05c0.486,-0.145 0.978,-0.186 1.065,-0.194Z" style="fill:#f7eddd;fill-opacity:1;"/><path d="M2.238,13.456c0.143,0.391 0.202,0.521 0.222,0.565c0.389,0.855 -0.425,0.352 -0.464,0.328c0.237,-0.367 0.044,-0.659 0.084,-0.794c0.018,-0.06 0.141,-0.04 0.158,-0.1Z" style="fill:#dce4e7;fill-opacity:1;"/><path d="M3.205,16.24l-0.022,0.192c-0.036,-0.005 -0.405,-0.052 -0.447,0.094c-0.068,0.236 -0.071,0.222 -0.233,0.396c-0.175,-0.075 -0.177,-0.052 -0.325,-0.171c0.084,-0.036 0.167,-0.072 0.251,-0.109c0.036,-0.118 0.063,-0.115 0.012,-0.228l-0.024,-0.084c0.371,-0.185 0.379,-0.162 0.788,-0.09Z" style="fill:#e5eaeb;fill-opacity:1;"/><path d="M16.879,17.705c0.56,-0.033 0.57,0.01 0.66,0.143c-0.266,0.153 -0.255,0.148 -0.456,0.392c-0.359,0.039 -0.358,0.033 -0.388,0.042c-0.007,-0.32 -0.006,-0.319 0.184,-0.577Z" style="fill:#eff2ef;fill-opacity:0.99;"/><path d="M14.002,17.386c-0.001,0.001 -0.06,-0.021 -0.193,0.317c-0.086,0.007 -0.579,0.049 -1.065,0.194c-0.035,-0.026 -0.07,-0.052 -0.105,-0.078c0.188,-0.127 0.179,-0.13 0.402,-0.168c0.538,-0.091 0.504,-0.567 0.961,-0.265Z" style="fill:#f1e2cc;fill-opacity:1;"/><path d="M5.439,12.893c0.095,0.064 0.089,0.065 0.206,0.065c-0.273,0.496 -0.419,0.899 -0.848,0.998l-0.071,-0.105c0.663,-0.763 0.689,-0.865 0.713,-0.958Z" style="fill:#b5c5cd;fill-opacity:0.99;"/><path d="M18.793,15.578c-0.035,0.257 -0.067,0.237 -0.195,0.46c-0.257,0.054 -0.255,0.06 -0.277,0.059c-1.369,-0.065 0.418,-0.505 0.473,-0.519Z" style="fill:#f6e4ca;fill-opacity:0.99;"/><path d="M13.15,16.267c-0.038,0.438 -0.08,0.422 -0.125,0.866c-0.227,-0.029 -0.339,-0.015 -0.25,-0.221c0.107,-0.248 -0.227,-0.334 -0.207,-0.386c0.01,-0.025 0.022,-0.013 0.293,-0.177c0.05,-0.016 0.047,0.015 0.099,-0.002c0.016,-0.005 0,0 0.19,-0.08Z" style="fill:#e3d3b9;fill-opacity:1;"/><path d="M9.195,13.466c0.194,0.079 0.169,0.095 0.382,0.276c-0.134,0.109 -0.333,0.447 -0.655,0.484c0.005,-0.206 -0.033,-0.202 0.064,-0.399c0.065,-0.07 -0.011,-0.095 0.058,-0.169c0.09,-0.097 0.131,-0.019 0.211,-0.119c0.019,-0.024 -0.079,-0.048 -0.06,-0.072Z" style="fill:#e9f7f8;fill-opacity:1;"/><path d="M11.796,14.624c0.177,0.048 0.188,0.022 0.291,0.178l-0.068,0.135c-0.188,0.021 -0.522,0.122 -0.702,-0.019c-0.362,-0.282 0.13,-0.186 0.479,-0.294Z" style="fill:#c9e9f4;fill-opacity:1;"/><path d="M7.301,13.653c0.051,0.07 -0.003,0.108 0.09,0.123c0.04,0.006 0.024,-0.012 0.075,-0.005c0.216,0.031 0.203,0.011 0.426,0.033c0.242,0.023 -0.058,0.542 -0.812,0.215c0.074,-0.122 0.147,-0.243 0.221,-0.365Z" style="fill:#eef3f2;fill-opacity:0.99;"/><path d="M12.609,3.281c0.193,0.458 0.161,0.463 0.462,0.952c-0.151,0.101 -0.156,0.191 -0.342,0.064c-0.006,-0.058 0.101,-0.089 0.095,-0.147c-0.008,-0.073 -0.09,-0.115 -0.129,-0.177c-0.08,-0.128 -0.252,-0.593 -0.241,-0.61c0.032,-0.049 0.124,-0.033 0.155,-0.082Z" style="fill:#beeaf8;fill-opacity:0.99;"/><path d="M2.298,15.818c0.096,0.251 0.089,0.239 0.119,0.513l0.024,0.084l-0.012,0.228c-0.084,0.036 -0.167,0.072 -0.251,0.109c-0.03,-0.037 -0.059,-0.073 -0.089,-0.11c0.157,-0.345 0.138,-0.352 0.009,-0.718c0.099,-0.073 0.094,-0.063 0.201,-0.105Z" style="fill:#d5e0e4;fill-opacity:1;"/><path d="M2.284,17.519c0.031,-0.018 0.046,-0.252 0.268,-0.059c0.247,0.216 0.235,0.233 0.549,0.313c-0.085,0.554 -0.781,-0.226 -0.816,-0.254Z" style="fill:#b1cbd7;fill-opacity:1;"/><path d="M4.033,20.65c0.265,0.315 0.299,0.26 0.584,0.547c-0.414,0.025 -0.436,0.135 -0.771,-0.1c0.138,-0.063 0.117,-0.075 0.147,-0.236c0.013,-0.07 0.027,-0.14 0.04,-0.211Z" style="fill:#c4cdd3;fill-opacity:0.14;"/><path d="M9.886,11.593c-0.403,-0.052 -0.462,0.034 -0.539,-0.151c-0.135,-0.319 1.511,0.024 0.539,0.151Z" style="fill:#9fb7c2;fill-opacity:1;"/><path d="M10,13.392c0.266,-0.323 0.325,-0.194 0.558,-0.174c0.184,0.016 0.085,0.092 0.07,0.276c-0.163,0.051 -0.253,0.224 -0.628,-0.101Z" style="fill:#dbf1f8;fill-opacity:1;"/><path d="M11.675,11.472c-0.032,0.059 -0.149,0.277 -0.829,0.151c-0.214,-0.04 0.151,-0.444 0.829,-0.151Z" style="fill:#a3b7c2;fill-opacity:1;"/><path d="M19.379,15.7c0.141,-0.059 0.132,-0.05 0.284,-0.066c0.034,0.044 0.068,0.089 0.101,0.133c-0.485,0.346 -0.895,0.281 -0.975,0.269c0.267,-0.23 0.286,-0.171 0.589,-0.336Z" style="fill:#eceeeb;fill-opacity:0.99;"/><path d="M4.726,13.851l0.071,0.105c-0.394,0.224 -0.354,0.261 -0.76,0.475c-0.051,-0.05 -0.038,-0.051 -0.09,-0.195c0.682,-0.359 0.673,-0.374 0.779,-0.384Z" style="fill:#cdd8dc;fill-opacity:1;"/><path d="M3.183,16.432c-0.199,0.42 -0.216,0.469 -0.681,0.49c0.163,-0.174 0.165,-0.16 0.233,-0.396c0.042,-0.145 0.411,-0.098 0.447,-0.094Z" style="fill:#eef0f0;fill-opacity:1;"/><path d="M9.943,16.523c0.242,0.307 0.338,0.178 0.612,0.461l-0.097,0.037c-0.338,-0.018 -0.363,0.029 -0.69,-0.257c0.058,-0.08 0.117,-0.161 0.175,-0.241Z" style="fill:#e0f0f2;fill-opacity:0.99;"/><path d="M18.793,15.578c0.314,-0.032 0.322,-0.06 0.587,0.122c-0.304,0.165 -0.323,0.106 -0.589,0.336c-0.064,0.001 -0.128,0.002 -0.193,0.003c0.129,-0.223 0.161,-0.204 0.195,-0.46Z" style="fill:#f7f2e9;fill-opacity:0.99;"/><path d="M18.442,5.264c-0.16,0.245 -0.154,0.956 -0.652,0.559c0.379,-0.217 0.278,-0.335 0.652,-0.559Z" style="fill:#ccb796;fill-opacity:0.06;"/><path d="M23.23,16.05c-0.089,0.324 -0.024,0.343 -0.27,0.703c-0.017,-0.062 -0.138,-0.054 -0.155,-0.116c-0.013,-0.049 0.066,-0.078 0.089,-0.123c0.086,-0.167 0.133,-0.526 0.141,-0.538c0.086,-0.131 0.114,-0.054 0.195,0.074Z" style="fill:#b6ccd7;fill-opacity:0.99;"/><path d="M7.008,15.472c0.291,-0.303 0.389,-0.312 0.664,0.006c0.094,0.109 0.015,0.107 -0.087,0.201c-0.065,-0.003 -0.129,-0.007 -0.194,-0.01c-0.173,-0.153 -0.178,-0.12 -0.383,-0.197Z" style="fill:#c0e7f7;fill-opacity:1;"/><path d="M11.016,16.535c0.122,0.134 0.119,0.123 0.287,0.174c-0.04,0.159 -0.077,0.142 -0.074,0.297c0.002,0.101 0.042,0.076 0.092,0.166c-0.214,-0.063 -0.22,-0.036 -0.381,0.119c0.001,-0.023 -0.008,-0.015 -0.015,-0.281c-0.011,-0.253 0.007,-0.237 0.092,-0.474Z" style="fill:#dfe7df;fill-opacity:0.99;"/><path d="M6.529,15.472c0.012,0.054 0.025,0.109 0.037,0.163c-0.032,0.009 -0.285,0.193 -0.903,0.218c-0.032,-0.056 -0.065,-0.113 -0.097,-0.169c0.716,-0.12 0.722,-0.081 0.963,-0.212Z" style="fill:#ecf2f2;fill-opacity:1;"/><path d="M12.758,11.393c0.287,0.01 0.457,-0.12 0.403,0.162c-0.039,0.205 -1.44,-0.044 -0.403,-0.162Z" style="fill:#a0b6c1;fill-opacity:1;"/><path d="M8.37,13.071c0.417,0.127 0.636,0.099 0.457,0.487c-0.014,-0.009 -0.175,-0.117 -0.175,-0.117c-0.248,-0.077 -0.21,-0.123 -0.283,-0.37Z" style="fill:#f0f9f8;fill-opacity:1;"/><path d="M14.195,11.355c0.031,-0 0.568,-0.006 0.358,0.149c-0.05,0.037 -0.411,0.088 -0.656,0.066c-0.55,-0.051 0.269,-0.209 0.298,-0.214Z" style="fill:#a3b4be;fill-opacity:1;"/><path d="M7.679,14.721c0.036,0.057 0.072,0.113 0.108,0.17l-0.065,0.111l-0.029,0.091c-0.2,0.194 -0.212,0.031 -0.435,-0.137c0.166,-0.198 0.177,-0.169 0.422,-0.234Z" style="fill:#c3e7f6;fill-opacity:0.99;"/><path d="M18.29,11.57c-0.338,-0.593 -0.019,-0.795 0.039,-0.61c0.014,0.046 -0.009,0.049 0.154,0.582c-0.064,0.009 -0.129,0.019 -0.193,0.028Z" style="fill:#b2c3cb;fill-opacity:0.99;"/><path d="M19.962,19.645c-0.188,0.15 -0.198,0.126 -0.348,0.313l-0.112,0.051c0,-0.056 -0.106,-0.073 -0.106,-0.129c0,-0.213 0.229,-0.391 0.26,-0.415c0.125,-0.097 0.291,0.156 0.306,0.18Z" style="fill:#b4d0dc;fill-opacity:1;"/><path d="M23.81,14.994c0.428,0.683 -0.045,0.845 -0.111,0.867c0.036,-0.447 0.038,-0.434 0.111,-0.867Z" style="fill:#bbc8ce;fill-opacity:0.05;"/><path d="M17.198,3.652c0.037,0.053 0.268,0.389 -0.64,0.496c0.166,-0.39 0.274,-0.28 0.64,-0.496Z" style="fill:#e6c490;fill-opacity:0.05;"/><path d="M13.232,19.951c-0.118,0.19 -0.076,0.201 -0.086,0.217c-0.052,0.081 -0.062,0.025 -0.201,-0.061c-0.086,-0.054 -0.091,0.029 -0.19,-0.008c-0.41,-0.151 0.047,-0.307 0.477,-0.148Z" style="fill:#faf8f3;fill-opacity:1;"/><path d="M4.224,16.439c0.205,-0.074 0.317,-0.22 0.51,0.209c-0.099,0.098 -0.091,0.093 -0.208,0.181c-0.193,-0.177 -0.171,-0.176 -0.302,-0.391Z" style="fill:#ebefef;fill-opacity:1;"/><path d="M20.106,20.996c0.299,0.137 0.321,0.042 0.608,0.188c-0.449,0.245 -0.556,0.391 -0.83,-0.033c0.21,-0.154 0.205,-0.142 0.222,-0.155Z" style="fill:#c6cfd3;fill-opacity:0.13;"/><path d="M18.315,10.114c0.06,-0.022 0.676,-0.245 0.78,-0.156c0.047,0.04 0.04,0.105 -0.693,0.332c-0.022,-0.042 0.021,-0.043 -0.004,-0.09c-0.004,-0.008 -0,0 -0.083,-0.086Z" style="fill:#dee2e2;fill-opacity:0.99;"/><path d="M4.899,16.814c0.028,0.024 0.324,0.286 0.341,0.313c0.017,0.028 0.041,0.068 -0.279,0.298c-0.207,-0.263 -0.176,-0.288 -0.062,-0.612Z" style="fill:#f0f2f2;fill-opacity:0.99;"/><path d="M13.491,15.79c0.025,-0.032 -0.037,-0.09 -0.012,-0.122c0.212,-0.272 0.283,-0.155 0.536,0.072c-0.109,0.079 -0.101,0.281 -0.524,0.05Z" style="fill:#e3d3b8;fill-opacity:1;"/><path d="M6.024,11.846c-0.006,0.753 -0.299,0.595 -0.32,0.549c-0.021,-0.046 -0.261,-0.56 0.32,-0.549Z" style="fill:#9cb4bf;fill-opacity:0.99;"/><path d="M9.881,20.498c0.276,0.151 0.532,-0.01 0.42,0.284c-0.037,0.097 -0.851,0.055 -0.501,-0.277c0.02,-0.019 0.061,0.012 0.081,-0.006Z" style="fill:#e7eceb;fill-opacity:0.99;"/><path d="M1.055,15.676l0.091,-0.038c0.045,0.064 0.089,0.127 0.134,0.191c0.067,0.246 0.152,0.279 -0.047,0.44c-0.091,-0.157 -0.205,-0.165 -0.178,-0.592Z" style="fill:#abc3d0;fill-opacity:0.99;"/><path d="M3.556,17.86c0.057,-0.015 0.112,-0.122 0.269,0.025c0.357,0.334 0.095,0.471 0.095,0.475c-0.242,-0.208 -0.205,-0.223 -0.365,-0.5Z" style="fill:#a3c3d3;fill-opacity:1;"/><path d="M6.124,10.906c0.242,0.48 -0.226,0.827 -0.228,0.543c-0.004,-0.434 0.186,-0.523 0.228,-0.543Z" style="fill:#aabec8;fill-opacity:0.99;"/><path d="M22.615,14.421c0.338,0.038 0.337,0.032 0.365,0.041c0.895,0.277 -0.407,0.178 -0.445,0.175l0.08,-0.216Z" style="fill:#d7dfe2;fill-opacity:1;"/><path d="M20.902,21.183c0.171,0.007 0.256,-0.072 0.771,0.092c-0.565,0.374 -0.735,-0.075 -0.771,-0.092Z" style="fill:#c8cacc;fill-opacity:0.07;"/><path d="M11.97,17.129c0.048,-0.666 0.497,-0.055 0.37,0.064c-0.012,0.011 0,0 -0.175,0.109c-0.065,-0.058 -0.13,-0.115 -0.195,-0.173Z" style="fill:#e0ddcb;fill-opacity:1;"/><path d="M9.118,14.792c0.334,-0.146 0.467,-0.179 0.508,0.187c-0.066,0.04 -0.132,0.081 -0.197,0.121c-0.222,-0.247 -0.205,-0.255 -0.31,-0.308Z" style="fill:#d1eef8;fill-opacity:1;"/><path d="M23.587,16.144c0.023,0.06 0.047,0.119 0.07,0.179c-0.144,0.312 -0.008,0.456 -0.35,0.501c0.113,-0.35 0.143,-0.327 0.28,-0.68Z" style="fill:#b6c2c9;fill-opacity:0.06;"/><path d="M3.37,6.377c0.167,0.211 0.171,0.207 0.187,0.25c-0.198,0.001 -0.395,0.003 -0.593,0.004c0.14,-0.114 0.135,-0.097 0.3,-0.179l0.107,-0.075Z" style="fill:#c1cbd1;fill-opacity:0.04;"/><path d="M2.097,15.923c0.129,0.366 0.148,0.373 -0.009,0.718c-0.117,-0.247 -0.224,-0.392 0.009,-0.718Z" style="fill:#e3e8ea;fill-opacity:1;"/><path d="M18.793,12.597c-0.052,0.018 -0.105,0.036 -0.157,0.054c-0.022,-0.03 -0.262,-0.36 -0.182,-0.43c0.214,-0.187 0.33,0.336 0.339,0.376Z" style="fill:#aebfc8;fill-opacity:1;"/><path d="M16.301,13.024c0.264,-0.095 0.417,-0.242 0.402,0.046c-0.001,0.018 0.006,0.016 0.076,0.214l-0.095,-0.008l-0.183,-0.025c-0.027,-0.012 -0.014,-0.005 -0.201,-0.226Z" style="fill:#fbf3e5;fill-opacity:0.99;"/><path d="M13.613,18.173c-0.029,0.016 -0.575,0.319 -0.377,-0.158c0.225,0.035 0.279,-0.055 0.377,0.158Z" style="fill:#f9f3e8;fill-opacity:1;"/><path d="M20.494,14.258c0.218,0.079 0.47,0.139 0.512,0.148c-0.097,0.184 -0.099,0.172 -0.107,0.188c-0.244,-0.035 -0.229,-0.057 -0.476,-0.117c0.07,-0.106 0.082,-0.097 0.072,-0.219Z" style="fill:#c8d4da;fill-opacity:0.99;"/><path d="M18.29,11.57c0.064,-0.009 0.129,-0.019 0.193,-0.028c0.018,0.095 0.101,0.345 0.093,0.38c-0.008,0.035 -0.295,0.256 -0.287,-0.352Z" style="fill:#bccbd2;fill-opacity:1;"/><path d="M5.48,21.48l0.474,0.122c-0.178,0.177 -0.171,0.192 -0.192,0.191c-0.025,-0 -0.295,-0.004 -0.309,-0.069c-0.017,-0.08 0.045,-0.164 0.027,-0.245Z" style="fill:#dbdbdd;fill-opacity:1;"/><path d="M1.336,7.292c-0.173,0.233 -0.163,0.223 -0.394,0.403c-0.029,-0.363 0.03,-0.44 0.394,-0.403Z" style="fill:#c0c9d0;fill-opacity:0.06;"/><path d="M3.994,11.156c0.022,0.024 0.467,0.297 -0.056,0.574c0.019,-0.191 0.037,-0.383 0.056,-0.574Z" style="fill:#dbfbfd;fill-opacity:1;"/><path d="M15.919,15.984c0.038,0.014 0.062,-0.025 0.191,0.135c-0.036,0.087 -0.072,0.174 -0.109,0.26c-0.093,-0.018 -0.186,-0.037 -0.279,-0.055c0.014,-0.042 0.016,-0.039 0.197,-0.34Z" style="fill:#f2e0c7;fill-opacity:0.99;"/><path d="M13.5,20.761c0.543,-0.072 0.518,0.041 0.579,0.093c-0.357,0.114 -0.355,0.134 -0.385,0.123c-0.085,-0.03 -0.012,-0.082 -0.086,-0.131c0,0 -0.099,-0.078 -0.108,-0.085Z" style="fill:#dae2e4;fill-opacity:1;"/><path d="M10.457,17.022l0.097,-0.037c0.187,-0.033 0.174,-0.017 0.369,0.025c0.008,0.266 0.016,0.259 0.015,0.281c-0.132,-0.078 -0.14,-0.042 -0.271,-0.119c-0.018,-0.011 -0.016,-0.011 -0.211,-0.149Z" style="fill:#eef0e8;fill-opacity:1;"/><path d="M20.621,7.401l0.383,0.087c-0.104,0.051 -0.113,0.019 -0.199,0.097c-0.106,0.096 -0.669,0.064 -0.184,-0.184Z" style="fill:#a8bdc9;fill-opacity:0.99;"/><path d="M11.312,2.531c-0.2,0.272 -0.142,0.295 -0.313,0.574c0.007,-0.072 -0.16,-0.51 0.313,-0.574Z" style="fill:#99b3c2;fill-opacity:0.09;"/><path d="M14.417,3.768c0.195,0.228 0.388,0.202 0.211,0.685c-0.131,-0.292 -0.145,-0.438 -0.149,-0.477c-0.021,-0.069 -0.041,-0.138 -0.062,-0.207Z" style="fill:#9aa6ac;fill-opacity:0.08;"/><path d="M21.005,14.407c0.185,0.025 0.17,0.039 0.336,0.124l0.009,0.058c-0.151,0.002 -0.301,0.004 -0.452,0.006c0.008,-0.016 0.01,-0.003 0.107,-0.188Z" style="fill:#cedadd;fill-opacity:0.99;"/><path d="M22.557,17.698c-0.089,0.358 -0.275,0.196 -0.492,0.47c0.041,-0.332 0.329,-0.343 0.492,-0.47Z" style="fill:#909aa1;fill-opacity:0.09;"/><path d="M18.315,10.114c0.083,0.086 0.079,0.077 0.083,0.086c0.025,0.047 -0.018,0.049 0.004,0.09c-0.023,0.01 -0.287,0.127 -0.287,0.127c-0.416,-0.051 0.173,-0.292 0.2,-0.303Z" style="fill:#b0c0c8;fill-opacity:1;"/><path d="M9.468,18.577c0.761,0.122 -0.048,0.246 -0.068,0.246c0.031,-0.07 -0.007,-0.084 0.053,-0.119c0.009,-0.005 -0,-0 0.015,-0.126Z" style="fill:#f0f0eb;fill-opacity:0.99;"/><path d="M8.338,17.31c0.189,0.128 0.682,0.027 0.383,0.248c-0.083,0.061 -0.09,0.028 -0.274,0.029c-0.036,-0.092 -0.073,-0.184 -0.109,-0.276Z" style="fill:#f6f5f2;fill-opacity:1;"/><path d="M5.566,15.684c0.032,0.056 0.065,0.113 0.097,0.169c-0.215,0.062 -0.206,0.033 -0.42,-0.004c0.042,-0.209 0.101,-0.154 0.323,-0.165Z" style="fill:#dce3e5;fill-opacity:1;"/><path d="M5.23,15.506c-0.419,0.253 -0.466,0.082 -0.438,0.061c0.149,-0.114 0.118,-0.17 0.302,-0.169c0.058,0 0.078,0.108 0.136,0.108Z" style="fill:#c7d8e0;fill-opacity:0.99;"/><path d="M5.439,12.893c0.015,-0.044 -0.009,-0.263 0.231,-0.206c0.18,0.043 0.063,0.103 -0.025,0.271c-0.117,0 -0.111,-0.001 -0.206,-0.065Z" style="fill:#b1c1ca;fill-opacity:1;"/><path d="M18.881,16.87c0.169,0.123 0.168,0.106 0.169,0.123c0,0.044 -0.074,0.066 -0.073,0.11c-0.019,-0.002 -0.242,-0.029 -0.242,-0.029c-0.197,-0.093 0.128,-0.197 0.147,-0.203Z" style="fill:#c3d2d9;fill-opacity:0.99;"/><path d="M20.583,22.179c-0.137,-0.492 0.146,-0.329 0.171,-0.315c0.216,0.124 0.02,0.155 -0.171,0.315Z" style="fill:#d9d9dc;fill-opacity:0.99;"/><path d="M8.15,6.146c0.121,-0.22 0.18,-0.141 0.392,-0.003c-0.143,0.066 -0.129,0.083 -0.286,0.069l-0.106,-0.066Z" style="fill:#bec5c9;fill-opacity:0.07;"/><path d="M10.628,3.864c0.027,0.311 -0.036,0.288 -0.128,0.592c-0.15,-0.441 0.031,-0.489 0.128,-0.592Z" style="fill:#92adbb;fill-opacity:0.07;"/><path d="M9.403,16.04c0.278,0.223 0.632,0.275 0.289,0.393c-0.137,0.047 -0.186,-0.265 -0.289,-0.393Z" style="fill:#d8f0f8;fill-opacity:0.99;"/><path d="M15.606,3.922c0.231,-0.008 0.241,-0.011 0.372,0.177l0.003,0.084c-0.186,-0.143 -0.2,-0.099 -0.375,-0.261Z" style="fill:#cdb388;fill-opacity:0.05;"/><path d="M16.503,2.914c0.144,0.245 0.198,0.425 0.21,0.464c-0.064,-0.031 -0.128,-0.063 -0.192,-0.094c-0.151,-0.331 -0.033,-0.329 -0.018,-0.37Z" style="fill:#dabc8c;fill-opacity:0.05;"/><path d="M16.11,16.119c0.098,0.009 0.195,0.019 0.293,0.028c-0.018,0.012 -0.003,0.019 -0.192,0.186c-0.07,0.016 -0.14,0.031 -0.21,0.047c0.036,-0.087 0.072,-0.174 0.109,-0.26Z" style="fill:#f5e6cf;fill-opacity:0.99;"/><path d="M12.35,15.349c0.113,0.187 0.338,0.255 0.114,0.291c-0.022,0.004 -0.055,0.009 -0.276,-0.063c0.054,-0.076 0.108,-0.152 0.163,-0.228Z" style="fill:#d9e6e1;fill-opacity:1;"/><path d="M13.828,2.517c0.4,0.032 0.192,0.211 0.204,0.396c-0.142,-0.186 -0.144,-0.175 -0.204,-0.396Z" style="fill:#a8bfcc;fill-opacity:0.06;"/><path d="M14.69,4.638c0.051,0.396 0.002,0.379 -0.074,0.772l-0.005,-0.09c-0.003,-0.357 -0.014,-0.345 0.079,-0.682Z" style="fill:#7e96a3;fill-opacity:0.18;"/><path d="M20.137,17.289c-0.01,0.028 -0.19,0.521 -0.242,0.276c-0.05,-0.235 -0.002,-0.273 0.242,-0.276Z" style="fill:#f8f8f5;fill-opacity:1;"/><path d="M23.112,17.105l0.025,0.116c-0.127,0.151 -0.113,0.174 -0.3,0.195c0.105,-0.197 0.11,-0.178 0.275,-0.311Z" style="fill:#aebdc5;fill-opacity:0.07;"/><path d="M6.427,6.248c0.147,-0.211 0.203,-0.182 0.395,-0.013c-0.204,0.051 -0.194,0.05 -0.395,0.013Z" style="fill:#a5b0b7;fill-opacity:0.1;"/><path d="M21.527,19.202c0.01,0.432 -0.159,0.319 -0.221,0.33c0.065,-0.197 0.075,-0.179 0.221,-0.33Z" style="fill:#a5b3ba;fill-opacity:0.13;"/><path d="M1.245,17.013c0.161,0.102 0.166,0.102 0.188,0.298c-0.161,-0.105 -0.264,-0.072 -0.188,-0.298Z" style="fill:#adb9c1;fill-opacity:0.07;"/><path d="M15.978,4.099c0.011,0.013 0.132,0.162 0.132,0.162c0.019,0.083 0.003,0.076 -0.039,0.231c-0.108,-0.142 -0.107,-0.135 -0.091,-0.309l-0.003,-0.084Z" style="fill:#dac09b;fill-opacity:0.05;"/><path d="M23.699,15.861c0.078,0.235 -0.029,0.4 -0.042,0.461c-0.023,-0.06 -0.047,-0.119 -0.07,-0.179c0.038,-0.094 0.075,-0.188 0.113,-0.282Z" style="fill:#919ba1;fill-opacity:0.1;"/><path d="M7.675,6.147l0.476,-0.001l0.106,0.066c-0.295,0.008 -0.282,-0.012 -0.582,-0.065Z" style="fill:#959fa5;fill-opacity:0.3;"/><path d="M9.225,13.158c0.218,0.139 0.055,0.178 -0.03,0.307c-0.059,-0.158 -0.031,-0.149 0.03,-0.307Z" style="fill:#e7f7fa;fill-opacity:1;"/><path d="M10.267,14.435c0.23,-0.094 0.306,-0.063 0.294,0.176c-0.098,-0.059 -0.196,-0.117 -0.294,-0.176Z" style="fill:#dbf1f8;fill-opacity:1;"/><path d="M3.204,21.914c-0.018,0.006 -0.412,0.129 -0.22,-0.076c0.075,-0.08 0.087,-0.076 0.096,-0.073c0.1,0.035 0.023,0.114 0.124,0.149Z" style="fill:#dddee0;fill-opacity:1;"/><path d="M6.43,8.573c0.06,0.179 -0.011,0.209 -0.191,0.162c0.086,-0.11 0.086,-0.087 0.191,-0.162Z" style="fill:#d7e3e6;fill-opacity:0.99;"/><path d="M3.363,15.592c0.528,0.541 -0.176,0.036 -0.188,0.026l0.188,-0.026Z" style="fill:#b0c9d6;fill-opacity:0.99;"/><path d="M13.547,14.509c0.039,0.022 0.361,0.055 0.018,0.266c-0.006,-0.089 -0.012,-0.177 -0.018,-0.266Z" style="fill:#e4e6db;fill-opacity:1;"/><path d="M11.501,2.146c-0.065,0.169 -0.047,0.162 -0.155,0.303c-0.034,-0.193 0.001,-0.186 0.155,-0.303Z" style="fill:#769ab1;fill-opacity:0.16;"/><path d="M19.081,18.077c-0.072,0.063 -0.072,0.061 -0.071,0.158c-0.013,-0.017 -0.224,-0.291 -0.023,-0.274c0.05,0.004 0.045,0.112 0.094,0.116Z" style="fill:#e3e8e9;fill-opacity:0.99;"/><path d="M16.576,16.619c0.003,0.07 0.006,0.14 0.009,0.21c-0.076,-0.065 -0.097,0.027 -0.169,-0.034c-0.123,-0.104 0.053,-0.058 0.16,-0.176Z" style="fill:#f5e8d5;fill-opacity:0.99;"/><path d="M12.373,1.29c0.19,-0.116 0.203,-0.11 0.381,0.008c-0.196,-0.02 -0.181,-0.039 -0.381,-0.008Z" style="fill:#89adc4;fill-opacity:0.45;"/><path d="M8.025,17.454c0.153,0.1 0.169,0.043 0.333,0.142c-0.201,0.031 -0.182,-0.019 -0.333,-0.142Z" style="fill:#f1f2f0;fill-opacity:1;"/><path d="M6.721,18.643c0.129,0.077 0.129,0.105 0.025,0.212c-0.008,-0.071 -0.017,-0.142 -0.025,-0.212Z" style="fill:#d1dbe0;fill-opacity:1;"/><path d="M21.478,7.614c0.035,0.031 0.07,0.063 0.104,0.094c-0.067,0.025 -0.133,0.05 -0.2,0.075c0.032,-0.056 0.064,-0.112 0.096,-0.168Z" style="fill:#d2dade;fill-opacity:1;"/><path d="M20.733,20.073c0.015,0.058 0.031,0.115 0.046,0.173c-0.029,0.034 -0.058,0.068 -0.087,0.102c-0.039,-0.144 -0.009,-0.138 0.04,-0.275Z" style="fill:#a7bcc3;fill-opacity:0.14;"/><path d="M23.225,16.925c-0.029,0.099 -0.058,0.197 -0.088,0.296l-0.025,-0.116c0.038,-0.06 0.075,-0.12 0.113,-0.18Z" style="fill:#6d777e;fill-opacity:0.1;"/><path d="M19.355,21.976c-0.029,0.044 0.068,0.109 0.039,0.153c-0.009,0.013 0,0 -0.201,-0.012c0.054,-0.047 0.108,-0.094 0.162,-0.14Z" style="fill:#d0d1d4;fill-opacity:0.99;"/><path d="M10.824,3.386c-0.034,0.099 -0.068,0.197 -0.102,0.296c0.008,-0.165 -0.016,-0.166 0.102,-0.296Z" style="fill:#7491a1;fill-opacity:0.17;"/><path d="M15.207,8.857c0.052,0.078 0.171,0.093 0.223,0.172c0,0 -0.18,0.007 -0.195,0.007c-0.009,-0.06 -0.019,-0.119 -0.028,-0.179Z" style="fill:#d9e4e8;fill-opacity:1;"/><path d="M8.92,16.141c0.037,0.061 0.075,0.122 0.112,0.183c-0.123,-0.05 -0.123,-0.058 -0.112,-0.183Z" style="fill:#cfebf6;fill-opacity:1;"/><path d="M14.961,6.147c0.191,-0.045 0.176,-0.045 0.191,-0.045c0.063,0 0.036,0.049 0.1,0.049c-0.065,0.025 -0.131,0.05 -0.196,0.075l-0.096,-0.079Z" style="fill:#a7adb2;fill-opacity:0.2;"/><path d="M13.634,2.139l0.071,0.028c0.007,0.058 0.014,0.116 0.021,0.175c-0.076,-0.091 -0.075,-0.082 -0.091,-0.203Z" style="fill:#8faaba;fill-opacity:0.13;"/><path d="M19.664,15.634c0.039,-0.009 0.029,-0.043 0.088,-0.019c0.204,0.083 0.012,0.136 0.013,0.152c-0.034,-0.044 -0.068,-0.089 -0.101,-0.133Z" style="fill:#f2f3f2;fill-opacity:1;"/><path d="M11.593,1.862l0.024,0.105c-0.029,0.033 -0.058,0.065 -0.087,0.098c0.013,-0.116 0.004,-0.103 0.063,-0.203Z" style="fill:#84a2b3;fill-opacity:0.09;"/><path d="M15.253,6.151l0.094,-0.005c-0.097,0.027 -0.193,0.053 -0.29,0.08c0.065,-0.025 0.131,-0.05 0.196,-0.075Z" style="fill:#a2afb7;fill-opacity:0.39;"/><path d="M22.065,18.168c-0.096,0.067 -0.091,0.061 -0.214,0.069c0.071,-0.023 0.143,-0.046 0.214,-0.069Z" style="fill:#909aa1;fill-opacity:0.09;"/><path d="M13.705,2.167c0.094,0.109 0.075,0.112 0.041,0.26l-0.02,-0.085c-0.007,-0.058 -0.014,-0.116 -0.021,-0.175Z" style="fill:#8599a2;fill-opacity:0.07;"/><path d="M8.123,14.767c0.013,0.067 0.025,0.134 0.038,0.201c-0.063,-0.106 -0.124,-0.106 -0.038,-0.201Z" style="fill:#d3edf7;fill-opacity:1;"/><path d="M20.4,10.457c0.002,0.073 0.004,0.146 0.006,0.219c-0.087,-0.194 -0.098,-0.191 -0.094,-0.209c0.007,-0.028 0.08,0.019 0.088,-0.01Z" style="fill:#cff4fb;fill-opacity:1;"/><path d="M16.517,4.175c0.037,0.158 0.044,0.148 -0.013,0.284c-0.001,-0.15 0.012,-0.141 0.013,-0.284Z" style="fill:#ae9469;fill-opacity:0.11;"/><path d="M23.655,9.835c0.002,0.151 -0.002,0.137 -0.047,0.271c0.001,-0.094 0.007,-0.086 0.047,-0.271Z" style="fill:#85949c;fill-opacity:0.09;"/><path d="M20.735,19.987c0.045,0.132 0.042,0.116 0.044,0.259c-0.015,-0.058 -0.031,-0.115 -0.046,-0.173l0.002,-0.086Z" style="fill:#7b8a91;fill-opacity:0.06;"/><path d="M2.44,16.414c0.051,0.114 0.024,0.11 -0.012,0.228l0.012,-0.228Z" style="fill:#dde5e8;fill-opacity:0.99;"/><path d="M7.283,15.875l0.013,0.051c-0.031,-0.013 -0.07,0.01 -0.101,-0.003c-0.245,-0.102 0.081,-0.049 0.088,-0.048Z" style="fill:#c7e6f4;fill-opacity:1;"/><path d="M8.733,15.089c-0.001,0.075 0.084,0.023 0.083,0.098c-0,0.015 -0,0 -0.188,-0.016l0.105,-0.083Z" style="fill:#d2edf8;fill-opacity:1;"/><path d="M20.907,19.889c-0.057,0.033 -0.115,0.066 -0.172,0.099c0.057,-0.033 0.115,-0.066 0.172,-0.099Z" style="fill:#3f4a51;fill-opacity:0.18;"/><path d="M17.649,20.721c0.104,-0.035 0.093,-0.03 0.198,0.004c-0.066,-0.001 -0.132,-0.003 -0.198,-0.004Z" style="fill:#cad7dd;fill-opacity:0.99;"/><path d="M3.906,7.602l-0.022,0.093c-0.054,-0.064 -0.066,-0.107 0.022,-0.093Z" style="fill:#bfd2da;fill-opacity:0.99;"/><path d="M7.585,18.926c-0.001,0.063 -0.003,0.126 -0.004,0.188c-0.051,-0.096 -0.034,-0.093 0.004,-0.188Z" style="fill:#d8e2e5;fill-opacity:0.99;"/><path d="M7.989,16.159c0.118,-0.085 0.219,-0.226 0.137,-0.098c-0.007,0.011 0,0 -0.137,0.098Z" style="fill:#c8e8f6;fill-opacity:1;"/><path d="M7.787,14.891c-0.022,0.037 -0.043,0.074 -0.065,0.111l0.065,-0.111Z" style="fill:#ccebf7;fill-opacity:0.99;"/><path d="M3.08,15.688l0.012,0.039l-0.112,-0.009l0.1,-0.03Z" style="fill:#c5d4dc;fill-opacity:1;"/></svg>