<?xml version="1.0" encoding="UTF-8" standalone="no"?><!DOCTYPE svg PUBLIC "-//W3C//DTD SVG 1.1//EN" "http://www.w3.org/Graphics/SVG/1.1/DTD/svg11.dtd"><svg width="100%" height="100%" viewBox="0 0 24 24" version="1.1" xmlns="http://www.w3.org/2000/svg" xmlns:xlink="http://www.w3.org/1999/xlink" xml:space="preserve" xmlns:serif="http://www.serif.com/" style="fill-rule:evenodd;clip-rule:evenodd;stroke-linejoin:round;stroke-miterlimit:2;"><path d="M12.151,1.363c0.119,0.03 0.237,0.06 0.356,0.09c0.042,0.018 0.084,0.036 0.126,0.054c0.116,0.184 0.129,0.153 0.29,0.289c0.173,0.173 0.138,0.18 0.275,0.383c0.143,0.239 0.129,0.232 0.306,0.46c0.092,0.297 0.077,0.297 0.461,0.948c0.038,0.097 0.077,0.194 0.115,0.29c0.027,0.057 0.054,0.114 0.081,0.171c0.093,1.076 0.288,1.12 -0.236,2.092c0.292,0.375 0.42,0.094 0.591,0.069c0.095,0.028 0.189,0.055 0.284,0.083l0.096,-0.086l0.092,0c0.181,0.062 0.166,0.08 0.371,0.079c0.363,0.005 0.358,0.009 0.389,0.008c0.407,0.002 0.814,0.004 1.22,0.007c0.198,0.049 0.181,0.074 0.381,0.094c2.697,0.273 2.696,0.346 2.927,0.298l0.084,-0.037c0.151,0.167 0.168,0.141 0.393,0.118l0.078,-0.027c0.259,0.293 0.412,0.181 0.585,0.213c0.06,0.01 0.119,0.019 0.179,0.029c0.4,0.346 0.438,0.27 0.881,0.55c0.028,0.029 0.057,0.057 0.085,0.086c0.029,0.071 0.011,0.066 0.055,0.137c0.081,0.128 0.167,0.265 0.639,1.782c0.02,0.109 0.002,0.108 0.054,0.181c-0.053,0.144 -0.06,0.14 -0.009,0.291c0.018,0.061 0.036,0.121 0.054,0.182c0.012,0.065 0.024,0.13 0.036,0.195c0.015,0.069 0.03,0.138 0.045,0.207c-0.033,0.46 0.042,0.615 0.079,1.116c0.147,1.416 0.092,1.407 0.098,2.831l-0.032,0.284c-0.144,1.142 -0.163,1.142 -0.139,1.299c-0.016,0.039 -0.032,0.079 -0.049,0.118c-0.245,0.333 -0.181,0.362 -0.431,0.692c-0.075,0.099 -0.695,0.918 -1.066,1.122c-0.046,0.056 -0.209,0.03 -0.076,0.457c-0.149,0.5 -0.062,0.535 -0.387,0.954c-0.17,0.123 -0.156,0.114 -0.318,0.257l-0.076,0.025c-0.112,0.074 -0.107,0.062 -0.176,0.183c-0.016,0.267 -0.057,0.242 -0.181,0.474c-0.311,0.321 -0.285,0.341 -0.313,0.367c-0.303,0.158 -0.286,0.159 -0.574,0.335c-0.346,0.069 -0.332,0.083 -0.661,0.188c-1.351,0.226 -1.266,0.453 -2.548,0.968c-0.484,0.119 -3.062,0.753 -6.217,0.358c-1.84,-0.233 -2.728,-0.497 -3.421,-0.875c-1,-0.545 -1.041,-0.404 -2.144,-0.731c-0.116,-0.111 -0.115,-0.088 -0.262,-0.183c-0.742,-0.481 -0.461,-0.721 -0.87,-1.111c-0.731,-0.495 -0.687,-0.528 -0.692,-0.539c-0.075,-0.192 -0.101,-0.167 -0.291,-0.383c-0.15,-0.254 -0.115,-0.258 -0.196,-0.56c0.005,-0.058 0.04,-0.419 -0.547,-0.473c-0.036,-0.053 -0.072,-0.106 -0.108,-0.159c-0.371,-0.407 -0.395,-0.369 -0.763,-0.784c-0.024,-0.032 -0.049,-0.064 -0.073,-0.097c-0.178,-0.542 -0.203,-0.52 -0.383,-1.049l-0.011,-0.087c-0.212,-1.463 -0.386,-1.697 -0.044,-5.477c0.029,-0.129 0.058,-0.258 0.087,-0.387c0.057,-0.281 0.061,-0.27 0.098,-0.563l-0.045,-0.11c0.022,-0.111 0.025,-0.099 0.094,-0.188c0.088,-0.186 0.084,-0.17 0.088,-0.186c0.025,-0.099 -0.019,-0.091 0.006,-0.19c0.06,-0.291 0.116,-0.26 0.17,-0.55c0.276,-0.295 0.265,-0.286 0.506,-0.605c0.121,-0.063 0.094,-0.077 0.216,-0.144c0.023,-0.005 0.002,-0.014 0.273,-0.106c0.344,-0.09 0.325,-0.101 0.657,-0.227l0.271,-0.092c0.576,0.036 1.645,-0.306 2.373,-0.284c0.269,0.008 0.915,-0.207 0.953,-0.212l0.081,0.03c0.201,0.054 0.199,0.053 0.391,-0.008c0.182,-0.002 0.365,-0.003 0.547,-0.005c0.483,-0.002 0.967,0.001 1.051,0.002c2.154,-0.112 2.219,0.08 2.317,-0.078c0.049,-0.079 -0.333,-0.664 -0.369,-0.718c0.003,-0.065 0.007,-0.131 0.01,-0.196c-0.057,-0.293 -0.053,-0.278 -0.124,-0.565c0.058,-0.3 0.035,-0.301 0.173,-0.563c0.261,-0.527 0.402,-0.972 0.43,-1.059c0.054,-0.075 0.04,-0.073 0.057,-0.17c0.159,-0.173 0.161,-0.159 0.228,-0.395c0.028,-0.031 0.056,-0.063 0.084,-0.094c0.098,-0.117 0.088,-0.113 0.127,-0.266c0.025,-0.036 0.05,-0.072 0.075,-0.108c0.23,-0.218 0.219,-0.218 0.375,-0.485c0.032,-0.029 0.064,-0.058 0.096,-0.087c0.097,-0.049 0.194,-0.098 0.291,-0.146Z" style="fill:#7da2b7;fill-opacity:0.99;"/><path d="M15.792,10.961c0.18,1.017 0.025,1.063 0.736,2.527c1.326,1.972 2.494,1.985 2.805,2.061l-0.058,0.144c-0.486,0.05 -0.657,-0.092 -1.067,0.022c-1.702,0.473 0.561,0.106 0.945,0.247c-0.427,1.419 -1.161,0.471 -1.593,0.883c-0.018,0.017 0.065,0.042 0.047,0.06c0.009,0.028 0.018,0.055 0.027,0.083c0.568,-0.033 0.614,-0.018 0.665,-0.001c0.043,0.014 0.057,0.05 -0.268,0.501c-0.056,-0.006 -0.061,-0.117 -0.118,-0.123c-0.349,-0.035 -0.314,0.167 -0.084,0.42c-1.051,-0.031 -1.544,-0.27 -1.238,0.16c0.381,0.031 0.371,0.009 0.749,0.037c0.516,0.039 0.361,0.277 0.133,0.733c-0.344,-0.161 -1.294,0.242 -2.859,0.367l-0.092,0.007l-0.098,-0.007c-0.596,0.128 -0.317,0.348 -0.288,0.372c0.196,0.155 0.23,0.365 0.346,0.143c0.011,-0.021 0.018,-0.014 0.239,-0.184l0.084,0.02l0.092,0.002l0.095,-0.003l0.658,0.008c0.58,-0.036 0.577,-0.002 1.134,-0.143c0.208,-0.026 0.201,-0.033 0.387,0.065c-0.06,0.13 -0.12,0.26 -0.18,0.39c-0.009,-0.005 -0.021,-0.173 -0.207,-0.104c-0.58,0.215 -2.58,0.372 -2.84,0.434c-2.877,0.691 -4.076,-0.366 -6.311,-0.446c-0.376,-0.74 -0.415,-0.708 -0.856,-1.409c-0.057,-0.076 -0.115,-0.152 -0.172,-0.228l-0.064,-0.244c0.571,-0.073 0.613,-0.47 0.333,-0.484c-0.015,-0.001 -0.009,0.009 -0.188,0.017c-0.211,0.009 -0.193,0.056 -0.4,0.117c-0.585,-0.36 -0.354,-0.83 -0.321,-0.899c0.186,0.267 0.232,0.202 1.253,0.642c0.11,0.226 0.065,0.267 0.226,0.306c0.82,0.2 -0.153,-0.342 -0.181,-0.358c-0.096,-0.466 -0.737,-0.433 -1.344,-0.643c-0.328,-0.138 -0.437,-0.064 -0.481,-0.419c0.183,-0.116 0.178,-0.098 0.334,-0.246c0.14,-0.187 0.126,-0.192 0.321,-0.33c0.953,-0.675 0.856,-0.778 1.776,-1.511c0.195,-0.155 0.669,-2.088 0.595,-2.639c0.017,-0.036 0.192,-0.396 -0.369,-0.34c-0.033,0.003 -0.022,0.08 -0.055,0.084l-0.111,0.096c0.02,-0.192 0.013,-0.387 0.032,-0.579c0.036,-0.345 2.492,0.25 7.124,-0.084c0.052,-0.004 0.608,-0.044 0.658,0.004c0.027,0.026 0.035,0.034 0.053,0.47Z" style="fill:#fafaf7;fill-opacity:1;"/><path d="M13.108,6.83c0.735,-0.365 1.303,-0.237 4.051,-0.061c2.249,0.145 5.166,0.213 5.444,1.926c0.073,0.448 -2.557,0.953 -4.293,1.432c-0.022,0.455 0.33,0.801 -0.195,0.969c-0.744,0.237 -1.185,0.032 -1.011,0.797c0.302,1.332 0.5,1.402 0.619,1.444c1.023,-0.16 1.043,-0.236 1.011,-0.314c-0.006,-0.015 0,0 -0.156,-0.119c0.135,-0.098 0.124,-0.094 0.188,-0.246c0.094,0.152 0.051,0.683 0.948,0.399c1.63,-0.516 1.638,-0.464 3.194,-1.171c0.257,-0.117 0.509,0.07 0.235,3.514c-0.04,0.503 0.027,0.515 -0.198,0.974c-0.132,-0.286 -0.082,-0.286 -0.024,-0.602c0.121,-0.662 -0.964,-0.222 -3.409,-0.617c-3.278,-0.53 -3.406,-4.641 -3.309,-4.953c0.188,-0.604 5.593,-1.5 5.686,-1.877c0.136,-0.552 -1.243,0.11 -2.93,0.507c-0.697,-0.449 -0.35,-1.117 -0.314,-1.244c0.03,-0.001 0.025,0.006 0.379,0.024c-0.008,0.078 -0.093,0.908 0.033,0.985c0.031,0.019 0.025,-0.022 0.361,-0.286c0.099,0.029 0.073,0.15 0.276,0.08c0.063,-0.022 0.048,-0.022 0.111,-0.05c0.67,-0.306 0.595,-0.544 1.307,-0.517c0.009,-0.022 0.018,-0.044 0.026,-0.066c-0.02,-0.014 0.059,-0.047 0.039,-0.062c-0.836,-0.611 -14.756,-0.858 -17.518,-0.158c-1.173,0.24 0.299,0.509 0.548,0.804c0.182,0.216 0.268,0.051 0.351,0.045c0.082,0.157 0.059,0.157 0.039,0.329c-1.515,-0.435 -2.905,-0.967 -2.623,-0.414c-0.263,0.332 -0.039,0.48 -0.399,0.705c-0.678,-0.354 -0.106,-1.38 1.14,-1.735c2.733,-0.779 8.383,-0.715 8.575,-0.619c0.942,0.472 1.222,0.335 1.818,0.181Z" style="fill:#fcfcfb;fill-opacity:1;"/><path d="M4.802,21.019c1.103,0.326 1.145,0.186 2.144,0.731c0.694,0.378 1.581,0.642 3.421,0.875c3.155,0.395 5.733,-0.239 6.217,-0.358c0.443,0.389 0.51,0.164 1.229,0.086c0.956,-0.103 0.943,-0.371 1.324,-0.218c0.144,0.058 0.134,-0.005 0.294,-0.011c0.22,-0.186 0.208,-0.177 0.441,-0.336c0.142,-0.097 0.028,-0.431 -0.337,-0.39c-0.224,0.025 -0.197,-0.049 -0.404,-0.1c0.329,-0.104 0.315,-0.119 0.661,-0.188c0.29,0.043 0.284,0.099 0.574,0.024c0.05,-0.013 0.051,-0.106 0.102,-0.119c0.19,-0.018 0.18,-0.03 0.371,-0c0.083,0.048 0.111,0.451 0.662,0.094c0.193,0.029 0.181,0.034 0.377,0.097c0.055,0.028 0.035,0.134 0.09,0.162c0.271,0.135 0.344,-0.1 1.124,0.356c0.068,0.04 0.002,0.045 0.004,0.087l0.045,0.129c-0.569,0.237 -0.65,0.066 -1.085,0.486c-0.055,0.023 -0.11,0.045 -0.165,0.068c-0.521,-0.352 -0.502,0.003 -0.683,0.122l-0.097,0.022c-0.219,-0.345 -1.125,-0.052 -1.218,-0.022c-0.063,0.02 -0.031,0.154 -0.093,0.175c-0.196,0.013 -0.695,0.083 -0.755,0.091c-0.111,-0.065 -0.268,-0.158 -1.607,0.034c-0.19,0.027 -0.149,0.085 -0.28,0.161c-0.03,-0.018 0.035,-0.133 -0.283,-0.121c-0.265,0.01 -0.259,0.075 -3.302,0.214c-0.158,0.007 -0.324,-0.038 -0.474,0.012c-0.064,0.021 -0.031,0.157 -0.095,0.178c-0.786,-0 -1.573,-0.001 -2.359,-0.001c-0.066,-0.014 -0.029,-0.164 -0.094,-0.178c-0.277,-0.059 -0.567,-0.012 -0.85,-0.024c-3.478,-0.145 -3.478,-0.241 -3.774,-0.182c-0.131,-0.038 -1.228,-0.353 -1.703,-0.088c-0.038,-0.006 -0.188,-0.028 -0.467,-0.094c-0.436,-0.402 -2.285,-0.293 -2.82,-0.806c-0.787,-0.754 3.808,-0.955 3.865,-0.968Z" style="fill:#e0e0e2;fill-opacity:0.95;"/><path d="M1.975,8.299c3.567,1.273 4.522,1.164 5.259,1.555c0.152,0.081 0.575,0.305 0.133,2.149c-0.781,3.259 -2.816,3.033 -3.99,3.163c-2.163,0.185 -2.235,0.26 -2.266,0.51c-0.041,0.043 -0.082,0.086 -0.123,0.129c-0.075,-0.292 -0.051,-0.284 -0.097,-0.884c0.279,0.181 0.271,0.248 0.403,0.18c0.242,-0.124 0.237,-0.228 0.481,-0.115c0.232,0.107 1.071,-0.118 0.737,-0.383c-0.023,-0.018 -0.064,0.031 -0.087,0.013c0.451,-0.081 2.37,0.062 3.194,-0.755c1.084,-1.075 -0.447,0.03 -0.821,0.217l-0.201,0.061c-0.156,0.021 -1.794,0.244 -1.96,0.109c-0.165,-0.871 -0.363,-0.856 -0.196,-1.728c1.663,0.503 1.667,0.462 3.39,0.617c0.16,0.014 0.537,0.048 0.693,-1.891c0.066,-0.816 -1.203,0.059 -1.106,-0.763c0.085,-0.718 -0.392,-0.378 -3.095,-1.188c-0.25,-0.097 -0.5,-0.194 -0.75,-0.292c0.361,-0.226 0.136,-0.373 0.399,-0.705Z" style="fill:#fbfbfa;fill-opacity:0.99;"/><path d="M9.415,7.385c0.03,-0.002 0.193,-0.01 0.381,-0.014c-0.146,0.344 0.077,1.002 0.107,1.131c0.196,0.841 0.45,0.688 1.307,0.638c0.061,0.013 0.123,0.025 0.184,0.038c1.346,0.19 0.977,-1.037 0.859,-1.81l0.273,-0.019c-0.019,0.224 0.071,1.503 0.204,1.618c0.218,0.188 0.951,0.116 1.034,0.108c0.067,-0.085 0.047,-0.09 -0.008,-0.193c-0.253,-0.611 -0.042,-0.629 -0.085,-1.524l0.274,-0.003c0.144,0.8 -0.175,1.81 0.382,1.797c0.64,-0.015 0.716,-0.032 0.777,-0.046c0.221,-0.04 0.18,-0.107 0.198,-0.106c0.156,0.01 0.057,0.083 0.065,0.081c0.095,-0.031 0.019,-0.108 0.112,-0.139c0.265,0.141 0.268,0.082 0.559,0.057c0.353,0.075 0.348,0.142 0.676,0.027c0.169,0.161 0.645,-0.124 0.694,-0.153c0.195,0.061 0.193,0.07 0.21,0.066c0.191,-0.053 0.097,-0.128 0.129,-0.17c0.283,-0.107 0.28,-0.007 0.456,0.248c-2.197,0.567 -2.137,0.72 -2.354,0.912c-0.405,-0.177 -0.412,-0.009 -0.858,0.022c-0.446,0.031 -0.458,0.105 -0.853,-0.116c-0.222,-0.124 -0.219,0.031 -0.475,0.031c-0.078,0 -0.955,-0.078 -1.196,0.082c-0.007,0.004 -0.001,-0 -0.31,0.299c-4.06,-0.015 -4.187,-0.098 -4.626,-0.607c-0.041,-0.027 0.009,-0.133 -1.424,-0.539c0.251,-0.234 0.445,-0.153 0.357,-0.491c-0.148,-0.568 -0.166,-0.548 -0.252,-1.145c0.187,-0.027 0.181,-0.044 0.371,-0.003c0.225,1.091 -0.068,1.526 1.043,1.615c0.282,0.023 0.295,0.123 0.766,-0.081c0.102,-0.042 0.204,-0.085 0.306,-0.127c0.071,0.109 0.03,0.289 0.438,0.301c0.039,0.001 0.387,0.011 0.482,-0.088c0.154,-0.161 -0.158,-1.629 -0.203,-1.698Z" style="fill:#cadce2;fill-opacity:1;"/><path d="M19,12.193c-0.248,-1.552 -0.477,-1.806 0.145,-1.958c0.671,-0.164 2.215,-0.47 3.292,-0.983c0.592,-0.282 0.356,0.213 0.495,0.853c0.269,1.248 0.076,1.295 -0.317,1.489c-0.829,0.409 -3.348,1.387 -3.506,0.982c-0,-0 -0.1,-0.352 -0.109,-0.382Z" style="fill:#e8fcfd;fill-opacity:0.99;"/><path d="M7.985,20.406c0.467,-0.109 0.465,0.381 1.801,0.325c0.268,0.084 1.308,0.25 1.422,0.268c0.134,0.021 0.082,0.089 0.2,0.135c0.513,0.2 0.511,0.201 0.557,0.189c1.075,-0.284 1.137,0.272 2.183,-0.107c0.191,0.037 0.177,0.049 0.372,0.039c0.246,-0.113 0.242,-0.106 0.298,-0.144c0.799,0.379 0.816,-0.107 1.705,-0.121c-0.119,0.452 -0.176,0.414 -0.455,0.863c-0.858,0.681 -5.807,0.74 -7.2,0.021c-0.608,-0.661 -0.536,-0.698 -0.882,-1.468Z" style="fill:#d5dfe2;fill-opacity:1;"/><path d="M12.022,2.16c0.31,-0.42 0.378,-0.083 0.595,0.218l0.349,0.581c0.912,1.609 1.278,2.264 0.128,3.273c-0.189,0.166 -1.114,0.072 -1.21,0.062c-1.553,-0.741 -1.18,-1.862 0.138,-4.134Z" style="fill:#f8fdfe;fill-opacity:1;"/><path d="M1.132,9.27c0.022,0.083 0.163,0.097 0.185,0.18c0.025,0.094 -0.046,0.189 -0.063,0.285c-0.128,0.7 -0.098,0.696 -0.145,1.413c-0.022,0.339 1.123,0.616 1.233,0.657c0.057,-0.294 0.149,-1.716 0.002,-2.197c2.348,0.647 2.361,0.59 2.563,0.653c0.363,0.114 -0.247,2.125 -0.3,2.303c-0.096,0.316 -3.061,-0.762 -3.467,-0.981c-0.422,-0.228 -0.357,-0.662 -0.007,-2.312Z" style="fill:#d3f2f9;fill-opacity:0.99;"/><path d="M11.9,12.804c0.237,0.103 0.237,0.084 0.423,0.253c0.103,0.084 0.1,0.022 0.217,-0.052c0.78,-0.018 0.789,0.005 0.812,0.066c0.08,0.208 -0.003,0.224 0.124,0.406c0.916,-0.248 1.007,0.055 1.521,-0.005c0.108,-0.013 0.051,0.052 -0.007,0.392c-0.304,-0.081 -0.327,-0.17 -0.571,0.026c-0.04,-0.02 -0.079,-0.039 -0.119,-0.059c0.056,-0.861 -0.272,0.008 -0.277,0.03c-0.064,0.032 -0.106,0.099 -0.17,0.131c-0.079,0.039 -0.005,0.037 0.009,0.063c0.164,0.305 0.208,0.267 0.56,0.294c0.11,0.097 0.22,0.194 0.33,0.292c-0.046,0.024 -0.564,0.292 -0.568,0.3c-0.034,0.059 0.148,0.489 0.181,0.546c0.384,0.599 0.538,0.134 0.717,0.16c0.059,0.009 0.062,0.123 0.121,0.132l-0.013,0.079c-0.835,0.348 -0.861,0.291 -0.904,0.356c-0.136,0.209 0.103,0.128 0.232,0.182c0.027,0.007 0.054,0.014 0.08,0.021c0.326,-0.217 0.354,-0.221 0.39,-0.225c0.039,-0.005 0.007,0.101 0.463,0.154c0.148,0.118 0.86,0.067 0.477,-0.253c0.451,-0.062 0.611,-0.048 0.664,-0.043c0.257,0.023 0.151,-0.311 0.192,-0.372c0.031,-0.046 0.102,-0.064 0.12,-0.117c0.008,-0.026 -0.073,-0.023 -0.065,-0.049c0.026,0.004 0.006,0.019 0.317,0.074c0.429,0.768 -0.566,0.869 -0.653,0.878c-0.529,0.054 -0.506,0.182 -1.045,0.145c-0.288,-0.02 -0.301,0.118 -1.039,0.197c-0.025,0.039 -0.05,0.078 -0.075,0.118c-0.212,0.294 -0.274,0.199 -0.679,0.451c-0.185,-0.073 -0.179,-0.058 -0.371,-0.084l-0.079,0.029c-0.066,-0.008 -0.131,-0.016 -0.197,-0.023c-0.101,-0.153 -0.52,-0.33 -0.569,-0.351c-0.313,0.121 -0.196,-0.189 -0.203,-0.233c0.218,-0.181 0.217,-0.17 0.48,-0.25c0.042,0.01 0.496,0.12 0.418,-0.337c0.19,0.026 0.21,0.007 0.253,-0.182c0.137,-0.014 0.229,0.042 0.568,-0.155c0.009,-0.008 0.115,-0.1 0.115,-0.1c-0,-0.115 -0.046,0.006 -0.165,0.021c-0.049,-0.095 -0.057,-0.069 -0.156,-0.119c0.328,-0.472 0.038,-0.461 -0.006,-0.484c0.017,-0.092 0.033,-0.184 0.05,-0.276c-0.046,-0.094 -0.091,-0.189 -0.137,-0.283l0.045,-0.115c-0.013,-0.058 -0.027,-0.116 -0.04,-0.174l-0.103,-0.067c-0.189,-0.367 -0.24,-0.325 -0.652,-0.411c-0.097,-0.023 -0.194,-0.045 -0.291,-0.068l-0.095,-0.099c-0.169,-0.12 -0.15,-0.158 -0.391,-0.165c-0.243,-0.007 -0.197,-0.087 -0.241,-0.321c0.002,-0.108 0.003,-0.215 0.005,-0.323Z" style="fill:#e4f4f8;fill-opacity:1;"/><path d="M7.63,19.637c2.236,0.08 3.434,1.137 6.311,0.446c0.26,-0.062 2.26,-0.219 2.84,-0.434c0.186,-0.069 0.198,0.1 0.207,0.104c-0.075,0.182 -0.15,0.363 -0.225,0.545c-0.686,-0.301 -2.575,0.147 -1.947,0.813c-0.056,0.038 -0.052,0.031 -0.298,0.144c-0.008,-0.023 -0.1,-0.282 -0.103,-0.293c-0.033,-0.124 0.029,-0.237 0.001,-0.237c-0.307,0.007 -0.337,0.041 -0.367,0.325c0.002,0.024 -0.065,-0.062 -0.063,-0.038c0.001,0.017 0,0 0.138,0.159l0.023,0.045c-1.045,0.378 -1.107,-0.177 -2.183,0.107c-0.045,0.012 -0.044,0.012 -0.557,-0.189c-0.118,-0.046 -0.066,-0.114 -0.2,-0.135c-0.114,-0.018 -1.154,-0.184 -1.422,-0.268c0,-0.01 0.065,-0.061 -0.118,-0.384c-0.463,-0.331 -1.435,-0.548 -1.88,-0.318c-0.098,-0.198 -0.094,-0.188 -0.157,-0.392Z" style="fill:#dae2e5;fill-opacity:1;"/><path d="M8.193,7.382c-0.814,0.013 -0.806,0.01 -1.611,0.079c-0.19,-0.041 -0.184,-0.024 -0.371,0.003c-0.952,-0.058 -0.939,0.208 -0.935,0.286c0.042,0.821 0.202,0.93 0.194,1.182c-0.818,-0.202 -0.803,-0.203 -0.873,-0.219c0.02,-0.172 0.043,-0.172 -0.039,-0.329c-0.181,-0.158 -0.18,-0.157 -0.195,-0.171c-0.036,-0.033 -0.021,-0.035 -0.064,-0.075l-0.09,-0.097c-0.186,-0.175 -0.207,-0.151 -0.31,-0.383c-0.101,-0.094 -0.107,-0.069 -0.241,-0.123c2.762,-0.7 16.682,-0.453 17.518,0.158c0.02,0.014 -0.059,0.047 -0.039,0.062l-0.026,0.066c-0.712,-0.027 -0.637,0.211 -1.307,0.517c-0.057,-0.037 -0.114,-0.075 -0.171,-0.112c0.221,-0.446 0.232,-0.436 0.249,-0.475c0.028,-0.064 0.01,-0.154 -0.86,-0.142c-0.354,-0.018 -0.348,-0.025 -0.379,-0.024c-0.451,-0.093 -0.44,-0.075 -0.904,-0.08c-0.076,-0.004 -0.153,-0.008 -0.229,-0.012c-0.369,-0.129 -0.372,-0.07 -1.1,-0.095c-0.098,-0.005 -0.197,-0.01 -0.295,-0.015c-0.316,-0.01 -0.632,-0.019 -0.948,-0.029c-0.059,0.003 -0.118,0.007 -0.176,0.01c-0.349,-0.003 -0.698,-0.006 -1.047,-0.009l-0.274,0.003c-0.572,-0.022 -0.562,-0.01 -1.145,-0.009l-0.273,0.019c-0.347,0.001 -0.693,0.001 -1.04,0.002c-1.133,-0.022 -1.303,-0.008 -1.416,0.001c-0.188,0.004 -0.35,0.012 -0.381,0.014c-1.127,0.002 -1.124,-0.003 -1.222,-0.003Z" style="fill:#baccd4;fill-opacity:1;"/><path d="M7.925,11.15l0.111,-0.096c0.082,0.284 0.14,0.244 0.424,0.256c0.074,0.551 -0.4,2.484 -0.595,2.639c-0.92,0.733 -0.823,0.835 -1.776,1.511c-0.195,0.138 -0.18,0.143 -0.321,0.33c-0.083,-0.036 -0.035,-0.208 -0.118,-0.244c-0.052,-0.022 0.022,0.257 -0.67,0.214c-0.147,-0.009 -0.254,0.252 -0.272,0.296l-0.083,0.008c-0.001,-0.023 -0.199,-1.425 -0.211,-0.197c-0.004,0.366 0.011,0.361 -0.167,0.689c-0.788,0.712 -1.263,-0.778 -0.591,-0.901c1.938,-0.355 2.781,-0.218 3.932,-2.823c0.226,-0.831 0.261,-0.81 0.337,-1.682Z" style="fill:#e1eaec;fill-opacity:0.99;"/><path d="M12.226,2.469c-0.033,0.154 -0.097,0.134 -0.062,0.468c-0.228,0.244 -0.375,0.616 0.169,1.438c0.157,0.058 0.149,0.012 0.316,-0.039c0.304,0.261 0.334,0.167 0.735,0.118c0.34,-0.042 0.197,1.673 -0.945,1.665c-2.46,-0.016 -0.711,-3.407 -0.212,-3.65Z" style="fill:#b6e1f2;fill-opacity:1;"/><path d="M19.041,16.7c0.23,0.266 0.227,0.254 0.474,0.489c0.25,0.237 0.043,0.277 -0.154,0.772c-0.369,-0.164 -0.473,-0.176 -0.597,0.214c-0.128,-0.032 -0.256,-0.064 -0.384,-0.096c-0.051,0.017 -0.102,0.035 -0.153,0.052c0.015,0.037 0.03,0.075 0.045,0.112c0.041,0.02 0.083,0.04 0.124,0.059c1.283,0.52 0.111,1.405 -0.203,1.27c-0.033,-0.014 -2.187,-0.863 -0.441,0.036c0.408,0.21 0.506,0.261 0.316,0.672c-0,0 -0.25,0.066 -0.271,0.072c-0.664,-0.078 -0.581,0.198 -0.536,0.208c0.203,0.046 0.2,0.016 0.6,-0.008c0.015,0.259 0.017,0.246 -0.034,0.508c-0.486,-0.135 -0.497,-0.037 -0.973,-0.19c0.074,-0.233 0.428,-1.35 1.196,-2.814c0.396,-0.754 0.361,-0.781 0.993,-1.356Z" style="fill:#fafaf8;fill-opacity:1;"/><path d="M3.405,17.799l0.148,0.081c0.032,0.071 0.007,0.066 0.038,0.135c0.07,0.155 0.07,-0.038 0.212,-0.116c0.012,0.048 0.024,0.097 0.036,0.145c-0.015,0.776 0.377,0.743 0.39,0.749l0.071,0.124c0.062,0.126 0.044,0.413 0.519,0.324c0.052,0.628 0.617,0.808 0.815,0.897c0.192,0.087 0.182,0.108 0.2,0.105c0.107,-0.016 0.005,-0.136 0.121,-0.154c0.362,0.402 0.479,0.328 0.523,0.689c0.014,0.11 -0.06,0.412 -1.379,-0.143c-1.283,-0.54 -0.581,-1.246 -0.869,-1.235c-1.173,0.045 -1.491,-1.085 -0.823,-1.6Z" style="fill:#cbdee5;fill-opacity:0.99;"/><path d="M20.826,12.053c-0.743,0.238 -0.726,0.293 -1.501,0.335c-0.01,-0.03 -0.126,-0.375 -0.126,-0.375c-0.052,-0.136 -0.188,-1.309 -0.154,-1.336c0.089,-0.071 0.131,0.13 1.412,-0.207c0.567,-0.149 0.291,1.068 0.369,1.583Z" style="fill:#cbeef8;fill-opacity:1;"/><path d="M1.132,9.27c0.007,-0.003 0.022,-0.123 0.738,0.175c0.158,0.054 0.315,0.108 0.473,0.163c0.147,0.481 0.056,1.903 -0.002,2.197c-0.109,-0.041 -1.255,-0.318 -1.233,-0.657c0.047,-0.717 0.017,-0.713 0.145,-1.413c0.018,-0.096 0.088,-0.191 0.063,-0.285c-0.022,-0.083 -0.163,-0.097 -0.185,-0.18Z" style="fill:#a3d6ea;fill-opacity:0.99;"/><path d="M21.291,17.157c0.026,0.207 0.01,0.202 0.026,0.207c0.066,0.017 0.137,-0.039 0.203,-0.022c-0.091,0.175 -0.036,0.178 -0.045,0.191c-0.081,0.121 -0.62,-0.035 -0.25,0.356l-0.104,0.149l-0.063,-0.026c-0.047,-0.014 -0.094,-0.028 -0.14,-0.042c-0.181,0.147 -0.381,0.145 -0.659,1.195c-0.225,0.035 -0.327,-0.021 -0.303,0.216c0.015,0.068 0.03,0.137 0.045,0.205c-0.909,1.005 -1.118,0.654 -1.333,0.813c-0.141,0.104 -0.105,0.169 -0.284,0.165c-0.047,-0.001 -0.066,-0.082 -0.113,-0.083c0.163,-0.706 0.36,-0.57 0.636,-0.865c0.461,-0.493 0.084,-0.749 0.769,-1.321c0.209,0.007 0.477,-0.023 0.518,-0.028c0.3,-0.141 0.304,-0.143 0.488,-0.468c0.477,-0.75 0.584,-0.629 0.608,-0.642Z" style="fill:#a6c7d5;fill-opacity:0.99;"/><path d="M8.193,7.382c0.006,0.075 -0.132,0.113 -0.126,0.188c0.009,0.119 0.37,1.04 0.325,1.426c-0.471,0.204 -0.484,0.103 -0.766,0.081c-1.11,-0.09 -0.818,-0.524 -1.043,-1.615c0.804,-0.069 0.796,-0.066 1.611,-0.079Z" style="fill:#eaefee;fill-opacity:0.99;"/><path d="M6.275,19.046c0.777,0.581 0.727,0.737 1.109,0.671c0.075,0.175 0.402,0.791 0.717,1.528c0.211,0.365 0.271,0.316 0.471,0.692c-0.364,-0.137 -1.849,-0.405 -1.705,-1.258c0.02,-0.118 0.735,-0.471 0.379,-0.44c-0.158,0.014 -1.039,0.353 -1.181,-0.881c0.049,-0.195 0.047,-0.19 0.21,-0.312Z" style="fill:#dfe7e9;fill-opacity:0.99;"/><path d="M9.796,7.371c0.113,-0.009 0.284,-0.022 1.416,-0.001l0.039,0.097c-0.031,0.048 -0.109,0.049 -0.14,0.096c-0.01,0.015 0.089,1.451 0.097,1.577c-0.856,0.05 -1.111,0.203 -1.307,-0.638c-0.03,-0.129 -0.252,-0.788 -0.107,-1.131Z" style="fill:#f1f3f1;fill-opacity:0.99;"/><path d="M3.567,19.737l0.103,-0.012c0.409,0.39 0.128,0.63 0.87,1.111c0.147,0.095 0.145,0.072 0.262,0.183c-0.057,0.013 -4.652,0.214 -3.865,0.968c0.535,0.512 2.384,0.404 2.82,0.806c-0.898,0.183 -2.821,-0.647 -3.2,-0.481c-0.254,0.111 -0.587,-0.634 -0.111,-0.733c0.056,-0.012 0.008,-0.122 0.663,-0.283c1.174,-0.29 1.173,-0.22 2.371,-0.419l0.181,-0.098c0.552,0.249 0.295,-0.2 0.162,-0.45c-0.136,-0.256 -0.105,-0.262 -0.238,-0.52l-0.017,-0.071Z" style="fill:#cfd1d3;fill-opacity:0.06;"/><path d="M1.425,12.145l0.35,0.134c-0.003,1.125 0.136,1.402 0.474,2.075c0.086,0.073 0.091,0.039 0.184,-0.008l0.098,-0.014l0.107,-0.084c0.166,0.135 1.804,-0.087 1.96,-0.109c0.082,-0.003 0.072,-0.011 0.201,-0.061c0.374,-0.187 1.905,-1.293 0.821,-0.217c-0.824,0.818 -2.743,0.675 -3.194,0.755c-0.415,-0.008 -0.981,0.104 -1.212,0.131c-0.01,-0.006 -0.141,0.101 -0.202,-0.229c-0.014,-0.078 0.029,-0.015 0.109,-0.021c0.289,-0.024 0.28,-0.016 0.561,-0.036c0.415,-0.03 -0.428,-1.086 -0.256,-2.317Z" style="fill:#c1d1d9;fill-opacity:0.99;"/><path d="M19.133,21.299c0.208,0.051 0.18,0.125 0.404,0.1c0.365,-0.041 0.479,0.293 0.337,0.39c-0.234,0.159 -0.221,0.15 -0.441,0.336c-0.16,0.006 -0.15,0.069 -0.294,0.011c-0.382,-0.153 -0.369,0.115 -1.324,0.218c-0.719,0.077 -0.787,0.303 -1.229,-0.086c1.282,-0.515 1.196,-0.742 2.548,-0.968Z" style="fill:#d0d1d4;fill-opacity:1;"/><path d="M1.425,12.145c-0.172,1.23 0.672,2.287 0.256,2.317c-0.281,0.02 -0.272,0.013 -0.561,0.036c-0.08,0.007 -0.123,-0.057 -0.109,0.021c0.06,0.33 0.191,0.223 0.202,0.229c-0.108,0.058 -0.215,0.116 -0.323,0.174c-0.299,-2.908 -0.104,-3.08 0.112,-2.979c0.034,0.016 0.031,0.015 0.423,0.202Z" style="fill:#e7ecec;fill-opacity:0.99;"/><path d="M12.524,7.35c0.583,-0.001 0.573,-0.012 1.145,0.009c0.042,0.895 -0.169,0.913 0.085,1.524c0.003,0.064 0.005,0.128 0.008,0.193c-0.083,0.008 -0.816,0.08 -1.034,-0.108c-0.133,-0.115 -0.224,-1.393 -0.204,-1.618Z" style="fill:#f0f2f0;fill-opacity:1;"/><path d="M8.193,7.382c0.098,-0.001 0.095,0.005 1.222,0.003c0.045,0.068 0.357,1.536 0.203,1.698c-0.095,0.099 -0.443,0.089 -0.482,0.088c-0.408,-0.012 -0.367,-0.192 -0.438,-0.301c-0.237,-0.754 -0.216,-0.753 -0.505,-1.487Z" style="fill:#f1f3f1;fill-opacity:1;"/><path d="M13.944,7.356c0.349,0.003 0.698,0.006 1.047,0.009c0.015,0.412 -0.078,0.577 -0.074,0.759c0.044,0.097 0.087,0.194 0.131,0.292c0.003,0.024 0.002,0.023 0.055,0.692c-0.061,0.014 -0.137,0.031 -0.777,0.046c-0.558,0.013 -0.239,-0.997 -0.382,-1.797Z" style="fill:#eef1f0;fill-opacity:1;"/><path d="M11.212,7.371c0.347,-0.001 0.693,-0.001 1.04,-0.002c0.118,0.772 0.487,2 -0.859,1.81c-0.009,-0.865 0.081,-0.869 -0.142,-1.711l-0.039,-0.097Z" style="fill:#f1f3f1;fill-opacity:1;"/><path d="M3.404,16.877c0.237,0.118 0.234,0.123 0.256,0.127c0.696,0.126 0.572,0.367 1.194,0.698c0.197,0.105 -0.062,0.237 0.353,0.964c0.21,0.369 0.409,0.25 0.472,0.68c-0.711,-0.135 -0.838,-0.218 -0.901,-0.259c-0.148,-0.297 -0.247,-0.549 -0.479,-0.173l-0.071,-0.124c-0.038,-0.365 -0.095,-0.51 -0.111,-0.552c0.027,-0.056 0.125,-0.052 0.152,-0.108c0.075,-0.156 -0.383,-0.606 -0.428,-0.65c-0.486,-0.477 -0.563,-0.408 -0.557,-0.466c0.007,-0.061 0.113,-0.078 0.12,-0.139Z" style="fill:#8bb2c7;fill-opacity:0.99;"/><path d="M17.607,12.573c-0,-0.001 -0.402,-0.994 0.02,-1.056c0.791,-0.116 0.798,-0.13 0.854,-0.09c0.07,0.05 0.045,0.069 0.283,1.231c-0.064,0.152 -0.053,0.148 -0.188,0.246c-0.591,0.067 -0.723,0.202 -0.97,-0.331Z" style="fill:#daf7fb;fill-opacity:0.99;"/><path d="M16.764,20.298c-0.1,0.368 -0.032,0.385 -0.242,0.692c-0.889,0.014 -0.906,0.5 -1.705,0.121c-0.628,-0.667 1.261,-1.114 1.947,-0.813Z" style="fill:#fafaf7;fill-opacity:0.99;"/><path d="M19.333,15.548c0.122,0.015 1.45,0.177 1.448,0.506c-0.004,0.454 -0.042,0.488 -0.095,0.594c-0.083,-0.042 -0.05,-0.203 -0.133,-0.244c-0.11,-0.055 -0.246,0.005 -0.368,-0.008c-0.035,-0.004 -1.178,-0.126 -0.378,0.221c0.374,0.162 0.424,-0.061 0.786,0.139c-0.676,0.579 -0.985,0.386 -1.365,-0.228c0.155,-0.385 0.115,-0.448 0.262,-0.683c-0.019,-0.019 -0.009,-0.023 -0.157,-0.296Z" style="fill:#f3f5f5;fill-opacity:1;"/><path d="M10.745,13.702c0.154,0.115 0.155,0.308 0.817,0.054c0.161,0.01 0.147,0.003 0.305,0.042c0.226,0.17 0.375,0.416 0.673,-0.125l0.085,0.039c0.097,0.023 0.194,0.045 0.291,0.068l-0.149,0.255c-0.627,0.396 -0.965,-0.092 -1.278,0.022c-0.235,0.086 -0.166,0.173 -0.387,0.271c-0.003,0.001 -0.404,-0.062 -0.082,0.344c-0.576,-0.054 -0.563,-0.033 -1.124,0.035c-0.393,-0.073 -0.373,0.032 -0.656,0.326c-0.066,-0.006 -0.132,-0.012 -0.199,-0.017c0.144,-0.205 0.016,-0.211 -0.101,-0.46c0.219,-0.185 0.214,-0.29 0.48,-0.176c0.39,0.167 0.385,0.012 0.753,-0.191c0.082,-0.008 0.439,0.222 0.476,-0.397c0.032,-0.03 0.065,-0.06 0.097,-0.089Z" style="fill:#d5f1fa;fill-opacity:1;"/><path d="M6.211,7.465c0.086,0.597 0.104,0.577 0.252,1.145c0.088,0.338 -0.106,0.258 -0.357,0.491c-0.212,-0.056 -0.424,-0.113 -0.636,-0.169c0.008,-0.251 -0.152,-0.36 -0.194,-1.182c-0.004,-0.078 -0.018,-0.344 0.935,-0.286Z" style="fill:#e3eaeb;fill-opacity:1;"/><path d="M11.02,14.671c0.222,0.112 0.22,0.09 0.475,0.06c0.228,0.441 0.473,0.618 0.495,0.653c0.305,0.508 -0.448,-0.03 -0.465,-0.039c0.026,-0.365 -0.145,-0.257 -0.497,-0.368c-0.124,-0.039 -0.491,-0.314 -0.278,0.133c-0.08,0.157 -0.078,0.144 -0.195,0.283c-0.04,-0.022 -0.081,-0.043 -0.121,-0.065c-0.241,-0.413 -0.43,-0.259 -0.462,-0.233c-0.472,0.384 0.103,0.232 0.107,0.235c0.041,0.032 -0.049,0.123 -0.008,0.156c-0.029,0.058 -0.058,0.117 -0.087,0.175c-0.062,0.01 -0.124,0.02 -0.185,0.029l-0.091,0.007c-0.243,-0.01 -0.239,0.04 -0.474,-0.024c0.009,-0.198 0.008,-0.187 -0.06,-0.376c0.047,-0.13 0.013,-0.126 0.065,-0.265c0.283,-0.294 0.263,-0.4 0.656,-0.326c0.561,-0.068 0.548,-0.09 1.124,-0.035Z" style="fill:#c0e8f9;fill-opacity:1;"/><path d="M18.034,13.777c0.387,-0.363 0.513,0.377 0.83,0.416c1.643,0.205 1.638,0.36 3.285,0.158c0.12,-0.015 -0.038,-2.441 0.234,-1.819c0.163,0.373 -0.092,1.792 0.157,1.82c0.031,0.004 0.312,0.036 0.371,0.101c0.022,0.024 -0.06,0.066 -0.038,0.091c-0.019,0.025 -0.038,0.051 -0.057,0.076c-2.022,-0.151 -2.85,0.148 -3.479,-0.095c-0.713,-0.275 -0.702,-0.278 -1.303,-0.749Z" style="fill:#cad6db;fill-opacity:1;"/><path d="M11.873,16.527c0.136,0.181 0.147,0.163 0.373,0.184c0.007,0.044 -0.11,0.354 0.203,0.233c-0.269,0.62 0.518,0.368 0.569,0.351c0.066,0.008 0.131,0.016 0.197,0.023c0.026,-0.01 0.053,-0.019 0.079,-0.029c0.192,0.026 0.186,0.011 0.371,0.084c-0.286,0.233 -0.277,0.224 -0.57,0.438c-0.565,0.182 -0.506,-0.098 -0.755,-0.236c-0.176,-0.097 -0.109,0.269 -1.219,0.378c-0.025,-0.018 -0.063,0.045 -0.089,0.027c-0.234,-0.168 -0.178,-0.214 -0.388,-0.411c0.185,-0.125 0.166,-0.155 0.39,-0.177c0.086,-0.064 0.083,-0.043 0.181,-0.049c0.15,0.068 0.114,0.129 0.279,0.126c0.264,-0.005 0.428,0.199 0.405,-0.076c0,-0 0.026,-0.228 0.029,-0.248c0.006,-0.017 0.109,-0.111 -0.006,-0.217c-0.196,-0.18 -0.174,-0.212 -0.05,-0.402Z" style="fill:#e2f3f7;fill-opacity:1;"/><path d="M16.411,7.399c0.728,0.026 0.731,-0.034 1.1,0.095c-0.036,0.105 -0.128,0.374 -0.104,1.381c-0.049,0.029 -0.525,0.315 -0.694,0.153c-0.251,-0.8 -0.304,-0.788 -0.302,-1.629Z" style="fill:#edf1ef;fill-opacity:1;"/><path d="M11.307,15.335c0.058,0.008 0.117,0.015 0.175,0.023c0.015,0.045 -0.07,0.086 -0.055,0.131c0.182,0.552 0.906,0.389 0.988,0.371c-0.022,0.074 0.051,0.156 0.029,0.23c-0.001,0.004 -0.717,0.148 -0.866,0.126c-0.019,-0.003 -0.014,0.011 -0.188,0.152c-0.389,-0.01 -0.412,-0.061 -0.743,0.198c-0.021,-0.013 -0.206,-0.122 -0.285,-0.115c-0.375,0.032 -0.335,-0.084 -0.552,-0.383c0.085,-0.083 0.32,-0.197 0.349,-0.212c0.063,-0.027 0.126,-0.054 0.189,-0.081c0.183,0.636 0.662,0.069 0.498,-0.141c-0.024,-0.03 -0.09,0.013 -0.114,-0.017c0.286,-0.15 0.265,-0.168 0.573,-0.28Z" style="fill:#c6eaf9;fill-opacity:1;"/><path d="M11.3,12.59c0.337,-0.022 0.304,0.073 0.6,0.214c-0.002,0.108 -0.003,0.215 -0.005,0.323c-0.368,0.009 -0.749,-0.219 -0.872,-0.185c-0.066,0.018 -0.572,0.454 0.549,0.66c-0.003,0.051 -0.007,0.102 -0.01,0.153c-0.661,0.254 -0.663,0.061 -0.817,-0.054c-0.032,0.03 -0.065,0.06 -0.097,0.089c-0.038,-0.017 -0.017,-0.094 -0.054,-0.111c-0.153,-0.07 -0.277,0.038 -0.711,-0.173c0.036,-0.121 0.073,-0.242 0.109,-0.363c0.338,-0.123 0.324,-0.156 0.371,-0.392c0.046,-0.233 0.138,-0.101 0.372,-0.067c0.289,0.048 0.276,-0.028 0.566,-0.095Z" style="fill:#e5f6f9;fill-opacity:0.99;"/><path d="M20.001,19.585c0.055,-0.012 0.109,-0.023 0.164,-0.035c0.641,1.108 -1.011,1.322 -1.694,1.47c-0.467,0.101 -0.217,-0.498 -0.199,-0.54c0.047,0.001 0.066,0.082 0.113,0.083c0.179,0.004 0.143,-0.061 0.284,-0.165c0.215,-0.159 0.424,0.192 1.333,-0.813Z" style="fill:#d2e4ea;fill-opacity:1;"/><path d="M15.167,7.356c0.316,0.01 0.632,0.019 0.948,0.029c0.008,0.811 0.038,0.801 -0.078,1.617c-0.291,0.025 -0.294,0.083 -0.559,-0.057c-0.168,-0.328 -0.185,-0.313 -0.195,-0.439c-0.025,-0.309 0.063,-0.312 -0.115,-1.149Z" style="fill:#eef1ef;fill-opacity:0.99;"/><path d="M12.766,14.033c0.037,0.045 0.255,0.309 0.711,0.151c-0.042,0.141 -0.087,0.119 -0.081,0.273c0.013,0.323 -0.235,0.056 -0.493,0.252c-0.326,0.088 -0.343,-0.024 -0.653,0.121l-0.088,-0.023c-0.36,-0.083 -0.352,-0.154 -0.667,-0.077c-0.255,0.031 -0.253,0.053 -0.475,-0.06c-0.322,-0.406 0.078,-0.342 0.082,-0.344c0.22,-0.098 0.152,-0.185 0.387,-0.271c0.313,-0.114 0.651,0.374 1.278,-0.022Z" style="fill:#d3f0fa;fill-opacity:1;"/><path d="M17.739,7.506c0.465,0.006 0.454,-0.013 0.904,0.08c-0.036,0.127 -0.383,0.795 0.314,1.244c-0.252,0.063 -0.504,0.126 -0.755,0.188c-0.176,-0.255 -0.173,-0.355 -0.456,-0.248c-0.17,-0.402 -0.026,-1.165 -0.007,-1.265Z" style="fill:#e7eded;fill-opacity:1;"/><path d="M4.626,16.064l0.083,-0.008c0.041,0.02 0.046,-0.006 0.522,0.22c0.533,0.474 0.412,0.639 0.456,0.817c-0.033,0.036 -0.034,0.032 -0.416,0.312c-0.082,0.02 -0.908,0.22 -0.879,-0.592c0.002,-0.063 0.132,-0.021 0.235,-0.748Z" style="fill:#f5f6f4;fill-opacity:1;"/><path d="M8.478,15.949c0.076,-0.003 0.764,-0.026 0.944,-0c0.2,0.028 0.212,0.023 0.315,0.196l0.073,-0.078c0.217,0.3 0.178,0.416 0.552,0.383c0.079,-0.007 0.264,0.103 0.285,0.115c-0.394,0.045 -0.363,0.119 -0.743,0.196c-0.631,-0.178 -0.619,-0.018 -0.659,0.012c-0.336,-0.154 -0.412,-0.118 -0.371,-0.246c0.06,-0.189 -0.227,-0.225 -0.21,-0.128c0.06,0.33 0.06,0.32 0.301,0.686c-0.358,-0.046 -0.327,-0.105 -0.548,-0.38c0.018,-0.123 0.036,-0.246 0.054,-0.368c-0.024,-0.174 0.001,-0.358 0.005,-0.389Z" style="fill:#ccedf9;fill-opacity:1;"/><path d="M6.702,16.018c0.193,-0.126 0.194,-0.121 0.208,-0.136c0.137,-0.142 0.152,-0.083 0.334,-0.01c0.626,0.248 0.84,0.633 0.865,0.641c0.041,0.014 0.063,-0.093 0.105,-0.079c0.018,0.055 0.031,0.038 0.048,0.091c0.038,0.116 0.071,0.082 0.156,0.181c0.221,0.274 0.19,0.333 0.548,0.38l0.105,0.107c0.025,0.014 -0.048,0.069 -0.023,0.083c0.023,0.013 0.024,0.004 0.331,0.052l0.05,0.12c-0.144,0.111 -0.133,0.111 -0.293,0.209c-0.102,-0.025 -0.281,-0.07 -1.118,-0.683c-0.453,-0.332 -0.305,-0.653 -0.585,-0.616c-0.423,0.055 -0.366,-0.114 -0.731,-0.339Z" style="fill:#d6f0f8;fill-opacity:1;"/><path d="M2.924,16.345c0.203,0.131 0.279,0.125 0.205,0.366c0,0 0.253,0.152 0.275,0.166c-0.007,0.061 -0.113,0.078 -0.12,0.139c-0.006,0.058 0.071,-0.011 0.557,0.466c0.044,0.044 0.503,0.494 0.428,0.65c-0.027,0.056 -0.125,0.052 -0.152,0.108c-0.159,-0.137 -0.158,-0.136 -0.172,-0.147c-0.05,-0.04 -0.058,-0.01 -0.106,-0.049c-0.012,-0.048 -0.024,-0.097 -0.036,-0.145c-0.083,-0.006 -0.166,-0.013 -0.25,-0.019l-0.148,-0.081c-0.077,-0.049 -0.153,-0.099 -0.23,-0.148c-0.038,-0.052 -0.076,-0.105 -0.114,-0.157l0.026,-0.112c0.042,-0.094 0.06,-0.093 0.005,-0.188c-0.175,-0.126 -0.171,-0.161 -0.373,-0.086c-0.38,-0.046 -0.406,-0.146 -0.779,0.004c-0.233,-0.215 -0.019,-0.23 0.046,-0.338c0.575,0.094 0.623,0.064 0.939,-0.427Z" style="fill:#92b5c8;fill-opacity:0.99;"/><path d="M13.361,15.047c0.054,0.155 0.035,0.151 0.111,0.249c-0.083,0.089 -0.073,0.083 -0.126,0.187c-0.04,0.111 -0.079,0.222 -0.119,0.333c-0.059,0.057 -0.118,0.114 -0.177,0.172c-0.232,0.191 -0.218,0.194 -0.324,0.474c-0.262,0.08 -0.261,0.069 -0.48,0.25c-0.226,-0.022 -0.236,-0.003 -0.373,-0.184c-0.193,-0.188 -0.226,-0.088 -0.482,-0.159c0.174,-0.141 0.169,-0.155 0.188,-0.152c0.148,0.023 0.864,-0.122 0.866,-0.126c0.022,-0.074 -0.051,-0.156 -0.029,-0.23l0.036,-0.252c0.363,-0.05 0.539,-0.089 0.331,-0.392c-0.007,-0.011 -0.119,-0.173 0.031,-0.159c0.282,0.027 0.272,0.058 0.548,-0.011Z" style="fill:#c8ebf9;fill-opacity:1;"/><path d="M20.918,17.968c0.047,0.014 0.094,0.028 0.14,0.042l0.063,0.026c0.759,1.361 -0.835,1.395 -0.957,1.513c-0.055,0.012 -0.109,0.023 -0.164,0.035c-0.015,-0.068 -0.03,-0.137 -0.045,-0.205c0.122,-0.042 0.117,-0.02 0.221,-0.076c0.076,-0.04 0.036,-0.061 0.082,-0.14c0.278,-1.05 0.478,-1.049 0.659,-1.195Z" style="fill:#d0e4e9;fill-opacity:0.99;"/><path d="M16.425,15.085c0.083,0.02 0.167,0.04 0.25,0.06c0.019,0.212 0.042,0.194 0.162,0.366c-0.008,0.026 0.073,0.023 0.065,0.049c-0.017,0.053 -0.089,0.071 -0.12,0.117c-0.04,0.061 0.065,0.395 -0.192,0.372c-0.053,-0.005 -0.212,-0.019 -0.664,0.043c-0.295,0.036 -0.355,-0.026 -0.477,0.253c-0.457,-0.053 -0.425,-0.159 -0.463,-0.154c-0.036,0.005 -0.064,0.008 -0.39,0.225l-0.08,-0.021c-0.129,-0.054 -0.368,0.026 -0.232,-0.182c0.042,-0.065 0.069,-0.008 0.904,-0.356c0.325,0.202 0.36,0.106 0.646,-0.157c0.413,-0.01 0.51,-0.112 0.34,-0.481c0.05,-0.051 -0.051,-0.066 -0.001,-0.116c0.014,-0.014 0.019,-0.001 0.252,-0.019Z" style="fill:#e0f2f7;fill-opacity:1;"/><path d="M15.848,9.93c-0.391,0.397 -2.555,0.311 -3.693,0.317c0.309,-0.299 0.303,-0.294 0.31,-0.299c0.24,-0.159 1.117,-0.082 1.196,-0.082c0.256,-0 0.254,-0.155 0.475,-0.031c0.396,0.221 0.407,0.147 0.853,0.116c0.446,-0.031 0.454,-0.199 0.858,-0.022Z" style="fill:#cadee4;fill-opacity:1;"/><path d="M5.846,17.268c0.278,0.383 0.358,0.32 0.629,0.864l0.033,0.091c-0.06,0.104 -0.042,0.126 -0.16,0.143c-0.106,0.015 -0.087,0.034 -0.145,0.12c-0.258,0.383 -0.463,-0.327 -0.801,-0.004c-0.176,-0.435 -0.489,-0.633 0.259,-1.093c0.103,-0.063 0.09,-0.06 0.184,-0.122Z" style="fill:#f8f9f6;fill-opacity:1;"/><path d="M17.471,18.715c-0.101,0.216 -0.201,0.432 -0.302,0.648c-0.186,-0.097 -0.179,-0.091 -0.387,-0.065c-0.204,-0.138 -0.625,-0.292 -0.837,-0.18c-0.222,0.118 -0.298,0.072 -0.297,0.323l-0.658,-0.008c-0.032,0.001 -0.063,0.002 -0.095,0.003l-0.092,-0.002l-0.101,-0.074c-0.087,-0.136 -0.071,-0.128 -0.09,-0.277c1.564,-0.125 2.514,-0.528 2.859,-0.367Z" style="fill:#e6ebec;fill-opacity:1;"/><path d="M5.829,23.078l0.098,-0.103c0.296,-0.059 0.297,0.037 3.774,0.182c0.283,0.012 0.573,-0.035 0.85,0.024c0.066,0.014 0.029,0.164 0.094,0.178c-0.386,0.001 -3.93,0.009 -4.816,-0.282Z" style="fill:#d5d5d7;fill-opacity:0.06;"/><path d="M6.602,18c0.057,0.076 0.115,0.152 0.172,0.228c0.441,0.701 0.48,0.668 0.856,1.409c0.063,0.204 0.059,0.194 0.157,0.392c0.066,0.126 0.131,0.251 0.197,0.377c0.346,0.77 0.274,0.807 0.882,1.468c-0.098,0.021 -0.197,0.042 -0.295,0.063c-0.201,-0.376 -0.26,-0.327 -0.471,-0.692c-0.314,-0.737 -0.641,-1.353 -0.717,-1.528c-0.321,-0.767 -0.369,-0.73 -0.61,-1.014c-0.042,-0.06 -0.084,-0.119 -0.127,-0.179c-0.046,-0.1 -0.093,-0.201 -0.139,-0.301l-0.033,-0.091c0.042,-0.044 0.084,-0.088 0.126,-0.132Z" style="fill:#9fb9c7;fill-opacity:0.99;"/><path d="M21.593,10.062c0.094,0.136 0.183,0.11 0.297,1.573c-0.329,0.186 -0.329,0.147 -0.671,0.279c-0.001,-0.084 -0.093,-0.026 -0.094,-0.109c-0,-0.023 -0.001,-0.076 0.088,-0.28c0.216,-0.492 0.033,-0.5 -0.031,-1.036c-0.042,-0.354 0.091,-0.3 0.411,-0.427Z" style="fill:#caeff9;fill-opacity:1;"/><path d="M7.788,20.03c0.446,-0.23 1.418,-0.013 1.88,0.318c0.183,0.323 0.118,0.374 0.118,0.384c-1.336,0.056 -1.334,-0.434 -1.801,-0.325c-0.066,-0.126 -0.131,-0.251 -0.197,-0.377Z" style="fill:#f6f6f4;fill-opacity:1;"/><path d="M14.724,14.124c0.066,0.011 0.124,-0.075 0.419,0.277l0.14,0.042c0.05,0.164 0.012,0.184 0.17,0.271c0.125,-0.07 0.122,-0.051 0.186,-0.125c0.534,0.18 0.761,0.001 0.787,0.496c-0.233,0.018 -0.238,0.005 -0.252,0.019c-0.05,0.05 0.052,0.065 0.001,0.116c-0.029,-0.03 -0.089,-0.109 -0.336,-0.134c-0.454,-0.046 -0.429,0.063 -0.509,0.222c-0.168,-0.107 -0.153,-0.118 -0.243,-0.129c-0.124,-0.3 -0.186,-0.253 -0.335,-0.539c-0.11,-0.097 -0.22,-0.194 -0.33,-0.292c0.101,-0.075 0.202,-0.15 0.303,-0.224Z" style="fill:#e8f5f7;fill-opacity:1;"/><path d="M2.249,15.794c0,0.042 0.002,0.488 0.376,0.363c0.098,-0.033 0.143,-0.226 0.189,-0.392c0.323,0.095 0.161,0.331 0.11,0.58c-0.316,0.491 -0.364,0.521 -0.939,0.427c-0.206,-0.179 -0.21,-0.166 -0.3,-0.434c0.015,-0.199 0.018,-0.189 0.104,-0.363c0.211,-0.141 0.207,-0.123 0.46,-0.181Z" style="fill:#e5eaeb;fill-opacity:0.99;"/><path d="M7.721,15.219c0.063,0.059 0.126,0.118 0.188,0.177l0.107,0.071l0.092,0.056c-0.185,0.082 -0.178,0.09 -0.387,0.06c0.076,0.251 0.051,0.365 0.304,0.289c0.073,0.256 0.071,0.254 0.078,0.276c0.036,0.11 0.057,0.089 0.09,0.19l0.02,0.096c-0.041,-0.014 -0.063,0.093 -0.105,0.079c-0.024,-0.008 -0.239,-0.393 -0.865,-0.641c-0.182,-0.072 -0.198,-0.131 -0.334,0.01c-0.014,0.014 -0.015,0.01 -0.208,0.136c-0.616,-0.475 0.211,-0.378 0.285,-0.516c0.17,-0.319 0.287,-0.216 0.733,-0.283Z" style="fill:#cbecf8;fill-opacity:0.99;"/><path d="M9.601,18.814c1.772,0.359 -1.751,0.397 -1.966,0.236c-0.024,-0.018 -1.255,-1.182 -0.008,-0.378c0.055,0.035 0.842,0.239 1.974,0.142Z" style="fill:#c5d6dc;fill-opacity:0.99;"/><path d="M11.391,16.368c0.256,0.071 0.289,-0.029 0.482,0.159c-0.124,0.19 -0.147,0.222 0.05,0.402c0.115,0.106 0.012,0.2 0.006,0.217c-0.275,0.045 -0.253,-0.365 -0.438,-0.158c-0.16,0.179 -0.056,0.259 -0.275,0.356c-0.098,0.006 -0.095,-0.014 -0.181,0.049l-0.094,-0.129c0.038,-0.113 0.365,-0.29 -0.293,-0.699c0.332,-0.259 0.354,-0.208 0.743,-0.198Z" style="fill:#d5f0f9;fill-opacity:1;"/><path d="M6.028,11.217c0.135,0.07 0.184,0.051 0.151,0.206c-0.274,1.306 -0.322,1.402 -0.634,1.36c-0.823,-0.112 -0.479,-0.489 -0.386,-0.978c0.025,0.088 0.168,0.107 0.193,0.194c0.1,0.359 -0.036,0.378 -0.007,0.39c0.632,0.275 0.172,-0.403 0.684,-1.172Z" style="fill:#ebfcfc;fill-opacity:1;"/><path d="M22.449,9.569l0.074,0.09c0.138,0.828 0.07,0.841 0.274,1.3c0.171,0.384 -0.387,0.443 -0.437,0.448c-0.033,-0.116 -0.223,-0.781 -0.21,-1.489c0.083,-0.083 0.275,-0.32 0.298,-0.349Z" style="fill:#bee9f6;fill-opacity:1;"/><path d="M21.88,21.208c0.679,0.028 0.799,-0.042 1.107,0.17c0.534,0.368 0.948,0.365 0.565,0.691c-0.07,0.06 -0.084,-0.007 -1.104,0.324c-0.03,0.01 -0.064,0.021 -0.389,0.036c0.435,-0.421 0.516,-0.249 1.085,-0.486c-0.015,-0.043 -0.03,-0.086 -0.045,-0.129c-0.002,-0.043 0.063,-0.048 -0.004,-0.087c-0.78,-0.456 -0.853,-0.221 -1.124,-0.356c-0.055,-0.028 -0.035,-0.134 -0.09,-0.162Z" style="fill:#d4d5d6;fill-opacity:0.09;"/><path d="M11.895,13.127c0.044,0.234 -0.001,0.314 0.241,0.321c0.241,0.007 0.222,0.045 0.391,0.165l0.011,0.06c-0.298,0.541 -0.446,0.295 -0.673,0.125c0.019,-0.189 0.131,-0.234 -0.044,-0.33c-0.178,-0.097 -0.224,-0.06 -0.25,0.135c-1.121,-0.206 -0.615,-0.642 -0.549,-0.66c0.123,-0.034 0.504,0.194 0.872,0.185Z" style="fill:#e1f5fa;fill-opacity:1;"/><path d="M9.43,17.448l0.067,0.054c0.033,0.028 0.066,0.055 0.099,0.083c0.041,0.014 0.082,0.028 0.123,0.041c0.376,0.082 0.3,0.235 0.457,0.253c0.05,0.006 0.064,-0.107 0.114,-0.101c0.176,-0.142 0.146,-0.18 0.355,-0.208c0.21,0.197 0.153,0.243 0.388,0.411c0.025,0.018 0.063,-0.045 0.089,-0.027c-0.518,0.147 -0.528,0.062 -1.048,0.229c-0.09,0.029 -0.567,-0.113 -0.628,-0.179c-0.127,-0.139 -0.273,-0.023 -0.309,-0.346c0.161,-0.098 0.15,-0.098 0.293,-0.209Z" style="fill:#e2f4f7;fill-opacity:0.99;"/><path d="M22.151,9.918c-0.014,0.708 0.177,1.373 0.21,1.489c-0.355,0.193 -0.341,0.207 -0.472,0.228c-0.113,-1.463 -0.203,-1.437 -0.297,-1.573c0.24,-0.077 0.238,-0.077 0.259,-0.084c0.07,-0.022 0.058,0.005 0.119,-0.011c0.097,-0.027 0.088,-0.024 0.181,-0.049Z" style="fill:#ddfcfe;fill-opacity:0.99;"/><path d="M6.028,11.217c-0.512,0.77 -0.052,1.447 -0.684,1.172c-0.029,-0.012 0.107,-0.031 0.007,-0.39c-0.025,-0.088 -0.168,-0.107 -0.193,-0.194c0.051,-0.29 0.052,-0.281 0.098,-0.564c0.046,-0.282 0.612,-0.058 0.771,-0.023Z" style="fill:#dbf9fc;fill-opacity:1;"/><path d="M21.405,15.78c0.776,0.066 1.27,-0.056 0.947,0.656c-0.135,0.297 -0.591,0.33 -0.649,0.334c0.003,-0.083 0.016,-0.423 -0.298,-0.989Z" style="fill:#fafaf9;fill-opacity:0.99;"/><path d="M4.779,19.089c0.063,0.041 0.189,0.123 0.901,0.259c0.092,0.247 0.183,0.494 0.275,0.741c-0.116,0.018 -0.014,0.138 -0.121,0.154c-0.018,0.003 -0.008,-0.018 -0.2,-0.105c-0.198,-0.089 -0.763,-0.269 -0.815,-0.897c-0.013,-0.051 -0.026,-0.101 -0.039,-0.152Z" style="fill:#adc8d4;fill-opacity:1;"/><path d="M16.115,7.384c0.098,0.005 0.197,0.01 0.295,0.015c-0.001,0.842 0.052,0.829 0.302,1.629c-0.329,0.115 -0.323,0.048 -0.676,-0.027c0.117,-0.816 0.087,-0.806 0.078,-1.617Z" style="fill:#cedde2;fill-opacity:0.99;"/><path d="M12.903,14.709c0.281,0.123 0.336,0.055 0.458,0.337c-0.276,0.069 -0.266,0.038 -0.548,0.011c-0.15,-0.015 -0.038,0.148 -0.031,0.159c0.208,0.303 0.032,0.342 -0.331,0.392c-0.328,-0.046 -0.217,-0.173 -0.21,-0.504l0.029,-0.077c0.003,-0.045 0.005,-0.089 0.008,-0.134l-0.029,-0.063c0.31,-0.145 0.327,-0.033 0.653,-0.121Z" style="fill:#ccedfa;fill-opacity:1;"/><path d="M8.271,15.51c0.063,-0.009 0.09,-0.106 0.153,-0.116c0.033,-0.005 0.022,0.073 0.053,0.085c0.37,0.134 0.385,0.046 0.756,0.194c0.235,0.064 0.231,0.015 0.474,0.024c0.03,-0.002 0.061,-0.005 0.091,-0.007c0.062,-0.01 0.124,-0.02 0.185,-0.029c0.116,0.079 0.106,0.077 0.176,0.194c-0.029,0.014 -0.265,0.128 -0.349,0.212l-0.073,0.078c-0.103,-0.173 -0.115,-0.168 -0.315,-0.196c-0.18,-0.025 -0.869,-0.002 -0.944,0c-0.117,-0.065 -0.11,-0.049 -0.217,-0.152c0.004,-0.096 0.007,-0.192 0.011,-0.287Z" style="fill:#c7ebfa;fill-opacity:1;"/><path d="M8.952,14.182c-0.173,0.162 -0.031,0.349 -0.013,0.373c0.117,0.249 0.245,0.255 0.101,0.46c-0.255,0.034 -0.253,0.032 -0.275,0.037c-0.062,0.013 -0.043,0.034 -0.107,0.047c-0.328,0.148 -0.344,0.182 -0.654,0.004c0.255,-0.072 0.465,0.065 0.361,-0.18c-0.098,-0.23 -0.063,-0.232 -0.005,-0.48c0.25,-0.294 0.253,-0.437 0.592,-0.261Z" style="fill:#eaf7f8;fill-opacity:1;"/><path d="M19.022,7.61c0.87,-0.012 0.888,0.078 0.86,0.142c-0.017,0.039 -0.028,0.029 -0.249,0.475c-0.072,0.027 -0.144,0.055 -0.216,0.082c-0.336,0.265 -0.33,0.306 -0.361,0.286c-0.126,-0.077 -0.041,-0.907 -0.033,-0.985Z" style="fill:#e8eeee;fill-opacity:0.99;"/><path d="M11.495,14.73c0.315,-0.077 0.307,-0.007 0.667,0.077c-0.176,0.11 -0.266,0.09 -0.194,0.21c0.083,0.138 0.106,0.079 0.274,0.087c-0.007,0.331 -0.118,0.458 0.21,0.504l-0.036,0.252c-0.082,0.019 -0.806,0.182 -0.988,-0.371c-0.015,-0.045 0.07,-0.086 0.055,-0.131l0.042,-0.013c0.017,0.008 0.77,0.547 0.465,0.039c-0.021,-0.036 -0.266,-0.213 -0.495,-0.653Z" style="fill:#c8ebf9;fill-opacity:1;"/><path d="M1.775,12.278l0.395,0.151c-0.006,0.059 -0.109,0.076 -0.115,0.134c-0.08,0.732 0.406,1.639 0.475,1.768l-0.098,0.014c-0.061,0.003 -0.122,0.005 -0.184,0.008c-0.338,-0.673 -0.477,-0.95 -0.474,-2.075Z" style="fill:#e3eaec;fill-opacity:0.99;"/><path d="M5.435,16.036c0.044,0.354 0.154,0.28 0.481,0.419l0.046,0.052c-0.034,0.069 -0.265,0.539 0.321,0.899c0.111,0.189 0.113,0.173 0.255,0.35l0.064,0.244c-0.042,0.044 -0.084,0.088 -0.126,0.132c-0.271,-0.544 -0.351,-0.481 -0.629,-0.864c-0.053,-0.059 -0.107,-0.117 -0.16,-0.176c-0.044,-0.177 0.077,-0.342 -0.456,-0.817c0.034,-0.202 0.023,-0.207 0.036,-0.219c0.042,-0.037 0.125,0.016 0.167,-0.021Z" style="fill:#aec4d1;fill-opacity:0.99;"/><path d="M15.087,15.179c0.09,0.011 0.076,0.022 0.243,0.129c0.013,0.028 0.096,0.209 0.134,0.355c-0.156,0.026 -0.139,0.031 -0.262,0.115c-0.059,-0.009 -0.062,-0.123 -0.121,-0.132c-0.179,-0.027 -0.332,0.438 -0.717,-0.16c0.158,-0.426 0.264,-0.337 0.722,-0.308Z" style="fill:#e3f5f8;fill-opacity:1;"/><path d="M6.774,18.703c0.241,0.284 0.289,0.247 0.61,1.014c-0.382,0.066 -0.332,-0.09 -1.109,-0.671c0.294,-0.172 0.462,-0.312 0.499,-0.343Z" style="fill:#fafaf7;fill-opacity:0.99;"/><path d="M2.425,14.616c0.023,0.018 0.064,-0.031 0.087,-0.013c0.334,0.265 -0.505,0.49 -0.737,0.383c-0.244,-0.113 -0.239,-0.009 -0.481,0.115c-0.133,0.068 -0.125,0.001 -0.403,-0.18c0.108,-0.058 0.215,-0.116 0.323,-0.174c0.232,-0.027 0.797,-0.14 1.212,-0.131Z" style="fill:#e3e9eb;fill-opacity:0.99;"/><path d="M16.175,15.22c0.17,0.369 0.073,0.471 -0.34,0.481c-0.184,-0.037 -0.341,-0.037 -0.371,-0.038c-0.038,-0.147 -0.121,-0.328 -0.134,-0.355c0.08,-0.159 0.054,-0.268 0.509,-0.222c0.247,0.025 0.306,0.104 0.336,0.134Z" style="fill:#f7faf8;fill-opacity:0.99;"/><path d="M2.17,12.429c0.091,0.03 0.181,0.06 0.272,0.09c-0.167,0.873 0.03,0.857 0.196,1.728l-0.107,0.084c-0.069,-0.129 -0.555,-1.036 -0.475,-1.768c0.006,-0.059 0.109,-0.076 0.115,-0.134Z" style="fill:#d1dee3;fill-opacity:1;"/><path d="M14.99,7.366c0.059,-0.003 0.118,-0.007 0.176,-0.01c0.178,0.837 0.09,0.84 0.115,1.149c0.01,0.126 0.027,0.111 0.195,0.439c-0.094,0.031 -0.017,0.108 -0.112,0.139c-0.008,0.003 0.091,-0.07 -0.065,-0.081c-0.018,-0.001 0.023,0.065 -0.198,0.106c-0.053,-0.668 -0.052,-0.668 -0.055,-0.692c-0.038,-0.163 0.013,-0.187 -0.131,-0.292c-0.004,-0.182 0.089,-0.347 0.074,-0.759Z" style="fill:#d3dfe4;fill-opacity:1;"/><path d="M3.659,7.535c0.134,0.054 0.14,0.029 0.241,0.123c0.103,0.232 0.124,0.208 0.31,0.383c0.03,0.032 0.06,0.065 0.09,0.097c0.043,0.04 0.028,0.042 0.064,0.075c0.015,0.014 0.014,0.013 0.195,0.171c-0.083,0.006 -0.169,0.171 -0.351,-0.045c-0.25,-0.295 -1.721,-0.564 -0.548,-0.804Z" style="fill:#afc3cc;fill-opacity:1;"/><path d="M9.905,16.761c-0.177,0.217 -0.005,0.231 0.27,0.252c0.079,0.177 0.047,0.17 0.016,0.371c-0.079,-0.085 -0.01,-0.152 -0.206,-0.223c-0.088,-0.032 -0.149,0.2 -0.489,0.342l-0.067,-0.054l-0.05,-0.12l-0.043,-0.067c0,-0.022 -0.003,-0.019 -0.023,-0.268c-0.004,-0.12 0.014,-0.12 -0.067,-0.22c0.04,-0.03 0.028,-0.19 0.659,-0.012Z" style="fill:#cfedf8;fill-opacity:0.99;"/><path d="M10.648,16.566c0.658,0.409 0.331,0.585 0.293,0.699c-0.046,-0.029 -0.291,-0.182 -0.558,-0.384c-0.014,0.014 -0.026,-0.007 -0.208,0.132c-0.275,-0.021 -0.447,-0.035 -0.27,-0.252c0.379,-0.077 0.349,-0.151 0.743,-0.196Z" style="fill:#e0f3f8;fill-opacity:0.99;"/><path d="M13.477,14.184l0.091,0.006l0.103,0.067c0.013,0.058 0.027,0.116 0.04,0.174l-0.045,0.115c0.002,0.172 0.018,0.161 0.137,0.283c-0.017,0.092 -0.033,0.184 -0.05,0.276c-0.109,0.084 -0.258,0.177 -0.281,0.191c-0.076,-0.098 -0.057,-0.094 -0.111,-0.249c-0.122,-0.282 -0.177,-0.214 -0.458,-0.337c0.258,-0.196 0.506,0.071 0.493,-0.252c-0.006,-0.154 0.039,-0.133 0.081,-0.273Z" style="fill:#d2eff9;fill-opacity:1;"/><path d="M16.746,21.141c0.131,0.152 0.124,0.17 0.337,0.162c0.256,-0.01 0.236,0.04 0.494,0.084c-0.54,0.442 -1.209,0.626 -1.181,0.427c0.006,-0.045 0.322,-0.619 0.351,-0.673Z" style="fill:#dee6e8;fill-opacity:1;"/><path d="M22.451,16.909c-0.533,0.599 -0.494,0.656 -1.226,0.979c-0.37,-0.39 0.17,-0.235 0.25,-0.356c0.009,-0.013 -0.047,-0.016 0.045,-0.191c0.18,-0.087 0.164,-0.1 0.452,-0.329c0.423,-0.218 0.433,-0.121 0.479,-0.104Z" style="fill:#afcad7;fill-opacity:1;"/><path d="M8.005,15.103c0.31,0.178 0.325,0.144 0.654,-0.004c0.022,0.024 0.279,0.303 0.279,0.303c0.017,0.012 0.017,-0.007 0.236,-0.105c0.067,0.189 0.069,0.178 0.06,0.376c-0.371,-0.148 -0.386,-0.06 -0.756,-0.194c-0.031,-0.011 -0.02,-0.09 -0.053,-0.085c-0.063,0.009 -0.09,0.106 -0.153,0.116c-0.054,0.004 -0.108,0.008 -0.163,0.012l-0.092,-0.056c-0.036,-0.024 -0.071,-0.047 -0.107,-0.071c-0.063,-0.059 -0.126,-0.118 -0.188,-0.177c0.041,-0.062 0.069,-0.039 0.07,-0.107c0.001,-0.158 0.076,-0.061 0.214,-0.008Z" style="fill:#c4eaf9;fill-opacity:1;"/><path d="M9.805,13.895c0.059,0.025 0.137,-0.076 0.367,0.293c-0.368,0.202 -0.364,0.357 -0.753,0.191c-0.266,-0.114 -0.261,-0.009 -0.48,0.176c-0.018,-0.024 -0.159,-0.211 0.013,-0.373c0.467,-0.116 0.552,0.072 0.853,-0.287Z" style="fill:#ddf3f9;fill-opacity:1;"/><path d="M15.742,17.308c0.298,0.08 0.356,0.174 0.153,0.4c-0.097,0.029 -0.923,0.276 -1.259,-0.152l0.039,-0.096c0.211,-0.117 0.207,-0.128 0.227,-0.127c0.148,0.01 0.252,0.637 0.728,0.126c0.037,-0.05 0.075,-0.101 0.112,-0.151Z" style="fill:#e0e9eb;fill-opacity:0.99;"/><path d="M14.418,13.89c0.245,-0.196 0.267,-0.107 0.571,-0.026c0.029,0.008 0.314,0.088 0.338,0.151c0.121,0.311 0.145,0.287 0.311,0.573c-0.107,0.054 -0.116,0.033 -0.186,0.125c-0.158,-0.087 -0.12,-0.106 -0.17,-0.271c-0.047,-0.014 -0.093,-0.028 -0.14,-0.042c-0.295,-0.352 -0.352,-0.266 -0.419,-0.277c-0.147,-0.144 -0.136,-0.138 -0.306,-0.234Z" style="fill:#f1f9f7;fill-opacity:1;"/><path d="M9.882,13.507c0.435,0.211 0.558,0.103 0.711,0.173c0.038,0.017 0.017,0.094 0.054,0.111c-0.037,0.619 -0.394,0.389 -0.476,0.397c-0.23,-0.369 -0.308,-0.268 -0.367,-0.293c-0.001,-0.066 -0.003,-0.133 -0.004,-0.199c0.027,-0.063 0.054,-0.126 0.082,-0.189Z" style="fill:#ebf8f9;fill-opacity:1;"/><path d="M17.51,7.494c0.076,0.004 0.153,0.008 0.229,0.012c-0.019,0.099 -0.163,0.863 0.007,1.265c-0.032,0.043 0.062,0.117 -0.129,0.17c-0.017,0.005 -0.016,-0.005 -0.21,-0.066c-0.024,-1.007 0.068,-1.276 0.104,-1.381Z" style="fill:#cbdae0;fill-opacity:1;"/><path d="M10.383,16.88c0.267,0.202 0.512,0.355 0.558,0.384l0.094,0.129c-0.224,0.022 -0.205,0.052 -0.39,0.177c-0.209,0.029 -0.18,0.067 -0.355,0.208c-0.073,-0.233 -0.093,-0.362 -0.098,-0.394c0.03,-0.201 0.063,-0.194 -0.016,-0.371c0.183,-0.139 0.195,-0.118 0.208,-0.132Z" style="fill:#daf2f8;fill-opacity:0.99;"/><path d="M6.508,18.224c0.046,0.1 0.093,0.201 0.139,0.301c-0.703,0.707 -1.065,0.151 -1.245,-0.041c0.338,-0.323 0.543,0.387 0.801,0.004c0.058,-0.086 0.039,-0.105 0.145,-0.12c0.118,-0.017 0.099,-0.039 0.16,-0.143Z" style="fill:#e1e8ea;fill-opacity:0.99;"/><path d="M8.193,7.382c0.289,0.734 0.267,0.732 0.505,1.487c-0.102,0.042 -0.204,0.085 -0.306,0.127c0.045,-0.386 -0.316,-1.308 -0.325,-1.426c-0.006,-0.075 0.132,-0.113 0.126,-0.188Z" style="fill:#cddbe0;fill-opacity:1;"/><path d="M11.209,9.141c-0.009,-0.126 -0.107,-1.562 -0.097,-1.577c0.031,-0.048 0.109,-0.049 0.14,-0.096c0.223,0.842 0.133,0.846 0.142,1.711c-0.061,-0.013 -0.123,-0.025 -0.184,-0.038Z" style="fill:#d5e0e4;fill-opacity:0.99;"/><path d="M1.939,17.11c0.374,-0.15 0.399,-0.05 0.779,-0.004c0.031,0.058 -0.058,0.117 0.342,0.387c0.038,0.052 0.076,0.105 0.114,0.157c-0.024,0.04 -0.047,0.081 -0.071,0.121l-0.11,0.004c-0.256,-0.169 -0.234,-0.188 -1.055,-0.665Z" style="fill:#b2ccd7;fill-opacity:0.99;"/><path d="M14.752,14.64c0.149,0.286 0.211,0.239 0.335,0.539c-0.458,-0.029 -0.564,-0.118 -0.722,0.308c-0.033,-0.058 -0.215,-0.488 -0.181,-0.546c0.005,-0.008 0.523,-0.276 0.568,-0.3Z" style="fill:#e3f4f8;fill-opacity:0.99;"/><path d="M14.299,13.831c0.04,0.02 0.079,0.039 0.119,0.059c0.17,0.096 0.159,0.09 0.306,0.234c-0.101,0.075 -0.202,0.15 -0.303,0.224c-0.352,-0.027 -0.396,0.011 -0.56,-0.294c-0.014,-0.026 -0.088,-0.024 -0.009,-0.063c0.064,-0.032 0.106,-0.099 0.17,-0.131c0.129,-0.025 0.254,-0.029 0.277,-0.03Z" style="fill:#eaf7f8;fill-opacity:1;"/><path d="M19.275,15.693c-0.082,0.132 -0.07,0.122 -0.122,0.269c-0.383,-0.141 -2.647,0.226 -0.945,-0.247c0.409,-0.114 0.581,0.027 1.067,-0.022Z" style="fill:#d5dfe4;fill-opacity:1;"/><path d="M4.224,22.888c0.475,-0.265 1.572,0.05 1.703,0.088l-0.098,0.103c-0.82,-0.019 -0.825,0.066 -1.605,-0.19Z" style="fill:#d7d7d9;fill-opacity:0.1;"/><path d="M5.769,15.79c-0.156,0.147 -0.151,0.13 -0.334,0.246c-0.042,0.037 -0.125,-0.016 -0.167,0.021c-0.013,0.012 -0.003,0.016 -0.036,0.219c-0.476,-0.226 -0.481,-0.2 -0.522,-0.22c0.018,-0.043 0.125,-0.305 0.272,-0.296c0.692,0.043 0.618,-0.236 0.67,-0.214c0.083,0.036 0.035,0.208 0.118,0.244Z" style="fill:#ccdde5;fill-opacity:0.99;"/><path d="M19.046,22.883c-0.92,0.24 -1.643,0.225 -1.787,0.222l-0.101,-0.028c0.131,-0.075 0.09,-0.134 0.28,-0.161c1.339,-0.191 1.496,-0.099 1.607,-0.034Z" style="fill:#d2d3d5;fill-opacity:0.05;"/><path d="M5.916,16.455c0.607,0.21 1.248,0.177 1.344,0.643l-0.045,0.052c-1.021,-0.44 -1.067,-0.375 -1.253,-0.642l-0.046,-0.052Z" style="fill:#c3d5df;fill-opacity:0.99;"/><path d="M16.852,20.871c0.476,0.153 0.487,0.056 0.973,0.19c-0.106,0.183 -0.113,0.166 -0.249,0.326c-0.257,-0.044 -0.237,-0.094 -0.494,-0.084c-0.212,0.008 -0.206,-0.01 -0.337,-0.162l0.106,-0.27Z" style="fill:#e4e9eb;fill-opacity:1;"/><path d="M12.164,2.936l0.133,0.451c-0.014,0.037 -0.19,0.03 -0.109,0.283c0.184,0.577 0.249,0.544 0.255,0.596c0.007,0.051 -0.117,0.057 -0.111,0.108c-0.544,-0.822 -0.397,-1.194 -0.169,-1.438Z" style="fill:#d8f6fc;fill-opacity:0.99;"/><path d="M10.191,17.384c0.005,0.032 0.025,0.162 0.098,0.394c-0.05,-0.006 -0.064,0.107 -0.114,0.101c-0.157,-0.018 -0.081,-0.171 -0.457,-0.253c-0.041,-0.014 -0.082,-0.028 -0.123,-0.041c-0.033,-0.028 -0.066,-0.055 -0.099,-0.083c0.34,-0.142 0.401,-0.374 0.489,-0.342c0.196,0.072 0.128,0.138 0.206,0.223Z" style="fill:#d6f1f8;fill-opacity:1;"/><path d="M21.405,15.78c0.314,0.567 0.301,0.907 0.298,0.989c-0.071,-0.037 -0.662,-0.349 -0.463,-0.892c0.027,-0.073 0.041,-0.049 0.165,-0.097Z" style="fill:#dbe4e8;fill-opacity:1;"/><path d="M21.112,22.639c-0.818,0.277 -0.878,0.154 -1.312,0.153c0.063,-0.02 0.031,-0.154 0.093,-0.175c0.093,-0.03 0.999,-0.324 1.218,0.022Z" style="fill:#d4d5d6;fill-opacity:0.09;"/><path d="M16.782,19.298c-0.557,0.141 -0.554,0.107 -1.134,0.143c-0.001,-0.251 0.075,-0.205 0.297,-0.323c0.212,-0.112 0.633,0.042 0.837,0.18Z" style="fill:#eaeeed;fill-opacity:0.99;"/><path d="M18.195,10.124c-0.158,0.294 -0.218,0.243 -0.939,0.369c-0.337,0.059 -0.34,0.083 -0.363,0.064c-0.084,-0.071 -0.052,-0.233 1.302,-0.433Z" style="fill:#d8dddf;fill-opacity:1;"/><path d="M6.282,17.406c0.207,-0.061 0.189,-0.108 0.4,-0.117c0.179,-0.008 0.173,-0.017 0.188,-0.017c0.279,0.014 0.237,0.411 -0.333,0.484c-0.142,-0.177 -0.144,-0.161 -0.255,-0.35Z" style="fill:#dbe5e8;fill-opacity:0.99;"/><path d="M14.423,19.082c0.033,0.002 0.065,0.004 0.098,0.007l0.092,-0.007c0.019,0.149 0.004,0.141 0.09,0.277l0.017,0.054c-0.221,0.17 -0.228,0.162 -0.239,0.184c-0.117,0.222 -0.15,0.012 -0.346,-0.143c-0.029,-0.023 -0.308,-0.244 0.288,-0.372Z" style="fill:#f7f7f4;fill-opacity:1;"/><path d="M15.555,11.066c0.017,0.035 0.091,0.005 0.108,0.04c0.037,0.074 0.114,0.313 -0.963,0.371c-1.076,0.057 0.781,-0.393 0.855,-0.41Z" style="fill:#a9beca;fill-opacity:1;"/><path d="M13.346,15.483c0.388,0.098 0.386,0.097 0.413,0.106c0.098,0.051 0.107,0.024 0.156,0.119l0.05,0.079c-0.338,0.196 -0.431,0.14 -0.568,0.155c-0.094,-0.059 -0.071,-0.065 -0.17,-0.126c0.04,-0.111 0.079,-0.222 0.119,-0.333Z" style="fill:#d5f0f9;fill-opacity:1;"/><path d="M9.246,16.773c0.081,0.1 0.063,0.1 0.067,0.22c-0.06,0.033 -0.12,0.066 -0.18,0.099l-0.062,0.101l-0.105,-0.107c-0.242,-0.366 -0.241,-0.357 -0.301,-0.686c-0.018,-0.098 0.269,-0.061 0.21,0.128c-0.04,0.128 0.035,0.092 0.371,0.246Z" style="fill:#daf2f9;fill-opacity:1;"/><path d="M20.686,16.648l-0.042,0.063l-0.05,0.045c-0.362,-0.2 -0.412,0.022 -0.786,-0.139c-0.801,-0.346 0.343,-0.224 0.378,-0.221c0.122,0.013 0.259,-0.047 0.368,0.008c0.083,0.042 0.05,0.203 0.133,0.244Z" style="fill:#dce5e8;fill-opacity:1;"/><path d="M11.929,17.146c-0.002,0.02 -0.029,0.248 -0.029,0.248c0.023,0.274 -0.141,0.071 -0.405,0.076c-0.165,0.003 -0.129,-0.058 -0.279,-0.126c0.219,-0.097 0.115,-0.177 0.275,-0.356c0.185,-0.206 0.163,0.203 0.438,0.158Z" style="fill:#daf1f8;fill-opacity:1;"/><path d="M12.915,13.779c0.413,0.086 0.464,0.044 0.652,0.411l-0.091,-0.006c-0.456,0.158 -0.674,-0.106 -0.711,-0.151l0.149,-0.255Z" style="fill:#dff4f9;fill-opacity:1;"/><path d="M20.683,17.798c-0.185,0.325 -0.188,0.327 -0.488,0.468c-0.029,-0.129 -0.094,-0.112 -0.054,-0.243c0.119,-0.388 0.225,-0.361 0.542,-0.225Z" style="fill:#94bbce;fill-opacity:0.99;"/><path d="M10.75,15.11c-0.213,-0.446 0.154,-0.171 0.278,-0.133c0.352,0.11 0.523,0.002 0.497,0.368l-0.042,0.013c-0.058,-0.008 -0.117,-0.015 -0.175,-0.023c-0.189,-0.113 -0.511,-0.212 -0.557,-0.226Z" style="fill:#b6e3f8;fill-opacity:0.99;"/><path d="M10.929,11.587c-0.05,-0.003 -3.357,-0.419 -0.567,-0.269c0.05,0.003 1.23,0.066 0.567,0.269Z" style="fill:#98b0bc;fill-opacity:0.99;"/><path d="M12.297,3.388c0.177,0.478 0.324,0.872 0.352,0.948c-0.167,0.051 -0.159,0.097 -0.316,0.039c-0.007,-0.051 0.117,-0.057 0.111,-0.108c-0.007,-0.051 -0.071,-0.019 -0.255,-0.596c-0.081,-0.253 0.094,-0.246 0.109,-0.283Z" style="fill:#c0ebf9;fill-opacity:1;"/><path d="M0.619,15.683c0.18,0.529 0.205,0.507 0.383,1.049c-0.613,-0.423 -0.599,-0.684 -0.383,-1.049Z" style="fill:#b1babf;fill-opacity:0.05;"/><path d="M10.433,15.328c0.04,0.022 0.081,0.043 0.121,0.065c0.028,0.075 0.056,0.149 0.083,0.224c-0.277,0.142 -0.265,0.147 -0.289,0.157c-0.063,0.027 -0.126,0.054 -0.189,0.081c-0.07,-0.117 -0.06,-0.115 -0.176,-0.194c0.029,-0.058 0.058,-0.117 0.087,-0.175c0.257,-0.138 0.255,-0.139 0.278,-0.15c0.044,-0.021 0.045,0.011 0.085,-0.008Z" style="fill:#c8ebfa;fill-opacity:1;"/><path d="M8.26,15.798c0.108,0.103 0.1,0.087 0.217,0.152c-0.004,0.031 -0.029,0.214 -0.005,0.389c-0.224,0.022 -0.219,0.042 -0.279,0c-0.033,-0.101 -0.054,-0.08 -0.09,-0.19c-0.007,-0.022 -0.006,-0.02 -0.078,-0.276c0.068,-0.134 0.088,-0.116 0.235,-0.075Z" style="fill:#d5f0fa;fill-opacity:1;"/><path d="M4.299,18.916c0.232,-0.377 0.331,-0.125 0.479,0.173c0.013,0.051 0.026,0.101 0.039,0.152c-0.474,0.088 -0.456,-0.199 -0.519,-0.324Z" style="fill:#b1cdd9;fill-opacity:0.99;"/><path d="M23.435,10.598c0.049,0.148 0.043,0.137 0.128,0.272c0.173,0.312 0.156,0.313 0.149,0.664c-0.187,0.165 -0.179,0.169 -0.198,0.18c-0.038,-0.501 -0.112,-0.656 -0.079,-1.116Z" style="fill:#b6c6ce;fill-opacity:0.11;"/><path d="M10.75,15.11c0.046,0.014 0.368,0.112 0.557,0.226c-0.308,0.112 -0.287,0.13 -0.573,0.28l-0.096,0.002c-0.028,-0.075 -0.056,-0.149 -0.083,-0.224c0.117,-0.14 0.115,-0.126 0.195,-0.283Z" style="fill:#bae5f8;fill-opacity:0.99;"/><path d="M14.05,21.05c0.03,-0.284 0.06,-0.318 0.367,-0.325c0.028,-0.001 -0.034,0.113 -0.001,0.237c0.003,0.011 0.095,0.27 0.103,0.293c-0.194,0.01 -0.181,-0.002 -0.372,-0.039l-0.023,-0.045c-0.025,-0.04 -0.05,-0.081 -0.075,-0.121Z" style="fill:#e3ecef;fill-opacity:1;"/><path d="M21.595,6.988c0.4,-0.248 0.844,0.322 0.881,0.55c-0.444,-0.28 -0.481,-0.204 -0.881,-0.55Z" style="fill:#a0a9ae;fill-opacity:0.05;"/><path d="M2.249,15.794c0.188,-0.01 0.377,-0.019 0.565,-0.029c-0.046,0.167 -0.091,0.36 -0.189,0.392c-0.375,0.125 -0.376,-0.321 -0.376,-0.363Z" style="fill:#ecf0f1;fill-opacity:1;"/><path d="M13.504,2.639c0.067,0.059 0.571,0.101 0.461,0.948c-0.383,-0.651 -0.368,-0.651 -0.461,-0.948Z" style="fill:#88a0ad;fill-opacity:0.08;"/><path d="M13.753,15.104c0.044,0.024 0.334,0.012 0.006,0.484c-0.027,-0.009 -0.025,-0.008 -0.413,-0.106c0.053,-0.104 0.043,-0.098 0.126,-0.187c0.023,-0.014 0.172,-0.107 0.281,-0.191Z" style="fill:#e2f3f6;fill-opacity:1;"/><path d="M3.839,18.043c0.049,0.039 0.057,0.009 0.106,0.049c0.014,0.011 0.013,0.011 0.172,0.147c0.016,0.042 0.074,0.187 0.111,0.552c-0.012,-0.006 -0.405,0.027 -0.39,-0.749Z" style="fill:#aac8d6;fill-opacity:1;"/><path d="M1.075,16.828c0.368,0.415 0.392,0.377 0.763,0.784c-0.367,0.184 -0.782,-0.55 -0.763,-0.784Z" style="fill:#b2bbc0;fill-opacity:0.07;"/><path d="M10.638,15.617l0.096,-0.002c0.024,0.03 0.09,-0.013 0.114,0.017c0.164,0.211 -0.315,0.777 -0.498,0.141c0.024,-0.011 0.012,-0.015 0.289,-0.157Z" style="fill:#d1eef9;fill-opacity:0.99;"/><path d="M12.449,16.944c0.049,0.021 0.468,0.198 0.569,0.351c-0.051,0.016 -0.838,0.269 -0.569,-0.351Z" style="fill:#dcf1f6;fill-opacity:0.99;"/><path d="M9.806,12.992c0.026,0.068 -0.014,0.066 0.013,0.138c0.088,0.232 0.16,0.013 0.172,0.014c-0.036,0.121 -0.073,0.242 -0.109,0.363c-0.027,0.063 -0.054,0.126 -0.082,0.189c-0.544,-0.551 -0.049,-0.688 0.006,-0.703Z" style="fill:#ebf8f9;fill-opacity:1;"/><path d="M13.664,11.319c0.253,0.028 0.259,0.014 0.273,0.03c0.145,0.174 -0.506,0.215 -0.554,0.218c-1.245,0.079 0.251,-0.242 0.28,-0.248Z" style="fill:#9ab1bd;fill-opacity:1;"/><path d="M10.433,15.328c-0.04,0.019 -0.041,-0.012 -0.085,0.008c-0.023,0.011 -0.021,0.011 -0.278,0.15c-0.041,-0.032 0.049,-0.123 0.008,-0.156c-0.004,-0.003 -0.58,0.149 -0.107,-0.235c0.032,-0.026 0.221,-0.179 0.462,0.233Z" style="fill:#c4eafa;fill-opacity:1;"/><path d="M12.617,2.378c0.071,-0.042 0.083,-0.153 0.154,-0.195c0.031,-0.018 -0.014,0.041 0.23,0.38c0.171,0.237 -0.028,0.383 -0.035,0.396l-0.349,-0.581Z" style="fill:#68a4c9;fill-opacity:1;"/><path d="M9.04,15.015c0.066,0.006 0.132,0.012 0.199,0.017c-0.052,0.14 -0.019,0.135 -0.065,0.265c-0.22,0.097 -0.22,0.117 -0.236,0.105c-0,-0 -0.256,-0.279 -0.279,-0.303c0.064,-0.014 0.045,-0.034 0.107,-0.047c0.022,-0.005 0.02,-0.003 0.275,-0.037Z" style="fill:#c6ebfa;fill-opacity:1;"/><path d="M19.36,17.962c-0.252,0.233 -0.259,0.224 -0.597,0.214c0.124,-0.39 0.228,-0.378 0.597,-0.214Z" style="fill:#ebeff0;fill-opacity:1;"/><path d="M15.928,16.092c0.383,0.321 -0.328,0.371 -0.477,0.253c0.122,-0.279 0.182,-0.217 0.477,-0.253Z" style="fill:#eaf6f5;fill-opacity:0.99;"/><path d="M8.108,15.522c0.054,-0.004 0.108,-0.008 0.163,-0.012c-0.004,0.096 -0.007,0.192 -0.011,0.287c-0.147,-0.041 -0.167,-0.059 -0.235,0.075c-0.253,0.076 -0.228,-0.038 -0.304,-0.289c0.209,0.029 0.202,0.021 0.387,-0.06Z" style="fill:#c7eaf9;fill-opacity:0.99;"/><path d="M9.419,11.239c0.823,0.317 -0.397,0.332 -0.406,0.101c-0.007,-0.179 0.09,-0.089 0.406,-0.101Z" style="fill:#a8bcc6;fill-opacity:1;"/><path d="M11.81,11.576c-0.002,-0.329 0.617,-0.175 0.643,-0.162c0.047,0.024 0.097,0.314 -0.643,0.162Z" style="fill:#a0b6c1;fill-opacity:0.99;"/><path d="M11.3,12.59c-0.291,0.067 -0.277,0.143 -0.566,0.095c0.242,-0.34 0.404,-0.491 0.566,-0.095Z" style="fill:#f3f8f8;fill-opacity:0.99;"/><path d="M15.464,15.663c0.03,0 0.187,0.001 0.371,0.038c-0.286,0.263 -0.321,0.358 -0.646,0.157l0.013,-0.079c0.123,-0.084 0.106,-0.089 0.262,-0.115Z" style="fill:#d4edf6;fill-opacity:0.99;"/><path d="M21.973,17.012c-0.288,0.229 -0.272,0.242 -0.452,0.329c-0.066,-0.017 -0.137,0.039 -0.203,0.022c-0.016,-0.004 0,0 -0.026,-0.207c0.041,-0.017 0.028,-0.113 0.681,-0.144Z" style="fill:#b3cedb;fill-opacity:1;"/><path d="M1.295,7.359c0.143,-0.031 0.134,-0.035 0.274,-0.018c-0.241,0.319 -0.23,0.31 -0.506,0.605c-0.001,-0.096 -0.002,-0.192 -0.003,-0.288c0.018,-0.024 0.145,-0.196 0.235,-0.299Z" style="fill:#b8c1c6;fill-opacity:0.07;"/><path d="M20.369,20.777c0.034,0.08 0.068,0.16 0.102,0.24c-0.05,0.013 -0.051,0.106 -0.102,0.119c-0.29,0.075 -0.284,0.019 -0.574,-0.024c0.289,-0.175 0.271,-0.177 0.574,-0.335Z" style="fill:#c7ccd1;fill-opacity:0.2;"/><path d="M1.945,17.771c0.587,0.054 0.552,0.415 0.547,0.473c-0.34,-0.185 -0.405,-0.118 -0.547,-0.473Z" style="fill:#b1bac1;fill-opacity:0.04;"/><path d="M17.796,20.353c0.021,0.067 0.042,0.133 0.063,0.2c-0.399,0.025 -0.396,0.054 -0.6,0.008c-0.045,-0.01 -0.128,-0.287 0.536,-0.208Z" style="fill:#d1dbe0;fill-opacity:1;"/><path d="M13.049,15.988c0.031,0.046 0.063,0.091 0.094,0.137c0.078,0.457 -0.376,0.347 -0.418,0.337c0.106,-0.28 0.091,-0.282 0.324,-0.474Z" style="fill:#d3eff8;fill-opacity:1;"/><path d="M1.11,15.676c0.371,0.174 0.345,0.44 -0.065,0.464c-0.02,-0.112 -0.039,-0.223 -0.059,-0.335c0.041,-0.043 0.082,-0.086 0.123,-0.129Z" style="fill:#a4becc;fill-opacity:0.99;"/><path d="M21.893,22.496c-0.044,0.034 -0.016,0.118 -0.683,0.122c0.181,-0.119 0.163,-0.473 0.683,-0.122Z" style="fill:#c7c7c8;fill-opacity:0.08;"/><path d="M16.675,15.145l0.095,-0c0.482,0.223 0.355,0.337 0.384,0.441c-0.311,-0.055 -0.292,-0.07 -0.317,-0.074c-0.12,-0.172 -0.143,-0.154 -0.162,-0.366Z" style="fill:#eff4f3;fill-opacity:1;"/><path d="M18.661,21.606c0.041,-0.006 0.475,-0.064 0.519,0.02c0.061,0.115 0.002,0.108 -0.118,0.135c-0.275,0.062 -0.397,0.136 -0.402,-0.155Z" style="fill:#c9cbd1;fill-opacity:1;"/><path d="M2.715,6.863c-0.332,0.126 -0.313,0.137 -0.657,0.227c0.021,-0.038 0.042,-0.076 0.064,-0.115c0.057,-0.434 0.557,-0.132 0.593,-0.113Z" style="fill:#b9c2c9;fill-opacity:0.05;"/><path d="M5.93,10.132c0.208,0.083 0.577,0.111 0.569,0.261c-0.003,0.053 -0.037,0.139 -0.66,-0.101l0.018,-0.081c0.024,-0.027 0.049,-0.053 0.073,-0.08Z" style="fill:#d3dddf;fill-opacity:0.99;"/><path d="M8.46,11.31c-0.283,-0.012 -0.341,0.028 -0.424,-0.256c0.033,-0.003 0.022,-0.08 0.055,-0.084c0.56,-0.056 0.386,0.304 0.369,0.34Z" style="fill:#bbcdd6;fill-opacity:0.99;"/><path d="M3.092,17.192c-0.002,0.063 -0.003,0.126 -0.005,0.188l-0.026,0.112c-0.4,-0.27 -0.312,-0.329 -0.342,-0.387c0.202,-0.075 0.199,-0.04 0.373,0.086Z" style="fill:#a3c0cf;fill-opacity:0.99;"/><path d="M20.841,21.016c0.269,0.015 0.27,-0.031 0.662,0.094c-0.551,0.357 -0.579,-0.046 -0.662,-0.094Z" style="fill:#c6c9cb;fill-opacity:0.07;"/><path d="M11.764,1.596c-0.156,0.267 -0.145,0.266 -0.375,0.485c0.039,-0.655 0.273,-0.497 0.375,-0.485Z" style="fill:#95b1c3;fill-opacity:0.05;"/><path d="M10.216,4.736c0.071,0.287 0.067,0.272 0.124,0.565c-0.003,0.065 -0.007,0.131 -0.01,0.196c-0.052,-0.033 -0.314,-0.2 -0.114,-0.761Z" style="fill:#93afbf;fill-opacity:0.07;"/><path d="M7.813,6.207c0.291,0.033 0.296,-0.036 0.569,0.087c-0.084,-0 -0.568,-0.003 -1.051,-0.002c0.166,-0.226 0.209,-0.168 0.482,-0.085Z" style="fill:#a6b0b6;fill-opacity:0.27;"/><path d="M0.749,9.17c-0.036,0.293 -0.041,0.281 -0.098,0.563c-0.136,-0.078 -0.125,-0.072 -0.22,-0.193l0.045,-0.084c0.091,-0.095 0.182,-0.191 0.273,-0.286Z" style="fill:#b8c6cf;fill-opacity:0.09;"/><path d="M11.572,13.602c0.026,-0.196 0.072,-0.233 0.25,-0.135c0.176,0.096 0.063,0.141 0.044,0.33c-0.157,-0.039 -0.143,-0.032 -0.305,-0.042c0.003,-0.051 0.007,-0.102 0.01,-0.153Z" style="fill:#dcf4fa;fill-opacity:1;"/><path d="M18.03,17.488c-0.083,0.171 -0.076,0.165 -0.202,0.297c-0.23,-0.252 -0.265,-0.455 0.084,-0.42c0.056,0.006 0.061,0.117 0.118,0.123Z" style="fill:#eaeeee;fill-opacity:0.99;"/><path d="M4.04,21.506c0.046,0.263 0.121,0.326 -0.02,0.343c-0.027,0.003 -0.585,-0.08 0.02,-0.343Z" style="fill:#dbdadd;fill-opacity:1;"/><path d="M7.26,17.097c0.028,0.016 1.001,0.558 0.181,0.358c-0.161,-0.039 -0.116,-0.08 -0.226,-0.306l0.045,-0.052Z" style="fill:#ebf2f1;fill-opacity:1;"/><path d="M6.423,19.599c0.257,0.046 0.367,-0.028 0.357,0.233c-0.004,0.105 -0.098,0.078 -0.109,0.076c-0.366,-0.105 -0.247,-0.303 -0.248,-0.309Z" style="fill:#dbe3e5;fill-opacity:0.99;"/><path d="M3.576,10.277c0.269,-0.103 0.266,0.01 0.553,0.03c0.033,0.002 0.078,-0.032 0.099,-0.007c0.05,0.059 0.03,0.159 0.08,0.219c-0.145,-0.073 -0.562,-0.154 -0.731,-0.242Z" style="fill:#d2f6fc;fill-opacity:1;"/><path d="M3.672,16.168l0.078,-0.005c0.072,0.086 0.073,0.07 0.159,0.127c0.048,0.034 0.096,0.068 0.145,0.102c-0.053,0.006 -0.376,0.461 -0.381,-0.224Z" style="fill:#e2e8ea;fill-opacity:1;"/><path d="M13.092,13.44c-0.4,-0.064 -0.489,-0.034 -0.434,-0.122c0.173,-0.275 0.263,-0.151 0.434,0.122Z" style="fill:#f7fbf9;fill-opacity:1;"/><path d="M20.831,6.746c0.333,0.034 0.389,-0.068 0.585,0.213c-0.173,-0.032 -0.326,0.079 -0.585,-0.213Z" style="fill:#a7b1b6;fill-opacity:0.11;"/><path d="M12.161,14.807l0.088,0.023l0.029,0.063l-0.008,0.134l-0.029,0.077c-0.168,-0.008 -0.192,0.051 -0.274,-0.087c-0.072,-0.12 0.018,-0.1 0.194,-0.21Z" style="fill:#c1e9f9;fill-opacity:0.99;"/><path d="M13.197,2.179c0.32,0.037 0.25,0.14 0.306,0.46c-0.178,-0.228 -0.163,-0.221 -0.306,-0.46Z" style="fill:#86a1b1;fill-opacity:0.08;"/><path d="M13.226,15.816c0.099,0.061 0.076,0.067 0.17,0.126c-0.043,0.19 -0.063,0.208 -0.253,0.182l-0.094,-0.137c0.059,-0.057 0.118,-0.114 0.177,-0.172Z" style="fill:#e8f7f9;fill-opacity:1;"/><path d="M14.299,13.831c-0.022,0.001 -0.147,0.006 -0.277,0.03c0.004,-0.022 0.333,-0.891 0.277,-0.03Z" style="fill:#effaf9;fill-opacity:1;"/><path d="M8.194,16.338c0.06,0.042 0.055,0.022 0.279,-0c-0.018,0.123 -0.036,0.246 -0.054,0.368c-0.086,-0.099 -0.118,-0.065 -0.156,-0.181c-0.017,-0.053 -0.03,-0.036 -0.048,-0.091l-0.02,-0.096Z" style="fill:#d5f0fa;fill-opacity:0.99;"/><path d="M22.759,16.746c-0.008,0.014 -0.102,0.18 -0.102,0.18c-0.053,0.013 -0.103,-0.06 -0.156,-0.048c-0.087,-0.18 -0.156,-0.283 0.04,-0.265c0.085,0.008 0.134,0.125 0.219,0.133Z" style="fill:#92b1c1;fill-opacity:1;"/><path d="M15.08,6.207c0.336,-0.118 0.333,-0.022 0.668,0.087c-0.031,0.002 -0.027,-0.003 -0.389,-0.008c-0.137,-0.064 -0.13,-0.06 -0.279,-0.079Z" style="fill:#a1abb0;fill-opacity:0.1;"/><path d="M21.895,18.06l0.096,0.008c-0.158,0.193 -0.055,0.229 -0.172,0.449c-0.133,-0.426 0.03,-0.401 0.076,-0.457Z" style="fill:#a1acb3;fill-opacity:0.09;"/><path d="M20.682,20.41c0.035,0.298 -0.02,0.324 -0.313,0.367c0.028,-0.026 0.003,-0.046 0.313,-0.367Z" style="fill:#b6c0c7;fill-opacity:0.08;"/><path d="M20.26,19.164c-0.046,0.079 -0.007,0.099 -0.082,0.14c-0.104,0.056 -0.099,0.034 -0.221,0.076c-0.024,-0.237 0.078,-0.181 0.303,-0.216Z" style="fill:#bad5e0;fill-opacity:1;"/><path d="M10.173,20.294c0.2,0.069 0.334,0.015 0.241,0.183c-0.012,0.021 -0.212,0.285 -0.241,-0.183Z" style="fill:#e2e8e9;fill-opacity:1;"/><path d="M6.392,6.305c0.148,-0.204 0.202,-0.173 0.391,-0.008c-0.192,0.061 -0.19,0.062 -0.391,0.008Z" style="fill:#adb7bd;fill-opacity:0.08;"/><path d="M11.351,15.759c-0.225,0.523 -0.244,-0.043 -0.223,-0.063c0.107,-0.1 0.106,-0.022 0.223,0.063Z" style="fill:#d9f2f9;fill-opacity:1;"/><path d="M11.104,2.548c-0.067,0.236 -0.069,0.222 -0.228,0.395c0.001,-0.368 0.117,-0.328 0.228,-0.395Z" style="fill:#97b0bf;fill-opacity:0.11;"/><path d="M12.633,1.507c0.18,0.001 0.266,-0.041 0.29,0.289c-0.161,-0.136 -0.174,-0.104 -0.29,-0.289Z" style="fill:#8ba7b7;fill-opacity:0.09;"/><path d="M9.133,17.092c0.068,0.056 0.136,0.113 0.204,0.169l0.043,0.067c-0.306,-0.049 -0.307,-0.039 -0.331,-0.052c-0.025,-0.014 0.048,-0.069 0.023,-0.083l0.062,-0.101Z" style="fill:#d4f0f9;fill-opacity:1;"/><path d="M19.633,8.226c0.057,0.037 0.114,0.075 0.171,0.112c-0.063,0.029 -0.048,0.029 -0.111,0.05c-0.203,0.07 -0.177,-0.051 -0.276,-0.08c0.072,-0.027 0.144,-0.055 0.216,-0.082Z" style="fill:#e0e8ea;fill-opacity:1;"/><path d="M21.433,19.471c-0.024,0.078 -0.048,0.156 -0.072,0.234c-0.162,0.001 -0.149,-0 -0.162,0.001c-0.049,0.003 -0.037,0.02 -0.085,0.022c0.162,-0.144 0.149,-0.135 0.318,-0.257Z" style="fill:#9ca8af;fill-opacity:0.1;"/><path d="M20.36,6.656c0.221,0.012 0.238,-0.044 0.393,0.118c-0.225,0.023 -0.242,0.05 -0.393,-0.118Z" style="fill:#9fa8ad;fill-opacity:0.16;"/><path d="M15.172,21.769c-0.189,0.14 -0.187,0.162 -0.204,0.15c-0.346,-0.25 0.184,-0.154 0.204,-0.15Z" style="fill:#d4dce1;fill-opacity:1;"/><path d="M0.841,8.513l0.051,-0.018c-0.025,0.099 0.019,0.091 -0.006,0.19c-0.004,0.016 -0,0 -0.088,0.186c-0.052,-0.204 -0.13,-0.236 0.043,-0.359Z" style="fill:#8898a1;fill-opacity:0.11;"/><path d="M3.553,17.879c0.083,0.006 0.166,0.013 0.25,0.019c-0.142,0.078 -0.141,0.271 -0.212,0.116c-0.031,-0.069 -0.006,-0.064 -0.038,-0.135Z" style="fill:#adcbd7;fill-opacity:0.99;"/><path d="M13.964,3.587c0.152,0.111 0.175,0.117 0.115,0.29c-0.038,-0.097 -0.077,-0.194 -0.115,-0.29Z" style="fill:#97b0bd;fill-opacity:0.16;"/><path d="M9.806,12.992c0.062,0.051 0.123,0.101 0.185,0.152c-0.013,-0.001 -0.085,0.218 -0.172,-0.014c-0.027,-0.071 0.013,-0.069 -0.013,-0.138Z" style="fill:#f2f9f8;fill-opacity:1;"/><path d="M20.177,21.848c0.092,-0.01 0.004,-0.108 0.094,-0.118c0.012,-0.001 0.05,-0.006 0.118,0.094c0.098,0.145 -0.044,0.069 -0.213,0.023Z" style="fill:#d6d6d9;fill-opacity:1;"/><path d="M13.666,14.545c0.046,0.094 0.091,0.189 0.137,0.283c-0.118,-0.123 -0.134,-0.111 -0.137,-0.283Z" style="fill:#d7f1f9;fill-opacity:1;"/><path d="M14.988,6.207l0.092,-0.001c0.149,0.019 0.142,0.016 0.279,0.079c-0.205,0.002 -0.19,-0.016 -0.371,-0.079Z" style="fill:#9facb3;fill-opacity:0.29;"/><path d="M9.313,16.993c0.021,0.249 0.024,0.247 0.023,0.268c-0.068,-0.056 -0.136,-0.113 -0.204,-0.169c0.06,-0.033 0.12,-0.066 0.18,-0.099Z" style="fill:#d1edf9;fill-opacity:1;"/><path d="M14.917,8.125c0.144,0.104 0.093,0.128 0.131,0.292c-0.044,-0.097 -0.087,-0.194 -0.131,-0.292Z" style="fill:#e2e9ea;fill-opacity:1;"/><path d="M17.815,11.909c-0.034,-0.023 -0.087,0.045 -0.12,0.023c-0.032,-0.021 0.028,-0.207 0.124,-0.215c0.131,-0.011 -0.001,0.061 -0.003,0.192Z" style="fill:#cff6f9;fill-opacity:0.99;"/><path d="M23.309,9.724c0.017,0.069 0.039,0.046 0.06,0.109c-0.023,0.061 -0.046,0.121 -0.069,0.182c-0.051,-0.151 -0.045,-0.147 0.009,-0.291Z" style="fill:#9caeb9;fill-opacity:0.22;"/><path d="M18.379,18.079c-0.029,0.12 -0.047,0.121 0.017,0.223c-0.041,-0.02 -0.083,-0.04 -0.124,-0.059l-0.045,-0.112c0.051,-0.017 0.102,-0.035 0.153,-0.052Z" style="fill:#dee4e7;fill-opacity:1;"/><path d="M13.914,15.708c0.119,-0.015 0.165,-0.136 0.165,-0.021c0,0 -0.106,0.092 -0.115,0.1l-0.05,-0.079Z" style="fill:#d9f2f9;fill-opacity:1;"/><path d="M2.84,21.825c0.004,0.031 0.041,0.05 0.045,0.081c0.02,0.144 -0.176,0.067 -0.167,0.005c0.007,-0.049 0.115,-0.037 0.122,-0.086Z" style="fill:#e1e0e3;fill-opacity:0.99;"/><path d="M23.369,9.833c0.004,0.061 0.008,0.122 0.012,0.183c-0.009,0.06 -0.018,0.12 -0.027,0.18c-0.018,-0.061 -0.036,-0.121 -0.054,-0.182c0.023,-0.061 0.046,-0.121 0.069,-0.182Z" style="fill:#879aa4;fill-opacity:0.15;"/><path d="M12.323,13.057c0.072,-0.017 0.144,-0.035 0.217,-0.052c-0.116,0.074 -0.113,0.136 -0.217,0.052Z" style="fill:#f5f9f9;fill-opacity:1;"/><path d="M15.742,17.308c-0.037,0.05 -0.075,0.101 -0.112,0.151c-0.016,-0.042 -0.091,-0.041 -0.107,-0.083c-0.007,-0.017 -0.023,-0.06 0.219,-0.068Z" style="fill:#e8eeee;fill-opacity:0.99;"/><path d="M14.605,6.212c0.269,-0.001 0.267,-0.01 0.29,-0.005l-0.096,0.086c-0.064,-0.027 -0.129,-0.054 -0.193,-0.081Z" style="fill:#a7b0b4;fill-opacity:0.18;"/><path d="M1.865,7.086l0.193,0.004c-0.271,0.092 -0.25,0.101 -0.273,0.106c0.027,-0.037 0.053,-0.074 0.08,-0.11Z" style="fill:#96a2a9;fill-opacity:0.18;"/><path d="M23.612,14.546c0.049,0.146 0.027,0.141 -0.032,0.284l0.032,-0.284Z" style="fill:#a7bcc6;fill-opacity:0.45;"/><path d="M5.071,8.318c-0.001,0.016 -0.115,1.096 -0.071,0.193c0.001,-0.016 0,0 0.071,-0.193Z" style="fill:#d1dfe3;fill-opacity:0.99;"/><path d="M14.515,6.21l0.09,0.002c0.064,0.027 0.129,0.054 0.193,0.081c-0.095,-0.028 -0.189,-0.055 -0.284,-0.083Z" style="fill:#a5b3bb;fill-opacity:0.4;"/><path d="M15.639,14.588c-0.065,0.074 -0.061,0.055 -0.186,0.125c0.07,-0.092 0.079,-0.071 0.186,-0.125Z" style="fill:#eef7f5;fill-opacity:0.99;"/><path d="M21.038,19.753c-0.032,0.031 -0.065,0.063 -0.097,0.094c-0.026,0.03 -0.052,0.059 -0.078,0.089c0.068,-0.121 0.063,-0.108 0.176,-0.183Z" style="fill:#8f9aa0;fill-opacity:0.27;"/><path d="M4.792,16.913c-0.121,-0.006 -0.176,0.106 -0.171,-0.008c0.005,-0.117 0.052,0.002 0.171,0.008Z" style="fill:#e9edee;fill-opacity:0.99;"/><path d="M13.754,8.884c0.055,0.103 0.075,0.108 0.008,0.193c-0.003,-0.064 -0.005,-0.128 -0.008,-0.193Z" style="fill:#dfe7e9;fill-opacity:1;"/><path d="M6.693,21.902c0.091,0.142 0.292,0.158 0.124,0.193c-0,0 -0.114,-0.178 -0.124,-0.193Z" style="fill:#d1d2d6;fill-opacity:0.99;"/><path d="M2.249,14.354c0.061,-0.003 0.122,-0.005 0.184,-0.008c-0.093,0.046 -0.098,0.081 -0.184,0.008Z" style="fill:#d2dee3;fill-opacity:1;"/><path d="M13.67,14.257c0.013,0.058 0.027,0.116 0.04,0.174c-0.013,-0.058 -0.027,-0.116 -0.04,-0.174Z" style="fill:#dcf3f9;"/><path d="M3.749,16.163c0.025,0.02 0.033,-0.014 0.064,0.012c0.009,0.008 0,-0 0.095,0.115c-0.086,-0.056 -0.086,-0.041 -0.159,-0.127Z" style="fill:#e8eced;fill-opacity:1;"/><path d="M14.05,21.05c0.025,0.04 0.05,0.081 0.075,0.121c-0.138,-0.159 -0.136,-0.142 -0.138,-0.159c-0.002,-0.024 0.065,0.062 0.063,0.038Z" style="fill:#dee8ea;fill-opacity:1;"/><path d="M3.092,17.192c0.055,0.095 0.037,0.094 -0.005,0.188c0.002,-0.063 0.003,-0.126 0.005,-0.188Z" style="fill:#9bbccc;fill-opacity:0.99;"/><path d="M14.703,19.359l0.101,0.074l-0.084,-0.02l-0.017,-0.054Z" style="fill:#f3f5f2;fill-opacity:0.99;"/><path d="M4.799,14.078c-0.129,0.05 -0.119,0.058 -0.201,0.061l0.201,-0.061Z" style="fill:#e3e9ea;fill-opacity:0.99;"/><path d="M12.528,13.612l0.095,0.099l-0.085,-0.039l-0.011,-0.06Z" style="fill:#e5f6f8;fill-opacity:0.99;"/></svg>