<?xml version="1.0" encoding="UTF-8" standalone="no"?><!DOCTYPE svg PUBLIC "-//W3C//DTD SVG 1.1//EN" "http://www.w3.org/Graphics/SVG/1.1/DTD/svg11.dtd"><svg width="100%" height="100%" viewBox="0 0 24 24" version="1.1" xmlns="http://www.w3.org/2000/svg" xmlns:xlink="http://www.w3.org/1999/xlink" xml:space="preserve" xmlns:serif="http://www.serif.com/" style="fill-rule:evenodd;clip-rule:evenodd;stroke-linejoin:round;stroke-miterlimit:2;"><path d="M13.72,6.137c0.274,0.015 0.548,0.031 0.822,0.046c0.145,0.045 0.138,0.046 0.29,0.003c0.235,-0.015 0.221,-0.014 0.449,0.002c0.092,0.029 0.184,0.057 0.276,0.086l0.107,-0.078c0.055,0.023 0.11,0.045 0.165,0.068l0.095,0.017c0.276,-0.002 1.348,-0.003 1.466,-0.003c0.345,0.107 0.333,0.172 1.203,0.176c0.086,0.003 0.171,0.006 0.257,0.008c0.237,0.077 0.228,0.053 0.481,0.008c0.054,0.024 0.109,0.049 0.163,0.073c0.373,0.163 0.551,0.13 0.732,0.157c0.147,0.034 0.132,0.033 0.283,0.041l0.096,-0.009l0.083,0.003c0.031,0.003 0.188,0.016 0.364,0.134c0.126,0.017 0.251,0.034 0.377,0.051c0.335,0.263 0.352,0.21 0.742,0.37c0.209,0.226 0.185,0.252 0.461,0.376c0.02,0.42 0.228,0.353 0.446,1.392c0.017,0.038 0.034,0.076 0.051,0.113c0.14,0.919 0.12,0.91 0.273,1.816c0.014,0.041 -0.029,0.034 -0.013,0.082c0.006,0.016 0.006,0.015 0.084,0.197c-0.001,0.087 -0.002,0.173 -0.003,0.26l-0.002,0.096c0.092,0.689 0.105,0.678 0.166,1.373c-0.067,0.277 -0.07,0.273 -0.002,0.557c-0.018,0.142 -0.018,0.128 0.004,0.278c-0.021,0.058 -0.041,0.115 -0.062,0.173c-0.026,0.195 -0.038,0.184 -0.006,0.381c0.022,0.368 -0.052,0.352 -0.094,0.718c-0.058,0.165 -0.05,0.157 -0.291,1.033c-0.014,0.017 -0.073,0.091 -0.098,0.259c-0.182,0.168 -0.234,0.135 -0.27,0.384c-0.032,0.028 -0.063,0.055 -0.095,0.083c-0.106,0.117 -0.109,0.112 -0.125,0.15c-0.025,0.037 -0.051,0.074 -0.076,0.111c-0.245,0.05 -0.216,0.092 -0.356,0.287l-0.071,0.024c-0.286,0.178 -0.322,0.143 -0.457,0.434c0.036,0.284 -0.012,0.271 -0.098,0.541c-0.177,0.223 -0.18,0.213 -0.275,0.475c-0.09,0.097 -0.08,0.087 -0.177,0.186c-0.056,0.034 -0.434,0.066 -0.391,0.53c-0.15,0.447 -0.177,0.421 -0.184,0.46c-0.055,0.034 -0.111,0.068 -0.166,0.102c-0.03,0.023 -0.321,0.245 -0.373,0.279c-0.022,0.015 -0.162,0.107 -0.275,0.192c-0.935,0.399 -1.012,0.183 -1.384,0.438c-2.741,1.879 -8.798,1.015 -9.262,0.927c-2.15,-0.408 -1.993,-0.848 -3.199,-1.144c-0.604,-0.142 -0.584,-0.156 -1.152,-0.369c-0.161,-0.114 -0.335,-0.24 -0.593,-0.613c-0.029,-0.062 -0.058,-0.124 -0.087,-0.186c-0.092,-0.457 -0.194,-0.398 -0.657,-0.627c-0.033,-0.024 -0.066,-0.047 -0.098,-0.071c-0.086,-0.267 -0.117,-0.24 -0.273,-0.481c-0.037,-0.109 -0.08,-0.073 -0.112,-0.179c0.019,-0.453 0.025,-0.749 -0.889,-1.197c-0.204,-0.31 -0.206,-0.292 -0.483,-0.539c-0.011,-0.016 -0.07,-0.098 -0.17,-0.175c-0.167,-0.476 -0.194,-0.45 -0.363,-0.937c-0.436,-2.342 -0.072,-2.366 -0.26,-3.67c0.022,-0.189 0.206,-1.235 0.18,-1.741c0.071,-0.182 0.061,-0.178 0.057,-0.377c0.099,-0.558 0.098,-0.574 0.096,-0.625c0.174,-0.488 0.237,-0.457 0.283,-0.958c0.228,-0.162 0.175,-0.308 0.18,-0.335c0.314,-0.219 0.204,-0.307 0.484,-0.555c0.059,-0.032 0.118,-0.064 0.178,-0.097c0.086,-0.004 0.309,-0.014 1.027,-0.326c0.056,-0.037 0.047,-0.025 0.161,-0.057c0.143,0.014 2.336,-0.274 2.942,-0.365c0.19,-0.028 0.171,-0.044 0.37,-0.095c0.65,0.002 0.652,0.085 1.185,-0.073c0.271,0.11 0.271,0.055 0.555,-0.018l0.54,-0.005c0.143,0.04 0.132,0.046 0.285,0.04c0.275,-0.005 0.67,-0.035 0.728,-0.04l0.096,0.011l0.275,0.011c3.221,-0.037 3.227,-0.012 3.385,-0.068Z" style="fill:#81a2b4;fill-opacity:0.99;"/><path d="M8.229,10.881c-0.157,-0.048 -0.148,-0.01 -0.277,0.104c0.043,-0.339 0.046,-0.337 0.047,-0.367c0.03,-0.864 0.733,0.277 8.288,-0.31c0.777,-0.06 -0.184,1.765 1.944,3.955c0.169,0.135 0.623,0.676 1.91,0.998c0.222,0.055 0.588,-0.028 0.823,0.21c-0.507,0.483 -0.766,-0.208 -1.089,0.011c-0.202,-0.238 -1.33,0.08 -1.476,0.267c0.367,-0.031 0.361,-0.015 0.729,-0.086c0.265,-0.051 0.179,0.094 0.19,0.361c-0.218,0.146 -0.616,0.38 -0.67,0.412c-0.22,-0.03 -0.21,-0.059 -0.425,-0.006c-1.622,0.401 0.322,0.149 0.352,0.143c-0.235,0.397 -0.298,0.334 -0.54,0.736c-0.342,0.038 -0.35,-0.008 -0.639,0.185c-0.027,0.397 0.199,0.195 0.371,0.265c0.03,0.012 -0.035,0.085 -0.005,0.097c-0.052,0.156 -0.103,0.312 -0.155,0.468c-1.916,0.414 -2.365,0.233 -2.7,0.507c0.21,0.011 1.299,0.071 2.614,-0.23c-0.264,0.541 -0.261,0.527 -0.482,1.088c-0.066,-0.031 -0.132,-0.063 -0.199,-0.094c0.169,-0.262 0.178,-0.253 0.187,-0.278c0.06,-0.165 -0.032,-0.154 -0.192,-0.104c-1.528,0.477 -1.599,0.245 -2.268,0.667c-0.442,-0.137 -0.444,-0.138 -0.479,-0.16c-0.246,-0.153 -0.22,0.158 -0.727,0.197c-0.224,0.017 -0.18,0.097 -0.384,0.194c-0.102,0.049 -0.257,-0.207 -0.435,0.234c-0.26,-0.191 -0.248,-0.256 -0.563,-0.193c-0.121,-0.028 -0.242,-0.055 -0.364,-0.083l-0.093,0.002c-0.254,-0.002 -0.251,-0.052 -0.48,0.049c-0.08,0.109 -0.229,0.272 -0.25,0.294c-0.064,-0.006 -0.128,-0.011 -0.192,-0.017c-0.342,-0.166 -0.364,-0.132 -0.571,0.029c-0.071,-0.161 -0.057,-0.158 -0.185,-0.286c-0.022,-0.211 -0.007,-0.206 -0.053,-0.309c0.021,0.008 0.257,0.101 0.257,0.101c0.197,-0.064 0.067,-0.437 -2.49,-0.688c-0.077,-0.16 -0.154,-0.32 -0.231,-0.48c1.285,-0.153 1.91,0.166 3.267,-0.205c0.026,-0.026 0.051,-0.053 0.077,-0.079c-0.072,-0.133 -0.114,-0.07 -1.889,-0.022c-0.151,-0.109 -0.307,-0.31 -0.366,-0.337c-1.164,-0.534 -1.487,-0.38 -1.605,-0.324c-0.653,-0.827 -0.589,-1.007 -0.197,-1.201c0.015,-0.007 0.241,-0.191 -0.124,-0.164c-0.076,-0.085 -0.7,-0.778 -1.193,-0.781c-0.252,-0.001 -0.142,-0.129 0.002,-0.334c0.2,0.034 1.022,-0.008 1.871,-1.094c0.45,-0.575 0.897,-0.429 1.243,-3.067c0.056,0.013 0.629,0.151 0.714,0.071c0.183,-0.17 -0.451,-0.232 -0.898,-0.351Z" style="fill:#fbfaf5;fill-opacity:1;"/><path d="M4.013,7.5c-0.038,0.008 -0.879,0.182 -0.287,0.399c1.002,0.367 1.001,0.353 1.116,0.424c0.079,0.049 0.096,0.167 0.175,0.215c-2.507,-0.699 -2.723,-0.589 -2.62,-0.404c0.015,0.027 0.025,0.014 0.335,0.185c-0.023,0.404 0.12,0.374 0.172,0.771c-0.636,-0.219 -1.597,-0.27 -0.894,-1.212c1.457,-1.952 18.382,-1.624 19.935,-0.256c1.041,0.918 0.465,1.174 0.372,1.215c-1.899,0.845 -3.676,0.812 -3.316,1.254c0.488,0.6 -0.197,2.638 1.404,2.323c1.932,-0.381 2.67,-1.011 2.693,-0.705c0.173,2.24 -0.039,3.128 -0.078,3.518l-0.13,0.055c-0.664,-0.704 -5.261,0.759 -5.883,-4.755c-0.164,-1.454 0.707,-0.904 3.764,-1.943c0.059,-0.02 2.242,-0.762 0.551,-0.558c-0.245,0.03 -1.006,0.346 -2.003,0.603c-0.357,-0.749 -0.468,-1.186 0.355,-1.092c0.03,0.003 0.377,0.043 0.344,0.15c-0.115,0.37 -0.301,0.687 0.041,0.497c0.324,-0.18 0.21,-0.32 0.541,-0.467c0.269,-0.12 0.61,-0.048 0.346,-0.187c-0.867,-0.455 -13.973,-0.687 -16.935,-0.03Z" style="fill:#fcfcfb;fill-opacity:1;"/><path d="M2.733,8.32c4.414,1.244 4.994,1.034 4.877,2.209c-0.548,5.471 -4.031,3.917 -5.972,4.589c-0.035,0.025 -0.069,0.05 -0.104,0.075c-0.073,0.007 -0.145,0.014 -0.218,0.022c-0.053,-0.298 -0.497,-2.791 -0.154,-3.777c0.069,-0.198 0.139,-0.048 0.671,0.153c-0.067,0.383 -0.059,0.373 -0.023,0.768c0.022,0.278 0.043,0.555 0.065,0.833c0.072,0.218 0.103,0.186 0.248,0.348c-0.042,-0.085 -0.083,-0.17 -0.125,-0.255c0.228,-0.36 0.072,-0.466 0.056,-1.144c0.004,-0.035 0.03,-0.238 0.042,-0.44c2.823,1.081 2.965,0.717 3.03,0.48c0.187,-0.677 0.364,-2.14 0.335,-2.437c-0.203,-0.056 -0.208,-0.021 -2.556,-0.653c-0.052,-0.398 -0.195,-0.367 -0.172,-0.771Z" style="fill:#f4f6f5;fill-opacity:1;"/><path d="M2.831,20.534c0.112,0.08 0.326,0.232 1.724,0.041c0.056,-0.008 0.087,-0.083 0.142,-0.09c0.569,0.213 0.549,0.227 1.152,0.369c1.206,0.296 1.049,0.736 3.199,1.144c0.465,0.088 6.522,0.952 9.262,-0.927c0.372,-0.255 0.449,-0.039 1.384,-0.438c2.138,0.167 3.476,0.654 2.913,0.881c-1.552,0.624 -1.606,0.366 -1.737,0.422c-0.059,0.025 -0.029,0.146 -0.088,0.172c-0.073,-0.035 -0.504,-0.241 -1.012,0.015c-0.056,0.028 -0.034,0.138 -0.09,0.166c-0.366,0.091 -0.357,0.072 -0.733,0.091c-0.044,-0.028 -0.355,-0.226 -0.642,-0.077c-0.057,0.03 -0.034,0.142 -0.091,0.171l-0.091,-0.001c-0.046,-0.036 -0.331,-0.259 -0.733,-0.08c-0.059,0.026 -0.032,0.145 -0.091,0.172c-0.175,-0.147 -0.421,-0.134 -0.459,-0.132c-0.529,0.027 -1.91,0.14 -1.924,0.144c-0.062,0.019 -0.029,0.153 -0.091,0.172l-0.183,-0.001c-0.041,-0.033 -0.184,-0.149 -0.642,-0.129c-1.276,0.055 -1.276,-0 -1.374,0.048c-0.059,0.029 -0.033,0.144 -0.091,0.173c-0.092,0.003 -0.184,0.006 -0.276,0.009c-0.259,-0.167 -0.421,-0.125 -0.457,-0.116c-0.277,0.071 -0.254,-0.044 -0.275,-0.037c-0.054,0.018 -0.04,0.125 -0.094,0.143l-0.272,-0.003c-0.415,-0.215 -0.469,-0.293 -0.828,0.007c-0.061,-0.024 -0.028,-0.151 -0.089,-0.175c-0.114,-0.045 -0.246,-0.002 -0.369,-0.007c-1.24,-0.049 -1.278,-0.134 -1.558,0.09c-0.071,-0.052 -0.107,0.008 -0.18,-0.133c-0.046,-0.088 -1.27,-0.109 -1.373,-0.104c-0.317,0.017 -0.847,-0.042 -0.92,-0.05c-0.115,-0.013 -0.084,0.047 -0.183,0.102c-0.054,-0.035 -0.035,-0.137 -0.089,-0.172c-0.051,-0.032 -0.121,0.005 -0.181,0c-0.99,-0.084 -0.998,-0.263 -1.574,-0.027c-0.262,-0.081 -0.256,-0.071 -0.536,-0.078c-0.093,-0.044 0.006,-0.117 -0.091,-0.163c-0.027,-0.013 -0.034,-0.016 -0.367,-0.054c-0.168,-0.019 -0.145,0.026 -0.282,0.124c-0.025,0.018 -0.063,-0.042 -0.088,-0.024c-0.185,-0.058 -0.175,-0.055 -0.364,-0.066c-0.097,-0.05 0.005,-0.121 -0.091,-0.17c-0.026,-0.013 -0.026,0.012 -0.363,-0.061c-0.292,-0.064 -0.266,-0.122 -0.548,-0.189c-1.62,-0.384 0.335,-0.75 0.361,-0.766c0.054,-0.034 0.034,-0.136 0.087,-0.17l0.104,-0.031c0.165,0.116 0.163,0.099 0.361,0.095c0.531,-0.01 0.511,-0.227 0.546,-0.245c0.095,-0.011 0.189,-0.022 0.284,-0.034Z" style="fill:#dedee0;fill-opacity:0.96;"/><path d="M8.326,7.355c0.522,0.673 0.053,0.851 0.485,1.594c0.09,0.155 0.976,0.103 1.061,0.099c0.284,-1.119 -0.076,-1.19 -0.001,-1.696l0.103,-0.009c0.338,1.185 -0.041,1.794 1.184,1.711c0.277,-0.019 0.019,-1.583 -0.003,-1.719l0.28,-0.012c-0.02,0.116 -0.036,0.21 0.172,1.467c0.011,0.069 0.073,0.445 0.831,0.254c0.281,-0.071 0.117,-1.489 0.004,-1.722c0.047,0.002 0.037,0.015 0.085,0.016c0.016,0.001 0,0 0.195,-0.004c0.003,0.184 -0.046,1.663 0.546,1.716c1.121,0.1 0.524,-1.107 0.451,-1.713c0.127,0.001 0.253,0.001 0.38,0.002c0.093,1.702 0.398,1.713 0.542,1.718c0.066,0.002 0.061,-0.007 0.822,-0.092c0.25,-0.031 0.226,-0.075 0.416,-0.228c0.269,0.258 0.304,0.164 0.597,0.152c0.015,0.001 0.191,0.008 0.191,0.008c0.011,-0.015 -0.009,-0.014 -0.126,-0.2c-0.173,-0.659 -0.151,-0.658 -0.076,-1.345l0.198,0.003c-0.019,1.093 0.079,1.466 0.44,1.567c0.02,0.006 0.008,0.018 0.107,0.243c-0.282,0.121 -0.273,0.12 -0.511,0.298c-0.377,0.826 -0.616,0.523 -1.509,0.593c-2.727,0.214 -5.737,-0.009 -6.235,-0.046c-0.656,-0.08 -0.781,0.104 -1.138,-0.453c-0.187,-0.293 -1.222,-0.613 -1.336,-0.648c0.057,-0.05 0.449,-0.079 0.311,-0.772c-0.011,-0.054 -0.089,-0.445 -0.046,-0.683c0.154,-0.006 0.142,-0.019 0.302,-0.023c0.067,0.506 -0.005,1.423 0.534,1.313c0.277,-0.057 0.991,0.212 0.883,-0.132c-0.195,-0.618 -0.185,-0.612 -0.314,-1.242l0.175,-0.015Z" style="fill:#cbdce2;fill-opacity:1;"/><path d="M12.077,13.565c0.51,0.13 0.498,0.188 1.005,0.103c0.229,-0.038 0.277,0.159 0.728,0.127c0.195,-0.014 0.168,0.06 0.285,0.102c0.682,0.517 0.688,0.775 0.69,0.863c0.001,0.039 0.099,0.245 0.118,0.255c0.043,0.024 0.101,-0.064 0.144,-0.039c0.316,0.191 0.326,0.173 0.699,0.11c0.091,0.041 0.541,0.091 0.818,0.662l-0.115,0.071c-0.565,0.563 -0.898,0.443 -0.977,0.457c-0.104,-0.008 -0.077,-0.067 -0.19,-0.076c-0.016,-0.001 0,0 -0.201,0.02c-0.022,-0.072 -0.044,-0.145 -0.066,-0.217c-0.266,0.066 -0.258,0.106 -0.295,0.385c-0.057,0.43 -0.167,0.363 -0.356,0.473c-0.231,-0.032 -0.218,-0.039 -0.452,-0.043c-0.399,0.089 -0.395,0.017 -0.738,0.006c-0.025,-0.001 -0.314,0.088 0.091,0.302l0.036,0.065c-0.413,0.245 -0.404,0.252 -0.676,0.657c-0.088,0.003 -0.832,0.031 -1.091,-0.106c-0.226,-0.12 -0.214,-0.144 -0.467,-0.145c-0.087,-0.104 -0.175,-0.208 -0.262,-0.313c-0.498,-0.026 -0.49,-0.032 -0.924,-0.284c-0.343,-0.187 -0.372,-0.152 -0.579,-0.496c-0.013,-0.022 -0.03,-0.05 -0.278,-0.163l-0.077,-0.017l-0.019,-0.098c0.016,-0.167 0.046,-0.172 -0.059,-0.295c-0.068,-0.08 -0.084,-0.102 0.001,-0.147c0.163,-0.086 0.033,-0.185 0.035,-0.193c0.128,-0.142 0.206,-0.094 0.332,-0.177c0.266,-0.175 0.227,-0.223 0.532,-0.342c0.044,0.493 -0.272,0.402 -0.293,0.753c-0.002,0.041 -0.008,0.145 0.117,0.495c0.03,0.006 0.06,0.011 0.09,0.017c0.014,-0 0.177,-0.001 0.177,-0.001c0.307,0.159 0.241,0.382 0.936,0.32c0.028,0.065 0.056,0.129 0.084,0.194c-0.062,0.528 0.373,0.129 0.787,0.455c0.263,0.207 0.364,-0.09 0.374,-0.12c0.049,-0.597 0.113,-0.717 0.143,-0.773c0.282,0.23 0.31,0.164 0.655,0.069l0.074,-0.1c0.394,0.288 0.453,0.174 0.817,-0.145l0.185,-0.007c0.445,0.165 0.442,0.015 0.749,-0.345c0.054,-0.044 0.108,-0.088 0.161,-0.132l0.092,-0.065c0.037,-0.026 0.097,0.039 0.134,0.013c0,0 -0.031,-0.223 -0.033,-0.243c-0.178,-0.169 -0.173,-0.16 -0.178,-0.174c-0.093,-0.261 -0.1,0.045 -0.248,0.273c-0.155,-0.297 -0.254,-0.238 -0.324,-0.634c0.099,-0.028 0.085,0.06 0.19,0.03c0.013,-0.004 0.083,-0.024 0.126,-0.121c0.061,-0.14 -0.071,-0.038 -0.201,-0.108c-0.65,-0.586 -1.188,-0.487 -1.297,-0.468c-0.182,-0.427 -0.338,-0.301 -0.366,-0.278c-0.175,0.141 -0.263,-0.226 -0.629,0.053c-0.05,0.038 -0.042,0.023 -0.106,0.057c-0.371,-0.008 -0.369,0.011 -0.72,-0.141c0.072,-0.114 0.093,-0.499 0.631,-0.246c0.158,0.074 0.129,-0.015 0.185,-0.137Z" style="fill:#edd7ba;fill-opacity:1;"/><path d="M20.785,11.925c-0.592,0.113 -0.94,0.443 -1.116,-0.481c-0.18,-0.941 -0.655,-1.311 0.288,-1.543c2.548,-0.625 2.691,-1.126 2.771,-0.758c0.425,1.933 0.28,2.002 0.13,2.074c-0.64,0.306 -1.905,0.66 -2.074,0.708Z" style="fill:#e6fcfd;fill-opacity:1;"/><path d="M8.431,20.296c0.321,0.144 0.568,0.35 1.824,0.63c0.473,0.103 3.189,0.693 6.05,-0.193c0.189,-0.059 0.184,-0.011 0.293,-0.011c-0.11,0.17 -0.22,0.339 -0.331,0.509c-0.081,0.104 -0.162,0.207 -0.242,0.311c-2.548,0.695 -6.288,0.27 -7.246,-0.026c0.023,-0.016 0.053,0.05 0.076,0.035c0.052,-0.036 0.063,-0.111 0.105,-0.158c0.119,-0.131 -0.09,-0.087 -0.579,-0.758c-0.125,-0.171 -0.114,-0.2 0.05,-0.339Z" style="fill:#d2dce0;fill-opacity:1;"/><path d="M8.326,7.355l-0.175,0.015c-0.582,-0.022 -0.568,0.014 -1.103,0.061c-0.16,0.004 -0.148,0.018 -0.302,0.023c-0.739,-0.014 -1.106,-0.229 -1.04,0.505c0.007,0.075 0.015,0.164 0.404,0.854c-0.088,-0.02 -0.657,-0.146 -1.092,-0.275c-0.079,-0.049 -0.096,-0.167 -0.175,-0.215c-0.115,-0.071 -0.114,-0.058 -1.116,-0.424c-0.592,-0.217 0.248,-0.391 0.287,-0.399c2.962,-0.657 16.068,-0.425 16.935,0.03c0.265,0.139 -0.077,0.067 -0.346,0.187c-0.331,0.148 -0.217,0.287 -0.541,0.467c-0.342,0.19 -0.156,-0.127 -0.041,-0.497c0.033,-0.107 -0.314,-0.147 -0.344,-0.15c-0.824,-0.094 -0.712,0.344 -0.355,1.092c-0.151,0.035 -0.301,0.071 -0.452,0.106c-0.196,-0.5 -0.082,-0.839 -0.079,-1.147c0.002,-0.2 -0.819,-0.163 -0.938,-0.169c-0.067,-0.009 -0.061,-0.005 -0.373,-0.005c-0.222,-0.064 -0.213,-0.038 -0.815,-0.06l-0.198,-0.003l-0.906,-0.019c-0.063,-0.001 -0.126,-0.002 -0.189,-0.002c-0.639,-0.003 -0.626,0.001 -1.272,0.008c-0.127,-0.001 -0.253,-0.001 -0.38,-0.002c-0.332,-0.001 -0.665,-0.002 -0.997,-0.003c-0.195,0.004 -0.18,0.005 -0.195,0.004c-0.048,-0.002 -0.038,-0.015 -0.085,-0.016c-0.336,0 -0.671,0 -1.007,0.001l-0.28,0.012c-0.597,-0.015 -0.587,-0.002 -1.181,0.008l-0.103,0.009c-0.515,0.001 -1.03,0.002 -1.545,0.003Z" style="fill:#aec3cd;fill-opacity:1;"/><path d="M12.535,14.365c0.262,-0.066 0.249,-0.008 0.483,0.101c0.022,-0.069 0.044,-0.139 0.065,-0.208c0.108,-0.02 0.646,-0.118 1.297,0.468c-0.038,0.066 -0.076,0.132 -0.114,0.198c0.07,0.396 0.169,0.337 0.324,0.634c0.078,0.065 0.156,0.13 0.234,0.195c-0.054,0.044 -0.108,0.088 -0.161,0.132c-0.056,-0.015 -0.528,-0.261 -0.749,0.345l-0.185,0.007c-0.536,-0.393 -0.753,-0.268 -1.104,-0.2c-0.189,-0.184 -0.311,-0.139 -0.247,-0.37c0.075,-0.272 -0.19,-0.123 -0.369,-0.065c-0.306,-0.71 -0.47,-0.162 -0.476,-0.124c-0.054,0.362 0.143,0.329 0.195,0.377c0.005,0.129 0.01,0.257 0.015,0.386c-0.2,0.039 -0.187,0.052 -0.388,0.093c-0.01,-0.006 -0.001,0 -0.279,-0.238c-0.032,-0.022 -0.063,-0.044 -0.095,-0.066l-0.09,0.086c-0.156,-0.403 -0.553,-0.651 -0.673,-0.371c-0.275,0.641 0.087,0.626 0.69,0.679c0.05,0.038 -0.069,0.056 -0.011,0.099c0.006,0.004 -0.018,-0.013 0.075,-0.051c0,0 0.169,0.002 0.184,0.002c-0.253,0.103 -0.251,0.101 -0.273,0.111c-0.057,0.026 -0.034,0.046 -0.09,0.072c-0.694,0.062 -0.629,-0.161 -0.936,-0.32c-0,-0 -0.163,0.001 -0.177,0.001l-0.09,-0.017c-0.125,-0.35 -0.119,-0.454 -0.117,-0.495c0.02,-0.352 0.336,-0.26 0.293,-0.753c0.357,-0.112 0.353,-0.123 0.386,-0.121c0.267,0.013 0.276,0.02 0.467,-0.172c0.561,0.16 0.532,0.44 1.09,0.236c0.109,-0.014 0.219,-0.028 0.328,-0.042c0.076,0.01 1.358,0.173 0.954,-0.098c-0.429,-0.288 -0.377,-0.333 -0.457,-0.512Z" style="fill:#e2c6a4;fill-opacity:1;"/><path d="M16.84,19.597c0.066,0.031 0.132,0.063 0.199,0.094c-0.241,0.516 -0.209,0.512 -0.44,1.031c-0.109,-0 -0.104,-0.048 -0.293,0.011c-2.861,0.886 -5.577,0.296 -6.05,0.193c0.061,-0.06 0.06,-0.048 0.264,-0.154c0.514,0.028 0.499,-0.008 1.008,-0.072c0.053,0.003 0.497,-0.01 0.54,-0.011c0.317,-0.166 0.373,-0.139 0.404,-0.125c0.394,0.184 1.149,0.028 1.235,0.021c0.303,-0.105 0.308,-0.127 0.315,-0.154c0.039,-0.152 -0.061,-0.007 -0.215,0.006c-0.029,0.003 -0.059,-0.003 -0.088,-0c-0.266,-0.009 -1.142,-0.081 -1.177,-0.089c0.177,-0.441 0.332,-0.185 0.435,-0.234c0.204,-0.098 0.159,-0.177 0.384,-0.194c0.506,-0.039 0.481,-0.35 0.727,-0.197c0.034,0.021 0.037,0.023 0.479,0.16c0.21,0.363 0.322,-0.04 2.273,-0.285Z" style="fill:#f8f8f6;fill-opacity:1;"/><path d="M2.251,16.696c0.295,0.12 0.293,0.204 0.584,0.086c0.458,-0.074 0.451,-0.116 0.913,-0.042l0.087,0.009c0.259,0.273 0.078,0.353 0.15,0.423c0.019,0.018 0.037,-0.046 0.317,0.097c0.215,0.11 0.151,0.168 0.17,0.169c0.123,0.006 0.017,-0.16 0.137,-0.154c0.032,0.08 0.064,0.16 0.096,0.24c0.005,0.012 -0.011,0.026 -0.006,0.038c0.072,0.156 0.135,0.006 0.139,0.006c0.567,0.413 0.448,0.55 0.492,0.734c0.105,0.433 0.589,0.449 0.587,0.839c-0.003,0.514 0.077,0.487 0.363,0.93c0.415,0.643 -0.34,0.398 -0.436,0.38c0.184,-0.246 0.336,-0.316 0.067,-0.464c-0.781,-0.428 -0.709,-0.769 -0.989,-1.297c-0.129,-0.178 -0.137,-0.175 -0.348,-0.194c-0.013,-0.593 -0.215,-0.495 -0.599,-0.964c-0.275,-0.335 -0.352,-0.115 -0.599,0.233c-0.208,-0.105 -0.199,-0.116 -0.276,-0.118c-0.043,-0.001 -0.042,-0.014 -0.644,-0.494c-0.251,-0.2 -0.299,-0.216 -0.205,-0.458Z" style="fill:#9bbbcc;fill-opacity:0.99;"/><path d="M2.605,9.971c0.15,0.224 0.182,0.444 0.324,0.204c0.126,-0.212 0.182,-0.159 0.286,-0.38c0.115,-0.244 0.301,0.069 0.613,0.093c0.431,0.033 0.734,0.28 0.812,0.287c0.092,0.008 0.267,0.04 -0.007,1.167c-0.151,0.623 -0.922,0.177 -2.078,-0.138c0.002,-0.08 0.04,-0.062 0.042,-0.14c0.002,-0.087 0.001,-0.081 0.007,-1.094Z" style="fill:#caeef8;fill-opacity:1;"/><path d="M11.419,13.017c0.051,0.071 0.101,0.143 0.152,0.214c0.171,0.267 0.221,0.199 0.507,0.334c-0.056,0.123 -0.027,0.211 -0.185,0.137c-0.539,-0.253 -0.559,0.133 -0.631,0.246c-0.063,0.037 -0.765,0.447 -0.784,0.459c-0.694,-0.144 -0.67,-0.194 -0.734,-0.246c-0.129,-0.106 -0.275,0.144 -0.222,0.423c-0.209,0.1 -0.197,0.111 -0.31,0.32c-0.312,0.165 -0.392,0.108 -0.523,0.391c-0.284,0.094 -0.367,0.043 -0.409,0.346c-0.108,0.12 -0.073,0.127 -0.022,0.289c-0.289,0.277 -0.07,0.357 -0.212,0.73c-0.355,-0.125 -0.365,-0.104 -0.618,-0.384c-0.342,-0.38 0.017,-0.406 0.149,-0.898c0.145,-0.054 0.138,-0.05 0.288,-0.072c0.063,-0.03 0.126,-0.06 0.189,-0.091c0.466,-0.222 0.369,-0.326 0.456,-0.374c0.106,-0.057 0.479,-0.017 0.5,-0.199c0.016,-0.138 -0.026,-0.131 -0.01,-0.271c0.002,-0.021 0.005,-0.019 0.065,-0.25c0.648,-0.444 0.869,0.225 1.464,-0.286c0.02,-0.017 0.021,-0.012 0.282,-0.156l0.165,-0.04c0.017,-0.039 0.034,-0.078 0.051,-0.117c-0.033,-0.328 -0.137,-0.267 -0.298,-0.262c-0.03,-0.049 -0.06,-0.097 -0.09,-0.146c0.335,-0.354 0.43,-0.44 0.78,-0.1Z" style="fill:#f5e6d0;fill-opacity:1;"/><path d="M8.229,10.881c-0.071,0.151 -0.168,0.211 -0.001,0.248c0.061,0.013 0.123,0.018 0.184,0.031c-0.345,2.637 -0.793,2.492 -1.243,3.067c-0.849,1.086 -1.672,1.128 -1.871,1.094c-0.338,0.007 -0.338,-0.045 -0.647,0.068c-0.062,0.03 -0.123,0.059 -0.185,0.089c-0.122,-0.129 -0.121,-0.116 -0.271,-0.215c0.939,-0.221 0.954,-0.143 1.817,-0.553c1.845,-1.243 1.854,-3.097 1.941,-3.726c0.129,-0.113 0.12,-0.152 0.277,-0.104Z" style="fill:#e0e8eb;fill-opacity:1;"/><path d="M1.813,8.972c-0.315,0.378 -0.199,0.422 -0.246,0.918c-0.059,0.616 -0.259,0.779 0.351,1.07c0.317,0.13 0.305,0.129 0.639,0.245c1.156,0.314 1.927,0.761 2.078,0.138c0.273,-1.127 0.099,-1.159 0.007,-1.167c-0.078,-0.007 -0.38,-0.254 -0.812,-0.287c-0.312,-0.024 -0.498,-0.337 -0.613,-0.093c-0.105,0.221 -0.161,0.168 -0.286,0.38c-0.142,0.24 -0.174,0.02 -0.324,-0.204c0.035,-0.193 0.014,-0.588 0.241,-0.379c0.08,0.074 0.087,0.017 0.349,-0.109c0.733,0.211 0.727,0.2 1.469,0.363c0.518,0.114 0.477,0.251 0.384,0.777c-0.168,0.955 0.17,1.551 -0.774,1.323c-3.037,-0.734 -3.103,-1.121 -3.032,-1.517c0.246,-1.368 0.217,-1.611 0.57,-1.457Z" style="fill:#e6f9fc;fill-opacity:1;"/><path d="M8.326,7.355c0.515,-0.001 1.03,-0.002 1.545,-0.003c-0.075,0.506 0.285,0.577 0.001,1.696c-0.085,0.005 -0.971,0.056 -1.061,-0.099c-0.432,-0.743 0.036,-0.921 -0.485,-1.594Z" style="fill:#eff1f0;fill-opacity:1;"/><path d="M21.062,9.995c0.498,1.112 -0.02,1.355 -0.008,1.422c0.01,0.062 0.089,0.098 0.1,0.16c-0.9,0.167 -1.174,0.396 -1.187,-0.141c-0.002,-0.09 -0.063,-0.076 -0.281,-1.093c0.103,-0.057 0.415,-0.175 0.452,-0.189c0.189,-0.032 0.176,-0.052 0.367,-0.084c0.044,-0.008 0.041,-0.005 0.558,-0.074Z" style="fill:#cef1f9;fill-opacity:1;"/><path d="M15.663,3.644c0.016,0.089 0.025,0.072 0.103,0.175c0.026,0.028 0.052,0.057 0.078,0.085c0.164,0.165 0.18,0.186 0.397,0.086c0.059,0.058 0.118,0.117 0.177,0.175c-0.346,0.301 -0.427,0.188 -0.728,0.534c-0.091,0.148 -0.069,0.146 -0.124,0.331c-0.095,0.099 -0.083,0.093 -0.183,0.19c-0.024,0.023 -0.08,0.079 -0.315,-0.274c-0.025,-0.03 -0.05,-0.059 -0.076,-0.089c-0.001,-0.473 -0.489,-0.455 -0.546,-0.453c-0.437,-0.2 -0.516,-0.235 -0.43,-0.273c0.031,-0.014 0.03,-0.011 0.403,-0.144c0.315,0.123 0.345,0.044 0.475,-0.273c0.16,-0.35 0.303,-0.361 0.1,-0.694c-0.067,-0.111 0.639,-0.721 0.452,0.08c-0.011,0.046 -0.051,0.216 0.218,0.543Z" style="fill:#f8cb78;fill-opacity:0.77;"/><path d="M14.099,7.338c0.646,-0.007 0.633,-0.011 1.272,-0.008c-0.042,0.822 0.066,0.808 0.093,1.634c-0.761,0.085 -0.756,0.094 -0.822,0.092c-0.144,-0.005 -0.449,-0.016 -0.542,-1.718Z" style="fill:#f0f2f1;fill-opacity:1;"/><path d="M9.975,7.342c0.594,-0.01 0.584,-0.023 1.181,-0.008c0.022,0.136 0.281,1.7 0.003,1.719c-1.225,0.083 -0.846,-0.526 -1.184,-1.711Z" style="fill:#eff2f0;fill-opacity:1;"/><path d="M11.435,7.322c0.336,-0 0.671,-0 1.007,-0.001c0.113,0.233 0.278,1.651 -0.004,1.722c-0.758,0.191 -0.82,-0.186 -0.831,-0.254c-0.207,-1.257 -0.191,-1.35 -0.172,-1.467Z" style="fill:#f2f3f1;fill-opacity:1;"/><path d="M12.722,7.333c0.332,0.001 0.665,0.002 0.997,0.003c0.073,0.606 0.67,1.813 -0.451,1.713c-0.592,-0.053 -0.543,-1.531 -0.546,-1.716Z" style="fill:#f0f2f0;fill-opacity:1;"/><path d="M7.048,7.431c0.535,-0.047 0.521,-0.082 1.103,-0.061c0.129,0.63 0.119,0.624 0.314,1.242c0.109,0.344 -0.605,0.075 -0.883,0.132c-0.539,0.11 -0.467,-0.808 -0.534,-1.313Z" style="fill:#eaeeee;fill-opacity:0.99;"/><path d="M6.14,17.283c0.186,0.263 0.597,0.628 1.356,2.405c-0.067,0.039 -0.064,0.015 -0.134,0.056c-0.012,0.007 0,0 -0.145,0.092l-0.088,0.042c-0.247,-0.211 -0.243,-0.205 -0.43,-0.476c-0.034,-0.094 -0.067,-0.189 -0.101,-0.283c-0.188,-0.141 -0.187,-0.139 -0.203,-0.152c-0.057,-0.046 -0.032,-0.053 -0.087,-0.097c0.019,-0.014 0.885,-0.651 0.086,-0.286c-0.185,-0.356 -0.297,-0.275 -0.452,-0.638c-0.103,-0.239 -0.177,-0.117 -0.402,0.003c0.027,-0.143 0.021,-0.157 0.6,-0.665Z" style="fill:#fbfaf7;fill-opacity:1;"/><path d="M15.838,14.754l0.072,-0.039c0.081,0.039 0.071,0.041 0.285,0.211c0.092,0.03 0.184,0.059 0.276,0.089c0.094,0.515 0.469,0.616 0.533,0.633c-0.01,-0.305 -0.034,-0.307 0.101,-0.581c0.034,0.015 0.2,0.085 0.463,0.046c0.301,0.313 0.52,0.5 0.085,0.594c-0.429,-0.091 -0.232,0.184 -0.248,0.242c-0.308,0.385 -0.243,0.545 -1.022,0.641c-0.409,-0.436 0.073,-0.319 0.098,-0.311c0.035,0.012 0.301,0.042 0.038,-0.458l0.045,-0.073c-0.278,-0.571 -0.727,-0.621 -0.818,-0.662c-0.003,-0.18 0.025,-0.167 0.092,-0.332Z" style="fill:#f8ead5;fill-opacity:1;"/><path d="M3.376,17.765c0.247,-0.349 0.324,-0.569 0.599,-0.233c0.384,0.468 0.586,0.371 0.599,0.964c-0.02,0.053 -0.209,0.563 -0.467,0.53c-0.854,-0.109 -0.744,-1.145 -0.731,-1.261Z" style="fill:#c6dbe2;fill-opacity:1;"/><path d="M18.274,17.389l0.164,0.093c-0.36,0.43 0.546,0.184 0.543,0.737c-0.006,1 -0.638,0.609 -0.85,0.829c-0.292,-0.028 -0.456,-0.03 -0.495,-0.03c0.252,-0.883 0.168,-0.911 0.64,-1.628Z" style="fill:#fafbf8;fill-opacity:0.99;"/><path d="M11.261,13.948c0.351,0.152 0.349,0.133 0.72,0.141c0.178,0.163 0.167,0.16 0.374,0.265c-0.223,0.282 -0.284,0.254 -0.318,0.62c-0.109,0.014 -0.219,0.028 -0.328,0.042c-0.558,0.204 -0.529,-0.076 -1.09,-0.236l-0.115,-0.081c0.03,-0.153 0.025,-0.145 -0.028,-0.292c0.019,-0.012 0.721,-0.422 0.784,-0.459Z" style="fill:#e9d1b2;fill-opacity:1;"/><path d="M19.318,16.025c0.068,0.231 0.071,0.225 0.076,0.281c-0.545,0.076 -1.058,0.975 -1.12,1.083c-0.472,0.718 -0.388,0.746 -0.64,1.628c-0.313,0.395 -0.415,0.832 -0.473,0.992c-0.018,0.048 -0.019,0.031 -0.251,0.587c-0.138,0.281 -0.117,0.278 -0.293,0.537c-0.126,0.185 -0.154,0.201 -0.349,0.098c0.11,-0.17 0.22,-0.339 0.331,-0.509c0.231,-0.519 0.199,-0.515 0.44,-1.031c0.222,-0.562 0.218,-0.547 0.482,-1.088c0.029,-0.092 0.057,-0.185 0.086,-0.277c0.052,-0.156 0.103,-0.312 0.155,-0.468c0.159,-0.269 0.154,-0.253 0.274,-0.547c0.242,-0.402 0.306,-0.339 0.54,-0.736l0.073,-0.137c0.054,-0.032 0.452,-0.266 0.67,-0.412Z" style="fill:#a3bac8;fill-opacity:1;"/><path d="M4.922,18.689c0.28,0.528 0.208,0.868 0.989,1.297c0.27,0.148 0.117,0.218 -0.067,0.464c-0.075,-0.019 -0.697,-0.173 -0.912,-0.307c-0.828,-0.516 -0.764,-0.838 -0.01,-1.453Z" style="fill:#d0e2e7;fill-opacity:1;"/><path d="M19.97,20.441c0.213,0.083 0.21,0.056 0.432,0.003c0.849,0.069 0.808,0.246 1.665,0.307c0.092,0.007 0.123,0.009 1.073,0.435c0.06,0.058 0.119,0.115 0.179,0.173l0.023,0.07c-0.034,0.029 -0.006,0.042 -0.036,0.068c-0.011,0.009 -0,0 -0.152,0.091c-1.712,0.452 -1.696,0.53 -2.283,0.528l-0.087,-0.009c0.059,-0.025 0.029,-0.146 0.088,-0.172c0.131,-0.057 0.185,0.202 1.737,-0.422c0.563,-0.226 -0.775,-0.714 -2.913,-0.881c0.113,-0.085 0.253,-0.177 0.275,-0.192Z" style="fill:#d4d5d6;fill-opacity:0.08;"/><path d="M9.881,17.001c0.434,0.252 0.427,0.258 0.924,0.284c0.027,0.212 -0.007,0.236 0.171,0.345c-0.366,0.183 -0.354,0.172 -0.729,0.345c-0.067,-0.019 -0.134,-0.039 -0.201,-0.058l-0.079,0.027c-0.174,-0.249 -0.147,-0.337 -0.448,-0.307c-0.365,0.037 -0.359,0.04 -0.372,0.032c-0.308,-0.181 -0.326,0.15 -0.374,0.199c-0.025,-0.015 -0.432,-0.237 -0.518,-0.314c-0.372,-0.336 0.075,-0.299 0.163,-0.319c0.525,-0.117 0.513,0.247 1.029,0.111c0.218,0.03 0.209,0.006 0.369,-0.13c0.022,-0.072 0.044,-0.143 0.065,-0.215Z" style="fill:#f1efe8;fill-opacity:1;"/><path d="M19.394,16.306c0.281,0.462 0.682,0.614 -0.008,1.252c-0.111,0.103 -0.486,0.128 -0.53,0.131l-0.093,-0.025c-0.083,-0.049 -0.094,0.014 -0.183,-0.039c-0.014,-0.008 0,0 -0.142,-0.143l-0.164,-0.093c0.062,-0.108 0.575,-1.007 1.12,-1.083Z" style="fill:#fcfcf8;fill-opacity:0.99;"/><path d="M6.746,7.454c-0.043,0.238 0.035,0.629 0.046,0.683c0.139,0.694 -0.253,0.722 -0.311,0.772c-0.124,-0.032 -0.247,-0.064 -0.371,-0.096c-0.389,-0.69 -0.397,-0.779 -0.404,-0.854c-0.066,-0.734 0.3,-0.52 1.04,-0.505Z" style="fill:#e3eaeb;fill-opacity:1;"/><path d="M16.663,7.354c0.603,0.022 0.593,-0.004 0.815,0.06c0.003,0.117 0.042,1.453 0.036,1.463c-0.055,0.103 -0.012,0.1 -0.027,0.219c-0.093,0.023 -0.186,0.046 -0.278,0.069c-0.099,-0.225 -0.086,-0.237 -0.107,-0.243c-0.36,-0.101 -0.458,-0.474 -0.44,-1.567Z" style="fill:#edf0ef;fill-opacity:1;"/><path d="M15.56,7.332l0.906,0.019c-0.075,0.686 -0.097,0.686 0.076,1.345c-0.022,0.064 -0.043,0.128 -0.065,0.192c-0.292,0.012 -0.327,0.106 -0.597,-0.152c-0.359,-0.613 -0.273,-1.06 -0.32,-1.404Z" style="fill:#eff1ef;fill-opacity:1;"/><path d="M2.645,9.296l0.55,0.187c-0.262,0.125 -0.269,0.182 -0.349,0.109c-0.227,-0.209 -0.206,0.186 -0.241,0.379c-0.007,1.013 -0.005,1.006 -0.007,1.094c-0.002,0.078 -0.04,0.06 -0.042,0.14c-0.334,-0.116 -0.322,-0.115 -0.639,-0.245c0.363,-0.548 -0.175,-0.637 0.058,-1.259c0.113,-0.302 -0.297,-0.572 0.022,-0.489c0.343,0.089 0.351,0.301 0.647,0.084Z" style="fill:#abdaec;fill-opacity:0.99;"/><path d="M7.738,19.692c0.346,-0.206 0.362,-0.125 0.764,-0.091c0.205,0.017 0.301,0.047 0.184,0.217c-0.007,0.051 -0.015,0.102 -0.022,0.152c0.048,0.061 0.008,0.207 0.571,0.18c0.092,0.039 0.183,0.079 0.275,0.118c0.154,0.268 0.162,0.263 0.459,0.335c0,0 0.11,-0.095 0.12,-0.103c0.189,0.135 0.194,0.085 0.419,0.101c0.004,0.057 0.008,0.114 0.012,0.171c-0.205,0.106 -0.203,0.094 -0.264,0.154c-1.257,-0.28 -1.503,-0.486 -1.824,-0.63c-0.24,-0.147 -0.227,-0.157 -0.505,-0.216c-0.063,-0.129 -0.126,-0.258 -0.189,-0.388Z" style="fill:#f5f6f4;fill-opacity:1;"/><path d="M17.852,7.42c0.119,0.006 0.94,-0.03 0.938,0.169c-0.003,0.308 -0.117,0.647 0.079,1.147c-0.059,0.015 -0.058,0.008 -0.743,0.181c-0.243,-0.725 -0.198,-0.728 -0.275,-1.497Z" style="fill:#edf1f0;fill-opacity:1;"/><path d="M4.195,15.263c0.15,0.099 0.15,0.086 0.271,0.215c0.759,0.8 0.134,1.301 -0.608,0.877c-0.185,-0.238 -0.196,-0.225 -0.228,-0.325c-0.185,-0.584 -0.046,-0.68 0.564,-0.767Z" style="fill:#f0f2f1;fill-opacity:1;"/><path d="M20.048,19.046c0.099,0.146 0.734,1.082 -1.558,1.563c-0.042,0.009 -0.364,-0.068 0.13,-0.52c0.748,-0.294 0.742,-0.318 1.247,-0.947c0,-0 0.166,-0.089 0.181,-0.097Z" style="fill:#d3e5ea;fill-opacity:0.99;"/><path d="M19.875,15.484c0.323,-0.219 0.582,0.472 1.089,-0.011c0.173,0.778 -0.29,0.949 -0.447,1.04c-0.293,-0.58 -0.637,-0.095 -0.757,-0.016c-0.394,-0.562 -0.241,-0.721 0.114,-1.013Z" style="fill:#fbfbf9;fill-opacity:1;"/><path d="M5.938,16.939l0.105,0.178c-0.028,0.023 -0.423,0.539 -0.848,0.298c-0.639,-0.363 -0.538,-0.531 -0.221,-1.205c0.128,-0.274 0.903,0.655 0.965,0.73Z" style="fill:#fafaf6;fill-opacity:1;"/><path d="M7.496,19.688c0.728,1.676 0.972,1.699 0.823,1.737c-0.215,0.055 -1.005,-0.346 -1.087,-0.388c-0.334,-0.17 -0.412,-0.4 -0.419,-0.41c0.215,-0.173 0.224,-0.142 0.489,-0.236c0.394,-0.14 0.085,-0.27 -0.007,-0.356c0.109,-0.098 0.041,-0.117 -0.078,-0.199c0.145,-0.092 0.133,-0.086 0.145,-0.092c0.07,-0.041 0.066,-0.016 0.134,-0.056Z" style="fill:#dfe7e9;fill-opacity:0.99;"/><path d="M7.111,18.325c0.134,-0.005 0.131,0.023 1.67,0.136c1.776,-0.048 1.818,-0.111 1.889,0.022c-0.026,0.026 -0.051,0.053 -0.077,0.079c-1.357,0.371 -1.982,0.053 -3.267,0.205c-0.072,-0.147 -0.144,-0.295 -0.216,-0.442Z" style="fill:#cbd8dc;fill-opacity:1;"/><path d="M21.062,9.995c0.095,-0.018 0.624,-0.387 0.746,0.345c0.079,0.476 0.089,0.463 0.1,0.957c-0.251,0.094 -0.503,0.187 -0.754,0.281c-0.01,-0.062 -0.089,-0.098 -0.1,-0.16c-0.011,-0.067 0.506,-0.31 0.008,-1.422Z" style="fill:#c9eef8;fill-opacity:0.99;"/><path d="M20.767,17.47c0.086,0.041 0.173,0.081 0.259,0.122c0,0.001 0.451,0.656 -0.226,1.214c-0.269,0.151 -0.259,0.203 -0.571,0.147c0.07,-0.412 -0.201,-0.671 0.537,-1.483Z" style="fill:#cde1e7;fill-opacity:1;"/><path d="M12.035,13.152c0.036,0.053 0.186,0.278 0.727,0.338c0.117,0.013 0.072,-0.041 0.121,-0.136c0.011,-0.021 0.034,-0.066 0.294,0.02c0.036,0.005 0.072,0.011 0.109,0.016c0.083,-0.109 0.266,-0.226 0.292,-0.242c0.275,0.092 0.265,0.084 0.54,0.183l0.011,0.099c0.011,0.047 0.023,0.094 0.034,0.14c0.09,0.103 0.08,0.098 0.2,0.174c-0.115,0.12 -0.109,0.117 -0.266,0.153c-0.117,-0.042 -0.09,-0.116 -0.285,-0.102c-0.451,0.032 -0.499,-0.165 -0.728,-0.127c-0.507,0.085 -0.495,0.027 -1.005,-0.103c-0.286,-0.134 -0.336,-0.066 -0.507,-0.334c0.252,0.007 0.232,-0.029 0.465,-0.079Z" style="fill:#f9ebd6;fill-opacity:1;"/><path d="M7.558,19.248c2.556,0.251 2.686,0.625 2.49,0.688c-0,-0 -0.236,-0.093 -0.257,-0.101l-0.189,-0.043c-0.018,0.031 -0.036,0.063 -0.055,0.094c-0.015,0.029 -0.085,0.161 -0.313,0.264c-0.563,0.027 -0.523,-0.119 -0.571,-0.18c0.007,-0.051 0.015,-0.102 0.022,-0.152c0.117,-0.17 0.021,-0.199 -0.184,-0.217c-0.402,-0.034 -0.418,-0.115 -0.764,0.091l-0.179,-0.445Z" style="fill:#d3dde1;fill-opacity:1;"/><path d="M13.208,1.806c0.068,0.322 0.01,0.356 0.273,0.548c0.231,0.243 0.856,0.319 0.434,0.49c-0.021,0.009 -0.016,0.001 -0.271,0.091c-0.131,0.1 -0.365,-0.015 -0.354,0.468l-0.047,0.053l-0.034,0.035c-0.208,-0.021 -0.213,-0.022 -0.333,-0.193c-0.003,-0.009 -0.018,0.009 -0.071,-0.097l-0.017,-0.073c-0.045,-0.051 -0.091,-0.102 -0.136,-0.153c-0.013,-0.007 -0.002,-0.011 -0.151,-0.1c0.017,-0.008 0.216,-0.098 0.216,-0.098c0.344,0.297 0.521,0.404 0.653,-0.034c0.058,-0.195 -0.313,-0.425 -0.39,-0.394c-0.134,0.055 -0.052,0.152 -0.191,0.184c-0.096,0.022 -0.015,-0.137 -0.116,-0.113c0.009,-0.054 0.017,-0.109 0.026,-0.163c0.213,-0.212 0.26,-1.462 0.509,-0.452Z" style="fill:#f9cb7b;fill-opacity:0.85;"/><path d="M19.773,13.832c-0.022,0.053 -0.045,0.105 -0.067,0.158c-0.051,-0.025 -1.469,-0.268 -1.923,-3.284c-0.005,-0.031 0.196,-0.231 0.281,0.268c0.369,2.171 1.472,2.737 1.709,2.858Z" style="fill:#b0c2cc;fill-opacity:1;"/><path d="M17.634,19.017c0.04,0.001 0.204,0.003 0.495,0.03c0.545,0.474 0.351,0.636 -0.179,1.114c-0.358,-0.269 -0.384,-0.347 -0.789,-0.152c0.057,-0.16 0.16,-0.597 0.473,-0.992Z" style="fill:#fcfcf9;fill-opacity:0.99;"/><path d="M23.022,15.228c0.235,0.951 -1.799,2.537 -1.93,2.17c-0.119,-0.334 -0.074,-0.342 0.148,-0.633c0.103,-0.015 1.263,-0.184 1.209,-0.485c-0.011,-0.061 -0.139,-0.048 -0.15,-0.109c0.036,-0.079 0.071,-0.159 0.107,-0.238c0.016,0.023 -0.03,0.06 -0.014,0.083c0.165,0.246 0.341,-0.3 0.434,-0.52c0.051,-0.153 0.05,-0.139 0.066,-0.212l0.13,-0.055Z" style="fill:#b3ccd7;fill-opacity:0.99;"/><path d="M14.362,13.744l0.267,0.1c0.436,0.274 0.428,0.384 0.928,0.254c0.24,0.259 0.31,0.213 0.379,0.563l-0.026,0.054l-0.072,0.039c-0.235,-0.164 -0.397,-0.379 -0.79,0.222c-0.043,-0.024 -0.101,0.064 -0.144,0.039c-0.019,-0.01 -0.117,-0.216 -0.118,-0.255c-0.002,-0.088 -0.009,-0.347 -0.69,-0.863c0.157,-0.036 0.152,-0.033 0.266,-0.153Z" style="fill:#f2dcbf;fill-opacity:1;"/><path d="M1.813,8.972c0.277,0.108 0.555,0.216 0.832,0.324c-0.296,0.216 -0.304,0.004 -0.647,-0.084c-0.32,-0.083 0.091,0.187 -0.022,0.489c-0.233,0.621 0.304,0.71 -0.058,1.259c-0.609,-0.291 -0.409,-0.453 -0.351,-1.07c0.047,-0.495 -0.069,-0.54 0.246,-0.918Z" style="fill:#a8dbee;fill-opacity:0.99;"/><path d="M1.536,20.749c-0.054,0.034 -0.034,0.136 -0.087,0.17c-0.026,0.017 -1.981,0.383 -0.361,0.766c0.282,0.067 0.256,0.125 0.548,0.189c0.337,0.074 0.337,0.048 0.363,0.061c0.096,0.049 -0.007,0.12 0.091,0.17c-0.58,0.001 -1.792,-0.321 -1.806,-0.337c-0.218,-0.253 -0.366,-0.307 -0.113,-0.518c0.577,-0.483 0.607,-0.45 1.365,-0.501Z" style="fill:#d2d3d4;fill-opacity:0.08;"/><path d="M17.889,20.316l0.017,0.017c-0.172,0.797 -0.321,0.754 -1.519,1.207c-0.027,0.01 -0.135,0.051 -0.362,0.003c0.081,-0.104 0.162,-0.207 0.242,-0.311c0.196,0.103 0.223,0.087 0.349,-0.098c0.176,-0.259 0.155,-0.257 0.293,-0.537c0.941,-0.048 0.885,-0.201 0.979,-0.28Z" style="fill:#dee6e8;fill-opacity:1;"/><path d="M20.693,16.856c-0.023,0.085 -0.434,0.978 -0.739,1.084c-0.2,0.069 0.006,0.185 -0.112,0.354c-0.195,0.279 -0.253,0.22 -0.565,0.093c0.144,-0.334 0.866,-1.418 0.947,-1.456c0.226,-0.106 0.226,-0.109 0.469,-0.075Z" style="fill:#90b6c9;fill-opacity:0.99;"/><path d="M6.811,17.8c0.118,-0.056 0.441,-0.211 1.605,0.324c0.058,0.027 0.215,0.228 0.366,0.337c-1.539,-0.113 -1.536,-0.14 -1.67,-0.136c-0.1,-0.175 -0.2,-0.35 -0.3,-0.525Z" style="fill:#e8edec;fill-opacity:1;"/><path d="M9.521,14.584c0.899,0.113 0.896,0.118 0.983,0.116l0.115,0.081c-0.19,0.192 -0.2,0.184 -0.467,0.172c-0.032,-0.002 -0.029,0.009 -0.386,0.121c-0.305,0.119 -0.266,0.167 -0.532,0.342c-0.126,0.083 -0.204,0.035 -0.332,0.177c-0.32,0.029 -0.309,0.031 -0.624,0.05c0.042,-0.303 0.125,-0.252 0.409,-0.346c0.823,0.018 0.548,-0.334 0.523,-0.391c0.114,-0.209 0.101,-0.221 0.31,-0.32Z" style="fill:#efdabf;fill-opacity:1;"/><path d="M5.298,15.321c-0.143,0.205 -0.254,0.332 -0.002,0.334c0.494,0.003 1.117,0.696 1.193,0.781c-0.124,0.096 -0.248,0.192 -0.373,0.288c-1.056,-0.813 -0.943,-0.934 -1.466,-1.335c0.31,-0.114 0.309,-0.061 0.647,-0.068Z" style="fill:#dce5e8;fill-opacity:1;"/><path d="M22.406,15.932c-0.036,0.079 -0.071,0.159 -0.107,0.238c-0.459,0.225 -0.57,0.437 -0.84,0.006c-0.47,-0.751 0.666,-1.159 0.947,-0.244Z" style="fill:#f9f9f8;fill-opacity:0.99;"/><path d="M17.479,7.415c0.312,-0.001 0.306,-0.004 0.373,0.005c0.076,0.769 0.032,0.772 0.275,1.497c-0.213,0.06 -0.426,0.12 -0.638,0.18c0.015,-0.118 -0.027,-0.115 0.027,-0.219c0.005,-0.01 -0.033,-1.346 -0.036,-1.463Z" style="fill:#cfdde2;fill-opacity:0.99;"/><path d="M11.743,16.241c0.267,-0.115 0.273,-0.086 0.516,0.06l-0.076,0.112c-0.03,0.055 -0.094,0.176 -0.143,0.773c-0.29,-0.257 -0.264,-0.483 -0.61,-0.288c-0.039,0.022 -0.259,0.146 -0.551,-0.047c-0.028,-0.065 -0.056,-0.129 -0.084,-0.194c0.056,-0.026 0.033,-0.045 0.09,-0.072c0.021,-0.01 0.02,-0.008 0.273,-0.111c0.111,-0.066 0.108,-0.053 0.198,-0.14c0.2,-0.042 0.188,-0.054 0.388,-0.093Z" style="fill:#e6ceaf;fill-opacity:1;"/><path d="M2.561,15.835c-0.17,-0.075 -0.201,-0.188 -0.289,-0.04c-0.1,0.169 0.013,0.144 0.192,0.231l-0,0.091c0.09,0.364 -0.034,0.386 -0.041,0.406c-0.716,-0.563 -0.395,-1.005 0.122,-1.063c0.531,-0.059 0.8,-0.13 0.678,0.389l-0.086,0.281c-0.082,-0.017 -0.532,-0.269 -0.577,-0.295Z" style="fill:#e3e9eb;fill-opacity:1;"/><path d="M16.449,15.819l0.07,0.002c0.262,0.5 -0.004,0.469 -0.038,0.458c-0.025,-0.008 -0.506,-0.125 -0.098,0.311c-0.585,-0.01 -0.56,0.068 -1.11,0.237c-0.366,-0.205 -0.293,-0.402 -0.279,-0.441c0.269,0.098 0.309,0.124 0.478,-0.109c0.079,-0.014 0.413,0.105 0.977,-0.457Z" style="fill:#f5e4cb;fill-opacity:1;"/><path d="M16.84,19.597c-1.95,0.245 -2.063,0.648 -2.273,0.285c0.668,-0.422 0.74,-0.19 2.268,-0.667c0.16,-0.05 0.252,-0.061 0.192,0.104c-0.009,0.025 -0.018,0.015 -0.187,0.278Z" style="fill:#ccd9de;fill-opacity:1;"/><path d="M22.421,11.094c-0.038,-0.129 -0.569,-1.945 0.017,-1.684c0.092,0.041 0.057,0.076 0.267,1.391c0.04,0.249 -0.03,0.243 -0.284,0.293Z" style="fill:#bae7f6;fill-opacity:1;"/><path d="M17.606,18.325c-0.029,0.092 -0.057,0.185 -0.086,0.277c-1.315,0.3 -2.405,0.241 -2.614,0.23c0.335,-0.274 0.784,-0.093 2.7,-0.507Z" style="fill:#dfe6e7;fill-opacity:0.99;"/><path d="M15.106,17.23c0.188,-0.059 1.814,-0.775 1.263,0.125c-0.6,0.186 -0.996,0.06 -1.18,0.052c-0.028,-0.059 -0.055,-0.118 -0.083,-0.177Z" style="fill:#f3e7d5;fill-opacity:1;"/><path d="M15.581,4.104l-0.023,0.101c-0.039,0.145 -0.025,0.132 -0.076,0.283c-0.035,0.103 -0.098,0.484 -0.21,0.275c-0.146,-0.271 -0.131,-0.269 -0.351,-0.472c-0.297,-0.275 0.086,-0.264 0.228,-0.635c0.037,-0.096 0.258,-0.187 0.431,0.448Z" style="fill:#fefbe7;fill-opacity:0.99;"/><path d="M12.673,2.421c0.102,-0.023 0.02,0.136 0.116,0.113c0.139,-0.032 0.057,-0.129 0.191,-0.184c0.076,-0.031 0.448,0.199 0.39,0.394c-0.132,0.439 -0.309,0.331 -0.653,0.034c0,0 -0.199,0.09 -0.216,0.098l-0.17,-0.013c-0.267,-0.114 -0.265,-0.111 -0.267,-0.116c-0.096,-0.194 0.054,-0.134 0.262,-0.231c0.19,0.005 0.176,-0.015 0.348,-0.095Z" style="fill:#fbebc4;fill-opacity:0.94;"/><path d="M17.299,22.563c-0.926,0.239 -0.934,0.136 -2.474,0.184c0.062,-0.019 0.029,-0.153 0.091,-0.172c0.013,-0.004 1.395,-0.117 1.924,-0.144c0.038,-0.002 0.285,-0.015 0.459,0.132Z" style="fill:#d1d1d4;fill-opacity:0.05;"/><path d="M11.98,20.155c0.315,-0.063 0.303,0.002 0.563,0.193c0.034,0.008 0.91,0.08 1.177,0.089l-0.013,0.148c-0.086,0.007 -0.841,0.162 -1.235,-0.021c-0.031,-0.014 -0.087,-0.041 -0.404,0.125c-0.014,-0.152 -0.001,-0.143 -0.081,-0.269l-0.037,-0.107c0.01,-0.052 0.02,-0.105 0.029,-0.157Z" style="fill:#f0f7f6;fill-opacity:0.99;"/><path d="M5.66,22.565c0.099,-0.055 0.069,-0.115 0.183,-0.102c0.073,0.008 0.603,0.067 0.92,0.05c0.103,-0.005 1.327,0.016 1.373,0.104c0.074,0.141 0.11,0.081 0.18,0.133c-1.258,0.005 -1.254,0.025 -2.656,-0.185Z" style="fill:#d4d4d6;fill-opacity:0.06;"/><path d="M13.301,17.191c0.113,0.171 0.109,0.293 0.423,0.156c0.044,-0.019 0.11,-0.006 0.137,-0.045c0.019,-0.028 -0.063,-0.063 -0.044,-0.091l0.094,-0.015c0.034,0.026 0.093,-0.046 0.127,-0.02c0.08,0.06 -0.011,0.097 0.06,0.16c0.045,0.04 0.037,-0.074 0.081,-0.035c-0.681,0.502 -0.701,0.479 -1.556,0.547c0.272,-0.405 0.263,-0.412 0.676,-0.657Z" style="fill:#f5e5cd;fill-opacity:1;"/><path d="M9.024,16.342c0.248,0.113 0.265,0.141 0.278,0.163c0.207,0.344 0.236,0.309 0.579,0.496c-0.022,0.072 -0.044,0.143 -0.065,0.215c-0.16,0.135 -0.151,0.16 -0.369,0.13c0.224,-0.185 -0.071,-0.155 -0.234,-0.406c-0.081,-0.123 -0.14,0.058 -0.228,-0.027c-0.142,-0.138 -0.119,-0.144 -0.299,-0.254c0.151,-0.192 0.089,-0.273 0.338,-0.316Z" style="fill:#f6edde;fill-opacity:1;"/><path d="M4.105,19.871c0.258,0.373 0.432,0.499 0.593,0.613c-0.056,0.008 -0.087,0.083 -0.142,0.09c-1.399,0.192 -1.612,0.039 -1.724,-0.041c0.98,-0.382 1.565,0.009 1.25,-0.38c-0.009,-0.011 -0,0 -0.016,-0.178l0.04,-0.105Z" style="fill:#d1d3d6;fill-opacity:0.05;"/><path d="M4.303,7.77c0.075,-0.069 0.003,-0.1 0.073,-0.165c0.005,-0.005 -0.008,0.007 0.088,0.018c0.186,0.021 0.174,-0.003 0.551,-0.057c0.374,-0.054 0.294,0.116 0.361,0.489c0.059,0.325 -0.455,0.381 -0.707,-0.205c-0.11,-0.083 -0.107,-0.014 -0.23,0.058c-0.045,-0.046 -0.091,-0.093 -0.136,-0.139Z" style="fill:#dae5e8;fill-opacity:1;"/><path d="M12.445,12.963c0.57,0.173 0.645,-0.143 1.132,0.185c-0.026,0.016 -0.209,0.133 -0.292,0.242l-0.109,-0.016c-0.26,-0.086 -0.283,-0.041 -0.294,-0.02c-0.049,0.095 -0.004,0.149 -0.121,0.136c-0.54,-0.059 -0.691,-0.285 -0.727,-0.338c0.216,-0.096 0.204,-0.093 0.41,-0.19Z" style="fill:#f7e4cb;fill-opacity:1;"/><path d="M10.893,16.117c-0.007,0.082 -0.002,0.074 0.017,0.308c-0.603,-0.052 -0.965,-0.038 -0.69,-0.679c0.12,-0.28 0.517,-0.033 0.673,0.371Z" style="fill:#dec3a1;fill-opacity:1;"/><path d="M15.37,7.33c0.063,0.001 0.126,0.002 0.189,0.002c0.047,0.344 -0.039,0.791 0.32,1.404c-0.19,0.153 -0.166,0.196 -0.416,0.228c-0.027,-0.826 -0.135,-0.812 -0.093,-1.634Z" style="fill:#d0dce1;fill-opacity:1;"/><path d="M12.009,15.602c0.179,-0.058 0.445,-0.207 0.369,0.065c-0.064,0.231 0.058,0.186 0.247,0.37c-0.173,0.086 -0.149,0.099 -0.275,0.258l-0.091,0.006c-0.243,-0.145 -0.249,-0.175 -0.516,-0.06c-0.005,-0.129 -0.01,-0.257 -0.015,-0.386c0.021,-0.022 0.171,-0.186 0.281,-0.253Z" style="fill:#e2c8a7;fill-opacity:0.99;"/><path d="M22.415,13.181c0.004,0.031 0.009,0.062 0.013,0.094c0.005,0.418 -0.048,0.409 -0.004,0.826c-0.001,0.053 -0.001,0.107 -0.002,0.16c-0.082,-0.027 -0.165,-0.055 -0.247,-0.082c-0.044,-0.358 0.015,-0.347 0.035,-0.825c0.003,-0.08 -0.025,-0.224 -0.037,-0.812c-0.062,-3.037 0.241,0.585 0.242,0.639Z" style="fill:#a8c0cc;fill-opacity:1;"/><path d="M7.927,20.08c0.278,0.059 0.265,0.07 0.505,0.216c-0.164,0.139 -0.175,0.168 -0.05,0.339c0.49,0.671 0.698,0.627 0.579,0.758c-0.043,0.047 -0.053,0.122 -0.105,0.158c-0.023,0.016 -0.053,-0.05 -0.076,-0.035c-0.529,-0.578 -0.688,-0.884 -0.853,-1.437Z" style="fill:#d6e0e4;fill-opacity:1;"/><path d="M13.729,16.237c-0.364,0.319 -0.423,0.433 -0.817,0.145c-0.03,-0.036 -0.002,-0.18 -0.562,-0.087c0.127,-0.158 0.102,-0.172 0.275,-0.258c0.351,-0.068 0.568,-0.194 1.104,0.2Z" style="fill:#e6ccac;fill-opacity:1;"/><path d="M8.258,15.931c0.182,0.203 0.147,0.254 0.422,0.293c0.089,0.034 0.178,0.067 0.267,0.101l0.077,0.017c-0.249,0.043 -0.186,0.125 -0.338,0.316l-0.096,-0.014c-0.089,0.033 -0.178,0.066 -0.267,0.1l-0.278,-0.084c0.142,-0.374 -0.077,-0.454 0.212,-0.73Z" style="fill:#f4e4cd;fill-opacity:1;"/><path d="M12.355,14.355c0.06,0.003 0.12,0.007 0.179,0.01c0.08,0.179 0.028,0.224 0.457,0.512c0.404,0.271 -0.878,0.108 -0.954,0.098c0.033,-0.366 0.094,-0.338 0.318,-0.62Z" style="fill:#e1c5a3;fill-opacity:1;"/><path d="M3.816,22.366c0.577,-0.236 0.585,-0.057 1.574,0.027c0.06,0.005 0.13,-0.032 0.181,-0c0.054,0.035 0.035,0.137 0.089,0.172c-0.322,0.081 -0.344,-0.012 -0.631,0.16c-0.116,0.07 -0.38,-0.388 -1.013,-0.278c-0.114,0.02 -0.105,-0.008 -0.2,-0.081Z" style="fill:#d5d5d6;fill-opacity:0.05;"/><path d="M6.309,18.869c0.055,0.044 0.03,0.052 0.087,0.097c0.016,0.013 0.015,0.011 0.203,0.152c-0.029,0.048 -0.113,0.042 -0.142,0.09c-0.016,0.026 0.09,0.316 0.107,0.316c0.061,-0.002 0.075,-0.122 0.137,-0.123c0.187,0.272 0.184,0.266 0.43,0.476c-0.641,0.285 -1.173,-0.501 -0.821,-1.009Z" style="fill:#eef1f1;fill-opacity:1;"/><path d="M14.642,22.747c-1.429,0.107 -1.425,0.163 -2.108,0.093c0.059,-0.029 0.033,-0.144 0.091,-0.173c0.099,-0.049 0.098,0.007 1.374,-0.048c0.458,-0.02 0.601,0.096 0.642,0.129Z" style="fill:#d6d6d7;fill-opacity:0.05;"/><path d="M10.477,14.407c0.052,0.147 0.058,0.139 0.028,0.292c-0.087,0.002 -0.085,-0.003 -0.983,-0.116c-0.053,-0.278 0.092,-0.528 0.222,-0.423c0.064,0.052 0.04,0.102 0.734,0.246Z" style="fill:#f6e5cf;fill-opacity:1;"/><path d="M8.904,15.592c-0.001,0.008 0.128,0.106 -0.035,0.193c-0.085,0.045 -0.069,0.067 -0.001,0.147c0.105,0.124 0.075,0.128 0.059,0.295c-0.134,-0.028 -0.122,-0.014 -0.248,-0.004c-0.275,-0.039 -0.24,-0.09 -0.422,-0.293c-0.051,-0.162 -0.086,-0.169 0.022,-0.289c0.316,-0.018 0.304,-0.021 0.624,-0.05Z" style="fill:#f1dfc6;fill-opacity:1;"/><path d="M8.317,22.75c0.28,-0.224 0.317,-0.138 1.558,-0.09c0.123,0.005 0.255,-0.039 0.369,0.007c0.061,0.024 0.028,0.151 0.089,0.175c-0.771,-0.045 -1.4,0.064 -2.015,-0.092Z" style="fill:#d7d7d8;fill-opacity:0.07;"/><path d="M16.482,11.113c-1.614,0.268 -1.736,0.162 -1.659,0.054c0.047,-0.066 0.077,0.084 1.002,-0.135c0.426,-0.101 0.63,-0.348 0.658,0.082Z" style="fill:#aec1cb;fill-opacity:1;"/><path d="M5.54,17.948c0.225,-0.12 0.299,-0.243 0.402,-0.003c0.155,0.363 0.267,0.282 0.452,0.638c-0.629,0.234 -0.782,-0.33 -0.854,-0.635Z" style="fill:#e9eeee;fill-opacity:1;"/><path d="M11.981,14.089c0.064,-0.034 0.057,-0.019 0.106,-0.057c0.366,-0.279 0.454,0.088 0.629,-0.053c0.029,-0.023 0.185,-0.149 0.366,0.278c-0.022,0.069 -0.044,0.139 -0.065,0.208c-0.234,-0.109 -0.222,-0.167 -0.483,-0.101c-0.06,-0.003 -0.12,-0.007 -0.179,-0.01c-0.207,-0.105 -0.196,-0.102 -0.374,-0.265Z" style="fill:#ead1b1;fill-opacity:1;"/><path d="M15.014,16.004c0.022,0.072 0.044,0.145 0.066,0.217l-0.086,0.164c-0.014,0.039 -0.088,0.236 0.279,0.441c-0.22,0.079 -0.204,0.096 -0.446,0.134c-0.243,-0.042 -0.228,-0.04 -0.463,-0.099c0.188,-0.109 0.299,-0.042 0.356,-0.473c0.037,-0.279 0.029,-0.319 0.295,-0.385Z" style="fill:#f4e2c9;fill-opacity:1;"/><path d="M12.076,12.706c0.06,0.045 0.121,0.09 0.181,0.135c0.063,0.041 0.125,0.081 0.188,0.122c-0.206,0.097 -0.194,0.094 -0.41,0.19c-0.233,0.05 -0.213,0.086 -0.465,0.079c-0.051,-0.071 -0.101,-0.143 -0.152,-0.214c0.272,-0.24 0.264,-0.27 0.293,-0.259c0.187,0.075 0.178,0.017 0.365,-0.052Z" style="fill:#fbf3e7;fill-opacity:1;"/><path d="M10.879,16.851c0.293,0.193 0.513,0.069 0.551,0.047c0.345,-0.195 0.32,0.031 0.61,0.288c-0.01,0.03 -0.111,0.327 -0.374,0.12c-0.414,-0.326 -0.849,0.073 -0.787,-0.455Z" style="fill:#e8d2b4;fill-opacity:1;"/><path d="M8.773,17.867c0.048,-0.049 0.066,-0.38 0.374,-0.199c0.014,0.008 0.007,0.005 0.372,-0.032c0.301,-0.03 0.273,0.058 0.448,0.307c-0.604,0.018 -0.602,0.068 -1.194,-0.077Z" style="fill:#e5e8e5;fill-opacity:1;"/><path d="M10.601,20.401c0.064,0.006 0.128,0.011 0.192,0.017c0.36,0.11 0.355,0.042 0.721,0.046c0.071,0.113 0.09,0.116 0.014,0.235c-0.51,0.064 -0.494,0.1 -1.008,0.072c-0.004,-0.057 -0.008,-0.114 -0.012,-0.171c0.031,-0.067 0.062,-0.133 0.093,-0.2Z" style="fill:#e5f3f5;fill-opacity:1;"/><path d="M16.59,14.708l0.082,0.017c0.066,0.153 0.121,0.12 0.129,0.3c0.01,0.208 0.107,0.083 0.303,0.041c-0.135,0.274 -0.111,0.276 -0.101,0.581c-0.064,-0.017 -0.438,-0.118 -0.533,-0.633c0.111,-0.168 0.113,-0.166 0.12,-0.182c0.026,-0.065 -0.027,-0.06 -0.001,-0.124Z" style="fill:#faeddb;fill-opacity:1;"/><path d="M17.162,20.009c0.359,0.167 0.34,0.182 0.727,0.306c-0.093,0.079 -0.038,0.232 -0.979,0.28c0.232,-0.556 0.233,-0.539 0.251,-0.587Z" style="fill:#fbfbf9;fill-opacity:1;"/><path d="M15.838,14.754c-0.066,0.166 -0.094,0.153 -0.092,0.332c-0.372,0.063 -0.382,0.081 -0.699,-0.11c0.394,-0.601 0.556,-0.387 0.79,-0.222Z" style="fill:#f5e3c9;fill-opacity:1;"/><path d="M15.106,17.23c0.028,0.059 0.055,0.118 0.083,0.177c-0.377,0.515 -0.469,0.159 -0.67,0.023c-0.048,-0.033 -0.31,-0.119 -0.338,-0.128c0.173,-0.123 0.166,-0.118 0.368,-0.13c0.091,0.141 0.05,0.281 0.183,0.175c0.248,-0.198 0.3,-0.094 0.373,-0.117Z" style="fill:#fbf2e5;fill-opacity:1;"/><path d="M14.117,13.331c0.057,-0.009 0.376,-0.062 0.708,0.125c0.258,0.145 0.026,0.182 -0.196,0.388l-0.267,-0.1c-0.121,-0.076 -0.111,-0.071 -0.2,-0.174c-0.011,-0.047 -0.023,-0.094 -0.034,-0.14l-0.011,-0.099Z" style="fill:#fcf5ea;fill-opacity:1;"/><path d="M3.835,16.748c0.72,0.037 0.611,0.256 0.774,0.534c-0.12,-0.006 -0.014,0.16 -0.137,0.154c-0.019,-0.001 0.045,-0.059 -0.17,-0.169c-0.28,-0.143 -0.298,-0.078 -0.317,-0.097c-0.072,-0.07 0.109,-0.15 -0.15,-0.423Z" style="fill:#8cb2c7;fill-opacity:0.99;"/><path d="M15.832,14.06c0.382,-0.042 0.366,0.043 0.736,0.124c0.215,0.047 0.133,0.135 0.003,0.283l-0.016,0.088c-0.052,0.01 -0.104,0.021 -0.156,0.031c-0.065,-0.017 -0.129,-0.035 -0.194,-0.052c-0.022,-0.043 -0.152,-0.301 -0.373,-0.474Z" style="fill:#f5e6cf;fill-opacity:1;"/><path d="M13.912,16.819c0.234,0.003 0.221,0.01 0.452,0.043c0.235,0.059 0.22,0.057 0.463,0.099c-0.242,0.189 -0.237,0.189 -0.277,0.211c-0.202,0.013 -0.195,0.007 -0.368,0.13c-0.044,-0.039 -0.036,0.075 -0.081,0.035c-0.071,-0.063 0.02,-0.101 -0.06,-0.16c-0.034,-0.026 -0.093,0.046 -0.127,0.02c0.174,-0.143 0.078,-0.17 -0,-0.378Z" style="fill:#f9edda;fill-opacity:1;"/><path d="M2.054,12.141c0.016,0.678 0.172,0.784 -0.056,1.144l-0.124,-0.094c-0.022,-0.278 -0.043,-0.555 -0.065,-0.833c0.081,-0.073 0.163,-0.145 0.244,-0.218Z" style="fill:#cbd8dc;fill-opacity:1;"/><path d="M13.912,16.819c0.079,0.208 0.174,0.235 0,0.378l-0.094,0.015c-0.272,-0.078 -0.261,-0.11 -0.553,-0.085c-0.405,-0.215 -0.116,-0.303 -0.091,-0.302c0.343,0.011 0.339,0.083 0.738,-0.006Z" style="fill:#f8edda;fill-opacity:1;"/><path d="M11.043,20.124c0.052,0.053 0.153,0.156 0.908,0.189l0.037,0.107c-0.09,0.008 -0.071,0.023 -0.164,0.032c-0.025,0.002 -0.023,0.001 -0.309,0.013c-0.366,-0.004 -0.361,0.064 -0.721,-0.046c0.021,-0.023 0.17,-0.186 0.25,-0.294Z" style="fill:#f1f9f8;fill-opacity:1;"/><path d="M14.663,15.885c-0.308,0.359 -0.304,0.51 -0.749,0.345c0.221,-0.606 0.693,-0.36 0.749,-0.345Z" style="fill:#e7ceae;fill-opacity:1;"/><path d="M8.229,10.881c0.446,0.119 1.081,0.181 0.898,0.351c-0.086,0.08 -0.659,-0.058 -0.714,-0.071c-0.061,-0.013 -0.123,-0.018 -0.184,-0.031c-0.168,-0.037 -0.07,-0.097 0.001,-0.248Z" style="fill:#acc1cd;fill-opacity:1;"/><path d="M7.296,20.034c0.092,0.086 0.401,0.216 0.007,0.356c-0.265,0.094 -0.274,0.063 -0.489,0.236c-0.156,-0.438 0.072,-0.38 0.483,-0.592Z" style="fill:#f0f4f3;fill-opacity:1;"/><path d="M18.035,17.31c-0.12,0.293 -0.115,0.278 -0.274,0.547c-0.03,-0.012 0.035,-0.085 0.005,-0.097c-0.172,-0.07 -0.398,0.131 -0.371,-0.265c0.289,-0.193 0.297,-0.147 0.639,-0.185Z" style="fill:#c7d6dd;fill-opacity:0.99;"/><path d="M19.761,16.496c0.12,-0.079 0.464,-0.564 0.757,0.016c-0.388,0.133 -0.422,0.23 -0.757,-0.016Z" style="fill:#f5f7f6;fill-opacity:1;"/><path d="M20.783,22.107l0.087,0.009c-0.605,0.073 -0.578,0.174 -1.189,0.172c0.056,-0.028 0.034,-0.138 0.09,-0.166c0.508,-0.256 0.939,-0.05 1.012,-0.015Z" style="fill:#d3d4d6;fill-opacity:0.07;"/><path d="M9.62,11.108c0.983,-0.073 0.946,0.186 0.9,0.245c-0.03,0.038 -0.902,0.087 -0.9,-0.245Z" style="fill:#9cb3c0;fill-opacity:1;"/><path d="M12.009,15.602c-0.11,0.067 -0.261,0.231 -0.281,0.253c-0.052,-0.048 -0.249,-0.015 -0.195,-0.377c0.006,-0.039 0.17,-0.586 0.476,0.124Z" style="fill:#ddc09d;fill-opacity:1;"/><path d="M15.067,4.948c0.235,0.353 0.291,0.297 0.315,0.274c0.1,-0.098 0.087,-0.091 0.183,-0.19c0.005,0.051 0.068,0.633 -0.289,0.567c-0.05,-0.009 -0.297,-0.453 -0.288,-0.481c0.004,-0.014 0,0 0.08,-0.17Z" style="fill:#ecd3ab;fill-opacity:0.09;"/><path d="M19.494,6.544c0.348,-0.236 0.383,-0.175 0.758,0.009c0.191,0.093 0.233,0.007 0.352,0.18l-0.096,0.009c-0.143,-0.052 -0.136,-0.045 -0.283,-0.041c-0.18,-0.028 -0.358,0.006 -0.732,-0.157Z" style="fill:#bbc2c6;fill-opacity:0.05;"/><path d="M21.595,14.119c0.005,0.065 0.011,0.131 0.016,0.196c-0.069,-0.004 -1.487,-0.078 -0.824,-0.274c0.06,-0.018 0.682,0.068 0.808,0.078Z" style="fill:#d9dfe0;fill-opacity:1;"/><path d="M16.418,4.167c0.292,0.535 -0.656,0.534 -0.728,0.534c0.301,-0.346 0.382,-0.233 0.728,-0.534Z" style="fill:#d8bd92;fill-opacity:0.07;"/><path d="M2.561,15.835c0.045,0.025 0.495,0.277 0.577,0.295c-0.052,0.145 -0.034,0.144 -0.117,0.272c-0.303,-0.119 -0.238,-0.255 -0.557,-0.284l0,-0.091c0.032,-0.064 0.064,-0.127 0.096,-0.191Z" style="fill:#dfe6e7;fill-opacity:1;"/><path d="M10.976,11.259c0.679,-0.043 0.746,-0.169 0.892,0.08c-0.304,0.151 -0.316,0.073 -0.834,0.05c-0.019,-0.043 -0.039,-0.086 -0.058,-0.13Z" style="fill:#a8bac4;fill-opacity:1;"/><path d="M6.508,16.926c0.244,-0.135 0.257,-0.123 0.79,0.033l0.024,0.07c-0.016,0.02 0.062,0.042 0.046,0.062c-0.125,0.157 -0.164,0.054 -0.797,-0.036c-0.021,-0.043 -0.043,-0.086 -0.064,-0.129Z" style="fill:#d0dbdf;fill-opacity:0.99;"/><path d="M1.833,11.591l0.263,0.11c-0.012,0.202 -0.038,0.405 -0.042,0.44c-0.081,0.073 -0.163,0.145 -0.244,0.218c-0.035,-0.395 -0.043,-0.385 0.023,-0.768Z" style="fill:#dae5e7;fill-opacity:1;"/><path d="M9.603,19.792l0.189,0.043c0.046,0.102 0.031,0.098 0.053,0.309c-0.171,0.087 -0.157,0.081 -0.335,0.124c-0.092,-0.039 -0.183,-0.079 -0.275,-0.118c0.228,-0.104 0.298,-0.235 0.313,-0.264c0.018,-0.031 0.036,-0.063 0.055,-0.094Z" style="fill:#e6eaeb;fill-opacity:1;"/><path d="M12.259,16.301l0.091,-0.006c0.561,-0.093 0.532,0.052 0.562,0.087l-0.074,0.1c-0.345,0.095 -0.373,0.16 -0.655,-0.069l0.076,-0.112Z" style="fill:#ecd5b8;fill-opacity:1;"/><path d="M11.523,20.074c0.031,-0.001 0.062,-0.001 0.093,-0.002c0.121,0.028 0.242,0.055 0.364,0.083c-0.01,0.052 -0.02,0.105 -0.029,0.157c-0.754,-0.033 -0.856,-0.136 -0.908,-0.189c0.229,-0.101 0.227,-0.052 0.48,-0.049Z" style="fill:#e1eff3;fill-opacity:1;"/><path d="M2.547,20.568c-0.035,0.018 -0.015,0.235 -0.546,0.245c-0.198,0.004 -0.196,0.021 -0.361,-0.095c0.524,-0.224 0.538,-0.137 0.907,-0.15Z" style="fill:#d4d5d6;fill-opacity:0.08;"/><path d="M6.595,10.981c0.385,-2.418 0.143,0.487 0.137,0.53c-0.002,0.017 0,0.016 0.001,0.211c-0.049,-0.064 -0.099,-0.128 -0.148,-0.191c0.003,-0.1 -0.022,-0.089 -0.019,-0.18c0.001,-0.022 0.002,-0.02 0.022,-0.275c0.003,-0.032 0.005,-0.063 0.008,-0.095Z" style="fill:#b8c6ce;fill-opacity:0.99;"/><path d="M15.557,14.098l0.275,-0.038c0.221,0.172 0.351,0.431 0.373,0.474c-0.266,0.101 -0.246,0.12 -0.269,0.127c-0.069,-0.35 -0.139,-0.304 -0.379,-0.563Z" style="fill:#f7e7d0;fill-opacity:1;"/><path d="M17.162,20.009c0.405,-0.195 0.431,-0.117 0.789,0.152c-0.015,0.057 -0.03,0.114 -0.044,0.171l-0.017,-0.017c-0.388,-0.124 -0.368,-0.139 -0.727,-0.306Z" style="fill:#c9d4da;fill-opacity:0.99;"/><path d="M2.465,16.117c0.319,0.029 0.254,0.165 0.557,0.284c-0.258,0.232 -0.37,0.24 -0.598,0.122c0.007,-0.019 0.131,-0.042 0.041,-0.406Z" style="fill:#eff3f2;fill-opacity:1;"/><path d="M3.361,19.059c0.462,0.229 0.564,0.17 0.657,0.627c-0.453,-0.172 -0.41,-0.226 -0.657,-0.627Z" style="fill:#b7c1c7;fill-opacity:0.07;"/><path d="M17.39,6.278c0.971,-0.032 1.021,-0.066 1.203,0.176c-0.87,-0.004 -0.858,-0.069 -1.203,-0.176Z" style="fill:#abb2b6;fill-opacity:0.12;"/><path d="M3.197,6.796c-0.718,0.311 -0.941,0.322 -1.027,0.326c0.387,-0.385 0.538,-0.448 1.027,-0.326Z" style="fill:#a8b1b6;fill-opacity:0.07;"/><path d="M9.845,20.144c0.129,0.127 0.115,0.125 0.185,0.286l0.059,0.07c-0.01,0.008 -0.12,0.103 -0.12,0.103c-0.297,-0.072 -0.305,-0.067 -0.459,-0.335c0.177,-0.043 0.164,-0.037 0.335,-0.124Z" style="fill:#edefef;fill-opacity:1;"/><path d="M15.016,15.458c-0.033,0.076 -0.067,0.153 -0.1,0.229l-0.092,0.065c-0.078,-0.065 -0.156,-0.13 -0.234,-0.195c0.148,-0.228 0.155,-0.534 0.248,-0.273c0.005,0.014 -0,0.005 0.178,0.174Z" style="fill:#e9d0af;fill-opacity:0.99;"/><path d="M14,11.18c1.114,0.154 -0.168,0.198 -0.19,0.196c-1.147,-0.089 0.168,-0.195 0.19,-0.196Z" style="fill:#a1b5bf;fill-opacity:1;"/><path d="M9.211,14.904c0.026,0.057 0.3,0.409 -0.523,0.391c0.131,-0.284 0.211,-0.226 0.523,-0.391Z" style="fill:#f4e2cb;fill-opacity:1;"/><path d="M10.332,22.842c0.359,-0.3 0.413,-0.222 0.828,-0.007c-0.413,0.112 -0.412,0.142 -0.828,0.007Z" style="fill:#c5c5c6;fill-opacity:0.04;"/><path d="M12.876,3.298c0.12,0.171 0.125,0.171 0.333,0.193c-0.006,0.189 -0.018,0.178 -0.026,0.362c-0.433,-0.093 -0.321,-0.505 -0.307,-0.554Z" style="fill:#e9c99a;fill-opacity:0.08;"/><path d="M10.982,16.031l0.095,0.066c0.277,0.238 0.269,0.231 0.279,0.238c-0.09,0.087 -0.087,0.074 -0.198,0.14c-0.015,-0 -0.184,-0.002 -0.184,-0.002c-0.093,0.038 -0.069,0.056 -0.075,0.051c-0.058,-0.043 0.061,-0.062 0.011,-0.099c-0.019,-0.234 -0.024,-0.226 -0.017,-0.308l0.09,-0.086Z" style="fill:#e2c9a8;fill-opacity:1;"/><path d="M1.992,7.219c-0.28,0.248 -0.17,0.336 -0.484,0.555c0.018,-0.321 -0.108,-0.477 0.217,-0.467c0.048,0.002 0.246,-0.08 0.267,-0.088Z" style="fill:#9ba5aa;fill-opacity:0.05;"/><path d="M10.03,20.43c0.207,-0.162 0.229,-0.196 0.571,-0.029c-0.031,0.067 -0.062,0.133 -0.093,0.2c-0.225,-0.016 -0.23,0.034 -0.419,-0.101l-0.059,-0.07Z" style="fill:#f3f7f5;fill-opacity:1;"/><path d="M13.265,17.127c0.293,-0.025 0.281,0.007 0.553,0.085c-0.019,0.028 0.063,0.063 0.044,0.091c-0.027,0.04 -0.093,0.026 -0.137,0.045c-0.315,0.137 -0.311,0.015 -0.423,-0.156l-0.036,-0.065Z" style="fill:#f7e7cf;fill-opacity:1;"/><path d="M21.428,6.92l0.084,-0.012c0.026,-0.007 0.093,-0.178 0.269,0.056c0.142,0.056 0.135,0.026 0.282,-0.011c0.028,0.252 0.088,0.317 0.107,0.338c-0.39,-0.161 -0.407,-0.107 -0.742,-0.37Z" style="fill:#b1bac0;fill-opacity:0.09;"/><path d="M2.452,22.172c0.025,-0.018 0.063,0.042 0.088,0.024c0.137,-0.098 0.114,-0.143 0.282,-0.124c0.333,0.038 0.34,0.041 0.367,0.054c0.097,0.046 -0.003,0.118 0.091,0.163c-0.115,0 -0.254,0.084 -0.827,-0.117Z" style="fill:#c6c6c7;fill-opacity:0.09;"/><path d="M6.585,11.531c0.049,0.064 0.099,0.128 0.148,0.191c-0.075,0.272 -0.07,0.265 -0.165,0.534l-0.077,-0.01c-0.027,-0.024 -0.054,-0.048 -0.081,-0.072c0.073,-0.335 0.114,-0.312 0.175,-0.643Z" style="fill:#b4c4cb;fill-opacity:1;"/><path d="M11.514,20.464c0.286,-0.012 0.284,-0.011 0.309,-0.013c0.093,-0.008 0.075,-0.024 0.164,-0.032c0.08,0.126 0.067,0.118 0.081,0.269c-0.043,0.001 -0.487,0.014 -0.54,0.011c0.076,-0.12 0.057,-0.123 -0.014,-0.235Z" style="fill:#eaf6f6;fill-opacity:0.99;"/><path d="M16.748,17.317c0.09,0 0.181,0 0.271,0c0.009,0.337 -0.143,0.228 -0.453,0.344l-0.067,-0.087c0.083,-0.086 0.166,-0.171 0.248,-0.257Z" style="fill:#e3e7e5;fill-opacity:0.99;"/><path d="M18.123,22.472c-0.407,0.105 -0.398,0.092 -0.824,0.092c0.059,-0.026 0.032,-0.145 0.091,-0.172c0.402,-0.179 0.687,0.044 0.733,0.08Z" style="fill:#c2c2c4;fill-opacity:0.07;"/><path d="M14.791,18.831c-0.285,0.048 -0.311,-0.055 -0.244,-0.335c0.008,-0.032 0.326,-0.255 0.244,0.335Z" style="fill:#f9f7f1;fill-opacity:1;"/><path d="M18.116,9.913c0.192,0.062 0.18,0.052 0.192,0.062c0.027,0.021 -0.022,0.081 0.005,0.102c-0.53,0.116 -0.49,0.221 -0.537,0.221c-0.041,-0 -0.246,-0.196 0.34,-0.385Z" style="fill:#c4cfd4;fill-opacity:0.99;"/><path d="M10.729,13.262c0.161,-0.005 0.265,-0.066 0.298,0.262l-0.051,0.117l-0.165,0.04c-0.031,-0.072 -0.13,-0.03 -0.094,-0.217c0.02,-0.103 -0.009,-0.095 0.012,-0.202Z" style="fill:#f8eddb;fill-opacity:1;"/><path d="M22.424,14.101c0.34,-0.041 0.422,0.012 0.452,0.032c0.559,0.364 -0.417,0.137 -0.454,0.128c0.001,-0.053 0.001,-0.107 0.002,-0.16Z" style="fill:#e0e5e6;fill-opacity:1;"/><path d="M8.053,15.216c-0.063,0.03 -0.126,0.06 -0.189,0.091c-0.15,0.022 -0.142,0.018 -0.288,0.072c0.07,-0.39 0.25,-0.5 0.477,-0.162Z" style="fill:#fbf2e4;fill-opacity:0.99;"/><path d="M1.504,16.592c0.278,0.247 0.28,0.229 0.483,0.539l-0.083,-0.006c-0.446,-0.075 -0.406,-0.48 -0.401,-0.533Z" style="fill:#a9b2b8;fill-opacity:0.05;"/><path d="M11.432,22.838c0.054,-0.018 0.04,-0.125 0.094,-0.143c0.021,-0.007 -0.002,0.109 0.275,0.037c0.037,-0.009 0.198,-0.051 0.457,0.116c-0.419,0.055 -0.414,0.073 -0.826,-0.011Z" style="fill:#c0c0c1;fill-opacity:0.05;"/><path d="M18.648,16.437l-0.073,0.137c-0.03,0.006 -1.975,0.258 -0.352,-0.143c0.215,-0.053 0.205,-0.024 0.425,0.006Z" style="fill:#c9d7de;fill-opacity:1;"/><path d="M20.026,13.933c0.337,0.109 0.645,-0.059 0.462,0.242c-0.062,0.101 -0.083,0.042 -0.452,-0.028c-0.003,-0.071 -0.007,-0.143 -0.01,-0.214Z" style="fill:#d4dcdf;fill-opacity:1;"/><path d="M1.515,15.866c0.061,-0.013 0.123,-0.026 0.184,-0.039c0.092,0.195 0.063,0.193 0.152,0.393c-0.055,-0.003 -0.091,0.081 -0.146,0.078c-0.093,-0.005 -0.181,-0.396 -0.19,-0.432Z" style="fill:#99b5c5;fill-opacity:0.99;"/><path d="M12.557,11.344c0.028,-0.051 -0.013,-0.135 0.344,-0.134c0.392,0.002 -0.073,0.41 -0.344,0.134Z" style="fill:#96aeba;fill-opacity:1;"/><path d="M18.948,22.378c-0.364,0.093 -0.356,0.092 -0.733,0.094c0.057,-0.03 0.034,-0.142 0.091,-0.171c0.288,-0.149 0.599,0.049 0.642,0.077Z" style="fill:#c1c1c3;fill-opacity:0.09;"/><path d="M16.205,14.534c0.065,0.017 0.129,0.035 0.194,0.052c-0.01,0.059 -0.02,0.119 -0.03,0.178c-0.058,0.054 -0.115,0.107 -0.173,0.161c-0.214,-0.169 -0.204,-0.172 -0.285,-0.211l0.026,-0.054c0.023,-0.007 0.003,-0.026 0.269,-0.127Z" style="fill:#f7e9d3;fill-opacity:1;"/><path d="M1.316,15.215c0.073,-0.007 0.145,-0.014 0.218,-0.022c0.021,0.238 0.008,0.225 0.066,0.461l-0.188,0.041c-0.05,-0.152 -0.11,-0.133 -0.096,-0.481Z" style="fill:#c2d2db;fill-opacity:0.99;"/><path d="M21.595,14.119c0.292,0.079 0.301,-0.036 0.58,0.06c-0.269,0.141 -0.259,0.157 -0.564,0.136c-0.005,-0.065 -0.011,-0.131 -0.016,-0.196Z" style="fill:#e7eae9;fill-opacity:0.99;"/><path d="M15.08,16.221c0.201,-0.02 0.185,-0.021 0.201,-0.02c0.113,0.009 0.086,0.068 0.19,0.076c-0.169,0.232 -0.208,0.206 -0.478,0.109l0.086,-0.164Z" style="fill:#f2dfc4;fill-opacity:1;"/><path d="M17.105,15.066c0.153,-0.31 0.304,-0.272 0.463,0.046c-0.264,0.039 -0.429,-0.032 -0.463,-0.046Z" style="fill:#f9f0e0;fill-opacity:1;"/><path d="M19.773,13.832c0.148,0.018 0.134,0.027 0.253,0.101c0.003,0.071 0.007,0.143 0.01,0.214c-0.004,-0.001 -0.127,0.06 -0.33,-0.157c0.022,-0.053 0.045,-0.105 0.067,-0.158Z" style="fill:#beccd4;fill-opacity:1;"/><path d="M12.33,2.862l0.17,0.013c0.149,0.089 0.138,0.093 0.151,0.1c0.045,0.051 0.091,0.102 0.136,0.153l0.017,0.073c-0.344,0.037 -0.276,-0.103 -0.474,-0.339Z" style="fill:#ccb084;fill-opacity:0.05;"/><path d="M13.644,2.934c-0.154,0.266 -0.116,0.285 -0.354,0.468c-0.011,-0.483 0.223,-0.368 0.354,-0.468Z" style="fill:#dfbd89;fill-opacity:0.06;"/><path d="M3.387,13.371l-0.092,0.043c-0.352,-0.431 -0.039,-0.429 -0.005,-0.424c0.073,0.009 0.044,0.039 0.097,0.381Z" style="fill:#f2f4f2;fill-opacity:0.99;"/><path d="M22.092,17.433l-0.013,0.159c-0.03,0.029 -0.172,0.17 -0.444,0.275c0.135,-0.291 0.17,-0.257 0.457,-0.434Z" style="fill:#a2aeb6;fill-opacity:0.08;"/><path d="M22.17,7.291c0.321,0.028 0.26,0.131 0.461,0.376c-0.276,-0.125 -0.252,-0.15 -0.461,-0.376Z" style="fill:#abb7bf;fill-opacity:0.11;"/><path d="M16.368,14.764c0.074,-0.019 0.148,-0.037 0.222,-0.056c-0.026,0.064 0.028,0.059 0.001,0.124c-0.007,0.016 -0.009,0.013 -0.12,0.182c-0.092,-0.03 -0.184,-0.059 -0.276,-0.089c0.058,-0.054 0.115,-0.107 0.173,-0.161Z" style="fill:#f5e3ca;fill-opacity:0.99;"/><path d="M2.989,18.507c0.156,0.24 0.188,0.214 0.273,0.481c-0.055,0.01 -0.109,0.02 -0.164,0.03l-0.056,-0.072c-0.009,-0.034 -0.06,-0.225 -0.054,-0.439Z" style="fill:#aeb8bf;fill-opacity:0.07;"/><path d="M20.344,20.162c0.004,0.17 0.005,0.156 0.004,0.17c-0.006,0.07 0.024,0.049 0.055,0.112c-0.222,0.053 -0.219,0.08 -0.432,-0.003c0.052,-0.034 0.344,-0.257 0.373,-0.279Z" style="fill:#71787d;fill-opacity:0.07;"/><path d="M22.518,17.122c-0.018,0.182 0.035,0.32 -0.356,0.287c0.139,-0.195 0.111,-0.237 0.356,-0.287Z" style="fill:#a8b1b7;fill-opacity:0.04;"/><path d="M13.033,14.551c0.171,-0.058 0.212,-0.156 0.3,0.013c0.018,0.034 -0.097,0.477 -0.3,-0.013Z" style="fill:#f4e2ca;fill-opacity:1;"/><path d="M21.537,18.408c-0.018,0.322 0.046,0.377 -0.1,0.403c-0.101,0.018 -0.099,0.007 -0.175,0.072c0.096,-0.261 0.098,-0.252 0.275,-0.475Z" style="fill:#a6b2bb;fill-opacity:0.12;"/><path d="M13.208,1.806c0.032,0.037 0.22,0.254 0.273,0.548c-0.264,-0.191 -0.205,-0.226 -0.273,-0.548Z" style="fill:#cdae7e;fill-opacity:0.05;"/><path d="M18.85,6.463c0.217,-0.19 0.263,-0.181 0.481,0.008c-0.253,0.046 -0.244,0.07 -0.481,-0.008Z" style="fill:#afb9be;fill-opacity:0.07;"/><path d="M6.598,19.118c0.034,0.094 0.067,0.189 0.101,0.283c-0.061,0.002 -0.075,0.122 -0.137,0.123c-0.016,0 -0.122,-0.29 -0.107,-0.316c0.029,-0.048 0.113,-0.042 0.142,-0.09Z" style="fill:#e4e9e8;fill-opacity:1;"/><path d="M6.461,12.459c-0.011,0.142 0.042,0.163 -0.08,0.247c-0.115,0.079 -0.34,-0.296 0.08,-0.247Z" style="fill:#a7b8c2;fill-opacity:1;"/><path d="M20.688,6.736c0.002,-0.001 0.176,-0.2 0.565,0.087l-0.201,0.047c-0.176,-0.118 -0.333,-0.131 -0.364,-0.134Z" style="fill:#adb6b9;fill-opacity:0.05;"/><path d="M23.573,14.003c0.136,0.141 0.257,0.211 -0.006,0.381c-0.032,-0.197 -0.02,-0.186 0.006,-0.381Z" style="fill:#bec6ca;fill-opacity:0.05;"/><path d="M23.512,10.707c0.067,0.293 0.15,0.317 -0.04,0.559c-0.078,-0.182 -0.079,-0.18 -0.084,-0.197c-0.016,-0.047 0.027,-0.041 0.013,-0.082c0.106,-0.262 0.107,-0.26 0.111,-0.281Z" style="fill:#99a5ab;fill-opacity:0.07;"/><path d="M14.38,14.725c0.131,0.07 0.262,-0.032 0.201,0.108c-0.042,0.097 -0.112,0.117 -0.126,0.121c-0.105,0.03 -0.091,-0.058 -0.19,-0.03c0.038,-0.066 0.076,-0.132 0.114,-0.198Z" style="fill:#e9cead;fill-opacity:1;"/><path d="M15.391,13.342c0.005,0.006 0.262,0.171 0.075,0.327c-0.36,0.3 -0.124,-0.111 -0.116,-0.121c0.089,-0.102 0.04,-0.201 0.041,-0.206Z" style="fill:#fbf8f1;fill-opacity:1;"/><path d="M10.805,17.285c0.087,0.104 0.175,0.208 0.262,0.313l-0.092,0.032c-0.177,-0.109 -0.144,-0.133 -0.171,-0.345Z" style="fill:#f3e5d1;fill-opacity:1;"/><path d="M2.561,15.835c-0.032,0.064 -0.064,0.127 -0.096,0.191c-0.18,-0.087 -0.293,-0.062 -0.192,-0.231c0.088,-0.148 0.118,-0.034 0.289,0.04Z" style="fill:#dbe3e4;fill-opacity:1;"/><path d="M16.399,14.586c0.052,-0.01 0.104,-0.021 0.156,-0.031c0.039,0.057 0.078,0.113 0.117,0.17l-0.082,-0.017c-0.074,0.019 -0.148,0.037 -0.222,0.056c0.01,-0.059 0.02,-0.119 0.03,-0.178Z" style="fill:#f8f0e1;fill-opacity:0.99;"/><path d="M20.556,16.113c-0.022,-0.22 0.058,-0.289 0.223,-0.154c0.157,0.129 -0.034,0.086 -0.223,0.154Z" style="fill:#f7f7f6;fill-opacity:1;"/><path d="M17.653,15.706c-0.083,0.081 -0.165,0.161 -0.248,0.242c0.016,-0.059 -0.181,-0.333 0.248,-0.242Z" style="fill:#f8f0e2;fill-opacity:1;"/><path d="M23.084,16.395c-0.083,0.205 -0.058,0.206 -0.189,0.37l-0.081,0.014c0.036,-0.249 0.088,-0.215 0.27,-0.384Z" style="fill:#98a4ab;fill-opacity:0.11;"/><path d="M7.855,6.206c0.285,-0.035 0.276,-0.032 0.555,-0.018c-0.284,0.073 -0.284,0.129 -0.555,0.018Z" style="fill:#a3aaad;fill-opacity:0.18;"/><path d="M18.116,9.913c0.02,-0.001 0.737,-0.029 0.197,0.164c-0.027,-0.021 0.022,-0.081 -0.005,-0.102c-0.013,-0.01 0,0 -0.192,-0.062Z" style="fill:#f5f5f4;fill-opacity:1;"/><path d="M3.098,12.815c-0.099,-0.075 -0.159,-0.076 -0.076,-0.163c0.085,-0.091 0.418,0.099 0.076,0.163Z" style="fill:#dce1e3;fill-opacity:0.99;"/><path d="M23.632,12.995c0.016,0.289 0.032,0.279 -0.002,0.557c-0.068,-0.284 -0.066,-0.28 0.002,-0.557Z" style="fill:#a1aaae;fill-opacity:0.21;"/><path d="M15.829,6.265c0.179,-0.386 0.303,-0.168 0.286,-0.139c-0.01,0.017 -0.014,0.012 -0.191,0.155l-0.095,-0.017Z" style="fill:#81827e;fill-opacity:0.04;"/><path d="M18.031,16.07c-0.053,0.025 -0.038,0.126 -0.092,0.152c-0.014,0.007 -0.288,0.137 -0.157,-0.106c0.118,-0.218 0.19,-0.064 0.249,-0.045Z" style="fill:#fdfbf5;fill-opacity:0.99;"/><path d="M20.138,10.153c-0.037,0.014 -0.349,0.132 -0.452,0.189c0.101,-0.263 0.165,-0.201 0.452,-0.189Z" style="fill:#d3f8fc;fill-opacity:1;"/><path d="M1.412,15.696l0.188,-0.041c0.033,0.057 0.066,0.115 0.1,0.172c-0.061,0.013 -0.123,0.026 -0.184,0.039l-0.103,-0.17Z" style="fill:#a7bfcc;fill-opacity:0.99;"/><path d="M10.976,11.259c0.019,0.043 0.039,0.086 0.058,0.13c-0.209,0.027 -0.306,0.049 -0.265,-0.165c0.003,-0.016 0,0 0.207,0.036Z" style="fill:#edeeec;fill-opacity:1;"/><path d="M9.906,17.299c0.366,0.23 0.107,0.303 0.084,0.293c-0.187,-0.078 -0.19,-0.125 -0.084,-0.293Z" style="fill:#f4efe6;fill-opacity:1;"/><path d="M1.874,13.191l0.124,0.094c0.042,0.085 0.083,0.17 0.125,0.255c-0.145,-0.163 -0.176,-0.131 -0.248,-0.348Z" style="fill:#d4dee1;fill-opacity:1;"/><path d="M13.72,20.437c0.029,-0.003 0.059,0.003 0.088,0c0.154,-0.013 0.254,-0.159 0.215,-0.006c-0.007,0.027 -0.013,0.049 -0.315,0.154l0.013,-0.148Z" style="fill:#f4f8f6;fill-opacity:1;"/><path d="M10.518,6.033c0.059,-0.007 0.119,-0.013 0.178,-0.02c0.177,0.063 0.17,0.046 0.28,0.119c-0.235,-0.03 -0.226,-0.011 -0.458,-0.099Z" style="fill:#989a9b;fill-opacity:0.05;"/><path d="M4.439,7.909c0.122,-0.073 0.12,-0.141 0.23,-0.058c-0.115,0.064 -0.104,0.11 -0.23,0.058Z" style="fill:#d0dee2;fill-opacity:0.99;"/><path d="M0.949,9.691c0.004,0.199 0.014,0.194 -0.057,0.377c-0.021,-0.086 -0.041,-0.173 -0.062,-0.259c0.061,-0.075 0.062,-0.054 0.119,-0.118Z" style="fill:#95a4ad;fill-opacity:0.21;"/><path d="M4.017,19.685c0.029,0.062 0.058,0.124 0.087,0.186l-0.04,0.105c-0.144,-0.11 -0.195,-0.113 -0.143,-0.154c0.037,-0.03 0.105,-0.015 0.132,-0.054c0.017,-0.025 -0.054,-0.058 -0.037,-0.083Z" style="fill:#8b9397;fill-opacity:0.08;"/><path d="M21.052,6.869l0.201,-0.047c0.162,0.048 0.15,0.036 0.26,0.086l-0.084,0.012c-0.126,-0.017 -0.251,-0.034 -0.377,-0.051Z" style="fill:#85949c;fill-opacity:0.22;"/><path d="M20.767,17.47c0.008,-0.007 0.096,-0.091 0.096,-0.091c0.071,0.054 0.092,0.158 0.163,0.212c-0.086,-0.041 -0.173,-0.081 -0.259,-0.122Z" style="fill:#aecbd7;fill-opacity:1;"/><path d="M16.541,8.696c0.117,0.186 0.137,0.185 0.126,0.2c0,0 -0.176,-0.008 -0.191,-0.008c0.022,-0.064 0.043,-0.128 0.065,-0.192Z" style="fill:#dfe7e9;fill-opacity:0.99;"/><path d="M8.59,16.645c-0.086,0.163 -0.108,0.189 -0.267,0.1c0.089,-0.033 0.178,-0.066 0.267,-0.1Z" style="fill:#f5edde;fill-opacity:1;"/><path d="M15.016,15.458c0.003,0.019 0.033,0.243 0.033,0.243c-0.037,0.026 -0.097,-0.039 -0.134,-0.013c0.033,-0.076 0.067,-0.153 0.1,-0.229Z" style="fill:#e9d0af;fill-opacity:1;"/><path d="M8.68,16.224c0.126,-0.011 0.114,-0.024 0.248,0.004l0.019,0.098c-0.089,-0.034 -0.178,-0.067 -0.267,-0.101Z" style="fill:#f1e0c7;fill-opacity:1;"/><path d="M23.631,13.552c0.034,0.153 0.085,0.15 0.004,0.278c-0.022,-0.15 -0.023,-0.137 -0.004,-0.278Z" style="fill:#7b8285;fill-opacity:0.08;"/><path d="M3.387,13.371c-0.058,0.099 0.073,0.104 0.016,0.202c-0.076,0.13 -0.028,-0.041 -0.108,-0.158l0.092,-0.043Z" style="fill:#f9f9f7;fill-opacity:0.99;"/><path d="M15.28,6.189c0.092,0.029 0.184,0.057 0.276,0.086c-0.092,-0.029 -0.184,-0.057 -0.276,-0.086Z" style="fill:#a9b2b4;fill-opacity:0.35;"/><path d="M11.445,14.739c-0.015,0.072 0.098,0.018 0.081,0.1c-0.002,0.012 -0.016,0.073 -0.12,0.085c-0.138,0.016 0.011,-0.051 0.039,-0.185Z" style="fill:#e8d1b2;fill-opacity:0.99;"/><path d="M22.719,16.861l0.067,-0.023c-0.089,0.107 -0.082,0.1 -0.191,0.172c0.015,-0.037 0.019,-0.033 0.125,-0.15Z" style="fill:#8e9ca4;fill-opacity:0.15;"/><path d="M3.02,21.338c0.001,-0.184 -0.013,-0.181 0.001,-0.184c0.131,-0.029 -0,0.056 -0.001,0.184Z" style="fill:#dddde0;fill-opacity:0.99;"/><path d="M3.736,17.031c-0.002,0.016 -0.042,0.293 -0.085,0.178c-0.006,-0.015 0,0 0.085,-0.178Z" style="fill:#92b5c7;fill-opacity:1;"/><path d="M20.225,6.701c0.148,-0.005 0.14,-0.012 0.283,0.041c-0.152,-0.007 -0.136,-0.007 -0.283,-0.041Z" style="fill:#a0b3bc;fill-opacity:0.41;"/><path d="M4.705,17.523l0.133,0.044c-0.004,-0 -0.067,0.15 -0.139,-0.006c-0.005,-0.012 0.011,-0.026 0.006,-0.038Z" style="fill:#84aac1;fill-opacity:1;"/><path d="M15.663,3.644c0.071,0.083 0.064,0.073 0.103,0.175c-0.078,-0.103 -0.087,-0.086 -0.103,-0.175Z" style="fill:#b19465;fill-opacity:0.09;"/><path d="M22.814,16.779l0.081,-0.014c-0.036,0.024 -0.073,0.049 -0.109,0.073l-0.067,0.023c0.032,-0.028 0.063,-0.055 0.095,-0.083Z" style="fill:#495157;fill-opacity:0.12;"/><path d="M10.059,6.195c0.149,-0.024 0.137,-0.019 0.275,0.011l-0.275,-0.011Z" style="fill:#bbc6cb;fill-opacity:0.48;"/><path d="M20.51,20.059c-0.055,0.034 -0.111,0.068 -0.166,0.102c0.055,-0.034 0.111,-0.068 0.166,-0.102Z" style="fill:#495256;fill-opacity:0.13;"/><path d="M22.092,17.433l0.071,-0.024c-0.028,0.061 -0.056,0.122 -0.083,0.183l0.013,-0.159Z" style="fill:#465156;fill-opacity:0.12;"/><path d="M10.038,13.549c-0.005,0.017 -0.063,0.213 -0.063,0.213c-0.161,0.021 0.016,-0.055 0.063,-0.213Z" style="fill:#fcf7ec;fill-opacity:1;"/><path d="M16.565,15.748l-0.045,0.073l-0.07,-0.002l0.115,-0.071Z" style="fill:#f5e4cb;fill-opacity:0.99;"/></svg>