<svg width="35" height="37" viewBox="0 0 35 37" fill="none" xmlns="http://www.w3.org/2000/svg">
<path d="M29.925 34.265V1.815C29.925 1.015 29.275 0.375 28.485 0.375H1.815C1.015 0.375 0.375 1.025 0.375 1.815V34.265C0.375 35.065 1.025 35.705 1.815 35.705H28.485C29.285 35.705 29.925 35.055 29.925 34.265ZM23.865 22.585H10.585C9.97496 22.585 9.48499 22.095 9.48499 21.485C9.48499 20.875 9.97496 20.385 10.585 20.385H23.865C24.475 20.385 24.965 20.875 24.965 21.485C24.965 22.095 24.475 22.585 23.865 22.585ZM24.965 25.885C24.965 26.495 24.475 26.985 23.865 26.985H10.585C9.97496 26.985 9.48499 26.495 9.48499 25.885C9.48499 25.275 9.97496 24.785 10.585 24.785H23.865C24.475 24.785 24.965 25.275 24.965 25.885ZM5.625 31.385C5.015 31.385 4.52496 30.895 4.52496 30.285C4.52496 29.675 5.015 29.185 5.625 29.185C6.235 29.185 6.72498 29.675 6.72498 30.285C6.72498 30.895 6.235 31.385 5.625 31.385ZM5.625 26.985C5.015 26.985 4.52496 26.495 4.52496 25.885C4.52496 25.275 5.015 24.785 5.625 24.785C6.235 24.785 6.72498 25.275 6.72498 25.885C6.72498 26.495 6.235 26.985 5.625 26.985ZM5.625 22.585C5.015 22.585 4.52496 22.095 4.52496 21.485C4.52496 20.875 5.015 20.385 5.625 20.385C6.235 20.385 6.72498 20.875 6.72498 21.485C6.72498 22.095 6.235 22.585 5.625 22.585ZM5.30499 12.655C4.69499 12.655 4.20502 12.165 4.20502 11.555C4.20502 10.945 4.69499 10.455 5.30499 10.455H8.21497L9.73499 5.995C9.88498 5.545 10.305 5.245 10.775 5.245C11.245 5.245 11.665 5.55501 11.815 6.005L13.205 10.305H14.875C15.355 10.305 15.785 10.615 15.925 11.075L16.525 13.015L18.445 6.41501C18.585 5.94501 19.025 5.615 19.515 5.625C20.005 5.625 20.435 5.96501 20.565 6.44501L21.745 10.915H24.455C25.065 10.915 25.555 11.405 25.555 12.015C25.555 12.625 25.065 13.115 24.455 13.115H20.895C20.395 13.115 19.955 12.775 19.835 12.295L19.455 10.845L17.615 17.155C17.475 17.625 17.055 17.945 16.565 17.945C16.085 17.945 15.655 17.635 15.515 17.175L14.065 12.505H12.405C11.925 12.505 11.505 12.195 11.355 11.745L10.735 9.845L10.035 11.905C9.88497 12.355 9.465 12.655 8.995 12.655H5.29498H5.30499ZM23.865 31.475H10.585C9.97496 31.475 9.48499 30.985 9.48499 30.375C9.48499 29.765 9.97496 29.275 10.585 29.275H23.865C24.475 29.275 24.965 29.765 24.965 30.375C24.965 30.985 24.475 31.475 23.865 31.475Z" fill="#FF2520"/>
<path d="M28.485 0.375H32.755C33.545 0.375 34.195 1.015 34.195 1.815V34.265C34.195 35.055 33.555 35.705 32.755 35.705H28.485M28.485 0.375C29.285 0.375 29.925 1.025 29.925 1.815M28.485 0.375C29.275 0.375 29.925 1.015 29.925 1.815M28.485 0.375H1.815C1.015 0.375 0.375 1.025 0.375 1.815V34.265C0.375 35.065 1.025 35.705 1.815 35.705H28.485M29.925 1.815V34.265M29.925 34.265C29.925 35.065 29.275 35.705 28.485 35.705M29.925 34.265C29.925 35.055 29.285 35.705 28.485 35.705M23.865 22.585H10.585C9.97496 22.585 9.48499 22.095 9.48499 21.485C9.48499 20.875 9.97496 20.385 10.585 20.385H23.865C24.475 20.385 24.965 20.875 24.965 21.485C24.965 22.095 24.475 22.585 23.865 22.585ZM24.965 25.885C24.965 26.495 24.475 26.985 23.865 26.985H10.585C9.97496 26.985 9.48499 26.495 9.48499 25.885C9.48499 25.275 9.97496 24.785 10.585 24.785H23.865C24.475 24.785 24.965 25.275 24.965 25.885ZM5.625 31.385C5.015 31.385 4.52496 30.895 4.52496 30.285C4.52496 29.675 5.015 29.185 5.625 29.185C6.235 29.185 6.72498 29.675 6.72498 30.285C6.72498 30.895 6.235 31.385 5.625 31.385ZM5.625 26.985C5.015 26.985 4.52496 26.495 4.52496 25.885C4.52496 25.275 5.015 24.785 5.625 24.785C6.235 24.785 6.72498 25.275 6.72498 25.885C6.72498 26.495 6.235 26.985 5.625 26.985ZM5.625 22.585C5.015 22.585 4.52496 22.095 4.52496 21.485C4.52496 20.875 5.015 20.385 5.625 20.385C6.235 20.385 6.72498 20.875 6.72498 21.485C6.72498 22.095 6.235 22.585 5.625 22.585ZM5.30499 12.655C4.69499 12.655 4.20502 12.165 4.20502 11.555C4.20502 10.945 4.69499 10.455 5.30499 10.455H8.21497L9.73499 5.995C9.88498 5.545 10.305 5.245 10.775 5.245C11.245 5.245 11.665 5.55501 11.815 6.005L13.205 10.305H14.875C15.355 10.305 15.785 10.615 15.925 11.075L16.525 13.015L18.445 6.41501C18.585 5.94501 19.025 5.615 19.515 5.625C20.005 5.625 20.435 5.96501 20.565 6.44501L21.745 10.915H24.455C25.065 10.915 25.555 11.405 25.555 12.015C25.555 12.625 25.065 13.115 24.455 13.115H20.895C20.395 13.115 19.955 12.775 19.835 12.295L19.455 10.845L17.615 17.155C17.475 17.625 17.055 17.945 16.565 17.945C16.085 17.945 15.655 17.635 15.515 17.175L14.065 12.505H12.405C11.925 12.505 11.505 12.195 11.355 11.745L10.735 9.845L10.035 11.905C9.88497 12.355 9.465 12.655 8.995 12.655H5.29498H5.30499ZM23.865 31.475H10.585C9.97496 31.475 9.48499 30.985 9.48499 30.375C9.48499 29.765 9.97496 29.275 10.585 29.275H23.865C24.475 29.275 24.965 29.765 24.965 30.375C24.965 30.985 24.475 31.475 23.865 31.475Z" stroke="black" stroke-width="0.75" stroke-linecap="round" stroke-linejoin="round"/>
</svg>
