<?xml version="1.0" encoding="UTF-8" standalone="no"?><!DOCTYPE svg PUBLIC "-//W3C//DTD SVG 1.1//EN" "http://www.w3.org/Graphics/SVG/1.1/DTD/svg11.dtd"><svg width="100%" height="100%" viewBox="0 0 24 24" version="1.1" xmlns="http://www.w3.org/2000/svg" xmlns:xlink="http://www.w3.org/1999/xlink" xml:space="preserve" xmlns:serif="http://www.serif.com/" style="fill-rule:evenodd;clip-rule:evenodd;stroke:#000;stroke-width:0.55px;stroke-linecap:round;stroke-linejoin:round;paint-order:stroke fill markers;stroke-miterlimit:2;"><path d="M12.758,1.111c0.252,0.318 0.229,0.33 0.356,0.715c0.074,0.225 1.465,-0.347 1.881,0.597c0.083,0.189 0.021,0.317 0.128,0.32c0.854,0.027 0.853,-0.032 1.706,0.033c0.645,0.049 2.077,-0.124 2.475,0.134c0.501,0.325 0.413,0.448 0.415,2.917c0.002,2.912 0.011,2.919 -0.053,3.07c-0.013,0.031 -0.2,0.468 -0.266,0.334c-0.037,-0.075 -0.009,-2.334 -0.021,-4.331c-0.009,-1.401 0.16,-1.794 -0.734,-1.791c-0.392,0.001 -0.436,-0.006 -1.669,-0.001c-0.209,0.001 -0.133,0.101 -0.132,0.309c0.001,0.586 0.021,0.771 -0.127,0.773c-1.834,0.019 -8.868,0.001 -9.639,-0.001c-0.184,-0 -0.163,-0.097 -0.158,-0.697c0.001,-0.12 0.04,-0.371 -0.063,-0.383c-0.01,-0.001 -2.016,0.001 -2.042,0.004c-0.45,0.052 -0.449,0.541 -0.449,0.601c0.01,7.609 -0.018,18.281 0.017,18.424c0.103,0.417 0.48,0.34 1.582,0.343c1.044,0.003 12.865,0.038 13.05,-0.01c0.405,-0.106 0.371,-0.237 0.367,-1.738c-0.001,-0.492 -0.015,-6.021 0.009,-6.154c0.006,-0.033 0.168,-0.39 0.22,-0.403c0.188,-0.047 0.091,0.113 0.108,2.775c0.003,0.418 0.033,5.054 -0.014,5.224c-0.21,0.76 -0.858,0.627 -1.616,0.629c-4.375,0.001 -8.75,0.002 -13.125,0.003c-1.08,0 -0.926,-0.786 -0.925,-1.814c0.01,-6.093 -0.024,-17.322 0.016,-17.571c0.054,-0.342 0.519,-0.642 0.797,-0.641c1.961,0.005 1.961,-0.007 2.224,-0.034c0.249,-0.026 1.536,0.031 1.58,-0.04c0.042,-0.068 -0.012,-0.828 1.016,-0.837c0.886,-0.007 0.916,0.025 0.938,-0.039c0.057,-0.17 0.048,-0.377 0.416,-0.765c0.156,-0.164 0.911,-0.733 1.731,0.046Z"/><path d="M21.927,9.199c-0.133,0.509 -0.298,0.487 -0.446,0.885c-0.057,0.153 -0.142,0.103 -0.181,0.263c-0.037,0.151 -0.667,1.22 -0.716,1.308c-0.249,0.447 -0.253,0.44 -3.176,5.548c-0.461,0.805 -0.491,0.829 -0.558,0.879c-0.4,0.305 -1.591,1.39 -1.761,1.338c-0.171,-0.052 -0.05,-0.292 0.021,-0.691c0.27,-1.511 0.327,-1.609 0.398,-1.732c0.354,-0.611 4.35,-7.507 4.415,-7.638c0.06,-0.121 0.091,-0.099 0.148,-0.224c0.055,-0.122 0.081,-0.107 0.123,-0.231c0.362,-1.075 1.776,-0.818 1.733,0.296Z"/><path d="M9.138,6.718c-0.108,-1.473 1.22,-1.759 1.426,-1.766c0.668,-0.024 0.925,0.175 1.295,0.469c0.081,0.064 0.083,0.007 0.165,-0.059c1.363,-1.093 2.762,0.106 2.628,1.281c-0.026,0.225 -0.139,1.22 -1.582,2.354c-0.909,0.714 -1.139,0.827 -1.271,0.741c-2.201,-1.423 -2.547,-2.369 -2.66,-3.021Z"/><path d="M9.635,3.876c-2.335,-0.007 -2.373,0.022 -2.397,-0.053c-0,-0.001 -0.007,-0.704 0.003,-0.734c0.037,-0.11 1.612,0.043 1.712,-0.09c0.059,-0.078 -0.116,-0.646 0.499,-0.797c0.134,-0.033 1.34,0.042 1.435,-0.054c0.061,-0.062 0.012,-0.969 0.899,-1.108c0.14,-0.022 0.788,0.019 0.992,0.749c0.063,0.226 0.008,0.408 0.195,0.407c1.216,-0.007 1.599,-0.077 1.745,0.405c0.071,0.233 -0.072,0.453 0.22,0.453c1.51,0.004 1.588,-0.06 1.591,0.067c0.019,0.727 -0.009,0.748 -0.069,0.755c-0.268,0.032 -0.268,-0 -3.376,-0.001c-1.149,0 -2.299,0 -3.448,0.001Z" style="fill:#fff;"/><path d="M5.215,21.664c-0.073,-0.129 -0.058,-0.199 -0.057,-0.376c0.012,-2.922 -0.002,-16.81 0.006,-16.979c0.019,-0.364 0.226,-0.33 1.245,-0.33c0.015,0 0.12,0 0.159,0.101c0.136,0.359 -0.953,0.137 -1.05,0.225c-0.027,0.025 -0.033,0.034 -0.027,6.416c0.011,10.705 -0.005,10.719 0.031,10.748c0.034,0.027 12.7,0.019 12.715,0.006c0.021,-0.017 0.029,-0.495 0.033,-1.151c0.006,-1.311 -0.01,-3.333 -0.001,-3.818c0.002,-0.11 0.295,-0.695 0.33,-0.443c0.008,0.057 0.006,2.432 0.003,3.076c-0.011,2.271 0.118,2.649 -0.329,2.663c-0.066,0.002 -10.062,-0 -10.937,-0c-1.95,-0 -1.986,0.024 -2.122,-0.136Z"/><path d="M16.571,17.428c-0.664,-0.388 -0.69,-0.378 -0.687,-0.443c0.001,-0.012 0.544,-0.944 0.592,-1.026c2.957,-5.07 2.918,-5.091 3.184,-5.527c0.17,-0.279 0.156,-0.477 0.428,-0.299c0.126,0.083 0.002,0.174 -0.456,0.986c-0.675,1.196 -2.845,4.932 -3.229,5.634c-0.205,0.375 0.152,0.374 0.26,0.185c1.226,-2.138 1.209,-2.143 2.442,-4.282c1.314,-2.28 1.301,-2.306 1.357,-2.308c0.046,-0.002 0.362,0.176 0.37,0.187c0.02,0.025 0.022,0.036 -0.165,0.361c-0.506,0.88 -0.523,0.867 -1.028,1.748c-0.221,0.385 -2.215,3.858 -2.751,4.815c-0.097,0.174 -0.146,0.066 -0.317,-0.033Z" style="fill:#fff;"/><path d="M11.044,8.036c-0.286,-0.018 -0.287,-0.116 -0.268,-0.764c0.011,-0.374 0.484,-0.21 0.605,-0.251c0.038,-0.013 0.043,-0.28 0.043,-0.304c0.007,-0.363 0.15,-0.322 0.732,-0.317c0.354,0.003 0.248,0.335 0.261,0.576c0.003,0.051 0.168,0.052 0.184,0.052c0.074,0.001 0.148,-0.001 0.223,0.001c0.256,0.007 0.219,0.182 0.22,0.763c0,0.336 -0.327,0.233 -0.556,0.244c-0.121,0.006 -0.018,0.457 -0.115,0.566c-0.041,0.046 -0.079,0.089 -0.771,0.066c-0.237,-0.008 -0.181,-0.442 -0.183,-0.542c-0.003,-0.132 -0.273,-0.089 -0.374,-0.089Z" style="fill:#fff;"/><path d="M7.188,19.377c-0.483,-0.043 -0.418,-0.23 -0.416,-1.241c0.001,-0.729 0.317,-0.561 1.047,-0.555c0.177,0.001 0.71,-0.091 0.726,0.37c0.037,1.069 -0.01,1.172 -0.052,1.264c-0.09,0.2 -0.402,0.159 -1.305,0.161Z"/><path d="M18.597,10.647c-0.004,0.047 -0.023,0.27 -0.223,0.547c-0.153,0.212 -0.107,-0.179 -0.108,-1.659c-0.003,-5.18 0.011,-5.191 -0.028,-5.228c-0.094,-0.09 -1.088,0.131 -1.066,-0.184c0.01,-0.146 0.192,-0.145 0.213,-0.144c0.856,0.005 1.129,-0.056 1.202,0.251c0.046,0.191 0.013,5.905 0.01,6.418Z"/><path d="M16.383,11.363c-0.949,-0.005 -6.903,-0 -6.933,-0.001c-0.221,-0.002 -0.241,-0.249 -0.073,-0.306c0.104,-0.035 3.922,-0.01 4.263,-0.007c3.353,0.023 3.44,-0.063 3.491,0.116c0.072,0.254 -0.436,0.197 -0.747,0.198Z"/><path d="M9.334,13.494c0.073,-0.027 0.072,-0.028 0.079,-0.029c0.077,-0.013 5.526,-0.006 6.006,-0.005c1.469,0.002 1.525,-0.024 1.564,0.114c0.057,0.206 -0.123,0.187 -1.008,0.187c-2.175,0 -4.35,0.001 -6.525,0.001c-0.112,0 -0.292,-0.108 -0.116,-0.268Z"/><path d="M15.308,16.151c-1.777,0.003 -1.775,0.004 -2.41,-0c-0.276,-0.002 -0.275,0.013 -3.448,0.006c-0.233,-0 -0.275,-0.304 0.037,-0.305c0.474,-0.002 5.847,-0.019 5.928,0.003c0.069,0.019 0.315,0.266 -0.107,0.297Z"/><path d="M10.302,18.261c0.486,-0.002 3.752,-0.005 4.078,-0.005c0.448,-0 0.263,0.284 0.145,0.312c-0.062,0.015 -2.453,0.004 -2.667,0.003c-2.464,-0.011 -2.524,0.048 -2.587,-0.104c-0.108,-0.263 0.411,-0.208 1.03,-0.206Z"/><path d="M8.539,16.579c-0.011,0.432 -0.184,0.402 -1.24,0.398c-0.634,-0.002 -0.52,-0.277 -0.52,-1.287c-0,-0.65 0.265,-0.544 1.076,-0.55c0.095,-0.001 0.405,-0.032 0.483,0.067c0.006,0.007 0.007,0.272 -0.298,0.238c-0.152,-0.017 -0.715,-0.005 -0.778,-0.004c-0.23,0.005 -0.173,0.154 -0.173,0.917c-0,0.017 -0.049,0.317 0.137,0.322c0.965,0.029 0.987,-0.02 1.005,-0.099c0.043,-0.194 -0.12,-0.268 0.225,-0.585c0.045,-0.042 0.086,-0.007 0.086,-0.004c0.002,0.047 -0.006,0.046 -0.003,0.588Z"/><path d="M8.538,11.759c-0.015,0.433 -0.189,0.41 -1.386,0.395c-0.452,-0.006 -0.375,-0.418 -0.377,-1.284c-0,-0.087 -0.046,-0.448 0.262,-0.529c0.029,-0.008 1.203,-0.067 1.299,0.048c0.051,0.062 -0.117,0.254 -0.219,0.245c-0.079,-0.007 -0.87,-0.076 -0.991,0.027c-0.062,0.053 -0.066,1.101 0.001,1.158c0.071,0.061 1.036,0.064 1.084,0.002c0.108,-0.141 -0.128,-0.263 0.175,-0.57c0.05,-0.051 0.149,-0.172 0.153,-0.051c0.002,0.045 -0.003,0.044 -0,0.56Z"/><path d="M8.539,14.095c-0.016,0.544 -0.239,0.47 -1.277,0.465c-0.594,-0.003 -0.479,-0.265 -0.488,-1.317c-0.005,-0.604 0.277,-0.508 1.119,-0.513c0.12,-0.001 0.356,-0.03 0.434,0.076c0.022,0.029 -0.033,0.251 -0.25,0.229c-0.026,-0.003 -0.832,-0.015 -0.883,0.001c-0.147,0.047 -0.102,0.157 -0.105,0.986c-0.001,0.33 0.164,0.251 0.582,0.252c0.355,0 0.563,0.038 0.567,-0.14c0.005,-0.244 -0.051,-0.281 0.224,-0.543c0.104,-0.099 0.076,0.218 0.079,0.505Z"/><path d="M7.3,19.077c-0.29,-0.014 -0.213,-0.17 -0.215,-0.57c-0.002,-0.379 -0.054,-0.62 0.141,-0.62c0.951,0.001 1.004,-0.013 1.014,0.099c0.004,0.04 0.002,0.927 -0.004,0.967c-0.021,0.147 -0.125,0.118 -0.936,0.124Z" style="fill:#fff;"/><path d="M11.415,7.325c0.022,-0.001 0.237,0.036 0.287,-0.093c0.018,-0.045 0.006,-0.479 0.021,-0.51c0.02,-0.042 0.296,-0.031 0.322,-0.03c0.123,0.005 0.08,0.269 0.081,0.469c0.001,0.222 0.335,0.16 0.55,0.161c0.118,0.001 0.079,0.325 0.078,0.358c-0.003,0.117 -0.307,0.077 -0.485,0.081c-0.223,0.005 -0.106,0.525 -0.152,0.584c-0.028,0.037 -0.304,0.034 -0.33,0.034c-0.1,-0.001 -0.069,-0.321 -0.07,-0.366c-0.013,-0.373 -0.186,-0.236 -0.561,-0.25c-0.116,-0.004 -0.069,-0.407 -0.065,-0.412c0.049,-0.068 0.068,-0.026 0.326,-0.026Z" style="fill:#fff;"/><path d="M7.555,11.504c-0.194,-0.199 -0.448,-0.416 -0.216,-0.519c0.152,-0.067 0.293,0.14 0.296,0.143c0.151,0.153 0.184,0.054 0.403,-0.151c0.305,-0.287 0.857,-0.971 0.923,-0.588c0.017,0.099 0.01,0.119 -0.839,0.932c-0.259,0.247 -0.293,0.415 -0.566,0.183Z"/><path d="M7.886,13.532c0.644,-0.612 0.865,-0.96 1.034,-0.798c0.149,0.143 -0.144,0.348 -0.203,0.406c-0.736,0.732 -0.733,0.734 -0.797,0.797c-0.222,0.219 -0.324,0.019 -0.546,-0.214c-0.019,-0.02 -0.278,-0.293 -0.004,-0.346c0.093,-0.018 0.247,0.142 0.264,0.16c0.157,0.163 0.19,0.05 0.251,-0.005Z"/><path d="M8.555,15.277c0.016,-0.016 0.17,-0.164 0.229,-0.171c0.067,-0.008 0.133,0.022 0.154,0.061c0.085,0.165 -0.135,0.3 -0.146,0.31c-0.943,0.869 -0.966,1.109 -1.193,0.878c-0.38,-0.385 -0.37,-0.413 -0.339,-0.482c0.125,-0.28 0.456,0.152 0.483,0.157c0.087,0.016 0.08,-0.024 0.813,-0.753Z"/><path d="M16.202,18.216c-0.089,0.082 -0.138,0.115 -0.171,-0.001c-0.046,-0.158 -0.308,-0.214 -0.354,-0.213c-0.134,0.003 -0.05,-0.2 -0.033,-0.31c0.011,-0.072 0.024,-0.425 0.145,-0.372c0.002,0.001 0.853,0.471 0.858,0.518c0.005,0.051 -0.11,0.094 -0.445,0.377Z"/><path d="M20.717,8.641c0.631,-0.427 1.128,0.454 0.821,0.71c-0.046,0.038 -0.054,0.003 -0.736,-0.384c-0.065,-0.037 -0.33,-0.072 -0.085,-0.326Z" style="fill:#fff;"/><path d="M11.788,2.254c-0.48,-0.169 -0.22,-0.553 -0.147,-0.612c0.465,-0.37 0.983,0.613 0.147,0.612Z"/><path d="M20.647,9.237c0.702,0.388 0.717,0.415 0.69,0.476c-0.097,0.218 -0.169,0.049 -0.688,-0.22c-0.222,-0.115 -0.411,-0.152 -0.26,-0.328c0.004,-0.004 0.031,-0.036 0.069,-0.024c0.016,0.005 0.014,0.007 0.19,0.096Z"/><path d="M20.944,10.015c0.119,0.088 0.191,0.1 0.099,0.216c-0.084,0.105 -0.108,0.016 -0.589,-0.237c-0.015,-0.008 -0.415,-0.197 -0.386,-0.269c0.084,-0.209 0.176,-0.097 0.326,-0.017c0.281,0.148 0.277,0.148 0.55,0.307Z"/><path d="M15.635,18.684c-0.014,0.011 -0.225,0.18 -0.209,0.083c0.102,-0.615 0.129,-0.645 0.174,-0.621c0.108,0.057 0.062,0.14 0.34,0.205c0.09,0.021 0.025,0.071 -0.306,0.333Z" style="fill:#fff;"/></svg>