<svg width="35" height="35" viewBox="0 0 35 35" fill="none" xmlns="http://www.w3.org/2000/svg">
<path d="M5.53503 29.3571H1.48505C0.925046 29.3571 0.475037 29.8071 0.475037 30.3671V33.3371C0.475037 33.8971 0.925046 34.3471 1.48505 34.3471H5.53503C6.09503 34.3471 6.54504 33.8971 6.54504 33.3371V30.3671C6.54504 29.8071 6.09503 29.3571 5.53503 29.3571Z" fill="#FFD138"/>
<path d="M14.695 24.3471H10.645C10.085 24.3471 9.63501 24.7971 9.63501 25.3571V33.3371C9.63501 33.8971 10.085 34.3471 10.645 34.3471H14.695C15.255 34.3471 15.705 33.8971 15.705 33.3371V25.3571C15.705 24.7971 15.255 24.3471 14.695 24.3471Z" fill="#FFD138"/>
<path d="M23.855 16.8371H19.8051C19.2451 16.8371 18.795 17.2871 18.795 17.8471V33.3371C18.795 33.8971 19.2451 34.3471 19.8051 34.3471H23.855C24.415 34.3471 24.8651 33.8971 24.8651 33.3371V17.8471C24.8651 17.2871 24.415 16.8371 23.855 16.8371Z" fill="#FFD138"/>
<path d="M33.015 9.3671H28.965C28.405 9.3671 27.955 9.81707 27.955 10.3771V33.3371C27.955 33.8971 28.405 34.3471 28.965 34.3471H33.015C33.575 34.3471 34.025 33.8971 34.025 33.3371V10.3771C34.025 9.81707 33.575 9.3671 33.015 9.3671Z" fill="#FFD138"/>
<path d="M30.605 0.547093C30.145 0.237093 29.515 0.357082 29.195 0.817082L26.925 4.15708H23.465C23.085 4.15708 22.745 4.36709 22.565 4.69709L18.9351 11.6271H15.565C15.195 11.6271 14.855 11.8271 14.675 12.1571L10.845 19.1371H7.45502C7.12502 19.1371 6.805 19.2971 6.625 19.5771L3.48505 24.1471H1.38501C0.82501 24.1471 0.375 24.5971 0.375 25.1571C0.375 25.7171 0.82501 26.1671 1.38501 26.1671H4.01501C4.34501 26.1671 4.66503 26.0071 4.84503 25.7271L7.98505 21.1571H11.4351C11.8051 21.1571 12.145 20.9571 12.325 20.6271L16.155 13.6371H19.545C19.925 13.6371 20.265 13.4271 20.445 13.0971L24.075 6.16709H27.455C27.795 6.16709 28.105 5.99709 28.295 5.72709L30.8651 1.93708C31.1751 1.47708 31.055 0.847074 30.595 0.527074L30.605 0.547093Z" fill="#FFD138"/>
<path d="M5.53503 29.3571H1.48505C0.925046 29.3571 0.475037 29.8071 0.475037 30.3671V33.3371C0.475037 33.8971 0.925046 34.3471 1.48505 34.3471H5.53503C6.09503 34.3471 6.54504 33.8971 6.54504 33.3371V30.3671C6.54504 29.8071 6.09503 29.3571 5.53503 29.3571Z" stroke="black" stroke-width="0.75" stroke-linecap="round" stroke-linejoin="round"/>
<path d="M14.695 24.3471H10.645C10.085 24.3471 9.63501 24.7971 9.63501 25.3571V33.3371C9.63501 33.8971 10.085 34.3471 10.645 34.3471H14.695C15.255 34.3471 15.705 33.8971 15.705 33.3371V25.3571C15.705 24.7971 15.255 24.3471 14.695 24.3471Z" stroke="black" stroke-width="0.75" stroke-linecap="round" stroke-linejoin="round"/>
<path d="M23.855 16.8371H19.8051C19.2451 16.8371 18.795 17.2871 18.795 17.8471V33.3371C18.795 33.8971 19.2451 34.3471 19.8051 34.3471H23.855C24.415 34.3471 24.8651 33.8971 24.8651 33.3371V17.8471C24.8651 17.2871 24.415 16.8371 23.855 16.8371Z" stroke="black" stroke-width="0.75" stroke-linecap="round" stroke-linejoin="round"/>
<path d="M33.015 9.3671H28.965C28.405 9.3671 27.955 9.81707 27.955 10.3771V33.3371C27.955 33.8971 28.405 34.3471 28.965 34.3471H33.015C33.575 34.3471 34.025 33.8971 34.025 33.3371V10.3771C34.025 9.81707 33.575 9.3671 33.015 9.3671Z" stroke="black" stroke-width="0.75" stroke-linecap="round" stroke-linejoin="round"/>
<path d="M30.605 0.547093C30.145 0.237093 29.515 0.357082 29.195 0.817082L26.925 4.15708H23.465C23.085 4.15708 22.745 4.36709 22.565 4.69709L18.9351 11.6271H15.565C15.195 11.6271 14.855 11.8271 14.675 12.1571L10.845 19.1371H7.45502C7.12502 19.1371 6.805 19.2971 6.625 19.5771L3.48505 24.1471H1.38501C0.82501 24.1471 0.375 24.5971 0.375 25.1571C0.375 25.7171 0.82501 26.1671 1.38501 26.1671H4.01501C4.34501 26.1671 4.66503 26.0071 4.84503 25.7271L7.98505 21.1571H11.4351C11.8051 21.1571 12.145 20.9571 12.325 20.6271L16.155 13.6371H19.545C19.925 13.6371 20.265 13.4271 20.445 13.0971L24.075 6.16709H27.455C27.795 6.16709 28.105 5.99709 28.295 5.72709L30.8651 1.93708C31.1751 1.47708 31.055 0.847074 30.595 0.527074L30.605 0.547093Z" stroke="black" stroke-width="0.75" stroke-linecap="round" stroke-linejoin="round"/>
</svg>
