<svg width="37" height="37" viewBox="0 0 37 37" fill="none" xmlns="http://www.w3.org/2000/svg">
<path d="M5.55741 20.555L0.677401 25.435C0.417401 25.695 0.317381 26.065 0.407381 26.415C0.497381 26.765 0.757393 27.045 1.10739 27.155L7.07736 29.005L8.9274 34.975C9.0374 35.325 9.31739 35.585 9.66739 35.675C9.74739 35.695 9.83739 35.705 9.91739 35.705C10.1874 35.705 10.4574 35.595 10.6474 35.405L17.7974 28.255C12.4474 28.175 7.82741 25.055 5.55741 20.555Z" fill="#F5B500"/>
<path d="M35.3574 25.445L30.4774 20.565C28.2174 25.065 23.5874 28.175 18.2374 28.265L25.3874 35.415C25.5874 35.615 25.8474 35.715 26.1174 35.715C26.1974 35.715 26.2874 35.715 26.3674 35.685C26.7174 35.595 26.9974 35.335 27.1074 34.985L28.9574 29.015L34.9274 27.165C35.2774 27.055 35.5374 26.775 35.6274 26.425C35.7174 26.075 35.6074 25.705 35.3574 25.445Z" fill="#F5B500"/>
<path d="M30.4674 20.555C31.4074 18.675 31.9474 16.555 31.9474 14.315C31.9474 6.625 25.6974 0.375 18.0074 0.375C10.3174 0.375 4.06738 6.625 4.06738 14.315C4.06738 16.555 4.59742 18.675 5.54742 20.555C7.80742 25.055 12.4374 28.165 17.7874 28.255C17.8574 28.255 17.9374 28.255 18.0074 28.255C18.0774 28.255 18.1574 28.255 18.2274 28.255C23.5774 28.175 28.1974 25.055 30.4674 20.555ZM18.0174 26.185C11.4774 26.185 6.1474 20.865 6.1474 14.315C6.1474 7.765 11.4674 2.44501 18.0174 2.44501C24.5674 2.44501 29.8874 7.765 29.8874 14.315C29.8874 20.865 24.5674 26.185 18.0174 26.185Z" fill="#F5B500"/>
<path d="M27.9474 14.325C27.9474 8.84501 23.4874 4.38501 18.0074 4.38501C12.5274 4.38501 8.06738 8.84501 8.06738 14.325C8.06738 19.805 12.5274 24.265 18.0074 24.265C23.4874 24.265 27.9474 19.805 27.9474 14.325ZM20.9574 19.585C20.8374 19.585 20.7174 19.565 20.5974 19.515L18.0174 18.555L15.4374 19.515C15.1174 19.635 14.7474 19.585 14.4674 19.385C14.1874 19.185 14.0274 18.855 14.0374 18.505L14.1574 15.755L12.4474 13.595C12.2274 13.325 12.1674 12.965 12.2774 12.635C12.3874 12.305 12.6474 12.055 12.9874 11.955L15.6374 11.215L17.1574 8.91501C17.3474 8.62501 17.6774 8.45502 18.0174 8.45502C18.3574 8.45502 18.6874 8.62501 18.8774 8.91501L20.3974 11.215L23.0474 11.955C23.3774 12.045 23.6474 12.305 23.7574 12.635C23.8674 12.965 23.7974 13.325 23.5874 13.595L21.8774 15.755L21.9974 18.505C22.0074 18.855 21.8474 19.185 21.5674 19.385C21.3874 19.515 21.1774 19.585 20.9574 19.585Z" fill="#F5B500"/>
<path d="M5.55741 20.555L0.677401 25.435C0.417401 25.695 0.317381 26.065 0.407381 26.415C0.497381 26.765 0.757393 27.045 1.10739 27.155L7.07736 29.005L8.9274 34.975C9.0374 35.325 9.31739 35.585 9.66739 35.675C9.74739 35.695 9.83739 35.705 9.91739 35.705C10.1874 35.705 10.4574 35.595 10.6474 35.405L17.7974 28.255C12.4474 28.175 7.82741 25.055 5.55741 20.555Z" stroke="black" stroke-width="0.75" stroke-linecap="round" stroke-linejoin="round"/>
<path d="M35.3574 25.445L30.4774 20.565C28.2174 25.065 23.5874 28.175 18.2374 28.265L25.3874 35.415C25.5874 35.615 25.8474 35.715 26.1174 35.715C26.1974 35.715 26.2874 35.715 26.3674 35.685C26.7174 35.595 26.9974 35.335 27.1074 34.985L28.9574 29.015L34.9274 27.165C35.2774 27.055 35.5374 26.775 35.6274 26.425C35.7174 26.075 35.6074 25.705 35.3574 25.445Z" stroke="black" stroke-width="0.75" stroke-linecap="round" stroke-linejoin="round"/>
<path d="M29.8774 14.325C29.8774 7.78501 24.5574 2.45502 18.0074 2.45502C11.4574 2.45502 6.13739 7.77501 6.13739 14.325C6.13739 20.875 11.4574 26.195 18.0074 26.195C24.5574 26.195 29.8774 20.875 29.8774 14.325ZM18.0174 24.255C12.5374 24.255 8.07739 19.795 8.07739 14.315C8.07739 8.835 12.5374 4.375 18.0174 4.375C23.4974 4.375 27.9574 8.835 27.9574 14.315C27.9574 19.795 23.4974 24.255 18.0174 24.255Z" stroke="black" stroke-width="0.75" stroke-linecap="round" stroke-linejoin="round"/>
<path d="M30.4674 20.555C31.4074 18.675 31.9474 16.555 31.9474 14.315C31.9474 6.625 25.6974 0.375 18.0074 0.375C10.3174 0.375 4.06738 6.625 4.06738 14.315C4.06738 16.555 4.59742 18.675 5.54742 20.555C7.80742 25.055 12.4374 28.165 17.7874 28.255C17.8574 28.255 17.9374 28.255 18.0074 28.255C18.0774 28.255 18.1574 28.255 18.2274 28.255C23.5774 28.175 28.1974 25.055 30.4674 20.555ZM18.0174 26.185C11.4774 26.185 6.1474 20.865 6.1474 14.315C6.1474 7.765 11.4674 2.44501 18.0174 2.44501C24.5674 2.44501 29.8874 7.765 29.8874 14.315C29.8874 20.865 24.5674 26.185 18.0174 26.185Z" stroke="black" stroke-width="0.75" stroke-linecap="round" stroke-linejoin="round"/>
<path d="M27.9474 14.325C27.9474 8.84501 23.4874 4.38501 18.0074 4.38501C12.5274 4.38501 8.06738 8.84501 8.06738 14.325C8.06738 19.805 12.5274 24.265 18.0074 24.265C23.4874 24.265 27.9474 19.805 27.9474 14.325ZM20.9574 19.585C20.8374 19.585 20.7174 19.565 20.5974 19.515L18.0174 18.555L15.4374 19.515C15.1174 19.635 14.7474 19.585 14.4674 19.385C14.1874 19.185 14.0274 18.855 14.0374 18.505L14.1574 15.755L12.4474 13.595C12.2274 13.325 12.1674 12.965 12.2774 12.635C12.3874 12.305 12.6474 12.055 12.9874 11.955L15.6374 11.215L17.1574 8.91501C17.3474 8.62501 17.6774 8.45502 18.0174 8.45502C18.3574 8.45502 18.6874 8.62501 18.8774 8.91501L20.3974 11.215L23.0474 11.955C23.3774 12.045 23.6474 12.305 23.7574 12.635C23.8674 12.965 23.7974 13.325 23.5874 13.595L21.8774 15.755L21.9974 18.505C22.0074 18.855 21.8474 19.185 21.5674 19.385C21.3874 19.515 21.1774 19.585 20.9574 19.585Z" stroke="black" stroke-width="0.75" stroke-linecap="round" stroke-linejoin="round"/>
<path d="M21.9874 18.505L21.8674 15.755L23.5774 13.595C23.7974 13.325 23.8574 12.965 23.7474 12.635C23.6374 12.305 23.3774 12.055 23.0374 11.955L20.3874 11.215L18.8674 8.91501C18.6774 8.62501 18.3474 8.45502 18.0074 8.45502C17.6674 8.45502 17.3374 8.62501 17.1474 8.91501L15.6274 11.215L12.9774 11.955C12.6474 12.045 12.3774 12.305 12.2674 12.635C12.1574 12.965 12.2274 13.325 12.4374 13.595L14.1474 15.755L14.0274 18.505C14.0174 18.855 14.1774 19.185 14.4574 19.385C14.7374 19.585 15.0974 19.635 15.4274 19.515L18.0074 18.555L20.5874 19.515C20.7074 19.555 20.8274 19.585 20.9474 19.585C21.1674 19.585 21.3774 19.515 21.5574 19.385C21.8374 19.185 21.9974 18.855 21.9874 18.505Z" stroke="black" stroke-width="0.75" stroke-linecap="round" stroke-linejoin="round"/>
</svg>
