<?xml version="1.0" encoding="UTF-8" standalone="no"?><!DOCTYPE svg PUBLIC "-//W3C//DTD SVG 1.1//EN" "http://www.w3.org/Graphics/SVG/1.1/DTD/svg11.dtd"><svg width="100%" height="100%" viewBox="0 0 24 8" version="1.1" xmlns="http://www.w3.org/2000/svg" xmlns:xlink="http://www.w3.org/1999/xlink" xml:space="preserve" xmlns:serif="http://www.serif.com/" style="fill-rule:evenodd;clip-rule:evenodd;stroke-linejoin:round;stroke-miterlimit:2;"><path d="M2.338,3.114c0.194,0.203 0.409,0.233 0.45,0.238c0.255,0.062 0.257,0.163 0.491,0.041c0.078,-0.027 0.156,-0.055 0.234,-0.082c-0.059,0.445 -0.213,0.328 -0.564,0.486c0.405,0.186 0.412,-0.095 0.843,-0.027c0.264,0.041 0.237,-0.042 0.427,-0.232c0.502,0.529 0.768,0.598 1.097,0.523c0.188,0.239 0.177,0.257 0.203,0.258c0.079,0.004 0.062,-0.051 0.269,-0.075c0.315,-0.037 0.35,-0.332 0.549,-0.076c0.149,0.191 0.173,0.039 0.389,-0.09c0.412,0.179 0.422,0.089 0.858,0.013c0.02,0.121 0.017,0.114 0.005,0.241c-0.438,0.335 -0.405,1.314 -0.15,0.996c0.037,-0.047 0.025,-0.262 0.156,-0.256c0.174,0.007 -0.057,0.243 0.299,0.445l-0.039,0.016c-0.084,0.011 -0.426,0.054 -0.948,0.468c-0.414,0.064 -0.373,0.139 -0.742,0.324c-0.365,0.183 0.162,0.522 0.202,0.547c0.13,0.119 0.111,0.124 0.273,0.197c-0.184,0.02 -0.172,0.055 -0.474,0.026c-0.157,-0.038 -0.313,-0.077 -0.47,-0.115c-0.436,-0.454 -0.675,-0.192 -1.71,-0.284l-0.111,-0.042c0.27,-0.224 0.269,-0.222 0.292,-0.242c0.263,-0.243 -0.125,-0.14 -0.383,-0.385c0.047,-0.043 0.094,-0.087 0.14,-0.13c0.075,-0.283 0.092,-0.271 0.094,-0.295c0.085,-0.002 0.17,-0.004 0.255,-0.006c0.059,0.007 0.118,0.014 0.177,0.02c0.404,0.017 0.222,0.289 0.403,0.387c0.237,0.128 0.168,-0.059 0.271,-0.296c0.056,0.027 0.111,0.053 0.167,0.08c0.152,0.227 0.213,0.138 0.887,0.001c0.007,-0.001 0.131,0.06 0.183,-0.498c0.039,0.014 0.195,0.073 0.482,0.191c0.101,-0.19 0.027,-0.189 -0.046,-0.327l0.046,-0.037c0.03,-0.007 0.375,-0.114 -0.115,-0.371c-0.151,-0.046 -0.162,-0.121 -0.547,0.091c-0.042,-0.218 -0.072,-0.226 -0.295,-0.23c-0.298,-0.014 -0.281,-0.077 -0.571,-0.073c-0.118,0.016 -0.127,-0.075 -0.248,0.033c-0.022,0.02 -0.072,0.065 0.041,0.368c-0.122,-0.009 -0.243,-0.019 -0.365,-0.028c-0.714,0.123 -1.25,0.494 -1.346,0.56l-0.079,0.101c-0.142,-0.173 -0.105,-0.234 -0.277,-0.22c-0.25,0.021 -0.194,-0.088 -0.379,-0.261l-0.194,-0.089l-0.03,-0.087c-0.453,-0.726 -1.182,-0.133 -2.085,-0.47c0.004,-0.034 0.032,-0.292 0.105,-0.413c0.23,-0.159 0.239,-0.134 0.398,-0.355c0.059,-0.019 0.051,-0.023 0.177,-0.116l0.034,-0.041c0.481,0.105 0.493,0.121 0.942,-0.096c0.21,-0.078 0.325,-0.006 0.33,-0.307Z" style="fill:#a5754b;fill-opacity:0.98;"/><path d="M7.885,0.513c0.295,0.175 0.239,0.234 0.564,0.385c0.282,0.25 0.3,0.215 0.586,0.464c0.024,0.003 0.017,0.02 0.287,0.081c0.027,0.005 0.054,0.01 0.081,0.016c0.31,0.159 0.317,0.068 0.63,-0.079c0.167,0.012 0.157,0.03 0.232,0.178c0.098,0.195 0.138,-0.036 0.349,-0.052c0.133,0.215 0.13,0.208 0.243,0.443c0.165,0.344 0.377,0.168 0.503,0.531l0.031,0.049c-0.226,0.025 -0.265,0.003 -0.285,-0.008c-0.192,-0.108 -0.165,0.053 -0.211,0.136l0.046,0.03c-0.12,0.267 -0.235,0.349 0.034,0.468c-0.011,0.005 -0.141,0.058 -0.141,0.058c-0.088,-0.03 -0.071,-0.106 -0.204,-0.05c-0.124,0.052 -0.103,-0.048 -0.12,-0.056c-0,-0.01 0.158,-0.09 -0.29,-0.433c-0.194,0.172 -0.2,0.161 -0.229,0.225l-0.128,-0.046l-0.097,-0.021c0.125,-0.184 0.327,-0.28 0.101,-0.296c-0,0 -0.133,-0.092 -0.144,-0.1c-0.014,-0.184 0.026,-0.213 -0.065,-0.246c-0.415,-0.153 -0.516,-0.069 -0.549,-0.041c-0.057,0.048 0.088,0.431 0.111,0.451c-0.113,0.062 -0.233,-0.025 -0.314,0.389c-0.153,0.068 -0.305,0.136 -0.458,0.203c-0.043,-0.143 -0.079,-0.12 -0.114,-0.255c0.031,-0.008 0.685,-0.168 0.211,-0.341c-0.081,-0.069 -0.067,-0.222 -0.212,-0.083c-0.023,0.039 -0.045,0.078 -0.068,0.117c-0.102,-0.005 -0.203,-0.01 -0.305,-0.015c0.033,-0.211 0.025,-0.241 -0.176,-0.297c-0.063,-0.013 -0.126,-0.025 -0.189,-0.038c-0.132,-0.034 -0.361,-0.173 -0.599,0.179l-0.09,-0.103c-0.014,-0.016 -0.127,-0.151 -0.188,-0.185c-0.087,-0.05 -0.064,0.255 -0.461,0.097c-0.105,-0.076 -0.11,-0.095 -0.215,-0.025l-0.032,0.093c-0.245,-0.109 -0.242,-0.097 -0.503,-0.087c0.099,-0.166 0.108,-0.164 0.074,-0.35c0.189,-0.147 0.238,-0.191 0.37,0.005c0.097,0.145 0.277,0.023 0.412,0.036c0.336,0.034 0.474,0.023 0.379,-0.306c0.261,-0.044 0.318,0.02 0.413,-0.229c0.013,-0.05 0.108,-0.404 0.223,-0.61c0.036,-0.03 0.071,-0.06 0.107,-0.09c0.035,-0.026 0.07,-0.051 0.104,-0.077c0.025,-0.005 0.021,-0.01 0.299,-0.115Z" style="fill:#c49158;fill-opacity:0.98;"/><path d="M13.861,5.019c0.396,0.012 0.369,0.105 0.747,0.194c0.692,0.091 0.646,0.247 1.266,0.317c-0.006,0.077 -0.011,0.153 -0.017,0.23c0.138,0.271 0.151,0.25 0.367,0.473c-0.004,0.155 -0.008,0.309 -0.012,0.464c0.011,0.146 0.03,0.253 -0.736,0.417c-1.188,0.255 -1.506,-0.02 -1.727,-0.204c-0.392,-0.336 -0.486,-0.203 -0.752,-0.217c0.125,-0.04 0.111,-0.054 0.387,-0.27c0.031,-0.028 0.296,-0.262 0.472,-0.214c0.309,0.085 0.331,0.122 0.572,-0.079c0.006,-0.146 0.012,-0.293 0.017,-0.439c-0.061,-0.018 -0.449,-0.136 -0.792,-0.088l-0.151,0.039l-0.08,-0.078c0.083,-0.198 0.089,-0.188 0.438,-0.544Z" style="fill:#b88856;fill-opacity:0.99;"/><path d="M11.389,2.528c0.038,0.029 0.075,0.059 0.113,0.088c0.02,0.1 0.039,0.201 0.059,0.301c0.147,0.164 0.179,0.15 0.169,0.376c-0.061,0.149 -0.059,0.141 -0.093,0.303c-0.029,0.056 -0.058,0.112 -0.087,0.169c-0.072,0.195 -0.068,0.195 0.026,0.38c0.534,0.384 1.241,-0.388 0.984,0.214c-0.071,0.166 -0.025,0.158 0.029,0.33c-0.016,0.027 -0.024,0 -0.261,0.303l-0.103,0.091c-0.045,0.067 0.023,0.073 -0.156,0.999c-0.142,0.154 -0.127,0.155 -0.187,0.348c-0.175,-0.4 0.002,-0.801 -0.511,-1.449l-0.004,-0.081l-0.069,-0.095c-0.257,-0.322 -0.169,-0.468 -0.578,-0.498c-0.189,-0.142 -0.374,-0.474 -0.537,0.067c-0.365,-0.246 -0.357,-0.245 -0.785,-0.329c-0.295,-0.309 -0.844,0.133 -0.869,-0.459c0.329,0.033 0.328,0.044 0.76,-0.064c0.199,-0.049 0.174,-0.079 0.267,-0.133c0.072,0.185 0.042,0.207 0.216,0.272l0.194,-0.018c0.584,0.047 0.652,0.192 1.05,-0.228c0.044,-0.025 0.653,-0.146 0.182,-0.428c-0.087,-0.101 -0.175,-0.201 -0.262,-0.302l-0.046,-0.03c0.047,-0.083 0.019,-0.244 0.211,-0.136c0.02,0.011 0.059,0.033 0.285,0.008Z" style="fill:#815940;fill-opacity:1;"/><path d="M17.361,4.141c0.179,0.186 0.167,0.181 0.382,0.338c0.243,-0.049 0.235,-0.077 0.464,-0.002c0.06,0.072 0.309,0.369 1.063,0.488c0,0 0.256,-0.059 0.278,-0.064c0.305,-0.018 0.32,-0.031 0.452,-0.316c0.351,-0.153 0.363,0.004 0.442,0.388c-0.855,0.03 0.222,0.511 0.222,0.514c0.045,0.192 0.016,0.216 0.196,0.316c0.152,0.084 0.158,0.036 0.303,0.112c0.048,0.025 0.047,0.106 0.094,0.131c-1.311,-0.104 -1.312,-0.127 -1.428,-0.083c-0.265,-0.082 -0.257,-0.074 -0.85,-0.226c-0.047,0.008 -0.187,0.031 -0.544,0.253c-0.354,-0.613 -0.404,-0.565 -0.861,-1.099c-0.098,-0.114 0.014,-0.173 -0.324,-0.526c0.037,-0.075 0.073,-0.149 0.11,-0.224Z" style="fill:#916342;fill-opacity:0.99;"/><path d="M19.549,2.126l0.286,-0.002c0.377,0.152 0.434,0.109 0.585,0.491c-0.011,0.071 -0.245,0.319 0.174,0.389c-0.226,0.171 -0.204,0.187 -0.384,0.252c-0.144,0.052 -0.137,-0.081 -0.273,-0.028c-0.238,0.094 -0.242,0.071 -0.484,-0.029c-0.373,-0.052 -0.355,-0.078 -0.668,-0.282c-0.03,-0.001 -0.061,-0.001 -0.091,-0.002c-0.044,0.02 -0.193,0.088 -0.434,0.413c-0.244,-0.037 -0.257,-0.052 -0.435,0.123c-0.112,0.111 -0.123,0.022 -0.295,-0.091c0.222,-0.176 0.227,-0.189 0.213,-0.474c0.577,-0.311 -0.111,-0.267 -0.185,-0.238c-0.018,0.007 -0.287,0.11 -0.245,-0.023c0.108,-0.346 -0.539,-0.185 -0.586,-0.173c0.222,-0.411 0.29,-0.333 0.733,-0.506c0.234,0.172 0.295,0.12 0.383,0.391c0.014,0.042 0.03,0.051 0.034,0.053c0.222,0.123 0.224,0.003 0.383,0.005c0.613,0.148 1.197,-0.215 1.287,-0.271Z" style="fill:#e0ae65;fill-opacity:0.98;"/><path d="M15.51,0.783c0.063,0.074 0.102,0.029 0.242,0.232c0.161,0.085 0.144,0.096 0.318,0.153c0.096,0.101 0.118,0.435 0.463,0.503c0.002,0.06 0.004,0.121 0.006,0.181c-0.4,0.186 -0.494,0.055 -0.708,0.429c-0.185,0.003 -0.369,0.006 -0.554,0.009c-0.215,0.029 -0.212,0.022 -0.285,0.049c-0.03,-0.031 -0.061,-0.063 -0.091,-0.094c-0.288,-0.033 -0.278,-0.057 -0.574,-0.006c-0.005,0.034 -0.011,0.068 -0.016,0.102c-0.035,0.04 -0.273,0.316 -0.654,-0.086l-0.111,-0.07c-0.059,-0.04 -0.119,-0.08 -0.178,-0.121c0.434,-0.273 0.448,-0.261 0.955,-0.161c0.128,0.025 0.682,-0.088 0.454,-0.29c-0.15,-0.133 -0.298,-0.366 -0.34,-0.419c0.09,-0.146 0.083,-0.133 0.206,-0.253c0.012,0.014 0.156,0.171 0.156,0.171c0.063,0.1 0.069,0.082 0.139,0.166c0.07,-0.218 0.084,-0.196 0.193,-0.408c0.151,0.198 0.191,0.07 0.38,-0.088Z" style="fill:#e4b168;fill-opacity:0.98;"/><path d="M15.752,3.643c-0.209,0.266 -0.217,0.247 -0.351,0.546c-0.024,0.054 -0.933,0.07 -0.186,0.558c-0.018,0.047 -0.036,0.094 -0.055,0.142c-0.327,0.05 -0.39,0.21 -0.573,-0.065c-0.115,-0.173 -0.413,0.033 -0.542,0.005c-0.215,-0.048 -0.14,0.075 -0.184,0.191c-0.349,0.356 -0.356,0.347 -0.438,0.544c-0.157,0.172 -0.186,0.155 -0.223,0.385c-0.018,0.111 -0.039,0.095 -0.202,0.29c-0.31,-0.052 -0.619,-0.104 -0.929,-0.155c0.178,-0.927 0.11,-0.932 0.156,-0.999c0.023,0.067 0.069,0.197 0.483,0.741c0.569,-0.305 0.454,-0.594 0.459,-0.669c0.1,-0.027 0.199,-0.054 0.299,-0.081c0.11,-0.076 0.11,-0.064 0.199,-0.171c0.1,-0.251 0.081,-0.281 -0.132,-0.434c0.054,-0.311 0.097,-0.301 0.03,-0.603c0.165,0.037 0.152,0.034 0.165,0.037c0.043,0.012 0.016,0.031 0.044,0.039c0.118,-0.042 0.235,-0.084 0.353,-0.125c0.201,0.148 0.184,0.248 0.409,0.159c0.143,-0.057 0.134,-0.063 0.277,-0.043c0.31,0.041 0.335,0.051 0.533,-0.205c0.248,-0.119 0.264,-0.064 0.406,-0.084Z" style="fill:#8b5e41;fill-opacity:1;"/><path d="M3.033,1.092l0.283,-0.001c0.491,0.096 0.579,0.314 0.956,0.314c-0.183,0.204 -0.173,0.192 -0.352,0.394c-0.057,-0.076 -0.04,-0.077 -0.1,-0.157c-0.009,-0.012 0,0 -0.12,-0.15c-0.212,-0.036 -0.205,0.015 -0.313,0.2c0.001,0.291 -0.199,0.349 0.035,0.516c0.201,0.143 0.236,0.231 0.404,0.039c0.077,0.041 0.047,0.09 0.144,0.077c0.068,-0.009 0.04,-0.032 0.102,-0.082c0.161,0.358 0.262,0.311 0.292,0.297c0.227,-0.107 0.219,-0.143 0.474,-0.096c0.093,0.001 0.186,0.002 0.279,0.003c0.15,0.11 0.129,0.111 0.237,0.261c-0.167,0.034 -0.148,0.068 -0.309,0.106c-0.17,-0.169 -0.171,-0.272 -0.274,-0.158c-0.108,0.12 -0.29,0.084 -0.323,0.086c-0.237,0.06 -0.37,-0.166 -0.943,-0.124c-0.139,0.005 -0.125,-0.007 -0.272,0c-0.142,-0.468 -0.148,-0.459 -0.166,-0.58c0.24,-0.515 0.214,-0.593 0.197,-0.645c-0.014,-0.043 -0.236,-0.206 -0.344,0.453c-0.02,0.043 -0.041,0.086 -0.061,0.13c-0.033,0.124 -0.067,0.248 -0.1,0.372c-0.024,0.093 -0.049,0.186 -0.073,0.279c-0.04,0 -0.102,-0.151 -0.315,0.001c-0.15,0.107 -0.145,0.098 -0.304,0.206l-0.103,-0.002c-0.027,-0.033 -0.054,-0.066 -0.081,-0.099c-0.08,-0.388 -0.019,-0.381 -0.086,-0.772c0.088,-0.014 0.073,-0.03 0.165,-0.119c0.171,-0.064 0.269,0.002 0.292,-0.282c0.032,-0.028 0.063,-0.056 0.095,-0.084c0.34,-0.219 0.367,-0.149 0.684,-0.383Z" style="fill:#dba864;fill-opacity:0.97;"/><path d="M4.428,0.803c0.396,-0.329 0.936,-0.01 1.019,0.282c0,0.025 0.002,0.197 0.064,0.303c-0.552,0.571 -0.466,0.701 -0.186,0.94c0.092,0.033 0.184,0.065 0.275,0.098c0.095,0.015 0.189,0.031 0.284,0.046c0.044,0.033 0.05,-0.019 0.094,0.014c0.024,0.018 0.022,0.018 0.291,0.238c0.367,-0.123 0.392,-0.078 0.635,-0.367l0.09,0.103c0.196,0.097 0.256,0.042 0.296,0.263c0.003,0.017 0.01,0.012 0.138,0.165l0.255,0.129c0.104,0.138 0.104,0.128 0.186,0.275c0.001,0.021 -0.148,0.257 0.293,0.199c-0.07,0.202 -0.011,0.379 -0.182,0.249c-0.145,-0.111 -0.092,-0.154 -0.107,-0.154c-0.27,0.001 -0.323,0.489 -0.848,0.007c0.019,-0.029 0.219,-0.424 0.361,-0.271c0.014,0.016 0.845,0.87 0.267,-0.013c-0.029,-0.045 -0.05,-0.076 -0.535,-0.401c-0.25,-0.087 -0.264,-0.115 -0.486,0.029c-0.059,-0.016 -0.416,-0.113 -0.733,0.194c-0.214,0.207 -0.235,0.039 -0.504,-0.105c0.067,-0.168 0.095,-0.188 -0.039,-0.318c-0.108,-0.151 -0.087,-0.152 -0.237,-0.261l-0.028,-0.07c-0.027,-0.039 -0.156,-0.228 -0.384,-0.449c-0.018,-0.086 -0.036,-0.172 -0.054,-0.257c0.329,-0.027 0.364,0.015 0.392,-0.08c0.06,-0.202 -0.006,-0.21 -0.206,-0.22c-0.034,-0.019 -0.363,-0.206 -0.402,-0.268c-0.016,-0.026 0.044,-0.062 0.028,-0.088c-0.012,-0.07 -0.024,-0.141 -0.036,-0.211Z" style="fill:#dfb06b;fill-opacity:0.97;"/><path d="M17.176,5.307l0.085,-0.005c0.513,0.42 0.665,0.213 1.056,0.735c0.189,0.105 0.19,0.082 0.338,0.237c-0.013,0.036 0.01,0.027 0,0.055c-0.037,0.102 -0.073,0.053 -0.154,0.112c-0.617,-0.007 -0.531,0.412 -1.131,0.334c-0.585,-0.077 -0.574,-0.142 -1.158,-0.077c0.004,-0.155 0.008,-0.309 0.012,-0.464c0.388,-0.56 0.371,-0.58 0.952,-0.926Z" style="fill:#8d6243;fill-opacity:0.98;"/><path d="M10.185,4.376c0.287,-0.07 0.265,0.022 0.304,0.045c-0.005,0.046 -0.019,0.182 0.064,0.572c-0.082,0.403 0.132,0.334 0.526,0.254c0.042,-0.018 0.083,-0.036 0.125,-0.054c0.062,-0.126 0.063,-0.108 0.168,-0.21c0.513,0.648 0.337,1.049 0.511,1.449c0.005,0.035 0.036,0.276 -0.014,0.436c-0.047,-0.009 -0.294,-0.057 -0.591,-0.091c-0.001,-0.076 -0.013,-0.738 -0.647,-0.701c-0.001,-0.001 -0.122,0.05 -0.127,-0.089c-0.005,-0.152 -0.319,-0.908 -0.448,-1.081c-0.117,-0.125 -0.1,-0.122 -0.164,-0.289c0.121,-0.154 0.099,-0.178 0.293,-0.241Z" style="fill:#7a543e;fill-opacity:0.98;"/><path d="M7.588,4.331c0.183,0.097 0.178,0.088 0.386,0.119c-0.29,0.35 -0.176,0.519 0.28,0.539c0.564,0.341 0.579,0.293 1.237,0.401c0.124,0.02 0.163,-0.242 -0.403,-0.577c0.264,-0.157 0.253,-0.152 0.265,-0.157c0.23,0.265 0.18,0.319 0.516,0.431c0.117,-0.064 0.114,-0.056 0.187,-0.182c0.13,0.173 0.443,0.929 0.448,1.081c0.005,0.139 0.126,0.088 0.127,0.089c-0.221,0.182 -0.201,0.198 -0.469,0.317c-0.068,-0.173 -0.044,-0.167 -0.065,-0.347c-0.13,-0.402 -1.174,-0.673 -2.204,-0.531c-0.356,-0.202 -0.125,-0.438 -0.299,-0.445c-0.131,-0.005 -0.118,0.21 -0.156,0.256c-0.256,0.318 -0.288,-0.661 0.15,-0.996Z" style="fill:#ae7b4d;fill-opacity:0.99;"/><path d="M21.345,2.773c0.475,0.412 0.42,0.566 1.151,0.601c-0.131,0.126 -0.108,0.152 -0.288,0.195c-0.312,-0.044 -0.392,-0.148 -0.517,0.14c-0.126,-0.001 -0.112,-0.004 -0.242,-0.013c-0.099,-0.025 -0.199,-0.049 -0.298,-0.074c-0.308,-0.079 -0.341,-0.069 -0.37,-0.06c-0.372,0.113 -0.383,-0.08 -0.753,0.023c-0.561,0.156 -0.82,-0.294 -0.952,-0.237c-0.267,0.114 -0.397,0.028 -0.385,0.332l-0.084,-0.028c-0.233,-0.105 -0.241,-0.098 -0.344,-0.322c0.241,-0.326 0.391,-0.394 0.434,-0.413l0.091,0.002c0.313,0.204 0.294,0.231 0.668,0.282c0.242,0.1 0.245,0.123 0.484,0.029c0.136,-0.053 0.129,0.08 0.273,0.028c0.179,-0.065 0.158,-0.081 0.384,-0.252c0.064,-0.027 0.129,-0.054 0.193,-0.082l0.087,-0.023c0.267,-0.082 0.265,-0.082 0.288,-0.088c0.096,-0.028 0.091,-0.012 0.183,-0.038Z" style="fill:#bb864f;fill-opacity:0.99;"/><path d="M22.495,3.374c0.073,0.045 0.145,0.091 0.218,0.136c-0.292,0.312 -0.691,0.608 -0.755,0.656c-0.047,-0.004 -0.083,-0.049 -0.13,-0.053c-0.074,-0.007 -0.043,0.026 -0.05,0.163c-0.022,0.431 -0.706,-0.77 -1.563,-0.13c-0.525,-0.318 -0.63,-0.193 -1.135,-0.309c-0.212,-0.052 -0.197,-0.063 -0.39,-0.156c-0.012,-0.305 0.118,-0.218 0.385,-0.332c0.132,-0.056 0.391,0.393 0.952,0.237c0.37,-0.103 0.382,0.09 0.753,-0.023c0.029,-0.009 0.062,-0.019 0.37,0.06c0.002,0.029 0.067,0.499 0.298,0.074c0.13,0.01 0.116,0.012 0.242,0.013l0.154,0.043l0.107,-0.023c0.085,-0.053 0.171,-0.106 0.256,-0.159c0.179,-0.043 0.157,-0.069 0.288,-0.195Z" style="fill:#9c6c47;fill-opacity:0.98;"/><path d="M13.656,2.255c0.381,0.402 0.619,0.126 0.654,0.086l0.016,-0.102c0.295,-0.05 0.285,-0.027 0.574,0.006l0.091,0.094l-0.092,0.096c-0.14,0.135 -0.126,0.136 -0.238,0.301c-0.144,-0.07 -0.142,-0.252 -0.224,-0.108c0,0 -0.09,0.342 -0.098,0.371c-0.346,0.043 -0.3,0.135 -0.668,0.481c-0.353,0.333 0.685,-0.009 0.741,-0.027c0.199,0.19 0.196,0.191 0.214,0.205c-0.224,0.145 -0.262,0.027 -0.501,0.158c-0.118,0.042 -0.235,0.084 -0.353,0.125c-0.029,-0.008 -0.001,-0.027 -0.044,-0.039c-0.013,-0.004 -0,0 -0.165,-0.037l-0.063,-0.046c-0.167,-0.228 -0.231,-0.268 -0.434,-0.069c-0.027,-0.014 0.002,-0.074 -0.025,-0.087c-0.165,-0.082 -0.231,0.374 -0.236,0.411c-0.033,-0.021 -0.118,0.059 -0.262,-0.316c-0.002,-0.034 -0.005,-0.067 -0.007,-0.101c-0.029,-0.064 -0.058,-0.129 -0.088,-0.193c0.407,-0.02 0.376,-0.104 0.736,-0.288c0.224,-0.114 0.4,0.251 0.54,-0.016c0.098,-0.187 0.085,-0.181 0.241,-0.334c-0.054,-0.017 -0.045,-0.122 -0.099,-0.138c-0.195,-0.06 -0.183,0.048 -0.391,0.036c0.157,-0.419 0.164,-0.435 0.181,-0.472Z" style="fill:#a77448;fill-opacity:1;"/><path d="M18.606,3.652l0.084,0.028c0.193,0.094 0.178,0.104 0.39,0.156c0.505,0.116 0.61,-0.008 1.135,0.309c-0.268,0.154 -0.258,0.187 -0.567,0.179c-0.115,-0.003 -0.066,0.049 -0.084,0.176c-0.203,-0.088 -0.201,-0.091 -0.41,-0.037c-0.054,-0.014 -0.554,-0.144 -0.672,-0.195c-0.121,-0.053 -0.102,0.011 -0.275,0.208c-0.229,-0.076 -0.221,-0.048 -0.464,0.002c-0.216,-0.157 -0.203,-0.152 -0.382,-0.338c0.219,-0.255 0.238,-0.22 0.557,-0.295c0.357,-0.099 0.393,0.025 0.688,-0.195Z" style="fill:#e3b36c;fill-opacity:0.99;"/><path d="M3.397,5.467c0.036,0.041 0.222,0.25 0.526,0.427c-0.047,0.043 -0.094,0.087 -0.14,0.13c0.258,0.244 0.647,0.142 0.383,0.385c-0.022,0.021 -0.022,0.018 -0.292,0.242c-0.79,-0.271 -0.954,0.125 -1.568,-0.264c-0.523,-0.331 0.156,-0.243 0.642,-0.623c0.224,-0.028 0.232,-0.014 0.37,-0.196l0.079,-0.101Z" style="fill:#b58452;fill-opacity:0.96;"/><path d="M16.34,3.556l0.054,0.06l0.033,0.042c0.848,0.151 1.06,0.022 1.138,-0.025l0.24,0.085c0.038,0.043 0.076,0.086 0.114,0.129c-0.318,0.075 -0.338,0.04 -0.557,0.295c-0.037,0.075 -0.073,0.149 -0.11,0.224c-0.073,-0.031 -0.053,-0.072 -0.466,-0.186c-0.613,-0.111 -0.764,-0.168 -1.249,0.227c-0.137,0.15 -0.135,0.14 -0.266,0.304l-0.056,0.037c-0.747,-0.487 0.162,-0.504 0.186,-0.558c0.134,-0.299 0.142,-0.28 0.351,-0.546c0.224,-0.04 0.541,-0.081 0.588,-0.088Z" style="fill:#7c523a;fill-opacity:1;"/><path d="M22.023,4.613c0.172,0.09 0.17,0.092 0.186,0.097c0.553,0.149 0.533,0.179 1.064,0.37c0.028,0.033 0.055,0.067 0.083,0.1c-0.029,0.785 -0.436,0.78 -0.66,0.895c-0.18,-0.098 -0.171,-0.127 -0.298,-0.117c-0.068,-0.205 0.086,-0.26 -0.092,-0.395c-0.046,-0.035 -0.427,-0.52 -0.463,-0.567l-0.024,-0.092c0.187,-0.27 0.185,-0.269 0.205,-0.291Z" style="fill:#ecc07b;fill-opacity:0.98;"/><path d="M13.559,0.435l0.069,-0.021c0.262,0.361 0.333,0.133 0.425,0.115c0.026,-0.005 0.012,0.075 0.038,0.07c-0.19,0.424 -0.197,0.655 0.255,0.573l0.09,0.022c0.042,0.054 0.19,0.287 0.34,0.419c0.228,0.202 -0.326,0.315 -0.454,0.29c-0.507,-0.1 -0.521,-0.112 -0.955,0.161c-0.007,-0.054 -0.014,-0.108 -0.021,-0.162c-0.001,-0.266 -0.07,-0.25 -0.047,-0.511c0.003,-0.038 0.07,-0.058 0.063,-0.095c-0.01,-0.054 -0.095,-0.075 -0.105,-0.129c0.109,-0.321 0.112,-0.318 0.115,-0.353c0.068,-0.01 0.233,0.063 0.188,-0.38Z" style="fill:#b07b4a;fill-opacity:0.99;"/><path d="M4.743,4.907c0.122,0.009 0.243,0.019 0.365,0.028c0.132,0.045 0.264,0.09 0.396,0.135c-0.2,0.108 -0.334,0.112 -0.184,0.28c0.108,0.12 0.128,-0.009 0.278,0.012c0.052,0.026 0.104,0.052 0.156,0.078c0.031,-0.029 0.062,-0.058 0.094,-0.087c0.005,0.054 0.106,0.066 0.112,0.12c0.004,0.045 -0.336,0.313 -0.669,0.311c-0.056,-0.027 -0.111,-0.053 -0.167,-0.08c-0.359,-0.162 -0.392,-0.354 -0.674,-0.091c-0.059,-0.007 -0.118,-0.014 -0.177,-0.02c-0.015,-0.017 -0.194,-0.215 -0.194,-0.215c-0.018,0.005 -0.005,0.016 -0.061,0.221c-0.002,0.025 -0.02,0.012 -0.094,0.295c-0.304,-0.177 -0.49,-0.387 -0.526,-0.427c0.096,-0.066 0.632,-0.437 1.346,-0.56Z" style="fill:#eabb74;fill-opacity:0.99;"/><path d="M21.93,2.7c0.536,-0.271 2.09,1.115 1.039,1.08c-0.068,-0.002 -0.533,0.503 -0.576,0.55c-0.229,0.249 0.302,0.157 0.47,0.397c0.156,0.222 0.36,-0.116 0.481,-0.097c0.308,0.049 0.069,0.174 -0.07,0.45c-0.532,-0.191 -0.511,-0.222 -1.064,-0.37c-0.016,-0.004 -0.014,-0.007 -0.186,-0.097c-0.174,-0.258 -0.081,-0.379 -0.065,-0.447c0.064,-0.048 0.463,-0.343 0.755,-0.656c0.363,-0.506 -0.194,-0.347 -0.783,-0.81Z" style="fill:#d4a76b;fill-opacity:0.05;"/><path d="M8.161,3.49c0.193,0.013 0.18,0.026 0.371,0.097c0.025,0.593 0.573,0.15 0.869,0.459c0,0.063 0.001,0.126 0.001,0.189c-0.067,0.04 -0.135,0.08 -0.202,0.12l-0.09,-0.035c-0.062,-0.021 -0.124,-0.043 -0.186,-0.064c-0.225,-0.103 -0.213,-0.129 -0.464,-0.126c-0.106,-0.031 -0.1,-0.123 -0.876,-0.04c-0.436,0.076 -0.446,0.166 -0.858,-0.013c-0.277,-0.17 -0.338,-0.162 -0.37,-0.157c-0.159,0.022 -0.188,0.009 -0.191,-0.157c0.04,-0.025 0.079,-0.05 0.119,-0.075c0.059,-0.021 0.119,-0.041 0.178,-0.062c0.286,0.022 0.278,0.016 0.562,-0.032c0.525,0.481 0.578,-0.006 0.848,-0.007c0.015,-0 -0.037,0.043 0.107,0.154c0.17,0.13 0.112,-0.047 0.182,-0.249Z" style="fill:#deaf6c;fill-opacity:1;"/><path d="M15.536,4.406c0.334,0.227 0.361,0.165 0.688,0.405c0.112,0.183 0.102,0.178 0.192,0.3c0.127,0.003 0.254,0.006 0.38,0.009c0.267,0.169 0.264,0.17 0.288,0.182c0.047,0.024 0.048,-0.016 0.09,0.005c-0.58,0.346 -0.564,0.366 -0.952,0.926c-0.215,-0.223 -0.228,-0.203 -0.367,-0.473c0.03,0.003 0.374,0.038 0.378,0.033c0,-0 -0.164,-0.239 -0.178,-0.26c0.432,-0.175 0.013,-0.216 -0.017,-0.231l-0.194,-0.014c-0.371,-0.186 -0.3,-0.26 -0.576,-0.578c0.131,-0.165 0.129,-0.154 0.266,-0.304Z" style="fill:#c28c54;fill-opacity:1;"/><path d="M20.215,4.146c0.858,-0.64 1.542,0.561 1.563,0.13c0.007,-0.138 -0.024,-0.17 0.05,-0.163c0.047,0.004 0.083,0.049 0.13,0.053c-0.016,0.068 -0.108,0.19 0.065,0.447c-0.02,0.022 -0.018,0.021 -0.205,0.291c-0.077,-0.072 -0.05,-0.157 -0.56,-0.18c-0.039,-0.066 -0.078,-0.132 -0.117,-0.199c-0.019,-0.036 -0.038,-0.072 -0.058,-0.108c-0.095,-0.072 -0.086,-0.063 -0.188,-0.112c-0.037,0.001 -0.074,0.001 -0.111,0.002c-0.809,0.024 0.083,0.198 0.101,0.199c-0.068,0.061 -0.136,0.122 -0.204,0.183c-0.06,0.208 -0.057,0.208 -0.065,0.225c-0.021,0.049 -0.106,0.047 -0.126,0.096l-0.049,-0.037c-0.08,-0.383 -0.092,-0.541 -0.442,-0.388c-0.262,0.003 -0.25,0.009 -0.272,0.009c-0.055,-0.031 -0.11,-0.062 -0.165,-0.093c0.018,-0.127 -0.031,-0.179 0.084,-0.176c0.308,0.008 0.299,-0.026 0.567,-0.179Z" style="fill:#eabd74;fill-opacity:0.98;"/><path d="M7.893,5.516c1.03,-0.143 2.074,0.129 2.204,0.531c-0.049,0.034 -0.402,0.279 -0.697,0.269c-0.403,-0.014 -0.443,-0.53 -0.502,-0.518c-0.052,0.01 -0.057,0.106 -0.108,0.116c-0.282,0.066 -0.27,0.064 -0.539,0.138c-0.06,-0.027 -0.12,-0.055 -0.18,-0.082c-0.031,-0.07 -0.073,-0.028 -0.106,-0.104c-0.011,-0.026 -0.008,-0.025 -0.11,-0.333l0.039,-0.016Z" style="fill:#ebbd77;fill-opacity:0.99;"/><path d="M12.042,2.431c0.155,0.048 0.131,0.091 0.292,0.09c0.202,-0.002 0.192,-0.008 0.387,-0.016c0.393,0.087 0.377,0.108 0.754,0.223c0.208,0.011 0.195,-0.097 0.391,-0.036c0.054,0.017 0.045,0.122 0.099,0.138c-0.156,0.153 -0.144,0.147 -0.241,0.334c-0.14,0.268 -0.316,-0.098 -0.54,0.016c-0.36,0.183 -0.329,0.267 -0.736,0.288l-0.055,-0.065c0.045,-0.033 0.011,-0.052 0.059,-0.088c0.013,-0.01 0.013,-0.007 0.181,-0.093c0.012,-0.013 0.48,-0.554 -0.099,-0.201c-0.244,-0.04 -0.238,-0.077 -0.484,-0.019c-0.018,0.004 -0.016,-0.006 -0.21,-0.08c0.172,-0.185 0.19,-0.178 0.185,-0.199c-0.03,-0.123 -0.132,-0.135 0.016,-0.29Z" style="fill:#e0ae69;fill-opacity:1;"/><path d="M11.731,3.293c0.072,0.028 0.033,0.135 0.226,0.088c0,0 0.401,0.019 0.436,0.021l0.055,0.065c0.029,0.064 0.058,0.129 0.088,0.193l0.007,0.101c0.144,0.375 0.229,0.295 0.262,0.316c0.017,0.002 0.009,0.013 0.204,0.067c0.157,0.38 -0.076,0.318 -0.42,0.546c-0.054,-0.172 -0.1,-0.164 -0.029,-0.33c0.258,-0.602 -0.45,0.17 -0.984,-0.214c-0.093,-0.184 -0.098,-0.185 -0.026,-0.38c0.029,-0.056 0.058,-0.112 0.087,-0.169c0.034,-0.162 0.032,-0.154 0.093,-0.303Z" style="fill:#a0704a;fill-opacity:1;"/><path d="M10.53,0.705c0.369,0.007 0.384,-0.033 0.682,0.185c-0.204,0.475 -0.09,0.535 0.274,0.87c0.028,0.038 0.056,0.076 0.084,0.114c-0.009,0.215 -0.187,0.298 0.024,0.346c0.151,0.035 0.127,0.059 0.257,0.119c-0.03,0.019 -0.013,0.025 -0.349,0.278c-0.04,-0.11 -0.038,-0.104 -0.145,-0.137c-0.126,-0.363 -0.338,-0.187 -0.503,-0.531c-0.113,-0.235 -0.109,-0.227 -0.243,-0.443c0.171,-0.123 0.158,-0.12 0.29,-0.285c-0.002,-0.003 0.11,-0.159 -0.085,-0.115c-0.052,0.012 -0.045,-0.007 -0.096,0.004c-0.175,-0.132 -0.17,-0.143 -0.189,-0.143c-0.052,-0 -0.056,0.099 -0.106,0.114c-0.032,0.01 -0.061,-0.03 -0.084,-0.054c-0.044,-0.045 -0.071,-0.105 -0.115,-0.15c0.101,-0.058 0.201,-0.115 0.302,-0.173Z" style="fill:#d5a05d;fill-opacity:0.98;"/><path d="M15.373,2.908c0.15,0.162 0.062,0.295 0.286,0.283c0.024,-0.001 0.266,0.019 0.289,0.021l0.095,-0.033c0.081,0.08 0.161,0.159 0.242,0.239l0.054,0.138c-0.047,0.006 -0.364,0.048 -0.588,0.088c-0.142,0.02 -0.158,-0.035 -0.406,0.084c-0.37,-0.005 -0.375,0.067 -0.718,-0.068c-0.019,-0.015 -0.015,-0.015 -0.214,-0.205l0.038,-0.045c0.444,-0.315 0.394,-0.404 0.922,-0.501Z" style="fill:#af7a4b;fill-opacity:0.99;"/><path d="M8.07,5.968c0.06,0.027 0.12,0.055 0.18,0.082c0.062,0.19 0.028,0.182 0.019,0.38c-0.031,0.243 -0.004,0.232 0.022,0.454c0.003,0.026 0.039,0.323 0.039,0.323c0.054,0.032 0.071,-0.171 0.124,-0.139c0.386,0.009 0.393,0.101 0.747,-0.085c0.019,0.038 0.097,0.188 0.382,0.367c-0.661,0.123 -0.656,0.21 -1.318,0.081c-0.12,-0.289 -0.123,-0.28 -0.132,-0.304c-0.114,-0.111 -0.269,-0.424 -0.355,-0.404c-0.293,0.07 -0.251,-0.068 -0.473,-0.262c0.061,-0.056 0.122,-0.112 0.183,-0.168c0.016,0.011 0.196,0.14 0.196,0.14c0.199,-0.041 0.246,0.039 0.348,-0.145c0.127,-0.23 -0.058,-0.212 -0.069,-0.253c0.035,-0.022 0.071,-0.044 0.106,-0.067Z" style="fill:#a8784d;fill-opacity:0.97;"/><path d="M4.477,3.023l0.083,-0.009c0.001,0.022 0.106,0.577 0.278,-0.008c0.339,0.238 0.368,0.183 0.568,0.38c-0.016,0.151 -0.02,0.14 -0.082,0.273c0.05,0.041 0.1,0.082 0.15,0.124c-0.052,0.092 -0.105,0.184 -0.157,0.276c-0.329,0.075 -0.596,0.006 -1.097,-0.523c0.005,-0.105 -0.211,-0.331 0.259,-0.514Z" style="fill:#d19d5a;fill-opacity:0.99;"/><path d="M13.067,3.753c0.203,-0.199 0.267,-0.159 0.434,0.069c-0.064,0.106 -0.583,0.464 0.033,0.649c0.213,0.154 0.232,0.183 0.132,0.434c-0.09,0.107 -0.089,0.094 -0.199,0.171c-0.132,-0.097 -0.094,-0.148 -0.345,-0.195c-0.072,-0.026 -0.144,-0.051 -0.216,-0.077c0.007,0.102 0.014,0.204 0.021,0.306c-0.01,0.05 -0.02,0.1 -0.03,0.15c-0.31,-0.107 -0.294,-0.11 -0.569,-0.267c0.236,-0.303 0.244,-0.276 0.261,-0.303c0.344,-0.228 0.576,-0.165 0.42,-0.546c0.019,-0.13 0.039,-0.261 0.058,-0.391Z" style="fill:#e3b36f;fill-opacity:1;"/><path d="M12.07,6.083c0.31,0.052 0.619,0.104 0.929,0.155c0.205,0.073 0.195,0.069 0.385,0.184c-0.276,0.216 -0.262,0.23 -0.387,0.27c-0.09,0.037 -0.088,0.018 -0.172,0.054c-0.016,0.007 -0.015,0.007 -0.197,0.094c-0.346,0.046 -0.333,0.084 -0.759,0.027c0.051,-0.16 0.019,-0.401 0.014,-0.436c0.06,-0.193 0.045,-0.195 0.187,-0.348Z" style="fill:#dbaa67;fill-opacity:0.99;"/><path d="M3.506,2.617c0.573,-0.042 0.706,0.184 0.943,0.124c0.036,0.142 0.034,0.131 0.028,0.282c-0.47,0.183 -0.254,0.409 -0.259,0.514c-0.19,0.19 -0.163,0.273 -0.427,0.232c-0.431,-0.067 -0.439,0.213 -0.843,0.027c0.351,-0.158 0.505,-0.04 0.564,-0.486c0.194,-0.007 0.183,-0.022 0.369,-0.031c0.046,-0.08 0.042,-0.077 -0.018,-0.152c-0.039,-0.008 -0.028,-0.019 -0.069,-0.027c-0.022,-0.004 -0.021,-0.003 -0.28,-0.045l-0.041,-0.132c-0.007,-0.166 -0,-0.153 0.033,-0.306Z" style="fill:#9a6943;fill-opacity:0.99;"/><path d="M8.33,2.937c0.036,0.136 0.071,0.112 0.114,0.255c0.153,-0.068 0.305,-0.136 0.458,-0.203c0.25,0.102 0.261,0.088 0.489,-0.073c0.123,0.074 0.117,0.067 0.218,0.178c-0.033,0.153 -0.015,0.143 -0.051,0.296c-0.093,0.054 -0.067,0.083 -0.267,0.133c-0.432,0.107 -0.431,0.097 -0.76,0.064c-0.191,-0.071 -0.177,-0.083 -0.371,-0.097c-0.44,0.057 -0.292,-0.178 -0.293,-0.199c0.173,-0.213 0.154,-0.233 0.404,-0.33l0.059,-0.024Z" style="fill:#895f43;fill-opacity:1;"/><path d="M6.727,4.745c0.489,0.257 0.145,0.364 0.115,0.371l-0.089,0.011c-0.22,0.007 -0.213,0.019 -0.393,0.161c-0.052,0.558 -0.176,0.497 -0.183,0.498c-0.673,0.137 -0.735,0.226 -0.887,-0.001c0.333,0.002 0.674,-0.266 0.669,-0.311c-0.005,-0.054 -0.106,-0.066 -0.112,-0.12c0.182,-0.235 -0.032,-0.229 -0.061,-0.244c0.131,-0.091 0.262,-0.182 0.393,-0.273c0.385,-0.212 0.396,-0.137 0.547,-0.091Z" style="fill:#daa764;fill-opacity:1;"/><path d="M16.785,4.179c0.413,0.114 0.393,0.155 0.466,0.186c0.338,0.352 0.226,0.412 0.324,0.526c0.457,0.535 0.507,0.487 0.861,1.099l-0.119,0.046c-0.39,-0.522 -0.542,-0.315 -1.056,-0.735c0.006,-0.069 0.011,-0.138 0.017,-0.207c-0.001,-0.032 -0.002,-0.065 -0.003,-0.097c-0.068,-0.047 -0.135,-0.093 -0.203,-0.14c0.126,-0.124 0.185,-0.196 0.01,-0.233c-0.037,-0.008 -0.06,0.058 -0.098,0.057c-0.041,-0.001 -0.111,-0.002 -0.169,-0.487l-0.03,-0.016Z" style="fill:#e3b36b;fill-opacity:1;"/><path d="M18.98,5.737c0.593,0.153 0.585,0.144 0.85,0.226c0.311,0.265 0.351,1.077 -0.857,0.574c-0.029,-0.012 -0.434,-0.09 -0.471,-0.097c0.081,-0.059 0.117,-0.009 0.154,-0.112c0.01,-0.028 -0.013,-0.019 -0,-0.055c0.261,-0.193 0.303,-0.305 0.541,-0.084c0.154,0.143 0.147,0.184 0.354,0.139c0.024,-0.003 0.284,-0.038 0.284,-0.097c0,0 -0.197,-0.079 -0.214,-0.086c-0.042,-0.009 -0.492,-0.108 -0.522,-0.136c-0.067,-0.063 -0.113,-0.25 -0.118,-0.273Z" style="fill:#cc9c5f;fill-opacity:0.97;"/><path d="M10.162,6.393c0.174,0.384 0.773,0.189 0.466,0.477c-0.152,0.142 -0.153,0.139 -0.177,0.345c-0.425,0.137 -0.425,0.098 -0.867,0.135c-0.285,-0.179 -0.362,-0.33 -0.382,-0.367c0.713,-0.22 0.629,-0.353 0.669,-0.485c0.183,-0.105 0.181,-0.106 0.198,-0.114c0.05,-0.023 0.05,0.029 0.093,0.009Z" style="fill:#eabb73;fill-opacity:0.99;"/><path d="M2.467,4.999c0.065,0.03 0.13,0.059 0.194,0.089c0.185,0.173 0.129,0.282 0.379,0.261c0.173,-0.015 0.136,0.047 0.277,0.22c-0.138,0.182 -0.146,0.168 -0.37,0.196c-0.149,-0.689 -1.786,0.054 -1.805,-0.291c-0.003,-0.059 0.034,-0.046 1.324,-0.475Z" style="fill:#b88855;fill-opacity:0.64;"/><path d="M13.256,1.168c0.01,0.054 0.095,0.075 0.105,0.129c0.007,0.037 -0.06,0.057 -0.063,0.095c-0.023,0.261 0.047,0.245 0.047,0.511c-0.115,-0.004 -0.236,0.049 -0.255,0.057c-0.498,-0.414 -0.175,0.161 -0.162,0.175c0.062,0.096 0.019,0.092 -0.04,0.187c-0.084,0.031 -0.169,0.062 -0.253,0.093c-0.104,-0.051 -0.4,-0.255 -0.434,-0.279l0.142,-0.116c0.11,-0.007 0.476,0.019 0.174,-0.231c-0.018,-0.015 -0.014,-0.017 -0.191,-0.231c0.292,-0.13 0.279,-0.143 0.59,-0.234c0.1,-0.029 0.313,-0.142 0.34,-0.156Z" style="fill:#cb975a;fill-opacity:0.99;"/><path d="M4.449,2.741c0.033,-0.001 0.214,0.035 0.323,-0.086c0.103,-0.114 0.104,-0.011 0.274,0.158c0.156,0.142 0.152,0.132 0.348,0.212c0.269,0.145 0.29,0.313 0.504,0.105c0.317,-0.307 0.675,-0.21 0.733,-0.194c0.009,0.049 0.018,0.098 0.027,0.147c0.009,0.065 0.018,0.13 0.027,0.194c-0.077,0.011 -0.154,0.022 -0.23,0.034c-0.301,0.003 -0.307,0.003 -0.517,0.208c-0.244,-0.084 -0.489,-0.126 -0.533,-0.133c-0.2,-0.198 -0.229,-0.143 -0.568,-0.38c-0.226,0.002 -0.22,-0.002 -0.278,0.008l-0.083,0.009c0.006,-0.151 0.008,-0.14 -0.028,-0.282Z" style="fill:#a37047;fill-opacity:1;"/><path d="M10.631,6.076c0.634,-0.038 0.646,0.624 0.647,0.701c-0.424,0.212 -0.359,0.33 -0.827,0.438c0.024,-0.206 0.026,-0.203 0.177,-0.345c0.306,-0.288 -0.292,-0.093 -0.466,-0.477c0.268,-0.119 0.248,-0.135 0.469,-0.317Z" style="fill:#e1b069;fill-opacity:0.99;"/><path d="M14.603,0.195c0.228,0.039 0.303,-0.157 0.397,0.05c0.004,0.009 0.028,0.063 0.102,0.078c0.082,0.129 0.079,0.125 0.21,0.188c0.029,0.035 0.058,0.071 0.087,0.106c0.037,0.056 0.075,0.111 0.112,0.167c-0.189,0.158 -0.229,0.286 -0.38,0.088c-0.078,-0.047 -0.157,-0.093 -0.235,-0.14c-0.299,-0.217 -0.493,-0.433 -0.457,-0.1c0.006,0.054 -0.029,0.191 -0.347,-0.032c-0.026,0.005 -0.012,-0.075 -0.038,-0.07c-0.092,0.018 -0.163,0.246 -0.425,-0.115c0.098,-0.041 0.093,-0.148 0.975,-0.219Z" style="fill:#eabe7a;fill-opacity:0.92;"/><path d="M2.921,1.845c0.112,0.075 0.105,0.074 0.147,0.192c0.018,0.122 0.023,0.112 0.166,0.58c-0.072,0.525 0.022,0.632 0.044,0.776c-0.233,0.122 -0.236,0.021 -0.491,-0.041c-0.04,-0.005 -0.256,-0.035 -0.45,-0.238l-0.071,-0.101c0.07,-0.046 0.356,-0.269 0.386,-0.293c0.144,0.285 0.244,0.18 0.261,0.162c0.2,-0.211 0.031,-0.229 -0.154,-0.535c0.033,-0.124 0.067,-0.248 0.1,-0.372c0.02,-0.043 0.041,-0.086 0.061,-0.13Z" style="fill:#996843;fill-opacity:0.99;"/><path d="M20.443,4.973l0.049,0.037c0.813,0.608 0.856,0.527 1.139,0.666c0.035,0.017 -0.028,0.067 0.288,0.396c-0.062,0.009 -0.123,0.017 -0.185,0.026c-0.159,-0.017 -0.317,-0.035 -0.476,-0.052c-0.048,-0.025 -0.047,-0.106 -0.094,-0.131c-0.145,-0.076 -0.151,-0.028 -0.303,-0.112c-0.18,-0.1 -0.151,-0.124 -0.196,-0.316c-0,-0.002 -1.077,-0.484 -0.222,-0.514Z" style="fill:#af7c4d;fill-opacity:0.98;"/><path d="M6.905,5.999c0.179,0.13 0.183,0.117 0.394,0.058c0.04,-0.011 0.177,0.215 0.189,0.236c-0.061,0.056 -0.122,0.112 -0.183,0.168c-0.371,0.027 -0.416,-0.043 -0.65,0.251c-0.097,0.085 -0.052,0.182 -0.29,0.158c-0.039,-0.025 -0.567,-0.364 -0.202,-0.547c0.369,-0.185 0.328,-0.26 0.742,-0.324Z" style="fill:#d7a463;fill-opacity:0.99;"/><path d="M20.683,4.689c0.163,0.15 0.166,0.136 0.207,0.214c0.014,0.028 0.224,0.454 0.316,0.226c0.074,-0.183 0.18,0.271 0.337,0.295c0.513,0.08 0.385,0.313 0.855,0.533c0.127,-0.01 0.118,0.019 0.298,0.117c-0.291,0.073 -0.28,0.075 -0.584,0.07c-0.065,-0.024 -0.129,-0.049 -0.194,-0.073c-0.316,-0.329 -0.253,-0.379 -0.288,-0.396c-0.283,-0.139 -0.327,-0.058 -1.139,-0.666c0.021,-0.049 0.106,-0.047 0.126,-0.096c0.007,-0.017 0.005,-0.017 0.065,-0.225Z" style="fill:#cd9858;fill-opacity:0.97;"/><path d="M8.269,6.431c0.277,0.026 0.268,0.034 0.344,0.019c0.544,0.387 0.596,0.101 1.257,0.049c-0.041,0.132 0.044,0.265 -0.669,0.485c-0.354,0.186 -0.361,0.095 -0.747,0.085c-0.089,-0.088 -0.081,-0.08 -0.164,-0.184c-0.025,-0.222 -0.053,-0.211 -0.022,-0.454Z" style="fill:#f0c683;fill-opacity:0.99;"/><path d="M8.459,4.13c0.251,-0.004 0.239,0.023 0.464,0.126c-0.152,0.203 -0.339,0.268 -0.094,0.36c0.199,0.075 0.165,0.114 0.258,0.197c-0.365,0.256 -0.432,0.006 -0.834,0.176c-0.456,-0.019 -0.57,-0.189 -0.28,-0.539c0.455,-0.005 0.415,-0.117 0.486,-0.32Z" style="fill:#e1b06b;fill-opacity:0.99;"/><path d="M7.116,2.909c0.485,0.325 0.505,0.356 0.535,0.401c0.578,0.883 -0.253,0.029 -0.267,0.013c-0.141,-0.154 -0.341,0.242 -0.361,0.271c-0.284,0.049 -0.276,0.055 -0.562,0.032c-0.246,-0.247 -0.273,-0.072 -0.271,-0.05c0.003,0.049 0.09,0.064 0.093,0.112c-0.04,0.025 -0.079,0.05 -0.119,0.075c-0.086,-0.024 -0.171,-0.048 -0.257,-0.073c0.01,-0.057 0.02,-0.113 0.031,-0.17c0.21,-0.204 0.216,-0.205 0.517,-0.208c0.122,0.051 0.13,0.062 0.23,-0.034c-0.009,-0.065 -0.018,-0.13 -0.027,-0.194c0.266,0.109 0.28,0.048 0.458,-0.175Z" style="fill:#a6744a;fill-opacity:1;"/><path d="M18.207,4.477c0.173,-0.197 0.155,-0.261 0.275,-0.208c0.117,0.051 0.617,0.181 0.672,0.195c0.005,0.433 0.217,0.388 0.575,0.13c0.022,0 0.01,-0.006 0.272,-0.009c-0.132,0.285 -0.147,0.298 -0.452,0.316c-0.022,0.005 -0.278,0.064 -0.278,0.064c-0.754,-0.12 -1.003,-0.417 -1.063,-0.488Z" style="fill:#cc9657;fill-opacity:0.99;"/><path d="M13.423,5.564l0.08,0.078c0.087,0.233 0.148,0.213 0.358,0.1c0.273,0.215 0.266,0.212 0.568,0.388c-0.241,0.201 -0.263,0.165 -0.572,0.079c-0.176,-0.049 -0.441,0.186 -0.472,0.214c-0.19,-0.115 -0.18,-0.111 -0.385,-0.184c0.163,-0.195 0.184,-0.179 0.202,-0.29c0.037,-0.23 0.065,-0.213 0.223,-0.385Z" style="fill:#a27048;fill-opacity:1;"/><path d="M21.451,2.73c0.132,-0.016 0.263,-0.033 0.395,-0.049c0.028,0.007 0.056,0.013 0.084,0.02c0.589,0.462 1.146,0.303 0.783,0.81c-0.073,-0.045 -0.145,-0.091 -0.218,-0.136c-0.731,-0.035 -0.675,-0.189 -1.151,-0.601l0.106,-0.043Z" style="fill:#e8ba6f;fill-opacity:0.97;"/><path d="M5.51,1.388c0.023,0.032 -0.007,0.032 0.025,0.074c0.096,0.13 0.166,-0.007 0.167,-0.007c0.474,0.257 0.499,0.135 1.036,0.179c0.095,0.329 -0.043,0.34 -0.379,0.306c-0.135,-0.014 -0.315,0.109 -0.412,-0.036c-0.131,-0.196 -0.181,-0.151 -0.37,-0.005c-0.323,-0.06 -0.274,0.091 -0.254,0.429c-0.279,-0.238 -0.366,-0.368 0.186,-0.94Z" style="fill:#e1b470;fill-opacity:0.95;"/><path d="M16.461,2.299c0.061,0.136 0.142,0.253 0.156,0.274c-0.093,0.086 -0.278,0.131 -0.031,0.279c0.155,0.164 -0.133,0.146 -0.11,0.364c0.002,0.022 -0.014,0.015 -0.19,0.202c-0.081,-0.08 -0.161,-0.159 -0.242,-0.239l-0.024,-0.046c0,-0.368 -0.302,-0.178 -0.445,-0.524c0.637,-0.38 0.693,-0.104 0.742,-0.139c0.061,-0.043 0.083,-0.128 0.144,-0.171Z" style="fill:#e0ac65;fill-opacity:0.99;"/><path d="M21.072,4.621c0.062,0.035 0.125,0.069 0.187,0.104c-0.052,0.149 -0.104,0.169 -0.024,0.195c0.342,0.108 0.381,0.344 0.608,0.077c0.036,0.046 0.417,0.532 0.463,0.567c0.178,0.135 0.024,0.191 0.092,0.395c-0.47,-0.22 -0.342,-0.453 -0.855,-0.533c-0.157,-0.024 -0.264,-0.479 -0.337,-0.295c-0.092,0.228 -0.302,-0.198 -0.316,-0.226c0.077,-0.175 0.075,-0.175 0.083,-0.189c0.038,-0.065 0.062,-0.031 0.098,-0.094Z" style="fill:#e4b066;fill-opacity:0.99;"/><path d="M8.789,5.913c0.052,-0.01 0.057,-0.106 0.108,-0.116c0.06,-0.012 0.099,0.505 0.502,0.518c0.294,0.01 0.647,-0.235 0.697,-0.269c0.021,0.18 -0.003,0.174 0.065,0.347c-0.043,0.02 -0.043,-0.032 -0.093,-0.009c-0.017,0.008 -0.015,0.008 -0.198,0.114c-0.661,0.052 -0.714,0.339 -1.257,-0.049c0.014,-0.027 0.172,-0.341 0.172,-0.341c0.051,-0.091 0.002,-0.091 0.004,-0.196Z" style="fill:#c28b51;fill-opacity:1;"/><path d="M7.306,6.461c0.221,0.194 0.179,0.332 0.473,0.262c0.086,-0.02 0.241,0.293 0.355,0.404c-0.524,0.067 -0.516,0.109 -1.028,-0.005c0.01,-0.039 0.354,-0.233 -0.17,-0.353c-0.14,-0.032 -0.13,-0.025 -0.28,-0.057c0.235,-0.294 0.28,-0.224 0.65,-0.251Z" style="fill:#895f43;fill-opacity:0.97;"/><path d="M6.165,7.093c0.301,0.029 0.29,-0.006 0.474,-0.026c0.242,0.004 0.227,0.013 0.467,0.055c0.512,0.114 0.503,0.072 1.028,0.005c0.009,0.025 0.012,0.015 0.132,0.304l-0.092,-0.007c-0.034,0.006 -0.069,0.012 -0.103,0.018c-0.999,-0.004 -1.051,0.169 -1.905,-0.35Z" style="fill:#9c714b;fill-opacity:0.43;"/><path d="M17.363,1.747c0.033,0.067 0.066,0.133 0.098,0.2c-0.444,0.173 -0.512,0.095 -0.733,0.506c-0.037,0.04 -0.074,0.08 -0.112,0.12c-0.014,-0.021 -0.096,-0.137 -0.156,-0.274c-0.167,-0.054 -0.162,-0.028 -0.63,-0.018c0.214,-0.374 0.308,-0.243 0.708,-0.429c0.061,0.019 0.122,0.039 0.182,0.058c0.073,-0.049 0.246,-0.059 0.268,-0.06c0.358,-0.022 0.329,-0.083 0.375,-0.103Z" style="fill:#dba965;fill-opacity:0.93;"/><path d="M3.986,6.693c1.035,0.093 1.274,-0.17 1.71,0.284c-0.18,-0 -0.156,0.038 -0.288,0.144c-0.037,0.03 -0.525,-0.024 -0.571,-0.029c-0.213,-0.023 -0.178,-0.176 -0.378,-0.114c-0.3,0.093 -0.261,-0.058 -0.472,-0.285Z" style="fill:#a3764b;fill-opacity:0.5;"/><path d="M8.109,1.194c0.516,0.131 0.375,0.317 0.727,0.605c-0.215,0.11 -0.221,0.047 -0.385,0.085c-0.153,0.035 -0.111,0.079 -0.2,0.273c-0.199,-0.259 -0.424,-0.192 -0.288,-0.48c-0.001,-0.096 -0.001,-0.192 -0.002,-0.287c0.049,-0.065 0.099,-0.131 0.148,-0.196Z" style="fill:#e0ae67;fill-opacity:0.99;"/><path d="M16.728,2.453c0.047,-0.012 0.694,-0.173 0.586,0.173c-0.041,0.133 0.227,0.03 0.245,0.023c0.075,-0.029 0.763,-0.073 0.185,0.238c-0.293,0.07 -0.262,0.171 -0.565,0.167c-0.193,-0.311 -0.243,-0.441 -0.595,-0.202c-0.247,-0.147 -0.062,-0.193 0.031,-0.279c0.037,-0.04 0.074,-0.08 0.112,-0.12Z" style="fill:#f3ca83;fill-opacity:1;"/><path d="M7.854,5.532c0.102,0.308 0.099,0.307 0.11,0.333c0.033,0.076 0.075,0.034 0.106,0.104c-0.035,0.022 -0.071,0.044 -0.106,0.067c-0.258,0.096 -0.25,0.082 -0.474,0.258c-0.013,-0.021 -0.149,-0.247 -0.189,-0.236c-0.211,0.059 -0.216,0.072 -0.394,-0.058c0.522,-0.414 0.864,-0.457 0.948,-0.468Z" style="fill:#e1b06b;fill-opacity:1;"/><path d="M16.785,4.179l0.03,0.016c-0.098,0.245 -0.103,0.4 -0.302,0.232c-0.156,-0.132 -0.107,0.044 -0.128,0.054c-0.1,0.167 -0.098,0.154 -0.16,0.33c-0.327,-0.24 -0.354,-0.178 -0.688,-0.405c0.485,-0.395 0.635,-0.338 1.249,-0.227Z" style="fill:#edbe72;fill-opacity:1;"/><path d="M5.907,3.69c0.086,0.024 0.171,0.048 0.257,0.073c0.002,0.166 0.031,0.179 0.191,0.157c0.032,-0.004 0.093,-0.013 0.37,0.157c-0.216,0.129 -0.241,0.281 -0.389,0.09c-0.199,-0.255 -0.234,0.039 -0.549,0.076c-0.207,0.024 -0.19,0.079 -0.269,0.075c-0.026,-0.001 -0.015,-0.019 -0.203,-0.258c0.052,-0.092 0.105,-0.184 0.157,-0.276c0.246,0.036 0.284,0.102 0.435,-0.093Z" style="fill:#b4814f;fill-opacity:1;"/><path d="M15.215,4.747l0.056,-0.037c0.276,0.319 0.205,0.392 0.576,0.578c0.101,0.03 0.089,0.041 0.194,0.014c0.03,0.014 0.449,0.055 0.017,0.231l-0.183,-0.003c-0.62,-0.07 -0.575,-0.226 -1.266,-0.317c0.109,-0.065 0.267,-0.113 0.291,-0.12c0.24,-0.073 0.184,-0.144 0.261,-0.205c0.018,-0.047 0.036,-0.094 0.055,-0.142Z" style="fill:#9c6944;fill-opacity:1;"/><path d="M11.562,2.918c0.014,-0.025 0.117,-0.57 0.279,0.003c0.195,0.074 0.193,0.084 0.21,0.08c0.247,-0.058 0.24,-0.021 0.484,0.019c0.033,0.067 0.066,0.134 0.099,0.201c-0.168,0.086 -0.168,0.083 -0.181,0.093c-0.048,0.036 -0.014,0.055 -0.059,0.088c-0.035,-0.002 -0.436,-0.021 -0.436,-0.021c-0.193,0.047 -0.154,-0.06 -0.226,-0.088c0.011,-0.225 -0.022,-0.212 -0.169,-0.376Z" style="fill:#b48150;fill-opacity:1;"/><path d="M14.899,2.436c0.128,0.19 0.126,0.23 0.359,0.179c0.175,0.129 0.311,0.184 0.116,0.293c-0.528,0.097 -0.478,0.186 -0.922,0.501c-0.003,-0.003 -0,0 -0.169,-0.186c0.007,-0.004 0.158,0.052 0.233,-0.125c0.077,-0.18 0.069,-0.171 0.146,-0.361c0.112,-0.165 0.098,-0.166 0.238,-0.301Z" style="fill:#e1af67;fill-opacity:1;"/><path d="M9.088,4.813c0.566,0.335 0.527,0.598 0.403,0.577c-0.658,-0.109 -0.673,-0.06 -1.237,-0.401c0.402,-0.17 0.469,0.08 0.834,-0.176Z" style="fill:#c59156;fill-opacity:0.99;"/><path d="M11.978,1.452c0.155,0.115 0.153,0.128 0.349,0.105c0.177,0.214 0.172,0.216 0.191,0.231c0.302,0.25 -0.064,0.224 -0.174,0.231c-0.121,-0.103 -0.067,-0.258 -0.203,-0.162c-0.146,0.102 -0.129,0.229 -0.354,0.118c-0.049,-0.022 -0.098,-0.044 -0.147,-0.065c-0.051,-0.051 -0.102,-0.101 -0.153,-0.152c0.156,-0.158 0.132,-0.217 0.28,-0.194c0.202,0.03 0.15,-0.08 0.211,-0.112Z" style="fill:#cd9a5d;fill-opacity:0.98;"/><path d="M4.464,1.014c0.016,0.026 -0.044,0.062 -0.028,0.088c0.039,0.062 0.369,0.249 0.402,0.268c-0.218,0.109 -0.217,0.107 -0.235,0.117c-0.046,0.026 0.003,0.061 -0.04,0.085c-0.174,0.067 -0.211,0.033 -0.266,0.216c-0.045,0.025 -0.089,0.049 -0.134,0.074c-0.021,0.031 -0.043,0.063 -0.064,0.094c0.048,0.283 -0.024,0.27 -0.026,0.286c-0.063,0.05 -0.035,0.073 -0.102,0.082c-0.097,0.013 -0.067,-0.036 -0.144,-0.077c-0.017,-0.238 0.004,-0.231 0.094,-0.448c0.179,-0.202 0.168,-0.19 0.352,-0.394c0.084,-0.088 0.082,-0.081 0.105,-0.2c0.029,-0.064 0.057,-0.127 0.086,-0.191Z" style="fill:#d29d5a;fill-opacity:0.96;"/><path d="M4.297,1.788c0.02,0.059 0.04,0.118 0.06,0.177c0.186,0.154 0.265,0.187 0.348,-0.039c0.228,0.222 0.357,0.41 0.384,0.449c-0.136,0.008 -0.132,-0.004 -0.25,0.067c-0.256,-0.047 -0.247,-0.012 -0.474,0.096c-0.03,0.014 -0.131,0.062 -0.292,-0.297c0.003,-0.016 0.074,-0.003 0.026,-0.286l0.064,-0.094c0.045,-0.025 0.089,-0.049 0.134,-0.074Z" style="fill:#deab63;fill-opacity:0.99;"/><path d="M4.646,4.162c0.023,0.029 0.046,0.058 0.069,0.087c-0.074,0.118 -0.096,0.088 -0.895,0.404c-0.376,-0.119 -0.379,-0.108 -0.406,-0.129c-0.014,-0.01 0.147,-0.013 0.004,-0.216c0.514,-0.156 1.129,-0.148 1.228,-0.147Z" style="fill:#c08d54;fill-opacity:0.99;"/><path d="M11.213,0.889c0.027,0.006 0.165,0.04 0.285,0.191c0.097,0.066 0.194,0.132 0.291,0.198c0.04,0.04 0.038,0.033 0.167,0.116l0.022,0.058c-0.061,0.032 -0.009,0.143 -0.211,0.112c-0.148,-0.022 -0.124,0.036 -0.28,0.194c-0.364,-0.334 -0.478,-0.395 -0.274,-0.87Z" style="fill:#eabd76;fill-opacity:0.94;"/><path d="M14.091,0.599c0.318,0.222 0.353,0.086 0.347,0.032c-0.036,-0.333 0.158,-0.117 0.457,0.1c-0.007,0.009 -0.004,0.089 -0.253,0.211c-0.124,0.119 -0.117,0.106 -0.206,0.253c-0.127,-0.118 -0.059,-0.307 -0.201,-0.186c-0.05,0.043 0.162,0.121 0.111,0.164c-0.453,0.082 -0.445,-0.149 -0.255,-0.573Z" style="fill:#ce9655;fill-opacity:0.99;"/><path d="M10.058,0.917c0.057,-0.013 0.114,-0.026 0.171,-0.04c0.044,0.045 0.071,0.105 0.115,0.15c0.023,0.024 0.052,0.064 0.084,0.054c0.049,-0.016 0.054,-0.115 0.106,-0.114c0.019,0 0.014,0.011 0.189,0.143c0.06,0.037 0.12,0.074 0.181,0.111c-0.131,0.165 -0.119,0.162 -0.29,0.285c-0.211,0.015 -0.251,0.247 -0.349,0.052c-0.075,-0.149 -0.065,-0.167 -0.232,-0.178c0.02,-0.19 0.035,-0.179 0.005,-0.377l0.02,-0.085Z" style="fill:#cf9a5a;fill-opacity:0.99;"/><path d="M12.328,4.993c0.275,0.157 0.259,0.159 0.569,0.267c0.155,-0.017 0.143,-0.022 0.271,-0.102c-0.005,0.075 0.11,0.364 -0.459,0.669c-0.415,-0.544 -0.46,-0.675 -0.483,-0.741l0.103,-0.091Z" style="fill:#c48f56;fill-opacity:1;"/><path d="M16.987,3.294c0.031,0.017 0.189,0.102 0.416,0.159c0.064,0.109 0.058,0.101 0.064,0.109c0.041,0.049 0.055,0.021 0.096,0.071c-0.078,0.047 -0.289,0.176 -1.138,0.025l-0.033,-0.042c0.254,-0.252 0.232,-0.304 0.594,-0.322Z" style="fill:#bc8750;fill-opacity:1;"/><path d="M16.585,2.852c0.351,-0.239 0.401,-0.109 0.595,0.202c-0.108,0.116 -0.109,0.103 -0.192,0.24c-0.363,0.018 -0.341,0.07 -0.594,0.322l-0.054,-0.06l-0.054,-0.138c0.176,-0.187 0.192,-0.18 0.19,-0.202c-0.023,-0.218 0.265,-0.2 0.11,-0.364Z" style="fill:#e9b970;fill-opacity:1;"/><path d="M18.261,3.329c0.104,0.225 0.112,0.217 0.344,0.322c-0.295,0.22 -0.331,0.096 -0.688,0.195c-0.038,-0.043 -0.076,-0.086 -0.114,-0.129l-0.24,-0.085c-0.042,-0.05 -0.056,-0.022 -0.096,-0.071c-0.006,-0.008 0,0 -0.064,-0.109c0.043,-0.031 0.085,-0.061 0.128,-0.092c0.173,0.113 0.183,0.203 0.295,0.091c0.177,-0.176 0.19,-0.16 0.435,-0.123Z" style="fill:#d09c5b;fill-opacity:1;"/><path d="M15.16,4.889c-0.077,0.06 -0.021,0.132 -0.261,0.205c-0.024,0.007 -0.182,0.055 -0.291,0.12c-0.378,-0.088 -0.351,-0.182 -0.747,-0.194c0.044,-0.115 -0.031,-0.238 0.184,-0.191c0.129,0.029 0.426,-0.178 0.542,-0.005c0.183,0.275 0.247,0.115 0.573,0.065Z" style="fill:#956646;fill-opacity:1;"/><path d="M9.401,4.235c0.217,0.241 0.218,0.222 0.491,0.382c0.063,0.167 0.047,0.163 0.164,0.289c-0.072,0.125 -0.07,0.118 -0.187,0.182c-0.336,-0.112 -0.287,-0.166 -0.516,-0.431c-0.053,-0.169 -0.049,-0.159 -0.153,-0.301c0.067,-0.04 0.135,-0.08 0.202,-0.12Z" style="fill:#ce9c5d;fill-opacity:0.99;"/><path d="M18.98,5.737c0.006,0.023 0.051,0.211 0.118,0.273c0.03,0.028 0.479,0.127 0.522,0.136l-0.07,0.182c-0.207,0.045 -0.199,0.004 -0.354,-0.139c-0.239,-0.221 -0.28,-0.109 -0.541,0.084c-0.148,-0.155 -0.149,-0.132 -0.338,-0.237l0.119,-0.046c0.358,-0.223 0.497,-0.245 0.544,-0.253Z" style="fill:#d7a15e;fill-opacity:0.99;"/><path d="M3.701,1.491c0.12,0.15 0.111,0.138 0.12,0.15c0.06,0.08 0.043,0.081 0.1,0.157c-0.09,0.217 -0.111,0.21 -0.094,0.448c-0.168,0.193 -0.203,0.105 -0.404,-0.039c-0.234,-0.167 -0.034,-0.225 -0.035,-0.516c0.153,-0.006 0.194,0.037 0.313,-0.2Z" style="fill:#e3af65;fill-opacity:1;"/><path d="M11.787,1.977c0.224,0.111 0.208,-0.016 0.354,-0.118c0.136,-0.096 0.083,0.059 0.203,0.162l-0.142,0.116c-0.139,0.266 -0.135,0.267 -0.16,0.295c-0.149,0.155 -0.047,0.167 -0.016,0.29c0.005,0.021 -0.013,0.014 -0.185,0.199c-0.162,-0.573 -0.264,-0.029 -0.279,-0.003c-0.02,-0.1 -0.039,-0.201 -0.059,-0.301c0.335,-0.253 0.318,-0.259 0.349,-0.278c0.005,-0.059 0.105,-0.055 0.016,-0.191c-0.057,-0.087 -0.04,-0.085 -0.081,-0.171Z" style="fill:#d7a461;fill-opacity:0.99;"/><path d="M7.583,4.09c0.777,-0.083 0.77,0.009 0.876,0.04c-0.071,0.203 -0.031,0.315 -0.486,0.32c-0.207,-0.031 -0.202,-0.023 -0.386,-0.119c0.012,-0.128 0.015,-0.12 -0.005,-0.241Z" style="fill:#b47f4c;fill-opacity:1;"/><path d="M11.201,2.989c0.471,0.283 -0.138,0.403 -0.182,0.428c-0.464,-0.093 -0.548,0.161 -0.874,-0.181c0.016,-0.008 0.197,-0.106 0.197,-0.106c0.04,0.012 0.068,0.067 0.11,0.061c0.034,-0.005 0.023,-0.08 0.056,-0.085c0.016,0.008 -0.004,0.107 0.12,0.056c0.134,-0.056 0.116,0.021 0.204,0.05c0,0 0.13,-0.053 0.141,-0.058c0.118,-0.077 0.109,-0.071 0.118,-0.077c0.058,-0.04 0.041,-0.041 0.11,-0.089Z" style="fill:#ddb06f;fill-opacity:0.99;"/><path d="M6.039,2.243c0.072,0.008 0.144,0.017 0.215,0.025c0.397,0.158 0.374,-0.147 0.461,-0.097c0.061,0.035 0.174,0.169 0.188,0.185c-0.243,0.289 -0.268,0.245 -0.635,0.367c-0.269,-0.22 -0.267,-0.22 -0.291,-0.238c-0.044,-0.033 -0.05,0.019 -0.094,-0.014c0.041,-0.046 0.082,-0.091 0.124,-0.137l0.032,-0.093Z" style="fill:#dca962;fill-opacity:0.99;"/><path d="M10.489,4.42c0.465,0.291 0.41,0.638 0.811,0.386l0.069,0.095l0.004,0.081c-0.105,0.101 -0.105,0.084 -0.168,0.21l-0.125,0.054c-0.212,-0.176 -0.181,-0.258 -0.526,-0.254c-0.083,-0.39 -0.068,-0.526 -0.064,-0.572Z" style="fill:#a07049;fill-opacity:1;"/><path d="M16.385,4.48c0.278,0.225 0.423,0.082 0.516,0.428l-0.103,0.212c-0.127,-0.003 -0.254,-0.006 -0.38,-0.009c-0.09,-0.122 -0.081,-0.118 -0.192,-0.3c0.062,-0.176 0.061,-0.163 0.16,-0.33Z" style="fill:#f7d18e;fill-opacity:1;"/><path d="M10.144,3.236c0.327,0.342 0.41,0.088 0.874,0.181c-0.398,0.42 -0.466,0.275 -1.05,0.228l-0.029,-0.031l0.123,-0.328l0.082,-0.051Z" style="fill:#ba8955;fill-opacity:0.99;"/><path d="M9.72,2.437c-0.09,0.138 -0.098,0.122 -0.235,0.203l-0.101,0.008l-0.089,-0.015l-0.078,-0.032c-0.023,-0.02 -0.168,-0.404 -0.111,-0.451c0.034,-0.028 0.134,-0.112 0.549,0.041c0.091,0.034 0.051,0.062 0.065,0.246Z" style="fill:#e7b971;fill-opacity:0.99;"/><path d="M19.835,2.124c0.014,-0.001 0.177,-0.016 0.177,-0.016c0.504,-0.432 0.603,-0.043 0.645,0.615c-0.079,-0.036 -0.158,-0.072 -0.237,-0.107c-0.151,-0.382 -0.208,-0.34 -0.585,-0.491Z" style="fill:#dfb373;fill-opacity:0.06;"/><path d="M7.592,2.28c0.063,0.013 0.126,0.025 0.189,0.038c-0.128,0.325 -0.102,0.335 -0.354,0.569c-0.128,-0.153 -0.135,-0.148 -0.138,-0.165c-0.04,-0.222 -0.1,-0.167 -0.296,-0.263c0.238,-0.352 0.467,-0.213 0.599,-0.179Z" style="fill:#83593e;fill-opacity:1;"/><path d="M3.234,2.617c0.147,-0.007 0.134,0.005 0.272,-0c-0.034,0.153 -0.04,0.14 -0.033,0.306c0.014,0.044 0.027,0.088 0.041,0.132c0.259,0.042 0.258,0.041 0.28,0.045c0.041,0.008 0.03,0.019 0.069,0.027c0.006,0.051 0.012,0.101 0.018,0.152c-0.186,0.009 -0.175,0.024 -0.369,0.031c-0.078,0.027 -0.156,0.055 -0.234,0.082c-0.022,-0.144 -0.116,-0.251 -0.044,-0.776Z" style="fill:#bd8952;fill-opacity:0.99;"/><path d="M3.691,4.693c-0.048,0.416 -0.148,0.389 -0.561,0.43c-0.059,0.006 -0.292,-0.249 -0.38,-0.303c0.071,-0.026 0.271,-0.1 0.942,-0.127Z" style="fill:#af7d4f;fill-opacity:0.99;"/><path d="M14.339,3.001l-0.057,0.222c0.169,0.186 0.166,0.183 0.169,0.186l-0.038,0.045c-0.056,0.019 -1.095,0.36 -0.741,0.027c0.368,-0.346 0.322,-0.437 0.668,-0.481Z" style="fill:#d9a765;fill-opacity:1;"/><path d="M17.363,1.747c0.315,0.03 0.282,0.12 0.585,0.189c0.091,0.115 0.085,0.11 0.197,0.203c0.026,0.034 0.053,0.068 0.079,0.102c0.012,0.052 0.024,0.104 0.037,0.156c-0.159,-0.002 -0.161,0.118 -0.383,-0.005c-0.004,-0.002 -0.021,-0.012 -0.034,-0.053c-0.088,-0.27 -0.149,-0.218 -0.383,-0.391c-0.033,-0.067 -0.066,-0.133 -0.098,-0.2Z" style="fill:#efc57d;fill-opacity:0.91;"/><path d="M5.886,4.606c0.223,0.004 0.252,0.011 0.295,0.23c-0.131,0.091 -0.262,0.182 -0.393,0.273c-0.094,-0.013 -0.189,-0.026 -0.283,-0.039c-0.132,-0.045 -0.264,-0.09 -0.396,-0.135c0.065,-0.053 0.13,-0.107 0.196,-0.16c0.372,0.027 0.532,0.207 0.583,-0.169Z" style="fill:#a06d46;fill-opacity:1;"/><path d="M15.37,2.525c0.112,0.019 0.108,0.011 0.204,0.083c0.143,0.346 0.446,0.156 0.445,0.524l-0.072,0.079c-0.023,-0.002 -0.264,-0.022 -0.289,-0.021c-0.224,0.012 -0.136,-0.121 -0.286,-0.283c0.195,-0.108 0.06,-0.163 -0.116,-0.293c0.037,-0.03 0.075,-0.06 0.112,-0.09Z" style="fill:#d8a15b;fill-opacity:1;"/><path d="M13.545,2.185l0.111,0.07c-0.016,0.037 -0.023,0.053 -0.181,0.472c-0.377,-0.115 -0.361,-0.136 -0.754,-0.223l-0.086,-0.09c0.084,-0.031 0.169,-0.062 0.253,-0.093c0.098,0.019 0.196,0.039 0.295,0.058c0.158,0.019 0.153,0.03 0.158,0.019c0.02,-0.044 -0.008,-0.044 0.011,-0.086c0.064,-0.043 0.128,-0.086 0.192,-0.129Z" style="fill:#9e6b45;fill-opacity:1;"/><path d="M9.4,4.046c0.428,0.084 0.419,0.084 0.785,0.329c-0.193,0.063 -0.172,0.088 -0.293,0.241c-0.273,-0.16 -0.274,-0.141 -0.491,-0.382c-0,-0.063 -0.001,-0.126 -0.001,-0.189Z" style="fill:#af7f50;fill-opacity:0.99;"/><path d="M17.745,2.887c0.014,0.285 0.008,0.298 -0.213,0.474c-0.043,0.031 -0.085,0.061 -0.128,0.092c-0.226,-0.058 -0.385,-0.142 -0.416,-0.159c0.083,-0.137 0.084,-0.124 0.192,-0.24c0.304,0.004 0.272,-0.097 0.565,-0.167Z" style="fill:#d09a57;fill-opacity:1;"/><path d="M15.276,2.291c0.185,-0.003 0.369,-0.006 0.554,-0.009c0.469,-0.01 0.463,-0.037 0.63,0.018c-0.061,0.043 -0.083,0.128 -0.144,0.171c-0.049,0.035 -0.106,-0.242 -0.742,0.139c-0.096,-0.072 -0.092,-0.064 -0.204,-0.083c-0.031,-0.078 -0.063,-0.156 -0.094,-0.234Z" style="fill:#efc179;fill-opacity:0.99;"/><path d="M14.627,3.66c0.343,0.135 0.348,0.062 0.718,0.068c-0.198,0.256 -0.223,0.247 -0.533,0.205c-0.143,-0.019 -0.134,-0.014 -0.277,0.043c-0.225,0.089 -0.208,-0.011 -0.409,-0.159c0.239,-0.131 0.277,-0.013 0.501,-0.158Z" style="fill:#986946;fill-opacity:1;"/><path d="M8.789,5.913c-0.002,0.105 0.047,0.105 -0.004,0.196c0,0 -0.158,0.313 -0.172,0.341c-0.077,0.016 -0.067,0.007 -0.344,-0.019c0.008,-0.198 0.043,-0.19 -0.019,-0.38c0.269,-0.074 0.257,-0.072 0.539,-0.138Z" style="fill:#d49e5a;fill-opacity:1;"/><path d="M10.722,4.309c0.408,0.03 0.32,0.176 0.578,0.498c-0.401,0.251 -0.346,-0.096 -0.811,-0.386c0.078,-0.037 0.155,-0.074 0.233,-0.112Z" style="fill:#c4945d;fill-opacity:1;"/><path d="M15.185,6.25c0.253,-0.042 0.242,-0.002 0.663,0.077c0.034,0.032 0.068,0.064 0.102,0.096l0.048,0.069c-0.092,0.563 -0.645,-0.078 -0.813,-0.242Z" style="fill:#af7b4e;fill-opacity:1;"/><path d="M10.217,2.674c0.448,0.342 0.29,0.423 0.29,0.433c-0.034,0.005 -0.023,0.08 -0.056,0.085c-0.042,0.006 -0.07,-0.049 -0.11,-0.061c0,0 -0.181,0.098 -0.197,0.106l-0.082,0.051l-0.086,-0.102l0.008,-0.187l0.004,-0.098c0.029,-0.064 0.035,-0.053 0.229,-0.225Z" style="fill:#d8a561;fill-opacity:0.99;"/><path d="M7.957,2.615c0.102,0.005 0.203,0.01 0.305,0.015c0.002,0.026 0.017,0.191 0.01,0.33c-0.25,0.097 -0.231,0.118 -0.404,0.33c-0.082,-0.147 -0.081,-0.137 -0.186,-0.275c0.208,-0.144 0.145,-0.182 0.274,-0.4Z" style="fill:#b78451;fill-opacity:1;"/><path d="M8.728,0.156c-0.004,0.035 -0.042,0.4 0.08,0.429c0.047,0.011 0.189,-0.047 0.414,-0.034c-0.032,0.16 -0.013,0.151 -0.086,0.293c-0.217,-0.019 -0.216,-0.004 -0.407,-0.116c-0.07,-0.057 -0.563,-0.275 -0.001,-0.573Z" style="fill:#dcb075;fill-opacity:0.09;"/><path d="M6.656,6.712c0.15,0.032 0.14,0.025 0.28,0.057c0.523,0.119 0.18,0.314 0.17,0.353c-0.24,-0.042 -0.225,-0.051 -0.467,-0.055c-0.162,-0.073 -0.144,-0.078 -0.273,-0.197c0.238,0.024 0.194,-0.073 0.29,-0.158Z" style="fill:#9f714b;fill-opacity:0.96;"/><path d="M13.653,5.602c0.343,-0.048 0.731,0.069 0.792,0.088c-0.006,0.146 -0.012,0.293 -0.017,0.439c-0.302,-0.176 -0.295,-0.173 -0.568,-0.388c-0.069,-0.046 -0.138,-0.092 -0.207,-0.139Z" style="fill:#d7a05d;fill-opacity:1;"/><path d="M9.384,2.648l0.101,-0.008c0.158,0.081 0.158,0.066 0.278,0.193l0.097,0.021c0.044,0.094 0.041,0.082 0.124,0.144l-0.008,0.187c-0.199,0.043 -0.206,0.055 -0.366,-0.09c-0.101,-0.111 -0.094,-0.104 -0.218,-0.178l-0.006,-0.093c-0,-0.059 -0.001,-0.117 -0.001,-0.176Z" style="fill:#bf8b54;fill-opacity:1;"/><path d="M10.347,2.235c-0.17,-0.133 -0.175,-0.1 -0.388,-0.117c-0.162,-0.013 0.004,-0.444 0.057,-0.442c0.15,0.007 0.332,0.14 0.357,0.159c0.196,0.144 0.047,0.18 -0.026,0.4Z" style="fill:#956442;fill-opacity:0.99;"/><path d="M7.781,2.318c0.2,0.057 0.209,0.086 0.176,0.297c-0.13,0.218 -0.066,0.256 -0.274,0.4l-0.255,-0.129c0.251,-0.234 0.226,-0.244 0.354,-0.569Z" style="fill:#674234;fill-opacity:1;"/><path d="M16.815,4.195c0.058,0.485 0.127,0.486 0.169,0.487c0.038,0.001 0.061,-0.065 0.098,-0.057c0.175,0.036 0.116,0.108 -0.01,0.233c-0.096,0.009 -0.086,0.007 -0.171,0.051c-0.092,-0.346 -0.238,-0.203 -0.516,-0.428c0.022,-0.009 -0.028,-0.185 0.128,-0.054c0.199,0.168 0.204,0.013 0.302,-0.232Z" style="fill:#f4cb86;fill-opacity:1;"/><path d="M9.609,3.095c0.161,0.145 0.167,0.133 0.366,0.09l0.086,0.102l-0.123,0.328c-0.055,0.016 -0.11,0.032 -0.165,0.048c-0.175,-0.065 -0.144,-0.087 -0.216,-0.272c0.036,-0.153 0.018,-0.143 0.051,-0.296Z" style="fill:#a6774c;fill-opacity:1;"/><path d="M1.964,2.831l0.103,0.002c0.107,0.084 0.098,0.077 0.107,0.084c0.055,0.046 0.036,0.048 0.093,0.096l0.071,0.101c-0.004,0.301 -0.119,0.229 -0.33,0.307l-0.113,-0.081c0.003,-0.033 0.073,-0.031 0.076,-0.064c0.003,-0.035 -0.001,-0.033 -0.008,-0.445Z" style="fill:#d2a267;fill-opacity:0.06;"/><path d="M5.405,3.387c0.043,0.007 0.289,0.049 0.533,0.133c-0.01,0.057 -0.02,0.113 -0.031,0.17c-0.151,0.195 -0.188,0.129 -0.435,0.093c-0.05,-0.041 -0.1,-0.082 -0.15,-0.124c0.062,-0.133 0.066,-0.122 0.082,-0.273Z" style="fill:#956541;fill-opacity:0.99;"/><path d="M21.803,2.571c-0.03,0.007 -0.023,0.014 -0.352,0.159l-0.106,0.043c-0.091,0.026 -0.086,0.01 -0.183,0.038c-0.023,0.007 -0.021,0.007 -0.288,0.088c0,-0.018 -0.23,-0.486 0.929,-0.329Z" style="fill:#ddaf6d;fill-opacity:0.04;"/><path d="M4.449,5.614c0.282,-0.263 0.315,-0.072 0.674,0.091c-0.103,0.237 -0.034,0.424 -0.271,0.296c-0.181,-0.098 0.001,-0.371 -0.403,-0.387Z" style="fill:#d29d5b;fill-opacity:0.99;"/><path d="M8.923,4.256c0.062,0.021 0.124,0.043 0.186,0.064c-0.013,0.233 0.069,0.19 0.243,0.336c-0.012,0.005 -0.002,-0 -0.265,0.157c-0.092,-0.083 -0.059,-0.122 -0.258,-0.197c-0.245,-0.092 -0.058,-0.157 0.094,-0.36Z" style="fill:#ca9559;fill-opacity:0.99;"/><path d="M21.259,4.724c0.51,0.023 0.483,0.107 0.56,0.18l0.024,0.092c-0.227,0.266 -0.266,0.031 -0.608,-0.077c-0.08,-0.025 -0.028,-0.046 0.024,-0.195Z" style="fill:#d39b54;fill-opacity:0.99;"/><path d="M13.345,1.903c0.007,0.054 0.014,0.108 0.021,0.162c0.059,0.04 0.119,0.08 0.178,0.121c-0.064,0.043 -0.128,0.086 -0.192,0.129c-0.056,0.022 -0.113,0.044 -0.169,0.067c-0.098,-0.019 -0.196,-0.039 -0.295,-0.058c0.058,-0.095 0.101,-0.091 0.04,-0.187c0.054,-0.058 0.108,-0.117 0.162,-0.175c0.019,-0.008 0.14,-0.061 0.255,-0.057Z" style="fill:#c69157;fill-opacity:1;"/><path d="M13.501,3.822l0.063,0.046c0.067,0.302 0.024,0.292 -0.03,0.603c-0.616,-0.184 -0.097,-0.543 -0.033,-0.649Z" style="fill:#dcab69;fill-opacity:1;"/><path d="M5.504,5.07c0.094,0.013 0.189,0.026 0.283,0.039c0.029,0.016 0.244,0.01 0.061,0.244c-0.031,0.029 -0.062,0.058 -0.094,0.087l-0.156,-0.078c-0.15,-0.021 -0.171,0.108 -0.278,-0.012c-0.151,-0.168 -0.017,-0.172 0.184,-0.28Z" style="fill:#f3ce8a;fill-opacity:1;"/><path d="M12.202,2.136c0.034,0.023 0.33,0.228 0.434,0.279l0.086,0.09c-0.195,0.008 -0.185,0.014 -0.387,0.016c-0.161,0.002 -0.137,-0.042 -0.292,-0.09c0.025,-0.028 0.021,-0.028 0.16,-0.295Z" style="fill:#ca9457;fill-opacity:1;"/><path d="M4.563,1.572c0.03,0.032 0.059,0.065 0.089,0.097c0.018,0.086 0.036,0.172 0.054,0.257c-0.084,0.225 -0.163,0.193 -0.348,0.039l-0.06,-0.177c0.054,-0.183 0.091,-0.149 0.266,-0.216Z" style="fill:#efc37b;fill-opacity:0.99;"/><path d="M7.963,6.035c0.011,0.042 0.196,0.023 0.069,0.253c-0.102,0.184 -0.149,0.104 -0.348,0.145c-0,0 -0.18,-0.129 -0.196,-0.14c0.224,-0.176 0.217,-0.162 0.474,-0.258Z" style="fill:#b8844f;fill-opacity:1;"/><path d="M16.901,4.908c0.084,-0.043 0.074,-0.042 0.171,-0.051c0.068,0.047 0.135,0.093 0.203,0.14l0.003,0.097c-0.006,0.069 -0.011,0.138 -0.017,0.207l-0.085,0.005c-0.043,-0.021 -0.043,0.019 -0.09,-0.005c-0.024,-0.012 -0.021,-0.013 -0.288,-0.182l0.103,-0.212Z" style="fill:#d39e5d;fill-opacity:1;"/><path d="M8.329,2.513c0.071,0.028 0.141,0.055 0.212,0.083c0.474,0.173 -0.179,0.333 -0.211,0.341l-0.059,0.024c0.006,-0.139 -0.008,-0.304 -0.01,-0.33c0.023,-0.039 0.045,-0.078 0.068,-0.117Z" style="fill:#d9ad6c;fill-opacity:1;"/><path d="M9.217,2.601l0.078,0.032l0.041,0.063c-0.017,0.093 -0.095,0.028 -0.114,0.128c-0.002,0.01 -0.013,0.07 0.069,0.114c0.03,0.017 0.071,-0.038 0.101,-0.021c-0.228,0.161 -0.239,0.175 -0.489,0.073c0.081,-0.414 0.202,-0.327 0.314,-0.389Z" style="fill:#926545;fill-opacity:1;"/><path d="M5.314,4.533c0.29,-0.004 0.274,0.059 0.571,0.073c-0.05,0.376 -0.211,0.195 -0.583,0.169c-0.004,-0.035 -0.084,-0.023 -0.087,-0.058c-0.002,-0.017 0.007,-0.014 0.098,-0.183Z" style="fill:#b68350;fill-opacity:0.99;"/><path d="M10.552,4.992c0.346,-0.004 0.314,0.078 0.526,0.254c-0.395,0.08 -0.608,0.149 -0.526,-0.254Z" style="fill:#8c6143;fill-opacity:1;"/><path d="M2.921,1.845c0.108,-0.658 0.329,-0.496 0.344,-0.453c0.017,0.051 0.043,0.13 -0.197,0.645c-0.042,-0.118 -0.035,-0.117 -0.147,-0.192Z" style="fill:#dda963;fill-opacity:0.99;"/><path d="M14.661,2.737c-0.077,0.19 -0.069,0.182 -0.146,0.361c-0.076,0.177 -0.226,0.121 -0.233,0.125l0.057,-0.222c0.008,-0.03 0.098,-0.371 0.098,-0.371c0.082,-0.144 0.08,0.038 0.224,0.108Z" style="fill:#9a6641;fill-opacity:1;"/><path d="M19.154,4.464c0.208,-0.054 0.206,-0.051 0.41,0.037c0.055,0.031 0.11,0.062 0.165,0.093c-0.358,0.258 -0.57,0.303 -0.575,-0.13Z" style="fill:#dea960;fill-opacity:0.99;"/><path d="M3.033,1.092c-0.317,0.234 -0.344,0.163 -0.684,0.383c0.012,-0.213 -0.017,-0.27 0.203,-0.293c0.01,-0.001 0.003,-0.01 0.099,-0.078c0,0 0.351,-0.01 0.382,-0.011Z" style="fill:#c79d66;fill-opacity:0.05;"/><path d="M2.686,2.626l-0.034,0.094c-0.031,0.024 -0.317,0.247 -0.386,0.293c-0.057,-0.048 -0.038,-0.049 -0.093,-0.096c-0.008,-0.007 0,0 -0.107,-0.084c0.16,-0.108 0.155,-0.099 0.304,-0.206c0.213,-0.152 0.275,-0.001 0.315,-0.001Z" style="fill:#e0b271;fill-opacity:0.91;"/><path d="M6.753,5.127l0.042,0.025c0.072,0.138 0.146,0.137 0.046,0.327c-0.286,-0.118 -0.443,-0.176 -0.482,-0.191c0.18,-0.142 0.174,-0.154 0.393,-0.161Z" style="fill:#c48f55;fill-opacity:1;"/><path d="M14.603,0.195c-0.882,0.071 -0.877,0.178 -0.975,0.219l-0.069,0.021c0.005,-0.239 -0.133,-0.402 0.103,-0.339c0.471,0.127 0.482,-0.03 0.941,0.099Z" style="fill:#a17f53;fill-opacity:0.1;"/><path d="M15.276,2.291c0.031,0.078 0.063,0.156 0.094,0.234c-0.037,0.03 -0.075,0.06 -0.112,0.09c-0.233,0.051 -0.231,0.01 -0.359,-0.179l0.092,-0.096c0.074,-0.027 0.071,-0.019 0.285,-0.049Z" style="fill:#f1c984;fill-opacity:0.99;"/><path d="M2.759,2.347c0.185,0.306 0.354,0.325 0.154,0.535c-0.017,0.018 -0.117,0.123 -0.261,-0.162l0.034,-0.094c0.024,-0.093 0.049,-0.186 0.073,-0.279Z" style="fill:#a26e46;fill-opacity:1;"/><path d="M1.732,3.978c-0.044,0.02 -0.089,0.039 -0.133,0.059c-0.174,0.103 -0.179,0.11 -0.367,0.013c0.025,-0.038 0.28,-0.421 0.477,-0.302c0.06,0.036 0.018,0.159 0.077,0.195l-0.055,0.035Z" style="fill:#e8b972;fill-opacity:0.99;"/><path d="M5.578,1.899c0.034,0.185 0.025,0.184 -0.074,0.35c0.046,0.132 0.023,0.135 0.095,0.177c-0.092,-0.033 -0.184,-0.065 -0.275,-0.098c-0.021,-0.338 -0.07,-0.49 0.254,-0.429Z" style="fill:#d7a764;fill-opacity:1;"/><path d="M14.895,0.731c0.078,0.047 0.157,0.093 0.235,0.14c-0.109,0.212 -0.123,0.19 -0.193,0.408c-0.07,-0.084 -0.077,-0.066 -0.139,-0.166c0,0 -0.143,-0.157 -0.156,-0.171c0.248,-0.122 0.246,-0.202 0.253,-0.211Z" style="fill:#ebbc75;fill-opacity:0.99;"/><path d="M4.838,1.37c0.2,0.009 0.266,0.018 0.206,0.22c-0.028,0.094 -0.063,0.053 -0.392,0.08l-0.089,-0.097c0.042,-0.024 -0.006,-0.059 0.04,-0.085c0.018,-0.01 0.017,-0.009 0.235,-0.117Z" style="fill:#c88f50;fill-opacity:0.99;"/><path d="M6.631,2.937c0.222,-0.144 0.236,-0.116 0.486,-0.029c-0.178,0.223 -0.192,0.284 -0.458,0.175c-0.009,-0.049 -0.018,-0.098 -0.027,-0.147Z" style="fill:#c38e53;fill-opacity:0.99;"/><path d="M13.122,4.88c0.251,0.048 0.212,0.098 0.345,0.195c-0.1,0.027 -0.199,0.054 -0.299,0.081c-0.127,0.08 -0.116,0.086 -0.271,0.102c0.01,-0.05 0.02,-0.1 0.03,-0.15c0.065,-0.076 0.13,-0.153 0.195,-0.229Z" style="fill:#dfaf6c;fill-opacity:1;"/><path d="M10.939,2.686c0.087,0.101 0.175,0.201 0.262,0.302c-0.069,0.048 -0.052,0.049 -0.11,0.089c-0.009,0.006 -0,0 -0.118,0.077c-0.27,-0.119 -0.155,-0.201 -0.034,-0.468Z" style="fill:#d5a25e;fill-opacity:0.99;"/><path d="M20.786,4.307l0.111,-0.002c0.102,0.048 0.093,0.04 0.188,0.112c-0.066,0.03 -0.132,0.059 -0.198,0.089c-0.018,-0.001 -0.91,-0.175 -0.101,-0.199Z" style="fill:#d69f5a;fill-opacity:0.99;"/><path d="M20.421,2.615c0.079,0.036 0.158,0.072 0.237,0.107c0.02,0.13 0.024,0.128 0.13,0.2c-0.064,0.027 -0.129,0.054 -0.193,0.082c-0.418,-0.071 -0.184,-0.318 -0.174,-0.389Z" style="fill:#e5ba76;fill-opacity:0.46;"/><path d="M10.185,4.376c0.163,-0.541 0.348,-0.209 0.537,-0.067c-0.078,0.037 -0.155,0.074 -0.233,0.112c-0.039,-0.022 -0.017,-0.115 -0.304,-0.045Z" style="fill:#a1724c;fill-opacity:0.99;"/><path d="M5.504,2.249c0.261,-0.011 0.258,-0.023 0.503,0.087c-0.041,0.046 -0.082,0.091 -0.124,0.137c-0.095,-0.015 -0.189,-0.031 -0.284,-0.046c-0.073,-0.042 -0.049,-0.046 -0.095,-0.177Z" style="fill:#9b6540;fill-opacity:1;"/><path d="M13.067,3.753c-0.019,0.13 -0.039,0.261 -0.058,0.391c-0.194,-0.054 -0.187,-0.065 -0.204,-0.067c0.005,-0.038 0.072,-0.493 0.236,-0.411c0.027,0.014 -0.002,0.074 0.025,0.087Z" style="fill:#a06f48;fill-opacity:1;"/><path d="M11.57,1.873l0.069,0.039c0.049,0.022 0.098,0.044 0.147,0.065c0.041,0.086 0.024,0.083 0.081,0.171c0.089,0.136 -0.011,0.132 -0.016,0.191c-0.13,-0.06 -0.106,-0.084 -0.257,-0.119c-0.21,-0.049 -0.033,-0.131 -0.024,-0.346Z" style="fill:#d49f5c;fill-opacity:1;"/><path d="M7.293,0.809l0.082,-0.014c-0.115,0.206 -0.21,0.56 -0.223,0.61l-0.065,-0.116c0.012,-0.167 -0.151,-0.265 0.207,-0.48Z" style="fill:#cda066;fill-opacity:0.09;"/><path d="M5.355,2.708c0.134,0.131 0.106,0.15 0.039,0.318c-0.195,-0.081 -0.191,-0.07 -0.348,-0.212c0.161,-0.038 0.142,-0.072 0.309,-0.106Z" style="fill:#ca9659;fill-opacity:1;"/><path d="M22.208,3.569c-0.085,0.053 -0.171,0.106 -0.256,0.159c-0.036,0.008 -0.071,0.015 -0.107,0.023l-0.154,-0.043c0.125,-0.287 0.205,-0.184 0.517,-0.14Z" style="fill:#ce9b5d;fill-opacity:0.98;"/><path d="M16.07,1.168l0.075,0.022c0.269,0.162 0.258,0.167 0.389,0.481c-0.345,-0.068 -0.368,-0.402 -0.463,-0.503Z" style="fill:#c79e65;fill-opacity:0.05;"/><path d="M21.085,4.417c0.019,0.036 0.038,0.072 0.058,0.108l-0.071,0.095c-0.036,0.063 -0.06,0.029 -0.098,0.094c-0.008,0.014 -0.006,0.014 -0.083,0.189c-0.041,-0.078 -0.045,-0.064 -0.207,-0.214c0.068,-0.061 0.136,-0.122 0.204,-0.183c0.066,-0.03 0.132,-0.059 0.198,-0.089Z" style="fill:#dea962;fill-opacity:0.99;"/><path d="M18.316,6.036c-0.044,0.203 -0.288,0.41 -0.425,0.238c-0.199,-0.249 0.164,-0.041 0.425,-0.238Z" style="fill:#a97950;fill-opacity:0.99;"/><path d="M3.438,6.161c-0.46,0.322 -0.376,-0.206 -0.356,-0.213c0.128,-0.042 0.115,0.019 0.356,0.213Z" style="fill:#e1b46f;fill-opacity:0.99;"/><path d="M9.72,2.437c0.012,0.008 0.144,0.1 0.144,0.1c0.226,0.015 0.024,0.111 -0.101,0.296c-0.12,-0.127 -0.12,-0.112 -0.278,-0.193c0.137,-0.081 0.145,-0.065 0.235,-0.203Z" style="fill:#dbaa64;fill-opacity:0.99;"/><path d="M5.314,4.533c-0.091,0.17 -0.1,0.167 -0.098,0.183c0.004,0.035 0.084,0.023 0.087,0.058c-0.065,0.053 -0.13,0.107 -0.196,0.16c-0.113,-0.303 -0.063,-0.349 -0.041,-0.368c0.121,-0.109 0.13,-0.018 0.248,-0.033Z" style="fill:#a7754a;fill-opacity:1;"/><path d="M13.804,4.204c0.362,-0.413 0.333,0.009 0.329,0.035c-0.009,0.054 -0.221,0.242 -0.329,-0.035Z" style="fill:#b17e50;fill-opacity:1;"/><path d="M15.874,5.53l0.183,0.003c0.014,0.021 0.178,0.26 0.178,0.26c-0.004,0.005 -0.348,-0.03 -0.378,-0.033c0.006,-0.077 0.011,-0.153 0.017,-0.23Z" style="fill:#bc8551;fill-opacity:1;"/><path d="M14.445,5.69c-0.112,-0.473 0.174,-0.24 0.189,-0.221c0.015,0.019 0.046,0.058 0.032,0.297c-0.105,-0.067 -0.104,-0.05 -0.221,-0.077Z" style="fill:#cb9558;fill-opacity:1;"/><path d="M13.09,1.96c-0.054,0.058 -0.108,0.117 -0.162,0.175c-0.013,-0.014 -0.336,-0.589 0.162,-0.175Z" style="fill:#a26f48;fill-opacity:1;"/><path d="M12.535,3.02c0.579,-0.353 0.111,0.188 0.099,0.201c-0.033,-0.067 -0.066,-0.134 -0.099,-0.201Z" style="fill:#9f6b44;"/><path d="M5.447,1.085c0.232,0.089 0.101,0.192 0.255,0.37c-0.001,0 -0.071,0.137 -0.167,0.007c-0.032,-0.043 -0.001,-0.043 -0.025,-0.074c-0.062,-0.107 -0.063,-0.279 -0.064,-0.303Z" style="fill:#d7aa6b;fill-opacity:0.06;"/><path d="M13.653,5.602c0.069,0.046 0.138,0.092 0.207,0.139c-0.21,0.113 -0.271,0.134 -0.358,-0.1l0.151,-0.039Z" style="fill:#c38c51;fill-opacity:1;"/><path d="M4.56,3.014c0.057,-0.01 0.052,-0.006 0.278,-0.008c-0.172,0.585 -0.277,0.03 -0.278,0.008Z" style="fill:#e0b16b;fill-opacity:0.99;"/><path d="M21.15,3.622c0.099,0.025 0.199,0.049 0.298,0.074c-0.231,0.425 -0.296,-0.045 -0.298,-0.074Z" style="fill:#a7764c;fill-opacity:0.99;"/><path d="M15.751,1.015c0.148,-0.113 0.213,-0.169 0.269,0.014c0.005,0.016 0.018,0.058 0.124,0.161l-0.075,-0.022c-0.175,-0.057 -0.157,-0.068 -0.318,-0.153Z" style="fill:#98794d;fill-opacity:0.05;"/><path d="M9.11,4.32l0.09,0.035c0.104,0.142 0.101,0.132 0.153,0.301c-0.174,-0.146 -0.256,-0.103 -0.243,-0.336Z" style="fill:#b4804d;fill-opacity:1;"/><path d="M3.701,1.491c-0.119,0.238 -0.16,0.195 -0.313,0.2c0.108,-0.185 0.1,-0.236 0.313,-0.2Z" style="fill:#dfaa5f;fill-opacity:0.98;"/><path d="M10.53,0.705c-0.101,0.058 -0.201,0.115 -0.302,0.173c-0.057,0.013 -0.114,0.026 -0.171,0.04c0.275,-0.348 0.361,-0.208 0.473,-0.213Z" style="fill:#be955f;fill-opacity:0.16;"/><path d="M0.457,4.029c-0.073,0.12 -0.101,0.379 -0.105,0.413c-0.09,-0.207 -0.264,-0.354 0.105,-0.413Z" style="fill:#bf9460;fill-opacity:0.17;"/><path d="M7.96,1.39c0.001,0.096 0.001,0.192 0.002,0.287c-0.283,-0.184 -0.024,-0.261 -0.002,-0.287Z" style="fill:#c59157;fill-opacity:0.99;"/><path d="M4.017,5.599c0.057,-0.204 0.044,-0.216 0.061,-0.221c0,0 0.178,0.198 0.194,0.215c-0.085,0.002 -0.17,0.004 -0.255,0.006Z" style="fill:#dba55f;fill-opacity:0.99;"/><path d="M19.62,6.146c0.017,0.007 0.214,0.086 0.214,0.086c-0.001,0.058 -0.26,0.093 -0.284,0.097l0.07,-0.182Z" style="fill:#eabd78;fill-opacity:0.98;"/><path d="M4.897,3.525c-0.231,0.106 -0.229,0.123 -0.249,0.114c-0.02,-0.009 -0.141,-0.267 0.249,-0.114Z" style="fill:#e8bb72;fill-opacity:0.99;"/><path d="M12.906,4.803c0.072,0.026 0.144,0.051 0.216,0.077c-0.065,0.076 -0.13,0.153 -0.195,0.229c-0.007,-0.102 -0.014,-0.204 -0.021,-0.306Z" style="fill:#e9bb76;fill-opacity:1;"/><path d="M6.283,3.687c-0.003,-0.049 -0.09,-0.064 -0.093,-0.112c-0.001,-0.022 0.026,-0.197 0.271,0.05c-0.059,0.021 -0.119,0.041 -0.178,0.062Z" style="fill:#be8d54;fill-opacity:1;"/><path d="M7.591,1.951c-0.473,0.017 -0.108,-0.2 -0.09,-0.201c0.018,-0.001 0.006,0.014 0.09,0.201Z" style="fill:#966743;fill-opacity:1;"/><path d="M15.101,0.322c0.123,0.023 0.116,0.021 0.208,0.098l0.002,0.09c-0.131,-0.063 -0.128,-0.059 -0.21,-0.188Z" style="fill:#daac73;fill-opacity:0.04;"/><path d="M21.803,2.571c0.014,0.037 0.029,0.073 0.043,0.11c-0.132,0.016 -0.263,0.033 -0.395,0.049c0.329,-0.145 0.322,-0.151 0.352,-0.159Z" style="fill:#d7ae6e;fill-opacity:0.29;"/><path d="M5.09,2.376l0.028,0.07c-0.093,-0.001 -0.186,-0.002 -0.279,-0.003c0.118,-0.071 0.115,-0.059 0.25,-0.067Z" style="fill:#ca9559;fill-opacity:0.99;"/><path d="M7.856,0.471l0.029,0.042c-0.278,0.106 -0.274,0.111 -0.299,0.115c0.026,-0.037 0.051,-0.073 0.077,-0.11c0.065,-0.016 0.129,-0.032 0.194,-0.047Z" style="fill:#c5a16b;fill-opacity:0.2;"/><path d="M9.336,2.696l0.049,0.128l0.006,0.093c-0.03,-0.017 -0.071,0.038 -0.101,0.021c-0.082,-0.045 -0.071,-0.104 -0.069,-0.114c0.019,-0.1 0.097,-0.035 0.114,-0.128Z" style="fill:#af7e50;fill-opacity:1;"/><path d="M11.498,1.08c0.186,0.027 0.178,0.041 0.291,0.198c-0.097,-0.066 -0.194,-0.132 -0.291,-0.198Z" style="fill:#d1a96e;fill-opacity:0.12;"/><path d="M17.949,1.936c0.16,0.032 0.169,0.036 0.197,0.203c-0.112,-0.093 -0.107,-0.088 -0.197,-0.203Z" style="fill:#e2b677;fill-opacity:0.07;"/><path d="M17.089,1.802l-0.101,0.048c-0.022,0.001 -0.195,0.011 -0.268,0.06c0.158,-0.134 0.16,-0.148 0.368,-0.109Z" style="fill:#a58252;fill-opacity:0.1;"/><path d="M5.859,2.686c-0.017,0.04 0.044,0.088 0.027,0.129c-0.022,0.052 -0.283,-0.06 -0.027,-0.129Z" style="fill:#dca85f;fill-opacity:0.99;"/><path d="M8.291,6.884c0.083,0.104 0.075,0.096 0.164,0.184c-0.054,-0.032 -0.071,0.171 -0.124,0.139c0,0 -0.036,-0.297 -0.039,-0.323Z" style="fill:#cb995e;fill-opacity:0.99;"/><path d="M2.278,2.25c-0.041,0.016 -0.059,0.072 -0.1,0.087c-0.122,0.046 -0.125,-0.169 0.002,-0.167c0.042,0.001 0.056,0.079 0.098,0.08Z" style="fill:#f0c27a;fill-opacity:0.99;"/><path d="M21.142,4.526c0.039,0.066 0.078,0.132 0.117,0.199c-0.062,-0.035 -0.125,-0.069 -0.187,-0.104l0.071,-0.095Z" style="fill:#ebbb6e;fill-opacity:0.99;"/><path d="M6.455,3.312c0.077,-0.011 0.154,-0.022 0.23,-0.034c-0.1,0.096 -0.108,0.084 -0.23,0.034Z" style="fill:#a7764a;fill-opacity:1;"/><path d="M10.818,7.587c-0.037,-0.001 -0.049,0.071 -0.085,0.07c-0.095,-0.003 -0.084,-0.192 -0.015,-0.19c0.052,0.002 0.048,0.118 0.1,0.12Z" style="fill:#a37d56;fill-opacity:0.09;"/><path d="M17.089,1.802c0.14,-0.042 0.126,-0.04 0.274,-0.054c-0.046,0.02 -0.016,0.081 -0.375,0.103l0.101,-0.048Z" style="fill:#a48152;fill-opacity:0.1;"/><path d="M8.329,2.513c0.145,-0.139 0.131,0.014 0.212,0.083c-0.071,-0.028 -0.141,-0.055 -0.212,-0.083Z" style="fill:#bc8953;fill-opacity:0.99;"/><path d="M1.954,1.746l0.009,0.095c-0.091,0.089 -0.076,0.105 -0.165,0.119c0.013,-0.016 0.085,-0.104 0.156,-0.214Z" style="fill:#a07d51;fill-opacity:0.07;"/><path d="M13.184,2.381c0.056,-0.022 0.113,-0.044 0.169,-0.067c-0.019,0.041 0.009,0.042 -0.011,0.086c-0.005,0.012 -0,0 -0.158,-0.019Z" style="fill:#b68250;fill-opacity:1;"/><path d="M21.919,6.072c0.065,0.024 0.129,0.049 0.194,0.073l-0.379,-0.047c0.062,-0.009 0.123,-0.017 0.185,-0.026Z" style="fill:#9f7246;fill-opacity:0.65;"/><path d="M14.346,1.172c0.05,-0.043 -0.162,-0.121 -0.111,-0.164c0.142,-0.121 0.074,0.068 0.201,0.186l-0.09,-0.022Z" style="fill:#cb9253;fill-opacity:1;"/><path d="M11.358,2.479c0.106,0.034 0.104,0.027 0.145,0.137c-0.038,-0.029 -0.075,-0.059 -0.113,-0.088l-0.031,-0.049Z" style="fill:#aa764a;fill-opacity:1;"/><path d="M10.722,1.109c0.051,-0.011 0.044,0.008 0.096,-0.004c0.195,-0.044 0.082,0.112 0.085,0.115c-0.06,-0.037 -0.12,-0.074 -0.181,-0.111Z" style="fill:#dba75d;fill-opacity:0.99;"/><path d="M6.039,2.243c0.105,-0.069 0.11,-0.05 0.215,0.025c-0.072,-0.008 -0.144,-0.017 -0.215,-0.025Z" style="fill:#d39f5d;fill-opacity:0.99;"/><path d="M14.123,2.791c0.085,-0.136 0.073,-0.131 0.085,-0.136c0.132,-0.054 0.019,0.042 -0.085,0.136Z" style="fill:#c28b53;fill-opacity:1;"/><path d="M9.86,2.854l0.128,0.046l-0.004,0.098c-0.082,-0.062 -0.08,-0.049 -0.124,-0.144Z" style="fill:#c89458;fill-opacity:0.99;"/><path d="M7.481,0.705c-0.036,0.03 -0.071,0.06 -0.107,0.09l-0.082,0.014c0.063,-0.035 0.126,-0.069 0.189,-0.104Z" style="fill:#aa8657;fill-opacity:0.16;"/><path d="M15.309,0.42c0.03,0.065 0.059,0.131 0.089,0.196c-0.029,-0.035 -0.058,-0.071 -0.087,-0.106l-0.002,-0.09Z" style="fill:#a58356;fill-opacity:0.07;"/><path d="M9.295,2.633l0.089,0.015c0,0.059 0.001,0.117 0.001,0.176l-0.049,-0.128l-0.041,-0.063Z" style="fill:#ae7c4c;fill-opacity:0.99;"/><path d="M1.032,3.558c-0.125,0.093 -0.117,0.097 -0.177,0.116c0.078,-0.078 0.067,-0.078 0.177,-0.116Z" style="fill:#ab8556;fill-opacity:0.18;"/><path d="M15.944,6.321c0.018,0.057 0.036,0.114 0.055,0.17l-0.048,-0.069l-0.007,-0.102Z" style="fill:#bf8a56;fill-opacity:1;"/><path d="M15.848,6.327l0.095,-0.006l0.007,0.102c-0.034,-0.032 -0.068,-0.064 -0.102,-0.096Z" style="fill:#bd8955;fill-opacity:1;"/><path d="M7.12,4.526c0.007,-0.012 0.085,-0.148 0.085,-0.148c0.121,0.023 -0.024,0.041 -0.085,0.148Z" style="fill:#986846;fill-opacity:0.99;"/><path d="M15.846,5.288l0.194,0.014c-0.105,0.026 -0.092,0.016 -0.194,-0.014Z" style="fill:#b67f4e;fill-opacity:1;"/><path d="M3.863,3.127c0.06,0.075 0.064,0.072 0.018,0.152c-0.006,-0.051 -0.012,-0.101 -0.018,-0.152Z" style="fill:#b5824f;fill-opacity:0.99;"/><path d="M9.939,3.614l0.029,0.031l-0.194,0.018c0.055,-0.016 0.11,-0.032 0.165,-0.048Z" style="fill:#9c6f4a;fill-opacity:0.99;"/><path d="M11.487,1.759c0.051,0.051 0.102,0.101 0.153,0.152l-0.069,-0.039c-0.028,-0.038 -0.056,-0.076 -0.084,-0.114Z" style="fill:#d7a15d;fill-opacity:1;"/><path d="M16.02,3.133l0.024,0.046l-0.095,0.033l0.072,-0.079Z" style="fill:#c0894f;fill-opacity:0.99;"/><path d="M6.753,5.127l0.089,-0.011l-0.046,0.037l-0.042,-0.025Z" style="fill:#c38e56;fill-opacity:0.99;"/></svg>