<?xml version="1.0" encoding="UTF-8" standalone="no"?><!DOCTYPE svg PUBLIC "-//W3C//DTD SVG 1.1//EN" "http://www.w3.org/Graphics/SVG/1.1/DTD/svg11.dtd"><svg width="100%" height="100%" viewBox="0 0 24 8" version="1.1" xmlns="http://www.w3.org/2000/svg" xmlns:xlink="http://www.w3.org/1999/xlink" xml:space="preserve" xmlns:serif="http://www.serif.com/" style="fill-rule:evenodd;clip-rule:evenodd;stroke-linejoin:round;stroke-miterlimit:2;"><path d="M22.635,0.173l0.073,0.026c-0.136,0.167 -0.195,0.245 0.01,0.301c0.255,0.069 0.248,-0.041 0.265,-0.028c0.031,0.024 -0.031,0.058 0.222,0.439l-0.194,0.187c-0.547,-0.46 -0.633,0.293 -1.096,0.551c-0.039,0.022 -0.254,0.046 -0.646,0.296c-0.025,0.016 -0.569,0.362 -0.37,0.024c0.004,-0.006 0.008,0.01 0.088,-0.016c0.028,-0.009 0.012,-0.024 0.167,-0.331c-0.153,0.068 -0.64,0.283 -1.751,1.143c-0.041,0.239 -0.057,0.223 -0.114,0.455c-0.025,0.109 -0.05,0.218 -0.075,0.327c-0.007,0.017 -0.008,0.016 -0.174,0.296l-0.254,0.068c-0.108,-0.2 -0.074,-0.291 -0.291,-0.243c-0.203,0.044 -0.299,-0.065 -0.132,-0.2c0.112,-0.09 0.087,-0.096 0.234,-0.376c-0.15,-0.005 -0.138,-0.003 -0.271,0.059c-0.282,-0.161 -0.295,-0.117 -0.6,-0.027c-0.647,0.229 -0.767,-0.002 -0.796,-0.059c0.168,-0.063 0.683,-0.256 2.059,-0.884c0.207,-0.09 0.194,-0.084 0.4,-0.186c-0.246,-0.377 -0.361,-0.258 -0.603,0c-3.217,1.075 -5.649,2.456 -12.571,2.783c-4.011,0.19 -4.794,0.572 -5.169,0.756c-0.575,0.281 0.024,0.796 0.075,0.84c0.423,0.415 3.534,1.246 8.164,1.018c2.306,-0.114 3.352,-0.529 4.413,-0.542c0.119,-0.001 0.105,-0.021 0.216,-0.062c0.261,-0.097 0.24,0.02 0.46,0.176c-4.466,1.155 -8.395,0.767 -9.123,0.695c-3.158,-0.312 -4.279,-0.451 -4.706,-1.771l0.007,-0.191c0.035,-0.15 0.027,-0.146 0.112,-0.275c0.092,-0.098 0.177,-0.168 0.193,-0.182c0.196,-0.084 0.19,-0.066 0.374,-0.191c0.072,-0.026 0.143,-0.052 0.215,-0.078c0.066,-0.014 0.458,-0.094 0.829,-0.166l0.109,-0.045c0.093,-0.009 0.186,-0.019 0.28,-0.028l0.2,-0.051c0.222,-0.014 0.443,-0.028 0.665,-0.041l0.095,-0.005c0.095,-0.008 0.19,-0.016 0.285,-0.023l0.108,-0.04c0.299,0.005 0.285,0.004 0.567,-0.048c1.389,-0.231 1.39,-0.026 2.784,-0.164c0.195,0.004 0.185,0.039 0.478,-0.019c0.066,-0.021 0.133,-0.041 0.199,-0.062c0.287,-0.005 0.272,-0.012 0.571,-0.042c1.212,-0.031 1.408,-0.168 1.643,-0.226c0.199,0.012 0.185,-0.003 0.37,-0.048c0.413,-0.018 0.4,-0.023 0.783,-0.141c0.152,0.006 0.136,-0.005 0.272,-0.048c1.124,-0.202 3.002,-0.717 3.472,-1.012c0.142,0.012 0.128,0.004 0.268,-0.049c0.114,-0.046 0.267,-0.079 0.29,-0.084c0.096,-0.033 0.191,-0.067 0.287,-0.1c0.058,-0.016 0.055,-0.017 1.251,-0.471c0.163,-0.027 0.149,-0.031 0.283,-0.109c0.412,-0.099 0.39,-0.139 0.803,-0.238c0.026,-0.005 0.052,-0.009 0.078,-0.014c0.09,-0.046 0.179,-0.092 0.269,-0.138c0.211,-0.008 0.199,-0.01 0.389,-0.079c0.034,-0.023 0.036,0.005 0.478,-0.2c0.36,-0.099 0.353,-0.08 0.579,-0.178c0.511,-0.22 1.178,-0.449 1.245,-0.488c0.157,-0.03 0.144,-0.033 0.284,-0.114c0.266,-0.106 0.268,-0.082 0.499,-0.237c0.144,0.02 0.134,0.013 0.272,-0.038c0.069,-0.017 0.138,-0.034 0.207,-0.051Z" style="fill:#b67e59;fill-opacity:0.98;"/><path d="M23.197,0.168c0.375,0.087 0.379,0.076 0.645,0.355c0.025,0.039 0.05,0.078 0.075,0.117c-0.023,0.125 -0.024,0.117 0.006,0.245c-0.032,0.052 -0.078,0.127 -0.341,0.69c-0.213,0.278 -0.179,0.285 -0.382,0.578c-0.118,0.159 -0.111,0.161 -0.123,0.172c-0.105,0.098 -0.095,0.09 -0.178,0.199c-0.308,0.417 -0.293,0.418 -0.668,0.771c-0.096,0.097 -0.176,0.176 -0.192,0.192c-0.251,0.186 -0.257,0.161 -0.495,0.361c-0.127,0.097 -0.254,0.195 -0.381,0.292l-0.109,0.089c-2.591,1.686 -6.123,2.594 -6.682,2.738c-0.22,-0.156 -0.198,-0.273 -0.46,-0.176c-0.11,0.041 -0.097,0.06 -0.216,0.062c-1.061,0.013 -2.108,0.428 -4.413,0.542c-4.63,0.228 -7.74,-0.603 -8.164,-1.018c0.053,-0.037 0.494,-0.339 0.763,-0.27c0.319,0.083 0.262,0.213 0.685,0.294c0.03,0.027 0.06,0.054 0.091,0.081c0.173,0.231 0.265,-0.239 0.493,-0.052c0.048,0.04 0.052,0.03 0.374,0.138c0.077,0.379 0.795,0.27 1.153,0.276c0.046,0.029 0.05,0.101 0.096,0.13c0.137,0.086 0.144,0.016 2.016,-0.081c0.123,0.004 1.351,0.042 1.535,-0.012c0.049,-0.014 0.045,-0.109 0.095,-0.121c0.215,-0.052 0.221,0.185 0.863,-0.015c0.051,0.032 -0.005,0.179 0.288,0.178c0.077,-0 0.814,-0.002 0.959,-0.058c0.05,-0.019 0.046,-0.108 0.096,-0.127c0.341,-0.031 0.342,0.024 0.67,-0.088c0.01,0.008 0.1,0.271 0.475,0.084c0.501,-0.251 1.044,-0.042 1.255,-0.264c0.278,-0.292 0.375,-0.139 0.663,-0.424c0.451,-0.077 1.01,-0.409 1.061,-0.449c0.095,-0.035 0.191,-0.07 0.286,-0.105c0.209,0.211 0.262,0.195 0.478,-0.001c0.114,0.06 0.257,0.288 1.272,-0.232c0.398,-0.232 0.427,-0.133 0.852,-0.31c0.302,-0.126 0.293,-0.128 0.593,-0.259c0.09,-0.064 0.18,-0.129 0.27,-0.193c0.093,-0.019 0.186,-0.038 0.279,-0.057c0.408,0.118 0.676,-0.263 0.884,-0.336c0.137,-0.032 0.125,-0.05 0.26,-0.061c0.236,-0.019 1.682,-1.084 1.734,-1.225c0.018,-0.048 -0.112,-0.072 -0.094,-0.12c0.072,-0.078 0.144,-0.155 0.216,-0.233l0.131,-0.161c0.065,0.035 0.068,0.141 0.133,0.176c0.077,0.042 0.704,-0.678 0.768,-0.647c0.05,0.024 0.055,0.104 0.105,0.128c0.62,-1.104 0.911,-1.327 0.562,-1.283c-0.029,0.004 -0.039,0.005 -0.275,0.233c-0.253,-0.38 -0.191,-0.414 -0.222,-0.439c-0.017,-0.013 -0.009,0.097 -0.265,0.028c-0.204,-0.055 -0.145,-0.133 -0.01,-0.301l0.201,-0.016l0.288,-0.016Z" style="fill:#734c3d;fill-opacity:0.99;"/><path d="M16.93,3.066c0.029,0.057 0.149,0.289 0.796,0.059c0.203,0.384 0.564,0.059 0.6,0.027c0.133,-0.063 0.121,-0.064 0.271,-0.059c-0.148,0.28 -0.123,0.286 -0.234,0.376c-0.167,0.135 -0.072,0.244 0.132,0.2c0.218,-0.048 0.183,0.043 0.291,0.243c-0.096,0.025 -0.192,0.05 -0.289,0.074c-0.06,-0.016 -0.256,-0.067 -0.764,0.14c-0.071,0.005 -0.665,0.046 -0.798,0.389c-0.262,0.678 -1.445,0.473 -1.898,0.976c-0.095,0.035 -0.191,0.07 -0.286,0.105c-0.774,-0.082 -1.166,0.351 -1.237,0.429c-0.184,0.016 -1.027,0.09 -2.218,0.625c-0.329,0.111 -0.33,0.057 -0.67,0.088l-0.097,-0.114c0.256,-0.089 0.347,-0.009 0.557,-0.491c0.056,0.038 0.059,0.13 0.115,0.167c0.06,0.041 0.703,-0.179 1.154,-0.403c1.034,-0.516 1.112,-0.255 2.176,-0.676c0.63,-0.068 0.471,-0.461 1.095,-0.548c0.17,-0.024 0.148,-0.049 0.238,-0.183c-0.582,-0.089 -0.665,-0.046 -1.297,0.547c-0.032,0.004 -0.029,0.008 -0.389,0.109c-0.466,-0.341 -0.495,-0.28 -1.062,-0.205c-1.185,0.07 -1.713,0.063 -2.206,0.464c-0.024,0.019 -0.148,0.12 -0.382,0.003c-0.202,-0.101 -0.201,-0.037 -0.387,0.078c-0.439,-0.174 -0.704,-0.101 -0.764,-0.084c-0.673,-0.12 -0.676,0.023 -1.359,-0.064c-0.218,-0.028 -0.219,-0.056 -0.404,0.057c-0.015,0.036 0.002,0.036 -0.006,0.488c-0.003,0.157 0.266,0.301 0.041,0.319c-0.139,0.011 -0.116,-0.023 -0.302,-0.167c-0.059,0.029 -0.118,0.058 -0.178,0.087c-0.063,-0.04 -0.126,-0.08 -0.19,-0.119c-0.262,0.061 -0.274,0.021 -0.479,0.164c-0.18,-0.079 -0.179,-0.08 -0.195,-0.086c-0.093,-0.034 -0.09,-0.011 -0.178,-0.043c-0.043,-0.021 -0.206,-0.1 -0.59,-0.054c-0.163,0.069 -0.154,0.057 -0.289,0.175c-0.485,0.009 -0.471,-0.093 -0.96,-0.085c-0.487,0.008 -0.48,0.082 -0.96,0.014c0.122,-0.524 -0.183,-0.327 -0.197,-0.302c-0.013,0.022 -0.007,0.022 -0.089,0.3c-0.351,-0.093 -0.525,-0.004 -0.472,-0.376c0.055,-0.024 0.379,-0.273 1.335,-0.293c3.736,-0.076 3.707,-0.384 4.031,-0.377c1.872,0.039 6.451,-1.224 7.002,-1.376c1.852,-0.511 1.826,-0.557 1.987,-0.598Z" style="fill:#c1875a;fill-opacity:0.99;"/><path d="M18.786,1.996c0.068,0.062 0.135,0.124 0.203,0.186c-1.377,0.628 -1.892,0.821 -2.059,0.884c-0.161,0.041 -0.134,0.087 -1.987,0.598c-0.55,0.152 -5.129,1.414 -7.002,1.376c-0.324,-0.007 -0.295,0.301 -4.031,0.377c-0.956,0.019 -1.28,0.269 -1.335,0.293c-0.053,0.372 0.121,0.283 0.472,0.376l0.286,0.002c0.48,0.068 0.473,-0.006 0.96,-0.014c0.489,-0.008 0.475,0.094 0.96,0.085c0.251,0.205 0.283,0.174 0.577,0.033c0.08,-0.039 0.089,-0.038 0.097,-0.037c0.13,0.014 0.095,-0.054 0.205,-0.117c0.088,0.032 0.085,0.009 0.178,0.043c0.016,0.006 0.014,0.006 0.195,0.086c0.544,0.332 0.579,0.184 1.244,0.243c0.061,-0.018 0.123,-0.037 0.184,-0.055c0.029,-0.022 0.006,-0.03 0.317,-0.332c0.052,-0.008 0.105,-0.017 0.157,-0.025c0.044,0.046 0.347,0.357 0.791,0.097c0.119,-0.072 0.108,-0.068 0.235,-0.103c-0.011,0.09 -0.023,0.181 -0.034,0.271c0.299,-0.057 0.226,-0.146 0.326,-0.303c0.016,-0.04 0.042,-0.107 0.4,-0.357l0.02,-0.116c0.186,-0.114 0.185,-0.179 0.387,-0.078c0.234,0.117 0.358,0.016 0.382,-0.003c0.493,-0.401 1.021,-0.394 2.206,-0.464c-0.248,0.295 -0.19,0.401 -0.572,0.443c-0.132,0.014 -0.066,0.109 -0.199,0.145c-0.034,0.009 -0.052,-0.072 -0.087,-0.063c-0.172,0.072 -0.194,0.045 -0.203,0.126c-0.001,0.01 0.071,0.128 -0.086,0.157c-0.469,0.088 -0.583,0.214 -0.884,0.384c-0.21,0.482 -0.301,0.402 -0.557,0.491c-0.662,-0.031 -0.696,-0.222 -1.247,0.12c-0.642,0.199 -0.648,-0.038 -0.863,0.015c-0.05,0.012 -0.045,0.106 -0.095,0.121c-0.184,0.054 -1.412,0.016 -1.535,0.012c-0.104,-0.057 -0.076,-0.11 -0.195,-0.106c-0.028,0.001 -0.118,-0.047 -0.382,-0.032c-0.724,0.041 -0.71,0.007 -1.439,0.001c-0.213,-0.131 -1.191,-0.193 -1.249,-0.188c-0.322,-0.108 -0.325,-0.098 -0.374,-0.138c-0.228,-0.187 -0.32,0.283 -0.493,0.052c-0.03,-0.027 -0.06,-0.054 -0.091,-0.081c-0.422,-0.081 -0.365,-0.211 -0.685,-0.294c-0.268,-0.069 -0.709,0.233 -0.763,0.27c-0.051,-0.044 -0.649,-0.559 -0.075,-0.84c0.376,-0.184 1.159,-0.566 5.169,-0.756c6.922,-0.327 9.355,-1.708 12.571,-2.783Z" style="fill:#905f46;fill-opacity:1;"/><path d="M23.01,1.098c-0.785,0.725 -1.028,1.096 -1.099,1.205l-0.131,0.161c-0.076,-0.004 -0.084,-0.223 -0.305,-0.016c-0.075,0.071 -0.04,0.085 -0.114,0.154c-0.492,0.242 -0.529,0.16 -0.953,0.499c-0.329,0.256 -0.354,0.2 -0.692,0.442c-0.259,-0.111 -0.265,-0.101 -0.427,-0.324c0.057,-0.232 0.073,-0.216 0.114,-0.455c1.11,-0.86 1.598,-1.075 1.751,-1.143c-0.155,0.307 -0.139,0.321 -0.167,0.331c-0.079,0.026 -0.084,0.01 -0.088,0.016c-0.2,0.339 0.345,-0.008 0.37,-0.024c0.392,-0.25 0.607,-0.274 0.646,-0.296c0.463,-0.258 0.549,-1.011 1.096,-0.551Z" style="fill:#cf8c5b;fill-opacity:0.99;"/><path d="M18.786,3.912l0.254,-0.068c0.031,0.031 -0.009,0.098 0.022,0.129c0.04,0.041 0.263,-0.104 0.283,-0.118c0.007,0.062 0.102,0.09 0.109,0.152c0.004,0.033 -0.444,0.255 -0.674,0.432c-0.093,0.019 -0.186,0.038 -0.279,0.057c-0.147,-0.048 -0.145,-0.084 -0.286,-0.027c-0.2,0.082 0.007,0.205 0.015,0.22c-0.3,0.131 -0.29,0.133 -0.593,0.259c-0.425,0.177 -0.454,0.078 -0.852,0.31c-0.189,-0.136 -0.2,-0.243 -0.375,-0.095c-0.376,0.318 -0.424,0.202 -0.897,0.327c-0.216,0.196 -0.269,0.212 -0.478,0.001c0.453,-0.503 1.635,-0.298 1.898,-0.976c0.133,-0.344 0.727,-0.385 0.798,-0.389c0.168,0.186 0.186,0.208 0.474,0.105c0.189,-0.068 0.175,-0.085 0.29,-0.245c0.096,-0.025 0.192,-0.05 0.289,-0.074Z" style="fill:#986247;fill-opacity:0.99;"/><path d="M13.118,4.941c0.567,-0.075 0.597,-0.136 1.062,0.205c0.36,-0.101 0.357,-0.105 0.389,-0.109c-0.012,0.061 -0.025,0.123 -0.037,0.184c-1.064,0.421 -1.143,0.161 -2.176,0.676c-0.45,0.225 -1.094,0.444 -1.154,0.403c-0.056,-0.038 -0.059,-0.13 -0.115,-0.167c0.301,-0.17 0.415,-0.296 0.884,-0.384c0.157,-0.03 0.085,-0.148 0.086,-0.157c0.009,-0.081 0.031,-0.053 0.203,-0.126c0.034,-0.009 0.052,0.072 0.087,0.063c0.133,-0.035 0.067,-0.13 0.199,-0.145c0.382,-0.042 0.325,-0.147 0.572,-0.443Z" style="fill:#aa714d;fill-opacity:1;"/><path d="M21.361,2.603c0.068,0.032 0.136,0.063 0.203,0.095c-0.018,0.048 0.112,0.072 0.094,0.12c-0.052,0.14 -1.498,1.206 -1.734,1.225c-0.135,0.011 -0.123,0.029 -0.26,0.061c0.072,-0.228 0.059,-0.237 0.077,-0.247c0.355,-0.196 0.335,-0.208 0.655,-0.46c0.141,-0.111 0.072,-0.132 0.012,-0.294c0.423,-0.339 0.46,-0.257 0.953,-0.499Z" style="fill:#905b43;fill-opacity:1;"/><path d="M23.204,0.911c0.236,-0.228 0.246,-0.23 0.275,-0.233c0.349,-0.044 0.058,0.18 -0.562,1.283c-0.05,-0.024 -0.055,-0.104 -0.105,-0.128c-0.063,-0.031 -0.69,0.688 -0.768,0.647c-0.065,-0.035 -0.068,-0.141 -0.133,-0.176c0.071,-0.109 0.314,-0.48 1.099,-1.205l0.194,-0.187Z" style="fill:#8e5841;fill-opacity:0.99;"/><path d="M7.617,5.395c0.184,-0.113 0.185,-0.085 0.404,-0.057c0.683,0.087 0.686,-0.056 1.359,0.064c0.047,0.257 0.068,0.241 0.052,0.59c-0.127,0.035 -0.116,0.031 -0.235,0.103c-0.132,-0.097 -0.133,-0.067 -0.277,-0.122c-0.171,-0.066 -0.528,-0.758 -0.515,0.025c-0.052,0.008 -0.105,0.017 -0.157,0.025c-0.077,-0.321 -0.532,-0.554 -0.632,-0.628Z" style="fill:#a56d4b;fill-opacity:1;"/><path d="M7.617,5.395c0.1,0.074 0.554,0.307 0.632,0.628c-0.311,0.302 -0.287,0.31 -0.317,0.332c-0.061,0.018 -0.123,0.037 -0.184,0.055c-0.665,-0.059 -0.699,0.089 -1.244,-0.243c0.205,-0.144 0.216,-0.103 0.479,-0.164c0.063,0.04 0.126,0.08 0.19,0.119c0.059,-0.029 0.118,-0.058 0.178,-0.087c0.186,0.144 0.163,0.178 0.302,0.167c0.225,-0.018 -0.044,-0.162 -0.041,-0.319c0.008,-0.453 -0.01,-0.453 0.006,-0.488Z" style="fill:#af7850;fill-opacity:1;"/><path d="M13.515,6.025l0.175,0.02c-0.287,0.285 -0.385,0.133 -0.663,0.424c-0.211,0.222 -0.754,0.013 -1.255,0.264c-0.375,0.188 -0.465,-0.075 -0.475,-0.084c1.191,-0.535 2.034,-0.609 2.218,-0.625Z" style="fill:#724b3c;fill-opacity:1;"/><path d="M20.409,3.102c0.061,0.162 0.129,0.183 -0.012,0.294c-0.321,0.252 -0.3,0.264 -0.655,0.46c-0.018,0.01 -0.006,0.018 -0.077,0.247c-0.208,0.073 -0.476,0.455 -0.884,0.336c0.229,-0.176 0.678,-0.399 0.674,-0.432c-0.007,-0.062 -0.102,-0.09 -0.109,-0.152c0.03,-0.024 0.206,-0.162 0.372,-0.311c0.338,-0.242 0.363,-0.186 0.692,-0.442Z" style="fill:#945e44;fill-opacity:0.99;"/><path d="M9.38,5.402c0.059,-0.016 0.325,-0.09 0.764,0.084l-0.02,0.116c-0.357,0.25 -0.384,0.317 -0.4,0.357c-0.1,0.158 -0.026,0.247 -0.326,0.303c0.011,-0.09 0.023,-0.181 0.034,-0.271c0.016,-0.349 -0.005,-0.332 -0.052,-0.59Z" style="fill:#bc8154;fill-opacity:1;"/><path d="M15.866,4.489c-0.09,0.134 -0.068,0.16 -0.238,0.183c-0.624,0.087 -0.465,0.48 -1.095,0.548c0.012,-0.061 0.025,-0.123 0.037,-0.184c0.632,-0.594 0.715,-0.637 1.297,-0.547Z" style="fill:#9b6145;fill-opacity:1;"/><path d="M4.774,6.755c0.729,0.005 0.715,0.039 1.439,-0.001c0.265,-0.015 0.355,0.033 0.382,0.032c0.119,-0.004 0.09,0.049 0.195,0.106c-1.872,0.098 -1.879,0.167 -2.016,0.081c-0.046,-0.029 -0.05,-0.101 -0.096,-0.13l0.096,-0.088Z" style="fill:#664438;fill-opacity:1;"/><path d="M10.53,6.624l0.097,0.114c-0.05,0.019 -0.046,0.108 -0.096,0.127c-0.146,0.055 -0.883,0.057 -0.959,0.058c-0.294,0.001 -0.237,-0.146 -0.288,-0.178c0.551,-0.342 0.586,-0.151 1.247,-0.12Z" style="fill:#7a513f;fill-opacity:1;"/><path d="M8.406,5.998c-0.014,-0.783 0.344,-0.091 0.515,-0.025c0.143,0.055 0.145,0.025 0.277,0.122c-0.444,0.261 -0.747,-0.051 -0.791,-0.097Z" style="fill:#c9925e;fill-opacity:0.99;"/><path d="M3.524,6.567c0.058,-0.005 1.036,0.057 1.249,0.188l-0.096,0.088c-0.359,-0.006 -1.076,0.102 -1.153,-0.276Z" style="fill:#6f4a3c;fill-opacity:1;"/><path d="M16.787,5.258c-1.015,0.52 -1.158,0.292 -1.272,0.232c0.473,-0.125 0.521,-0.009 0.897,-0.327c0.175,-0.148 0.187,-0.042 0.375,0.095Z" style="fill:#825541;fill-opacity:1;"/><path d="M14.751,5.596c-0.052,0.04 -0.611,0.372 -1.061,0.449l-0.175,-0.02c0.07,-0.078 0.463,-0.511 1.237,-0.429Z" style="fill:#885943;fill-opacity:0.99;"/><path d="M5.541,5.984c0.384,-0.046 0.547,0.033 0.59,0.054c-0.11,0.063 -0.075,0.131 -0.205,0.117c-0.008,-0.001 -0.017,-0.002 -0.097,0.037c-0.294,0.142 -0.325,0.172 -0.577,-0.033c0.135,-0.117 0.125,-0.106 0.289,-0.175Z" style="fill:#a46f4c;fill-opacity:1;"/><path d="M18.786,1.996c0.242,-0.258 0.357,-0.377 0.603,-0c-0.206,0.102 -0.193,0.096 -0.4,0.186c-0.068,-0.062 -0.135,-0.124 -0.203,-0.186Z" style="fill:#ba7950;fill-opacity:0.99;"/><path d="M18.497,3.986c-0.116,0.16 -0.101,0.178 -0.29,0.245c-0.287,0.102 -0.305,0.081 -0.474,-0.105c0.508,-0.207 0.704,-0.156 0.764,-0.14Z" style="fill:#b1744e;fill-opacity:0.99;"/><path d="M19.289,3.22c0.163,0.222 0.169,0.213 0.427,0.324c-0.166,0.149 -0.341,0.287 -0.372,0.311c0.031,-0.201 -0.042,-0.175 -0.131,-0.307c0.025,-0.109 0.05,-0.218 0.075,-0.327Z" style="fill:#a86c4a;fill-opacity:0.99;"/><path d="M11.135,5.634c0.018,-0.011 0.404,-0.234 0.449,-0.249c0.466,-0.151 -0.219,0.65 -0.449,0.249Z" style="fill:#9c6446;fill-opacity:1;"/><path d="M17.726,3.125c0.305,-0.09 0.318,-0.134 0.6,0.027c-0.036,0.032 -0.397,0.357 -0.6,-0.027Z" style="fill:#d79663;fill-opacity:0.99;"/><path d="M2.862,4.682c0.088,-0.14 0.075,-0.138 0.088,-0.14c0.287,-0.032 0.339,-0.172 0.576,0.098c-0.222,0.014 -0.443,0.028 -0.665,0.041Z" style="fill:#926953;fill-opacity:0.07;"/><path d="M21.781,2.465c-0.072,0.078 -0.144,0.155 -0.216,0.233c-0.068,-0.032 -0.136,-0.063 -0.203,-0.095c0.074,-0.069 0.039,-0.083 0.114,-0.154c0.221,-0.208 0.23,0.012 0.305,0.016Z" style="fill:#b0714d;fill-opacity:0.99;"/><path d="M23.197,0.168c0.182,-0.069 0.17,-0.06 0.182,-0.069c0.29,-0.215 0.467,0.293 0.463,0.424c-0.266,-0.279 -0.271,-0.267 -0.645,-0.355Z" style="fill:#ac7c62;fill-opacity:0.13;"/><path d="M3.047,6.085c0.082,-0.277 0.076,-0.278 0.089,-0.3c0.014,-0.025 0.319,-0.222 0.197,0.302l-0.286,-0.002Z" style="fill:#a06e4e;fill-opacity:1;"/><path d="M19.214,3.547c0.089,0.133 0.161,0.107 0.131,0.307c-0.021,0.013 -0.243,0.159 -0.283,0.118c-0.031,-0.031 0.009,-0.098 -0.022,-0.129c0.167,-0.28 0.168,-0.279 0.174,-0.296Z" style="fill:#804c39;fill-opacity:0.99;"/><path d="M15.689,3.875c0.429,-0.536 0.53,-0.237 0.528,-0.192c-0.006,0.142 -0.483,0.188 -0.528,0.192Z" style="fill:#b3744e;fill-opacity:0.99;"/><path d="M23.584,1.574c0.005,0.055 0.04,0.456 -0.382,0.578c0.203,-0.293 0.169,-0.301 0.382,-0.578Z" style="fill:#916551;fill-opacity:0.12;"/><path d="M22.04,3.487c-0.078,0.249 -0.073,0.247 -0.096,0.29c-0.146,0.08 -0.144,0.061 -0.303,0.068l-0.096,0.003c0.238,-0.2 0.244,-0.174 0.495,-0.361Z" style="fill:#94634f;fill-opacity:0.13;"/><path d="M4.014,4.573c0.191,-0.274 0.25,-0.159 0.567,-0.048c-0.281,0.053 -0.268,0.054 -0.567,0.048Z" style="fill:#a4775e;fill-opacity:0.09;"/><path d="M7.365,4.36c0.174,-0.047 0.174,-0.046 0.289,-0.191c0.013,-0.016 0.107,-0.134 0.189,0.172c-0.294,0.058 -0.284,0.023 -0.478,0.019Z" style="fill:#8b634e;fill-opacity:0.1;"/><path d="M18.502,4.496c-0.09,0.064 -0.18,0.129 -0.27,0.193c-0.008,-0.015 -0.215,-0.138 -0.015,-0.22c0.14,-0.057 0.139,-0.022 0.286,0.027Z" style="fill:#865640;fill-opacity:1;"/><path d="M1.23,5.051c-0.184,0.125 -0.178,0.107 -0.374,0.191c0.04,-0.098 -0.036,-0.274 0.374,-0.191Z" style="fill:#956954;fill-opacity:0.14;"/><path d="M8.042,4.279c0.289,-0.089 0.29,-0.151 0.571,-0.042c-0.3,0.03 -0.284,0.037 -0.571,0.042Z" style="fill:#996c54;fill-opacity:0.15;"/><path d="M3.621,4.636c0.061,-0.201 0.172,-0.254 0.285,-0.023c-0.095,0.008 -0.19,0.016 -0.285,0.023Z" style="fill:#9f7159;fill-opacity:0.08;"/><path d="M19.549,1.279c-0.442,0.205 -0.443,0.177 -0.478,0.2c0.13,-0.264 0.187,-0.203 0.478,-0.2Z" style="fill:#8e614b;fill-opacity:0.15;"/><path d="M18.6,1.509l0.085,-0.035c0.194,0.021 0.355,0.007 0.386,0.005c-0.19,0.07 -0.178,0.071 -0.389,0.079c-0.061,0.012 -0.122,0.024 -0.183,0.037l0.101,-0.086Z" style="fill:#95654d;fill-opacity:0.27;"/><path d="M2.383,4.762c0.167,-0.289 0.219,-0.083 0.28,-0.028c-0.093,0.009 -0.186,0.019 -0.28,0.028Z" style="fill:#a7785e;fill-opacity:0.1;"/><path d="M2.505,5.743c-0.042,0.232 -0.145,0.347 -0.258,0.138c-0.011,-0.021 0.018,-0.01 0.258,-0.138Z" style="fill:#92664d;fill-opacity:0.99;"/><path d="M17.533,1.948c-0.134,0.079 -0.121,0.082 -0.283,0.109c0.105,-0.133 0.116,-0.098 0.283,-0.109Z" style="fill:#ae775a;fill-opacity:0.15;"/><path d="M21.657,0.499c-0.139,0.081 -0.127,0.084 -0.284,0.114c0.108,-0.126 0.117,-0.096 0.284,-0.114Z" style="fill:#b07c5e;fill-opacity:0.17;"/><path d="M18.685,1.474c0.193,-0.071 0.188,-0.073 0.386,0.005c-0.031,0.003 -0.191,0.016 -0.386,-0.005Z" style="fill:#865b46;fill-opacity:0.1;"/><path d="M0.663,5.423c-0.085,0.13 -0.076,0.125 -0.112,0.275c-0.062,-0.166 -0.045,-0.183 0.112,-0.275Z" style="fill:#886049;fill-opacity:0.19;"/><path d="M10.256,4.011c0.123,-0.016 0.247,-0.032 0.37,-0.048c-0.185,0.045 -0.171,0.059 -0.37,0.048Z" style="fill:#a17255;fill-opacity:0.21;"/><path d="M13.888,5.232c-0.104,-0.07 -0.23,0.005 -0.164,-0.109c0.067,-0.116 0.054,0.036 0.164,0.109Z" style="fill:#b67950;fill-opacity:1;"/><path d="M22.156,0.262c0.147,-0.033 0.132,-0.029 0.272,-0.038c-0.138,0.052 -0.128,0.058 -0.272,0.038Z" style="fill:#a57152;fill-opacity:0.22;"/><path d="M22.635,0.173c0.151,-0.034 0.137,-0.017 0.273,0.01l-0.201,0.016l-0.073,-0.026Z" style="fill:#a47259;fill-opacity:0.27;"/><path d="M23.918,0.639c0.022,0.129 0.022,0.114 0.006,0.245c-0.03,-0.128 -0.029,-0.12 -0.006,-0.245Z" style="fill:#aa7b5e;fill-opacity:0.23;"/><path d="M18.499,1.595c0.061,-0.012 0.122,-0.024 0.183,-0.037c-0.09,0.046 -0.179,0.092 -0.269,0.138l0.085,-0.101Z" style="fill:#9d6b50;fill-opacity:0.43;"/><path d="M15.153,2.761c0.089,-0.016 0.179,-0.032 0.268,-0.049c-0.14,0.053 -0.126,0.06 -0.268,0.049Z" style="fill:#98694d;fill-opacity:0.28;"/><path d="M11.41,3.822c0.091,-0.016 0.181,-0.032 0.272,-0.048c-0.136,0.043 -0.12,0.055 -0.272,0.048Z" style="fill:#9a6d52;fill-opacity:0.26;"/><path d="M15.999,2.528c-0.096,0.033 -0.191,0.067 -0.287,0.1c0.096,-0.033 0.191,-0.067 0.287,-0.1Z" style="fill:#9c694f;fill-opacity:0.35;"/></svg>