<?xml version="1.0" encoding="UTF-8" standalone="no"?><!DOCTYPE svg PUBLIC "-//W3C//DTD SVG 1.1//EN" "http://www.w3.org/Graphics/SVG/1.1/DTD/svg11.dtd"><svg width="100%" height="100%" viewBox="0 0 24 22" version="1.1" xmlns="http://www.w3.org/2000/svg" xmlns:xlink="http://www.w3.org/1999/xlink" xml:space="preserve" xmlns:serif="http://www.serif.com/" style="fill-rule:evenodd;clip-rule:evenodd;stroke-linejoin:round;stroke-miterlimit:2;"><g id="Background"><path d="M11.498,0.342c0.188,0.066 0.375,0.132 0.563,0.198c0.05,0.024 0.343,0.161 0.621,0.308l0.272,0.158l0.426,0.28c0.478,0.331 0.481,0.321 0.622,0.445c0.076,0.064 0.152,0.128 0.228,0.192c0.064,0.056 0.128,0.112 0.191,0.169c0.41,0.39 0.391,0.397 0.826,0.875c0.07,0.099 0.14,0.197 0.21,0.296c0.074,0.117 0.148,0.234 0.221,0.35l0.078,0.142c0.135,0.256 0.13,0.25 0.257,0.513l0.075,0.221c0.027,0.095 0.053,0.19 0.08,0.286c0.03,0.12 0.061,0.239 0.091,0.359c0.013,0.147 0.026,0.294 0.038,0.441c-0.009,0.195 -0.018,0.39 -0.028,0.584c-0.08,0.407 -0.108,0.409 -0.085,0.435c0,0 0.511,0.151 0.555,0.164c0.394,0.14 0.389,0.128 0.766,0.294c0.208,0.113 0.206,0.105 0.415,0.217c0.19,0.124 0.181,0.127 0.374,0.255c0.133,0.106 0.267,0.212 0.4,0.319c0.342,0.301 0.334,0.303 0.618,0.662c0.143,0.215 0.138,0.208 0.284,0.431c0.019,0.039 0.142,0.289 0.229,0.501c0.023,0.073 0.046,0.147 0.069,0.22l0.037,0.154c0.083,0.326 0.075,0.319 0.096,0.649l-0.005,0.364c-0.031,0.268 -0.03,0.261 -0.106,0.519c-0.112,0.38 0.229,0.342 0.67,0.516c0.365,0.168 0.357,0.163 0.427,0.198c0.539,0.305 0.899,0.608 0.971,0.669c0.289,0.245 0.282,0.241 0.548,0.522c0.202,0.215 0.507,0.67 0.548,0.731l0.205,0.364c0.221,0.528 0.237,0.514 0.351,1.078l0.058,0.359c0.005,0.285 0.01,0.278 0.004,0.514c-0.014,0.258 -0.017,0.251 -0.06,0.507c-0.062,0.287 -0.244,1.863 -2.081,2.821c-1.919,1.001 -6.355,1.345 -7.401,1.378c-10.176,0.32 -13.334,-1.214 -13.961,-4.129c-0.056,-0.402 -0.057,-0.4 -0.06,-0.435c-0.012,-0.111 0.002,-0.102 -0.01,-0.219c0.002,-0.169 0.004,-0.338 0.006,-0.506c0.053,-0.457 0.03,-0.454 0.159,-0.885c0.084,-0.212 0.168,-0.424 0.251,-0.635c0.026,-0.047 0.053,-0.095 0.079,-0.142c0.63,-0.942 0.843,-1.173 1.851,-1.709c0.525,-0.239 0.881,-0.064 0.727,-0.644l-0.017,-0.143c0,-0.194 0,-0.388 0,-0.583l0.009,-0.072c0.104,-0.405 0.102,-0.395 0.229,-0.788c0.038,-0.077 0.077,-0.154 0.115,-0.23c0.34,-0.572 0.372,-0.538 0.577,-0.78c0.232,-0.203 0.221,-0.203 0.469,-0.384c0.216,-0.146 0.209,-0.141 0.424,-0.275c0.442,-0.227 0.438,-0.226 0.909,-0.36c0.1,-0.102 0.11,-0.105 0.076,-0.253c-0.076,-0.328 -0.063,-0.325 -0.127,-0.654l-0.004,-0.145l-0.002,-0.072l0.005,-0.143c0.026,-0.174 0.053,-0.347 0.079,-0.521c0.115,-0.364 0.119,-0.356 0.267,-0.705c0.096,-0.141 0.193,-0.282 0.289,-0.423c0.344,-0.38 0.33,-0.391 0.743,-0.677l0.08,-0.054c0.251,-0.159 0.249,-0.143 0.689,-0.367l0.212,-0.078l0.14,-0.059l0.066,-0.016c0.183,-0.061 0.366,-0.121 0.549,-0.182l0.227,-0.096c0.091,-0.03 0.183,-0.061 0.274,-0.091c0.44,-0.185 0.426,-0.196 0.844,-0.436c0.496,-0.416 0.665,-0.53 0.503,-1.263c-0.047,-0.147 -0.093,-0.293 -0.14,-0.44c-0.094,-0.405 -0.095,-0.408 0.007,-0.773c0.298,-0.374 0.381,-0.326 0.803,-0.291Z" style="fill:#5f2c18;fill-opacity:0.99;"/><path d="M19.891,12.78c0.164,0.028 0.91,0.156 1.721,1.205c0.494,0.638 0.389,0.898 0.95,0.845c0.19,0.561 0.152,0.599 0.157,0.657c-0.867,0.793 -0.59,2.225 -4.373,3.404c-5.273,1.642 -14.342,0.289 -14.757,-3.474c-0.147,-1.331 1.273,-0.943 2.319,-0.903c0.44,0.016 0.613,0.057 0.629,0.055c0.011,-0.002 -0.042,-0.034 0.077,-0.128c0.034,-0.027 0.031,0.043 0.066,0.016c0.095,0.02 0.949,0.194 1.212,0.109c1.338,0.165 4.541,0.055 6.193,-0.196c0.245,0.245 0.261,0.223 0.273,0.251c0.075,0.163 0.122,-0.101 0.286,-0.069c0.294,0.057 0.349,-0.157 0.561,-0.003c0.038,0.028 2.121,0.601 4.686,-1.767Z" style="fill:#dc894a;fill-opacity:1;"/><path d="M15.541,7.528c1.821,0.701 1.913,0.763 2.764,2.109c0.101,0.16 0.418,0.3 0.461,-0.2c0.008,-0.098 0.044,-0.073 0.093,-0.153c0.326,0.738 0.366,1.153 0.148,1.911c-0.356,-0.253 -0.431,-0.267 -0.717,0.07c-0.363,0.428 -1.924,2.266 -6.369,2.627c-4.964,0.403 -6.225,-2.258 -6.318,-3.066c-0.177,-1.53 2.084,-1.316 2.262,-1.429c0.043,-0.027 0.032,-0.11 0.075,-0.137c0.128,0.024 1.055,0.199 1.619,0.046c0.867,-0.172 0.921,0.135 2.845,-0.511c1.78,-0.154 2.266,-0.503 3.136,-1.267Z" style="fill:#db884a;fill-opacity:1;"/><path d="M6.68,14.457c-0.035,0.027 -0.032,-0.043 -0.066,-0.016c-0.119,0.094 -0.066,0.126 -0.077,0.128c-0.015,0.002 -0.188,-0.038 -0.629,-0.055c-1.045,-0.039 -2.466,-0.428 -2.319,0.903c0.415,3.763 9.484,5.116 14.757,3.474c3.784,-1.178 3.506,-2.611 4.373,-3.404c0.022,0.268 0.445,2.425 -2.064,3.634c-0.562,0.271 -2.659,1.282 -7.615,1.429c-10.563,0.313 -11.377,-2.61 -11.452,-2.739c-1.847,-3.208 1.616,-5.342 2.008,-4.945c1.106,1.121 1.323,1.04 3.083,1.589Z" style="fill:#b96533;fill-opacity:1;"/><path d="M11.922,1.195c2.46,1.139 4.897,3.883 2.593,6.28c-0.074,0.008 -0.028,-0.087 -0.096,-0.08c-0.012,0.001 0.013,0.023 -0.12,0.103c-0.768,0.463 -2.186,0.834 -2.382,0.886c-0.292,0.076 -0.207,-0.382 -0.765,-0.372c-0.265,0.005 -2.564,0.048 -3.027,-1.41c-0.378,-1.188 0.772,-1.488 1.558,-1.762c2.188,-0.762 2.455,-2.644 1.991,-2.919c-0.089,-0.472 -0.226,-0.657 -0.247,-0.723c-0.053,-0.169 0.457,-0.014 0.495,-0.002Z" style="fill:#d88548;fill-opacity:1;"/><path d="M7.941,9.261c-0.043,0.027 -0.032,0.11 -0.075,0.137c-0.178,0.112 -2.439,-0.102 -2.262,1.429c0.093,0.808 1.354,3.468 6.318,3.066c4.445,-0.36 6.006,-2.199 6.369,-2.627c0.286,-0.337 0.362,-0.323 0.717,-0.07c-1.084,2.617 -4.356,2.68 -4.634,3.121c-0.131,0.029 -0.13,0.029 -0.141,0.032c-0.073,0.014 -0.068,0.006 -0.147,0.021c-1.652,0.252 -4.855,0.361 -6.193,0.196c-0.083,-0.107 -0.078,-0.113 -0.089,-0.115c-0.242,-0.053 -1.842,-0.402 -2.851,-1.25c-2.502,-2.101 0.451,-4.675 1.453,-4.454c0.542,0.12 0.481,0.322 1.536,0.514Z" style="fill:#ba6634;fill-opacity:1;"/><path d="M11.674,1.921c0.464,0.275 0.197,2.158 -1.991,2.919c-0.786,0.274 -1.936,0.574 -1.558,1.762c0.464,1.458 2.762,1.415 3.027,1.41c0.557,-0.01 0.473,0.449 0.765,0.372c0.196,-0.051 1.615,-0.423 2.382,-0.886c0.133,-0.08 0.108,-0.101 0.12,-0.103c0.068,-0.007 0.022,0.088 0.096,0.08c-1.575,1.399 -2.004,0.868 -2.11,1.32c-1.923,0.646 -1.978,0.339 -2.845,0.511c-0.006,-0.009 -0.077,-0.11 -0.077,-0.11c-0.293,-0.047 -3.061,-0.488 -2.743,-2.604c0.443,-2.946 4.8,-1.465 4.934,-4.672Z" style="fill:#b46130;fill-opacity:1;"/><path d="M19.891,12.78c-2.565,2.368 -4.647,1.795 -4.686,1.767c-0.212,-0.154 -0.267,0.061 -0.561,0.003c-0.164,-0.032 -0.211,0.232 -0.286,0.069c-0.013,-0.027 -0.028,-0.005 -0.273,-0.251c0.079,-0.015 0.074,-0.007 0.147,-0.021c0.011,-0.002 0.01,-0.002 0.141,-0.032c0.326,0.081 1.641,-0.136 2.575,-0.457c1.936,-0.665 2.408,-1.664 2.668,-1.592c1.999,0.552 2.565,1.678 2.946,2.563c-0.561,0.052 -0.457,-0.207 -0.95,-0.845c-0.811,-1.049 -1.558,-1.177 -1.721,-1.205Z" style="fill:#eda464;fill-opacity:0.99;"/><path d="M20.607,13.638c1.482,1.023 -2.241,2.614 -2.293,1.269c-0.013,-0.342 0.266,-0.33 0.999,-0.902c0.366,-0.286 0.698,-0.601 1.294,-0.367Z" style="fill:#fec688;fill-opacity:1;"/><path d="M15.487,10.046c-0.026,-0.004 -0.754,0.017 -0.81,-0.394c-0.036,-0.267 0.341,-0.437 0.384,-0.456c0.9,-0.406 1.23,-0.852 1.686,-0.787c1.024,0.147 0.933,1.568 -1.26,1.637Z" style="fill:#fec689;fill-opacity:0.99;"/><path d="M15.541,7.528c0.06,-0.054 0.098,-0.186 0.368,-0.147c1.748,0.25 2.364,0.866 2.951,1.903c-0.049,0.081 -0.085,0.055 -0.093,0.153c-0.043,0.5 -0.359,0.36 -0.461,0.2c-0.851,-1.347 -0.943,-1.408 -2.764,-2.109Z" style="fill:#f5b372;fill-opacity:0.99;"/><path d="M13.295,3.813c0.246,-0.548 0.956,-0.142 1.115,0.383c0.289,0.948 -1.327,0.961 -1.115,-0.383Z" style="fill:#fec687;fill-opacity:1;"/><path d="M14.02,9.395c0.546,0.134 0.387,0.488 -0.142,0.695c-0.412,0.161 -0.731,-0.544 0.142,-0.695Z" style="fill:#fec687;fill-opacity:1;"/><path d="M17.004,15.343c0.014,-0.052 0.142,-0.532 0.563,-0.33c0.45,0.216 -0.374,1.039 -0.563,0.33Z" style="fill:#fec484;fill-opacity:0.99;"/><path d="M12.989,4.788c0.041,-0.021 0.396,-0.202 0.553,0.12c0.202,0.417 -0.92,0.592 -0.553,-0.12Z" style="fill:#fec584;fill-opacity:1;"/><path d="M14.192,3.454c0.021,-0.092 0.012,-0.092 0.04,-0.134c0.02,-0.03 0.142,-0.195 0.346,0.284c0.058,0.135 -0.057,0.046 -0.276,-0.009c-0.099,-0.135 -0.104,-0.127 -0.11,-0.14Z" style="fill:#e79b5b;fill-opacity:1;"/><path d="M16.364,5.502c0.074,0.164 0.262,0.205 -0.038,0.623l-0.056,0.034c0.009,-0.195 0.018,-0.39 0.028,-0.584l0.066,-0.072Z" style="fill:#723e29;fill-opacity:0.08;"/><path d="M15.758,3.755c0.022,0.001 0.029,-0.046 0.051,-0.045c0.47,0.012 0.226,0.516 0.206,0.559c-0.127,-0.263 -0.122,-0.257 -0.257,-0.513Z" style="fill:#7d452f;fill-opacity:0.05;"/><path d="M12.954,1.006c0.082,-0.047 0.076,-0.085 0.163,-0.039c0.021,0.011 0.246,0.048 0.276,0.08c0.09,0.097 0.027,0.108 -0.012,0.239l-0.426,-0.28Z" style="fill:#79432e;fill-opacity:0.04;"/><path d="M18.296,7.524c0.178,-0.146 0.191,-0.042 0.391,0.051c0.087,0.04 0.016,0.248 0.009,0.268c-0.133,-0.106 -0.267,-0.212 -0.4,-0.319Z" style="fill:#643624;fill-opacity:0.04;"/><path d="M8.979,3.732c-0.183,0.061 -0.366,0.121 -0.549,0.182c0.131,-0.196 0.122,-0.204 0.141,-0.211c0.302,-0.123 0.389,0.002 0.408,0.03Z" style="fill:#703c27;fill-opacity:0.07;"/><path d="M15.459,3.263c0.372,-0.084 0.381,0.125 0.221,0.35c-0.074,-0.117 -0.148,-0.234 -0.221,-0.35Z" style="fill:#77402c;fill-opacity:0.06;"/><path d="M0.133,15.711c-0.002,0.169 -0.004,0.338 -0.006,0.506c-0.061,-0.033 -0.294,-0.091 -0.185,-0.228c0.067,-0.084 0.177,-0.256 0.191,-0.279Z" style="fill:#7b442f;fill-opacity:0.1;"/><path d="M3.185,10.969c-0,0.194 -0,0.388 -0,0.583c-0.245,-0.189 -0.162,-0.484 0,-0.583Z" style="fill:#703c29;fill-opacity:0.13;"/><path d="M17.508,7.052c0.036,-0.024 0.041,-0.082 0.077,-0.106c0.067,-0.046 0.109,0.026 0.114,0.035c0.075,0.131 0.107,0.065 0.152,0.085c0.015,0.007 0.049,0.022 0.072,0.203c-0.208,-0.112 -0.207,-0.103 -0.415,-0.217Z" style="fill:#6c3c2a;fill-opacity:0.09;"/><path d="M23.697,15.779c0.097,-0.036 0.112,-0.162 0.149,-0.056c0.011,0.032 -0.078,0.024 -0.057,0.424c0.001,0.014 -0.007,0.011 -0.088,0.146c0.006,-0.236 0.001,-0.229 -0.004,-0.514Z" style="fill:#63392b;fill-opacity:0.15;"/><path d="M5.936,6.309l0.009,-0.016c-0.026,0.174 -0.053,0.347 -0.079,0.521c-0.221,-0.328 -0.081,-0.357 0.071,-0.506Z" style="fill:#713b28;fill-opacity:0.14;"/><path d="M9.481,3.545c-0.091,0.03 -0.183,0.061 -0.274,0.091c0.002,-0.022 0.048,-0.601 0.169,-0.218c0.034,0.106 0.098,0.117 0.105,0.127Z" style="fill:#603323;fill-opacity:0.05;"/><path d="M14.003,1.731c0.002,-0.001 0.353,-0.25 0.228,0.192c-0.076,-0.064 -0.152,-0.128 -0.228,-0.192Z" style="fill:#713e2a;fill-opacity:0.07;"/><path d="M16.26,5.134c0.142,0.102 0.129,0.121 0.104,0.368l-0.066,0.072c-0.013,-0.147 -0.026,-0.294 -0.038,-0.441Z" style="fill:#5e3422;fill-opacity:0.21;"/><path d="M16.09,4.489c0.013,0.005 0.161,0.065 0.161,0.065c0.068,0.078 0.009,0.083 -0.081,0.22c-0.027,-0.095 -0.053,-0.19 -0.08,-0.286Z" style="fill:#75412e;fill-opacity:0.12;"/><path d="M0.623,14.048c-0.026,0.047 -0.053,0.095 -0.079,0.142c-0.08,-0.145 -0.09,-0.142 -0.086,-0.156c0.002,-0.008 0.03,-0.095 0.063,-0.079c0.04,0.021 0.062,0.072 0.102,0.092Z" style="fill:#663523;fill-opacity:0.08;"/><path d="M8.365,3.93l-0.14,0.059c-0.009,-0.029 -0.036,-0.049 -0.045,-0.077c-0.048,-0.147 0.061,-0.067 0.186,0.018Z" style="fill:#6f3c28;fill-opacity:0.07;"/><path d="M19.895,9.655c0.312,-0.11 0.063,0.115 0.037,0.154l-0.037,-0.154Z" style="fill:#743f2b;fill-opacity:0.07;"/></g></svg>