<?xml version="1.0" encoding="UTF-8" standalone="no"?><!DOCTYPE svg PUBLIC "-//W3C//DTD SVG 1.1//EN" "http://www.w3.org/Graphics/SVG/1.1/DTD/svg11.dtd"><svg width="100%" height="100%" viewBox="0 0 18 5" version="1.1" xmlns="http://www.w3.org/2000/svg" xmlns:xlink="http://www.w3.org/1999/xlink" xml:space="preserve" xmlns:serif="http://www.serif.com/" style="fill-rule:evenodd;clip-rule:evenodd;stroke-linejoin:round;stroke-miterlimit:2;"><path d="M8.26,0.497c0.081,0.069 0.162,0.138 0.242,0.207c-0.51,0.164 -0.508,-0.009 -1.048,-0.009c-0.083,-0.012 -0.076,-0.007 -1.044,-0.105c-0.36,-0.013 -0.348,-0.021 -0.696,0.016c-0.878,-0.557 -1.792,-0.341 -2.223,0.066c-0.075,0.054 -0.15,0.109 -0.225,0.163c-0.239,-0.088 -0.411,-0.109 -0.448,-0.113c-0.036,0.041 -0.073,0.081 -0.109,0.122l-0.127,0.071c-0.463,-0.015 -0.457,-0.018 -0.523,-0.013c0.431,-0.41 -0.29,-0.147 -0.336,0.019c-0.142,0.507 0.099,0.723 0.504,0.376c0.517,0.359 0.529,0.063 0.669,-0.042c0.293,0.286 0.342,0.283 0.38,0.282c0.721,-0.036 1.033,0.04 0.902,-0.67c0.658,-0.069 0.647,0.12 1.313,0.059c0.162,-0.015 0.32,0.132 0.32,0.134c0.008,0.043 -0.115,0.031 -0.107,0.074l-0.105,0.044c-0.018,0.01 -0.498,0.405 0.119,0.228c0.235,-0.059 0.228,-0.045 0.334,-0.101c0.191,-0.015 0.383,-0.029 0.574,-0.044c0.257,0.419 0.349,0.299 0.839,0.217l0.12,-0.006c0.462,0.107 0.841,0.137 0.915,0.142c0.232,0.168 0.217,0.187 0.348,0.211c0,0.124 -0.116,0.07 -0.116,0.195c0,0.01 0,0.022 0.116,0.058c0.432,0.133 0.638,0.529 1.393,0.143c0.067,0.039 0.134,0.078 0.201,0.116l0.007,0.246c0.173,0.326 0.035,0.622 0.372,0.456c0.141,-0.07 0.12,-0.082 0.309,-0.28c0.278,-0.138 0.268,-0.131 0.549,-0.253c0.545,0.027 0.534,0.048 1.086,-0.006c0.051,0.018 0.102,0.036 0.152,0.053c0.164,0.06 0.149,0.071 0.334,0.079c0.407,0.189 2.382,0.512 2.574,0.495c0.207,0.141 0.625,0.243 0.682,0.256c0.118,0.072 0.236,0.144 0.354,0.216c0.341,0.178 0.314,0.189 0.623,0.42c0.09,0.172 0.084,0.159 0.235,0.263c0.038,0.078 0.076,0.156 0.114,0.233l-0.118,0.126c-0.124,0.06 -0.076,-0.165 -0.197,-0.106c-0.183,0.089 -0.019,0.226 -0.199,0.298c-0.112,0.044 -0.24,-0.123 -0.351,-0.079c-0.007,-0.254 0.075,-0.272 -0.098,-0.455c-0.396,-0.535 -0.434,-0.494 -1.057,-0.674c-0.154,-0.118 -0.15,-0.174 -0.333,-0.083c-0.011,0.006 0,0 -0.158,0.029c-0.081,-0.011 -0.071,-0.001 -1.014,-0.07c-0.01,-0.436 -0.237,-0.249 -1.36,-0.412c-0.537,-0.148 -0.542,-0.059 -1.084,-0.175c-0.211,-0.045 -0.189,0.046 -0.397,0.097c-0.23,0.042 -0.229,0.039 -0.249,0.045c-0.057,0.018 -0.478,0.703 -1.007,0.2c0.001,-0.323 -0.1,-0.289 -0.424,-0.308l-0.09,0.015c-0.059,-0.065 -0.094,-0.15 -0.153,-0.215c-0.412,-0.452 -2.051,1.551 -5.8,0.259c-0.229,0.469 0.2,0.336 0.329,0.623c0.202,0.447 0.373,0.208 0.806,0.425c-0.926,0.163 -1.91,-0.088 -1.981,0.536c-0.748,0.078 -0.739,0.055 -1.493,0.123c-1.026,-0.091 -1.187,0.158 -1.377,-0.286c0.126,-0.025 0.252,-0.049 0.379,-0.074c0.082,-0.019 0.315,-0.072 1.011,-0.29c0.054,-0.015 0.063,-0.105 0.117,-0.12c0.229,-0.062 0.222,0.078 0.466,0.018c0.589,0.537 1.121,0.122 1.171,-0.466l0.081,-0.109c-0.071,-0.039 -0.142,-0.077 -0.214,-0.116c-0.261,-0.126 -0.261,-0.122 -0.281,-0.137c-0.044,-0.033 0.05,-0.047 0.003,-0.081c-0.196,-0.216 -0.19,-0.196 -0.421,-0.365c-1.035,-0.734 -1.289,-0.385 -1.655,-1.012c-0.033,-0.057 -0.034,-0.127 -0.059,-0.187c-0.056,-0.136 -0.709,-0.274 -0.618,-0.443c0.145,-0.267 0.232,-0.186 0.364,-0.469c0.606,-0.174 4.026,-1.157 7.887,-0.08Z" style="fill:#e7aa61;fill-opacity:0.99;"/></svg>