<svg width="36" height="36" viewBox="0 0 36 36" fill="none" xmlns="http://www.w3.org/2000/svg">
<path d="M28.905 22.785C27.655 22.785 26.495 23.165 25.525 23.805C24.745 24.325 24.085 25.025 23.615 25.835C23.255 26.455 23.005 27.145 22.885 27.875C22.825 28.205 22.795 28.545 22.795 28.885C22.795 29.225 22.835 29.565 22.885 29.885C22.995 30.565 23.215 31.205 23.525 31.785L28.905 29.095L32.025 23.625C31.115 23.085 30.045 22.765 28.905 22.765V22.785ZM28.905 22.785V0.375H2.41501V4.445M2.41501 4.445H4.455V6.485H2.41501M2.41501 4.445H0.375V6.485H2.41501M2.41501 6.485V8.525M2.41501 8.525H4.455V10.565H2.41501M2.41501 8.525H0.375V10.565H2.41501M2.41501 10.565V12.605H4.455V14.645H2.41501V16.685H4.455V18.725H2.41501V20.765H4.455V22.805H2.41501V24.845H4.455V26.885H2.41501V28.925H4.455V30.965H2.41501V35.035H28.905C26.585 35.035 24.555 33.735 23.525 31.825C23.215 31.245 22.995 30.605 22.885 29.925V29.945M22.875 27.875C22.995 27.145 23.245 26.455 23.605 25.835M9.845 30.335L7.08501 27.575L8.52501 26.135L9.845 27.455M9.845 30.335V30.345L14.635 25.545L13.195 24.105L9.845 27.455M9.845 27.455L13.205 24.105L14.645 25.545L9.845 30.335L7.08501 27.585L8.52501 26.145L9.845 27.455ZM9.845 9.125L13.195 5.775L14.635 7.215L9.845 12.015V12.005L7.08501 9.245L8.52501 7.805L9.845 9.125ZM9.845 12.005L14.645 7.205L13.205 5.765L9.845 9.125M24.825 7.505H18.715M18.715 9.545H24.825M24.825 16.675H17.695M17.695 18.715H24.825M20.405 25.395H18.205M18.205 27.435H20.405M23.605 25.845C24.075 25.025 24.735 24.335 25.515 23.805M22.875 29.915V29.895C22.825 29.565 22.795 29.235 22.795 28.895C22.795 28.555 22.835 28.215 22.885 27.885M28.905 35.015C26.575 35.015 24.555 33.715 23.525 31.805L28.905 29.115M28.905 35.015V29.115M28.905 35.015C31.225 35.015 33.255 33.715 34.285 31.805M28.905 29.115L32.025 23.645V23.655C33.815 24.715 35.015 26.675 35.015 28.905C35.015 29.955 34.755 30.945 34.285 31.805M28.905 29.115L34.285 31.805M6.96501 16.375L8.405 14.935L9.845 16.375L11.285 14.935L12.725 16.375L11.285 17.815L12.725 19.255L11.285 20.695L9.845 19.255L8.405 20.695L6.96501 19.255L8.405 17.815L6.96501 16.375ZM0.375 12.595V14.635H4.455V12.595H0.375ZM0.375 16.675V18.715H4.455V16.675H0.375ZM0.375 20.745V22.785H4.455V20.745H0.375ZM0.375 24.825V26.865H4.455V24.825H0.375ZM0.375 28.895V30.935H4.455V28.895H0.375Z" stroke="black" stroke-width="0.75" stroke-linecap="round" stroke-linejoin="round"/>
</svg>
