<?xml version="1.0" encoding="UTF-8" standalone="no"?><!DOCTYPE svg PUBLIC "-//W3C//DTD SVG 1.1//EN" "http://www.w3.org/Graphics/SVG/1.1/DTD/svg11.dtd"><svg width="100%" height="100%" viewBox="0 0 24 19" version="1.1" xmlns="http://www.w3.org/2000/svg" xmlns:xlink="http://www.w3.org/1999/xlink" xml:space="preserve" xmlns:serif="http://www.serif.com/" style="fill-rule:evenodd;clip-rule:evenodd;stroke:#000;stroke-width:0.55px;stroke-linecap:round;stroke-linejoin:round;paint-order:stroke fill markers;stroke-miterlimit:2;"><path d="M7.436,13.896c-0.024,-0.042 0.031,-0.102 0.008,-0.144c-0.003,-0.005 -0.136,-0.095 -0.364,-0.309c-0.949,-0.893 -0.554,-1.371 -1.47,-1.604c-1.104,-0.281 -1.464,-1.768 -1.154,-2.55c0.227,-0.571 0.326,-0.618 0.886,-0.839c0.241,-0.095 -0.022,-0.797 -0.07,-1.009c-0.275,-1.219 0.192,-2.929 0.6,-3.69c3.026,-5.643 13.178,-4.32 12.954,3.119c-0.028,0.947 -0.425,1.429 -0.117,1.608c1.452,0.84 0.789,2.81 -0.396,3.258c-0.431,0.163 -0.33,0.274 -0.557,0.67c-0.626,1.09 -1.142,1.32 -1.161,1.361c-0.118,0.257 0.088,0.157 0.363,0.235c3.067,0.879 3.583,3.978 3.41,4.131c-0.677,0.603 -0.405,-2.132 -2.856,-3.292c-1.82,-0.861 -2.389,-0.264 -2.79,-0.13c-3.34,1.115 -6.304,-0.348 -6.394,-0.38c-0.186,-0.068 -0.194,-0.051 -1.05,0.227c-2.701,0.876 -2.893,3.593 -3.303,3.603c-0.952,0.022 0.716,-3.787 3.462,-4.265Zm4.96,-12.991c3.185,0.178 4.497,1.895 4.963,2.558c0.813,1.156 1.325,3.685 0.484,5.065c-0.363,0.596 0.231,0.382 0.265,0.37c0.506,-0.182 1.632,0.987 0.28,2.215c-0.096,0.087 -0.269,0.115 -0.225,-0.079c0.328,-1.445 -0.145,-1.407 -0.235,-1.346c-0.326,0.219 0.567,2.588 -2.735,4.221c-2.068,1.023 -8.229,1.295 -8.954,-3.366c-0.141,-0.907 -0.364,-0.806 -0.417,-0.761c-0.109,0.092 -0.029,0.973 -0.021,1.057c0.132,1.461 -1.498,-0.65 -0.746,-1.636c0.433,-0.568 1.674,-0.205 1.158,-0.702c-0.83,-0.799 -1.124,-7.604 6.184,-7.597Z" style="fill-opacity:0.98;"/><path d="M9.646,12.196c0.01,-0.405 -0.037,-0.41 0.137,-0.777c1.35,-2.841 5.285,-1.343 4.78,0.975c-0.294,1.348 -1.924,0.573 -2.36,0.551c-0.669,-0.033 -2.362,0.857 -2.558,-0.75Zm2.27,-1.807c0.07,-0.003 0.659,-0.029 0.87,0.057c2.047,0.842 1.275,2.653 0.47,2.364c-1.07,-0.385 -1.094,-0.358 -2.212,-0.116c-1.512,0.328 -1.148,-1.898 0.872,-2.305Z" style="fill-opacity:0.98;"/><path d="M14.377,7.578c0.095,0.188 0.136,0.138 0.338,0.182c1.546,0.331 2.277,1.638 2.168,2.503c-0.14,1.114 -1.74,0.507 -1.07,-0.669c0.8,-1.405 -2.16,-1.565 -2.354,-1.754c-0.562,-0.549 2.436,-1.289 2.576,-1.041c0.263,0.467 -1.1,0.489 -1.658,0.779Zm1.743,2.393c0.007,-0.029 0.087,-0.368 0.087,-0.368c0.209,-0.337 0.24,0.418 0.242,0.459c0.007,0.181 -0.32,0.408 -0.329,-0.092Z" style="fill-opacity:0.97;"/><path d="M10.564,7.31c0.746,0.208 0.062,0.775 -1.166,1.025c-0.408,0.083 -0.76,-0.001 -1.105,0.645c-0.268,0.502 0.477,1.545 -0.349,1.862c-1.076,0.413 -1.045,-2.54 1.449,-3.016c0.476,-0.091 1.021,-0.075 0.567,-0.249c-0.436,-0.167 -2.018,-0.024 -1.698,-0.495c0.254,-0.374 1.834,0.101 2.302,0.229Zm-2.896,2.563c0.235,-0.861 0.344,0.208 0.24,0.363c-0.283,0.424 -0.242,-0.328 -0.24,-0.363Z" style="fill-opacity:0.97;"/><path d="M12.959,2.599c0.229,-0.364 0.203,-0.394 0.303,-0.408c0.016,-0.002 0.13,-0.018 0.156,0.131c0.148,0.851 -1.59,2.81 -2.667,2.67c-0.966,-0.126 0.205,-0.443 0.609,-0.689c1.133,-0.689 1.204,-0.97 1.599,-1.703Z" style="fill-opacity:0.98;"/><path d="M22.966,9.346c0.595,0.284 0.231,0.498 0.087,0.479c-1,-0.131 -1.053,0.725 -1.644,0.229c-0.387,-0.325 -0.504,-0.627 -1.074,-0.625c-0.731,0.002 0.333,-1.034 1.116,-0.1c0.183,0.219 0.192,0.312 0.449,0.181c0.686,-0.35 0.89,-0.221 1.066,-0.164Z" style="fill-opacity:0.97;"/><path d="M0.971,9.158c0.673,0.181 0.721,0.485 1.292,0.074c1.172,-0.844 1.569,0.205 1.235,0.289c-0.152,0.038 -0.564,-0.228 -0.845,0.091c-0.699,0.792 -0.866,0.35 -1.878,0.073c-0.073,-0.02 -0.514,-0.357 0.196,-0.527Z" style="fill-opacity:0.98;"/><path d="M15.049,2.9c-0.043,0.238 -0.356,1.951 -2.075,2.194c-0.209,0.03 -0.473,-0.207 -0.183,-0.343c0.411,-0.193 1.086,-0.301 1.672,-1.449c0.246,-0.483 0.169,-0.634 0.278,-0.878c0.252,-0.561 0.305,0.431 0.308,0.476Z" style="fill-opacity:0.98;"/><path d="M1.232,5.999c0.052,-0.395 0.287,-0.425 0.47,-0.074c0.337,0.648 0.386,0.695 1.109,0.713c0.603,0.015 0.945,0.808 0.946,0.814c0.073,0.478 -0.548,-0.04 -0.584,-0.07c-0.6,-0.5 -1.551,0.267 -1.941,-1.383Z" style="fill-opacity:0.98;"/><path d="M22.311,6.198c-0.384,1.268 -0.911,0.678 -1.512,1.016c-0.279,0.157 -0.913,0.579 -0.881,0.135c0.019,-0.268 0.704,-0.808 1.097,-0.792c0.461,0.019 0.573,0.089 0.928,-0.581c0.001,-0.002 0.12,-0.359 0.336,-0.279c0.097,0.036 0.038,0.461 0.032,0.501Z" style="fill-opacity:0.98;"/><path d="M12.3,11.752c-0.265,0.029 -0.565,-0.04 -1.274,0.518c-0.534,0.419 -0.274,-0.833 1.084,-1.014c1.422,-0.19 1.843,1.502 1.167,1.021c-0.352,-0.251 -0.258,-0.445 -0.977,-0.525Z" style="fill-opacity:0.97;"/><path d="M10.869,3.018c0.227,-0.225 0.238,-0.226 0.266,-0.23c0.629,-0.09 -0.463,1.266 -1.164,1.095c-0.787,-0.192 0.193,-0.247 0.897,-0.865Z" style="fill-opacity:0.98;"/><path d="M7.503,17.815c-0.013,0.059 -0.202,0.927 -0.6,0.46c-0.32,-0.375 0.696,-1.926 0.6,-0.46Z" style="fill-opacity:0.98;"/><path d="M12.011,9.041c-0.036,0.004 -0.712,0.088 -0.39,-0.238c0.475,-0.481 1.871,0.148 1.257,0.383c-0.158,0.06 -0.277,-0.046 -0.304,-0.06c-0.245,-0.127 -0.254,-0.064 -0.563,-0.085Z" style="fill-opacity:0.97;"/><path d="M16.809,18.013c-0.023,-0.132 -0.053,-0.262 -0.076,-0.394c-0.103,-0.584 0.43,-0.291 0.617,0.282c0.128,0.394 -0.318,0.766 -0.541,0.112Z" style="fill-opacity:0.99;"/><path d="M16.119,9.971c0.007,-0.029 0.087,-0.368 0.087,-0.368c0.209,-0.337 0.24,0.418 0.242,0.459c0.007,0.181 -0.32,0.408 -0.329,-0.092Z" style="fill-opacity:0.04;"/></svg>