<svg width="36" height="36" viewBox="0 0 36 36" fill="none" xmlns="http://www.w3.org/2000/svg">
<path d="M1.58502 26.345H5.20502C5.87502 26.345 6.41501 26.885 6.41501 27.555V35.405H0.375V27.555C0.375 26.885 0.915022 26.345 1.58502 26.345Z" fill="#FFD138"/>
<path d="M11.255 17.885H14.875C15.545 17.885 16.085 18.425 16.085 19.095V35.405H10.045V19.095C10.045 18.425 10.585 17.885 11.255 17.885Z" fill="#FFD138"/>
<path d="M20.915 21.515H24.535C25.205 21.515 25.745 22.055 25.745 22.725V35.405H19.705V22.725C19.705 22.055 20.245 21.515 20.915 21.515Z" fill="#FFD138"/>
<path d="M30.575 16.675H34.195C34.865 16.675 35.405 17.215 35.405 17.885V35.405H29.365V17.885C29.365 17.215 29.905 16.675 30.575 16.675Z" fill="#FFD138"/>
<path d="M3.39502 17.885C5.06292 17.885 6.41501 16.5329 6.41501 14.865C6.41501 13.1971 5.06292 11.845 3.39502 11.845C1.72712 11.845 0.375 13.1971 0.375 14.865C0.375 16.5329 1.72712 17.885 3.39502 17.885Z" fill="#FFD138"/>
<path d="M13.065 6.41501C14.7329 6.41501 16.085 5.06292 16.085 3.39502C16.085 1.72712 14.7329 0.375 13.065 0.375C11.3971 0.375 10.045 1.72712 10.045 3.39502C10.045 5.06292 11.3971 6.41501 13.065 6.41501Z" fill="#FFD138"/>
<path d="M32.395 7.61502C34.0629 7.61502 35.415 6.2629 35.415 4.595C35.415 2.9271 34.0629 1.57501 32.395 1.57501C30.7271 1.57501 29.375 2.9271 29.375 4.595C29.375 6.2629 30.7271 7.61502 32.395 7.61502Z" fill="#FFD138"/>
<path d="M22.725 13.655C24.3929 13.655 25.745 12.3029 25.745 10.635C25.745 8.96711 24.3929 7.61502 22.725 7.61502C21.0571 7.61502 19.705 8.96711 19.705 10.635C19.705 12.3029 21.0571 13.655 22.725 13.655Z" fill="#FFD138"/>
<path d="M4.97501 12.295L11.065 5.655M20.595 8.505L15.715 4.83502M29.775 6.10501L25.175 8.875M1.58502 26.345H5.20502C5.87502 26.345 6.41501 26.885 6.41501 27.555V35.405H0.375V27.555C0.375 26.885 0.915022 26.345 1.58502 26.345ZM11.255 17.885H14.875C15.545 17.885 16.085 18.425 16.085 19.095V35.405H10.045V19.095C10.045 18.425 10.585 17.885 11.255 17.885ZM20.915 21.515H24.535C25.205 21.515 25.745 22.055 25.745 22.725V35.405H19.705V22.725C19.705 22.055 20.245 21.515 20.915 21.515ZM30.575 16.675H34.195C34.865 16.675 35.405 17.215 35.405 17.885V35.405H29.365V17.885C29.365 17.215 29.905 16.675 30.575 16.675ZM3.39502 17.885C5.06292 17.885 6.41501 16.5329 6.41501 14.865C6.41501 13.1971 5.06292 11.845 3.39502 11.845C1.72712 11.845 0.375 13.1971 0.375 14.865C0.375 16.5329 1.72712 17.885 3.39502 17.885ZM13.065 6.41501C14.7329 6.41501 16.085 5.06292 16.085 3.39502C16.085 1.72712 14.7329 0.375 13.065 0.375C11.3971 0.375 10.045 1.72712 10.045 3.39502C10.045 5.06292 11.3971 6.41501 13.065 6.41501ZM32.395 7.61502C34.0629 7.61502 35.415 6.2629 35.415 4.595C35.415 2.9271 34.0629 1.57501 32.395 1.57501C30.7271 1.57501 29.375 2.9271 29.375 4.595C29.375 6.2629 30.7271 7.61502 32.395 7.61502ZM22.725 13.655C24.3929 13.655 25.745 12.3029 25.745 10.635C25.745 8.96711 24.3929 7.61502 22.725 7.61502C21.0571 7.61502 19.705 8.96711 19.705 10.635C19.705 12.3029 21.0571 13.655 22.725 13.655Z" stroke="black" stroke-width="0.75" stroke-linecap="round" stroke-linejoin="round"/>
</svg>
