<?xml version="1.0" encoding="UTF-8" standalone="no"?><!DOCTYPE svg PUBLIC "-//W3C//DTD SVG 1.1//EN" "http://www.w3.org/Graphics/SVG/1.1/DTD/svg11.dtd"><svg width="100%" height="100%" viewBox="0 0 24 19" version="1.1" xmlns="http://www.w3.org/2000/svg" xmlns:xlink="http://www.w3.org/1999/xlink" xml:space="preserve" xmlns:serif="http://www.serif.com/" style="fill-rule:evenodd;clip-rule:evenodd;stroke:#000;stroke-width:0.55px;stroke-linecap:round;stroke-linejoin:round;paint-order:stroke fill markers;stroke-miterlimit:2;"><path d="M0.863,0.535c0.309,-0.693 0.529,-0.513 3.478,-0.499c8.236,0.037 8.232,0.04 15.903,-0.026c1.638,-0.014 2.099,-0.1 2.286,0.718c0.052,0.229 -0.064,0.831 0.091,0.89c0.265,0.101 0.67,0.054 0.686,0.963c0.03,1.763 -0.026,1.862 -0.105,2.002c-0.262,0.464 -0.629,0.294 -0.608,0.513c0.099,1.044 0.257,3.999 -0.209,5.699c-1.07,3.901 -4.733,6.855 -9.022,7.38c-3.969,0.485 -7.62,-0.674 -10.309,-3.578c-2.806,-3.031 -2.391,-6.366 -2.388,-8.17c0.001,-0.997 0.123,-1.403 0.012,-1.453c-0.12,-0.054 -0.411,-0.066 -0.601,-0.45c-0.05,-0.101 -0.178,-2.206 0.067,-2.572c0.293,-0.438 0.628,-0.269 0.654,-0.41c0.032,-0.175 -0.055,-0.565 0.064,-1.006Zm4.572,1.139c-0.54,-0.15 -3.813,-0.005 -3.997,-0.076c-0.099,-0.038 -0.039,-0.832 0.018,-0.91c0.187,-0.255 0.278,-0.034 10.577,-0.035c9.275,-0.001 9.566,-0.149 9.768,-0.047c0.239,0.121 0.173,0.955 0.152,0.976c-0.061,0.061 -2.501,0.018 -3.654,0.03c-1,0.01 -0.869,0.935 -0.869,1.253c-0,1.259 -0.107,1.841 0.543,2.07c0.347,0.122 3.947,-0.011 4.028,0.068c0.06,0.058 0.139,1.586 0.103,1.665c-0.051,0.112 -2.414,-0.013 -4.602,1.435c-4.711,3.119 -3.292,9.235 -3.303,9.289c-0.04,0.188 -2.5,0.445 -4.301,0.181c-0.616,-0.09 -0.777,-0.061 -0.728,-0.28c0.679,-3.049 -0.253,-7.534 -3.749,-9.467c-2.202,-1.218 -4.057,-1.054 -4.154,-1.129c-0.094,-0.072 0.026,-1.674 0.043,-1.689c0.073,-0.067 3.734,0.014 3.984,-0.046c0.786,-0.188 0.633,-1.154 0.633,-1.194c-0.002,-1.525 0.097,-1.797 -0.491,-2.094Zm-4.208,6.698c-0.003,-0.793 -0.008,-0.998 0.019,-1.051c0.061,-0.122 3.305,0.095 5.261,2.02c3.105,3.057 2.205,7.832 2.096,7.945c-0.067,0.07 -1.189,-0.358 -1.214,-0.381c-0.184,-0.161 0.307,-2.591 -1.703,-5.033c-1.879,-2.283 -4.131,-2.49 -4.371,-2.617c-0.084,-0.044 -0.088,-0.88 -0.088,-0.884Zm13.341,7.169c0.006,-1.285 0.066,-5.503 4.073,-7.431c1.464,-0.704 3.376,-0.864 3.444,-0.814c0.094,0.069 0.003,1.807 -0.014,1.888c-0.061,0.294 -2.749,0.217 -4.852,3.279c-1.331,1.938 -1.19,4.388 -1.262,4.436c-0.175,0.117 -1.108,0.393 -1.124,0.397c-0.205,0.051 -0.26,-1.613 -0.265,-1.755Zm-13.151,-5.271c-0.054,-0.3 -0.05,-0.315 -0.042,-0.341c0.042,-0.139 1.907,0.443 3.009,1.441c0.146,0.132 1.01,0.914 1.558,1.901c0.827,1.488 0.847,3.062 0.845,3.22c-0.003,0.188 -0.1,0.092 -0.267,0.011c-2.955,-1.438 -4.807,-4.28 -5.103,-6.232Zm15.146,6.221c0.058,-1.032 0.263,-2.23 0.911,-3.334c0.223,-0.38 1.566,-2.668 4.434,-3.256c0.128,-0.026 0.036,0.275 -0.043,0.61c-0.887,3.797 -4.679,5.91 -5.231,6.111c-0.061,0.022 -0.042,-0.021 -0.071,-0.131Zm-12.648,-14.317c0.081,0.015 0.167,-0.041 0.167,0.17c-0.001,1.887 0.049,1.896 -0.02,2.045c-0.025,0.054 -3.22,0.057 -3.331,0.004c-0.175,-0.084 -0.113,-0.147 -0.127,-1.907c-0.003,-0.37 0.167,-0.313 1.223,-0.312c0.167,0 1.955,0.003 2.089,-0.001Zm15.354,1.31c0,-1.22 -0.02,-1.29 0.077,-1.307c0.186,-0.032 2.313,-0.005 2.514,-0.003c0.614,0.008 0.887,-0.157 0.887,0.455c-0.001,1.542 0.047,1.724 -0.181,1.781c-0.246,0.061 -0.25,0.015 -3.174,0.012c-0.164,-0 -0.122,-0.166 -0.122,-0.938Zm-13.901,0.142c-0,0.278 0.081,0.763 -0.268,0.791c-0.114,0.009 -0.471,0.044 -0.48,-0.079c-0.012,-0.163 0.007,-0.162 -0.006,-2.042c-0.002,-0.224 0.577,-0.113 0.621,-0.082c0.169,0.122 0.131,0.164 0.133,1.411Zm12.618,-0.142c0.014,-0.658 -0.003,-0.696 0.007,-1.046c0.009,-0.349 0.674,-0.293 0.715,-0.226c0.022,0.035 0.017,2.137 -0.001,2.165c-0.032,0.051 -0.375,0.044 -0.408,0.043c-0.406,-0.008 -0.296,-0.289 -0.313,-0.936Z" style="fill:#10100f;fill-opacity:0.99;"/><path d="M1.967,8.581c-0.035,-0.006 -0.348,-0.057 -0.356,-0.257c-0.003,-0.087 -0.017,-0.428 1.073,-0.151c0.353,0.09 0.29,0.41 0.145,0.491c-0.06,0.034 -0.103,0.058 -0.861,-0.083Z" style="fill:#100f0f;fill-opacity:0.99;"/><path d="M21.386,8.58c-0.576,0.108 -0.995,0.217 -0.943,-0.158c0.011,-0.084 0.045,-0.325 0.989,-0.369c0.281,-0.013 0.596,0.405 -0.046,0.527Z" style="fill:#0f0f0e;fill-opacity:0.99;"/><path d="M8.255,14.305c0.092,0.5 0.153,1.003 -0.209,0.944c-0.182,-0.03 -0.202,-0.249 -0.204,-0.276c-0.045,-0.503 -0.247,-1.097 0.206,-1.016c0.203,0.036 0.199,0.309 0.207,0.348Z" style="fill:#100f0e;fill-opacity:0.99;"/><path d="M15.515,14.877c-0.076,0.636 -0.523,0.341 -0.495,0.046c0.078,-0.826 0.063,-1.082 0.483,-0.916c0.078,0.031 0.137,0.051 0.011,0.87Z" style="fill:#0f0f0e;fill-opacity:0.99;"/><path d="M5.345,9.314c0.029,0.022 0.526,0.28 0.227,0.573c-0.159,0.155 -0.221,0.066 -0.835,-0.349c-0.34,-0.23 -0.053,-0.635 0.229,-0.465c0.197,0.118 0.192,0.115 0.379,0.241Z" style="fill:#11100f;fill-opacity:0.99;"/><path d="M7.584,12.029c-0.109,0.319 -0.378,0.247 -0.47,0.083c-0.407,-0.73 -0.379,-0.776 -0.341,-0.837c0.372,-0.612 0.788,0.556 0.811,0.755Z" style="fill:#11100f;fill-opacity:0.99;"/><path d="M19.247,9.151c-0.09,-0.023 -0.09,-0.015 -0.123,-0.041c-0.057,-0.046 -0.395,-0.346 0.599,-0.689c0.04,-0.014 0.515,-0.178 0.443,0.287c-0.033,0.21 -0.905,0.442 -0.919,0.444Z" style="fill:#100f0e;fill-opacity:0.99;"/><path d="M7.361,12.74c0.006,-0.031 0.052,-0.296 0.307,-0.252c0.09,0.015 0.184,0.067 0.382,0.82c0.093,0.355 -0.254,0.454 -0.382,0.33c-0.077,-0.074 -0.292,-0.775 -0.308,-0.898Z" style="fill:#100f0e;fill-opacity:0.98;"/><path d="M16.958,10.214c0.104,-0.114 0.096,-0.116 0.211,-0.216c0.138,-0.119 0.64,0.064 0.233,0.515c-0.265,0.293 -0.393,0.585 -0.616,0.457c-0.363,-0.208 0.004,-0.564 0.172,-0.756Z" style="fill:#0f0f0e;fill-opacity:0.99;"/><path d="M15.688,12.484c0.426,0.044 0.265,0.314 0.074,0.963c-0.115,0.391 -0.554,0.27 -0.48,-0.134c0.013,-0.069 0.137,-0.749 0.308,-0.815c0,-0 0.089,-0.013 0.097,-0.014Z" style="fill:#0f0e0d;fill-opacity:0.99;"/><path d="M16.01,11.453c0.115,-0.202 0.113,-0.203 0.123,-0.221c0.196,-0.325 0.622,-0.075 0.419,0.279c-0.276,0.482 -0.338,0.787 -0.582,0.714c-0.392,-0.116 -0.009,-0.679 0.041,-0.773Z" style="fill:#0f0f0e;fill-opacity:0.99;"/><path d="M4.106,9.149c-0.008,-0.001 -0.846,-0.22 -0.874,-0.441c-0.063,-0.482 0.444,-0.283 0.486,-0.267c0.095,0.037 0.871,0.275 0.527,0.641c-0.063,0.067 -0.132,0.065 -0.139,0.067Z" style="fill:#10100f;fill-opacity:0.99;"/><path d="M6.278,10.044c0.567,0.594 0.513,0.684 0.477,0.745c-0.27,0.454 -0.506,0.029 -0.793,-0.332c-0.025,-0.031 -0.284,-0.356 0.05,-0.498c0.145,-0.062 0.15,-0.021 0.266,0.086Z" style="fill:#111010;fill-opacity:0.99;"/><path d="M18.103,9.266c0.153,-0.107 0.147,-0.108 0.161,-0.117c0.54,-0.357 0.59,0.196 0.398,0.342c-0.713,0.542 -0.786,0.49 -0.866,0.383c-0.214,-0.286 0.064,-0.423 0.308,-0.609Z" style="fill:#10100f;fill-opacity:0.99;"/></svg>