<svg xmlns="http://www.w3.org/2000/svg" xml:space="preserve" style="fill-rule:evenodd;clip-rule:evenodd;stroke-linejoin:round;stroke-miterlimit:2" viewBox="0 0 100 100"><path d="M697.082 452.56c1.173 5.626 4.282 48.469 57.398 58.055 23.958 4.323 49.103-9.267 52.911-11.326 31.734-17.152-20.414 87.872-120.769 58.811-84.1-24.353-89.008-140.515 1.001-175.307 28.584-11.049 61.022-5.376 50.741.479-38.322 21.824-43.261 44.455-41.282 69.288" style="fill:#eabc76" transform="translate(-315.49 -188.725)scale(.50816)"/><path d="M646.285 420.339c5.072-5.67 34.811-42.301 81.318-39.076 7.678.533-51.973 26.667-33.653 86.127 5.07 16.455 38.768 74.303 112.647 37.394 1.262-.631 4.947 1.931-6.49 16.405-33.192 42.005-81.449 37.278-93.585 36.007-63.047-10.228-74.196-53.388-78.055-74.691-.776-4.28-.647-16.367.265-21.96 3.827-23.468 11.877-32.115 17.553-40.206" style="fill:#fde298" transform="translate(-315.49 -188.725)scale(.50816)"/><path d="M756.905 402.601c1.571-10.158 2.023-10.812 3.698-10.377 1.598.415 2.392 8.387 4.688 13.372 3.564 7.734 18.149 8.741 12.04 11.627-10.714 5.063-10.567 5.89-14.207 17.106-3.106 9.573-2.339-10.686-14.803-15.365-11.343-4.259 3.556-5.309 8.584-16.363" style="fill:#eebe75" transform="translate(-315.49 -188.725)scale(.50816)"/><path d="M790.14 441.455c-.667 1.544-.538 1.416-1.678 2.828-3.503-.484-2.608-1.602-3.984-4.77-1.979-4.558-14.123-5.445-5.036-8.232 7.596-2.33 4.579-7.295 6.485-10.419 3.92-6.428.235 8.46 11.662 10.314 8.129 1.318-4.92 1.798-7.449 10.279" style="fill:#ebbd75" transform="translate(-315.49 -188.725)scale(.50816)"/><path d="M649.465 458.5c-.115.987-1.33 11.424-7.891 9.582-.637-.179.283-1.433-6.739-4.784-1.378-.658-1.54-16.794.541-14.621 3.669 3.832 11.519-1.12 14.089 9.823" style="fill:#fdcc7c" transform="translate(-315.49 -188.725)scale(.50816)"/><path d="M761.876 407.249c7.171 8.896 7.2 8.861 7.154 8.977-.311.786-1.469-.118-6.701 8.156-2.29 3.622-3.13-2.861-7.057-5.553-5.196-3.564-4.602-4.34-4.197-4.634 4.943-3.593 4.351-4.079 8.428-8.689 1.309-1.48 1.18.024 2.373 1.743" style="fill:#fde78d" transform="translate(-315.49 -188.725)scale(.50816)"/><path d="M647.825 444.491c10.602-10.428 10.392-10.85 11.669-10.925 8.15-.484.219 10.549-1.217 13.812-4.441 10.087-10.247-.009-10.452-2.887" style="fill:#fdd78b" transform="translate(-315.49 -188.725)scale(.50816)"/><path d="M666.39 465.514c-1.621 22.846-16.726-3-10.878-5.99 7.463-3.816 10.551 5.052 10.878 5.99" style="fill:#fdda8c" transform="translate(-315.49 -188.725)scale(.50816)"/><path d="M707.5 556.254c-1.422-1.36-7.544-2.062-6.502-4.62 2.23-5.471.806-5.708 1.036-6.15 5.329-10.228 17.748 5.506 5.466 10.77" style="fill:#fdcb7f" transform="translate(-315.49 -188.725)scale(.50816)"/><path d="M741.555 520.629c3.147 4.935 4.633 4.529 3.988 8.844-.049.331-.314 2.103-.284 4.18 3.548 3.46.75 5.643-3.803 3.931l-1.569-1.104c-.179-7.602-9.216-13.772 1.668-15.851" style="fill:#fcd887" transform="translate(-315.49 -188.725)scale(.50816)"/><path d="M647.933 510.877c1.337-3.928 2.539-.471 6.49.704 4.139 1.232 4.225 8.273 4.315 8.583l-2.028 2.414c-5.895-3.436-7.638-2.388-8.806-9.045z" style="fill:#fbc471" transform="translate(-315.49 -188.725)scale(.50816)"/><path d="M718.504 522.491c11.539 7.909-4.155 13.282-6.031 7.017-2.48-8.281 5.299-7.126 6.031-7.017" style="fill:#fdd485" transform="translate(-315.49 -188.725)scale(.50816)"/><path d="M741.555 520.629c10.097-2.428 15.094 7.098 3.704 13.024-.03-2.077.235-3.849.284-4.18.645-4.315-.841-3.909-3.988-8.844" style="fill:#fee091" transform="translate(-315.49 -188.725)scale(.50816)"/><path d="M693.347 537.251c17.198-3.592 5.863 8.102 5.23 8.378-.353.154-3.573 1.557-4.315-2.141-.68-3.389 1.98-4.266-.915-6.237" style="fill:#f8c571" transform="translate(-315.49 -188.725)scale(.50816)"/><path d="M724.294 551.308c-7.603 4.394-9.816-6.865-2.785-6.592 5.063.196 5.291 2.152 2.785 6.592" style="fill:#fdc575" transform="translate(-315.49 -188.725)scale(.50816)"/><path d="M783.714 432.63c1.822-1.878 1.647-1.823 2.826-4.099 1.848-3.568 2.053 1.988 3.867 3.125 3.052 1.913.772 2.558-1.924 4.823-1.2 1.008-4.862-2.563-5.203-2.896z" style="fill:#fdde78" transform="translate(-315.49 -188.725)scale(.50816)"/><path d="M795.526 399.469c-2.005-1.465.021-1.745.516-4.27.235-1.202 1.391-1.016 1.535-.993 2.288.369 1.279 7.217.869 11.274-.649 6.423-2.371-5.309-2.92-6.011" style="fill:#fdf3d2" transform="translate(-315.49 -188.725)scale(.50816)"/><path d="M658.738 520.164c7.283 2.13-1.239 8.959-2.686 4.522-.525-1.609.605-1.938.658-2.108z" style="fill:#f8c571" transform="translate(-315.49 -188.725)scale(.50816)"/><path d="M790.14 441.455c.266.226-.383.814-.117 1.04.866.735 2.093.898 3.074 1.472.1.058.642 5.471-4.635.316 1.14-1.412 1.011-1.284 1.678-2.828" style="fill:#fcedc8" transform="translate(-315.49 -188.725)scale(.50816)"/><path d="m771.854 423.482.646-1.075c.358.074 3.84.799 3.246 3.223-.084.345-1.631 3.271-3.892-2.148" style="fill:#fdf5de" transform="translate(-315.49 -188.725)scale(.50816)"/><path d="M741.707 424.927c2.061-.045 2.716-.385 2.628 1.559-.081 1.785-5.901 3.075-2.628-1.559" style="fill:#fbf2d3" transform="translate(-315.49 -188.725)scale(.50816)"/><path d="M810.791 398.777c1.858-.502 2.509-1.204 2.905.655.437 2.05-4.184 4.088-2.905-.655" style="fill:#faedcc" transform="translate(-315.49 -188.725)scale(.50816)"/><path d="M765.488 400.458c-1.196-1.625-2.473-1.695-.97-3.128 1.454-1.387 6.072 1.778.97 3.128" style="fill:#fdf1c2" transform="translate(-315.49 -188.725)scale(.50816)"/><path d="m647.933 510.877-.029 2.656c-.642-1.407-.727-1.373.029-2.656" style="fill:#fdc97a" transform="translate(-315.49 -188.725)scale(.50816)"/><path d="m739.887 536.48 1.569 1.104c-1.417.535-1.518 2.31-2.208.833-.069-.148 0 0 .639-1.937" style="fill:#fbd78b" transform="translate(-315.49 -188.725)scale(.50816)"/></svg>