<?xml version="1.0" encoding="UTF-8" standalone="no"?><!DOCTYPE svg PUBLIC "-//W3C//DTD SVG 1.1//EN" "http://www.w3.org/Graphics/SVG/1.1/DTD/svg11.dtd"><svg width="100%" height="100%" viewBox="0 0 24 8" version="1.1" xmlns="http://www.w3.org/2000/svg" xmlns:xlink="http://www.w3.org/1999/xlink" xml:space="preserve" xmlns:serif="http://www.serif.com/" style="fill-rule:evenodd;clip-rule:evenodd;stroke-linejoin:round;stroke-miterlimit:2;"><path d="M9.654,3.143c0.062,0.021 0.125,0.042 0.187,0.063c0.852,0.495 0.691,0.67 0.764,0.712c0.032,0.018 0.071,-0.058 0.103,-0.04l0.117,0.114c-0.088,0.178 -0.107,0.18 -0.095,0.193c0.044,0.048 0.139,0.021 0.183,0.069c-0.177,0.292 -0.445,0.464 0.101,0.689c0.634,0.262 0.651,0.097 1.343,0.151c0.111,0.146 0.109,0.142 0.295,0.173c-0.076,0.238 -0.127,0.197 -0.69,0.657c0.098,0.197 0.089,0.222 0.105,0.212c0.164,-0.101 0.712,-0.546 0.773,-0.595c0.071,-0.058 0.174,-0.274 0.186,-0.3c0.506,-0.557 0.637,-0.34 1.088,-0.612c0.074,0.009 0.164,0.02 0.871,-0.334c0.033,0.025 -0.002,0.053 0.377,0.348c-0.441,0.418 -0.313,0.519 -0.333,0.611c-0.423,0.016 -0.332,0.177 -0.596,0.512c-0.285,0.259 -0.351,0.022 -0.713,0.133c-0.442,0.136 -0.623,0.112 -0.476,0.233c0.086,0.071 0.109,-0.006 0.189,0.06c0.082,0.068 0.01,0.106 0.098,0.178c-0.768,-0.093 -0.813,-0.082 -0.882,-0.065c-2.647,0.641 -2.971,0.475 -4.085,0.479c0.239,-0.165 0.245,-0.147 0.262,-0.166c0.615,-0.673 -0.39,-0.083 -0.75,-0.088c-1.526,-0.02 -1.919,-0.155 -2.077,-0.209c0.164,-0.302 0.07,-0.442 1.133,-1.145c0.135,-0.222 0.084,-0.231 0.117,-0.496c0.095,-0.146 0.093,-0.141 0.249,-0.21c-0.023,0.198 0.025,0.19 0.001,0.393c0.121,0.555 0.546,0.297 0.581,0.293c0.127,-0.013 0.092,-0.063 0.197,-0.136c0.406,-0.064 0.33,-0.562 0.595,-0.298c0.111,0.11 0.056,0.141 0.173,0.242c0.015,0.013 0.015,-0.009 0.209,-0.131c0.166,0.543 0.429,0.054 0.862,0.217c0.24,-0.234 0.242,-0.232 0.324,-0.56c-0.003,-0.377 0.036,-0.402 -0.267,-0.724c-0.414,-0.389 -0.461,-0.338 -1.028,-0.28l0.104,-0.125c0.218,-0.083 0.209,-0.1 0.229,-0.105l0.179,-0.115Z" style="fill:#634439;fill-opacity:0.99;"/><path d="M18.295,0.265l0.301,-0.01l0.092,0.001c0.197,0.017 0.363,0.016 0.394,0.016c0.357,-0.01 0.354,-0.01 0.385,-0.011c0.16,-0.001 0.146,0.013 0.297,0.013l0.095,0.008l0.193,0.012c0.651,0.137 0.628,0.176 0.684,0.177c0.793,0.021 0.805,-0.112 1.361,0.113c1.015,0.409 0.998,0.974 1.08,1.263c-0.03,0.204 -0.03,0.192 0.013,0.392c-0.02,0.27 -0.021,0.268 -0.022,0.292c-0.005,0.157 0.01,0.144 0.006,0.292l-0.057,0.104c-0.055,-0.054 -0.269,-0.264 -0.48,-0.839c-0.044,-0.036 -0.537,-0.636 -1.224,-0.174c-0.045,0.003 -1.095,0.08 -0.5,0.258c0.688,0.206 0.973,0.964 0.5,1.017c-0.171,-0.193 -0.054,-0.235 -0.193,-0.463c-0.313,-0.516 -0.457,-0.104 -0.583,0.001c-0.229,0.141 -0.229,0.113 -0.481,0.174c-0.24,-0.134 -0.23,-0.135 -0.417,-0.33c-0.207,-0.164 -0.864,-0.515 -0.912,-0.218c-0.002,0.013 -0,0 -0.067,0.153c-0.07,-0.054 -0.655,-0.505 -1.053,-0.347c-0.178,-0.051 -0.193,-0.062 -0.301,0.093c-0.184,-0.068 -0.172,-0.075 -0.35,-0.141c-0.126,-0.12 -0.118,-0.113 -0.217,-0.269c0.054,-0.041 0.108,-0.081 0.161,-0.122c0.23,-0.002 0.347,0.066 0.393,-0.161c0.004,-0.019 0.018,-0.088 0.126,-0.2c-0.084,-0.158 -0.072,-0.176 -0.247,-0.22c-0.053,-0.044 -0.172,-0.143 -0.726,-0.454c0.568,0.027 0.547,-0.054 1.071,-0.298c0.054,-0.007 0.279,-0.035 0.675,-0.122Z" style="fill:#d2a168;fill-opacity:0.98;"/><path d="M6.909,2.031l0.683,-0.01l0.098,0.088c-0.023,0.265 0,0.254 -0.02,0.525l0.106,0.093c0.135,0.382 0.16,0.362 0.443,0.641c-0.116,0.108 -0.232,0.216 -0.348,0.324c-0.221,-0.134 -0.213,-0.141 -0.473,-0.187c-0.247,-0.251 -0.336,-0.093 -0.404,0.254c-0.155,0.021 -0.31,0.042 -0.465,0.063l-0.035,0.029c-0.252,0.046 -0.242,0.037 -0.463,0.149c-0.044,-0.03 -0.05,0.007 -0.089,-0.019c-0.024,-0.016 -0.021,-0.016 -0.286,-0.217c-0.075,0.02 -0.15,0.041 -0.225,0.061c-0.289,-0.311 -0.256,-0.324 -0.55,-0.648l-0.111,-0.064c-0.065,-0.099 -0.13,-0.197 -0.195,-0.296c-0.262,-0.112 -0.259,-0.116 -0.283,-0.121c-0.291,-0.054 -0.259,0.11 -0.312,0.133c-0.115,0.081 -0.119,0.059 -0.186,0.189c-0.065,0.057 -0.13,0.115 -0.196,0.172c-0.254,0.013 -0.246,-0.005 -0.483,0.096c-0.022,-0 -0.111,0.119 -0.704,-0.215c0.067,-0.032 0.135,-0.064 0.202,-0.096c0.269,-0.091 0.262,-0.08 0.5,-0.251c0.877,-0.083 0.848,-0.277 1.872,-0.447c0.195,-0.06 0.184,-0.052 0.366,-0.143c0.293,-0.002 0.285,0.008 0.392,-0.017c0.449,-0.071 0.446,-0.074 0.485,-0.077c0.347,-0.027 0.339,0.019 0.682,-0.008Z" style="fill:#ce9e69;fill-opacity:0.98;"/><path d="M10.739,2.169c0.025,-0.003 0.176,0.141 0.357,-0.215c0.157,0.173 0.157,0.171 0.17,0.187c0.03,0.037 0.005,0.042 0.036,0.08c0.034,0.009 0.031,0.01 0.281,0.115c0.038,0.023 0.431,0.259 0.485,0.275c0.092,0.027 0.135,-0.093 0.268,-0.04c0.721,0.287 0.833,0.157 1.373,0.942c-0.194,0.125 -0.159,0.167 -0.179,0.17c-0.079,0.011 -0.157,-0.054 -0.236,-0.043c-0.28,-0.144 -0.311,-0.135 -0.536,0.085c-0.144,0.107 -0.139,0.096 -0.215,0.249c-0.024,-0.016 -0.05,0.063 -0.075,0.047c-0.054,-0.036 -0.123,-0.196 -0.131,-0.214c-0.14,-0.325 -0.213,-0.042 -0.371,0.269c-0.564,-0.034 -0.582,0.082 -1.066,-0.181c0.023,-0.063 0.047,-0.127 0.07,-0.19c0.019,-0.011 1.055,-0.721 0.041,-0.275c-0.018,0.008 -0.008,0.016 -0.107,0.221c-0.113,0.113 -0.127,0.093 -0.198,0.228c-0.032,-0.018 -0.071,0.058 -0.103,0.04c-0.073,-0.041 0.088,-0.217 -0.764,-0.712c0.119,-0.183 0.167,-0.168 0.128,-0.395c-0.02,-0.118 -0.005,-0.184 0.771,-0.642Z" style="fill:#d8a669;fill-opacity:0.99;"/><path d="M2.235,3.114l0.175,-0.043c0.594,0.334 0.682,0.215 0.704,0.215c0.045,0.146 0.056,0.152 -0.039,0.268c-0.406,0.148 -0.239,0.352 0.039,0.727c0.119,0.444 0.502,0.393 0.765,0.413c0.104,0.008 0.449,-0.633 0.527,-0.079c-0.366,0.164 -0.355,0.149 -0.385,0.163c-0.724,0.313 -0.751,0.316 -0.741,0.382c0.036,0.233 0.148,0.007 0.607,-0.019c0.022,-0.001 0.015,-0.014 0.203,-0.192c0.775,-0.197 0.734,0.088 1.459,0.385c-0.042,0.038 -0.046,-0.063 -0.092,-0.02c-0.015,0.014 -0.053,0.049 -0.133,0.227c-0.134,0.301 -0.23,0.134 -0.358,0.166c-0.627,0.005 -0.86,0.124 -1.17,0.004c-0.109,-0.042 -0.47,0.414 -0.501,0.565c-0.191,-0.08 -0.382,-0.159 -0.573,-0.239l-0.018,-0.079c0.377,-0.22 0.407,-0.3 0.182,-0.683c-0.146,-0.249 -0.128,-0.264 0.019,-0.514c0.028,-0.049 0.077,-0.132 -0.199,-0.675c-0.017,-0.064 -0.034,-0.129 -0.051,-0.193c-0.003,-0.015 -0.031,-0.192 -0.031,-0.192c0.015,-0.322 -0.113,-0.248 -0.283,-0.314c-0.141,-0.018 -0.126,-0.031 -0.32,-0.119c0.132,-0.056 0.121,-0.053 0.214,-0.151Z" style="fill:#68493c;fill-opacity:0.99;"/><path d="M1.553,3.994c0.173,0.204 0.208,0.115 0.577,0.063c0.327,0.143 0.325,0.068 0.577,0.027c0.276,0.543 0.227,0.626 0.199,0.675c-0.147,0.251 -0.165,0.266 -0.019,0.514c0.225,0.383 0.195,0.464 -0.182,0.683c-0.002,-0.024 -0.065,-0.651 -0.239,-0.184c-0.116,0.311 -0.213,-0.049 -0.431,-0.015c-0.18,0.027 -0.188,-0.498 -0.806,-0.454c-0.254,-0.183 -0.247,-0.335 -0.231,-0.618c0.009,-0.148 0.126,-0.106 0.159,-0.215c0.014,-0.046 0.129,-0.422 0.308,-0.518c0.029,-0.016 0.06,0.059 0.089,0.043Z" style="fill:#704e3f;fill-opacity:0.99;"/><path d="M21.4,3.509c-0.008,0.459 -0.072,0.621 0.211,0.603c0.019,-0.001 0.016,0.008 0.21,0.114c-0.176,0.11 -0.177,0.093 -0.34,0.212c-0.888,0.646 -1.529,0.575 -2.29,0.945c-1.059,0.514 -1.207,0.337 -2.25,0.503c0.239,-0.484 0.218,-0.573 0.628,-0.6c0.217,0.163 0.206,0.196 0.227,0.185c0.164,-0.085 0.071,-0.231 0.071,-0.231c0.01,-0.007 0.329,0.175 0.373,0.02c0.01,-0.036 -0.052,-0.07 -0.039,-0.105c0,0 0.297,-0.135 0.323,-0.147c0.328,0.06 0.327,0.055 0.355,0.064c0.21,0.069 0.189,-0.021 0.389,-0.127c0.567,-0.298 0.562,-0.283 1.063,-0.681c0.407,-0.164 0.111,0.307 0.113,0.311c0.099,0.203 0.815,-0.325 0.697,-0.684c-0.096,-0.294 -0.054,-0.375 0.26,-0.383Z" style="fill:#875f47;fill-opacity:0.98;"/><path d="M6.844,4.225c0.055,0.039 0.111,0.078 0.166,0.117c-0.201,0.442 -0.704,0.53 -0.295,0.623c0.036,0.008 -0,0.076 0.417,0.212c-1.063,0.704 -0.969,0.843 -1.133,1.145c-0.031,0.033 -0.014,0.041 -0.347,0.438c-0.603,0.093 -1.137,0.297 -3.227,-0.51c0.134,-0.13 0.115,-0.146 0.299,-0.214c0.191,0.08 0.382,0.159 0.573,0.239c0.312,0.117 0.335,0.209 0.6,0.009c0.235,-0.178 0.542,0.412 0.894,0.186c0.472,-0.302 0.563,0.133 0.659,-0.005c0.039,-0.055 0.048,-0.126 0.08,-0.185c0.087,-0.16 0.242,0.079 0.292,-0.095c0.088,-0.311 -0.059,-0.587 -0.083,-0.632c-0.024,-0.05 -0.047,-0.099 -0.071,-0.149l-0.026,-0.036c0.226,-0.065 0.238,-0.199 0.413,-0.049c0.345,0.295 0.482,-0.054 0.228,-0.619c0.076,-0.047 0.475,-0.328 0.516,-0.357l0.046,-0.118Z" style="fill:#7e5944;fill-opacity:0.99;"/><path d="M21.414,1.914c0.252,0.409 0.259,0.403 0.28,0.439c0.02,0.056 0.114,0.318 0.687,0.283c0.184,0.104 0.096,0.184 0.268,0.304c0.332,0.231 -0.015,0.266 -0.338,0.775c-0.112,0.086 -0.098,0.088 -0.212,0.164c-0.157,0.104 -0.074,0.251 -0.075,0.254c-0.067,0.031 -0.135,0.062 -0.202,0.093c-0.194,-0.106 -0.191,-0.115 -0.21,-0.114c-0.283,0.018 -0.219,-0.144 -0.211,-0.603c-0.068,-0.076 -0.136,-0.152 -0.203,-0.227c0.002,-0.001 -0,-0 0.217,-0.093c0.473,-0.053 0.188,-0.811 -0.5,-1.017c-0.595,-0.178 0.455,-0.255 0.5,-0.258Z" style="fill:#724e3c;fill-opacity:0.99;"/><path d="M5.549,5.333l0.092,0.034l0.026,0.036l0.071,0.149c0.024,0.045 0.17,0.321 0.083,0.632c-0.049,0.175 -0.204,-0.064 -0.292,0.095c-0.032,0.059 -0.041,0.13 -0.08,0.185c-0.096,0.138 -0.187,-0.297 -0.659,0.005c-0.353,0.226 -0.659,-0.364 -0.894,-0.186c-0.265,0.201 -0.288,0.109 -0.6,-0.009c0.031,-0.151 0.393,-0.607 0.501,-0.565c0.31,0.12 0.542,0.001 1.17,-0.004c0.128,-0.032 0.224,0.135 0.358,-0.166c0.08,-0.178 0.117,-0.213 0.133,-0.227c0.046,-0.043 0.05,0.059 0.092,0.02Z" style="fill:#63453a;fill-opacity:1;"/><path d="M16.358,4.377c0.098,0.005 0.196,0.01 0.294,0.015c0.083,0.229 0.106,0.207 0.274,0.392c-0.014,0.007 -0.176,0.09 -0.176,0.09c-0.044,0.182 -0.007,0.377 -0.054,0.558c-0.022,0.084 -0.121,0.132 -0.147,0.215c-0.006,0.018 0.015,0.007 0.217,0.097l0.082,0.145c-1.442,0.267 -3.052,0.452 -3.318,0.483c-0.088,-0.073 -0.016,-0.11 -0.098,-0.178c-0.08,-0.067 -0.103,0.011 -0.189,-0.06c-0.146,-0.121 0.034,-0.097 0.476,-0.233c0.362,-0.111 0.428,0.126 0.713,-0.133c0.012,0.026 -0.07,0.037 -0.059,0.063c0.117,0.266 0.203,0.107 0.385,-0.114c0.066,0.017 0.082,0.123 0.148,0.14c0.06,0.015 0.042,-0.049 0.755,-0.144c0.263,-0.035 0.242,-0.079 0.495,-0.135c0.041,-0.009 0.621,-0.139 0.303,-0.429c-0.207,-0.188 -0.172,-0.211 -0.111,-0.478c0.003,-0.098 0.006,-0.195 0.009,-0.293Z" style="fill:#724e3e;fill-opacity:0.98;"/><path d="M16.916,2.695c0.066,0.269 -0.035,0.447 0.24,0.367c0.036,-0.01 0.031,0.009 0.464,-0.055c0.09,0.068 0.181,0.137 0.271,0.205c-0.574,0.236 -0.653,0.117 -1.05,0.594c-0.22,0.038 -0.2,0.057 -0.393,0.176l-0.082,0.07l-0.306,-0.056c-0.599,-0.757 -0.567,-0.839 -0.588,-1.075c0.431,0.247 0.648,0.441 0.728,-0.056c0.12,-0.217 0.058,-0.359 0.306,-0.295c0.215,0.055 0.187,0.125 0.41,0.125Z" style="fill:#be8d5b;fill-opacity:1;"/><path d="M10.902,3.894c0.483,0.263 0.501,0.147 1.066,0.181c0.234,0.049 0.364,-0.014 0.301,0.208c-0.096,0.337 -0.093,0.448 0.266,0.464c0.003,0.026 0.155,0.045 0.023,0.196c-0.087,0.099 -0.098,0.074 -0.199,0.151c-0.693,-0.055 -0.709,0.111 -1.343,-0.151c-0.546,-0.226 -0.278,-0.398 -0.101,-0.689c-0.044,-0.048 -0.139,-0.021 -0.183,-0.069c-0.012,-0.013 0.007,-0.014 0.095,-0.193l0.077,-0.098Z" style="fill:#926748;fill-opacity:1;"/><path d="M17.997,3.205c0.113,0.059 0.184,0.002 0.206,0.202c0.046,0.412 0.33,0.229 0.797,0.791c-0.15,0.194 -0.179,0.157 -0.337,0.352c-0.243,0.018 -0.229,0.028 -0.47,0.093c-0.092,-0.042 -0.079,-0.033 -0.175,-0.079c-0.359,-0.174 -0.375,-0.345 -0.704,-0.109c-0.083,0.059 -0.097,-0.007 -0.181,0.044c-0.056,0.034 -0.023,0.042 0.097,0.367l-0.22,0.097c-0.028,-0.06 -0.055,-0.12 -0.083,-0.18c-0.168,-0.184 -0.191,-0.162 -0.274,-0.392c0.035,-0.027 0.07,-0.054 0.105,-0.08c0.325,-0.228 0.354,-0.165 0.683,-0.401c0.436,-0.218 0.44,-0.238 0.556,-0.706Z" style="fill:#604237;fill-opacity:1;"/><path d="M9.042,3.49l0.1,-0.002c0.567,-0.058 0.613,-0.108 1.028,0.28c-0.276,0.408 -0.423,0.11 -0.624,0.237c-0.028,0.018 -0.021,0.022 -0.298,0.291c0.067,0.079 0.135,0.159 0.202,0.238c0.229,0.038 0.233,0.055 0.247,0.041c0.171,-0.178 0.2,-0.186 0.41,-0.046c-0.031,0.058 -0.115,0.215 -0.765,0.293c-0.417,-0.238 -0.289,-0.504 -0.774,-0.473c-0.154,0.01 -0.474,0.096 -0.771,-0.006c-0.185,-0.063 -0.166,-0.08 -0.31,-0.197c0.289,-0.028 0.755,-0.266 0.949,-0.206c0.247,0.076 0.229,-0.019 0.448,-0.15c0.025,0.011 0.543,0.227 0.16,-0.301Z" style="fill:#cd9c65;fill-opacity:1;"/><path d="M15.456,4.555c0.379,0.271 0.427,0.058 0.893,0.115c-0.061,0.267 -0.096,0.289 0.111,0.478c0.318,0.289 -0.262,0.419 -0.303,0.429c-0.253,0.057 -0.233,0.1 -0.495,0.135c-0.713,0.096 -0.696,0.16 -0.755,0.144c-0.066,-0.017 -0.082,-0.123 -0.148,-0.14c0.162,-0.22 0.179,-0.201 0.27,-0.462c0.02,-0.092 -0.107,-0.193 0.333,-0.611l0.094,-0.089Z" style="fill:#604237;fill-opacity:1;"/><path d="M14.311,0.879l0.097,0.004c0.113,0.104 0.087,0.112 0.205,0.187c0.153,0.097 0.08,0.136 0.121,0.178c0.095,0.098 0.095,-0.161 0.457,-0.075c-0.09,0.119 -0.081,0.117 -0.088,0.26c-0.156,0.019 -0.141,0.016 -0.307,0.037c-0.308,0.039 -0.294,0.176 -0.585,0.075c-0.175,0.258 -0.292,0.117 -0.487,0.363c-0.064,0.01 -0.127,0.02 -0.191,0.03c-0.466,-0.203 -0.473,-0.165 -0.903,-0.427c0.128,-0.105 0.12,-0.112 0.133,-0.117c0.16,-0.05 0.145,-0.047 0.283,-0.121c0.033,-0.031 0.066,-0.061 0.1,-0.092c0.128,-0.041 0.255,-0.081 0.383,-0.122c0.238,-0.054 0.286,0.005 0.782,-0.181Z" style="fill:#cc9c66;fill-opacity:0.98;"/><path d="M13.855,2.064c0.001,-0 0.751,-0.395 1.352,-0.326c0.335,0.038 -0.057,0.42 0.278,0.514c-0.085,0.187 0.011,0.205 -0.079,0.388c-0.039,0.064 -0.078,0.127 -0.118,0.191c-0.04,0.058 -0.081,0.116 -0.121,0.174c-0.038,0.022 -0.077,0.044 -0.115,0.066c-0.136,-0.133 -0.131,-0.12 -0.245,-0.265c-0.097,-0.031 -0.195,-0.061 -0.292,-0.092c-0.035,-0.029 -0.071,-0.059 -0.106,-0.088c-0.036,-0.21 -0.047,-0.198 -0.2,-0.328c-0.238,0.244 -0.341,0.429 -0.473,0.117c-0.049,-0.114 -0.061,-0.093 -0.125,-0.192c0.04,-0.023 0.081,-0.046 0.121,-0.069c0.041,-0.03 0.081,-0.06 0.122,-0.09Z" style="fill:#daaa6e;fill-opacity:1;"/><path d="M13.434,2.238l0.117,0.037c-0.015,0.049 -0.031,0.098 -0.046,0.147l-0.041,0.033c-0.034,0.082 -0.174,0.084 -0.208,0.165c-0.068,0.163 0.256,0.015 0.276,0.006c0.028,0.066 0.056,0.133 0.084,0.199c-0.002,0.037 -0.005,0.074 -0.007,0.111c0.288,0.27 0.282,0.514 0.601,0.271c0.065,-0.049 0.507,-0.084 0.498,-0.183c-0.012,-0.124 0.044,-0.095 0.101,-0.219c0.114,0.145 0.109,0.133 0.245,0.265c-0.095,0.123 -0.059,0.124 -0.037,0.279c-0.063,0.012 -0.125,0.024 -0.188,0.036c-0.159,-0.113 -0.18,-0.174 -0.454,-0c-0.323,0.227 -0.275,0.536 -0.602,0.309c-0.021,-0.06 -0.042,-0.121 -0.063,-0.181c-0.54,-0.784 -0.652,-0.654 -1.373,-0.942c-0.133,-0.053 -0.176,0.066 -0.268,0.04c-0.054,-0.016 -0.447,-0.252 -0.485,-0.275c0.062,-0.007 0.064,-0.133 0.126,-0.139c0.072,-0.008 0.125,0.073 0.189,0.106c0.226,0.115 0.226,0.069 0.466,-0.022c0.309,-0.116 0.537,0.279 1.07,-0.043Z" style="fill:#8f6042;fill-opacity:1;"/><path d="M9.258,1.883c0.246,0.011 0.231,-0.003 0.474,-0.047l0.291,-0.006c-0.481,0.521 -0.585,0.342 -1.206,0.663c-0.013,0.007 -0.531,0.33 0.024,0.181c0.035,-0.009 0.224,-0.06 0.112,0.443c-0.088,0.021 -0.077,0.024 -0.303,0.127c-0.344,-0.131 -0.444,-0.055 -0.53,-0.422c0.202,-0.213 0.357,-0.312 0.047,-0.444c-0.044,-0.019 -0.156,0.038 -0.288,-0.262c0.066,-0.028 0.132,-0.056 0.197,-0.084c0.604,-0.049 0.598,-0.001 1.181,-0.147Z" style="fill:#c49461;fill-opacity:0.98;"/><path d="M15.293,3.204c0.319,0.664 0.47,0.836 0.189,0.821c-0.016,-0.001 -0.093,-0.005 -0.188,0.077c-0.09,0.078 -0.098,0.026 -0.206,0.067c-0.051,0.019 -0.052,0.107 -0.102,0.126c-0.371,-0.291 -0.569,0.076 -0.834,-0.325c-0.073,0.02 -0.145,0.041 -0.218,0.061c-0.011,0.01 -0.144,0.122 -0.144,0.122c0.062,0.1 0.105,0.046 0.163,0.142c0.029,0.049 -0.056,0.037 -0.028,0.085l-0.057,0.082c-0.224,-0.138 -0.224,-0.133 -0.34,-0.378c0.136,-0.198 0.133,-0.186 0.243,-0.391c0.327,0.227 0.28,-0.082 0.602,-0.309c0.039,0.014 0.001,0.104 0.04,0.117c0.09,0.031 0.19,-0.006 0.284,-0.005c0.095,0.001 0.055,-0.048 0.13,-0.113c0.063,-0.012 0.125,-0.024 0.188,-0.036c0.112,-0.118 0.11,-0.097 0.277,-0.144Z" style="fill:#bf8d59;fill-opacity:1;"/><path d="M16.548,0.685c0.554,0.31 0.674,0.41 0.726,0.454c-0.139,0.326 -0.2,0.283 -0.236,0.309c-0.746,-0.007 -0.763,-0.183 -1.466,0.093c-0.022,0.009 -0.022,-0.002 -0.295,-0.022l-0.175,-0.086c0.007,-0.143 -0.002,-0.14 0.088,-0.26c0.161,-0.135 0.146,-0.132 0.287,-0.293c0.827,-0.185 0.983,-0.192 1.07,-0.196Z" style="fill:#e6ba7d;fill-opacity:0.99;"/><path d="M10.136,1.792c0.149,0.01 0.136,0 0.278,-0.046c0.305,0.019 0.298,0.003 0.587,0.073l0.095,0.135c-0.181,0.356 -0.332,0.213 -0.357,0.215c-0.013,-0.015 0.02,-0.301 -0.416,-0.018c-0.235,0.152 -0.351,0.276 -0.377,0.304c-0.263,0.279 -0.135,0.335 -0.292,0.688l-0.179,0.115c-0.257,-0.12 -0.246,-0.11 -0.521,-0.142c0.112,-0.503 -0.077,-0.452 -0.112,-0.443c-0.555,0.149 -0.037,-0.174 -0.024,-0.181c0.621,-0.321 0.725,-0.141 1.206,-0.663l0.112,-0.038Z" style="fill:#d8a86e;fill-opacity:0.97;"/><path d="M21.414,1.914c0.687,-0.462 1.18,0.138 1.224,0.174c0.211,0.575 0.425,0.785 0.48,0.839l-0.056,0.185c-0.326,0.727 -0.441,0.744 -1.039,1.021c0.001,-0.003 -0.082,-0.15 0.075,-0.254c0.114,-0.076 0.101,-0.078 0.212,-0.164c0.323,-0.509 0.67,-0.544 0.338,-0.775c-0.172,-0.12 -0.084,-0.2 -0.268,-0.304c-0.228,-0.419 -0.303,-0.574 -0.687,-0.283c-0.021,-0.036 -0.028,-0.03 -0.28,-0.439Z" style="fill:#9f724f;fill-opacity:0.99;"/><path d="M15.103,1.433c0.058,0.029 0.117,0.057 0.175,0.086c0.273,0.021 0.273,0.031 0.295,0.022c0.703,-0.277 0.72,-0.1 1.466,-0.093c-0.05,0.258 -0.03,0.251 -0.037,0.271c-0.054,0.041 -0.108,0.081 -0.161,0.122c-0.269,0.073 -0.267,0.074 -0.29,0.079c-0.05,0.012 -0.044,-0.005 -0.096,0.007c0.021,-0.171 0.032,-0.177 -0.083,-0.298c-0.204,-0.02 -0.191,-0.071 -0.521,0.002c-0.168,0.09 -0.156,0.086 -0.305,0.191c-0.062,0.199 0.002,0.192 -0.002,0.402l-0.058,0.027c-0.336,-0.094 0.057,-0.476 -0.278,-0.514c-0.601,-0.069 -1.351,0.326 -1.352,0.326c-0.044,-0.052 -0.088,-0.104 -0.132,-0.156c0.195,-0.246 0.312,-0.105 0.487,-0.363c0.291,0.102 0.278,-0.035 0.585,-0.075c0.166,-0.021 0.151,-0.018 0.307,-0.037Z" style="fill:#9f6d49;fill-opacity:1;"/><path d="M5.998,6.322c0.158,0.054 0.551,0.189 2.077,0.209c0.36,0.005 1.366,-0.585 0.75,0.088c-0.017,0.018 -0.023,0.001 -0.262,0.166c-1.462,0.015 -1.45,-0.034 -2.912,-0.025c0.332,-0.396 0.316,-0.405 0.347,-0.438Z" style="fill:#785542;fill-opacity:0.97;"/><path d="M15.545,1.822c0.433,0.196 0.441,0.105 0.909,0.105c0.052,-0.012 0.045,0.005 0.096,-0.007c0.023,-0.005 0.022,-0.006 0.29,-0.079c0.099,0.156 0.09,0.149 0.217,0.269c-0.137,0.182 -0.125,0.18 -0.153,0.412c0.004,0.058 0.008,0.115 0.012,0.173c-0.223,-0 -0.195,-0.07 -0.41,-0.125c-0.248,-0.064 -0.186,0.079 -0.306,0.295c-0.195,-0.323 -0.22,-0.306 -0.232,-0.336c-0.102,-0.129 -0.114,-0.113 -0.283,-0.116c-0.077,-0.046 -0.061,-0.055 -0.142,-0.188c0.004,-0.211 -0.061,-0.204 0.002,-0.402Z" style="fill:#e4b576;fill-opacity:1;"/><path d="M5.591,4.241l0.05,0.047c0.056,0.097 0.112,0.193 0.168,0.29c0.023,0.201 0.021,0.189 0.076,0.373l-0.049,0.11c-0.176,0.099 -0.156,0.106 -0.286,0.273c-0.726,-0.297 -0.684,-0.582 -1.459,-0.385c-0.023,-0.057 -0.046,-0.114 -0.069,-0.171c0.03,-0.014 0.019,0.001 0.385,-0.163c0.084,-0.014 0.97,-0.16 1.045,-0.205c0.063,-0.037 0.077,-0.131 0.139,-0.169Z" style="fill:#ac7f57;fill-opacity:1;"/><path d="M21.05,3.345l0.147,-0.063c0.068,0.076 0.136,0.152 0.203,0.227c-0.314,0.008 -0.357,0.089 -0.26,0.383c0.118,0.359 -0.598,0.887 -0.697,0.684c-0.002,-0.003 0.294,-0.475 -0.113,-0.311c-0.009,-0.116 0.035,-0.156 -0.086,-0.167c-0.36,-0.03 -0.361,0.002 -0.672,-0.188l0.095,-0.101c0.21,0.033 0.208,0.09 0.393,-0.001c0.164,-0.081 0.363,-0.042 0.397,-0.089c0.215,-0.297 0.33,-0.125 0.593,-0.376Z" style="fill:#78533f;fill-opacity:0.99;"/><path d="M13.437,4.13l0.092,-0.045c0.115,0.245 0.116,0.239 0.34,0.378c0.082,0.056 0.164,0.111 0.246,0.167c-0.451,0.272 -0.582,0.055 -1.088,0.612c-0.241,-0.054 -0.227,-0 -0.374,0.026c-0.186,-0.031 -0.185,-0.028 -0.295,-0.173c0.102,-0.077 0.112,-0.052 0.199,-0.151c0.132,-0.15 -0.02,-0.17 -0.023,-0.196c0.074,-0.088 0.148,-0.176 0.222,-0.264c0.03,-0.002 0.103,0.061 0.281,-0.022c0.191,-0.088 0.139,-0.128 0.201,-0.285c0.066,-0.016 0.133,-0.031 0.199,-0.047Z" style="fill:#845a42;fill-opacity:1;"/><path d="M19.572,3.911c0.311,0.19 0.312,0.157 0.672,0.188c0.122,0.01 0.077,0.051 0.086,0.167c-0.501,0.398 -0.496,0.383 -1.063,0.681c-0.201,0.106 -0.179,0.195 -0.389,0.127c-0.027,-0.009 -0.026,-0.005 -0.355,-0.064c0.082,-0.184 0.047,-0.184 0.12,-0.359c0.148,0.194 0.17,0.289 0.353,0.14c0.234,-0.192 0.061,-0.304 0.477,-0.793l0.099,-0.086Z" style="fill:#6b493a;fill-opacity:1;"/><path d="M3.793,3.017c0.053,0.124 0.321,0.364 0.386,0.39c0.37,0.49 0.554,0.151 0.633,0.065c0.302,0.333 0.227,0.402 0.625,0.626c-0.145,0.074 -0.109,0.138 -0.279,0.143c-0.266,0.008 -0.235,-0.104 -0.512,-0.104c-0.113,-0.601 -0.352,-0.354 -0.943,-0.24c-0.017,0.003 -0.015,0.007 -0.201,0.096c-0.295,-0.487 0.29,-0.47 0.198,-0.803c-0.009,-0.033 -0.094,0.034 -0.103,0.001c0.065,-0.057 0.13,-0.115 0.196,-0.172Z" style="fill:#b88959;fill-opacity:0.99;"/><path d="M12.172,1.758c0.053,-0.015 0.107,-0.031 0.16,-0.046c0.483,0.381 0.571,0.195 1.102,0.525c-0.533,0.322 -0.761,-0.073 -1.07,0.043c-0.241,0.091 -0.24,0.137 -0.466,0.022c-0.064,-0.033 -0.117,-0.113 -0.189,-0.106c-0.062,0.007 -0.064,0.133 -0.126,0.139c-0.25,-0.105 -0.247,-0.106 -0.281,-0.115c-0.031,-0.038 -0.006,-0.043 -0.036,-0.08c-0.013,-0.016 -0.013,-0.014 -0.17,-0.187l-0.095,-0.135l0.096,0.013l0.19,0.041c0.099,0.027 0.197,0.053 0.296,0.08c0.259,0.003 0.264,0.024 0.48,-0.12c0.065,-0.023 0.042,-0.047 0.11,-0.074Z" style="fill:#c99863;fill-opacity:0.99;"/><path d="M7.485,4.146c0.144,0.118 0.125,0.134 0.31,0.197c0.297,0.102 0.617,0.016 0.771,0.006c0.485,-0.031 0.358,0.235 0.774,0.473l-0.09,0.012c-0.194,0.121 -0.194,0.144 -0.209,0.131c-0.117,-0.102 -0.062,-0.132 -0.173,-0.242c-0.265,-0.264 -0.189,0.234 -0.595,0.298c-0.315,-0.286 -0.355,-0.169 -0.778,-0.157c0.025,-0.203 -0.024,-0.195 -0.001,-0.393c-0.06,-0.073 -0.119,-0.145 -0.179,-0.218c0.056,-0.035 0.112,-0.071 0.168,-0.106Z" style="fill:#906749;fill-opacity:1;"/><path d="M17.708,2.159c0.398,-0.158 0.983,0.293 1.053,0.347c0.289,0.16 0.209,0.321 0.531,0.318l0.17,0.24c-0.498,0.013 -0.481,0.06 -0.973,0.162c-0.246,-0.115 -0.226,-0.145 -0.254,-0.414c-0.002,-0.023 -0.016,-0.014 -0.219,-0.183c-0.013,-0.348 -0.094,-0.31 -0.308,-0.47Z" style="fill:#c89760;fill-opacity:1;"/><path d="M4.647,4.136c0.277,0 0.246,0.112 0.512,0.104c0.17,-0.005 0.134,-0.068 0.279,-0.143l0.154,0.143c-0.063,0.037 -0.077,0.131 -0.139,0.169c-0.075,0.045 -0.961,0.191 -1.045,0.205c-0.079,-0.554 -0.423,0.087 -0.527,0.079c-0.263,-0.02 -0.646,0.031 -0.765,-0.413c0.418,0.058 0.518,-0.01 0.554,-0.035c0.14,-0.096 0.146,-0.057 0.978,-0.109Z" style="fill:#8e6548;fill-opacity:1;"/><path d="M1.457,3.937l0.096,0.057c-0.029,0.016 -0.06,-0.059 -0.089,-0.043c-0.179,0.096 -0.294,0.472 -0.308,0.518c-0.034,0.109 -0.151,0.068 -0.159,0.215c-0.016,0.284 -0.023,0.435 0.231,0.618c0.065,0.125 0.058,0.116 0.065,0.125c0.194,0.274 0.039,0.353 0.039,0.361c-0.688,-0.465 -0.592,-0.642 -0.76,-1.017c-0.007,-0.067 -0.015,-0.135 -0.022,-0.202c0.011,-0.042 0.065,-0.244 0.201,-0.5c0.029,-0.036 0.059,-0.072 0.088,-0.109c0.065,0.03 0.067,0.138 0.132,0.168c0.009,0.004 0.096,-0.15 0.487,-0.192Z" style="fill:#9d7051;fill-opacity:0.99;"/><path d="M18.193,4.644c-0.015,0.01 -0.47,0.322 0.012,0.222c0.198,-0.041 0.235,-0.155 0.331,0.013c0.022,0.038 -0.034,0.092 -0.013,0.13c-0.026,0.012 -0.323,0.147 -0.323,0.147c-0.012,0.035 0.05,0.069 0.039,0.105c-0.045,0.156 -0.363,-0.027 -0.373,-0.02c-0,0 0.093,0.146 -0.071,0.231c-0.021,0.011 -0.01,-0.022 -0.227,-0.185c0.084,-0.255 0.12,-0.221 0.127,-0.242c0.107,-0.336 -0.114,-0.239 -0.465,-0.178c-0.12,-0.325 -0.153,-0.333 -0.097,-0.367c0.084,-0.051 0.098,0.015 0.181,-0.044c0.33,-0.236 0.345,-0.065 0.704,0.109c0.095,0.046 0.083,0.038 0.175,0.079Z" style="fill:#73503f;fill-opacity:1;"/><path d="M13.55,2.275l0.062,-0.053c0.064,0.098 0.076,0.078 0.125,0.192c0.133,0.312 0.236,0.126 0.473,-0.117c0.154,0.13 0.164,0.118 0.2,0.328c-0.164,0.028 -0.155,0.019 -0.164,0.028c-0.063,0.067 0.085,0.582 0.27,0.06c0.097,0.031 0.195,0.061 0.292,0.092c-0.057,0.124 -0.113,0.095 -0.101,0.219c0.009,0.1 -0.433,0.134 -0.498,0.183c-0.32,0.244 -0.313,-0.001 -0.601,-0.271l0.007,-0.111c-0.028,-0.066 -0.056,-0.133 -0.084,-0.199l-0.027,-0.205c0.015,-0.049 0.031,-0.098 0.046,-0.147Z" style="fill:#c4925d;fill-opacity:1;"/><path d="M3.979,2.829c0.053,-0.023 0.021,-0.187 0.312,-0.133c0.024,0.005 0.021,0.009 0.283,0.121c0.065,0.099 0.13,0.197 0.195,0.296c0.037,0.021 0.074,0.043 0.111,0.064c0.294,0.324 0.26,0.337 0.55,0.648c0.187,0.09 0.162,-0.029 0.225,-0.061c0.265,0.201 0.262,0.201 0.286,0.217c0.039,0.026 0.045,-0.011 0.089,0.019c-0.102,0.245 -0.14,0.213 -0.389,0.287l-0.05,-0.047l-0.154,-0.143c-0.398,-0.224 -0.323,-0.293 -0.625,-0.626c-0.25,-0.118 -0.239,-0.123 -0.261,-0.132c-0.001,-0.032 -0.006,-0.366 -0.204,-0.35c-0.053,0.004 -0.035,0.129 -0.088,0.133c-0.075,-0.119 -0.063,-0.115 -0.159,-0.214l-0.122,-0.082Z" style="fill:#79513d;fill-opacity:0.99;"/><path d="M18.017,2.629c0.203,0.169 0.217,0.16 0.219,0.183c0.028,0.269 0.008,0.299 0.254,0.414c0.109,0.255 0.126,0.231 0.311,0.444c0.055,0.059 0.288,0.507 0.295,-0.044l0.178,-0.127c0.028,0.02 0.071,-0.049 0.098,-0.029c0.187,0.135 0.115,0.188 0.295,0.34l-0.095,0.101l-0.099,0.086c-0.05,-0.026 -0.051,-0.11 -0.101,-0.136c-0.036,-0.019 -0.041,-0.002 -0.372,0.338c-0.466,-0.562 -0.751,-0.38 -0.797,-0.791c-0.022,-0.2 -0.094,-0.143 -0.206,-0.202c-0.033,-0.151 -0.066,-0.303 -0.099,-0.454c0.039,-0.04 0.079,-0.081 0.118,-0.121Z" style="fill:#8a6045;fill-opacity:1;"/><path d="M3.075,3.554c0.003,0.073 0.154,0.08 0.157,0.153c0.002,0.063 -0.127,0.06 -0.146,0.12c-0.006,0.02 0.055,-0.049 0.208,0.16c0.131,0.178 0.187,0.005 0.209,0.006c0.186,-0.088 0.183,-0.092 0.201,-0.096c0.591,-0.114 0.831,-0.361 0.943,0.24c-0.832,0.052 -0.839,0.013 -0.978,0.109c-0.037,0.025 -0.136,0.093 -0.554,0.035c-0.278,-0.375 -0.445,-0.579 -0.039,-0.727Z" style="fill:#ac7e54;fill-opacity:1;"/><path d="M1.227,5.303c0.619,-0.044 0.626,0.482 0.806,0.454c0.219,-0.033 0.315,0.327 0.431,0.015c0.175,-0.467 0.237,0.16 0.239,0.184l0.018,0.079c-0.184,0.068 -0.165,0.085 -0.299,0.214c-0.569,-0.184 -0.58,-0.141 -1.093,-0.462c0,-0.008 0.155,-0.087 -0.039,-0.361c-0.006,-0.009 0,0 -0.065,-0.125Z" style="fill:#7a5643;fill-opacity:0.98;"/><path d="M1.967,3.255l0.053,0.01c0.194,0.088 0.179,0.101 0.32,0.119c-0.005,0.04 -0.002,0.08 -0.007,0.12c-0,0.002 -0.216,0.397 -0.293,0.38c-0.262,-0.059 -0.273,-0.092 -0.495,0.058l-0.089,-0.006c-0.391,0.042 -0.478,0.197 -0.487,0.192c-0.065,-0.03 -0.067,-0.138 -0.132,-0.168c0.34,-0.312 0.379,-0.239 0.723,-0.546c0.218,-0.064 0.216,-0.051 0.286,-0.101c0.04,-0.019 0.08,-0.039 0.12,-0.058Z" style="fill:#c39467;fill-opacity:0.96;"/><path d="M10.17,3.768c0.304,0.322 0.265,0.347 0.267,0.724c-0.068,0.007 -0.054,0.02 -0.12,0.026c-0.017,0.002 -0.016,0.001 -0.211,0.011c-0.21,-0.14 -0.239,-0.132 -0.41,0.046c-0.014,0.014 -0.018,-0.003 -0.247,-0.041c-0.07,-0.154 -0.058,-0.157 -0.202,-0.238c0.277,-0.269 0.27,-0.274 0.298,-0.291c0.202,-0.127 0.349,0.171 0.624,-0.237Z" style="fill:#c3915c;fill-opacity:0.99;"/><path d="M15.289,2.831l0.183,0.091c0.021,0.236 -0.011,0.317 0.588,1.075c-0.111,0.038 -0.104,0.015 -0.206,0.07c-0.285,0.152 -0.167,0.251 -0.398,0.489l-0.094,0.089c-0.378,-0.295 -0.344,-0.323 -0.377,-0.348c0.051,-0.019 0.052,-0.107 0.102,-0.126c0.108,-0.041 0.115,0.011 0.206,-0.067c0.094,-0.081 0.171,-0.077 0.188,-0.077c0.282,0.015 0.131,-0.157 -0.189,-0.821c-0.041,-0.067 -0.083,-0.133 -0.124,-0.2c0.04,-0.058 0.081,-0.116 0.121,-0.174Z" style="fill:#865b41;fill-opacity:1;"/><path d="M19.597,3.342c0.098,0.167 0.145,0.126 0.285,-0.011c0.2,0.157 0.213,0.062 0.462,-0.024c0.299,-0.103 0.297,-0.053 0.598,0.042l0.106,-0.004c-0.262,0.25 -0.378,0.078 -0.593,0.376c-0.034,0.047 -0.233,0.008 -0.397,0.089c-0.185,0.091 -0.183,0.034 -0.393,0.001c-0.18,-0.152 -0.108,-0.205 -0.295,-0.34c-0.028,-0.02 -0.071,0.049 -0.098,0.029c0.053,-0.019 0.047,-0.019 0.324,-0.157Z" style="fill:#966a4a;fill-opacity:0.99;"/><path d="M17.057,2.11c0.178,0.067 0.166,0.074 0.35,0.141c0.07,0.038 0.258,0.072 0.491,0.499c0.033,0.151 0.066,0.303 0.099,0.454l-0.106,0.007c-0.09,-0.068 -0.181,-0.137 -0.271,-0.205c-0.332,-0.324 -0.251,-0.498 -0.716,-0.485c0.028,-0.232 0.016,-0.23 0.153,-0.412Z" style="fill:#d9a86a;fill-opacity:1;"/><path d="M12.543,3.973c0.102,0.056 0.204,0.111 0.305,0.167c-0.074,0.333 -0.09,0.314 -0.093,0.343c-0.074,0.088 -0.148,0.176 -0.222,0.264c-0.359,-0.016 -0.362,-0.127 -0.266,-0.464c0.063,-0.222 -0.066,-0.159 -0.301,-0.208c0.157,-0.311 0.23,-0.594 0.371,-0.269c0.008,0.018 0.077,0.179 0.131,0.214c0.024,0.016 0.05,-0.063 0.075,-0.047Z" style="fill:#ac7b50;fill-opacity:0.99;"/><path d="M16.06,3.996l0.306,0.056c-0.003,0.108 -0.005,0.217 -0.008,0.325c-0.003,0.098 -0.006,0.195 -0.009,0.293c-0.466,-0.057 -0.514,0.156 -0.893,-0.115c0.231,-0.238 0.113,-0.336 0.398,-0.489c0.102,-0.054 0.095,-0.032 0.206,-0.07Z" style="fill:#604136;fill-opacity:1;"/><path d="M5.809,4.578c0.272,-0.443 0.392,-0.01 0.473,0.121c0.254,0.565 0.117,0.914 -0.228,0.619c-0.175,-0.15 -0.187,-0.016 -0.413,0.049l-0.092,-0.034c0.129,-0.167 0.11,-0.173 0.286,-0.273c0.05,-0.053 0.069,-0.043 0.049,-0.11c-0.055,-0.184 -0.052,-0.172 -0.076,-0.373Z" style="fill:#765240;fill-opacity:0.99;"/><path d="M19.463,3.065l0.246,0.098c-0.037,0.059 -0.075,0.119 -0.112,0.178c-0.277,0.138 -0.271,0.138 -0.324,0.157l-0.178,0.127l-0.295,0.044c-0.185,-0.214 -0.202,-0.19 -0.311,-0.444c0.492,-0.101 0.475,-0.148 0.973,-0.162Z" style="fill:#ac7e52;fill-opacity:1;"/><path d="M11.195,2.53c0.336,0.067 0.373,0.164 0.386,0.197c0.13,0.336 0.281,0.048 0.612,0.182l0.113,0.208c-0.225,0.217 -1.285,0.057 -1.237,-0.216c0.035,-0.199 0.096,-0.167 0.127,-0.37Z" style="fill:#e2b172;fill-opacity:1;"/><path d="M18.761,2.506c0.067,-0.153 0.065,-0.14 0.067,-0.153c0.048,-0.297 0.705,0.054 0.912,0.218c0.187,0.195 0.177,0.196 0.417,0.33l0.041,0.08c-0.128,0.031 -0.255,0.062 -0.383,0.092c-0.031,-0.047 -0.362,-0.55 -0.438,-0.545c-0.078,0.005 -0.084,0.272 -0.085,0.297c-0.322,0.002 -0.242,-0.158 -0.531,-0.318Z" style="fill:#af7e51;fill-opacity:1;"/><path d="M17.23,4.867c0.352,-0.061 0.572,-0.158 0.465,0.178c-0.007,0.021 -0.043,-0.013 -0.127,0.242c-0.41,0.027 -0.389,0.116 -0.628,0.6l-0.092,0.003l-0.082,-0.145c0.187,-0.375 0.156,-0.373 0.243,-0.78l0.22,-0.097Z" style="fill:#593d33;fill-opacity:0.99;"/><path d="M17.997,3.205c-0.116,0.467 -0.12,0.488 -0.556,0.706c-0.562,-0.118 -0.553,-0.089 -0.6,-0.104c0.398,-0.477 0.476,-0.358 1.05,-0.594l0.106,-0.007Z" style="fill:#a5764e;fill-opacity:1;"/><path d="M13.934,4.032c0.073,-0.02 0.145,-0.041 0.218,-0.061c0.264,0.401 0.463,0.035 0.834,0.325c-0.707,0.353 -0.797,0.343 -0.871,0.334c-0.082,-0.056 -0.164,-0.111 -0.246,-0.167l0.057,-0.082c0.065,-0.176 0.077,-0.172 0.008,-0.349Z" style="fill:#9c6d49;fill-opacity:1;"/><path d="M8.557,3.468c0.201,0.034 0.193,0.053 0.395,0.032c-0.082,0.183 -0.084,0.181 -0.089,0.198c-0.015,0.053 0.034,0.041 0.018,0.094c-0.219,0.131 -0.201,0.226 -0.448,0.15c-0.194,-0.06 -0.66,0.178 -0.949,0.206l-0.168,0.106c-0.077,-0.108 -0.1,-0.096 -0.09,-0.237c0.026,-0.011 0.19,-0.083 0.321,-0.14c0.063,-0.001 0.042,0.159 0.105,0.159c0.069,-0.001 0.075,-0.119 0.13,-0.161c0.02,-0.016 0.027,0.014 0.192,-0.045c0.361,-0.127 0.51,0.022 0.581,-0.361Z" style="fill:#deb073;fill-opacity:1;"/><path d="M6.493,3.851c-0.166,0.216 -0.16,0.22 -0.18,0.233c-0.218,0.146 0.289,0.088 0.315,0.085c0.15,0.175 0.157,0.158 0.169,0.173c-0.041,0.029 -0.44,0.309 -0.516,0.357c-0.081,-0.131 -0.201,-0.564 -0.473,-0.121c-0.056,-0.097 -0.112,-0.193 -0.168,-0.29c0.249,-0.074 0.287,-0.042 0.389,-0.287c0.221,-0.112 0.211,-0.103 0.463,-0.149Z" style="fill:#916648;fill-opacity:1;"/><path d="M7.776,2.727c0.105,-0.013 0.099,-0.076 0.201,-0.024c0.088,0.045 0.066,0.054 0.144,0.118c0.087,0.367 0.187,0.291 0.53,0.422c0.047,0.014 0.28,0.082 0.595,0.119l-0.104,0.125l-0.1,0.002l-0.09,0.01c-0.202,0.022 -0.194,0.002 -0.395,-0.032c-0.113,-0.033 -0.226,-0.066 -0.338,-0.099c-0.283,-0.279 -0.308,-0.259 -0.443,-0.641Z" style="fill:#84573e;fill-opacity:0.99;"/><path d="M19.778,1.047l0.08,0.025c-0.026,0.232 -0.16,0.121 -0.312,0.315l0.087,0.01c-0.588,0.058 -0.722,0.367 -0.937,-0.068l0.112,-0.149c0.075,-0.023 0.624,-0.192 0.97,-0.134Z" style="fill:#ddac6c;fill-opacity:1;"/><path d="M10.437,4.491c-0.081,0.328 -0.083,0.326 -0.324,0.56c-0.434,-0.163 -0.697,0.326 -0.862,-0.217l0.09,-0.012c0.65,-0.077 0.734,-0.235 0.765,-0.293c0.195,-0.011 0.194,-0.01 0.211,-0.011c0.066,-0.007 0.052,-0.02 0.12,-0.026Z" style="fill:#896046;fill-opacity:1;"/><path d="M12.467,1.566l0.163,-0.054c0.43,0.262 0.437,0.224 0.903,0.427c0.109,0.101 0.087,0.108 0.201,0.215c-0.04,0.023 -0.081,0.046 -0.121,0.069l-0.062,0.053l-0.117,-0.037c-0.531,-0.331 -0.619,-0.144 -1.102,-0.525l0.042,-0.044c0.031,-0.034 0.062,-0.068 0.093,-0.102Z" style="fill:#6e4737;fill-opacity:0.99;"/><path d="M2.341,3.384c0.169,0.066 0.298,-0.007 0.283,0.314c0,0 0.029,0.177 0.031,0.192c-0.296,-0.017 -0.294,-0.01 -0.525,0.166c-0.369,0.052 -0.404,0.141 -0.577,-0.063l-0.007,-0.052c0.222,-0.15 0.233,-0.116 0.495,-0.058c0.077,0.017 0.293,-0.378 0.293,-0.38c0.005,-0.04 0.002,-0.08 0.007,-0.12Z" style="fill:#ba8a5d;fill-opacity:0.99;"/><path d="M10.739,2.169c-0.775,0.458 -0.791,0.524 -0.771,0.642c0.039,0.227 -0.009,0.212 -0.128,0.395c-0.062,-0.021 -0.125,-0.042 -0.187,-0.063c0.157,-0.353 0.029,-0.408 0.292,-0.688c0.027,-0.028 0.143,-0.152 0.377,-0.304c0.436,-0.283 0.403,0.003 0.416,0.018Z" style="fill:#84553b;fill-opacity:0.99;"/><path d="M19.473,3.997c-0.417,0.488 -0.243,0.6 -0.477,0.793c-0.183,0.15 -0.205,0.054 -0.353,-0.14l0.02,-0.099c0.158,-0.195 0.187,-0.158 0.337,-0.352c0.331,-0.34 0.336,-0.356 0.372,-0.338c0.05,0.026 0.051,0.11 0.101,0.136Z" style="fill:#976b4b;fill-opacity:1;"/><path d="M7.009,4.342c0.148,0.152 0.128,0.153 0.238,0.339c-0.032,0.265 0.018,0.274 -0.117,0.496c-0.417,-0.135 -0.38,-0.203 -0.417,-0.212c-0.409,-0.093 0.094,-0.181 0.295,-0.623Z" style="fill:#966b4b;fill-opacity:1;"/><path d="M3.598,3.19c0.009,0.033 0.094,-0.034 0.103,-0.001c0.091,0.333 -0.493,0.316 -0.198,0.803c-0.022,-0.001 -0.078,0.172 -0.209,-0.006c-0.153,-0.208 -0.214,-0.14 -0.208,-0.16c0.019,-0.06 0.148,-0.057 0.146,-0.12c-0.003,-0.073 -0.154,-0.08 -0.157,-0.153c0.095,-0.116 0.084,-0.121 0.039,-0.268c0.238,-0.101 0.229,-0.084 0.483,-0.096Z" style="fill:#a77952;fill-opacity:0.99;"/><path d="M7.69,2.11c0.063,0.002 0.126,0.003 0.189,0.005c0.132,0.3 0.243,0.244 0.288,0.262c0.31,0.133 0.156,0.231 -0.047,0.444c-0.078,-0.064 -0.056,-0.073 -0.144,-0.118c-0.102,-0.052 -0.096,0.011 -0.201,0.024l-0.106,-0.093c0.021,-0.271 -0.003,-0.26 0.02,-0.525Z" style="fill:#9a6c4b;fill-opacity:0.99;"/><path d="M20.638,2.727c0.126,-0.105 0.269,-0.517 0.583,-0.001c0.138,0.228 0.022,0.27 0.193,0.463c-0.217,0.092 -0.215,0.091 -0.217,0.093l-0.147,0.063l-0.106,0.004c-0.007,-0.073 -0.015,-0.146 -0.022,-0.218c0.026,-0.023 0.077,0.04 0.103,0.017c0.22,-0.193 -0.023,-0.183 -0.386,-0.421Z" style="fill:#a1724e;fill-opacity:0.99;"/><path d="M16.841,3.806c0.046,0.015 0.038,-0.013 0.6,0.104c-0.329,0.236 -0.358,0.173 -0.683,0.401c-0.167,-0.144 -0.288,-0.301 -0.31,-0.329c0.193,-0.119 0.173,-0.138 0.393,-0.176Z" style="fill:#9b6e4b;fill-opacity:0.99;"/><path d="M15.968,2.529c0.012,0.03 0.037,0.013 0.232,0.336c-0.08,0.497 -0.298,0.303 -0.728,0.056l0.198,-0.295c0.159,-0.023 0.149,-0.031 0.298,-0.097Z" style="fill:#d7a66b;fill-opacity:1;"/><path d="M12.652,5.267c0.147,-0.026 0.133,-0.079 0.374,-0.026c-0.012,0.025 -0.115,0.242 -0.186,0.3c-0.061,0.049 -0.609,0.495 -0.773,0.595c-0.016,0.01 -0.007,-0.015 -0.105,-0.212c0.563,-0.46 0.614,-0.419 0.69,-0.657Z" style="fill:#6e4c3d;fill-opacity:1;"/><path d="M6.527,3.822c0.155,-0.021 0.31,-0.042 0.465,-0.063c0.322,0.002 0.32,0.002 0.322,0.002c0.132,0.009 0.125,0.007 0.248,0.057l-0.015,0.059c-0.13,0.057 -0.295,0.129 -0.321,0.14c-0.073,0.026 -0.146,0.052 -0.219,0.078c-0.132,-0.208 -0.176,-0.195 -0.39,-0.086c-0.216,0.111 0.009,0.152 0.01,0.162c-0.026,0.003 -0.533,0.061 -0.315,-0.085c0.02,-0.013 0.013,-0.017 0.18,-0.233l0.035,-0.029Z" style="fill:#946546;fill-opacity:1;"/><path d="M16.904,2.522c0.465,-0.013 0.385,0.161 0.716,0.485c-0.433,0.064 -0.428,0.045 -0.464,0.055c-0.275,0.08 -0.175,-0.098 -0.24,-0.367c-0.004,-0.058 -0.008,-0.115 -0.012,-0.173Z" style="fill:#ce9c60;fill-opacity:1;"/><path d="M8.219,3.368c0.113,0.033 0.226,0.066 0.338,0.099c-0.071,0.383 -0.22,0.234 -0.581,0.361c-0.165,0.058 -0.171,0.029 -0.192,0.045c-0.055,0.042 -0.061,0.16 -0.13,0.161c-0.063,0.001 -0.042,-0.159 -0.105,-0.159l0.015,-0.059c0.277,-0.116 0.274,-0.118 0.307,-0.125c0.116,-0.108 0.232,-0.216 0.348,-0.324Z" style="fill:#b68456;fill-opacity:1;"/><path d="M14.407,0.883l0.194,-0.012l0.097,-0.001c0.147,0.043 0.137,0.042 0.291,-0.007c0.163,0.006 0.325,0.012 0.488,0.018c-0.141,0.161 -0.126,0.158 -0.287,0.293c-0.362,-0.086 -0.363,0.174 -0.457,0.075c-0.041,-0.043 0.032,-0.081 -0.121,-0.178c-0.118,-0.075 -0.092,-0.084 -0.205,-0.187Z" style="fill:#af7c54;fill-opacity:0.94;"/><path d="M20.249,3.116c0.347,-0.073 0.346,-0.096 0.672,0.014c0.007,0.073 0.015,0.146 0.022,0.218c-0.302,-0.095 -0.3,-0.145 -0.598,-0.042c-0.25,0.086 -0.263,0.181 -0.462,0.024c0.18,-0.116 0.165,-0.119 0.366,-0.215Z" style="fill:#cfa46d;fill-opacity:0.99;"/><path d="M12.758,3.724c0.014,0.007 0.178,0.086 0.178,0.086c0.148,0.118 0.15,0.084 0.337,0.051l0.164,0.269c-0.066,0.016 -0.133,0.031 -0.199,0.047l-0.39,-0.036c-0.102,-0.056 -0.204,-0.111 -0.305,-0.167c0.076,-0.153 0.071,-0.142 0.215,-0.249Z" style="fill:#b88453;fill-opacity:1;"/><path d="M7.497,4.863c0.423,-0.012 0.463,-0.129 0.778,0.157c-0.106,0.073 -0.071,0.123 -0.197,0.136c-0.034,0.004 -0.459,0.262 -0.581,-0.293Z" style="fill:#725140;fill-opacity:1;"/><path d="M21.694,2.353c0.383,-0.29 0.459,-0.135 0.687,0.283c-0.573,0.035 -0.667,-0.228 -0.687,-0.283Z" style="fill:#865e44;fill-opacity:1;"/><path d="M19.688,0.832c0.03,0.072 0.06,0.143 0.09,0.215c-0.346,-0.058 -0.895,0.111 -0.97,0.134c-0.001,-0.008 -0.125,-0.08 -0.015,-0.208c0.11,-0.128 0.123,-0.085 0.287,-0.103c0.528,-0.058 0.518,-0.085 0.608,-0.038Z" style="fill:#b37f50;fill-opacity:0.99;"/><path d="M16.927,4.784c0.028,0.06 0.055,0.12 0.083,0.18c-0.088,0.407 -0.057,0.405 -0.243,0.78c-0.202,-0.09 -0.223,-0.079 -0.217,-0.097c0.026,-0.083 0.125,-0.131 0.147,-0.215c0.047,-0.181 0.01,-0.376 0.054,-0.558c0,0 0.162,-0.083 0.176,-0.09Z" style="fill:#90674d;fill-opacity:0.99;"/><path d="M20.638,2.727c0.364,0.238 0.606,0.228 0.386,0.421c-0.026,0.023 -0.077,-0.04 -0.103,-0.017c-0.326,-0.111 -0.325,-0.088 -0.672,-0.014c-0.017,-0.045 -0.034,-0.091 -0.051,-0.136l-0.041,-0.08c0.252,-0.061 0.252,-0.033 0.481,-0.174Z" style="fill:#724938;fill-opacity:1;"/><path d="M21.382,0.818c0.096,-0.066 0.137,-0.328 0.26,-0.055c0.07,0.155 0.367,0.312 0.529,0.438c-0.046,0.12 -0.035,0.119 -0.072,0.155c-0.385,-0.251 -0.388,-0.226 -0.717,-0.537Z" style="fill:#9c6a44;fill-opacity:0.99;"/><path d="M19.859,2.498c0.22,-0.154 0.265,-0.245 0.031,-0.378c-0.344,-0.195 0.192,-0.255 0.332,0.033c0.114,0.235 0.293,0.352 0.027,0.38c-0.205,0.022 -0.2,0.034 -0.39,-0.035Z" style="fill:#d1a063;fill-opacity:0.99;"/><path d="M15.029,5.255c-0.09,0.26 -0.107,0.242 -0.27,0.462c-0.182,0.221 -0.267,0.38 -0.385,0.114c-0.012,-0.026 0.07,-0.037 0.059,-0.063c0.264,-0.335 0.173,-0.496 0.596,-0.512Z" style="fill:#895f48;fill-opacity:1;"/><path d="M15.85,1.632c0.035,0.015 -0.014,0.097 0.021,0.112c0.256,0.108 0.257,0.03 0.499,-0.114c0.116,0.121 0.104,0.127 0.083,0.298c-0.468,-0 -0.476,0.09 -0.909,-0.105c0.149,-0.105 0.137,-0.101 0.305,-0.191Z" style="fill:#ba8755;fill-opacity:1;"/><path d="M13.709,3.513c0.021,0.06 0.042,0.121 0.063,0.181c-0.11,0.205 -0.107,0.193 -0.243,0.391l-0.092,0.045l-0.164,-0.269c0.007,-0.074 0.014,-0.148 0.021,-0.222c0.079,-0.011 0.157,0.054 0.236,0.043c0.02,-0.003 -0.015,-0.044 0.179,-0.17Z" style="fill:#d7a467;fill-opacity:1;"/><path d="M17.274,1.139c0.175,0.044 0.162,0.062 0.247,0.22c-0.109,0.112 -0.123,0.181 -0.126,0.2c-0.046,0.227 -0.163,0.159 -0.393,0.161c0.007,-0.021 -0.013,-0.014 0.037,-0.271c0.035,-0.027 0.097,0.016 0.236,-0.309Z" style="fill:#ca985f;fill-opacity:1;"/><path d="M17.708,2.159c0.215,0.16 0.295,0.122 0.308,0.47c-0.039,0.04 -0.079,0.081 -0.118,0.121c-0.234,-0.426 -0.421,-0.461 -0.491,-0.499c0.108,-0.154 0.124,-0.144 0.301,-0.093Z" style="fill:#734832;fill-opacity:1;"/><path d="M4.021,4.778c0.023,0.057 0.046,0.114 0.069,0.171c-0.188,0.178 -0.181,0.191 -0.203,0.192c-0.459,0.026 -0.57,0.252 -0.607,0.019c-0.01,-0.066 0.017,-0.069 0.741,-0.382Z" style="fill:#8a644c;fill-opacity:1;"/><path d="M19.293,2.824c0.001,-0.025 0.007,-0.292 0.085,-0.297c0.075,-0.005 0.407,0.498 0.438,0.545c-0.035,0.03 -0.071,0.061 -0.106,0.091l-0.246,-0.098l-0.17,-0.24Z" style="fill:#d2a265;fill-opacity:1;"/><path d="M7.228,4.016c-0.01,0.141 0.012,0.128 0.09,0.237c0.06,0.073 0.119,0.145 0.179,0.218c-0.155,0.07 -0.154,0.065 -0.249,0.21c-0.11,-0.186 -0.09,-0.187 -0.238,-0.339c-0.055,-0.039 -0.111,-0.078 -0.166,-0.117c0.011,-0.012 0.001,-0.002 0.165,-0.131c0.073,-0.026 0.146,-0.052 0.219,-0.078Z" style="fill:#885d43;fill-opacity:1;"/><path d="M6.52,2.644c-0.193,-0.019 -0.187,0.008 -0.381,-0.038c-1.248,-0.301 0.485,-0.262 0.499,-0.065c0.004,0.052 -0.122,0.051 -0.118,0.103Z" style="fill:#cc9d65;fill-opacity:0.99;"/><path d="M20.198,2.98c0.017,0.045 0.034,0.091 0.051,0.136c-0.201,0.095 -0.186,0.099 -0.366,0.215c-0.14,0.137 -0.187,0.179 -0.285,0.011c0.037,-0.059 0.075,-0.119 0.112,-0.178c0.035,-0.03 0.071,-0.061 0.106,-0.091c0.128,-0.031 0.255,-0.062 0.383,-0.092Z" style="fill:#7a4f3a;fill-opacity:0.99;"/><path d="M13.294,3.639c-0.007,0.074 -0.014,0.148 -0.021,0.222c-0.187,0.033 -0.189,0.067 -0.337,-0.051c-0,-0 -0.164,-0.079 -0.178,-0.086c0.225,-0.22 0.256,-0.229 0.536,-0.085Z" style="fill:#ca965e;fill-opacity:1;"/><path d="M11.094,4.288c0.289,0.109 0.354,0.022 0.486,0.291c-0.331,0.069 -0.464,0.36 -0.529,0.018c-0.005,-0.025 -0.015,-0.079 0.043,-0.309Z" style="fill:#916648;fill-opacity:1;"/><path d="M4.101,2.91c0.096,0.098 0.083,0.095 0.159,0.214c0.093,0.126 0.084,0.117 0.202,0.22c-0.004,0.002 -0,0 -0.282,0.064c-0.064,-0.026 -0.332,-0.266 -0.386,-0.39c0.186,0.011 0.211,0.046 0.307,-0.107Z" style="fill:#c0905d;fill-opacity:0.99;"/><path d="M18.663,4.551l-0.02,0.099c-0.074,0.175 -0.038,0.175 -0.12,0.359c-0.022,-0.038 0.034,-0.092 0.013,-0.13c-0.096,-0.168 -0.133,-0.054 -0.331,-0.013c-0.482,0.1 -0.026,-0.212 -0.012,-0.222c0.241,-0.065 0.226,-0.075 0.47,-0.093Z" style="fill:#825b44;fill-opacity:1;"/><path d="M12.849,4.14l0.39,0.036c-0.062,0.157 -0.011,0.197 -0.201,0.285c-0.179,0.082 -0.251,0.019 -0.281,0.022c0.003,-0.028 0.019,-0.01 0.093,-0.343Z" style="fill:#986947;fill-opacity:1;"/><path d="M17.619,0.387c-0.524,0.244 -0.503,0.324 -1.071,0.298c0.618,-0.318 0.624,-0.3 1.071,-0.298Z" style="fill:#a67c5a;fill-opacity:0.09;"/><path d="M15.486,2.252l0.058,-0.027c0.081,0.133 0.065,0.142 0.142,0.188c-0.005,0.071 -0.01,0.143 -0.015,0.214l-0.198,0.295l-0.183,-0.091c0.039,-0.064 0.078,-0.127 0.118,-0.191c0.09,-0.183 -0.005,-0.201 0.079,-0.388Z" style="fill:#b48253;fill-opacity:1;"/><path d="M4.461,3.344l0.09,-0.003c0.022,0.009 0.011,0.013 0.261,0.132c-0.079,0.086 -0.264,0.425 -0.633,-0.065c0.282,-0.064 0.278,-0.062 0.282,-0.064Z" style="fill:#c99b66;fill-opacity:0.99;"/><path d="M7.397,3.505c0.261,0.047 0.253,0.053 0.473,0.187c-0.033,0.008 -0.03,0.009 -0.307,0.125c-0.124,-0.05 -0.116,-0.047 -0.248,-0.057c-0.12,-0.124 -0.031,-0.131 0.082,-0.256Z" style="fill:#d6a66d;fill-opacity:0.99;"/><path d="M19.858,1.072c0.077,0.024 0.155,0.048 0.232,0.072l0.062,0.133c-0.246,0.131 -0.238,0.165 -0.519,0.12l-0.087,-0.01c0.152,-0.194 0.286,-0.083 0.312,-0.315Z" style="fill:#ca955b;fill-opacity:1;"/><path d="M20.653,0.944c0.052,0.014 0.917,0.248 0.556,0.385c-0.177,0.067 -0.521,-0.344 -0.556,-0.385Z" style="fill:#d3a063;fill-opacity:0.99;"/><path d="M8.954,3.116c0.275,0.031 0.265,0.022 0.521,0.142c-0.02,0.004 -0.011,0.022 -0.229,0.105c-0.315,-0.037 -0.548,-0.106 -0.595,-0.119c0.225,-0.103 0.214,-0.106 0.303,-0.127Z" style="fill:#bd8957;fill-opacity:0.99;"/><path d="M2.655,3.891c0.017,0.064 0.034,0.129 0.051,0.193c-0.252,0.041 -0.25,0.116 -0.577,-0.027c0.232,-0.176 0.229,-0.183 0.525,-0.166Z" style="fill:#a37550;fill-opacity:1;"/><path d="M16.448,3.982c0.022,0.029 0.143,0.186 0.31,0.329c-0.035,0.027 -0.07,0.054 -0.105,0.08c-0.098,-0.005 -0.196,-0.01 -0.294,-0.015c0.003,-0.108 0.005,-0.217 0.008,-0.325l0.082,-0.07Z" style="fill:#895f45;fill-opacity:1;"/><path d="M7.009,4.093c-0.165,0.129 -0.154,0.12 -0.165,0.131l-0.046,0.118c-0.012,-0.015 -0.019,0.002 -0.169,-0.173c-0.001,-0.01 -0.226,-0.051 -0.01,-0.162c0.214,-0.11 0.258,-0.122 0.39,0.086Z" style="fill:#b5865a;fill-opacity:1;"/><path d="M17.907,0.79c0.21,0.072 0.203,0.065 0.413,0.149c-0.478,0.236 -0.505,0.12 -0.506,0.079c-0.002,-0.082 0.095,-0.146 0.093,-0.229Z" style="fill:#e4b87d;fill-opacity:0.99;"/><path d="M7.397,3.505c-0.113,0.125 -0.202,0.132 -0.082,0.256c-0.003,0 -0,0 -0.322,-0.002c0.068,-0.347 0.158,-0.506 0.404,-0.254Z" style="fill:#a06f4c;fill-opacity:0.99;"/><path d="M22.171,1.201c0.185,-0.022 0.191,-0.061 0.334,0.047c0.239,0.18 -0.087,0.2 -0.116,0.216c-0.274,-0.106 -0.268,-0.098 -0.291,-0.108c0.037,-0.036 0.027,-0.035 0.072,-0.155Z" style="fill:#c1905a;fill-opacity:0.99;"/><path d="M12.192,2.908c0.035,-0.011 0.023,-0.083 0.058,-0.094c0.252,-0.079 0.481,0.598 0.055,0.302l-0.113,-0.208Z" style="fill:#cb965c;fill-opacity:0.99;"/><path d="M20.465,1.453c0.252,-0.06 0.421,-0.123 0.342,0.186c-0.051,0.031 -0.102,0.062 -0.153,0.094c-0.063,-0.093 -0.126,-0.186 -0.189,-0.279Z" style="fill:#b98453;fill-opacity:1;"/><path d="M10.906,3.649c0.099,-0.205 0.089,-0.213 0.107,-0.221c1.014,-0.446 -0.021,0.264 -0.041,0.275l-0.066,-0.054Z" style="fill:#b17d50;fill-opacity:1;"/><path d="M19.688,0.832c0.252,0.034 0.24,0.056 0.495,0.087c-0.031,0.075 -0.062,0.15 -0.093,0.225c-0.077,-0.024 -0.155,-0.048 -0.232,-0.072l-0.08,-0.025c-0.03,-0.072 -0.06,-0.143 -0.09,-0.215Z" style="fill:#b37f51;fill-opacity:1;"/><path d="M14.374,3.385c0.274,-0.174 0.294,-0.113 0.454,0c-0.074,0.065 -0.035,0.113 -0.13,0.113c-0.095,-0.001 -0.195,0.036 -0.284,0.005c-0.039,-0.014 -0.001,-0.104 -0.04,-0.117Z" style="fill:#d19e65;fill-opacity:1;"/><path d="M8.952,3.499l0.09,-0.01c0.382,0.528 -0.135,0.312 -0.16,0.301c0.015,-0.053 -0.034,-0.041 -0.018,-0.094c0.005,-0.017 0.007,-0.015 0.089,-0.198Z" style="fill:#bf8c59;fill-opacity:1;"/><path d="M3.112,2.724c-0.237,0.171 -0.23,0.16 -0.5,0.251l-0.085,-0.059c0.128,-0.097 0.154,-0.226 0.585,-0.191Z" style="fill:#977051;fill-opacity:0.08;"/><path d="M15.85,1.632c0.329,-0.073 0.317,-0.022 0.521,-0.002c-0.242,0.144 -0.243,0.222 -0.499,0.114c-0.035,-0.015 0.014,-0.097 -0.021,-0.112Z" style="fill:#d7a466;fill-opacity:1;"/><path d="M13.918,1.421c-0.055,0.039 -0.041,0.139 -0.096,0.178c-0.008,0.006 -0.196,-0.089 -0.22,-0.116c-0.308,-0.361 0.292,-0.073 0.316,-0.062Z" style="fill:#c99a62;fill-opacity:1;"/><path d="M4.26,3.124c0.053,-0.004 0.035,-0.129 0.088,-0.133c0.198,-0.016 0.203,0.317 0.204,0.35l-0.09,0.003c-0.118,-0.103 -0.108,-0.094 -0.202,-0.22Z" style="fill:#976a4a;fill-opacity:0.99;"/><path d="M15.168,3.004c0.041,0.067 0.083,0.133 0.124,0.2c-0.167,0.047 -0.165,0.026 -0.277,0.144c-0.022,-0.155 -0.058,-0.156 0.037,-0.279c0.038,-0.022 0.077,-0.044 0.115,-0.066Z" style="fill:#a3724b;fill-opacity:0.99;"/><path d="M14.41,2.625c0.035,0.029 0.071,0.059 0.106,0.088c-0.185,0.522 -0.334,0.007 -0.27,-0.06c0.009,-0.01 0,0 0.164,-0.028Z" style="fill:#b07d50;fill-opacity:1;"/><path d="M20.183,0.919c0.356,-0.086 0.132,0.144 0.047,0.311l-0.077,0.047l-0.062,-0.133c0.031,-0.075 0.062,-0.15 0.093,-0.225Z" style="fill:#97643f;fill-opacity:1;"/><path d="M0.75,4.07c-0.136,0.256 -0.19,0.458 -0.201,0.5l-0.04,-0.085c-0.053,-0.288 -0.032,-0.331 0.241,-0.415Z" style="fill:#8d6950;fill-opacity:0.14;"/><path d="M19.174,1.946c0.486,-0.004 0.433,0.144 0.41,0.171c-0.172,0.202 -0.391,-0.141 -0.41,-0.171Z" style="fill:#d09d60;fill-opacity:0.99;"/><path d="M19.096,3.626c-0.007,0.551 -0.24,0.103 -0.295,0.044l0.295,-0.044Z" style="fill:#926749;fill-opacity:1;"/><path d="M23.178,1.847c0.268,0.082 0.206,0.189 0.013,0.392c-0.044,-0.2 -0.044,-0.188 -0.013,-0.392Z" style="fill:#a6805d;fill-opacity:0.05;"/><path d="M15.685,2.413c0.169,0.003 0.181,-0.013 0.283,0.116c-0.15,0.066 -0.139,0.075 -0.298,0.097c0.005,-0.071 0.01,-0.143 0.015,-0.214Z" style="fill:#cb9960;fill-opacity:1;"/><path d="M10.906,3.649l0.066,0.054c-0.023,0.063 -0.047,0.127 -0.07,0.19l-0.077,0.098l-0.117,-0.114c0.071,-0.136 0.085,-0.115 0.198,-0.228Z" style="fill:#87593e;fill-opacity:0.99;"/><path d="M11.704,1.798c0.058,0.005 0.116,0.011 0.174,0.016c0.061,0.006 0.123,0.012 0.184,0.018c-0.216,0.145 -0.221,0.124 -0.48,0.12c0.041,-0.052 0.081,-0.103 0.122,-0.155Z" style="fill:#b68860;fill-opacity:0.13;"/><path d="M3.979,2.829l0.122,0.082c-0.096,0.153 -0.121,0.118 -0.307,0.107c0.067,-0.129 0.071,-0.108 0.186,-0.189Z" style="fill:#d3a46a;fill-opacity:0.99;"/><path d="M16.713,3.083c0.054,0.466 -0.245,0.307 -0.239,0.221c0.002,-0.025 0.228,-0.209 0.239,-0.221Z" style="fill:#c8975f;fill-opacity:1;"/><path d="M19.177,0.222c0.305,-0.034 0.308,-0.083 0.588,0.052c-0.151,0.001 -0.137,-0.013 -0.297,-0.013c-0.031,0 -0.029,0.001 -0.385,0.011l0.095,-0.05Z" style="fill:#9d7651;fill-opacity:0.22;"/><path d="M13.532,1.939c0.064,-0.01 0.127,-0.02 0.191,-0.03c0.044,0.052 0.088,0.104 0.132,0.156c-0.041,0.03 -0.081,0.06 -0.122,0.09c-0.114,-0.107 -0.092,-0.114 -0.201,-0.215Z" style="fill:#825840;fill-opacity:0.99;"/><path d="M5.253,2.135c0.243,-0.095 0.249,-0.136 0.489,-0.019c-0.107,0.026 -0.099,0.015 -0.392,0.017l-0.097,0.002Z" style="fill:#ab825e;fill-opacity:0.1;"/><path d="M5.253,2.135l0.097,-0.002c-0.182,0.091 -0.171,0.083 -0.366,0.143c0.015,-0.032 -0.085,-0.223 0.27,-0.141Z" style="fill:#af845f;fill-opacity:0.1;"/><path d="M12.373,1.668l-0.042,0.044c-0.053,0.015 -0.107,0.031 -0.16,0.046c0.04,-0.141 -0.008,-0.14 0.031,-0.279c0.052,-0.185 0.045,0.05 0.17,0.189Z" style="fill:#906d50;fill-opacity:0.04;"/><path d="M21.927,1.526c-0.244,-0.006 -0.482,0.034 -0.29,-0.127c0.078,-0.065 0.271,0.11 0.29,0.127Z" style="fill:#c59258;fill-opacity:0.99;"/><path d="M14.799,2.114c-0.118,-0.056 -0.175,-0.076 -0.076,-0.159c0.069,-0.057 0.251,0.051 0.231,0.088c-0.027,0.05 -0.128,0.02 -0.155,0.07Z" style="fill:#c8955d;fill-opacity:0.99;"/><path d="M7.592,2.022c0.162,0.003 0.323,0.005 0.485,0.008c-0.066,0.028 -0.132,0.056 -0.197,0.084c-0.063,-0.002 -0.126,-0.003 -0.189,-0.005l-0.098,-0.088Z" style="fill:#a57f5b;fill-opacity:0.19;"/><path d="M2.527,2.915l0.085,0.059c-0.067,0.032 -0.135,0.064 -0.202,0.096l-0.175,0.043l0.02,-0.072c0.085,-0.113 0.248,-0.125 0.272,-0.126Z" style="fill:#a57b59;fill-opacity:0.2;"/><path d="M1.847,3.314c-0.069,0.051 -0.067,0.037 -0.286,0.101c0.073,-0.124 0.067,-0.114 0.073,-0.124c0.102,-0.176 0.126,-0.023 0.213,0.022Z" style="fill:#aa815e;fill-opacity:0.05;"/><path d="M13.463,2.455c0.023,0.057 0.045,0.114 0.068,0.171c-0.02,0.009 -0.344,0.156 -0.276,-0.006c0.034,-0.082 0.174,-0.084 0.208,-0.165Z" style="fill:#ae7c52;fill-opacity:1;"/><path d="M13.934,4.032c0.069,0.177 0.057,0.173 -0.008,0.349c-0.029,-0.048 0.057,-0.036 0.028,-0.085c-0.058,-0.096 -0.101,-0.042 -0.163,-0.142c-0,-0 0.132,-0.112 0.144,-0.122Z" style="fill:#8f6042;fill-opacity:1;"/><path d="M11.765,4.71c0.272,-0.188 0.264,-0.213 0.292,-0.205c0.027,0.008 0.192,0.242 -0.292,0.205Z" style="fill:#956848;fill-opacity:1;"/><path d="M19.177,0.222l-0.095,0.05c-0.032,0 -0.197,0.001 -0.394,-0.016c0.24,-0.1 0.239,-0.074 0.489,-0.034Z" style="fill:#b38860;fill-opacity:0.15;"/><path d="M2.255,3.042l-0.02,0.072c-0.093,0.098 -0.082,0.095 -0.214,0.151l-0.053,-0.01c0.136,-0.121 0.12,-0.124 0.288,-0.214Z" style="fill:#997253;fill-opacity:0.16;"/><path d="M19.121,1.843c-0.216,-0.009 -0.222,0.005 -0.233,-0.009c-0.629,-0.791 0.22,-0.004 0.233,0.009Z" style="fill:#dbaa6a;fill-opacity:0.99;"/><path d="M9.247,4.296c0.144,0.082 0.132,0.084 0.202,0.238c-0.067,-0.079 -0.135,-0.159 -0.202,-0.238Z" style="fill:#b28152;fill-opacity:1;"/><path d="M9.258,1.883c0.158,-0.016 0.316,-0.032 0.474,-0.047c-0.243,0.044 -0.228,0.058 -0.474,0.047Z" style="fill:#a07a55;fill-opacity:0.24;"/><path d="M12.576,1.392l0.187,0.002c-0.013,0.006 -0.005,0.012 -0.133,0.117l-0.163,0.054c0.11,-0.157 0.096,-0.164 0.109,-0.174Z" style="fill:#a27a57;fill-opacity:0.29;"/><path d="M13.528,1.059c-0.128,0.041 -0.255,0.081 -0.383,0.122c0.178,-0.107 0.175,-0.096 0.383,-0.122Z" style="fill:#85654a;fill-opacity:0.24;"/><path d="M18.287,1.854c0.014,0.015 0.353,0.355 0.111,0.231c-0,-0 -0.102,-0.212 -0.111,-0.231Z" style="fill:#dfb070;fill-opacity:0.99;"/><path d="M5.43,3.825c0.075,-0.02 0.15,-0.041 0.225,-0.061c-0.063,0.031 -0.038,0.151 -0.225,0.061Z" style="fill:#9a6e4d;fill-opacity:1;"/><path d="M14.311,0.879c0.144,-0.048 0.135,-0.035 0.291,-0.008l-0.194,0.012l-0.097,-0.004Z" style="fill:#a27c5b;fill-opacity:0.16;"/><path d="M14.699,0.869l0.291,-0.007c-0.154,0.049 -0.144,0.05 -0.291,0.007Z" style="fill:#9b7553;fill-opacity:0.24;"/><path d="M23.175,2.823l-0.003,0.097c-0.037,0.064 -0.073,0.128 -0.11,0.192l0.056,-0.185l0.057,-0.104Z" style="fill:#8e6b4e;fill-opacity:0.36;"/><path d="M13.463,2.455l0.041,-0.033l0.027,0.205c-0.023,-0.057 -0.045,-0.114 -0.068,-0.171Z" style="fill:#ba8958;fill-opacity:1;"/><path d="M0.509,4.485l0.04,0.085c0.007,0.067 0.015,0.135 0.022,0.202c-0.026,-0.065 -0.052,-0.13 -0.078,-0.195l0.016,-0.092Z" style="fill:#8f6a51;fill-opacity:0.38;"/><path d="M10.136,1.792c0.093,-0.015 0.186,-0.031 0.278,-0.046c-0.142,0.046 -0.129,0.056 -0.278,0.046Z" style="fill:#a07a55;fill-opacity:0.19;"/><path d="M18.295,0.265c0.156,-0.045 0.15,-0.045 0.301,-0.01l-0.301,0.01Z" style="fill:#a87f59;fill-opacity:0.28;"/><path d="M6.347,3.004c-0.088,-0.127 -0.266,-0.107 -0.131,-0.189c0.132,-0.081 0.047,0.068 0.131,0.189Z" style="fill:#d7a76d;fill-opacity:0.99;"/><path d="M19.859,0.282c0.107,-0.027 0.1,-0.039 0.193,0.012l-0.193,-0.012Z" style="fill:#bb9168;fill-opacity:0.17;"/><path d="M9.549,6.267c-0.01,0.013 -0.179,0.234 -0.167,0.108c0,0 0.154,-0.099 0.167,-0.108Z" style="fill:#614539;fill-opacity:0.99;"/><path d="M6.706,5.948c-0.011,-0.003 -0.138,-0.035 -0.138,-0.035c-0.017,-0.115 0.035,0.009 0.138,0.035Z" style="fill:#593e35;fill-opacity:1;"/><path d="M5.884,4.95c0.02,0.068 0.001,0.057 -0.049,0.11l0.049,-0.11Z" style="fill:#976c4d;fill-opacity:1;"/><path d="M1.457,3.937l0.089,0.006l0.007,0.052l-0.096,-0.057Z" style="fill:#a87953;fill-opacity:0.99;"/></svg>