<?xml version="1.0" encoding="UTF-8" standalone="no"?><!DOCTYPE svg PUBLIC "-//W3C//DTD SVG 1.1//EN" "http://www.w3.org/Graphics/SVG/1.1/DTD/svg11.dtd"><svg width="100%" height="100%" viewBox="0 0 24 9" version="1.1" xmlns="http://www.w3.org/2000/svg" xmlns:xlink="http://www.w3.org/1999/xlink" xml:space="preserve" xmlns:serif="http://www.serif.com/" style="fill-rule:evenodd;clip-rule:evenodd;stroke-linejoin:round;stroke-miterlimit:2;"><path d="M15.574,0.56l0.095,-0.03c0.709,0.385 0.973,-0.006 1.169,0.073c0.303,0.123 0.291,0.103 0.595,0.215l-0.04,0.072c0.01,0.054 -0.068,0.1 -0.058,0.154c0,0 0.191,0.072 0.207,0.078c0.002,0.379 0.226,0.174 0.554,0.378l0.26,0.216l0.11,0.079c-0.024,0.032 -0.096,-0.032 -0.12,-0.001c-0.141,0.187 -0.022,0.262 -0.229,0.375c-0.353,0.12 -0.064,0.219 0.144,0.518c-0.355,0.098 -0.351,0.002 -0.726,-0.015c-0.47,-0.239 -0.445,-0.316 -0.96,-0.32c-0.302,-0.232 -0.279,-0.308 -0.652,-0.278c-0.092,0.293 -0.101,0.416 0.205,0.714c0.064,0.048 -0.033,0.189 0.031,0.237c0.443,0.333 0.124,-0.226 0.114,-0.245c0.118,-0.077 0.081,-0.206 0.342,-0.124c0.18,0.043 0.169,0.046 0.352,0.084c0.119,0.025 0.233,0.092 0.354,0.087c0.05,-0.002 0.057,-0.103 0.107,-0.105c0.191,0.437 0.662,0.375 0.803,0.415l0.244,0.146c0.235,-0.09 0.191,-0.124 0.324,-0.307c0.079,-0.063 0.157,-0.126 0.236,-0.189l0.13,-0.176c0.606,0.025 0.617,-0.04 1.139,0.258c0.159,0.091 0.154,-0.013 0.553,-0.377c0.037,-0.009 0.038,0.008 0.471,-0.072l0.027,0.101c-0.162,1.562 -0.742,1.295 -3.929,1.638c-0.335,0.036 -3.471,0.374 -4.106,-0.951c-0.048,-0.101 0.042,-0.828 0.54,-1.367c0.173,-0.091 0.171,-0.083 0.22,-0.125c0.203,-0.167 0.233,-0.091 0.465,-0.235c0.035,-0.008 0.069,-0.016 0.104,-0.024c0.265,-0.115 0.245,-0.129 0.388,-0.393c0.032,-0.046 0.063,-0.092 0.095,-0.138c0.253,-0.148 0.241,-0.138 0.439,-0.366Z" style="fill:#926449;fill-opacity:0.99;"/><path d="M8.569,0.436c0.416,-0.009 0.406,-0.011 0.815,-0.001l0.223,0.015c0.102,0.004 0.097,0.049 1.273,0.11c0.185,0.125 0.338,0.033 0.549,0.94l0.038,0.224c0.033,0.116 0.066,0.232 0.1,0.348l0.015,0.229c-0.129,0.983 -0.058,1.395 -1.751,1.818c-0.243,0.061 -1.334,0.2 -2.181,-0.05c-0.023,-0.007 -0.02,0.008 -0.276,0.104c-0.351,-0.476 -0.396,-0.428 -0.867,-0.547c-1.295,-0.208 -1.291,-0.269 -1.735,-0.206c-0.229,0.033 -0.268,0.108 -0.121,0.272c-0.003,0.067 -0.006,0.133 -0.01,0.2l-0.242,0.215c-0.411,0.395 -0.498,0.457 -0.546,0.491c-0.038,0.027 -0.481,0.733 0.466,0.353c0.084,0.059 0.153,-0.009 0.585,0.65c-0.439,0.192 -0.511,0.413 -0.826,0.045c-0.273,-0.318 -0.277,0.011 -0.58,0.304c-0.166,0.024 -0.155,0.032 -0.313,-0.019c-0.011,-0.035 -0.151,-0.258 -0.196,-0.649c0.237,0.1 0.261,0.083 0.397,-0.12l0.041,-0.066c-0.006,-0.124 -0.013,-0.247 -0.019,-0.371c0.111,-0.19 0.103,-0.174 0.219,-0.353c0.246,-0.167 0.235,-0.162 0.475,-0.331c0.254,-0.233 0.281,-0.278 0.1,-0.567c0.213,-0.183 0.135,-0.211 0.095,-0.475c0.045,-0.089 0.09,-0.179 0.135,-0.268c0.295,0.172 0.295,0.167 0.318,0.186c1.139,0.914 0.092,-0.354 0.07,-0.376c0.005,-0.039 0.062,-0.482 0.062,-0.482c0.03,-0.003 0.027,0.007 0.363,0.095c0.032,0.33 0.089,0.295 0.33,0.526c0.109,-0.044 0.011,-0.13 0.122,-0.174c0.017,-0.007 0.009,0.047 0.233,0.031c0.031,-0.002 0.054,-0.032 0.078,-0.053c0.259,-0.226 0.309,-0.018 0.828,-0.095c0.028,-0.002 0.194,-0.016 0.348,0.007c0.278,0.042 1.062,-0.687 1.156,0.017c-0.555,0.157 -0.552,0.144 -0.701,0.211c-0.218,0.097 -0.205,0.119 -0.205,0.355c-0.212,0.337 -0.241,0.331 -0.228,0.363c0.181,0.441 0.288,0.431 0.331,0.427c0.289,-0.027 0.278,-0.042 0.575,-0.012c0.227,0.169 0.225,0.216 0.295,0.156c0,0 0.086,-0.223 0.093,-0.242c0.468,-0.002 0.462,-0.047 0.499,-0.032c0.027,0.011 0.135,0.421 0.393,-0.033c0.643,-0.04 0.714,0.093 1.15,-0.391c-0.222,-0.233 -0.263,-0.117 -0.593,-0.098c-0.161,-0.34 -0.221,-0.281 -0.446,-0.596l-0.086,-0.041c-0,-0.03 -0.087,0.016 -0.088,-0.014c-0.001,-0.042 -0.004,-0.218 0.431,-0.296c-0.048,-0.104 -0.096,-0.209 -0.144,-0.313c0.221,-0.023 0.84,-0.027 0.913,-0.028c0.042,-0.024 0.083,-0.047 0.125,-0.071l0.073,-0.25c0.038,-0.181 0.049,-0.171 0.004,-0.361c-0.208,-0.286 -0.281,-0.355 -0.546,-0.113c-0.179,-0.006 -0.168,-0.01 -0.326,0.048c-0.13,-0.088 -0.122,-0.075 -0.279,-0.108c-0.691,0.058 -1.001,-0.525 -1.01,-0.536Z" style="fill:#94674b;fill-opacity:0.98;"/><path d="M12.712,4.065c0.064,0.045 0.168,-0.018 0.232,0.027c0.034,0.024 0.028,0.281 0.461,0.383c0.036,0.008 0.376,0.088 0.457,0.034c0.049,-0.034 0.059,-0.116 0.115,-0.137c0.152,-0.058 0.026,0.089 0.126,0.222c0.349,0.269 0.447,0.235 0.455,0.68c-0.341,0.057 -0.34,0.057 -0.581,0.289l-0.131,0.107c-0.07,-0.004 -0.139,-0.008 -0.209,-0.013c-0.656,-0.197 -0.571,0.276 -1.037,0.309c-0.239,-0.068 -0.211,-0.142 -0.456,-0.13c-0.018,0.001 -0.13,0.006 -0.23,-0.01c-0.119,-0.019 -0.231,-0.072 -0.351,-0.083c-0.378,-0.035 -0.327,0.107 -0.44,0.143c-0.262,-0.112 -0.275,-0.21 -0.597,-0.025c-0.41,0.109 -0.438,-0.091 -0.813,0.085c-0.216,0.102 -0.231,-0.038 -0.274,-0.045c-0.032,-0.091 -0.064,-0.183 -0.096,-0.274l0.045,-0.216c-0.306,0.095 -0.274,0.143 -0.587,0.254c-0.14,-0.109 -0.133,-0.104 -0.229,-0.241c0.758,-0.134 0.779,-0.417 1.287,-0.791c0.702,-0.516 2.619,-0.563 2.851,-0.569Z" style="fill:#cf9e6b;fill-opacity:0.99;"/><path d="M15.62,5.134c0.139,0.095 1.468,1.003 0.291,2.089c-0.454,0.419 -1.774,0.667 -1.823,0.672c-1.52,0.153 -2.387,-0.441 -2.754,-0.509l-0.116,-0.145c-0.008,-0.051 -0.1,-0.059 -0.108,-0.11c-0,-0 0.014,-0.517 0.016,-0.562c0.018,-0.085 0.036,-0.169 0.054,-0.254c0.086,-0.045 0.058,-0.072 0.158,-0.083c0.171,-0.017 0.158,0.003 0.333,0.006c0.041,-0.016 0.081,-0.031 0.122,-0.047c0.233,0.004 0.215,-0.002 0.233,0.004c0.213,0.077 0.155,-0.073 0.228,-0.101c0.141,-0.053 0.03,0.242 0.242,0.304c0.942,0.277 1.231,-0.126 1.371,-0.248l0.107,-0.006c1.146,0.232 1.937,0.539 2.002,-0.14c-0.034,-0.49 -0.26,-0.403 -0.355,-0.872Z" style="fill:#7f5740;fill-opacity:0.99;"/><path d="M17.638,5.932c0.366,-0.1 0.3,0.097 0.567,0.376c0.013,0.013 0.004,-0.073 0.228,-0.043c0.296,0.119 0.292,0.029 0.602,-0.035c0.154,0.004 0.308,0.009 0.462,0.013c0.219,0.007 0.189,-0.044 0.34,-0.183c0.296,0.025 0.277,-0.054 0.569,-0.074c0.007,0.074 0.013,0.148 0.02,0.222c-0.227,0.529 0.148,0.388 0.657,0.634c0.196,0.037 0.182,0.043 0.386,0.018c0.191,0.097 0.149,0.144 0.339,0.255c0,0 0.24,-0.094 0.261,-0.102c0.136,0.212 0.13,0.195 0.311,0.384c-0.303,0.039 -0.982,0.126 -3.812,0.042c0.11,-0.339 0.074,-0.36 -0.196,-0.582c-0.707,-0.467 -0.59,-0.572 -0.733,-0.925Z" style="fill:#6e4b3a;fill-opacity:0.98;"/><path d="M18.574,4.336c0.236,0.062 0.229,0.065 0.467,-0.003c1.448,-0.001 2.064,0.068 2.295,0.039l0.231,-0.014c0.117,0.039 0.234,0.078 0.35,0.117c0.331,0.15 0.32,0.132 0.68,0.247c0.14,0.02 0.129,0.019 0.234,0.107c0.074,0.042 0.148,0.083 0.222,0.125c0.163,0.235 0.165,0.218 0.309,0.473c0.03,0.064 0.059,0.129 0.089,0.193c-0.065,-0 -0.096,0.109 -0.161,0.109c-0.189,-0.001 -0.157,-0.149 -0.344,-0.092c-0.212,0.065 -0.25,0.537 0.017,0.361c0.099,-0.065 0.091,-0.026 0.194,0.011c0.385,0.137 0.053,0.384 0.045,0.42l-0.164,-0.072c-0.069,-0.041 -0.137,-0.082 -0.206,-0.123c-0.119,-0.039 -0.237,-0.077 -0.356,-0.116l-0.088,-0.166c-0.11,-0.094 -0.105,-0.08 -0.245,-0.085c0.124,-0.401 0.22,-0.467 -0.114,-0.709c-0.08,-0.027 -0.159,-0.054 -0.239,-0.081c-0.081,-0.031 -0.163,-0.061 -0.244,-0.092c-0.028,-0.021 -0.027,-0.017 -0.204,-0.089l-0.122,-0.083c-0.402,-0.064 -0.395,-0.082 -0.8,-0.027c-0.327,0.024 -0.314,0.011 -0.607,0.118c-0.37,-0.106 -0.387,-0.089 -0.692,0.154l-0.102,-0.089c-0.171,-0.483 -0.506,-0.004 -0.647,-0.271c-0.016,-0.029 -0.025,-0.047 0.199,-0.365Z" style="fill:#d19c65;fill-opacity:0.98;"/><path d="M6.508,3.625c0.471,0.119 0.515,0.07 0.867,0.547l0.064,0.074c-0.068,0.122 -0.095,0.097 -0.134,0.239c-0.045,0.169 -0.098,0.134 -0.154,0.309c-0.099,0.304 -0.215,0.123 -0.529,0.16l-0.119,-0.002c-0.057,-0.008 -0.048,0.006 -0.116,-0.004c-0.018,-0.003 -0,-0 -0.227,-0.044c-0.079,-0.009 -0.056,-0.036 -0.137,-0.046c-0.021,-0.002 -0.019,-0 -0.261,-0.004c0.001,-0.082 0.002,-0.163 0.002,-0.245c-0.061,-0.002 -0.121,-0.004 -0.182,-0.006c-0.458,0.634 -0.633,0.035 -1.035,0.126c-0.025,0.006 -0.017,0.016 -0.228,0.22c-0.947,0.381 -0.504,-0.326 -0.466,-0.353c0.048,-0.034 0.135,-0.096 0.546,-0.491c0.206,0.449 0.341,0.256 0.834,0.325c0.298,0.042 0.259,-0.068 0.481,-0.261c0.243,-0.199 0.14,-0.334 0.443,-0.391c0.196,-0.037 0.171,-0.075 0.35,-0.153Z" style="fill:#dfae73;fill-opacity:0.99;"/><path d="M7.438,4.246c0.385,0.202 0.35,0.227 0.607,0.572c-0.655,0.506 -0.918,0.422 -1.121,0.769c-0.024,0.041 -0.08,0.136 -0.536,0.242c-0.195,0.049 -0.18,0.048 -0.352,0.123c-0.198,-0.479 -0.349,-0.247 -1.032,-0.298l-0.099,-0.054c-0.431,-0.66 -0.501,-0.591 -0.585,-0.65c0.212,-0.204 0.204,-0.215 0.228,-0.22c0.402,-0.091 0.577,0.508 1.035,-0.126c0.061,0.002 0.121,0.004 0.182,0.006c-0.001,0.082 -0.002,0.163 -0.002,0.245c0.241,0.004 0.24,0.001 0.261,0.004c0.081,0.009 0.058,0.036 0.137,0.046c0.227,0.044 0.208,0.041 0.227,0.044c0.068,0.01 0.058,-0.005 0.116,0.004c0.04,0.001 0.079,0.001 0.119,0.002c0.313,-0.037 0.43,0.143 0.529,-0.16c0.057,-0.175 0.109,-0.14 0.154,-0.309c0.038,-0.142 0.065,-0.117 0.134,-0.239Z" style="fill:#bf8959;fill-opacity:0.99;"/><path d="M2.833,3.391c0.101,0.002 0.098,0.012 1.255,0.06c-0.117,0.089 -0.081,0.115 -0.23,0.175c-0.214,0.086 -0.219,-0.041 -0.439,0.035c-0.041,0.014 -0.003,0.109 -0.044,0.123c-0.052,0.01 -0.426,0.084 -0.666,-0.028c-0.39,-0.181 -0.507,0.243 -0.222,0.248c0.382,0.007 0.289,0.251 0.676,0.296c0.037,0.004 0.338,0.04 0.466,0.069c-0.116,0.179 -0.108,0.163 -0.219,0.353c-0.155,0.071 -0.311,0.142 -0.466,0.214c-0.157,-0.108 -0.127,-0.122 -0.262,-0.33c-0.031,-0.039 -0.062,-0.078 -0.093,-0.117c-0.156,-0.116 -0.156,-0.08 -0.342,-0.125c-0.032,-0.019 -0.067,0.07 -0.099,0.05c-0.247,-0.149 -0.118,-0.274 -0.37,-0.42c-0.04,-0.023 -0.048,-0.028 -0.451,0.368c-0.208,0.285 -0.214,0.267 -0.368,0.582c-0.018,0.076 -0.036,0.152 -0.054,0.228c0.018,0.042 0.037,0.084 0.055,0.126c0.37,0.451 0.278,0.53 -0.016,0.834c-0.119,-0.126 -0.369,-0.118 -0.38,-1.506c0.066,-0.092 0.091,-0.057 0.156,-0.16c0.155,-0.15 0.138,-0.145 0.257,-0.335c0.514,-0.545 0.627,-0.356 1.07,-0.63c0.06,-0.02 0.054,0.008 0.786,-0.111Z" style="fill:#c69363;fill-opacity:0.97;"/><path d="M5.813,1.381c0.117,-0.006 0.106,0.013 0.23,0.007c0.019,-0.001 -0,0 0.233,-0.026c0.047,0.007 0.228,0.034 0.576,0.124l0.11,0.017c0.191,0.089 0.195,0.131 0.373,0.018c0.033,-0.044 0.065,-0.089 0.098,-0.133c0.234,0.258 0.203,0.297 0.548,0.375c0.212,0.048 0.186,0.076 0.363,0.204c0.225,0.163 0.95,-0.251 0.837,0.518c-0.122,0.018 -0.244,0.035 -0.366,0.053c-0.054,-0.075 -0.019,-0.2 -0.472,-0.126c-0.095,-0.704 -0.878,0.024 -1.156,-0.017c-0.154,-0.023 -0.32,-0.009 -0.348,-0.007c-0.519,0.078 -0.569,-0.131 -0.828,0.095c-0.024,0.021 -0.047,0.051 -0.078,0.053c-0.224,0.016 -0.215,-0.038 -0.233,-0.031c-0.11,0.044 -0.013,0.13 -0.122,0.174c-0.241,-0.231 -0.298,-0.197 -0.33,-0.526l0.103,-0.042c0.076,-0.027 0.151,-0.054 0.227,-0.081c0.59,0.295 0.381,-0.156 0.364,-0.184c-0.028,-0.254 -0.044,-0.247 -0.248,-0.391l0.121,-0.074Z" style="fill:#a57452;fill-opacity:0.98;"/><path d="M2.589,5.769c0.293,0.14 0.282,0.129 0.597,0.161c0.158,0.051 0.146,0.044 0.313,0.019c0.161,0.486 0.206,0.624 0.677,0.45c0.187,-0.068 0.816,0.365 1.906,0.094c0.102,-0.015 0.205,-0.029 0.307,-0.044c0.076,-0.073 0.151,-0.145 0.227,-0.218c0.47,-0.041 0.478,-0.04 0.822,-0.348l-0.014,0.1c-0.655,1.263 -2.534,1.052 -3.222,1.066c-0.179,-0.213 -0.138,-0.262 -0.363,-0.325c-0.238,-0.067 -0.3,-0.002 -0.327,-0.166c-0.056,-0.346 -0.254,-0.144 -1.037,-0.218c-0.19,-0.216 -0.199,-0.293 0.059,-0.419l0.054,-0.152Z" style="fill:#68483a;fill-opacity:0.98;"/><path d="M8.814,2.538c0.122,-0.018 0.244,-0.035 0.366,-0.053l0.239,-0.007l0.086,0.041c-0.05,0.455 -0.019,0.549 0.446,0.596c0.331,-0.019 0.371,-0.135 0.593,0.098c-0.436,0.484 -0.507,0.351 -1.15,0.391c-0.475,-0.093 -0.454,-0.297 -0.943,-0.156l-0.016,0.123c-0.23,0.146 -0.216,0.151 -0.322,0.184c-0.297,-0.03 -0.286,-0.015 -0.575,0.012c-0.043,0.004 -0.15,0.014 -0.331,-0.427c-0.013,-0.032 0.016,-0.026 0.228,-0.363c0.082,0.043 0.257,0.134 1.145,-0.187c0.026,-0.009 0.017,-0.019 0.233,-0.252Z" style="fill:#6f4a3a;fill-opacity:1;"/><path d="M0.958,4.946l0.349,0.232c0.43,1.152 1.036,1.16 1.168,1.162c0.782,0.074 0.981,-0.128 1.037,0.218c0.027,0.164 0.089,0.099 0.327,0.166c0.225,0.063 0.184,0.112 0.363,0.325c-0.82,-0.049 -2.477,-0.032 -3.259,-0.915c0.294,-0.304 0.386,-0.383 0.016,-0.834l-0.055,-0.126c0.018,-0.076 0.036,-0.152 0.054,-0.228Z" style="fill:#8d6147;fill-opacity:0.98;"/><path d="M4.905,5.6l0.099,0.054c0.148,0.111 0.447,0.564 1.032,0.298c0.172,-0.075 0.157,-0.074 0.352,-0.123c0.003,0.059 0.088,0.093 0.091,0.152c0,0.002 -0.246,0.204 0.137,0.25c-0.076,0.073 -0.151,0.145 -0.227,0.218c-0.102,0.015 -0.205,0.029 -0.307,0.044c-1.09,0.271 -1.719,-0.162 -1.906,-0.094c-0.472,0.173 -0.517,0.036 -0.677,-0.45c0.303,-0.293 0.308,-0.622 0.58,-0.304c0.315,0.368 0.387,0.147 0.826,-0.045Z" style="fill:#624337;fill-opacity:1;"/><path d="M16.392,0.224l0.691,-0.006l0.23,0.004l0.345,-0.005l0.459,0.002c0.582,0.189 0.588,0.133 1.163,0.333c0.142,0.015 0.125,0.03 0.223,0.133c0.113,0.122 0.103,0.114 0.242,0.223c0.05,0.067 0.099,0.135 0.149,0.202c-0.023,0.007 -0.281,0.086 -0.281,0.086c-0.387,-0.208 -0.505,-0.327 -0.694,0.082c-0.121,-0.196 -0.13,-0.179 -0.337,-0.238c-0.12,-0.25 -0.11,-0.604 -1.148,-0.224c-0.304,-0.111 -0.292,-0.092 -0.595,-0.215c-0.196,-0.079 -0.46,0.312 -1.169,-0.073c0.348,-0.217 0.369,-0.126 0.723,-0.305Z" style="fill:#c6936b;fill-opacity:0.97;"/><path d="M10.766,6.522c0.02,0.134 0.041,0.269 0.061,0.403c-0.101,0.03 -0.201,0.059 -0.302,0.089l-0.095,0.031l-0.113,0.013c-0.4,0.002 -0.43,-0.13 -0.898,0.163c-0.171,-0.129 -0.187,-0.094 -0.348,0.049c-0.283,0.014 -0.547,0.012 -0.594,0.012c-0.337,-0.224 -0.184,-0.314 0.095,-0.612c0.972,-0.593 1.047,-0.196 2.195,-0.147Z" style="fill:#674639;fill-opacity:1;"/><path d="M9.39,5.412l-0.045,0.216c-0.381,0.157 -0.444,0.533 -0.082,0.406c0,-0 0.164,-0.121 0.178,-0.132c0.042,0.007 0.058,0.147 0.274,0.045c0.375,-0.177 0.403,0.024 0.813,-0.085c0.334,0.236 0.353,0.185 0.501,0.163c0.05,0.097 0.1,0.194 0.151,0.29c-0.018,0.085 -0.036,0.169 -0.054,0.254c-0.12,-0.016 -0.239,-0.031 -0.359,-0.047c-1.148,-0.05 -1.223,-0.447 -2.195,0.147c-0.059,-0.019 -0.06,-0.123 -0.119,-0.142c-0.072,-0.023 -0.149,0.031 -0.225,0.031c0,0 -0.096,-0.226 -0.104,-0.246c0.111,-0.031 0.222,-0.061 0.333,-0.092c0.052,-0.052 0.065,0.057 0.115,0.006c0.021,-0.022 0.009,-0.027 0.12,-0.36c0.037,-0.066 0.074,-0.133 0.112,-0.199c0.313,-0.111 0.282,-0.159 0.587,-0.254Z" style="fill:#996b4b;fill-opacity:1;"/><path d="M8.569,0.436c0.01,0.011 0.319,0.594 1.01,0.536c0.175,0.236 0.228,0.088 0.279,0.108c-0.085,0.408 -0.298,0.356 -0.241,0.775c-0.619,0.187 -0.538,-0.252 -0.907,-0.269c-0.235,-0.011 -0.13,-0.249 -0.359,-0.23c-0.024,0.002 -1.181,0.096 -0.231,-0.198c0.335,-0.103 0.186,-0.231 -0.026,-0.502l0.021,-0.076c0.238,-0.04 0.224,-0.041 0.455,-0.144Z" style="fill:#ce9b6b;fill-opacity:0.99;"/><path d="M14.797,6.644c0.027,0.053 0.055,0.106 0.082,0.159c0.311,0.222 0.123,0.283 0.1,0.29c-1.903,0.61 -2.413,0.194 -2.502,0.18c-0.034,-0.089 -0.067,-0.178 -0.101,-0.267c0.354,-0.079 0.357,-0.064 0.44,-0.119c0.201,-0.134 0.48,0.122 0.932,-0.097c0.495,-0.24 0.5,-0.209 1.049,-0.146Z" style="fill:#654538;fill-opacity:1;"/><path d="M10.766,6.522c0.12,0.016 0.239,0.031 0.359,0.047c-0.001,0.045 -0.016,0.562 -0.016,0.562c0.008,0.051 0.1,0.059 0.108,0.11l0.116,0.145c-1.308,0.305 -1.301,0.395 -2.649,0.238c-0.212,-0.243 -0.215,-0.239 -0.229,-0.263c-0.032,-0.052 0.049,-0.037 0.022,-0.081c0.048,0 0.312,0.002 0.594,-0.012c0.017,0.022 0.487,0.644 0.348,-0.049c0.468,-0.293 0.498,-0.161 0.898,-0.163c0.038,-0.004 0.075,-0.008 0.113,-0.013l0.095,-0.031c0.122,0.255 0.109,0.267 0.132,0.275c0.249,0.094 0.175,-0.332 0.17,-0.364c-0.02,-0.134 -0.041,-0.269 -0.061,-0.403Z" style="fill:#75503e;fill-opacity:0.98;"/><path d="M19.893,1.111c0.095,0.132 0.089,0.124 0.188,0.264c0.191,0.688 0.36,0.569 1.034,0.804c0.111,0.123 0.104,0.115 0.215,0.241c-0.434,0.08 -0.434,0.063 -0.471,0.072c-0.564,-0.069 -0.603,0.045 -0.873,-0.224c-0.225,-0.224 -0.259,-0.101 -0.609,-0.067c-0.21,0.02 -0.461,-0.658 0.244,-0.375c0.292,0.117 0.452,-0.224 0.106,-0.268c-0.237,-0.03 -0.228,-0.028 -0.456,-0.055c-0.007,-0.212 -0.073,-0.16 -0.241,-0.203l-0.113,-0.021c0.189,-0.408 0.308,-0.29 0.694,-0.082c0,0 0.259,-0.079 0.281,-0.086Z" style="fill:#deaf79;fill-opacity:0.98;"/><path d="M20.986,5.341c0.252,0.153 0.249,0.132 0.495,0.279l0.097,0.242c-0.158,0.286 -0.216,0.062 -0.476,-0.137c-0.042,0.004 -0.083,0.009 -0.125,0.013c-0.028,0.044 -0.056,0.089 -0.084,0.133c-0.251,0.031 -0.243,0.013 -0.487,0.115c-0.292,0.02 -0.273,0.099 -0.569,0.074c-0.034,0.013 -0.066,-0.055 -0.34,0.183c-0.154,-0.004 -0.308,-0.009 -0.462,-0.013c-0.244,-0.36 -0.324,-0.305 -0.444,-0.714c0.458,0.221 0.411,0.27 0.452,0.283c0.039,0.013 0.013,-0.038 0.334,-0.386c0.669,0.135 0.706,0.396 1.283,0.019c0.117,-0.077 0.111,-0.05 0.325,-0.091Z" style="fill:#b88051;fill-opacity:1;"/><path d="M19.271,1.503c0.228,0.028 0.219,0.025 0.456,0.055c0.346,0.044 0.186,0.385 -0.106,0.268c-0.704,-0.283 -0.454,0.396 -0.244,0.375c0.35,-0.034 0.383,-0.157 0.609,0.067c0.27,0.268 0.309,0.155 0.873,0.224c-0.399,0.364 -0.394,0.468 -0.553,0.377c-0.522,-0.298 -0.533,-0.234 -1.139,-0.258c-0.064,-0.033 -0.128,-0.066 -0.192,-0.099c-0.131,-0.129 -0.114,-0.124 -0.283,-0.194c-0.098,-0.272 -0.122,-0.25 -0.225,-0.524c0.366,-0.235 0.376,-0.187 0.804,-0.291Z" style="fill:#d6a068;fill-opacity:1;"/><path d="M17.142,6.165c0.066,0.041 0.36,0.226 0.463,0.851c0.019,0.033 0.037,0.065 0.056,0.098c0.314,-0.13 0.31,-0.146 0.339,-0.141c0.195,0.037 0.022,0.219 0.214,0.288c0.075,0.027 0.15,-0.37 0.157,-0.404c0.27,0.222 0.306,0.243 0.196,0.582c-1.902,0.592 -1.894,-0.635 -1.425,-1.274Z" style="fill:#996948;fill-opacity:0.98;"/><path d="M2.943,4.937c0.045,0.032 0.09,0.064 0.136,0.097c-0.029,0.082 -0.059,0.164 -0.088,0.247c0.045,0.391 0.184,0.614 0.196,0.649c-0.315,-0.032 -0.305,-0.021 -0.597,-0.161c-0.163,-0.012 -0.269,-0.187 -0.226,-0.017c0.032,0.128 0.139,0.039 0.172,0.169c-0.259,0.126 -0.249,0.203 -0.059,0.419c-0.132,-0.002 -0.738,-0.01 -1.168,-1.162c0.253,-0.102 0.268,-0.076 0.454,0.135c0.016,0.024 0.385,0.591 0.348,0.085c-0.024,-0.331 0.149,-0.192 0.257,-0.223c0.04,0.072 0.081,0.144 0.121,0.216c0.06,-0.045 0.12,-0.09 0.18,-0.135c0.092,-0.106 0.184,-0.212 0.276,-0.318Z" style="fill:#7c523d;fill-opacity:0.99;"/><path d="M8.094,0.656c0.212,0.27 0.361,0.398 0.026,0.502c-0.95,0.294 0.207,0.2 0.231,0.198c0.229,-0.019 0.125,0.22 0.359,0.23c0.369,0.017 0.288,0.456 0.907,0.269c0.048,0.104 0.096,0.209 0.144,0.313c-0.434,0.078 -0.431,0.254 -0.431,0.296c0,0.03 0.087,-0.016 0.088,0.014l-0.239,0.007c0.114,-0.769 -0.612,-0.355 -0.837,-0.518c-0.176,-0.128 -0.15,-0.156 -0.363,-0.204c-0.345,-0.078 -0.314,-0.118 -0.548,-0.375c0.175,-0.253 0.176,-0.239 0.19,-0.261c0.032,-0.051 -0.011,-0.058 0.021,-0.099c0.008,-0.01 -0,0 0.109,-0.122c0.035,-0.039 0.07,-0.078 0.105,-0.117c0.046,-0.031 0.052,0.003 0.101,-0.03c0.011,-0.008 -0,0 0.136,-0.102Z" style="fill:#a16e4e;fill-opacity:0.99;"/><path d="M12.712,4.065c1.388,0.074 1.445,0.007 2.56,0.837c0.016,0.012 0.016,0.01 0.219,0.132c-0.412,0.307 -0.428,0.322 -0.933,0.24c-0.009,-0.445 -0.106,-0.411 -0.455,-0.68c-0.101,-0.133 0.026,-0.28 -0.126,-0.222c-0.056,0.021 -0.066,0.104 -0.115,0.137c-0.081,0.055 -0.421,-0.025 -0.457,-0.034c-0.433,-0.102 -0.427,-0.359 -0.461,-0.383c-0.064,-0.045 -0.168,0.018 -0.232,-0.027Z" style="fill:#bc875b;fill-opacity:0.98;"/><path d="M1.326,4.363c0.092,0.17 0.11,0.152 0.118,0.353c0.003,0.07 0.065,0.119 0.802,-0.351c0.186,0.045 0.185,0.009 0.342,0.125l0.093,0.117c0.135,0.209 0.105,0.222 0.262,0.33c-0.092,0.106 -0.184,0.212 -0.276,0.318c-0.06,0.045 -0.12,0.09 -0.18,0.135c-0.04,-0.072 -0.081,-0.144 -0.121,-0.216c-0.026,-0.029 0.029,-0.088 0.004,-0.117c-0.061,-0.07 -0.29,0.103 -0.353,0.111c-0.159,0.021 -0.121,0.068 -0.256,0.144c-0.185,-0.211 -0.2,-0.237 -0.454,-0.135l-0.349,-0.232c0.154,-0.315 0.16,-0.297 0.368,-0.582Z" style="fill:#976547;fill-opacity:0.99;"/><path d="M17.89,4.817c0.046,0.031 0.202,0.136 0.637,0.284c-0.075,0.165 -0.036,0.157 -0.003,0.324l0.069,0.091c0.12,0.409 0.2,0.354 0.444,0.714c-0.31,0.064 -0.305,0.154 -0.602,0.035c-0.294,-1.039 -0.716,-0.638 -0.921,-0.475c-0.076,0.032 -0.153,0.065 -0.229,0.097c-0.162,-0.239 -0.145,-0.231 -0.272,-0.496c0.343,0.076 0.322,0.145 0.348,0.13c0.068,-0.039 0.033,-0.158 0.076,-0.224c0.022,-0.034 0.065,-0.055 0.105,-0.058c0.246,-0.022 0.211,-0.088 0.229,-0.336l0.121,-0.085Z" style="fill:#8c5d42;fill-opacity:0.99;"/><path d="M20.423,4.788c0.094,0.254 0.032,0.395 0.217,0.305c0.542,-0.263 0.537,-0.254 0.583,-0.279l0.122,0.083c0.001,0.09 0.002,0.179 0.002,0.269c-0.171,0.125 -0.19,0.064 -0.36,0.174c-0.214,0.041 -0.208,0.014 -0.325,0.091c-0.577,0.377 -0.614,0.116 -1.283,-0.019c-0.017,-0.064 -0.033,-0.128 -0.05,-0.191c0.096,-0.024 0.074,-0.162 0.276,-0.069c0.147,0.068 0.107,-0.037 0.211,-0.246c0.293,-0.107 0.28,-0.094 0.607,-0.118Z" style="fill:#e8b575;fill-opacity:1;"/><path d="M20.977,5.738l0.125,-0.013c0.26,0.199 0.319,0.423 0.476,0.137c0.209,0.027 0.19,0.044 0.35,0.192c0.151,0.14 0.138,-0.005 0.217,-0.185c0.14,0.004 0.135,-0.01 0.245,0.085c0.029,0.055 0.059,0.111 0.088,0.166c0.119,0.039 0.237,0.077 0.356,0.116l0.206,0.123l0.164,0.072c0.024,0.061 -0.046,0.095 0.202,0.355c-0.137,0.159 -0.131,0.144 -0.303,0.284c-0.168,-0.193 -0.248,-0.191 -0.138,-0.426c0.059,-0.126 -0.328,-0.06 -0.366,-0.085c-0.246,-0.16 -0.196,0.07 -0.444,0.226c-0.224,-0.338 -0.209,-0.339 -0.229,-0.367c-0.189,-0.273 -0.267,-0.114 -0.704,-0.236c-0.2,-0.131 -0.178,-0.135 -0.33,-0.31c0.028,-0.044 0.056,-0.089 0.084,-0.133Z" style="fill:#a3714b;fill-opacity:0.99;"/><path d="M13.846,5.67l0.131,-0.107c0.239,0.127 0.308,0.126 0.337,0.125c0.195,-0.003 0.391,-0.042 0.586,-0.023c0.096,0.009 0.087,0.306 1.075,0.342c-0.066,0.679 -0.856,0.372 -2.002,0.14c-0.032,-0.374 0.002,-0.357 -0.006,-0.386l-0.12,-0.09Z" style="fill:#c9935c;fill-opacity:1;"/><path d="M11.125,5.887c0.113,-0.037 0.061,-0.178 0.44,-0.143c0.12,0.011 0.232,0.064 0.351,0.083c0.1,0.016 0.212,0.011 0.23,0.01c0.244,-0.012 0.217,0.062 0.456,0.13c0.196,0.176 0.215,0.175 0.461,0.06c0.059,-0.028 0.034,0.201 0.803,0.126c-0.14,0.122 -0.429,0.525 -1.371,0.248c-0.212,-0.063 -0.101,-0.358 -0.242,-0.304c-0.073,0.028 -0.014,0.177 -0.228,0.101c-0.018,-0.006 0,0 -0.233,-0.004l-0.122,0.047c-0.174,-0.003 -0.162,-0.024 -0.333,-0.006c-0.1,0.01 -0.072,0.038 -0.158,0.083c-0.05,-0.097 -0.1,-0.194 -0.151,-0.29c0.032,-0.046 0.064,-0.092 0.096,-0.138Z" style="fill:#996949;fill-opacity:1;"/><path d="M8.046,4.818c0.135,0.453 -0.043,0.421 -0.288,0.817l-0.051,0.025c-0.086,0.053 -0.097,0.013 -0.161,0.1c-0.008,0.01 0,-0 -0.107,0.123c-0.343,0.309 -0.352,0.308 -0.822,0.348c-0.383,-0.046 -0.137,-0.248 -0.137,-0.25c-0.003,-0.059 -0.088,-0.093 -0.091,-0.152c0.456,-0.106 0.512,-0.202 0.536,-0.242c0.203,-0.347 0.467,-0.263 1.121,-0.769Z" style="fill:#996a4a;fill-opacity:0.98;"/><path d="M15.491,5.034c0.043,0.034 0.086,0.067 0.128,0.101c0.095,0.469 0.321,0.383 0.355,0.872c-0.988,-0.036 -0.98,-0.332 -1.075,-0.342c-0.194,-0.019 -0.39,0.019 -0.586,0.023c-0.029,0 -0.097,0.002 -0.337,-0.125c0.241,-0.233 0.241,-0.232 0.581,-0.289c0.505,0.082 0.52,0.067 0.933,-0.24Z" style="fill:#ebbd7e;fill-opacity:1;"/><path d="M5.245,1.51c0.149,-0.018 0.298,-0.037 0.446,-0.055c0.204,0.144 0.22,0.137 0.248,0.391c-0.079,0.052 -0.158,0.104 -0.237,0.156c-0.076,-0.052 -0.298,-0.459 -0.354,0.109l-0.103,0.042c-0.336,-0.088 -0.333,-0.098 -0.363,-0.095c0,0 -0.057,0.443 -0.062,0.482c-0.166,0.153 -0.161,0.139 -0.388,0.19c-0.045,0.089 -0.09,0.179 -0.135,0.268c-0.038,-0.117 -0.076,-0.234 -0.114,-0.351c0.075,-0.676 0.528,-0.781 0.708,-0.921c0.179,-0.108 0.185,-0.071 0.353,-0.215Z" style="fill:#b88860;fill-opacity:0.96;"/><path d="M7.913,5.888c-0.092,0.268 -0.04,0.281 0.21,0.423c0.008,0.02 0.104,0.246 0.104,0.246c0.076,-0 0.153,-0.054 0.225,-0.031c0.059,0.019 0.06,0.123 0.119,0.142c-0.279,0.298 -0.432,0.388 -0.095,0.612c0.027,0.044 -0.054,0.029 -0.022,0.081c0.015,0.024 0.017,0.019 0.229,0.263c-0.489,-0.098 -1.697,-0.421 -0.77,-1.736Z" style="fill:#6d4a3a;fill-opacity:0.98;"/><path d="M4.652,3.691c-0.147,-0.164 -0.108,-0.239 0.121,-0.272c0.444,-0.063 0.44,-0.002 1.735,0.206c-0.178,0.078 -0.153,0.117 -0.35,0.153c-0.304,0.057 -0.2,0.192 -0.443,0.391c-0.407,-0.047 -0.188,-0.442 -0.479,-0.415c-0.022,0.002 -0.004,0.026 -0.216,0.175c-0.18,0.126 -0.185,0.046 -0.378,-0.038c0.067,-0.099 0.076,-0.097 0.01,-0.2Z" style="fill:#d09b64;fill-opacity:0.99;"/><path d="M10.249,4.98c0.031,-0.053 0.508,-0.854 0.725,-0.254c0.106,0.291 0.625,0.163 0.725,0.335c0.135,0.232 0.198,0.066 0.247,0.087c0.056,0.024 0.041,0.132 0.097,0.156c-0.233,0.219 -0.275,0.083 -0.582,0.137c-0.619,0.108 -0.543,-0.451 -1.164,-0.298c-0.016,-0.054 -0.033,-0.108 -0.049,-0.163Z" style="fill:#956547;fill-opacity:0.99;"/><path d="M17.667,4.419l0.908,-0.082c-0.224,0.317 -0.215,0.335 -0.199,0.365c0.141,0.267 0.476,-0.212 0.647,0.271c-0.041,0.006 -0.205,0.031 -0.496,0.129c-0.434,-0.148 -0.59,-0.253 -0.637,-0.284c-0.063,-0.007 -0.052,0.017 -0.117,0.01c-0.247,-0.027 -0.193,0.153 -0.215,0.17c-0.244,0.032 -0.234,0.022 -0.469,-0.05c0.554,-0.463 0.525,-0.494 0.578,-0.528Z" style="fill:#bf895c;fill-opacity:0.99;"/><path d="M9.859,1.08c0.158,-0.058 0.148,-0.054 0.326,-0.048c0.276,0.153 0.275,0.251 0.546,0.113c0.045,0.19 0.034,0.181 -0.004,0.361l-0.073,0.25l-0.125,0.071c-0.073,0.001 -0.691,0.005 -0.913,0.028c-0.057,-0.419 0.156,-0.367 0.241,-0.775Z" style="fill:#cc9868;fill-opacity:0.99;"/><path d="M3.375,3.785c0.295,0.281 0.362,0.104 0.728,0.255c-0.24,0.169 -0.229,0.164 -0.475,0.331c-0.127,-0.029 -0.428,-0.065 -0.466,-0.069c-0.387,-0.045 -0.294,-0.289 -0.676,-0.296c-0.285,-0.005 -0.168,-0.429 0.222,-0.248c0.24,0.111 0.614,0.038 0.666,0.028Z" style="fill:#e1b076;fill-opacity:0.99;"/><path d="M15.044,1.704c0.114,0.084 0.228,0.169 0.342,0.253c0.009,0.329 0.224,0.259 0.213,0.575c-0.01,0.28 -0.1,0.226 -0.361,0.293c-0.413,-0.271 -0.37,-0.303 -0.562,-0.758c0.088,-0.167 0.104,-0.14 0.369,-0.363Z" style="fill:#b57d54;fill-opacity:1;"/><path d="M17.441,1.59c-0.224,0.512 -0.386,0.314 -0.829,0.399c-0.287,0.055 -0.598,-0.503 0.128,-0.586c0.189,-0.022 0.341,-0.418 0.701,0.187Z" style="fill:#d29e71;fill-opacity:0.99;"/><path d="M21.344,4.898c0.177,0.072 0.176,0.068 0.204,0.089c0.081,0.031 0.163,0.061 0.244,0.092c0.003,0.252 -0.08,0.495 0.11,0.317c0,0 0.118,-0.218 0.129,-0.236c0.333,0.242 0.237,0.308 0.114,0.709c-0.078,0.18 -0.066,0.325 -0.217,0.185c-0.16,-0.148 -0.14,-0.165 -0.35,-0.192l-0.097,-0.242c-0.024,-0.254 0.022,-0.264 -0.134,-0.453c-0.001,-0.09 -0.002,-0.179 -0.002,-0.269Z" style="fill:#f9deac;fill-opacity:1;"/><path d="M17.334,5.995c0.066,-0.01 0.131,-0.019 0.197,-0.029l0.107,-0.034c0.143,0.353 0.026,0.457 0.733,0.925c-0.006,0.034 -0.082,0.431 -0.157,0.404c-0.192,-0.069 -0.019,-0.252 -0.214,-0.288c-0.029,-0.005 -0.025,0.01 -0.339,0.141l-0.056,-0.098c-0.103,-0.625 -0.397,-0.81 -0.463,-0.851c0.107,-0.083 0.087,-0.09 0.193,-0.169Z" style="fill:#b37f54;fill-opacity:0.99;"/><path d="M8.341,2.412c0.453,-0.074 0.418,0.051 0.472,0.126c-0.216,0.234 -0.208,0.243 -0.233,0.252c-0.888,0.321 -1.063,0.23 -1.145,0.187c-0,-0.236 -0.013,-0.258 0.205,-0.355c0.15,-0.066 0.146,-0.054 0.701,-0.211Z" style="fill:#9a6a4a;fill-opacity:1;"/><path d="M4.642,3.891c0.193,0.085 0.199,0.165 0.378,0.038c0.212,-0.149 0.194,-0.173 0.216,-0.175c0.291,-0.027 0.072,0.368 0.479,0.415c-0.222,0.194 -0.183,0.303 -0.481,0.261c-0.493,-0.069 -0.628,0.124 -0.834,-0.325l0.242,-0.215Z" style="fill:#e0ad72;fill-opacity:0.99;"/><path d="M21.223,6.181c0.436,0.122 0.515,-0.037 0.704,0.236c0.02,0.028 0.005,0.03 0.229,0.367c0.046,0.039 0.043,0.039 0.574,0.489c-0.117,0.041 -0.233,0.083 -0.35,0.124c-0.182,-0.189 -0.176,-0.172 -0.311,-0.384c-0.261,-0.332 -0.207,-0.423 -0.632,-0.492c-0.222,-0.134 -0.375,-0.131 -0.213,-0.34Z" style="fill:#7d523b;fill-opacity:0.99;"/><path d="M23.453,5.621l0.076,0.127c0.041,0.116 0.082,0.232 0.123,0.348l0.002,0.232c-0.139,0.335 -0.221,0.427 -0.248,0.458c-0.247,-0.26 -0.177,-0.294 -0.202,-0.355c0.008,-0.036 0.34,-0.283 -0.045,-0.42c-0.103,-0.037 -0.095,-0.076 -0.194,-0.011c-0.267,0.175 -0.229,-0.296 -0.017,-0.361c0.187,-0.057 0.155,0.091 0.344,0.092c0.065,0 0.096,-0.109 0.161,-0.109Z" style="fill:#c8915c;fill-opacity:0.96;"/><path d="M17.537,2.672c0.375,0.017 0.371,0.112 0.726,0.015c0.027,0.016 0.048,-0.074 0.075,-0.058c0.143,0.085 0.087,0.129 0.244,0.221c0,0 0.201,0.116 0.219,0.126c-0.134,0.182 -0.09,0.216 -0.324,0.307c-0.081,-0.049 -0.163,-0.097 -0.244,-0.146c-0.141,-0.04 -0.612,0.022 -0.803,-0.415l0.108,-0.05Z" style="fill:#a26b4a;fill-opacity:0.99;"/><path d="M13.638,5.657c-0.129,0.101 -0.177,0.164 -0.013,0.219c0.194,0.066 0.173,-0.011 0.341,-0.116c0.008,0.03 -0.026,0.013 0.006,0.386l-0.107,0.006c-0.769,0.075 -0.744,-0.154 -0.803,-0.126c-0.246,0.115 -0.265,0.117 -0.461,-0.06c0.465,-0.033 0.381,-0.506 1.037,-0.309Z" style="fill:#c28c5a;fill-opacity:0.99;"/><path d="M20.893,5.871c0.151,0.175 0.13,0.179 0.33,0.31c-0.162,0.209 -0.009,0.206 0.213,0.34c0.011,0.113 0.022,0.226 0.033,0.339c-0.204,0.025 -0.19,0.019 -0.386,-0.018c-0.225,-0.42 -0.208,-0.455 -0.657,-0.634c-0.007,-0.074 -0.013,-0.148 -0.02,-0.222c0.244,-0.102 0.236,-0.084 0.487,-0.115Z" style="fill:#b37d50;fill-opacity:0.99;"/><path d="M18.581,1.041c0.207,0.059 0.216,0.042 0.337,0.238l0.113,0.021c-0.107,0.036 -0.221,0.054 -0.328,0.09c-0.455,0.154 -0.326,0.282 -0.345,0.324l-0.26,-0.216c-0.327,-0.203 -0.551,0.001 -0.554,-0.378c0.529,0.014 0.519,0.025 1.038,-0.079Z" style="fill:#d7a77a;fill-opacity:0.99;"/><path d="M16.4,3.45c0.506,-0.917 1.444,0.206 0.797,0.235c-0.067,0.003 -0.061,-0.019 -0.836,-0.021c0.013,-0.071 0.026,-0.143 0.039,-0.214Z" style="fill:#724b3c;fill-opacity:1;"/><path d="M17.433,0.817c1.038,-0.38 1.028,-0.026 1.148,0.224c-0.519,0.105 -0.509,0.093 -1.038,0.079l-0.149,-0.232l0.04,-0.072Z" style="fill:#976850;fill-opacity:0.99;"/><path d="M15.472,1.414c0.044,0.008 0.088,0.016 0.132,0.023c0.336,-0.122 0.421,-0.096 0.456,-0.085c0.443,0.137 -0.239,0.486 -0.28,0.507c-0.217,-0.046 -0.216,-0.026 -0.394,0.098c-0.114,-0.084 -0.228,-0.169 -0.342,-0.253c0.088,-0.271 0.379,-0.277 0.428,-0.291Z" style="fill:#8d5e48;fill-opacity:1;"/><path d="M8.574,5.425c0.096,0.137 0.088,0.132 0.229,0.241c-0.037,0.066 -0.074,0.133 -0.112,0.199c-0.174,-0.007 -0.26,-0.192 -0.265,-0.011c-0.001,0.029 0.012,0.02 0.03,0.365c-0.111,0.031 -0.222,0.061 -0.333,0.092c-0.25,-0.142 -0.302,-0.155 -0.21,-0.423c0.027,-0.048 0.054,-0.096 0.08,-0.144c0.268,-0.202 0.242,-0.228 0.58,-0.319Z" style="fill:#996b4c;fill-opacity:0.98;"/><path d="M22.155,6.785c0.248,-0.156 0.198,-0.387 0.444,-0.226c0.037,0.024 0.425,-0.041 0.366,0.085c-0.11,0.235 -0.03,0.234 0.138,0.426c-0.186,0.127 -0.178,0.109 -0.373,0.204c-0.532,-0.449 -0.528,-0.45 -0.574,-0.489Z" style="fill:#a0704c;fill-opacity:0.99;"/><path d="M16.4,3.45c-0.013,0.071 -0.026,0.143 -0.039,0.214l0.014,0.077c-0.071,0.001 -0.22,0.084 -0.402,-0.099c-0.036,-0.036 -0.413,-0.411 -0.362,-0.527c0.215,-0.496 0.646,0.227 0.79,0.335Z" style="fill:#9d6b4b;fill-opacity:1;"/><path d="M15.925,2.074c0.373,-0.03 0.349,0.045 0.652,0.278c0.013,0.101 0.026,0.203 0.039,0.304c-0.261,-0.082 -0.224,0.047 -0.342,0.124l-0.144,0.008c-0.305,-0.298 -0.297,-0.421 -0.205,-0.714Z" style="fill:#946146;fill-opacity:1;"/><path d="M1.326,4.363c0.403,-0.396 0.411,-0.392 0.451,-0.368c0.252,0.146 0.124,0.271 0.37,0.42c0.032,0.019 0.067,-0.07 0.099,-0.05c-0.737,0.471 -0.799,0.421 -0.802,0.351c-0.009,-0.201 -0.026,-0.183 -0.118,-0.353Z" style="fill:#b17d54;fill-opacity:0.99;"/><path d="M4.088,3.452l0.115,0.021c0.181,0.29 0.154,0.334 -0.1,0.567c-0.366,-0.152 -0.433,0.026 -0.728,-0.255c0.041,-0.014 0.003,-0.109 0.044,-0.123c0.221,-0.076 0.225,0.051 0.439,-0.035c0.149,-0.06 0.113,-0.086 0.23,-0.175Z" style="fill:#deac72;fill-opacity:0.99;"/><path d="M19.124,5.06c0.068,0.054 0.136,0.107 0.204,0.161c0.017,0.064 0.033,0.128 0.05,0.191c-0.322,0.348 -0.296,0.399 -0.334,0.386c-0.041,-0.013 0.006,-0.062 -0.452,-0.283l-0.069,-0.091c0.321,-0.152 0.324,-0.129 0.601,-0.364Z" style="fill:#d49d63;fill-opacity:1;"/><path d="M17.558,4.997c0.07,-0.032 0.14,-0.063 0.211,-0.095c-0.019,0.248 0.016,0.315 -0.229,0.336c-0.04,0.004 -0.083,0.025 -0.105,0.058c-0.042,0.067 -0.007,0.185 -0.076,0.224c-0.026,0.015 -0.005,-0.054 -0.348,-0.13c-0.021,-0.11 -0.043,-0.22 -0.064,-0.329l0.142,-0.116c0.235,0.072 0.225,0.082 0.469,0.05Z" style="fill:#996748;fill-opacity:0.99;"/><path d="M17.512,5.79c0.205,-0.163 0.628,-0.564 0.921,0.475c-0.224,-0.03 -0.216,0.056 -0.228,0.043c-0.266,-0.279 -0.2,-0.476 -0.567,-0.376l-0.107,0.034l-0.019,-0.176Z" style="fill:#764d3a;fill-opacity:0.96;"/><path d="M16.577,2.352c0.516,0.004 0.49,0.081 0.96,0.32l-0.108,0.05c-0.05,0.002 -0.057,0.103 -0.107,0.105c-0.121,0.005 -0.235,-0.062 -0.354,-0.087c-0.183,-0.038 -0.172,-0.041 -0.352,-0.084c-0.013,-0.101 -0.026,-0.203 -0.039,-0.304Z" style="fill:#b17a53;fill-opacity:0.99;"/><path d="M5.004,5.654c0.684,0.051 0.835,-0.181 1.032,0.298c-0.585,0.266 -0.885,-0.187 -1.032,-0.298Z" style="fill:#8b5f44;fill-opacity:1;"/><path d="M20.426,6.208c0.449,0.18 0.432,0.214 0.657,0.634c-0.508,-0.247 -0.884,-0.105 -0.657,-0.634Z" style="fill:#926345;fill-opacity:0.99;"/><path d="M20.082,1.375c0.156,0.185 0.216,0.203 0.24,0.211c0.167,0.051 0.115,0.095 0.212,0.252c0.02,0.032 0.072,0.028 0.109,0.025c0.323,-0.03 0.276,0.074 0.472,0.317c-0.674,-0.235 -0.842,-0.116 -1.034,-0.804Z" style="fill:#b6875f;fill-opacity:0.1;"/><path d="M8.45,3.449c0.489,-0.141 0.468,0.063 0.943,0.156c-0.258,0.454 -0.366,0.044 -0.393,0.033c-0.037,-0.015 -0.031,0.03 -0.499,0.032l-0.067,-0.098l0.016,-0.123Z" style="fill:#815944;fill-opacity:0.99;"/><path d="M19.03,1.3c0.168,0.043 0.234,-0.01 0.241,0.203c-0.428,0.104 -0.438,0.056 -0.804,0.291l-0.11,-0.079c0.02,-0.042 -0.11,-0.17 0.345,-0.324c0.107,-0.036 0.221,-0.054 0.328,-0.09Z" style="fill:#f1d3a9;fill-opacity:0.99;"/><path d="M11.81,1.408c0.398,-0.115 0.569,-0.103 0.502,0.314c-0.054,0.336 -0.656,0.002 -0.502,-0.314Z" style="fill:#c79567;fill-opacity:0.07;"/><path d="M18.499,2.448c0.098,0.072 0.066,0.094 0.177,0.131c0.052,0.017 0.077,0.11 0.131,0.098c0.076,-0.017 0.091,-0.148 0.167,-0.165c0.064,0.033 0.128,0.066 0.192,0.099l-0.13,0.176c-0.079,0.063 -0.157,0.126 -0.236,0.189c-0.017,-0.01 -0.219,-0.126 -0.219,-0.126c-0.157,-0.092 -0.101,-0.136 -0.244,-0.221c-0.027,-0.016 -0.048,0.074 -0.075,0.058l0.094,-0.108c0.047,-0.043 0.095,-0.087 0.142,-0.13Z" style="fill:#af7850;fill-opacity:0.99;"/><path d="M21.436,6.521c0.425,0.069 0.372,0.16 0.632,0.492c-0.021,0.008 -0.261,0.102 -0.261,0.102c-0.189,-0.111 -0.148,-0.158 -0.339,-0.255c-0.011,-0.113 -0.022,-0.226 -0.033,-0.339Z" style="fill:#bb8758;fill-opacity:0.99;"/><path d="M18.117,0.221c0.62,-0.287 0.65,-0.121 1.163,0.333c-0.574,-0.2 -0.581,-0.143 -1.163,-0.333Z" style="fill:#b68b69;fill-opacity:0.1;"/><path d="M18.467,1.794c0.102,0.274 0.127,0.252 0.225,0.524c-0.064,0.043 -0.128,0.087 -0.193,0.13c-0.047,0.043 -0.095,0.087 -0.142,0.13c-0.092,-0.229 -0.062,-0.231 -0.238,-0.41c0.207,-0.113 0.088,-0.188 0.229,-0.375c0.024,-0.032 0.096,0.032 0.12,0.001Z" style="fill:#c18a5e;fill-opacity:0.99;"/><path d="M4.821,2.54c0.022,0.022 1.069,1.289 -0.07,0.376c-0.023,-0.018 -0.024,-0.014 -0.318,-0.186c0.227,-0.051 0.222,-0.036 0.388,-0.19Z" style="fill:#a1704f;fill-opacity:0.99;"/><path d="M12.516,4.954c0.048,-0.01 0.035,-0.112 0.083,-0.122c0.005,-0.001 0.393,0.301 0.476,0.338l-0.134,0.228c-0.229,0.008 -0.211,0.008 -0.229,0.008c-0.06,-0 -0.049,-0.015 -0.107,-0.016c-0.005,-0.025 -0.014,-0.014 -0.08,-0.306l-0.011,-0.13Z" style="fill:#a56f4a;fill-opacity:1;"/><path d="M12.136,4.681c0.247,0.059 0.235,0.072 0.38,0.273l0.011,0.13c-0.251,-0.087 -0.24,-0.105 -0.491,-0.046c-0.103,-0.08 -0.102,-0.07 -0.127,-0.206l0.227,-0.15Z" style="fill:#e5b67c;fill-opacity:0.99;"/><path d="M19.816,4.906c-0.104,0.209 -0.064,0.313 -0.211,0.246c-0.203,-0.093 -0.18,0.045 -0.276,0.069c-0.068,-0.054 -0.136,-0.107 -0.204,-0.161c0.304,-0.243 0.322,-0.26 0.692,-0.154Z" style="fill:#e2ac6e;fill-opacity:1;"/><path d="M12.136,4.681l-0.227,0.15c-0.41,-0.376 -0.48,-0.289 -0.496,-0.334c-0.02,-0.056 0.09,-0.44 0.723,0.184Z" style="fill:#d3a26f;fill-opacity:0.99;"/><path d="M19.022,4.972l0.102,0.089c-0.277,0.235 -0.28,0.212 -0.601,0.364c-0.033,-0.166 -0.071,-0.159 0.003,-0.324c0.291,-0.098 0.455,-0.123 0.496,-0.129Z" style="fill:#a76e47;fill-opacity:1;"/><path d="M20.423,4.788c0.405,-0.056 0.398,-0.038 0.8,0.027c-0.045,0.025 -0.04,0.016 -0.583,0.279c-0.185,0.09 -0.123,-0.051 -0.217,-0.305Z" style="fill:#e4b477;fill-opacity:0.99;"/><path d="M9.504,2.519c0.224,0.316 0.285,0.256 0.446,0.596c-0.465,-0.048 -0.496,-0.142 -0.446,-0.596Z" style="fill:#8f6044;fill-opacity:1;"/><path d="M14.428,2.891c-0.033,0.002 0.002,-0.095 -0.031,-0.093c-0.042,0.003 -0.035,0.099 -0.078,0.101c-0.375,0.014 0.169,-0.816 0.288,-0.367c0.052,0.195 -0.027,0.168 -0.179,0.36Z" style="fill:#80523c;fill-opacity:1;"/><path d="M10.249,4.98c0.016,0.054 0.033,0.108 0.049,0.163c-0.307,0.1 -0.306,0.125 -0.588,-0.003c0.26,-0.233 0.285,-0.385 0.539,-0.159Z" style="fill:#bf8d60;fill-opacity:1;"/><path d="M2.366,5.175c-0.108,0.03 -0.28,-0.109 -0.257,0.223c0.036,0.506 -0.333,-0.061 -0.348,-0.085c0.135,-0.076 0.097,-0.122 0.256,-0.144c0.063,-0.009 0.292,-0.181 0.353,-0.111c0.026,0.029 -0.029,0.088 -0.004,0.117Z" style="fill:#8b5d43;fill-opacity:0.99;"/><path d="M21.918,4.475c0.031,-0.016 0.06,0.067 0.091,0.051c0.007,-0.004 0.087,-0.241 0.363,-0.162c0.232,0.066 0.196,0.112 0.226,0.358c-0.36,-0.115 -0.349,-0.098 -0.68,-0.247Z" style="fill:#886545;fill-opacity:0.09;"/><path d="M12.035,5.038c0.251,-0.058 0.24,-0.041 0.491,0.046c0.066,0.291 0.075,0.281 0.08,0.306c-0.268,-0.068 -0.432,-0.094 -0.47,-0.1c-0.034,-0.084 -0.067,-0.168 -0.101,-0.252Z" style="fill:#c8925e;fill-opacity:0.99;"/><path d="M10.649,2.644l-0.007,0.117c-0.239,0.132 -0.235,0.137 -0.258,0.142c-0.257,0.059 -0.119,-0.691 0.266,-0.26Z" style="fill:#a16f4d;fill-opacity:1;"/><path d="M8.129,0.481c0.154,-0.218 0.838,-0.229 1.256,-0.047c-0.41,-0.01 -0.399,-0.008 -0.815,0.001c-0.231,0.103 -0.217,0.104 -0.455,0.144l0.015,-0.098Z" style="fill:#9c7658;fill-opacity:0.16;"/><path d="M17.667,4.419c-0.053,0.033 -0.024,0.064 -0.578,0.528l-0.142,0.116c0.086,-0.602 0.297,-0.562 0.72,-0.643Z" style="fill:#714936;fill-opacity:0.87;"/><path d="M9.344,5.628c0.032,0.091 0.064,0.183 0.096,0.274c-0.014,0.011 -0.178,0.132 -0.178,0.132c-0.362,0.127 -0.299,-0.249 0.082,-0.406Z" style="fill:#bd8a5d;fill-opacity:1;"/><path d="M10.527,5.862c0.322,-0.186 0.335,-0.087 0.597,0.025c-0.032,0.046 -0.064,0.092 -0.096,0.138c-0.148,0.023 -0.167,0.073 -0.501,-0.163Z" style="fill:#bc8758;fill-opacity:0.99;"/><path d="M16.392,0.224c-0.353,0.179 -0.375,0.088 -0.723,0.305l-0.095,0.03l0.02,-0.091c0.045,-0.049 0.42,-0.462 0.798,-0.245Z" style="fill:#b08163;fill-opacity:0.12;"/><path d="M3.409,4.724c0.006,0.124 0.013,0.247 0.019,0.371l-0.041,0.066c-0.103,-0.042 -0.206,-0.084 -0.309,-0.127c-0.045,-0.032 -0.09,-0.064 -0.136,-0.097c0.155,-0.071 0.311,-0.142 0.466,-0.214Z" style="fill:#b47d54;fill-opacity:0.99;"/><path d="M10.185,1.032c0.265,-0.241 0.339,-0.173 0.546,0.113c-0.271,0.138 -0.271,0.04 -0.546,-0.113Z" style="fill:#ecc697;fill-opacity:0.99;"/><path d="M11.9,-0.58c-0.218,0.347 -0.231,0.322 -0.364,0.715c-0.44,-0.437 -0.015,-0.445 0.364,-0.715Z" style="fill:#bf9467;fill-opacity:0.09;"/><path d="M18.119,2.169c0.176,0.179 0.146,0.18 0.238,0.41l-0.094,0.108c-0.209,-0.298 -0.497,-0.397 -0.144,-0.518Z" style="fill:#a8734f;fill-opacity:0.99;"/><path d="M21.346,5.167c0.157,0.189 0.111,0.2 0.134,0.453c-0.246,-0.147 -0.243,-0.126 -0.495,-0.279c0.171,-0.11 0.19,-0.049 0.36,-0.174Z" style="fill:#d29758;fill-opacity:1;"/><path d="M9.071,7.269c0.161,-0.143 0.177,-0.178 0.348,-0.049c0.138,0.693 -0.331,0.071 -0.348,0.049Z" style="fill:#b3835c;fill-opacity:1;"/><path d="M18.692,2.318c0.168,0.071 0.152,0.066 0.283,0.194c-0.076,0.017 -0.091,0.148 -0.167,0.165c-0.053,0.012 -0.079,-0.081 -0.131,-0.098c-0.112,-0.037 -0.08,-0.059 -0.177,-0.131c0.064,-0.043 0.128,-0.087 0.193,-0.13Z" style="fill:#915d42;fill-opacity:0.99;"/><path d="M7.751,0.905c-0.109,0.122 -0.101,0.112 -0.109,0.122c-0.032,0.041 0.012,0.048 -0.021,0.099c-0.014,0.022 -0.015,0.008 -0.19,0.261c-0.033,0.044 -0.065,0.089 -0.098,0.133c-0.113,-0.426 0.028,-0.412 0.417,-0.616Z" style="fill:#a97d5f;fill-opacity:0.15;"/><path d="M2.703,3.316l0.13,0.075c-0.732,0.119 -0.726,0.091 -0.786,0.111c0.194,-0.21 0.2,-0.226 0.656,-0.186Z" style="fill:#b0855b;fill-opacity:0.15;"/><path d="M8.691,5.866c-0.111,0.333 -0.098,0.338 -0.12,0.36c-0.051,0.051 -0.064,-0.058 -0.115,-0.006c-0.018,-0.345 -0.031,-0.336 -0.03,-0.365c0.005,-0.181 0.091,0.004 0.265,0.011Z" style="fill:#b28156;fill-opacity:1;"/><path d="M10.827,6.925c0.005,0.032 0.079,0.457 -0.17,0.364c-0.023,-0.009 -0.01,-0.02 -0.132,-0.275c0.101,-0.03 0.201,-0.059 0.302,-0.089Z" style="fill:#9a6e4e;fill-opacity:0.99;"/><path d="M6.397,1.312l-0.122,0.05c-0.233,0.026 -0.214,0.025 -0.233,0.026c-0.124,0.006 -0.113,-0.012 -0.23,-0.007c-0.183,0.007 -0.175,0.007 -0.357,-0.03c0.06,-0.046 0.222,-0.172 0.941,-0.039Z" style="fill:#a0795a;fill-opacity:0.09;"/><path d="M3.078,5.034c0.103,0.042 0.206,0.084 0.309,0.127c-0.136,0.203 -0.159,0.22 -0.397,0.12c0.029,-0.082 0.059,-0.164 0.088,-0.247Z" style="fill:#a16d4b;fill-opacity:0.99;"/><path d="M13.564,4.892c0.019,0.027 0.435,0.627 0.055,0.414c-0.374,-0.209 -0.051,-0.384 -0.055,-0.414Z" style="fill:#d7a168;fill-opacity:1;"/><path d="M5.266,1.433l-0.021,0.077c-0.168,0.144 -0.174,0.107 -0.353,0.215c0.04,-0.325 0.082,-0.426 0.374,-0.292Z" style="fill:#71543e;fill-opacity:0.06;"/><path d="M8.434,3.571l0.067,0.098c-0.007,0.019 -0.093,0.242 -0.093,0.242c-0.071,0.06 -0.068,0.013 -0.295,-0.156c0.106,-0.033 0.091,-0.038 0.322,-0.184Z" style="fill:#6f4d3c;fill-opacity:1;"/><path d="M15.594,0.469l-0.02,0.091c-0.199,0.228 -0.187,0.218 -0.439,0.366c0.188,-0.282 0.187,-0.266 0.459,-0.457Z" style="fill:#ac7f60;fill-opacity:0.15;"/><path d="M13.638,5.657c0.07,0.004 0.139,0.008 0.209,0.013l0.12,0.09c-0.168,0.105 -0.147,0.182 -0.341,0.116c-0.164,-0.055 -0.115,-0.118 0.013,-0.219Z" style="fill:#7f4f39;fill-opacity:1;"/><path d="M15.04,1.064c-0.143,0.264 -0.123,0.278 -0.388,0.393c0.079,-0.294 0.105,-0.281 0.388,-0.393Z" style="fill:#a77757;fill-opacity:0.11;"/><path d="M5.94,1.845c0.017,0.028 0.226,0.479 -0.364,0.184l0.127,-0.028c0.079,-0.052 0.158,-0.104 0.237,-0.156Z" style="fill:#bc895d;fill-opacity:1;"/><path d="M6.397,1.312c0.268,-0.102 0.285,-0.049 0.455,0.174c-0.349,-0.09 -0.53,-0.117 -0.576,-0.124l0.122,-0.05Z" style="fill:#a27a5b;fill-opacity:0.12;"/><path d="M5.703,2.002l-0.127,0.028c-0.076,0.027 -0.151,0.054 -0.227,0.081c0.056,-0.568 0.278,-0.161 0.354,-0.109Z" style="fill:#c69366;fill-opacity:0.99;"/><path d="M0.976,4.133c-0.119,0.19 -0.102,0.185 -0.257,0.335c-0.086,-0.267 -0.016,-0.3 0.257,-0.335Z" style="fill:#a97c58;fill-opacity:0.07;"/><path d="M21.792,5.079c0.08,0.027 0.159,0.054 0.239,0.081c-0.01,0.019 -0.129,0.236 -0.129,0.236c-0.19,0.177 -0.107,-0.065 -0.11,-0.317Z" style="fill:#edc382;fill-opacity:1;"/><path d="M14.19,1.476c0.119,0.002 0.238,0.004 0.357,0.006c-0.232,0.144 -0.262,0.068 -0.465,0.235c0.032,-0.137 0.025,-0.123 0.108,-0.24Z" style="fill:#ae7f5d;fill-opacity:0.15;"/><path d="M12.392,-0.597c0.185,0.182 0.156,0.192 0.344,0.357c-0.319,-0.049 -0.328,-0.099 -0.344,-0.357Z" style="fill:#bf976c;fill-opacity:0.09;"/><path d="M10.649,2.644c0.077,0.041 0.153,0.082 0.23,0.123c-0.008,0.011 -0.101,0.139 -0.101,0.139c-0.082,0.131 -0.066,-0.011 -0.136,-0.145l0.007,-0.117Z" style="fill:#916144;fill-opacity:0.99;"/><path d="M16.13,2.788l0.144,-0.008c0.011,0.019 0.329,0.578 -0.114,0.245c-0.064,-0.048 0.033,-0.189 -0.031,-0.237Z" style="fill:#86553f;"/><path d="M5.266,1.433c0.063,-0.027 0.127,-0.055 0.19,-0.082c0.182,0.037 0.173,0.037 0.357,0.03l-0.121,0.074c-0.149,0.018 -0.298,0.037 -0.446,0.055l0.021,-0.077Z" style="fill:#ae8360;fill-opacity:0.24;"/><path d="M17.512,5.79l0.019,0.176c-0.066,0.01 -0.131,0.019 -0.197,0.029l-0.051,-0.108c0.076,-0.032 0.153,-0.065 0.229,-0.097Z" style="fill:#764d37;fill-opacity:0.51;"/><path d="M7.707,5.66l-0.075,0.163c-0.104,0.094 -0.106,0.071 -0.208,0.159l0.014,-0.1c0.107,-0.123 0.1,-0.113 0.107,-0.123c0.065,-0.086 0.076,-0.047 0.161,-0.1Z" style="fill:#79543e;fill-opacity:0.93;"/><path d="M8.129,0.481l-0.015,0.098l-0.021,0.076c-0.136,0.102 -0.125,0.094 -0.136,0.102c-0.049,0.033 -0.055,-0.001 -0.101,0.03c0.11,-0.182 0.083,-0.191 0.272,-0.306Z" style="fill:#b38263;fill-opacity:0.15;"/><path d="M19.837,6.06c-0.151,0.139 -0.122,0.19 -0.34,0.183c0.274,-0.238 0.307,-0.17 0.34,-0.183Z" style="fill:#986646;fill-opacity:1;"/><path d="M18.574,4.336c0.156,-0.001 0.311,-0.002 0.467,-0.003c-0.238,0.068 -0.231,0.064 -0.467,0.003Z" style="fill:#9e6c4a;fill-opacity:0.86;"/><path d="M16.392,0.224c0.362,-0.054 0.354,-0.123 0.691,-0.006l-0.691,0.006Z" style="fill:#9d7458;fill-opacity:0.24;"/><path d="M13.075,5.17c0.062,0.172 0.057,0.232 -0.134,0.228l0.134,-0.228Z" style="fill:#bc8557;fill-opacity:0.99;"/><path d="M6.962,1.503c0.124,0.006 0.249,0.012 0.373,0.018c-0.178,0.113 -0.182,0.071 -0.373,-0.018Z" style="fill:#ab7e5e;fill-opacity:0.13;"/><path d="M10.381,1.44c-0.111,0.113 -0.065,0.295 -0.162,0.165c-0.113,-0.152 -0.018,-0.187 0.162,-0.165Z" style="fill:#e2b27d;fill-opacity:0.99;"/><path d="M17.89,4.817l-0.121,0.085c-0.07,0.032 -0.14,0.063 -0.211,0.095c0.021,-0.017 -0.032,-0.197 0.215,-0.17c0.065,0.007 0.054,-0.017 0.117,-0.01Z" style="fill:#b07950;fill-opacity:0.99;"/><path d="M21.567,4.358c0.195,0.019 0.209,-0.027 0.35,0.117c-0.117,-0.039 -0.234,-0.078 -0.35,-0.117Z" style="fill:#b08259;fill-opacity:0.19;"/><path d="M9.579,0.972c0.157,0.033 0.149,0.02 0.279,0.108c-0.051,-0.02 -0.104,0.128 -0.279,-0.108Z" style="fill:#dcad7c;fill-opacity:0.99;"/><path d="M2.589,5.769l-0.054,0.152c-0.033,-0.13 -0.14,-0.041 -0.172,-0.169c-0.043,-0.169 0.064,0.005 0.226,0.017Z" style="fill:#6a4636;fill-opacity:0.99;"/><path d="M14.19,1.476c0.169,-0.087 0.17,-0.057 0.357,0.006c-0.119,-0.002 -0.238,-0.004 -0.357,-0.006Z" style="fill:#946c4f;fill-opacity:0.05;"/><path d="M17.393,0.889l0.149,0.232c-0.017,-0.006 -0.207,-0.078 -0.207,-0.078c-0.01,-0.054 0.068,-0.1 0.058,-0.154Z" style="fill:#a2745b;fill-opacity:0.99;"/><path d="M10.652,2.267c0.314,-0.04 0.31,0.002 0.335,-0.006c-0.169,0.076 -0.173,0.096 -0.335,0.006Z" style="fill:#b17b53;fill-opacity:0.99;"/><path d="M23.528,5.748c0.122,0.153 0.101,0.149 0.123,0.348c-0.041,-0.116 -0.082,-0.232 -0.123,-0.348Z" style="fill:#9e774f;fill-opacity:0.16;"/><path d="M6.082,6.493c0.102,-0.015 0.205,-0.029 0.307,-0.044c-0.102,0.015 -0.205,0.029 -0.307,0.044Z" style="fill:#76523f;fill-opacity:0.99;"/><path d="M12.251,4.405c-0.018,-0.011 -0.229,-0.143 -0.229,-0.143c0.011,-0.2 0.056,0.035 0.229,0.143Z" style="fill:#d6a06b;fill-opacity:0.99;"/><path d="M19.502,0.686c0.115,0.035 0.096,0.055 0.242,0.223c-0.139,-0.109 -0.13,-0.101 -0.242,-0.223Z" style="fill:#9c7252;fill-opacity:0.31;"/><path d="M22.833,4.829c0.14,0.031 0.125,0.03 0.222,0.125c-0.074,-0.042 -0.148,-0.083 -0.222,-0.125Z" style="fill:#9e7149;fill-opacity:0.23;"/><path d="M17.312,0.223c0.175,-0.051 0.168,-0.046 0.345,-0.005l-0.345,0.005Z" style="fill:#a1795b;fill-opacity:0.14;"/><path d="M11.467,1.723c0.07,0.173 0.071,0.158 0.1,0.348c-0.033,-0.116 -0.066,-0.232 -0.1,-0.348Z" style="fill:#a27754;fill-opacity:0.25;"/><path d="M18.233,3.136c0.081,0.049 0.163,0.097 0.244,0.146l-0.244,-0.146Z" style="fill:#8c5c43;fill-opacity:0.99;"/><path d="M4.652,3.691c0.066,0.103 0.057,0.1 -0.01,0.2c0.003,-0.067 0.006,-0.133 0.01,-0.2Z" style="fill:#c69261;fill-opacity:0.99;"/><path d="M6.78,2.811c0.11,-0.062 0.136,-0.214 0.152,-0.086c0,0 -0.14,0.079 -0.152,0.086Z" style="fill:#78503d;fill-opacity:0.99;"/><path d="M13.745,2.643c-0.003,0.016 -0.037,0.194 -0.037,0.194c-0.147,0.029 0.01,-0.053 0.037,-0.194Z" style="fill:#a8734f;fill-opacity:0.99;"/><path d="M7.707,5.66l0.051,-0.025c-0.042,0.063 -0.084,0.125 -0.126,0.188l0.075,-0.163Z" style="fill:#845d45;fill-opacity:0.89;"/></svg>