<?xml version="1.0" encoding="UTF-8" standalone="no"?><!DOCTYPE svg PUBLIC "-//W3C//DTD SVG 1.1//EN" "http://www.w3.org/Graphics/SVG/1.1/DTD/svg11.dtd"><svg width="100%" height="100%" viewBox="0 0 24 9" version="1.1" xmlns="http://www.w3.org/2000/svg" xmlns:xlink="http://www.w3.org/1999/xlink" xml:space="preserve" xmlns:serif="http://www.serif.com/" style="fill-rule:evenodd;clip-rule:evenodd;stroke-linejoin:round;stroke-miterlimit:2;"><path d="M8.376,0.245l0.091,0.043c0.31,0.256 0.41,0.059 0.776,0.412c0.061,0.059 0.782,0.352 1.127,0.004c0.1,-0.101 0.111,-0.045 0.253,-0.104c0.043,0.038 0.359,0.321 0.513,0.497c0.094,0.327 0.127,0.295 0.241,0.634c0.002,0.124 0.003,0.248 0.005,0.372l-0.004,0.128c-1.05,2.252 -4.546,1.679 -4.556,-0.379l0.003,-0.253l0.014,-0.124c0.192,-0.263 0.182,-0.247 0.368,-0.508c0.045,-0.04 0.091,-0.08 0.136,-0.12c0.207,-0.132 0.415,-0.263 0.622,-0.395c0.218,-0.101 0.201,-0.096 0.409,-0.207Z" style="fill:#72553f;fill-opacity:0.99;"/><path d="M14.72,2.317c0.315,0.06 0.299,0.079 0.632,0.086c0.828,0.325 0.83,0.313 0.901,0.342c0.042,0.031 -0.004,0.052 0.031,0.077c0.018,0.013 0.018,0.011 0.241,0.145c0.148,0.116 0.132,0.103 0.288,0.238c0.062,0.066 0.123,0.132 0.185,0.198l0.119,0.125c0.223,0.283 0.198,0.276 0.335,0.6c-0.153,0.256 -0.125,0.249 -0.266,0.529c-0.208,0.413 0.181,0.755 -0.064,0.845c-0.383,0.141 -0.425,0.016 -0.738,0.295c-0.242,-0.159 -0.246,-0.129 -0.497,-0.291c-0.519,-0.264 -0.845,-0.523 -1.545,-0.592c-0.092,-0.038 -0.184,-0.076 -0.277,-0.115c-0.353,-0.195 -0.341,-0.235 -0.504,-0.225c-0.422,0.025 -0.389,-0.077 -0.598,-0.427c-0.113,-0.189 -0.145,-0.172 -0.122,-0.388c0.127,-0.3 0.13,-0.296 0.403,-0.478c0.171,-0.041 0.286,0.011 0.217,-0.155c-0.139,-0.335 -0.109,-0.358 -0.417,-0.558l0.038,-0.051c0.12,-0.02 0.24,-0.04 0.36,-0.06l0.126,-0.018c0.583,-0.126 0.568,-0.112 1.153,-0.121Z" style="fill:#a67d53;fill-opacity:0.99;"/><path d="M13.244,3.281c-0.273,0.181 -0.276,0.178 -0.403,0.478c-0.023,0.216 0.009,0.199 0.122,0.388c0.209,0.35 0.176,0.452 0.598,0.427c0.163,-0.01 0.15,0.03 0.504,0.225c-0.23,0.216 -0.309,0.298 -0.05,0.461c0.263,0.165 -0.02,0.432 0.293,0.475c0.214,0.029 0.203,0.014 0.424,0.042c0.158,0.02 0.12,-0.062 0.257,-0.132c-0.353,-0.193 -0.539,-0.087 -0.519,-0.497c0.081,0.032 0.83,0.326 0.998,0.433c0.214,0.136 0.228,0.21 0.288,0.105c0.037,-0.064 0.094,-0.116 0.13,-0.18c0.251,0.162 0.255,0.132 0.497,0.291c0.333,0.174 0.686,0.189 0.348,0.362c-0.674,0.345 -0.799,0.346 -0.718,0.838c-0.105,0.028 -2.523,0.829 -3.891,-0.239c0.284,-0.228 0.282,-0.226 0.307,-0.246c0.219,-0.176 -0.013,-0.195 -0.512,-0.577c-0.428,-0.327 -0.096,-1.762 0.293,-2.122c0.49,-0.453 0.431,-0.809 1.035,-0.532Z" style="fill:#594034;fill-opacity:0.99;"/><path d="M0.788,2.452c0.137,0.189 0.118,0.187 0.3,0.321l-0.027,0.058c-0.17,0.428 -0.174,0.652 -0.174,0.71c0.211,0.291 0.205,0.28 0.405,0.588c0.274,0.147 0.26,0.132 0.499,0.308c0.862,0.407 0.965,0.186 1.213,0.074c0.61,0.322 0.654,0.203 0.878,-0.007c0.092,-0.017 0.183,-0.034 0.275,-0.051c0.35,-0.042 0.365,0.037 0.749,-0.179c0.128,0.002 0.121,0.14 0.508,0.008c0.283,-0.096 0.282,-0.127 0.547,-0.008c-0.202,0.158 -0.176,0.161 -0.378,0.295c-0.719,0.479 -0.474,0.674 -0.976,1.365c-0.387,-0.966 -3.817,1.145 -4.427,-2.171c0.087,-0.754 0.086,-0.774 0.606,-1.311Z" style="fill:#5a4236;fill-opacity:0.98;"/><path d="M6.107,4.084c0.721,0.201 1.352,-0.534 3.032,0.265c-0.091,0.046 -0.181,0.092 -0.272,0.138c-0.269,0.007 -0.251,0.045 -0.518,0.045c-0.097,0 -1.145,-0.794 -0.78,0.154c0.114,0.237 0.105,0.243 0.123,0.256c0.128,0.095 0.157,-0.017 0.294,0.084c-0.057,0.097 -0.115,0.194 -0.172,0.29c-0.132,0.005 -0.264,0.011 -0.395,0.016c-0.118,-0.181 -0.162,-0.17 -0.124,-0.275c0.185,-0.517 -0.36,-0.158 -0.631,-0.502c-0.087,-0.111 -0.093,-0.03 -0.237,0.07c-0.152,0.106 -1.027,0.324 -1.115,0.667c-0.186,0.731 -0.613,0.765 -0.211,1.166c0.33,0.488 0.297,0.505 0.783,0.804c0.596,0.028 1.826,0.539 2.323,0.182c0.298,-0.214 1.974,-0.306 1.178,-0.667c-0.455,-0.206 -0.006,-0.355 0.114,-0.465l0.061,-0.11c0.455,0.28 0.469,0.216 0.765,0.224c-0.108,0.275 -0.749,1.901 -3.373,1.491c-2.36,-0.369 -2.276,-1.487 -2.345,-1.985c0.502,-0.691 0.257,-0.886 0.976,-1.365c0.202,-0.134 0.176,-0.137 0.378,-0.295l0.145,-0.19Z" style="fill:#846146;fill-opacity:0.99;"/><path d="M18.251,1.961c0.133,0.051 0.096,0.184 0.297,0.115c0.033,-0.011 0.395,-0.013 0.457,0.293c0.084,0.416 0.097,0.412 0.42,0.685c0.585,0.494 0.622,0.449 1.389,0.424c0.635,0.369 0.976,0.495 1.065,0.529c0.562,0.411 1.048,-0.45 1.11,-0.525c0.246,-0.298 0.255,-0.269 0.59,-0.477l0.041,0.114c-0.03,0.113 -0.117,0.353 -0.128,0.384c-0.065,0.065 -0.069,0.039 -0.121,0.121c-1.125,1.774 -5.991,1.465 -5.187,-1.511l0.067,-0.149Z" style="fill:#594035;fill-opacity:0.99;"/><path d="M20.087,6.131c0.464,0.199 0.434,0.236 0.623,0.694c0.18,0.31 0.115,0.335 0.38,0.564c0.051,0.009 0.39,0.07 0.643,0.096c0.288,0.253 0.327,0.249 0.648,0.043c0.361,-0.02 0.378,0.07 0.654,-0.144c0.156,0.216 0.063,0.224 -0.065,0.449c-0.042,0.073 -0.003,0.066 0.184,0.286c-0.084,0.051 -0.167,0.102 -0.251,0.152c-0.114,-0.084 -0.027,-0.137 -0.149,-0.227c-0.008,-0.006 -0.012,-0.009 -0.127,0.024c-0.043,0.012 -0.082,0.05 -0.127,0.047c-0.819,-0.049 -0.757,0.276 -1.271,0.265c-1.536,-0.034 -1.589,-1.028 -2.319,-0.39c-0.261,-0.317 -0.276,-0.284 -0.47,-0.666c0.216,-0.396 0.2,-0.409 0.234,-0.428c0.081,-0.044 0.155,0.107 0.244,0.127c0.028,0.006 0.216,0.048 0.315,-0.166c0.176,-0.382 0.206,-0.381 0.187,-0.412c-0.128,-0.212 -0.469,-0.135 -0.236,-0.705c0.379,0.378 0.372,0.454 0.901,0.389Z" style="fill:#5f4538;fill-opacity:0.99;"/><path d="M22.993,5.311c0.508,0.411 0.475,0.428 0.743,1.021c0.042,0.492 0.031,0.805 0.029,0.875c-0.194,0.535 -0.209,0.52 -0.609,0.914c-0.187,-0.22 -0.226,-0.213 -0.184,-0.286c0.128,-0.225 0.221,-0.233 0.065,-0.449l0.08,-0.095c0.014,-0.017 0.178,-0.212 0.178,-0.212c-0.036,-0.065 -0.139,-0.071 -0.175,-0.136c0.077,-0.07 0.062,-0.072 0.139,-0.127c0.172,-0.122 -0.009,-0.131 -0.014,-0.196c0.018,-0.287 0.185,-0.435 -0.105,-0.436c-0.095,-0 -0.158,0.13 -0.253,0.129c-0.044,-0.048 -0.088,-0.096 -0.132,-0.144c0.256,-0.171 0.261,-0.207 0.266,-0.236c0.027,-0.184 -0.138,-0.145 -0.141,-0.149c-0.044,0.004 -0.087,0.008 -0.131,0.011c-0.205,0.067 -0.273,0.229 -0.792,0.072c-0.372,-0.162 -0.369,-0.053 -1.236,0.117c-0.017,0.005 -0.001,0.001 -0.524,0.111l-0.11,0.036c-0.529,0.065 -0.523,-0.011 -0.901,-0.389l-0.129,-0.194c1.768,-1.221 3.648,-0.367 3.935,-0.236Z" style="fill:#ab8156;fill-opacity:0.98;"/><path d="M3.245,1.433l0.259,0.038c0.537,0.465 0.532,0.438 1.136,0.79c0.191,0.111 0.155,0.128 0.27,0.224c0.026,0.054 0.052,0.108 0.079,0.162l0.084,0.234c-0.096,0.365 -0.172,0.327 -0.548,0.36c-0.185,-0.262 -0.334,-0.581 -0.358,-0.633c-0.166,-0.354 -0.246,-0.077 -0.549,0.161l-0.135,-0.122c0.024,-0.436 -0.073,-0.405 -0.077,-0.419c-0.561,-0.731 -1,-0.322 -0.768,-0.155c0.235,0.17 0.229,0.151 0.413,0.371c-0.104,0.018 -0.208,0.036 -0.312,0.054c0.037,0.353 -0.051,0.412 0.263,0.605c0.052,0.338 -0.01,0.321 0.01,0.652c0.021,0.342 0.789,0.709 0.872,0.749c-0.223,0.211 -0.267,0.33 -0.878,0.007c-0.18,-0.22 -0.711,-0.702 -0.767,-0.763l-0.034,-0.08c0.034,-0.478 -0.132,-0.431 -0.355,-0.405c-0.3,0.034 -0.374,-0.438 -0.168,-0.657c0.05,-0.113 0.227,-0.133 0.277,-0.246c0.019,-0.044 -0.008,-0.037 -0.509,-0.413l0.02,-0.087c0.642,-0.327 1.632,-0.414 1.778,-0.427Z" style="fill:#ad8458;fill-opacity:0.98;"/><path d="M7.419,5.333c0.235,0.227 0.255,0.177 0.514,0.394l0.047,0.049c-0.029,0.07 -0.145,0.075 -0.174,0.144c-0.084,0.203 1.445,0.603 0.792,0.152c0.003,-0.001 0.023,0.088 0.402,-0.139c0.217,1.324 -1.224,1.285 -1.298,0.77c-0.002,-0.039 -0.022,-0.461 -0.112,-0.475c-0.205,-0.031 -0.167,0.052 -0.511,0.379l-0.137,0.044c-0.233,-0.514 -0.954,-0.662 -1.009,-0.728c-0.024,-0.029 -0.489,-0.835 -0.423,-0c0.03,0.38 -0.064,0.36 -0.407,0.534c-0.402,-0.401 0.024,-0.435 0.211,-1.166c0.088,-0.344 0.963,-0.561 1.115,-0.667c0.144,-0.1 0.149,-0.182 0.237,-0.07c0.271,0.345 0.815,-0.015 0.631,0.502c-0.038,0.106 0.006,0.095 0.124,0.275Z" style="fill:#7f5d43;fill-opacity:0.99;"/><path d="M20.715,0.573c0.089,0.016 0.507,0.073 0.734,0.052c0.438,0.233 0.451,0.16 0.916,0.355l0.032,0.062c-0.131,0.351 -0.134,0.377 -0.494,0.455c-0.047,-0.031 -0.165,-0.521 -0.543,-0.072c-0.696,-0.18 -0.514,-0.712 -0.771,-0.527c-0.024,0.017 -0.018,0.02 -0.246,0.27l-0.213,-0.012c-0.051,0.003 -0.103,0.006 -0.154,0.01c-0.495,0.148 -0.487,0.119 -0.68,0.237c-0.032,0.02 -1.425,0.895 -0.275,0.388c0.202,-0.089 0.197,-0.057 0.424,-0.068c-0.103,0.164 -0.102,0.15 -0.233,0.283c-0.236,0.238 0.56,0.339 0.616,0.346c0.158,0.969 0.5,0.741 0.707,0.804c0.142,0.043 0.127,0.052 0.257,0.105c0.008,0.072 0.016,0.144 0.024,0.217c-0.767,0.025 -0.804,0.07 -1.389,-0.424c-0.323,-0.272 -0.336,-0.268 -0.42,-0.685c-0.061,-0.306 -0.424,-0.304 -0.457,-0.293c-0.201,0.069 -0.164,-0.063 -0.297,-0.115l0.073,-0.216c0.1,-0.147 0.23,-0.351 0.249,-0.381c0.358,-0.16 0.311,-0.212 0.507,-0.37c0.372,-0.158 0.375,-0.122 0.745,-0.28c0.393,-0.086 0.38,-0.07 0.891,-0.141Z" style="fill:#8d694a;fill-opacity:0.98;"/><path d="M22.397,1.042c0.229,0.169 0.225,0.149 0.464,0.327c0.212,0.176 0.208,0.166 0.377,0.374c0.012,0.019 0.093,0.15 0.125,0.252c0.019,0.024 0.016,0.023 0.135,0.245c-0.221,0.396 -0.305,0.402 -0.347,0.405c-0.664,0.046 -0.49,0.569 -1.167,0.532c-0.547,0.015 -0.567,0.134 -1.025,-0.16c0.002,-0.147 0.081,-0.143 0.004,-0.264c-0.337,-0.524 -0.072,-0.536 -0.017,-0.652l0.148,-0.143c0.388,0.026 0.368,0.016 0.769,0.051c0.665,0.058 -0.003,-0.409 -0.031,-0.428l0.071,-0.083c0.36,-0.078 0.364,-0.104 0.494,-0.455Z" style="fill:#bc925e;fill-opacity:0.99;"/><path d="M12.7,2.669c0.228,-0.067 0.218,-0.062 0.344,-0.102c0.309,0.2 0.279,0.224 0.417,0.558c0.069,0.167 -0.046,0.114 -0.217,0.155c-0.604,-0.276 -0.545,0.079 -1.035,0.532c-0.389,0.36 -0.72,1.795 -0.293,2.122c0.499,0.382 0.731,0.401 0.512,0.577c-0.025,0.02 -0.023,0.018 -0.307,0.246c-1.676,-1.498 -1.091,-2.34 -0.332,-3.377c0.019,-0.022 0.017,-0.009 0.25,-0.26c0.103,-0.081 0.607,-0.416 0.66,-0.451Z" style="fill:#74543f;fill-opacity:0.99;"/><path d="M9,5.681c0.082,0.011 0.165,0.021 0.247,0.032c0.27,0.23 0.26,0.249 0.253,0.601c-0.12,0.11 -0.569,0.258 -0.114,0.465c0.796,0.361 -0.88,0.453 -1.178,0.667c-0.498,0.357 -1.728,-0.154 -2.323,-0.182c0.075,-0.163 0.194,-0.173 0.051,-0.315c-0.108,-0.108 0.176,-0.599 0.215,-0.587c0.313,0.099 0.213,0.573 0.79,0.292l0.137,-0.044c0.319,0.01 0.302,0.063 0.623,0.096c0.074,0.514 1.516,0.554 1.298,-0.77l0.001,-0.252Z" style="fill:#503a31;fill-opacity:0.99;"/><path d="M3.504,1.471c1.207,0.132 1.254,0.097 2.17,0.887c0.264,0.354 0.27,0.345 0.37,0.77c0.001,0.764 0.039,0.882 0.062,0.955l-0.145,0.19c-0.265,-0.119 -0.264,-0.089 -0.547,0.008c-0.388,0.132 -0.38,-0.006 -0.508,-0.008c0.004,-0.005 -0,-0 0.504,-0.537c-0.039,-0.024 -0.074,0.102 -0.113,0.078c-0.314,-0.193 0.518,-1.404 -0.225,-0.934l-0.084,-0.234c-0.026,-0.054 -0.052,-0.108 -0.079,-0.162c-0.115,-0.095 -0.079,-0.113 -0.27,-0.224c-0.604,-0.352 -0.6,-0.326 -1.136,-0.79Z" style="fill:#906a4a;fill-opacity:0.98;"/><path d="M21.123,6.268c0.085,-0.016 0.438,-0.081 0.971,0.467c0.415,0.426 0.475,0.079 0.794,-0.423c0.151,0.195 0.135,0.196 0.358,0.307c0.005,0.066 0.186,0.075 0.014,0.196c-0.077,0.055 -0.062,0.057 -0.139,0.127c-0.001,0.116 -0.002,0.232 -0.003,0.348l-0.08,0.095c-0.276,0.213 -0.294,0.124 -0.654,0.144c-0.298,-0.2 -0.321,-0.206 -0.648,-0.043c-0.253,-0.026 -0.592,-0.087 -0.643,-0.096c-0.265,-0.229 -0.2,-0.254 -0.38,-0.564c0.234,-0.286 0.369,-0.197 0.412,-0.557Z" style="fill:#9b724e;fill-opacity:1;"/><path d="M3.481,2.647l0.135,0.122c0.234,0.507 0.339,0.398 0.908,0.472c0.376,-0.033 0.453,0.004 0.548,-0.36c0.743,-0.47 -0.089,0.741 0.225,0.934c0.039,0.024 0.074,-0.102 0.113,-0.078c-0.504,0.537 -0.5,0.532 -0.504,0.537c-0.385,0.216 -0.399,0.137 -0.749,0.179c-0.003,-0.073 -0.126,-0.105 -0.129,-0.178c-0.009,-0.195 0.051,-0.194 0.242,-0.148c0.043,0.01 0.083,0.037 0.127,0.04c0.07,0.005 0.405,-0.101 0.37,-0.271c-0.065,-0.315 -0.494,0.039 -1.136,-0.032c-0.446,-0.049 -0.046,-0.323 -0.231,-0.735c-0.06,-0.133 -0.054,-0.119 -0.115,-0.253c0.053,-0.149 0.042,-0.156 0.195,-0.228Z" style="fill:#805c42;fill-opacity:1;"/><path d="M9.139,4.349c0.21,0.115 0.208,0.096 0.405,0.25c-0.198,0.777 0.167,0.645 0.207,0.612c0.022,-0.018 0.011,-0.024 0.152,-0.322c0.499,0.685 0.517,0.707 0.423,1.538c-0.296,-0.007 -0.31,0.056 -0.765,-0.224c0.026,-0.025 0.015,-0.15 0.24,-0.227c0.046,-0.016 0.171,-0.327 -0.554,-0.264c-0.082,-0.011 -0.165,-0.021 -0.247,-0.032l-0.04,-0.14c-0.007,-0.542 0.056,-0.533 -0.093,-1.054c0.091,-0.046 0.181,-0.092 0.272,-0.138Z" style="fill:#9c744e;fill-opacity:0.99;"/><path d="M18.911,7.991c0.73,-0.638 0.783,0.356 2.319,0.39c0.514,0.011 0.452,-0.314 1.271,-0.265c0.045,0.003 0.083,-0.035 0.127,-0.047c0.116,-0.032 0.119,-0.03 0.127,-0.024c0.122,0.09 0.035,0.143 0.149,0.227c-0.365,0.104 -2.386,1.114 -3.993,-0.282Z" style="fill:#6f4f3e;fill-opacity:0.98;"/><path d="M17.452,4.127c0.13,0.265 0.161,0.24 0.177,0.535c-0.09,1.863 -0.649,1.828 -1.615,2.334c-0.081,-0.493 0.044,-0.493 0.718,-0.838c0.338,-0.173 -0.015,-0.188 -0.348,-0.362c0.314,-0.279 0.355,-0.154 0.738,-0.295c0.245,-0.09 -0.144,-0.432 0.064,-0.845c0.141,-0.28 0.114,-0.273 0.266,-0.529Z" style="fill:#7f5a42;fill-opacity:0.98;"/><path d="M19.486,1.597c0.05,0.008 0.035,0.117 0.085,0.125c0.028,0.004 0.846,-0.122 0.92,-0.134c0.149,0.327 0.181,0.285 0.456,0.512c-0.056,0.117 -0.32,0.129 0.017,0.652c0.078,0.121 -0.002,0.117 -0.004,0.264l-0.245,-0.065c-0.504,-0.272 -0.322,-0.617 -0.888,-0.6c-0.056,-0.007 -0.852,-0.107 -0.616,-0.346c0.132,-0.133 0.13,-0.119 0.233,-0.283l0.043,-0.126Z" style="fill:#a17951;fill-opacity:0.99;"/><path d="M8.867,4.487c0.149,0.522 0.086,0.512 0.093,1.054c-0.449,0.329 -0.489,-0.268 -1.024,-0.089l-0.122,-0.135c0.057,-0.097 0.115,-0.194 0.172,-0.29c-0.149,-0.248 -0.149,-0.245 -0.417,-0.341c-0.365,-0.948 0.683,-0.154 0.78,-0.154c0.268,-0 0.249,-0.038 0.518,-0.045Z" style="fill:#cea167;fill-opacity:0.99;"/><path d="M5.102,6.459c0.343,-0.175 0.437,-0.155 0.407,-0.534c-0.066,-0.834 0.399,-0.029 0.423,0c0.055,0.066 0.776,0.213 1.009,0.728c-0.578,0.281 -0.477,-0.194 -0.79,-0.292c-0.039,-0.012 -0.323,0.479 -0.215,0.587c0.142,0.143 0.024,0.152 -0.051,0.315c-0.485,-0.299 -0.453,-0.316 -0.783,-0.804Z" style="fill:#614639;fill-opacity:1;"/><path d="M23.498,2.24c0.031,0.09 0.063,0.179 0.094,0.269c-0.004,0.165 -0.009,0.33 -0.013,0.495c-0.335,0.207 -0.344,0.178 -0.59,0.477c-0.062,0.075 -0.548,0.936 -1.11,0.525c0.282,-0.255 0.46,-0.264 0.239,-0.568c-0.014,-0.019 -0.01,-0.019 -0.134,-0.261c0.676,0.037 0.503,-0.486 1.167,-0.532c0.043,-0.003 0.126,-0.009 0.347,-0.405Z" style="fill:#7c5a42;fill-opacity:0.98;"/><path d="M21.957,5.867c-0.526,0.487 0.282,0.301 0.799,0.301c0.044,0.048 0.088,0.096 0.132,0.144c-0.319,0.502 -0.379,0.849 -0.794,0.423c-0.533,-0.547 -0.886,-0.482 -0.971,-0.467c-0.22,-0.129 -0.199,-0.127 -0.402,-0.284c0.867,-0.17 0.864,-0.278 1.236,-0.117Z" style="fill:#b4895a;fill-opacity:1;"/><path d="M3.285,2.875c0.06,0.133 0.055,0.12 0.115,0.253c0.185,0.412 -0.215,0.686 0.231,0.735c0.642,0.07 1.071,-0.284 1.136,0.032c0.035,0.17 -0.3,0.276 -0.37,0.271c-0.044,-0.003 -0.084,-0.03 -0.127,-0.04c-0.19,-0.045 -0.25,-0.047 -0.242,0.148c0.003,0.073 0.126,0.105 0.129,0.178c-0.092,0.017 -0.183,0.034 -0.275,0.051c-0.083,-0.04 -0.851,-0.407 -0.872,-0.749c-0.02,-0.332 0.042,-0.314 -0.01,-0.652c0.261,-0.084 0.265,-0.074 0.282,-0.09c0.059,-0.058 -0.054,-0.08 0.004,-0.137Z" style="fill:#8a6547;fill-opacity:1;"/><path d="M13.849,3.476c0.006,-0.111 -0.063,-0.11 0.011,-0.212c0.452,-0.62 0.89,0.321 1.33,-0.293c0.206,-0.288 0.416,0.036 0.297,0.15c-0.589,0.563 0.613,-0.063 0.557,0.08c-0.187,0.476 -0.304,0.349 -0.816,0.441c-0.112,-0.219 -0.158,-0.115 -0.235,-0.073c-0.073,0.04 -0.464,0.11 -0.528,0.079c-0.126,-0.061 -0.117,-0 -0.25,-0.014c0,0 -0.336,-0.146 -0.365,-0.159Z" style="fill:#c39861;fill-opacity:1;"/><path d="M19.057,5.547l0.129,0.194c-0.233,0.57 0.109,0.493 0.236,0.705c0.019,0.031 -0.011,0.03 -0.187,0.412c-0.099,0.214 -0.287,0.172 -0.315,0.166c-0.09,-0.02 -0.164,-0.171 -0.244,-0.127c-0.034,0.019 -0.017,0.032 -0.234,0.428c-0.012,-0.088 -0.332,-0.934 0.615,-1.778Z" style="fill:#71523e;fill-opacity:0.99;"/><path d="M8.986,0.183c0.135,0.002 1.184,0.015 1.637,0.418c-0.142,0.058 -0.153,0.003 -0.253,0.104c-0.345,0.349 -1.066,0.055 -1.127,-0.004c-0.367,-0.354 -0.467,-0.156 -0.776,-0.412c0.268,-0.043 0.478,-0.095 0.519,-0.106Z" style="fill:#99724e;fill-opacity:0.95;"/><path d="M20.714,2.952l0.245,0.065c0.457,0.294 0.478,0.174 1.025,0.16c0.124,0.241 0.12,0.242 0.134,0.261c0.221,0.304 0.043,0.313 -0.239,0.568c-0.089,-0.033 -0.43,-0.159 -1.065,-0.529c-0.008,-0.072 -0.016,-0.144 -0.024,-0.217l-0.076,-0.309Z" style="fill:#614537;fill-opacity:1;"/><path d="M13.849,3.476c0.029,0.013 0.365,0.159 0.365,0.159c0.132,0.013 0.123,-0.048 0.25,0.014c0.065,0.031 0.455,-0.039 0.528,-0.079c0.077,-0.043 0.123,-0.146 0.235,0.073c-0.015,0.333 -0.024,0.313 0.003,0.633c-0.199,0.104 -0.295,0.237 -0.321,-0.001c-0.037,-0.326 -0.154,-0.22 -0.457,-0.348c-0.653,-0.276 -0.692,0.171 -1.387,-0.029c0.316,-0.35 0.312,-0.367 0.784,-0.422Z" style="fill:#9f7850;fill-opacity:1;"/><path d="M9.113,1.468c0.72,-0.33 0.815,0.196 1.518,-0.146c0.166,-0.081 0.215,-0.162 0.279,0.019c0.123,0.345 -0.122,0.388 -0.136,0.431c-0.703,0.277 -0.716,0.201 -0.863,0.161c-0.158,-0.142 -0.173,-0.092 -0.382,-0.141c-0.017,-0.016 -0.039,-0.024 -0.056,-0.04c-0.088,-0.081 -0.051,-0.172 -0.053,-0.175c-0.152,-0.227 -0.27,-0.096 -0.308,-0.109Z" style="fill:#9c754e;fill-opacity:1;"/><path d="M1.716,3.769l0.265,-0.047c0.085,0.008 0.17,0.017 0.256,0.025c0.056,0.06 0.587,0.542 0.767,0.763c-0.248,0.113 -0.351,0.334 -1.213,-0.074c0.183,-0.322 0.114,-0.334 -0.075,-0.668Z" style="fill:#634739;fill-opacity:0.99;"/><path d="M1.679,2.606c-0.205,0.219 -0.132,0.691 0.168,0.657c0.223,-0.026 0.389,-0.073 0.355,0.405c-0.074,0.018 -0.148,0.037 -0.221,0.055l-0.265,0.047c-0.125,-0.099 -0.239,-0.084 -0.392,-0.365c-0.134,-0.246 0.008,-0.265 -0.058,-0.434c-0.03,-0.077 -0.175,-0.062 -0.205,-0.139l0.027,-0.058c0.257,-0.195 0.194,-0.324 0.524,-0.301c0.125,0.009 0.035,0.069 0.068,0.133Z" style="fill:#7f5b42;fill-opacity:0.99;"/><path d="M9.529,1.791c0.209,0.05 0.223,-0.001 0.382,0.141c-0.003,0.068 -0.106,0.106 -0.108,0.174c-0.002,0.062 0.078,0.048 0.126,0.759c-0.719,0.466 -0.975,-0.554 -0.4,-1.075Z" style="fill:#533c32;fill-opacity:1;"/><path d="M1.061,2.831c0.03,0.077 0.175,0.062 0.205,0.139c0.066,0.169 -0.076,0.188 0.058,0.434c0.153,0.281 0.267,0.266 0.392,0.365c0.188,0.334 0.258,0.346 0.075,0.668c-0.239,-0.175 -0.225,-0.161 -0.499,-0.308c-0.2,-0.308 -0.194,-0.297 -0.405,-0.588c0.001,-0.059 0.004,-0.283 0.174,-0.71Z" style="fill:#5d4337;fill-opacity:1;"/><path d="M20.596,1.336c0.573,0.614 0.824,0.215 0.861,0.156c0.209,0.164 0.263,0.318 0.375,0.088c0.028,0.02 0.697,0.486 0.031,0.428c-0.4,-0.035 -0.381,-0.025 -0.769,-0.051l-0.148,0.143c-0.275,-0.227 -0.307,-0.185 -0.456,-0.512c0.035,-0.084 0.07,-0.168 0.105,-0.252Z" style="fill:#ac8053;fill-opacity:1;"/><path d="M1.447,1.947c0.502,0.376 0.529,0.37 0.509,0.413c-0.05,0.113 -0.227,0.133 -0.277,0.246c-0.033,-0.064 0.057,-0.124 -0.068,-0.133c-0.33,-0.024 -0.267,0.105 -0.524,0.301c-0.183,-0.133 -0.163,-0.131 -0.3,-0.321c0.18,-0.185 0.171,-0.186 0.187,-0.2c0.143,-0.105 0.434,-0.282 0.473,-0.305Z" style="fill:#a17955;fill-opacity:0.98;"/><path d="M14.064,4.799c0.092,0.038 0.184,0.076 0.277,0.115c0.043,0.078 0.086,0.156 0.129,0.234c-0.021,0.41 0.165,0.304 0.519,0.497c-0.137,0.071 -0.098,0.152 -0.257,0.132c-0.221,-0.028 -0.21,-0.013 -0.424,-0.042c-0.314,-0.042 -0.031,-0.309 -0.293,-0.475c-0.259,-0.163 -0.18,-0.245 0.05,-0.461Z" style="fill:#7b5841;fill-opacity:1;"/><path d="M7.936,5.452c0.534,-0.179 0.574,0.418 1.024,0.089l0.04,0.14l-0.001,0.252c-0.38,0.227 -0.4,0.138 -0.402,0.139c-0.206,-0.099 -0.412,-0.197 -0.617,-0.296l-0.047,-0.049c0.001,-0.092 0.003,-0.183 0.004,-0.275Z" style="fill:#ae8456;fill-opacity:0.99;"/><path d="M19.826,2.351c0.566,-0.017 0.384,0.328 0.888,0.6l0.076,0.309c-0.13,-0.053 -0.115,-0.062 -0.257,-0.105c-0.207,-0.063 -0.549,0.165 -0.707,-0.804Z" style="fill:#876346;fill-opacity:0.99;"/><path d="M3.616,2.769c0.303,-0.239 0.384,-0.516 0.549,-0.161c0.025,0.053 0.173,0.371 0.358,0.633c-0.569,-0.073 -0.673,0.035 -0.908,-0.472Z" style="fill:#b98a59;fill-opacity:1;"/><path d="M14.341,4.913c0.7,0.07 1.026,0.328 1.545,0.592c-0.037,0.064 -0.094,0.116 -0.13,0.18c-0.06,0.105 -0.074,0.031 -0.288,-0.105c-0.168,-0.107 -0.917,-0.401 -0.998,-0.433c-0.043,-0.078 -0.086,-0.156 -0.129,-0.234Z" style="fill:#664838;fill-opacity:1;"/><path d="M3.404,2.227c0.004,0.015 0.1,-0.017 0.077,0.419c-0.154,0.072 -0.142,0.079 -0.195,0.228c-0.058,0.057 0.055,0.079 -0.004,0.137c-0.017,0.017 -0.021,0.007 -0.282,0.09c-0.313,-0.194 -0.226,-0.252 -0.263,-0.605c0.104,-0.018 0.208,-0.036 0.312,-0.054c0.191,-0.098 0.195,-0.072 0.356,-0.216Z" style="fill:#b18456;fill-opacity:0.99;"/><path d="M20.721,5.984c0.203,0.157 0.182,0.155 0.402,0.284c-0.043,0.36 -0.179,0.271 -0.412,0.557c-0.19,-0.459 -0.159,-0.496 -0.623,-0.694l0.11,-0.036c0.523,-0.11 0.507,-0.105 0.524,-0.111Z" style="fill:#8c6548;fill-opacity:1;"/><path d="M20.342,1.168c0.228,-0.25 0.222,-0.253 0.246,-0.27c0.257,-0.184 0.075,0.348 0.771,0.527l0.098,0.067c-0.037,0.059 -0.288,0.459 -0.861,-0.156l-0.254,-0.168Z" style="fill:#bf9562;fill-opacity:1;"/><path d="M21.957,5.867c0.519,0.158 0.588,-0.004 0.792,-0.072l0.131,-0.011c0.003,0.003 0.168,-0.035 0.141,0.149c-0.004,0.028 -0.01,0.065 -0.266,0.236c-0.516,-0 -1.325,0.186 -0.799,-0.301Z" style="fill:#886145;fill-opacity:0.99;"/><path d="M20.129,1.156l0.213,0.012l0.254,0.168c-0.035,0.084 -0.07,0.168 -0.105,0.252c-0.073,0.011 -0.892,0.138 -0.92,0.134c-0.05,-0.008 -0.035,-0.117 -0.085,-0.125c0.03,-0.016 0.371,-0.194 0.371,-0.194c0.077,-0.018 0.177,0.019 0.236,-0.034c0.053,-0.049 -0.017,-0.165 0.036,-0.213Z" style="fill:#b28b5c;fill-opacity:0.99;"/><path d="M8.088,0.975c0.456,0.062 0.588,0.318 0.906,0.538c-0.324,0.12 -0.327,0.077 -0.643,-0.046c-0.321,-0.343 -0.255,-0.375 -0.263,-0.492Z" style="fill:#8a6648;fill-opacity:0.99;"/><path d="M3.404,2.227c-0.161,0.143 -0.164,0.118 -0.356,0.216c-0.184,-0.219 -0.177,-0.2 -0.413,-0.371c-0.231,-0.167 0.208,-0.576 0.768,0.155Z" style="fill:#a07550;fill-opacity:0.99;"/><path d="M7.979,5.776c0.206,0.099 0.412,0.197 0.617,0.296c0.653,0.451 -0.875,0.051 -0.792,-0.152c0.029,-0.07 0.145,-0.075 0.174,-0.144Z" style="fill:#604235;fill-opacity:0.99;"/><path d="M12.7,2.669c-0.053,0.035 -0.557,0.37 -0.66,0.451c0.059,-0.266 0.047,-0.249 0.093,-0.515c0.069,-0.393 0.23,-0.137 0.567,0.064Z" style="fill:#806046;fill-opacity:0.11;"/><path d="M20.447,5.505c-0.036,0.02 -0.018,0.031 -0.402,0.325c-0.308,-0.152 -0.529,-0.23 -0.222,-0.4c0.31,-0.172 0.328,-0.119 0.624,0.075Z" style="fill:#b58b5a;fill-opacity:0.99;"/><path d="M19.825,0.714c-0.37,0.159 -0.373,0.122 -0.745,0.28c0.156,-0.508 0.294,-0.553 0.745,-0.28Z" style="fill:#69513c;fill-opacity:0.05;"/><path d="M19.967,6.814c0.425,0.077 0.351,0.2 0.379,0.631c-0.127,-0.092 -0.122,-0.072 -0.277,-0.101c-0.284,-0.052 -0.136,-0.168 -0.102,-0.53Z" style="fill:#624739;fill-opacity:0.99;"/><path d="M1.467,1.86l-0.02,0.087c-0.038,0.023 -0.329,0.2 -0.473,0.305c-0.585,-0.688 0.283,-0.401 0.493,-0.392Z" style="fill:#81634b;fill-opacity:0.04;"/><path d="M19.974,1.165l0.154,-0.01c-0.053,0.049 0.017,0.165 -0.036,0.213c-0.059,0.053 -0.158,0.016 -0.236,0.034c0,0 -0.341,0.178 -0.371,0.194l-0.192,-0.194c0.193,-0.119 0.185,-0.09 0.68,-0.237Z" style="fill:#8c694b;fill-opacity:0.99;"/><path d="M7.078,6.608c0.343,-0.328 0.305,-0.411 0.511,-0.379c0.09,0.014 0.11,0.436 0.112,0.475c-0.32,-0.033 -0.304,-0.085 -0.623,-0.096Z" style="fill:#694b3b;fill-opacity:0.99;"/><path d="M14.72,2.317c0.029,-0.054 0.297,-0.547 0.768,0.048l-0.136,0.037c-0.333,-0.007 -0.317,-0.025 -0.632,-0.086Z" style="fill:#816447;fill-opacity:0.05;"/><path d="M9.544,4.599c0.12,0.097 0.239,0.194 0.359,0.291c-0.14,0.298 -0.13,0.304 -0.152,0.322c-0.04,0.033 -0.406,0.165 -0.207,-0.612Z" style="fill:#a47b53;fill-opacity:0.94;"/><path d="M19.294,1.403l0.192,0.194l-0.043,0.126c-0.227,0.012 -0.222,-0.021 -0.424,0.068c-1.15,0.507 0.243,-0.368 0.275,-0.388Z" style="fill:#836247;fill-opacity:0.99;"/><path d="M7.967,0.452c-0.207,0.132 -0.415,0.263 -0.622,0.395c-0.12,-0.489 0.117,-0.451 0.622,-0.395Z" style="fill:#8f6e53;fill-opacity:0.08;"/><path d="M21.734,7.485c0.327,-0.163 0.351,-0.157 0.648,0.043c-0.321,0.205 -0.361,0.21 -0.648,-0.043Z" style="fill:#785641;fill-opacity:1;"/><path d="M9.247,5.713c0.726,-0.063 0.601,0.248 0.554,0.264c-0.226,0.077 -0.214,0.202 -0.24,0.227l-0.061,0.11c0.006,-0.352 0.016,-0.371 -0.253,-0.601Z" style="fill:#72523d;fill-opacity:0.99;"/><path d="M21.359,1.425c0.379,-0.449 0.496,0.041 0.543,0.072l-0.071,0.083c-0.112,0.23 -0.166,0.076 -0.375,-0.088l-0.098,-0.067Z" style="fill:#a67c53;fill-opacity:1;"/><path d="M7.419,5.333c0.132,-0.005 0.264,-0.011 0.395,-0.016l0.122,0.135c-0.001,0.092 -0.003,0.183 -0.004,0.275c-0.258,-0.217 -0.278,-0.167 -0.514,-0.394Z" style="fill:#97704c;fill-opacity:1;"/><path d="M11.394,1.599c0.62,0.487 0.028,0.49 -0.011,0.504c-0.002,-0.124 -0.003,-0.248 -0.005,-0.372l0.016,-0.133Z" style="fill:#86674b;fill-opacity:0.07;"/><path d="M22.887,6.312c0.095,0 0.158,-0.13 0.253,-0.129c0.29,0.001 0.123,0.149 0.105,0.436c-0.223,-0.111 -0.207,-0.112 -0.358,-0.307Z" style="fill:#946b4a;fill-opacity:1;"/><path d="M7.209,0.967c-0.186,0.261 -0.176,0.245 -0.368,0.508c-0.035,-0.147 -0.199,-0.464 0.368,-0.508Z" style="fill:#82634b;fill-opacity:0.16;"/><path d="M20.715,0.573c0.382,-0.158 0.428,-0.243 0.734,0.052c-0.227,0.021 -0.645,-0.036 -0.734,-0.052Z" style="fill:#907053;fill-opacity:0.13;"/><path d="M9.026,2.845c0.013,0.031 0.51,1.231 -0.167,0.384c-0.067,-0.084 -0.017,-0.082 0.167,-0.384Z" style="fill:#493630;fill-opacity:1;"/><path d="M15.352,2.403l0.136,-0.037c0.529,0.074 0.692,0.319 0.766,0.379c-0.071,-0.029 -0.073,-0.017 -0.901,-0.342Z" style="fill:#856649;fill-opacity:0.18;"/><path d="M16.998,3.402c0.218,-0.211 0.228,-0.32 0.337,-0.198c0.081,0.09 0.005,0.092 -0.218,0.324l-0.119,-0.125Z" style="fill:#967155;fill-opacity:0.04;"/><path d="M13.203,2.381c0.179,-0.078 0.192,-0.048 0.28,-0.236c0.582,-1.233 0.091,0.269 0.083,0.292l-0.126,0.018c-0.079,-0.025 -0.159,-0.05 -0.238,-0.075Z" style="fill:#7d5f45;fill-opacity:0.05;"/><path d="M19.08,0.995c-0.196,0.158 -0.148,0.21 -0.507,0.37c0.141,-0.305 0.169,-0.274 0.507,-0.37Z" style="fill:#7d5f47;fill-opacity:0.2;"/><path d="M8.376,0.245c0.333,-0.363 0.6,-0.067 0.61,-0.062c-0.041,0.01 -0.25,0.063 -0.519,0.106l-0.091,-0.043Z" style="fill:#947557;fill-opacity:0.13;"/><path d="M11.137,1.097c0.218,0.203 0.238,0.189 0.257,0.502l-0.016,0.133c-0.114,-0.339 -0.147,-0.307 -0.241,-0.634Z" style="fill:#85664a;fill-opacity:0.21;"/><path d="M18.324,1.746l-0.073,0.216l-0.067,0.149c-0.135,-0.23 -0.108,-0.281 0.14,-0.365Z" style="fill:#795a45;fill-opacity:0.11;"/><path d="M22.365,0.98c0.319,0.105 0.351,0.073 0.496,0.389c-0.238,-0.178 -0.235,-0.158 -0.464,-0.327l-0.032,-0.062Z" style="fill:#7a5d45;fill-opacity:0.22;"/><path d="M7.569,4.686c0.268,0.096 0.268,0.093 0.417,0.341c-0.137,-0.102 -0.166,0.011 -0.294,-0.084c-0.018,-0.014 -0.009,-0.019 -0.123,-0.256Z" style="fill:#be915d;fill-opacity:0.99;"/><path d="M3.245,1.433c0.02,-0.02 0.254,-0.254 0.254,-0.254c0.193,-0.1 0.014,0.27 0.004,0.291l-0.259,-0.038Z" style="fill:#977557;fill-opacity:0.1;"/><path d="M16.525,2.966c0.218,-0.046 0.29,-0.164 0.346,0.054c0.016,0.062 -0.074,0.122 -0.058,0.184c-0.156,-0.135 -0.14,-0.121 -0.288,-0.238Z" style="fill:#977352;fill-opacity:0.18;"/><path d="M23.121,6.943c0.036,0.065 0.139,0.071 0.175,0.136c0,0 -0.164,0.195 -0.178,0.212c0.001,-0.116 0.002,-0.232 0.003,-0.348Z" style="fill:#916948;fill-opacity:1;"/><path d="M15.272,4.631c0.227,0.098 0.181,0.132 0.228,0.389c-0.076,-0.13 -0.152,-0.259 -0.228,-0.389Z" style="fill:#9e754f;fill-opacity:1;"/><path d="M23.237,1.743c0.11,0.064 0.124,-0.018 0.227,0.042c0.131,0.076 -0.036,0.073 -0.102,0.21c-0.032,-0.102 -0.113,-0.233 -0.125,-0.252Z" style="fill:#7f624b;fill-opacity:0.14;"/><path d="M13.203,2.381c0.079,0.025 0.159,0.05 0.238,0.075c-0.12,0.02 -0.24,0.04 -0.36,0.06c0.041,-0.045 0.081,-0.09 0.122,-0.134Z" style="fill:#8c6a4c;fill-opacity:0.21;"/><path d="M23.592,2.509c0.06,0.304 0.044,0.287 0.028,0.609l-0.041,-0.114c0.004,-0.165 0.009,-0.33 0.013,-0.495Z" style="fill:#745742;fill-opacity:0.45;"/><path d="M16.89,4.178c0.022,-0.013 0.275,-0.159 0.275,-0.159c0.163,0.15 -0.077,0.045 -0.275,0.159Z" style="fill:#c1935d;fill-opacity:1;"/><path d="M2.203,3.667l0.034,0.08c-0.085,-0.008 -0.17,-0.017 -0.256,-0.025c0.074,-0.018 0.148,-0.037 0.221,-0.055Z" style="fill:#765540;fill-opacity:0.99;"/><path d="M12.438,4.525c-0.054,-0.085 -0.172,-0.071 -0.08,-0.124c0.009,-0.005 0.092,-0.053 0.126,-0c0.024,0.037 -0.07,0.087 -0.046,0.124Z" style="fill:#523b31;fill-opacity:0.99;"/></svg>