<svg xmlns="http://www.w3.org/2000/svg" xml:space="preserve" style="fill-rule:evenodd;clip-rule:evenodd;stroke-linejoin:round;stroke-miterlimit:2" viewBox="0 0 100 100"><path d="M328.527 444.211c6.911 1.099 24.948 2.398 41.374 16.793.105.092 0 0 1.703.385.506.53 3.54 5.366 5.738 6.247l.216.814 1.79 1.17c3.791 4.597 4.518 7.484 6.703 4.57 4.117-5.494 3.804-5.594 8.487-10.644l2.101-1.778c8.202-4.386 7.908-4.824 16.909-6.893 8.098-.453 7.989-.264 15.934.691l2.884.51 1.037-.579c13.589 8.345 17.273 11.316 21.758 22.123 1.873 4.514 2.36 4.338 7.263 5.251 28.017 5.212 26.998 56.026-13.886 48.434-4.072-.756-6.29 6.473-27.063 7.786-38.631 2.441-37.653-9.266-47.079-6.923-14.075 3.499-32.627-4.866-34.5-21.708-2.313-20.801 16.956-24.752 22.384-32.713 1.846-.908 3.161-.616 2.012-2.121-8.987-11.765-29.026-16.289-31.84-16.924-3.102-5.783-9.774-2.123-19.952-2.734-5.759-.346-11.293 6.835-17.979 5.198-.66.074-5.646.635-7.936 2.468-6.211 4.974-6.577 5.514-14.317 3.673 6.75-6.822 6.608-6.854 14.332-12.678 14.039-10.586 38.471-10.439 41.927-10.418" style="fill:#a4c4dd" transform="translate(-44.841 -86.629)scale(.29444)"/><path d="M282.502 477.497c.167.153 1.042.949 1.967 2.038 8.693 11.242 18.418 8.252 17.612 25.954-.486 10.663-13.169 23.097-28.38 19.533-4.594-1.077-4.966-2.17-9.542.998-10.18 7.047-12.018 1.485-23.781 6.15-.945.374-26.281 4.98-41.597-5.095-9.634-6.338-11.238 1.766-22.122-1.967-19.279-6.612-28.291-39.808 7.852-44.486 4.467-.579 3.467-24.043 36.999-30.07 12.622-2.269 35.593 4.349 41.47 23.775.979 3.237 2.223 1.404 6.494.89 6.819-.821 6.86-.574 13.028 2.28" style="fill:#f1f1ef" transform="translate(-44.841 -86.629)scale(.29444)"/><path d="M376.477 476.924c8.788 1.867 9.457 3.442 10.62 1.327 1.818-3.306 14.85-27.005 42.387-20.685 16.694 3.831 23.436 23.137 24.372 25.819.619 1.773 26.13 2.035 25.006 25.137-1.212 24.883-28.413 20.322-31.339 19.831-1.227-.205-15.19 11.523-49.946 7.662-14.221-1.58-13.002-9.511-25.043-6.368-21.24 5.545-48.68-26.97-13.252-44.551 6.499-3.225 4.7-7.726 17.195-8.172" style="fill:#f1f2f2" transform="translate(-44.841 -86.629)scale(.29444)"/><path d="m256.443 429.416-2.075 1.934c-8.409 8.066-10.13 8.415-8.498 11.471-3.298 3.301-3.084 3.342-5.319 7.546-9.497-2.151-9.424-2.047-19.078-2.083 50.25-90.933 182.268-69.772 208.009 7.282-7.945-.955-7.836-1.144-15.934-.691l-2.743-2.53c-30.463-51.114-103.555-64.265-154.362-22.929" style="fill:#fdb795" transform="translate(-44.841 -86.629)scale(.29444)"/><path d="M254.824 433.887c35.734-33.508 114.142-41.353 153.04 18.415 1.826 2.806 2.676.039 2.941.043l2.743 2.53c-9.001 2.069-8.707 2.507-16.909 6.893-.208-.194-1.301-.3-2.319-2.157-16.251-29.629-89.421-63.417-138.276-2.554l-1.538 1.43c-7.244-6.091-8.392-4.982-13.955-8.12 2.235-4.204 2.021-4.245 5.319-7.546 3.617-3.417 3.496-3.374 6.924-7.025z" style="fill:#fde182" transform="translate(-44.841 -86.629)scale(.29444)"/><path d="M337.414 442.826c-5.431-.684-41.486-5.225-64.889 21.695-1.235 1.42-1.05 1.417-3.075 4.941l-.254.817c-1.268 1.558-1.032 1.497-1.68 3.292-2.413-.377-2.867.204-3.911-2.128-3.272-7.306-4.871-6.131-9.099-12.956l1.538-1.43c.91-.505.226 1.672 1.196 1.133.351-.195.991-.55 3.407-3.69 7.46-9.694 10.599-9.595 17.716-15.209 16.407-12.941 67.667-25.435 104.304 10.028.994 1.484.734 1.844 2.013 2.011 6.056 6.32 9.177 11.161 9.858 12.216-4.683 5.05-4.37 5.15-8.487 10.644-2.185 2.914-2.912.027-6.703-4.57l-1.79-1.17-.216-.814c-.442-2.687-1.037-2.218-4.861-6.115-1.338-1.322-8.145-8.046-19.081-13.736 2.849-2.129 2.883-2.06 3.077-2.299 1.872-2.303-20.191-10.491-18.018-4.977.597 1.515.168 1.43-1.045 2.317" style="fill:#bce799" transform="translate(-44.841 -86.629)scale(.29444)"/><path d="M217.982 447.565c1.607 1.01 1.596.726 3.491.719 9.654.036 9.581-.068 19.078 2.083 5.563 3.138 6.711 2.029 13.955 8.12 4.228 6.825 5.827 5.65 9.099 12.956 1.044 2.332 1.498 1.751 3.911 2.128l1.68-3.292.254-.817c.204-.196.375.169 2.818-2.155 7.74 1.841 8.106 1.301 14.317-3.673 2.29-1.833 7.276-2.394 7.936-2.468 6.686 1.637 12.22-5.544 17.979-5.198 10.178.611 16.85-3.049 19.952 2.734-30.03-3.465-41.25 11.962-49.95 18.795-6.168-2.854-6.209-3.101-13.028-2.28-4.271.514-5.515 2.347-6.494-.89-5.877-19.426-28.848-26.044-41.47-23.775-33.532 6.027-32.532 29.491-36.999 30.07-36.143 4.678-27.131 37.874-7.852 44.486 10.884 3.733 12.488-4.371 22.122 1.967 15.316 10.075 40.652 5.469 41.597 5.095 11.763-4.665 13.601.897 23.781-6.15 4.576-3.168 4.948-2.075 9.542-.998 15.211 3.564 27.894-8.87 28.38-19.533.806-17.702-8.919-14.712-17.612-25.954.256-.152 1.94-1.147 3.18-1.924 1.761 3.504.993 4.196 4.001 5.457 25.327 10.618 13.059 50.481-18.188 44.647-6.626-1.237-6.381.288-11.014 2.683-6.466 3.342-15.976 2.223-16.874 2.49-38.586 11.44-47.1-6.438-52.089-5.517-45.598 8.418-46.957-42.567-14.008-48.973 6.81-1.324 4.67-3.836 8.185-9.817 7.739-13.169 25.976-18.742 28.629-19.553l1.541-.514z" style="fill:#a0bfd5" transform="translate(-44.841 -86.629)scale(.29444)"/><path d="M217.982 447.565c43.271-84.981 180.589-83.371 215.421 7.932l-1.037.579-2.884-.51c-25.741-77.054-157.759-98.215-208.009-7.282-1.895.007-1.884.291-3.491-.719" style="fill:#f48a6c" transform="translate(-44.841 -86.629)scale(.29444)"/><path d="M256.443 429.416c50.807-41.336 123.899-28.185 154.362 22.929-.265-.004-1.115 2.763-2.941-.043-38.898-59.768-117.306-51.923-153.04-18.415-1.327.663-1.381.482-2.03 1.909-3.428 3.651-3.307 3.608-6.924 7.025-1.632-3.056.089-3.405 8.498-11.471.649-.398.576.691 1.233.287.162-.099 0 0 .842-2.221" style="fill:#f5a761" transform="translate(-44.841 -86.629)scale(.29444)"/><path d="M382.667 449.319c-36.637-35.463-87.897-22.969-104.304-10.028-7.117 5.614-10.256 5.515-17.716 15.209-2.416 3.14-3.056 3.495-3.407 3.69-.97.539-.286-1.638-1.196-1.133 48.855-60.863 122.025-27.075 138.276 2.554 1.018 1.857 2.111 1.963 2.319 2.157l-2.101 1.778c-.681-1.055-3.802-5.896-9.858-12.216z" style="fill:#bacb8b" transform="translate(-44.841 -86.629)scale(.29444)"/><path d="M332.452 458.702c2.814.635 22.853 5.159 31.84 16.924 1.149 1.505-.166 1.213-2.012 2.121-41.488-37.947-74.263-.525-74.631-.136-1.24.777-2.924 1.772-3.18 1.924-.925-1.089-1.8-1.885-1.967-2.038 8.7-6.833 19.92-22.26 49.95-18.795" style="fill:#8b89b9" transform="translate(-44.841 -86.629)scale(.29444)"/><path d="M337.414 442.826c2.085.391 3.256-.258 15.986 4.959 10.936 5.69 17.743 12.414 19.081 13.736l-.877-.132c-1.703-.385-1.598-.293-1.703-.385-16.426-14.395-34.463-15.694-41.374-16.793-3.456-.021-27.888-.168-41.927 10.418-7.724 5.824-7.582 5.856-14.332 12.678-2.443 2.324-2.614 1.959-2.818 2.155 2.025-3.524 1.84-3.521 3.075-4.941 23.403-26.92 59.458-22.379 64.889-21.695" style="fill:#91adb9" transform="translate(-44.841 -86.629)scale(.29444)"/><path d="M337.414 442.826c1.213-.887 1.642-.802 1.045-2.317-2.173-5.514 19.89 2.674 18.018 4.977-.194.239-.228.17-3.077 2.299-12.73-5.217-13.901-4.568-15.986-4.959" style="fill:#def1c5" transform="translate(-44.841 -86.629)scale(.29444)"/><path d="M362.432 398.689c.777.295 17.304 6.567 8.039 6.57-2.116 0-2.039-.351-16.843-6.003-2.204-.841-1.66-3.417.874-2.825z" style="fill:#fdd9bd" transform="translate(-44.841 -86.629)scale(.29444)"/><path d="m356.103 419.697-.437.871c-11.52 1.794-17.406-6.805-12.175-6.224 7.795.865 11.81 4.606 12.612 5.353" style="fill:#fef4ce" transform="translate(-44.841 -86.629)scale(.29444)"/><path d="m203.76 410.606.67-.346c2.635.735-.714 5.077 4.324 5.811 1.93.281 2.805.042 2.126 1.757l-1.888.142c-.663.424-1.496.532-2.159.957-.667.427-2.254 7.098-2.998 4.397-.782-2.84.086-3.26-2.248-4.989l-.375-2.181c2.902-1.666 2.236-2.154 2.548-5.548" style="fill:#fde093" transform="translate(-44.841 -86.629)scale(.29444)"/><path d="M454.965 441.071c-1.024-5.976-2.988-4.221-4.318-4.771-2.169-.896 3.598-2.181 3.882-3.773.027-.153 1.181-6.637 1.736-.859.381 3.966 9.601 4.018 4.128 4.604-4.589.491-2.619 2.811-4.373 4.813z" style="fill:#fcdb86" transform="translate(-44.841 -86.629)scale(.29444)"/><path d="M211.762 436.188c-3.376-1.427-1.312-2.331-.013-3.439 2.038-1.739 2.072.382 4.633.953 2.711.604-2.962 4.178-4.62 2.486" style="fill:#fddb86" transform="translate(-44.841 -86.629)scale(.29444)"/><path d="M487.398 543.553c-10.222 1.781-4.041-5.299-4.013-5.285 1.521.776.49 2.886 1.291 2.753 1.785-.295 2.128-2.088 2.692-.485.334.949-.304 2.068.03 3.017" style="fill:#fcf8fb" transform="translate(-44.841 -86.629)scale(.29444)"/><path d="M471.589 462.417c-1.42-1.099-1.906-1.233-.888-2.712 2.013-2.927 2.235-2.953 2.415-2.724 3.101 3.957 3.853 3.101 3.868 3.519.094 2.592-2.074.934-3.438 3.044-.993-.672-1.008-.457-1.957-1.127" style="fill:#fddf95" transform="translate(-44.841 -86.629)scale(.29444)"/><path d="m186.537 443.549.96.004c1.217.107 1.168.092 1.952.99l-.236.887c-.1.235-1.908 4.529-2.544 1.936-.464-1.89-4.436-1.503-2.769-2.519.201-.122.196-.096 2.637-1.298" style="fill:#fce7af" transform="translate(-44.841 -86.629)scale(.29444)"/><path d="m371.604 461.389.877.132c3.824 3.897 4.419 3.428 4.861 6.115-2.198-.881-5.232-5.717-5.738-6.247" style="fill:#88b29d" transform="translate(-44.841 -86.629)scale(.29444)"/><path d="m201.212 416.154.375 2.181c-3.421-.151-4.096.469-4.106-.834-.011-1.433.625-.813 3.731-1.347" style="fill:#fce9b7" transform="translate(-44.841 -86.629)scale(.29444)"/><path d="M471.589 462.417c.949.67.964.455 1.957 1.127-1.02 1.401-1.373.517-1.957-1.127" style="fill:#fdeac2" transform="translate(-44.841 -86.629)scale(.29444)"/><path d="m269.196 470.279-1.68 3.292c.648-1.795.412-1.734 1.68-3.292" style="fill:#84b2b7" transform="translate(-44.841 -86.629)scale(.29444)"/><path d="M256.443 429.416c-.842 2.221-.68 2.122-.842 2.221-.657.404-.584-.685-1.233-.287z" style="fill:#f4a66d" transform="translate(-44.841 -86.629)scale(.29444)"/><path d="m254.824 433.887-2.03 1.909c.649-1.427.703-1.246 2.03-1.909" style="fill:#f6bd63" transform="translate(-44.841 -86.629)scale(.29444)"/><path d="m382.667 449.319 2.013 2.011c-1.279-.167-1.019-.527-2.013-2.011" style="fill:#c1da90" transform="translate(-44.841 -86.629)scale(.29444)"/><path d="M377.558 468.45" style="fill:#83ab9f" transform="translate(-44.841 -86.629)scale(.29444)"/><path d="m208.992 417.97 1.888-.142c-1 .262-.912.263-1.888.142" style="fill:#fef4de" transform="translate(-44.841 -86.629)scale(.29444)"/></svg>