<svg xmlns="http://www.w3.org/2000/svg" xml:space="preserve" style="fill-rule:evenodd;clip-rule:evenodd;stroke-linejoin:round;stroke-miterlimit:2" viewBox="0 0 100 100"><path d="M843.404 244.282c-96.191 29.516-125.668-93.136-45.947-117.919 64.159-19.945 115.163 57.05 66.691 104.768-6.734 6.63-18.962 12.322-20.744 13.151" style="fill:#f5b458" transform="translate(-345.935 -38.543)scale(.4841)"/><path d="M832.589 129.133c83.395 24.324 44.715 138.222-38.18 111.687-7.217-2.31-42.558-18.263-39.137-59.343 2.597-31.185 28.921-52.51 57.247-53.748 10.11-.442 9.97.256 20.07 1.404" style="fill:#fdd96b" transform="translate(-345.935 -38.543)scale(.4841)"/><path d="M785.392 188.897c12.786 6.504 1.853 8.698 1.15 8.781-12.414 1.47-14.139-5.623-8.94-7.985 3.68-1.673 3.726-.961 7.79-.796" style="fill:#fcb484" transform="translate(-345.935 -38.543)scale(.4841)"/><path d="M858.645 160.414c-4.904-8.474-5.384-7.964-11.569-15.599-9.237-11.401 13.628.714 15.291 15.659a84 84 0 0 0-3.722-.06" style="fill:#fdf3c7" transform="translate(-345.935 -38.543)scale(.4841)"/><path d="M850.463 188.31c11.148-.144 9.636 7.044 3.908 8.728-7.684 2.26-14.312-4.73-3.908-8.728" style="fill:#fcb085" transform="translate(-345.935 -38.543)scale(.4841)"/><path d="M817.5 195.806c3.808-.566 4.329.327 6.544-2.745 5.577-7.731 3.039 5.03-2.5 6.563-12.848 3.554-16.164-14.7-11.122-8.068 2.639 3.471 2.663 3.511 7.078 4.25" style="fill:#d76442" transform="translate(-345.935 -38.543)scale(.4841)"/><path d="M798.079 180.447c-3.859 11.31-13.925-1.169-6.506-5.816 5.16-3.232 6.403 5.125 6.506 5.816" style="fill:#8c432d" transform="translate(-345.935 -38.543)scale(.4841)"/><path d="M716.226 185.656c-.571-3.14-.76-3.884 2.373-4.684.504-.129 16.33 1.824 17.748 1.999 16.708 2.061-9.029 2.629-9.844 2.647-5.689.126-6.355 3.988-10.277.038" style="fill:#fddb7e" transform="translate(-345.935 -38.543)scale(.4841)"/><path d="M846.727 179.497c-2.422 12.496-12.767 2.13-7.871-3.71.523-.624 6.355-5.2 7.871 3.71" style="fill:#7a3d2a" transform="translate(-345.935 -38.543)scale(.4841)"/><path d="M750.104 251.388c-3.886 7.282-9.88-2.064-4.562-3.783 6.502-2.101 13.858-11.967 14.069-8.124.074 1.355-5.788 4.648-9.507 11.907" style="fill:#fddc79" transform="translate(-345.935 -38.543)scale(.4841)"/><path d="M885.706 252.249c.348.287 10.375 8.513 1.744 5.365-.028-.01-18.664-16.146-18.184-18.253.497-2.179 2.569.01 16.44 12.888" style="fill:#fdda72" transform="translate(-345.935 -38.543)scale(.4841)"/><path d="M916.587 198.046c-20.125-3.511-20.86-2.681-21.656-4.614-.691-1.678.898-2.554 22.617 1.754.49.097 5.48 3.305-.961 2.86" style="fill:#fdd779" transform="translate(-345.935 -38.543)scale(.4841)"/><path d="M751.234 124.69c.831.776 19.283 18.022 8.501 11.391-1.209-.743-.434-1.744-14.102-10.764-1.651-1.089-1.41-3.295-.249-3.973 3.526-2.059 3.313.114 5.85 3.346" style="fill:#fcd673" transform="translate(-345.935 -38.543)scale(.4841)"/><path d="M885.617 140.663c1.278-.784 15.829-9.716 15.994-9.783 10.349-4.25-9.573 9.851-18.25 14.28-19.462 9.934 1.917-4.279 2.256-4.497" style="fill:#fcdc74" transform="translate(-345.935 -38.543)scale(.4841)"/><path d="M866.553 112.602c-5.412 3.188-10.376 13.911-9.868 7.909.09-1.066 1.585-.317 6.19-11.86 2.085-5.226 9.139-.077 3.678 3.951" style="fill:#fdd976" transform="translate(-345.935 -38.543)scale(.4841)"/><path d="M724.456 222.422c-14.804 5.567.847-3.58 1.136-3.691 3.645-1.4 21.569-10.031 15.862-4.27-1.057 1.066-1.157.877-16.998 7.961" style="fill:#fcda76" transform="translate(-345.935 -38.543)scale(.4841)"/><path d="M915.499 165.837c-18.406 3.025-19.62 3.048-19.344 1.521.204-1.13 21.348-4.916 21.365-4.911.304.086 3.909 2.162-2.021 3.39" style="fill:#fddd7b" transform="translate(-345.935 -38.543)scale(.4841)"/><path d="M858.74 213.582c-.811 1.065-9.021 13.62-11.82 6.834-.878-2.128 3.206-3.67 3.598-3.818 2.531-.955 3.979-7.651 8.222-3.016" style="fill:#fde188" transform="translate(-345.935 -38.543)scale(.4841)"/><path d="M847.394 259.549c-4.336-14.257 8.851 10.371 7.711 12.793-2.014 4.279-3.842-2.44-7.711-12.793" style="fill:#fdd773" transform="translate(-345.935 -38.543)scale(.4841)"/><path d="M780.06 264.254c-.324.569-5.834 10.251-6.301 5.217-.207-2.235 18.516-29.579 6.301-5.217" style="fill:#fdda79" transform="translate(-345.935 -38.543)scale(.4841)"/><path d="M729.589 150.343c-5.782-8.286 14.092 4.185 15.172 4.863 22.364 14.035-14.033-4.29-15.172-4.863" style="fill:#fcd878" transform="translate(-345.935 -38.543)scale(.4841)"/><path d="M819.932 96.518c2.551-16.451 3.582 14.817.633 15.205-2.337.307-1.321-6.68-.633-15.205" style="fill:#fbd478" transform="translate(-345.935 -38.543)scale(.4841)"/><path d="M897.56 220.371c.427.202 27.663 15.609 3.752 4.561-9.917-4.583-11.605-3.649-11.138-6.6.096-.606.521-.947 7.386 2.039" style="fill:#fdd875" transform="translate(-345.935 -38.543)scale(.4841)"/><path d="M811.704 274.506c.047-1.037.575-12.562.879-12.949 3.622-4.615 2.927 23.476-.879 12.949" style="fill:#fdd976" transform="translate(-345.935 -38.543)scale(.4841)"/><path d="M783.346 115.572c4.03 12.682-11.831-11.032-5.806-9.167.736.228.588.442 5.806 9.167" style="fill:#fddb71" transform="translate(-345.935 -38.543)scale(.4841)"/><path d="M841.316 159.443c3.059.894 3.066.698 3.303.832 6.093 3.443-.606 3.38-1.856 4.577-5.137 4.923-3.399-2.613-1.447-5.409" style="fill:#fee073" transform="translate(-345.935 -38.543)scale(.4841)"/><path d="M837.478 143.297c-.73-.216-7.841-2.315-8.28-4.686-.755-4.082 9.917-1.478 8.28 4.686" style="fill:#feeda6" transform="translate(-345.935 -38.543)scale(.4841)"/><path d="M858.645 160.414a84 84 0 0 1 3.722.06c1.406 2.888 1.324 3.724 1.29 4.063-.051.517-5.526 6.286-5.012-4.123" style="fill:#fce696" transform="translate(-345.935 -38.543)scale(.4841)"/></svg>