<svg xmlns="http://www.w3.org/2000/svg" xml:space="preserve" style="fill-rule:evenodd;clip-rule:evenodd;stroke-linejoin:round;stroke-miterlimit:2" viewBox="0 0 603 870"><path d="M510.848 228.459c3.952-1.598 1.699-3.089 2.99-8.855 5.457-24.374 34.399-48.739 36.324-42.987 7.765 23.2 15.635 29.044 34.342 38.379 4.513 2.252.3-2.441.161-2.595-3.657-4.075-8.146-19.753-7.304-19.995 2.614-.754.682 5.858 11.552 14.601 11.605 9.334 22.926 13.862 16.536 7.529-6.888-6.825-10.605-29.299-6.854-20.143 6.758 16.496 28.25 22.771 29.947 23.453 6.874 2.763-2.335-2.094-6.794-14.445-.193-.536-7.704-21.346.015-7.122 7.696 14.183 41.332 32.353 69.768 23.322 2.808-.891 4.018-1.98 4.478.975 7.257 46.605 33.288 70.538 42.532 69.546 3.015-.323 4.094-1.54 4.02.369-.167 4.279-10.94-2.191-13.186 13.99-.405 2.923-5.447 39.254-.934 36.875.454-.239 16.503-21.95 39.099-13.958 32.518 11.501 13.498 74.951-30.057 69.208-4.189-.553-9.173-2.459-10.013-2.375-.451.045-.961.095-4.245 3.742l-.72.559c-1.1.653-1.115.5-1.722 1.208-5.611 6.539-3.038 13.89-2.802 15.366-2.313 1.092-2.28 1.144-2.498 1.179-28.595 4.615-36.385 17.788-54.057 26.053-59.701 27.92-69.401-3.28-64.008-10.448 37.26 7.296 77.21-7.273 78.883-8.629 6.766-5.48-13.058 3.894-32.794 5.33-34.848 2.535-36.808-2.604-47.145-2.153-7.603-5.737-24.181.116-59.465-28.405-24.57-19.861-22.671-48.899-22.368-53.531 1.114-17.028 8.369-29.748 6.611-35.91-15.428-54.07-8.058-60.729-10.292-80.133" style="fill:#fdc0a3" transform="translate(-306 -92)"/><path d="M801.544 622.368c12.791 4.361 46.954 16.002 57.57 41.299 3.907 9.31 19.771 189.614 21.5 204.792-3.463 2.29-1.653 3.622-4.392 6.814-25.996 30.296-144.483 44.591-234.613 34.81l-1.307-.197c2.08-12.04 1.501-52.256-11.592-91.456-3.915-11.721-13.512-35.848-14.583-42.542 7.169-1.895 29.071 6.263 90.342-2.608 45.161-6.538 127.333-39.78 134.766-92.835 2.015-14.382-4.717-31.036-13.188-38.558-21.904-19.446-23.982-16.429-24.579-17.199-.113-.147.006-.172.076-2.32" style="fill:#f8e6d8" transform="translate(-306 -92)"/><path d="M510.848 228.459c.056-1.578-2.744-50.689 32.901-72.533 3.733-2.287 7.775-2.412 4.036-4.77-10.7-6.746-11.177-18.446-9.323-17.504 1.089.552 1.657 2.357 9.18 5.513 1.487.624 7.016 2.944 19.879 3.396 5.325.187-1.716-1.176-7.773-8.265-6.081-7.119-6.862-22.202-2.852-15.185 10.548 18.459 56.991 6.086 92.61 5.718 54.173-.559 57.656 8.229 57.292 3.651-.563-7.094-13.597-14.411-15.094-15.251-7.568-4.249 17.503.626 27.473 7.75 1.038.742 11.19 10.706 6.087 2.643-6.691-10.573-9.034-9.108-8.721-10.131.138-.449.512-1.19.956-1.036 1.514.525 22.239 11.842 33.549 27.394 9.725 13.372 8.353 17.535 12.182 15.183 14.337-8.808 5.032-16.214 8.426-18.096.715-.396 15.309 13.686 7.443 27.337-3.194 5.541 17.895 7.398 38.901 43.505 43.792 75.271-1.449 184.286-73.55 191.33-2.013.196-7.064.832-20.91-.808l-.315-.327c3.284-3.647 3.794-3.697 4.245-3.742.84-.084 5.824 1.822 10.013 2.375 43.555 5.743 62.575-57.707 30.057-69.208-22.596-7.992-38.645 13.719-39.099 13.958-4.513 2.379.529-33.952.934-36.875 2.246-16.181 13.019-9.711 13.186-13.99.074-1.909-1.005-.692-4.02-.369-9.244.992-35.275-22.941-42.532-69.546-.46-2.955-1.67-1.866-4.478-.975-28.436 9.031-62.072-9.139-69.768-23.322-7.719-14.224-.208 6.586-.015 7.122 4.459 12.351 13.668 17.208 6.794 14.445-1.697-.682-23.189-6.957-29.947-23.453-3.751-9.156-.034 13.318 6.854 20.143 6.39 6.333-4.931 1.805-16.536-7.529-10.87-8.743-8.938-15.355-11.552-14.601-.842.242 3.647 15.92 7.304 19.995.139.154 4.352 4.847-.161 2.595-18.707-9.335-26.577-15.179-34.342-38.379-1.925-5.752-30.867 18.613-36.324 42.987-1.291 5.766.962 7.257-2.99 8.855" style="fill:#d57f5e" transform="translate(-306 -92)"/><path d="M739.441 437.706c4.699 1.127 4.68.917 8.847 3.161 3.441 2.055 3.045 2.468 6.602 4.444 29.606 33.274 35.633 67.439 43.268 176.241.337 4.58.33 4.551.364 4.947.086.987.17.887.26 1.93.068 3.582.121 3.508.322 7.093 2.659 47.379 2.896 50.128-8.404 56.17-5.757.087-32.796.495-69.446-18.883 7.554-16.404 49.121-43.518 54.526-119.292.313-4.389 1.676-13.921-1.05-11.842-1.68 1.28 1.989 4.584-9.918 38.943-6.702 19.342-7.89 19.828-9.385 19.024-.242-.13-.012-.357-2.557-2.283-1.519-2.453-1.472-2.466-1.641-2.649-9.887-10.722-23.471-23.981-48.748-27.023-21.564-2.595-21.369 2.718-21.305 4.458-3.611 4.214-2.563 4.756-5.204 9.626-3.169 6.295-3.272 6.147-4.508 7.678-5.438 3.862-11.05 7.915-35.814 19.354-.622-.575-.509-2.703-6.119-.185-23.213 10.417-23.445 10.16-35.177 19.724-2.378 1.938-3.918 2.72-3.763 3.158.194.549.783.899.978 1.448-10.678 2.722-10.281 3.891-21.07 6.268l-8.991-.92c-5.391-.741-21.078-2.781-28.54-12.084-1.13-10.485 10.747-48.623 9.3-57.617 2.968-1.874 1.837-2.605 2.608-6.006 9.611-42.417 10.326-43.681 12.242-47.068.295 3.019.571 25.083 11.503 37.871 14.129 16.527 45.732 21.457 76.365-12.426 34.715-38.397 64.707-106.631 94.455-103.26" style="fill:#fefaee" transform="translate(-306 -92)"/><path d="M598.384 631.415c.001 0 .363 1.604 2.089 1.249.538-.11 10.633-.175 18.088 2.648 18.121 6.86 28.853 20.86 30.317 32.313.573 7.239-1.013 6.933-1.692 8.357l-.689.452c-15.276 4.815-15.65.603-19.96 1.456-2.32.458-2.993 3.058-1.035 3.606 19.196 5.375 34.326 6.976 58.851-.427 3.253-.981 3.149-1.049 6.199-2.695l1.153.88c30.541 39.008 25.929 56.31 36.804 70.29-28.647 9.876-64.324 12.557-70.004 12.984 2.196-3.432 32.386-28.419 15.91-20.241-9.279 4.605-47.023 11.771-72.746 2.717-9.556-3.363-7.897-7.21-11.522-11.039-4.499-4.751 2.028 7.448 2.392 9.528 2.338 13.336 1.808 19.098 1.91 19.273.172.295.831-.08 1.003.216-1.915 4.084-1.191 4.183-1.259 8.626 9.221 1.701 9.141 1.529 18.372 2.804l1.562 1.476c1.071 6.694 10.668 30.821 14.583 42.542 13.093 39.2 13.672 79.416 11.592 91.456-5.211-.404-38.306-2.969-64.584-9.842-.967-8.357 1.325-8.299.383-18.674-.014-.155.029-.141.387-1.902 5.625-1.265 5.559-1.224 11.043-2.856 4.35-1.592 28.577-7.597 29.795-27.122.813-13.027-5.89-21.148-14.203-37.85.6-2.653.43-2.572 1.173-5.187 3.387-11.914-9.961-24.576-13.196-20.307-2.828 3.733-2.168 4.192-5.669 7.24-2.252 1.295-9.195 5.288-31.946 5.841-39.315.957-54.913-9.498-59.135-11.517.276-.615 1.343-.595 1.62-1.21.134-.298-5.08-7.363-5.542-7.989l.094-5.014c4.067-34.813 3.977-35.052 2.902-37.896.079-.283 2.012-1.384-.083-3.765.279-.265.877.293 1.157.027 2.426-2.304 2.92-48.62 34.914-66.524 15.231-8.524 27.888-9.379 28.696-11.037 3.678-7.55 4.205-7.132 10.329-12.881 1.119-1.051 1.103-.912 2.062-2.205 10.789-2.377 10.392-3.546 21.07-6.268 3.708-.532 3.804-.038 6.815-1.533" style="fill:#fac4aa" transform="translate(-306 -92)"/><path d="m366.253 744.255 1.316 2.202c-1.532 1.707-1.636 1.838-.961 4.024.1.322-.078.672-.062 1.008.009.179.247.002 1.077 1.966.426 1.007 3.336 7.892 7.31 11.548.462.425.654.341.712.316.849-.369.408-.803 1.201-1.147 4.273 3.718 3.915 4.1 8.847 6.947-.004.136-2.062 1.822 6.029 6.08 5.056 2.66 32.791 17.255 68.782 19.216 3.821.209 4.187-.164 5.349-3.786.623-1.942 1.289-2.849 1.488-3.207.657-1.182.389-1.216.172-2.561 4.435-1.597 2.668-3.226 5.038-7.335.12.302-.593.552-.472.855.168.42.711.087 2.71 4.972 10.863 26.55 91.877 24.263 110.44 11.787 2.663-1.79.794-2.783.202-3.754 3.501-3.048 2.841-3.507 5.669-7.24 3.235-4.269 16.583 8.393 13.196 20.307-.743 2.615-.573 2.534-1.173 5.187-5.644-.256-5.559 5.18-24.707 9.47-4.758 1.066-23.746 2.283-19.964 8.426 4.855 7.886 36.799-2.713 40.202-1.501 8.339 2.97 25.385 22.28 4.565 36.091-8.291 5.5-33.378 4.996-26.714 7.367.692.246 7.054-.001 8.497 2.314.611.98.804 2.227 1.577 3.085.222.245.731-.526.952-.28-5.484 1.632-5.418 1.591-11.043 2.856-13.875 1.792-47.127 8.128-91.18-8.504-7.829-2.956-10.879-5.286-17.353-8.844-1.531-1.27-4.337-2.143-9.425-9.689l-1.061-.414c.105-1.347.617-1.277.199-2.558-3.945-12.093 5.14-16.934.777-17.737-13.595-2.501-19.716-7.171-29.159-11.741-.637-.308-13.991-5.372-4.171 7.796 8.535 11.444-8.262 9.636-19.547 8.313-8.98-1.053-13.586-2.722-14.096-2.768-13.098-1.186-13.523-4.123-20.198-.417-1.447-.79-1.396-.681-2.763-1.417-36.599-17.893-46.394-39.537-23.694-53.519.694 1.179 1.197.815 1.509 2.564 2.469 13.827 38.673 33.411 42.99 30.652.693-.443 2.449-2.331-6.79-7.73-33.54-19.601-31.039-24.062-36.613-26.859-4.797-21.12.67-25.627 20.34-32.341" style="fill:#ec615b" transform="translate(-306 -92)"/><path d="M717.981 415.106c2.639 1.746 26.885 2.255 36.909 30.205-3.557-1.976-3.161-2.389-6.602-4.444.192-1.043 1.083-.397 1.272-1.427.124-.676-.472.411-1.01 0-.629-.482-.208-.747-.881-1.186-4.206-2.745-7.649-.864-8.228-.548-29.748-3.371-59.74 64.863-94.455 103.26-30.633 33.883-62.236 28.953-76.365 12.426-10.932-12.788-11.208-34.852-11.503-37.871l.237-8.032c4.135-33.981 11.044-46.952 15.331-57.914 1.031-2.635 1.78-2.657.588-5.274 13.568-14.158 12.936-16.099 22.147-16.924 1.104 2.745 1.114 2.835 1.144 3.097.099.888.396.658.853 1.416-5.393 7.168 4.307 38.368 64.008 10.448 17.672-8.265 25.462-21.438 54.057-26.053.218-.035.185-.087 2.498-1.179" style="fill:#fa9b9a" transform="translate(-306 -92)"/><path d="M464.208 613.209c.906.49.308.973 1.292 1.505.073.04.091.049 1-.266 4.969-1.72 4.986-.292 10.173.568 17.589 2.917 17.424 3.423 33.823 10.239.954.397.926.099 1.947.207-.267 3.639-.253 3.617-.289 3.93-1.079 9.545-11.751 10.019-17.702 7.191-4.453-2.116 4.7-6.677 1.03-6.942-9.376-.675-26.039 31.015-38.649 19.86.081-14.339 18.871-23.788 13.622-23.731-7.357.08-19.452 23.153-21.324 24.306-2.198 1.354-8.432 1.405-5.388 2.94 2.614 1.318 10.971-.889 11.895-1.133 17.52 9.849 26.005-13.3 34.843-12.178 2.879.366 24.35 5.732 24.997-9.208 1.146-.636 1.049-.596 1.146-.636 4.982-2.045 5.405-.259 16.344-3.649 7.462 9.303 23.149 11.343 28.54 12.084-1.38 2.855-1.49 2.709-3.759 6.349-4.001 6.418-2.879 8.079-10.155 10.212-46.363 13.588-40.99 36.576-58.111 39.543-12.205 2.115-19.63-4.092-18.479 3.165 7.029 44.322-9.463 56.265-10.627 66.631-4.149.727-34.58.632-60.586-14.184-25.266-14.396-9.757-28.023-15.279-29.088 3.867-1.763 1.981-5.85 10.42-34.292 14.29-48.156 37.888-59.995 41.938-63.764 7.178-6.677 24.128-7.674 27.338-9.659" style="fill:#fcc1a4" transform="translate(-306 -92)"/><path d="M681.176 572.145c17.247 1.023 17.179 1.499 19.375 1.876 33.267 5.706 39.735 24.848 46.606 36.373-18.063 37.275-48.136 51.877-52.967 54.607-4.335 2.003-4.213 1.997-8.488 3.922-1.309.588-1.219.605-2.539 1.194-13.386 3.062-14.631 7.943-35.602 6.167l-.375-.302c.679-1.424 2.265-1.118 1.692-8.357-1.464-11.453-12.196-25.453-30.317-32.313-7.455-2.823-17.55-2.758-18.088-2.648-1.726.355-2.088-1.249-2.089-1.249.844-.908.498-5.794 37.266-22.612 24.764-11.439 30.376-15.492 35.814-19.354 1.236-1.531 1.339-1.383 4.508-7.678 2.641-4.87 1.593-5.412 5.204-9.626" style="fill:#fdc9ae" transform="translate(-306 -92)"/><path d="M467.955 862.12c6.474 3.558 9.524 5.888 17.353 8.844 44.053 16.632 77.305 10.296 91.18 8.504-.358 1.761-.401 1.747-.387 1.902.942 10.375-1.35 10.317-.383 18.674-5.607 8.546-3.038 10.034-9.722 17.821-1.754 2.044-1.278 2.295-1.665 2.991-5.292.807-4.656 2.524-10.937 4.274-10.877 3.03-20.603 2.199-27.871 2.058-.661-.005-5.793.183-14.004-.099-12.338-.422-36.599 9.386-52.102-.368.727-2.598.539-2.55.743-5.238.723-9.488 10.533-9.037 11.237-10.042 2.724-3.889-19.302-1.987-14.023 14.42-8.418.141-8.229-.852-15.93-4.112-7.989-.842-8.105-.772-14.218-4.843 4.98-6.521 1.999-11.091 9.463-14.099 6.922-2.79-.978-2.249-1.167-2.187-7.631 2.529-8.166 8.512-8.798 11.9-.192 1.029.35.96.193 1.98-.084.55-.763.888-.847 1.438-9.953-6.904-17.811-6.586-19.541-14.444-2.504-11.379 11.234-13.106 12.246-13.515 7.518-1.86 7.707-1.475 16.356-6.946 4.021-2.549 3.956-2.492 8.084-4.994 17.969-10.894 19.963-7.916 24.74-13.919" style="fill:#fcc1a4" transform="translate(-306 -92)"/><path d="M880.614 868.459c1.376 20.371 1.757 20.336 1.102 23.098-4.946 20.85-100.693 51.308-238.192 42.525l-7.049-1.165c.164-.279 1.124-.333 1.325-2.257 1.754-16.77 2.353-16.636 2.387-18.095.053-2.259 1.22-2.129 1.422-2.482 90.13 9.781 208.617-4.514 234.613-34.81 2.739-3.192.929-4.524 4.392-6.814" style="fill:#fdbb9f" transform="translate(-306 -92)"/><path d="M694.19 665.001c.599.213.751 1.134 1.35 1.347.918.326 1.004-.22 12.037 1.842 6.904 2.313 6.815 2.283 13.677 4.619 36.65 19.378 63.689 18.97 69.446 18.883 1.303 18.629-1.496 18.267-6.103 31.897-11.635 9.325-34.637 19.561-56.088 25.955-10.875-13.98-6.263-31.282-36.804-70.29l-1.153-.88c-2.501-3.36-6.76-7.552-7.389-8.257 1.32-.589 1.23-.606 2.539-1.194 4.275-1.925 4.153-1.919 8.488-3.922" style="fill:#f0a87b" transform="translate(-306 -92)"/><path d="m798.158 621.552 3.386.816c-.07 2.148-.189 2.173-.076 2.32.597.77 2.675-2.247 24.579 17.199 8.471 7.522 15.203 24.176 13.188 38.558-7.433 53.055-89.605 86.297-134.766 92.835-61.271 8.871-83.173.713-90.342 2.608l-1.562-1.476c.083-.839-.393-.795-1.062-10.477 3.761.048 35.304.455 47.002-1.407 5.68-.427 41.357-3.108 70.004-12.984 21.451-6.394 44.453-16.63 56.088-25.955 9.083-2.305 32.803-24.366 39.43-39.323 18.689-42.178-21.129-53.268-25.245-55.837-.09-1.043-.174-.943-.26-1.93-.034-.396-.027-.367-.364-4.947" style="fill:#fdf4ec" transform="translate(-306 -92)"/><path d="M384.512 720.924c5.522 1.065-9.987 14.692 15.279 29.088 26.006 14.816 56.437 14.911 60.586 14.184 24.276 3.251 27.968-30.432 28.451-32.191 2.413 1.744 2.405 1.638 4.596 3.596 1.075 2.844 1.165 3.083-2.902 37.896-10.154-.514-11.945-2.385-17.971 6.029-2.37 4.109-.603 5.738-5.038 7.335-1.264.216-6.279 1.073-16.024.558-31.276-.409-50.815-7.494-65.796-16.3-4.932-2.847-4.574-3.229-8.847-6.947-8.842-8.936-8.981-16.64-9.277-17.715l-1.316-2.202c2.345-10.48.345-21.325 18.259-23.331" style="fill:#ea7f7f" transform="translate(-306 -92)"/><path d="M368.511 831.488c1.367.736 1.316.627 2.763 1.417l.411.252c3.165 4.771 5.872 3.692 30.697 16.607 1.739.904 21.384 11.125 17.966 16.658-4.118 6.665-8.94 4.35-9.865 9.471-4.396.841-4.234 1.054-8.075 3.273-16.609 6.417-27.263 10.682-40.89 3.054.96-6.221.72-6.222.841-6.753 2.253-9.837 19.295-11.148 9.12-10.776-8.057.295-17.38 9.293-11.996 17.606-7.515 1.092-7.626 1.201-14.045-1.625-2.751-1.21-3.458 1.123-13.064-3.888-12.358-3.541-9.576-12.346-3.681-17.045 5.069-4.04 38.331-26.633 39.818-28.251" style="fill:#fcc0a3" transform="translate(-306 -92)"/><path d="M515.24 551.743c2.103-.775 3.837-2.081 11.288 2.706l1.114.852c4.09 4.589 5.617 12.994 5.837 14.202 1.136 6.249-5.627 34.361-21.036 55.959-1.021-.108-.993.19-1.947-.207-16.399-6.816-16.234-7.322-33.823-10.239-5.187-.86-5.204-2.288-10.173-.568-.909.315-.927.306-1 .266-.984-.532-.386-1.015-1.292-1.505 7.524-8.918 48.345-51.766 51.032-61.466" style="fill:#fdc7ac" transform="translate(-306 -92)"/><path d="M414.543 581.545c.61-.602 3.889-3.838 5.494-9.189 5.753-19.179-6.771-31.272-9.815-34.612-26.862-29.475-14.477-48.134-4.128-69.434 10.98-22.597 2.206-39.817-2.972-44.547-10.126-9.249 19.243 1.597 20.673 30.712.957 19.485-6.475 29.036-8.902 33.255-21.561 37.494 18.204 40.942 15.968 72.804-1.213 17.277-18.067 25.966-20.363 26.09-3.709.201-.038-1.85 4.045-5.079" style="fill:#fdd8c3" transform="translate(-306 -92)"/><path d="M798.782 628.429c4.116 2.569 43.934 13.659 25.245 55.837-6.627 14.957-30.347 37.018-39.43 39.323 4.607-13.63 7.406-13.268 6.103-31.897 11.3-6.042 11.063-8.791 8.404-56.17-.201-3.585-.254-3.511-.322-7.093" style="fill:#dfcdc2" transform="translate(-306 -92)"/><path d="m561.508 638.296 8.991.92c-.959 1.293-.943 1.154-2.062 2.205-6.124 5.749-6.651 5.331-10.329 12.881-.808 1.658-13.465 2.513-28.696 11.037-31.994 17.904-32.488 64.22-34.914 66.524-.28.266-.878-.292-1.157-.027-2.939-1.495-4.73-3.063-4.513.169-.483 1.759-4.175 35.442-28.451 32.191 1.164-10.366 17.656-22.309 10.627-66.631-1.151-7.257 6.274-1.05 18.479-3.165 17.121-2.967 11.748-25.955 58.111-39.543 7.276-2.133 6.154-3.794 10.155-10.212 2.269-3.64 2.379-3.494 3.759-6.349" style="fill:#eca78a" transform="translate(-306 -92)"/><path d="M752.87 597.359c2.545 1.926 2.315 2.153 2.557 2.283 1.495.804 2.683.318 9.385-19.024 11.907-34.359 8.238-37.663 9.918-38.943 2.726-2.079 1.363 7.453 1.05 11.842-5.405 75.774-46.972 102.888-54.526 119.292-6.862-2.336-6.773-2.306-13.677-4.619-11.033-2.062-11.119-1.516-12.037-1.842-.599-.213-.751-1.134-1.35-1.347 4.831-2.73 34.904-17.332 52.967-54.607 4.117-6.309 4.196-6.224 4.55-6.772 1.393-3.075 1.832-3.027 1.163-6.263" style="fill:#fcf4df" transform="translate(-306 -92)"/><path d="M573.274 444.301c1.192 2.617.443 2.639-.588 5.274-4.287 10.962-11.196 23.933-15.331 57.914-10.562 14.285-9.523 46.435-23.879 48.163-1.422.171-2.209 1.105-2.226 1.113-.916-1.034-.833-.961-.916-1.034-.361-.317-.448.042-.805-.272-1.355-.893-1.361-.726-3.001-1.01-7.451-4.787-9.185-3.481-11.288-2.706-2.697-6.452 2.505-5.426 18.865-35.455 12.038-22.096 27.177-57.816 39.169-71.987" style="fill:#fefaee" transform="translate(-306 -92)"/><path d="M575.718 900.044c26.278 6.873 59.373 9.438 64.584 9.842l1.307.197c-.202.353-1.369.223-1.422 2.482-.034 1.459-.633 1.325-2.387 18.095-.201 1.924-1.161 1.978-1.325 2.257-32.293-3.35-43.782-4.669-72.144-12.061.387-.696-.089-.947 1.665-2.991 6.684-7.787 4.115-9.275 9.722-17.821" style="fill:#f6b297" transform="translate(-306 -92)"/><path d="M371.274 832.905c6.675-3.706 7.1-.769 20.198.417.51.046 5.116 1.715 14.096 2.768 11.285 1.323 28.082 3.131 19.547-8.313-9.82-13.168 3.534-8.104 4.171-7.796 9.443 4.57 15.564 9.24 29.159 11.741 4.363.803-4.722 5.644-.777 17.737.418 1.281-.094 1.211-.199 2.558-22.347-.512-35.526-2.644-58.095-9.169-1.896-.568-6.27-.888-27.689-9.691z" style="fill:#ce4b47" transform="translate(-306 -92)"/><path d="M595.452 762.982c-.172-.296-.831.079-1.003-.216-.102-.175.428-5.937-1.91-19.273-.364-2.08-6.891-14.279-2.392-9.528 3.625 3.829 1.966 7.676 11.522 11.039 25.723 9.054 63.467 1.888 72.746-2.717 16.476-8.178-13.714 16.809-15.91 20.241-11.698 1.862-43.241 1.455-47.002 1.407-10.995-.581-14.768-.859-16.051-.953" style="fill:#eba68a" transform="translate(-306 -92)"/><path d="M371.685 833.157c21.419 8.803 25.793 9.123 27.689 9.691 22.569 6.525 35.748 8.657 58.095 9.169l1.061.414c-.91 2.808 1.207 18.409-23.087 21.579-1.085.142-10.534.858-13.98 1.016-5.316.355-5.251.283-10.98.867.925-5.121 5.747-2.806 9.865-9.471 3.418-5.533-16.227-15.754-17.966-16.658-24.825-12.915-27.532-11.836-30.697-16.607" style="fill:#eca78a" transform="translate(-306 -92)"/><path d="m527.642 555.301 1.887.158c.357.314.444-.045.805.272.083.073 0 0 .916 1.034 1.433 1.681 1.305 1.69 2.946 3.063 6.17 5.164 7.627 7.924 8.072 8.767 1.447 8.994-10.43 47.132-9.3 57.617-10.939 3.39-11.362 1.604-16.344 3.649-.097.04 0 0-1.146.636-.647 14.94-22.118 9.574-24.997 9.208-8.838-1.122-17.323 22.027-34.843 12.178l1.195-2.382c12.61 11.155 29.273-20.535 38.649-19.86 3.67.265-5.483 4.826-1.03 6.942 5.951 2.828 16.623 2.354 17.702-7.191.036-.313.022-.291.289-3.93 15.409-21.598 22.172-49.71 21.036-55.959-.22-1.208-1.747-9.613-5.837-14.202" style="fill:#eeac91" transform="translate(-306 -92)"/><path d="m490.522 773.497-.094 5.014c-.213 5.439-.625 6.049 3.922 9.199 4.222 2.019 19.82 12.474 59.135 11.517 22.751-.553 29.694-4.546 31.946-5.841.592.971 2.461 1.964-.202 3.754-18.563 12.476-99.577 14.763-110.44-11.787-1.999-4.885-2.542-4.552-2.71-4.972-.121-.303.592-.553.472-.855 6.026-8.414 7.817-6.543 17.971-6.029" style="fill:#d1504c" transform="translate(-306 -92)"/><path d="M496.398 843.84c47.794 10.156 71.516-.285 70.446 8.72-1.26 10.605-87.795 10.737-103.088-17.184-3.751-6.849 2.782-2.462 3.035-2.293 8.419 5.653 27.157 10.167 29.607 10.757" style="fill:#cf4c48" transform="translate(-306 -92)"/><path d="M603.123 811.64c8.313 16.702 15.016 24.823 14.203 37.85-1.218 19.525-25.445 25.53-29.795 27.122-.221-.246-.73.525-.952.28-.773-.858-.966-2.105-1.577-3.085-1.443-2.315-7.805-2.068-8.497-2.314-6.664-2.371 18.423-1.867 26.714-7.367 20.82-13.811 3.774-33.121-4.565-36.091-3.403-1.212-35.347 9.387-40.202 1.501-3.782-6.143 15.206-7.36 19.964-8.426 19.148-4.29 19.063-9.726 24.707-9.47" style="fill:#cd4c48" transform="translate(-306 -92)"/><path d="M445.777 524.317c-4.06-7.923-9.907-16.375 5.717-32.822 15.628-16.451 7.62-22.163 3.443-27.228-.186-.226-.093-2.847 3.654.076 17.285 13.482 1.744 31-.745 34.41-14.852 20.352 2.348 28.367 10.313 39.982 10.782 15.721-6.576 28.321-2.663 19.764 5.213-11.4-5.868-17.419-19.719-34.182" style="fill:#fddbc8" transform="translate(-306 -92)"/><path d="M564.331 920.856c28.362 7.392 39.851 8.711 72.144 12.061l7.049 1.165c-.561.113-.464 1.263-1.024 1.376-1.381.276-6.59-.323-8-.087-10.039 1.679-88.936-3.008-98.938-5.317-1.993-.46-1.964-.063-4.062-.259-.403-.038-4.416-.413-5-.811-.563-.384-.414-1.412-.977-1.796 7.268.141 16.994.972 27.871-2.058 6.281-1.75 5.645-3.467 10.937-4.274" style="fill:#f3e8e4" transform="translate(-306 -92)"/><path d="M681.176 572.145c-.064-1.74-.259-7.053 21.305-4.458 25.277 3.042 38.861 16.301 48.748 27.023.169.183.122.196 1.641 2.649.669 3.236.23 3.188-1.163 6.263-.354.548-.433.463-4.55 6.772-6.871-11.525-13.339-30.667-46.606-36.373-2.196-.377-2.128-.853-19.375-1.876" style="fill:#edad93" transform="translate(-306 -92)"/><path d="M364.848 516.4c8.262 20.651 32.291 38.725 15.426 53.739-.121.108-6.251 4.987-1.922-.668 13.748-17.962-37.908-40.658-18.53-68.719 5.032-7.287 16.471-9.929 9.162-4.894-7.56 5.208-4.501 18.906-4.136 20.542" style="fill:#fdd8c4" transform="translate(-306 -92)"/><path d="M683.163 670.117c.629.705 4.888 4.897 7.389 8.257-3.05 1.646-2.946 1.714-6.199 2.695-24.525 7.403-39.655 5.802-58.851.427-1.958-.548-1.285-3.148 1.035-3.606 4.31-.853 4.684 3.359 19.96-1.456l1.064-.15c20.971 1.776 22.216-3.105 35.602-6.167" style="fill:#eead90" transform="translate(-306 -92)"/><path d="M385.693 771.119c14.981 8.806 34.52 15.891 65.796 16.3 9.745.515 14.76-.342 16.024-.558.217 1.345.485 1.379-.172 2.561-.199.358-.865 1.265-1.488 3.207-1.162 3.622-1.528 3.995-5.349 3.786-35.991-1.961-63.726-16.556-68.782-19.216-8.091-4.258-6.033-5.944-6.029-6.08" style="fill:#d14f4c" transform="translate(-306 -92)"/><path d="m557.355 507.489-.237 8.032c-1.916 3.387-2.631 4.651-12.242 47.068-.771 3.401.36 4.132-2.608 6.006-.445-.843-1.902-3.603-8.072-8.767-1.641-1.373-1.513-1.382-2.946-3.063.017-.008.804-.942 2.226-1.113 14.356-1.728 13.317-33.878 23.879-48.163" style="fill:#fcf4df" transform="translate(-306 -92)"/><path d="M345.913 776.596c5.574 2.797 3.073 7.258 36.613 26.859 9.239 5.399 7.483 7.287 6.79 7.73-4.317 2.759-40.521-16.825-42.99-30.652-.312-1.749-.815-1.385-1.509-2.564z" style="fill:#ce4a46" transform="translate(-306 -92)"/><path d="M738.339 359.449c.623-1.195 1.034-2.492 1.658-3.687 10.579-20.277 32.34-11.222 30.647-3.183-.783 3.714-4.121-10.736-18.885-2.663-4.45 2.433 3.801 6.822 2.6 16.557-.806 6.532-3.516-1.74-3.619-2.056-2.312-7.056-6.524-7.033-7.198-2.909-.17 1.04-1.352 8.264-6.938 11.188-4.923 2.577-2.08-3.035 1.735-13.247" style="fill:#ea9c80" transform="translate(-306 -92)"/><path d="M596.362 426.438c10.337-.451 12.297 4.688 47.145 2.153 19.736-1.436 39.56-10.81 32.794-5.33-1.673 1.356-41.623 15.925-78.883 8.629-.457-.758-.754-.528-.853-1.416-.03-.262-.04-.352-1.144-3.097z" style="fill:#ec9e7f" transform="translate(-306 -92)"/><path d="M410.483 875.893c5.729-.584 5.664-.512 10.98-.867 5.183 3.021 9.459 2.124 13.668 6.007-8.649 5.471-8.838 5.086-16.356 6.946-4.292-2.718-5.549-2.672-10.022-4.959-3.22-1.646-2.943-2.258-6.345-3.854 3.841-2.219 3.679-2.432 8.075-3.273" style="fill:#f4eae7" transform="translate(-306 -92)"/><path d="M458.53 852.431c5.088 7.546 7.894 8.419 9.425 9.689-4.777 6.003-6.771 3.025-24.74 13.919-4.128 2.502-4.063 2.445-8.084 4.994-4.209-3.883-8.485-2.986-13.668-6.007 3.446-.158 12.895-.874 13.98-1.016 24.294-3.17 22.177-18.771 23.087-21.579" style="fill:#f1e1d9" transform="translate(-306 -92)"/><path d="M635.65 608.803c-36.768 16.818-36.422 21.704-37.266 22.612-3.011 1.495-3.107 1.001-6.815 1.533-.195-.549-.784-.899-.978-1.448-.155-.438 1.385-1.22 3.763-3.158 11.732-9.564 11.964-9.307 35.177-19.724 5.61-2.518 5.497-.39 6.119.185" style="fill:#fcf4df" transform="translate(-306 -92)"/><path d="M595.452 762.982c1.283.094 5.056.372 16.051.953.669 9.682 1.145 9.638 1.062 10.477-9.231-1.275-9.151-1.103-18.372-2.804.068-4.443-.656-4.542 1.259-8.626" style="fill:#f3e5de" transform="translate(-306 -92)"/><path d="M591.159 671.446c-.142 5.695-.622 5.654.198 10.079.047.254 3.685 6.911-8.759 5.483-4.531-.52-3.285-2.233-3.001-2.342.873-.333 1.856-.221 2.774-.395 4.666-.889 5.161-23.929 13.326-29.38 6.481-4.328-2.004 2.625-4.538 16.555" style="fill:#eea68b" transform="translate(-306 -92)"/><path d="m456.833 649.501-1.195 2.382c-.924.244-9.281 2.451-11.895 1.133-3.044-1.535 3.19-1.586 5.388-2.94 1.872-1.153 13.967-24.226 21.324-24.306 5.249-.057-13.541 9.392-13.622 23.731" style="fill:#eea68a" transform="translate(-306 -92)"/><path d="M599.949 688.717c1.754-1.733 5.279-1.194 6.166-6.283.409-2.344.534-11.53 5.931-18.344 2.843-3.589 3.562-1.958 3.603-1.644.009.069-9.526 14.435-3.685 21.702 3.336 4.15-.305 4.046-5.475 5.294-3.43.827-3.684 1.486-6.54-.725" style="fill:#f1ab8f" transform="translate(-306 -92)"/><path d="M571.468 672.498c-.038 5.991 2.967 10.232-2.825 8.518-5.614-1.662-1.442-3.809-.564-9.566.637-4.173 2.06-15.518 9.638-21.557.16-.128 3.658-.794.615 2.484-5.663 6.1-6.719 18.427-6.864 20.121" style="fill:#efa88d" transform="translate(-306 -92)"/><path d="M561.551 374.512c-.524 1.118-3.831 8.172-13.985 6.536-9.248-1.49-10.731-12.89-6.87-7.829 6.791 8.902 14.837 2.96 16.454.082 1.781-3.17 3.701-4.333 4.448-.822.034.159-.003.151-.047 2.033" style="fill:#eda186" transform="translate(-306 -92)"/><path d="M535.377 350.553c-3.499-12.385 11.728-8.811 12.924-7.825 3.368 2.777-4.856.883-6.913 1.325-9.176 1.974 7.816 12.979 3.097 13.39-4.661.407-8.632-6.11-9.108-6.89" style="fill:#ed9e80" transform="translate(-306 -92)"/><path d="M440.67 638.588c-2.223 6.815-1.495 10.493-8.272 8.054-4.117-1.482 2.189-1.189 3.887-5.229.707-1.682 6.282-14.95 14.234-17.811.389-.14 3.758.195.286 2.183-4.262 2.439-9.491 11.666-10.135 12.803" style="fill:#eea589" transform="translate(-306 -92)"/><path d="M673.5 590.511c1.493-1.542 1.188-2.308 3.001-2.068 4.21.557 16.694-1.297 26.492 7.605.209.19 12.07 12.685.476 3.513-13.895-10.992-28.369-8.939-29.969-9.05" style="fill:#eba487" transform="translate(-306 -92)"/><path d="M359.483 882.297c-5.384-8.313 3.939-17.311 11.996-17.606 10.175-.372-6.867.939-9.12 10.776-.121.531.119.532-.841 6.753z" style="fill:#eaa286" transform="translate(-306 -92)"/><path d="M457.374 925.861c-5.279-16.407 16.747-18.309 14.023-14.42-.704 1.005-10.514.554-11.237 10.042-.204 2.688-.016 2.64-.743 5.238z" style="fill:#eea48a" transform="translate(-306 -92)"/><path d="M441.444 921.749c-4.027-10.126 6.903-18.066 10.927-16.91 2.661.765-2.379 2.874-2.676 2.998-6.751 2.824-6.005 11.383-6.333 12.663-.423 1.652-1.892 1.232-1.918 1.249" style="fill:#f1a88d" transform="translate(-306 -92)"/><path d="M426.07 915.938c.084-.55.763-.888.847-1.438.157-1.02-.385-.951-.193-1.98.632-3.388 1.167-9.371 8.798-11.9.189-.062 8.089-.603 1.167 2.187-7.464 3.008-4.483 7.578-9.463 14.099z" style="fill:#efa78d" transform="translate(-306 -92)"/><path d="M367.569 746.457c.296 1.075.435 8.779 9.277 17.715-.793.344-.352.778-1.201 1.147-.058.025-.25.109-.712-.316-3.974-3.656-6.884-10.541-7.31-11.548-.83-1.964-1.068-1.787-1.077-1.966-.016-.336.162-.686.062-1.008-.675-2.186-.571-2.317.961-4.024" style="fill:#dd5d59" transform="translate(-306 -92)"/><path d="M345.593 877.517c-.616.02-.951.963-1.567.983-.359.011-3.261-5.53 2.798-11.506 3.225-3.182 7.308-1.76 4.444.035-5.295 3.319-5.276 3.865-5.675 10.488" style="fill:#efaa8d" transform="translate(-306 -92)"/><path d="M332.374 876.784c-2.247-6.78 2.919-12.217 6.141-13.026 3.317-.833.642 1.414-1.663 3.989-3.508 3.918-.211 5.952-4.478 9.037" style="fill:#e9a083" transform="translate(-306 -92)"/><path d="M490.428 778.511c.462.626 5.676 7.691 5.542 7.989-.277.615-1.344.595-1.62 1.21-4.547-3.15-4.135-3.76-3.922-9.199" style="fill:#ea957b" transform="translate(-306 -92)"/><path d="M375.492 732.461c-1.833 2.789-1.064 3.055.484 5.988.693 1.314-2.316 4.176-3.681-.86-.565-2.086-1.82-2.68.168-3.578.218-.098.138-.08.555-.717.114-.175.18-.061 2.474-.833" style="fill:#eb8181" transform="translate(-306 -92)"/><path d="M739.441 437.706c.579-.316 4.022-2.197 8.228.548.673.439.252.704.881 1.186.538.411 1.134-.676 1.01 0-.189 1.03-1.08.384-1.272 1.427-4.167-2.244-4.148-2.034-8.847-3.161" style="fill:#dc806a" transform="translate(-306 -92)"/><path d="M493.341 731.836c2.095 2.381.162 3.482.083 3.765-2.191-1.958-2.183-1.852-4.596-3.596-.217-3.232 1.574-1.664 4.513-.169" style="fill:#fae8de" transform="translate(-306 -92)"/><path d="M430.636 896.548c-2.549 2.093-2.337-.972-1.242-1.516 1.259-.626.975.224 1.242 1.516" style="fill:#f4b396" transform="translate(-306 -92)"/><path d="M760.415 601.409c.757-2.111.349-3.947 2.151-2.507 2.038 1.629-1.892 2.453-2.151 2.507" style="fill:#f0c14b" transform="translate(-306 -92)"/><path d="M616.73 685.915c3.767-.826 1.911 1.455 1.753 1.555-1.428.902-1.63.128-1.753-1.555" style="fill:#f7b599" transform="translate(-306 -92)"/><path d="M727.006 681.105c.166-.861.113-.815.166-.861 2.372-2.097 2.472 1.183 1.481 1.564-.557.213-1.09-.917-1.647-.703" style="fill:#f0a87a" transform="translate(-306 -92)"/><path d="M526.528 554.449c1.64.284 1.646.117 3.001 1.01l-1.887-.158z" style="fill:#eeb681" transform="translate(-306 -92)"/><path d="M749.506 625.52c1.757.962 1.861.867 1.894 1.036.318 1.649-.462-.252-1.894-1.036" style="fill:#f3c64e" transform="translate(-306 -92)"/><path d="m723.225 397.973.315.327-1.035.232z" style="fill:#f8d0be" transform="translate(-306 -92)"/><path d="m647.186 675.982.375.302-1.064.15z" style="fill:#f7bba0" transform="translate(-306 -92)"/></svg>