<svg xmlns="http://www.w3.org/2000/svg" xml:space="preserve" style="fill-rule:evenodd;clip-rule:evenodd;stroke-linejoin:round;stroke-miterlimit:2" viewBox="0 0 799 752"><path d="M806.454 407.737c55.854 21.885 53.057 27.649 58.112 28.824 5.253 14.347 20.612 17.108 31.52 89.997 5.991 40.032 9.845 96.821 11.802 136.836-6.23-2.157-45.281-15.676-82.235-5.405-13.899 3.863-12.603 7.802-17.901 7.453-4.781-157.036 16.508-185.98 8.006-176.741-1.809 1.966-16.04 75.587-10.552 179.816.266 5.036 1.139 5.035-.15 9.908 5.516 2.429 3.418-3.465 2.9-8.929 2.095-2.478 3.069-2.037 4.597-2.91 32.508-18.585 90.774-3.592 95.684-.094.514 14.015 1.444 17.778-1.127 20.534-9.244-5.576-18.36-5.883-18.566-5.923-4.89-1.568-11.218-3.025-25.054-3.258-2.799-.047-28.48-.479-34.99.387-.662.088-.731 1.35-1.393 1.438-1.295-.95-1.292-1.215-12.626-1.903-14.183-.861 10.621 66.815 23.118 114.597-8.075 4.357-9.861-1.868-54.061 13.247-80.048 27.373-77.531 46.88-151.269 37.319 4.133-33.543 3.113-122.485 24.658-190.299 12.858-40.469 37.273-119.662 135.029-228.739 5.741-6.405 12.18-11.902 14.498-16.155" style="fill:#f6859a" transform="translate(-139 -100)"/><path d="M631.534 396.787c-2.126 7.84-27.526 83.17-9.04 146.715-1.009 13.636 20.36 61.05 24.859 57.702 1.044-.777 10.387-25.85 14.564-36.431 27.688-59.343 51.16-100.979 111.512-155.352 10.579-9.532 10.314-9.581 11.241-10.381.233-.201.668.405.902.204 9.689 3.928 9.56 3.997 19.187 7.922-160.616 162.465-165.676 318.483-166.806 329.391-10.114 97.652-6.82 97.935-8.393 106.321-38.035-4.946-62.332-14.256-93.126-26.906 1.503-1.584 1.563-1.532 1.623-1.711 29.436-87.646 37.371-116.698 34.885-146.858 4.469 2.749 6.058 11.127 27.538 17.149 9.931 2.784 9.91 2.683 13.006 3.767l.978-.823c-2.142-2.89-23.93-13.136-42.804-29.996-.122-.109 0 0-1.695-1.144-19.85-48.367-22.902-47.651-30.624-83.799.67-1.807.995-2.686 1.138-24.059.025-3.748 2.089-14.148 1.912-14.998-.11-.53-1.103-.55-1.213-1.08l1.583-5.901c2.513-2.812 14.048-35.152 16.677-50.034.124-.704 7.683-47.541-.65-8.913-6.326 29.327-8.863 28.499-17.27 57.201-1.264.305-3.018.727-15.983 2.985-4.535.612-35.931 4.848-57.032 4.517-15.65-.246-31.436-.337-35.065-3.695 2.781-2.671 14.968-14.263 15.116-17.2.016-.32-.965.162-.949-.158 10.303-8.123 11.956-31.776 12.161-34.711 1.592-22.781-11.754-38.424-12.26-39.183 34.924-1.672 94.342-26.108 102.209-29.344 19.175-7.886 20.534-5.447 23.039-8.734 2.628.65 2.622-.693 33.772-2.131 2-.038 15.058-.286 25.008-.332" style="fill:#f7889d" transform="translate(-139 -100)"/><path d="M746.44 245.157c12.662 2.713 12.652 3.384 25.472 2.011 3.513 3.498 6.423 2.817 9.709 8.259 11.564 19.157-9.72 40.369-12.247 42.888-1.022.629-6.778 5.32-13.876 5.289-.644-.002-5.628-1.673-5.825 4.894-2.013 67.06 11.232 76.622 16.56 80.469 9.416 5.728 8.882 6.639 19.339 10.277-.234.201-.669-.405-.902-.204-.927.8-.662.849-11.241 10.381-60.352 54.373-83.824 96.009-111.512 155.352-4.834.982-4.61 1.475-9.428 2.685-2.979.749-14.969 3.761-29.995-23.956-18.486-63.545 6.914-138.875 9.04-146.715 7.089-1.305 17.517-1.704 24.552-11.53.969-2.141 4.711-6.565 3.083-14.354-10.616-3.358-37.51 6.93-54.935-60.33-22.074-100.767 2.312-117.239 10.479-122.756 31.075-20.99 52.166 14.634 74.129 31.255 25.769 19.502 47.362 24.051 57.598 26.085" style="fill:#f7bba0" transform="translate(-139 -100)"/><path d="M636.643 131.756c2.847-1.264 37.956-19.442 79.765-10.794 78.974 16.335 96.061 83.225 105.894 115.597 28.255 93.032 43.522 98.714 61.927 127.114 20.157 31.104 1.393 50.766.273 50.894-5.88.669 8.339-5.872-2.459-33.874-7.052-18.29-34.906-40.676-24.207-28.414 28.718 32.911 15.106 66.57 14.388 69.121-3.38 7.867-3.404 7.687-7.658 15.161-5.055-1.175-2.258-6.939-58.112-28.824l-1.695-.571c-9.627-3.925-9.498-3.994-19.187-7.922-10.457-3.638-9.923-4.549-19.339-10.277.042-.069 1.442-.564 1.496-2.42.302-10.427 12.228-9.834 9.164-45.065-2.522-28.995-3.542-39.55-7.519-43.167 2.527-2.519 23.811-23.731 12.247-42.888-3.286-5.442-6.196-4.761-9.709-8.259-1.131-4.498-18.529-108.767-113.401-103.189-57.269 3.367-65.813 65.58-60.006 57.529 3.008-4.171 3.465-12.58 23.16-24.745 23.069-14.249 76.024-15.235 108.459 34.984 4.524 7.004 16.96 29.005 16.316 33.41-10.236-2.034-31.829-6.583-57.598-26.085-21.963-16.621-43.054-52.245-74.129-31.255-8.167 5.517-32.553 21.989-10.479 122.756-1.825 2.967-18.944 43.584-2.45 76.79 2.514 5.062 4.59 6.443 4.742 9.756-31.15 1.438-31.144 2.781-33.772 2.131-16.448-11.708-52.236-39.972-15.98-101.587 40.92-69.541-3.632-121.029 79.869-165.907" style="fill:#b7453c" transform="translate(-139 -100)"/><path d="M263.25 334.668c-4.595-4.796-14.344-45.502 22.185-62.31 42.474-19.544 74.002 31.577 77.621 37.445 32.526 52.738 35.011 71.159 81.403 127.251 5.214 21.077 15.65 38.357-11.573 69.801-.157.181.012.22-1.384 2.662-.4-.208-.602-.701-1.002-.909-.674-.35-.89-.154-.946-.103-.448.407.414.586-.04.998l-.272.943c-11.327-6.281-27.746.456-50.272-37.219-6.503-10.874-6.361-10.777-9.198-15.899-.694-5.553 4.251-17.844 3.73-32.827.243-13.595.173-13.456-.683-27.115.087-1.985.105-1.89-.451-3.916-2.701-32.968-5.05-35.268-9.944-37.804-6.379-9.623-17.597-7.623-26.887-9.89-.27-3.162 3.434-23.985-10.479-44.997-7.344-11.091-11.03 2.445-17.689 27.684-1.446 5.48-2.146 5.498-.79 10.192-1.597 2.229-1.409 2.247-2.21 4.844-2.916 9.93-3.095 9.717-7.904 18.885-4.461.999-4.376 1.176-8.85.684-2.166-4.598-1.671-4.651-3.272-19.39 1.806-2.282 1.626-2.314 1.606-5.197-.258-37.714 1.731-37.649 1.218-40.88-.563-3.547-5.877-.331-10.521 43.644-2.207-.539-2.099-.592-4.174-1.328-.021-.567.728-.982.708-1.549-.071-1.97-.675-3.884-.975-5.832-1.07-6.931-.272-32.705-.496-33.241-1.015-2.433-4.233-.116-6.999 32.198-.309 3.611-1.329 2.947-1.46 3.175" style="fill:#f9bfa3" transform="translate(-139 -100)"/><path d="M372.819 397.386c.856 13.659.926 13.52.683 27.115-27.978-6.863-41.38 42.632-28.609 63.757 6.874 11.37 21.446-25.142 22.507-27.8.315.57 2.34 4.229-.701 8.11-1.707 2.179-1.909 5.681-6.539 13.743-33.286 57.953-51.461 60.285-108.643 55.023-22.325-2.054-43.07-22.808-46.055-25.795-1.642-1.643-3.37-3.372-18.588-22.307-2.219-2.761-3.632-2.661-2.129-5.955 11.379 14.578 17.504 18.572 21.396 9.066 12.844-31.37-19.744-74.974-38.554-57.726-.981-2.814-1.484-2.634-2.721-13.16-.479-4.079-.688-11.846-.437-12.316.174-.324.929.313 1.102-.011 23.901 8.26 44.984 15.449 100.896 11.647-3.061 29.526-37.408 27.009-27.443 51.497.407 1 4.671 8.337 5.115 9.418 2.34 5.698 1.423 13.65 1.425 15.809 2.203 23.917 14.52 21.094 21.107 19.292 7.428-3.317 8.058-3.734 14.803.813 11.114 7.491 14.209-6.076 21.152-7.749 3.677-.885 18.426.902 23.526-28.418 4.773-27.44-16.241-29.81-10.128-53.798 1.05-4.119 3.149-4.136.439-13.195 2.621-.744 2.411-.865 4.966-1.41 36.02-7.681 45.604-15.581 51.43-15.65" style="fill:#fdfdfd" transform="translate(-139 -100)"/><path d="M362.424 355.666c4.894 2.536 7.243 4.836 9.944 37.804-3.814 1.271-8.027 3.093-8.713 3.39-34.859 15.073-133.912 36.569-199.1 8.467-1.094-2.388-2.451-34.415 1.848-40.896.816-1.23.89-1.029 2.092-1.956 4.784-1.922 11.075-.933 17.906-.56l3.093.368c8.475.798 8.374.866 16.887 1.536l2.127.41c10.632.481 10.522.595 17.903.674l1.128.058c9.635.195 9.477.252 18.974.303 10.097-.117 9.988-.082 20.045-.195l2.055-.207c5.531-.298 14.732-.381 19.002-1.794 4.474.492 4.389.315 8.85-.684l8.046.036c3.759-.407 3.61-.327 3.923-.366 16.171-1.621 16.005-1.756 32.056-4.252 17.043-2.222 16.988-1.277 21.934-2.136" style="fill:#fdfdfd" transform="translate(-139 -100)"/><path d="M888.544 681.103c.206.04 9.322.347 18.566 5.923-4.377 8.496 9.564 7.97 15.332 118.476.851 16.313.967 16.214.814 17.998-.042.488-.917.626-.958 1.114-15.951-16.216-28.037-24.578-53.826-29.655.679-4.617-.181-4.523-21.404-54.272-1.845-4.325-12.61-29.56-18.062-55.927 9.481.575 8.989 2.705 18.475 3.854 12.557 1.521 24.682-2.984 25.029-3.078 10.834-2.956 11.484-1.139 16.034-4.433" style="fill:#f8bd9f" transform="translate(-139 -100)"/><path d="M746.44 245.157c.644-4.405-11.792-26.406-16.316-33.41-32.435-50.219-85.39-49.233-108.459-34.984-19.695 12.165-20.152 20.574-23.16 24.745-5.807 8.051 2.737-54.162 60.006-57.529 94.872-5.578 112.27 98.691 113.401 103.189-12.82 1.373-12.81.702-25.472-2.011" style="fill:#f88ca0" transform="translate(-139 -100)"/><path d="M316.423 414.446c2.71 9.059.611 9.076-.439 13.195-6.113 23.988 14.901 26.358 10.128 53.798-5.1 29.32-19.849 27.533-23.526 28.418-6.943 1.673-10.038 15.24-21.152 7.749-6.745-4.547-7.375-4.13-14.803-.813-.036-.239-1.628-.578-.339-2.293.252-.335 2.589-3.444 3.391-4 3.835-2.66 3.327-3.198 3.719-3.243 7.098-.814 8.775.344 9.395.773 7.41 5.117 13.271-4.315 11.334-9.41-2.854-7.503-3.425-8.881 3.133-13.414 5.989-4.141 4.787-14.127.865-17.256-6.886-5.492-11.767-.212-13.865 1.115-11.394 7.209-14.28-6.882-22.884-3.923-9.874 3.397-6.315 16.031-6.277 17.268.025.821-6.266 9.387-9.579 15.091-.002-2.159.915-10.111-1.425-15.809-.444-1.081-4.708-8.418-5.115-9.418-9.965-24.488 24.382-21.971 27.443-51.497 46.249-4.405 45.969-6.529 49.996-6.331" style="fill:#faeed9" transform="translate(-139 -100)"/><path d="M604.234 310.573c17.425 67.26 44.319 56.972 54.935 60.33 1.628 7.789-2.114 12.213-3.083 14.354-7.035 9.826-17.463 10.225-24.552 11.53-9.95.046-23.008.294-25.008.332-.152-3.313-2.228-4.694-4.742-9.756-16.494-33.206.625-73.823 2.45-76.79" style="fill:#932d26" transform="translate(-139 -100)"/><path d="m271.46 339.616 1.012.301c2.075.736 1.967.789 4.174 1.328.808.2.745.204 7.697 2.433 1.601 14.739 1.106 14.792 3.272 19.39-4.27 1.413-13.471 1.496-19.002 1.794-.008-1.462-.101-17.272-1.252-18.222-3.236-2.671-.504 15.882-.803 18.429-10.057.113-9.948.078-20.045.195-9.497-.051-9.339-.108-18.974-.303.362-1.269 1.966-6.896-1.041-16.46-3.907-12.426-.259 15.102-.087 16.402-7.381-.079-7.271-.193-17.903-.674.145-1.189 1.055-8.639-1.808-14.865-4.728-10.286-.071 3.205-.319 14.455-8.513-.67-8.412-.738-16.887-1.536 1.518-4.89-.473-8.164-.812-9.019-1.184.899-1.904.855-1.123 6.219.224 1.538-.071 1.451-1.158 2.432-6.831-.373-13.122-1.362-17.906.56-1.246-7.482 22.417-20.893 77.005-21.681 22.202-.32 22.618 1.3 25.96-1.178" style="fill:#e1d2d8" transform="translate(-139 -100)"/><path d="M245.524 497.501c3.313-5.704 9.604-14.27 9.579-15.091-.038-1.237-3.597-13.871 6.277-17.268 8.604-2.959 11.49 11.132 22.884 3.923 2.098-1.327 6.979-6.607 13.865-1.115 3.922 3.129 5.124 13.115-.865 17.256-6.558 4.533-5.987 5.911-3.133 13.414 1.937 5.095-3.924 14.527-11.334 9.41-.62-.429-2.297-1.587-9.395-.773-.392.045.116.583-3.719 3.243-.802.556-3.139 3.665-3.391 4-1.289 1.715.303 2.054.339 2.293-6.587 1.802-18.904 4.625-21.107-19.292" style="fill:#f5e0b1" transform="translate(-139 -100)"/><path d="M769.374 298.315c3.977 3.617 4.997 14.172 7.519 43.167 3.064 35.231-8.862 34.638-9.164 45.065-.054 1.856-1.454 2.351-1.496 2.42-5.328-3.847-18.573-13.409-16.56-80.469.197-6.567 5.181-4.896 5.825-4.894 7.098.031 12.854-4.66 13.876-5.289" style="fill:#922e27" transform="translate(-139 -100)"/><path d="M167.587 434.617c18.81-17.248 51.398 26.356 38.554 57.726-3.892 9.506-10.017 5.512-21.396-9.066-2.42-3.105-14.53-18.642-17.971-45.811-.03-.235.06-.211.813-2.849" style="fill:#e5d0d7" transform="translate(-139 -100)"/><path d="M373.502 424.501c.521 14.983-4.424 27.274-3.73 32.827-1.708 1.175-1.648 1.171-2.372 3.13-1.061 2.658-15.633 39.17-22.507 27.8-12.771-21.125.631-70.62 28.609-63.757" style="fill:#e3cdd4" transform="translate(-139 -100)"/><path d="m804.759 407.166 1.695.571c-2.318 4.253-8.757 9.75-14.498 16.155-97.756 109.077-122.171 188.27-135.029 228.739-21.545 67.814-20.525 156.756-24.658 190.299l-2.709-.052c1.573-8.386-1.721-8.669 8.393-106.321 1.13-10.908 6.19-166.926 166.806-329.391" style="fill:#d96d80" transform="translate(-139 -100)"/><path d="M242.835 207.549c-2.457 25.068 15.997 23.997 22.332 46.055 6.913 24.069-24.957 37.069-22.266 52.864 2.142 12.569 4.276 11.73 6.424 16.123 3.173 6.486-16.058-9.825-12.451-24.013 4.666-18.351 30.135-25.888 9.133-54.756-12.372-17.004-15.482-18.871-5.244-40.177 3.154-6.565 3.018-7.484 3.814-8.037 2.803-1.949.48 1.398-1.742 11.941" style="fill:#fddad8" transform="translate(-139 -100)"/><path d="M306.579 338.655c-1.356-4.694-.656-4.712.79-10.192 6.659-25.239 10.345-38.775 17.689-27.684 13.913 21.012 10.209 41.835 10.479 44.997-9.039-1.099-9.306.28-14.718-2.385-3.179-4.767-4.197-8.912-14.24-4.736" style="fill:#eeab89" transform="translate(-139 -100)"/><path d="M622.494 543.502c15.026 27.717 27.016 24.705 29.995 23.956 4.818-1.21 4.594-1.703 9.428-2.685-4.177 10.581-13.52 35.654-14.564 36.431-4.499 3.348-25.868-44.066-24.859-57.702" style="fill:#f1ae8f" transform="translate(-139 -100)"/><path d="M203.881 252.697c3.961-6.408 4.326-6.03 8.695-12.103 2.592-3.604 2.823-.358 2.726-.162-17.78 36.059 18.121 38.56 17.08 66.061-.356 9.418-12.705 23.237-13.963 23.746-3.686 1.49 2.585-6.587 2.756-6.897 17.623-31.922-31.628-32.401-17.294-70.645" style="fill:#fddbd9" transform="translate(-139 -100)"/><path d="m444.459 437.054 3.047.274c.506.759 13.852 16.402 12.26 39.183-.205 2.935-1.858 26.588-12.161 34.711-6.589-.581-6.514-.639-16.103-1.705 1.396-2.442 1.227-2.481 1.384-2.662 27.223-31.444 16.787-48.724 11.573-69.801" style="fill:#eeab8a" transform="translate(-139 -100)"/><path d="M304.369 343.499c13.246 2.474 16.278-.015 16.45-.108 5.412 2.665 5.679 1.286 14.718 2.385 9.29 2.267 20.508.267 26.887 9.89-4.946.859-4.891-.086-21.934 2.136-16.051 2.496-15.885 2.631-32.056 4.252-1.442-1.044-1.82-.816-1.778-2.537.272-11.092-2.32-11.142-2.609-10.34-.359.997 1.582.885.464 13.243l-8.046-.036c4.809-9.168 4.988-8.955 7.904-18.885" style="fill:#dfcfd4" transform="translate(-139 -100)"/><path d="M372.368 393.47c.556 2.026.538 1.931.451 3.916-5.826.069-15.41 7.969-51.43 15.65-2.555.545-2.345.666-4.966 1.41-4.027-.198-3.747 1.926-49.996 6.331-55.912 3.802-76.995-3.387-100.896-11.647-.29-.195-2.901-1.941-2.017-3.877.144-.316.896.39 1.041.074 65.188 28.102 164.241 6.606 199.1-8.467.686-.297 4.899-2.119 8.713-3.39" style="fill:#e7d4d9" transform="translate(-139 -100)"/><path d="M638.191 621.41c-1.345.563-1.867 1.389-5.266-2.27-29.065-31.283-36.732-70.001-38.064-76.722-8.712-43.996 11.394-103.632 12.837-106.841 10.743-23.884-1.295 9.585-3.761 20.032-15.691 66.474-11.454 111.517 34.254 165.801" style="fill:#db6e81" transform="translate(-139 -100)"/><path d="m807.752 665.442.204 4.054c.518 5.464 2.616 11.358-2.9 8.929 1.289-4.873.416-4.872.15-9.908-5.488-104.229 8.743-177.85 10.552-179.816 8.502-9.239-12.787 19.705-8.006 176.741" style="fill:#d96c7f" transform="translate(-139 -100)"/><path d="M827.107 679.67c.662-.088.731-1.35 1.393-1.438 6.51-.866 32.191-.434 34.99-.387 13.836.233 20.164 1.69 25.054 3.258-4.55 3.294-5.2 1.477-16.034 4.433-.347.094-12.472 4.599-25.029 3.078-9.486-1.149-8.994-3.279-18.475-3.854z" style="fill:#eeab88" transform="translate(-139 -100)"/><path d="M199.899 306.424c1.614 18.009-16.175 26.464-10.911 20.546 22.004-24.736-25.627-31.193-15.361-63.416 2.124-6.666 4.662-6.595 4.349-5.156-.264 1.214-6.288 8.447 4.927 23.82 5.533 7.584 12.763 8.781 16.996 24.206" style="fill:#fcd6d4" transform="translate(-139 -100)"/><path d="M569.965 656.356c1.695 1.144 1.573 1.035 1.695 1.144 18.874 16.86 40.662 27.106 42.804 29.996l-.978.823c-3.096-1.084-3.075-.983-13.006-3.767-21.48-6.022-23.069-14.4-27.538-17.149z" style="fill:#eb7a8f" transform="translate(-139 -100)"/><path d="M276.646 341.245c4.644-43.975 9.958-47.191 10.521-43.644.513 3.231-1.476 3.166-1.218 40.88.02 2.883.2 2.915-1.606 5.197-6.952-2.229-6.889-2.233-7.697-2.433" style="fill:#eba784" transform="translate(-139 -100)"/><path d="m907.888 663.394.349 3.098c-4.91-3.498-63.176-18.491-95.684.094-1.528.873-2.502.432-4.597 2.91l-.204-4.054c5.298.349 4.002-3.59 17.901-7.453 36.954-10.271 76.005 3.248 82.235 5.405" style="fill:#d86e80" transform="translate(-139 -100)"/><path d="M474.543 438.496c.597.032 2.699-2.182 8.162 8.91 19.15 38.876-19.878 85.02-20.212 76.096-.157-4.204 42.269-36.655 12.05-85.006" style="fill:#db6d80" transform="translate(-139 -100)"/><path d="M217.417 451.518c-.591-1.864-4.904-15.483-11.245-21.703-.337-.331-9.736-9.552-2.706-5.242 33.081 20.278 11.356 91.153 6.23 81.818-2.932-5.34 13.923-13.631 7.721-54.873" style="fill:#e6d5db" transform="translate(-139 -100)"/><path d="M335.406 441.469c-11.717 40.546 9.282 58.209 3.12 57.824-6.31-.393-21.314-57.086 9.119-81.582 6.035-4.858 1.344 1.986 1.201 2.119-9.762 9.153-12.99 20.52-13.44 21.639" style="fill:#e6d4da" transform="translate(-139 -100)"/><path d="M460.793 438.044c4.148 8.732 21.178 35.306-5.838 77.776-.3.471-4.569 7.182-5.244 4.61-.073-.282 10.002-14.209 14.486-32.009 9.272-36.816-9.628-49.554-4.697-50.68.432-.099.862.401 1.293.303" style="fill:#d6697b" transform="translate(-139 -100)"/><path d="m429.514 509.503 1.988.014c9.589 1.066 9.514 1.124 16.103 1.705-.016.32.965-.162.949.158-.148 2.937-12.335 14.529-15.116 17.2-5.907-6.962-5.136-7.974-4.196-18.134z" style="fill:#de7684" transform="translate(-139 -100)"/><path d="M263.25 334.668c.131-.228 1.151.436 1.46-3.175 2.766-32.314 5.984-34.631 6.999-32.198.224.536-.574 26.31.496 33.241.3 1.948.904 3.862.975 5.832.02.567-.729.982-.708 1.549l-1.012-.301c-4.287-1.819-4.442-1.379-8.21-4.948" style="fill:#ebaa88" transform="translate(-139 -100)"/><path d="M903.097 651.359c-2.087 2.318-2.382-3.381-38.604-5.53-14.751-.875-33.163 2.692-36.002 3.242-15.02 2.911 17.877-13.332 63.89-2.09 7.634 1.865 9.998 3.793 10.716 4.378" style="fill:#dd7284" transform="translate(-139 -100)"/><path d="M541.518 524.773c8.407-28.702 10.944-27.874 17.27-57.201 8.333-38.628.774 8.209.65 8.913-2.629 14.882-14.164 47.222-16.677 50.034-.205-1.227-.141-1.285-1.243-1.746" style="fill:#e37388" transform="translate(-139 -100)"/><path d="M638.748 623.595c-.847 4.804-15.371 42.603-18.635 64.842-.807 5.5-2.252.283-2.237.104 1.054-12.583 17.904-63.44 18.563-64.078.591-.571 1.718-.296 2.309-.868" style="fill:#ed7e93" transform="translate(-139 -100)"/><path d="M766.156 283.404c-.266.52-4.331 8.45-5.319 5.011-.247-.858 5.122-6.858.494-10.752-11.953-10.055 14.078-19.239 12.694-13.24-.232 1.007-2.703-2.794-11.251 6.357-1.738 1.861 1.735 4.209 2.246 5.044 2.104 3.434 1.609 3.53 1.136 7.58" style="fill:#e7a07e" transform="translate(-139 -100)"/><path d="M306.579 338.655c10.043-4.176 11.061-.031 14.24 4.736-.172.093-3.204 2.582-16.45.108.801-2.597.613-2.615 2.21-4.844" style="fill:#fdece6" transform="translate(-139 -100)"/><path d="M271.975 395.502c-.299-8.346-.28-8.293-.323-9.013-3.052-51.301 6.645 19.365 1.792 21.763-.921.455-1.317-.198-1.469-12.75" style="fill:#e2ced4" transform="translate(-139 -100)"/><path d="M296.765 390.504c-.052-2-.022-4.001-.074-6-1.074-41.574 4.772 9.119 2.281 19.241-2.416 9.815-2.217-12.167-2.207-13.241" style="fill:#e0cdd3" transform="translate(-139 -100)"/><path d="M249.638 392.481c-1.053-6.833-2.385-15.613-2.591-20.154-.056-1.239 1.834-1.509 2.146.26.462 2.625.251 2.557 5.217 32.911 8.384 51.247-4.55-11.931-4.772-13.017" style="fill:#e5d6db" transform="translate(-139 -100)"/><path d="M321.415 390.5c-.735 10.077.274 11.163-1.869 11.326-2.661.202-.388-1.811-1.089-33.333-.034-1.538 2.016-2.064 2.319.915 1.07 10.521.618 10.446.639 21.092" style="fill:#e0cdd2" transform="translate(-139 -100)"/><path d="M210.522 395.495c-3.247-17.9-2.973-17.882-3.403-21.032-.024-.178.223-9.296 1.844-1.296.554 2.731 6.637 32.743 6.275 34.271-1.107 4.668-4.497-10.939-4.716-11.943" style="fill:#e6d5db" transform="translate(-139 -100)"/><path d="M233.022 396.582c.102.569 5.671 31.625-.944 7.164-4.91-18.157-6.61-47.341-3.092-29.488.363 1.84 1.202 8.145 4.036 22.324" style="fill:#e9dce0" transform="translate(-139 -100)"/><path d="M224.315 496.432c-3.381 8.998-5.366 9.497-.716 18.027 3.538 6.492-10.623-.561-4.658-14.792.264-.63 4.543-10.84 5.791-6.277.065.237-.031.225-.417 3.042" style="fill:#e6d3da" transform="translate(-139 -100)"/><path d="M192.209 391.55c.126.937 2.392 17.763-.467 11.811-2.811-5.852-6.285-66.586-.75-22 .102.815.996 8.018 1.217 10.189" style="fill:#e7d9dd" transform="translate(-139 -100)"/><path d="M225.845 478.5c1.442-18.057 8.531 7.042 5.479 10.868-.607.762-4.157 2.14-5.479-10.868" style="fill:#ebdadf" transform="translate(-139 -100)"/><path d="M177.807 389.494c-.193 10.022 1.182 11.398-1.27 11.468-2.484.07.093-9.661-2.57-31.446-.285-2.328 1.871-2.028 2.125-.878 1.251 5.666.783 5.597 1.715 20.856" style="fill:#e6d7dc" transform="translate(-139 -100)"/><path d="M338.159 393.478c1.915-25.652-.404-25.892.668-27.846 1.521-2.772 3.72 4.292 2.565 19.861-.051.687-2.186 29.461-3.233 7.985" style="fill:#e5d5da" transform="translate(-139 -100)"/><path d="M358.121 385.481c-.042.672-.66 10.362-2.599 8.003-1.523-1.853 1.339-2.303-.639-29.98-.159-2.225 2.111-2.395 2.295.04.831 10.987 1.013 10.845.943 21.937" style="fill:#e7d6db" transform="translate(-139 -100)"/><path d="M541.178 532.42c.11.53 1.103.55 1.213 1.08.177.85-1.887 11.25-1.912 14.998-.143 21.373-.468 22.252-1.138 24.059-2.545-18.12-2.146-20.679 1.837-40.137" style="fill:#dc8391" transform="translate(-139 -100)"/><path d="m268.613 364.862-2.055.207c.299-2.547-2.433-21.1.803-18.429 1.151.95 1.244 16.76 1.252 18.222" style="fill:#d7bfc8" transform="translate(-139 -100)"/><path d="M246.064 364.5c-1.978-7.383-1.121-25.913.62-18.113.543 2.436.984 10.201 1.035 11.09.219 3.862 1.041 4.231-1.655 7.023" style="fill:#d6c0c7" transform="translate(-139 -100)"/><path d="M226.411 364.903c-.172-1.3-3.82-28.828.087-16.402 3.007 9.564 1.403 15.191 1.041 16.46z" style="fill:#d7bfc7" transform="translate(-139 -100)"/><path d="M206.381 363.819c.248-11.25-4.409-24.741.319-14.455 2.863 6.226 1.953 13.676 1.808 14.865z" style="fill:#d7c2c9" transform="translate(-139 -100)"/><path d="M685.792 291.702c-3.236 2.803-2.155 6.384-3.31 5.767-3.321-1.772.539-5.215-.76-7.969-1.605-3.404 2.131-5.607 3.142-2.729.073.208-1.809.395.928 4.931" style="fill:#f7bba0" transform="translate(-139 -100)"/><path d="M304.511 362.42c1.118-12.358-.823-12.246-.464-13.243.289-.802 2.881-.752 2.609 10.34-.042 1.721.336 1.493 1.778 2.537-.313.039-.164-.041-3.923.366" style="fill:#ceb4bc" transform="translate(-139 -100)"/><path d="M188.682 353.264c.339.855 2.33 4.129.812 9.019l-3.093-.368c1.087-.981 1.382-.894 1.158-2.432-.781-5.364-.061-5.32 1.123-6.219" style="fill:#d7c1c9" transform="translate(-139 -100)"/><path d="M340.434 356.5c-.566-5.045-3.29-8.859.874-6.771 3.649 1.83-.505 6.368-.874 6.771" style="fill:#dac4c9" transform="translate(-139 -100)"/><path d="M429.514 509.503c.454-.412-.408-.591.04-.998.056-.051.272-.247.946.103.4.208.602.701 1.002.909z" style="fill:#eea693" transform="translate(-139 -100)"/><path d="M545.254 504.353c1.051-.832 1.802-2.314 1.246-.986-.356.851-.91.185-1.246.986" style="fill:#f7839b" transform="translate(-139 -100)"/></svg>