<svg xmlns="http://www.w3.org/2000/svg" xml:space="preserve" style="fill-rule:evenodd;clip-rule:evenodd;stroke-linejoin:round;stroke-miterlimit:2" viewBox="0 0 555 1203"><path d="m434.753 446.115 2.85 1.013c1.942.967 1.927.967 2.098 1.044.442.201.409.041.866.248 7.466 2.697 7.747 4.643 12.994 6.861 1.013 1.207.908 1.125 2.24 1.869 3.024 1.637 2.799 1.743 5.7 3.348l1.205 1.833c3.518 3.517 3.525 3.377 7.054 6.874.466.495 4.358 4.629 5.904 6.104.144.168.96 1.115 1.576 2.284 1.46 2.209 1.172 2.38 3.351 3.745.203 1.275.199 1.24 1.176 1.996l.905 1.105c.533 1.438.637 1.302 9.1 16.874 1.157 1.808.996 1.882 1.115 2.025 1.042 2.318 11.866 26.391 12.523 29.195.758 3.236 2.084 6.353 2.311 6.888.178 2.65.041 2.627 1.166 4.972.827 3.036 1 2.862 1.864 6.004l.075 3.264c-5.673-1.961-9.709.585-10.337.827-12.479 4.137-12.347 4.002-25.062 7.796-13.343 3.981-20.44 5.035-23.469 7.295-4.718-.541-4.735.697-9.35-.433-5.543-1.358-13.051-41.234-9.798-64.572 1.841-13.216 2.495-13.126 8.624-22.119 5.938-8.71-12.701 3.755-13.356 35.03-.061 2.89-.518 9.407 1.021 31.065 2.637 18.74-.404 20.388 9.375 29.979 10.532 10.33 10.806 76.371.026 79.175-4.326 1.125-9.245 1.59-10.057 1.667-.214.02-.063.18-.894 2.536-42.861 7.897-83.13 5.934-107.925-4.895-6.795-5.627-7.693-5.579-8.384-14.49-.205-2.648-1.036-33.119-1.114-35.999 3.368-7.173-1.881-8.132 14.693-97.965 1.285-6.965.515-6.989 1.966-13.991.166-.798 5.032-24.281.497-10.163-5.756 17.915-11.207 48.079-14.5 62.382-.738-.445-32.928-19.87-10.244-3.333 3.239 2.362 9.146 4.712 9.977 5.042.692 5.294-1.013 5.73-2.181 7.331-1.912-1.069-1.862-.81-4.121-1.249l-.283-.315c-14.074-7.109-7.61-13.361.605-37.748 4.962-14.728 4.445-14.832 11.315-28.858 4.821-9.844 5.64-10.592 6.406-11.293.024-.018 1.433.244 2.19-2.914l.777-1.114c2.17-1.042 2.127-1.047 3.1-3.144.179-.115.098-.159 1.9-1.852 1.429-.739 1.4-.735 2.113-2.149 1.892-.381 3.66-2.598 3.903-2.902 1.778-.745 1.704-.678 3.188-2.034l1.837-.971c1.975-.602 1.768-.741 3.204-2.064 2.779-.165 2.261-1.553 5.002-1.984 3.268 4.216 2.847 11.807 5.03 11.798.491-.002.829-.651 1.32-.653 16.551 22.178 76.499-.924 76.529-17.868.002-1.22.181-1.072.404-2.397" style="fill:#fefaee;fill-opacity:1" transform="translate(-247 -130)scale(1.49023)"/><path d="M368.559 269.699c1.791 2.183.474 4.037.63 5.91 1.181 14.167 23.79 21.682 26.428 22.559 15.426 5.128 15.717 2.967 31.871 1.027 2.442-.293-2.225 12.361.35 22.232 6.943 26.609 21.965 24.407 19.667 29.075-5.768 11.716-4.473 12.072-5.9 19.001-1.084 16.862.053 18.14.949 17.102 1.58-1.83 13.601-15.752 26.89-13.803 33.177 4.865 12.315 64.888-24.076 52.013-2.223-.787-6.682-5.332-10.598 7.142-.751.676-.546.647-.686 1.575-.184 1.396-.168 1.322.066 2.713-.505.609-2.831 3.416.603 9.87-.223 1.325-.402 1.177-.404 2.397-.03 16.944-59.978 40.046-76.529 17.868-.233-.865-2.772-10.323-.734-11.169 1.971-.818 15.175 7.489 46.319-7.912.499-.247 33.493-17.49 5.138-4.69-12.059 5.443-20.28 4.226-51.261 6.087-3.053-1.338-3.127-.758-7.969-.923-1.086-.38-6.269-2.192-13.819-3.947-1.884-1.538-1.836-1.543-4.257-1.843-.133-.075-.32.147-.453.072-.107-.06 0 0-1.254-.879-1.993-1.144-1.827-1.206-4.091-1.593-2.439-1.747-2.693-1.097-5.07-2.787-3.082-2.189-2.776-2.609-5.777-3.39-6.917-4.612-9.514-6.927-10.277-7.608-1.311-.492-1.23-.414-2.317-1.418-.667-1.453-.562-1.445-1.826-2.531-.787-1.247-.702-1.124-1.595-2.418-.923-1.665-.959-1.51-2.328-2.798-3.462-4.4-3.333-4.386-3.984-4.867-.026-2.961-.57-2.717-2.007-5.237-.435-2.198-.575-2.058-1.379-4.206-.456-1.217-.98-8.558-1.594-11.811.164-.528 1.114-3.59.402-6.892.633-3.114.87-2.955 1.49-6.132l1.015-3.113c.466-3.682 8.789-15.373 4.131-26.756.135-2.914 1.578-6.918-1.939-12.142.132-2.216.309-2.273-1.007-3.928.341-1.158 2.369-8.027-1.2-15.043l.153-7.009c.224-.59 1.384-.407 1.608-.997 1.591-4.198-.2-4.622 3.865-14.862 7.63-19.219 28.671-32.011 27.552-28.151-.618 2.135-8.205 16.026 14.073 31.246 5.545 3.788-4.958-5.82-3.315-18.3 1.056-8.029 1.721-8.052 2.394-8.075 5.173-.174-8.409 11.366 16.033 27.069 8.248 5.299-1.523-3.305-2.633-12.96-.028-.239-1.359-13.278 2.077-2.182 4.094 13.219 33.473 23.896 24.528 16.205-3.717-3.197-9.515-14.497-8.814-22.903.282-3.378-3.268-3.455-1.082-6.013.101-.118 0 0 1.943.125" style="fill:#fec4a0;fill-opacity:.99" transform="translate(-247 -130)scale(1.49023)"/><path d="M322.437 227.494c1.148-.609 1.065-.427 2.315-.488 18.117 13.855 20.277 8.937 51.731 5.428l3.033-.273c7.93-.267 7.873-1.252 23.02.651l3.011.424.992.089c7.722.642 7.467 1.338 14.991 2.969 5.623 1.771 5.591 1.746 6.073 1.913 13.063 4.526-.773-4.926-.831-4.975-.511-.28-3.894-2.497-4.341-2.582-.281-.054-6.347-1.208-1.873-3.049 1.95-.047 1.794-.039 1.95-.047 1.007-.05.91-.17 2.004-.225l2.969-.019c4.011.638 3.939.521 8.017 1.196 3.637.721 3.594.516 7.029 1.855 2.483.527 2.439.569 2.656.593.221.153 11.15 5.597 13.296 6.612.922 1.168.819 1.116 2.052 1.905 2.22 1.756 1.937 1.875 4.25 3.725 6.436 5.15 6.697 15.026 9.522 7.266l.771-4.044c-.137-2.046.045-1.918-.596-3.914.676-1.127.802-.898 2.064-1.244 3.159 1.986 2.924 2.117 5.92 4.315.232.32 1.619 2.23 2.894 3.999 3.884 4.599 2.425 10.99 2.209 11.937-1.943 3.638-3.244 5.262.846 6.134 9.498 6.458 9.526 6.331 11.858 8.259l.883.964c3.141 2.327 4.047 4.359 10.192 11.774l2.657 5.015c1.787 2.933 1.788 2.833 3.386 5.9l1.054 2.955c2.908 8.413 2.545 8.433 5.01 17.002.461 8.309.441 8.258.526 9.042l.405 2.987c.133 3.666.104 3.642.141 3.957-.037 9.139-.769 14.139-1.084 19.004l-.689 4.068c-5.497 27.806-14.971 37.642-19.38 43.857-1.669 1.305-1.621 1.258-2.874 3.066-2.764 2.98-2.766 2.755-2.995 3.006-1.111.882-1.021.767-2.031 1.953-10.408 9.762-21.883 13.196-23.885 15.219-1.681-.079-1.613-.052-3.134.57l-.923.311-3.008 1.134c-2.778.449-2.738.306-5.206 1.57a26 26 0 0 0-3.79.55c-3.203.59-2.939 1.209-6.175 1.346a34 34 0 0 0-3.854.516l-4.873.296c-2.861.383-2.778.291-3.017.333l-2.835-.342c3.916-12.474 8.375-7.929 10.598-7.142 36.391 12.875 57.253-47.148 24.076-52.013-13.289-1.949-25.31 11.973-26.89 13.803-.896 1.038-2.033-.24-.949-17.102 1.427-6.929.132-7.285 5.9-19.001 2.298-4.668-12.724-2.466-19.667-29.075-2.575-9.871 2.092-22.525-.35-22.232-16.154 1.94-16.445 4.101-31.871-1.027-2.638-.877-25.247-8.392-26.428-22.559-.156-1.873 1.161-3.727-.63-5.91-1.943-.125-1.842-.243-1.943-.125-2.186 2.558 1.364 2.635 1.082 6.013-.701 8.406 5.097 19.706 8.814 22.903 8.945 7.691-20.434-2.986-24.528-16.205-3.436-11.096-2.105 1.943-2.077 2.182 1.11 9.655 10.881 18.259 2.633 12.96-24.442-15.703-10.86-27.243-16.033-27.069-.673.023-1.338.046-2.394 8.075-1.643 12.48 8.86 22.088 3.315 18.3-22.278-15.22-14.691-29.111-14.073-31.246 1.119-3.86-19.922 8.932-27.552 28.151-4.065 10.24-2.274 10.664-3.865 14.862-.224.59-1.384.407-1.608.997-.035-9.258-.038-9.199-.038-9.999-.002-11.959.4-11.839 4.218-22.995l2.098-4.921c7.478-10.435 9.488-11.153 9.646-11.287.338-.229 3.064-2.076 4.131-2.984l1.018-.922c4.176-2.233 8.947-2.871 4.418-4.38-1.923-.642-3.736-1.01-9.327-8.508-1.893-11.569.828-12.029 1.132-11.183 2.358 6.558 3.736 5.525 8.977 9.994 2.402.889 2.203 1.002 4.813 1.492 6.369 1.848 15.839 2.413 10.483-.761-.439-.26-.336-.293-5.13-3.771-.92-1.09-1.884-2.731-2.03-2.979-.995-2.451-1.156-2.207-2.158-4.796z" style="fill:#da8562;fill-opacity:.99" transform="translate(-247 -130)scale(1.49023)"/><path d="M467.49 697.497c-.583 4.548-.62 4.413-.69 9.014-1.995 3.201-1.904 3.23-1.98 7.074l-.158 2.928-1.722 5.094-.284 3.902c.185 1.527.163 1.441.555 2.856-2.962 4.735-1.771 11.132-1.593 12.091-1.804 2.275-1.582 2.42-.932 5.156-1.345 3.284 1.154 3.379.256 6.9-.556 2.181 1.993 7.508 2.284 8.117l-.438 2.874.44 1.151c-.023 2.495-.174 2.412.633 4.875 2.201 13.505.859 13.456.013 34.948l-.941 4.128c-.388 7.662-.409 7.528-2.049 14.946-.052.234.054.215.734 2.907-1.487 1.882-1.707 1.974-.803 4.129l-.963 6.833 1.028 3.131c.105 10.961 2.455 12.197-5.295 20.037-2.385.243-2.125.641-4.061 2.168-4.153.296-3.91 1.036-7.904 2.057-2.252.563-2.151.523-4.101 1.968-1.156.048-5.534.226-13.893 4-5.098.22-4.979.47-10.082.321 1.15-1.602 1.188-1.449 1.15-1.602-.606-2.413-.801-2.406.161-4.772 1.103-2.713 3.737-3.453 3.791-4.197.077-1.055-3.777-3.067-8.099 10.462l-3.194-.095c-2.386-8.566 3.661-9.403 1.055-11.246-.025-.018-8.651 2.991-4.943 10.179l-4.066.851-1.768-1.569c.148-1.613.158-1.484.148-1.613-.581-7.274 4.786-5.908 4.051-10.162-.946-5.473-6.067 8.084-10.451 10.499l-.94-.092-.18-.776c1.011-5.006.713-5.051 3.44-9.346 2.076-3.269-4.398-2.406-6.535 7.371-8.811-7.228 2.21-14.062 10.374-20.464 2.257-1.454 2.553-1.008 3.839-3.257.255-.119.105-.207 2.956-1.909 1.434-1.709 1.799-1.208 3.016-3.077 4.03-3.661 2.92-4.284 2.839-9.703.457-1.487.619-2.014-3.612-19.105-.142-.575-1.203-2.674-1.318-2.902l-.447-.259c-.192-1.505-.166-1.4-.947-2.763l.038-1.241c.18-1.51.1-1.369-.331-2.842l-.498-.781c-.703-4.435.108-4.711-2.882-8.18-.024-3.023.411-3.059-.957-5.811-.776-4.457.644-5.061-3.143-9.081l-.364-.204c.271-1.548.187-1.408-.064-2.929-1.38-5.021-.608-5.198-3.452-9.706.038-.695 1.11-.79-.61-5.323l-.653-1.999c-.813-4.138-.566-4.066-2.045-8.09.126-1.542.054-1.398-.566-2.854-7.756-33.02-7.547-34.106-4.943-35.261 1.687-.75 7.495 1.461 47.185-20.592 7.249-4.028 8.043-2.856 13.006 1.74 10.824 10.023 17.23 5.579 21.905 9.096" style="fill:#fec4a0;fill-opacity:.99" transform="translate(-247 -130)scale(1.49023)"/><path d="M207.545 108.225c22.52.047 22.385-.555 44.993.078 2.754.077 1.84 1.275 1.565 4.095-.148.056.047.248-1.583 1.191l-.988.06c-2.027-.173-1.924-.181-4.03-.039-2.614.019-2.444.023-5.001.017l-.971.052-4.022-.351-1.011.213-4.002-.007-1.992-.016c-.243.04-.177-.033-3.057.292l-2.904-.087c-2.19-.529-2.209-.388-4.094.984-2.729-1.638-2.672-1.768-2.947-1.769-3.432-.008-3.242 1.447-3.919 1.75l-.738.143c-1.654 3.13-1.024 12.051-.2 14.596-.36 3.197.793 3.293 3.918 2.725 9.462.505 8.987 2.555 8.616 3.19-1.513 2.586-2.235 1.218-10.651 1.404-1.913.043-2.548 3.35-2.57 3.782-.551 10.9-1.111 14.482 5.483 14.611l4.081.004c25.596.398 26.146-.429 27.223 1.224.726 1.115 3.273-1.113 3.397.174.116 1.195-3.207 1.861-3.361 2.082-1.937 2.77-17.275.792-33.277 1.294-1.343.042-6.511.204-2.869 16.552.174 1.132.166 1.024.945 1.768 1.472-.233 1.364-.369 2.913.166l3.005.077c2.903.331 2.914.021 5.517 1.249 1.257 5.878-3.9 1.676-11.302 4.224l-.927.643c-1.269 6.119-1.606 17.507.761 17.636 31.76 1.737 33.954-1.581 35.343 3.202l-1.362 2.372c-4.565-.105-26.507-.114-28.96.012-1.635-.265-1.559-.255-3.131.002-2.466.167-2.633-.188-3.048.59-1.42 2.663-.634 2.792.074 15.103l1.19 2.91c-.534 1.126-1.807 1.124-.753 1.589.872.385.916-.243 1.72.113 7.76.744 12.498-1.243 10.305 3.574-.641.117-.598.091-6.425.674-2.24-.087-2.18-.406-5.002.117-2.36 2.586-2.287 18.306-.151 18.508 11.078 1.05 32.362-1.035 35.47 1.251l.538 3.124c-3.098 3.203-19.065-.319-24.812 2.235-1.994-1.042-2.068-1.053-4.083 0-6.408-.762-8.289-2.79-8.413.804-.289 8.332-.845 14.172 2.374 15.371 4.912.915 4.844.713 9.825.021 2.046 2.304 1.27 3.65 1.271 3.7-1.087.4-.852.769-2.09.769-.16 0 0 0-1.782.892l-1.102-.339c-1.653-.105-1.519-.088-3.121.067-4.506.491-5.288-.255-5.361 1.509-.611 14.787-.538 18.73 4.443 18.749 6.149.024 42.401-1.305 33.434 3.707-5.714 3.192-37.762-2.234-37.896 3.592-.019.807-1.119 16.707 2.483 16.823 3.531.114 3.471-.076 6.924.773 1.747-.244 1.686-.351 3.292.218.19.31 1.386.332-.182 3.278l-3.06.05-1.027.09c-6.21.285-7.695-1.732-8.507 1.865-.013.058.055 15.789.078 16.001.331 3.035 3.339 3.48 3.482 3.483 7.761.154 7.626-.256 10.076-.338 1.442-.139 1.371-.137 2.8-.001 7.195 1.22 19.863-.834 20.347.675.769 2.397 2.938 1.88 1.932 3.265-.396.545-.595.282-18.206.372l-1.967-.204c-14.935.232-18.457-.104-18.532 2.734-.419 15.905 1.31 15.706 1.573 15.709 3.087.03 2.977-.138 6.014-.279 2.055 1.379 4.656 1.41 5.077 1.415.95 1.367.784 1.33.682 3.064-1.038.327-1.03.159-1.85.865l-1.903.483c-4.046.078-3.956-.064-7.967-.005-.572 1.312-3.458 7.934-1.55 17.814.406 2.103 4.371 1.615 29.45 1.611 5.389-.001 8.902-1.673 7.073 3.312l-.21 1.714c-7.834 2.118-9.418-1.776-16.856.284-1.235.342-1.233-.692-16.004-.659-5.758.013-3.71 15.169-2.669 17.404l-.08 1.968c.559.241 1.266-.278 1.826-.037 3.605.007 15.315-1.586 8.781 5.075-7.989-1.774-11.445-2.98-11.407 5.231.002.416-1.649 14.596 3.567 14.675 30.022.454 34.768-2.793 33.233 3.395-.96 3.871-36.63-2.137-36.773 3.957-.247 10.509.339 12.161.818 13.851-.019 2.78 1.268 1.211 1.77.983l5.921.914c.252.021.151-.099 3.157-.008 1.932 1.541 2.141 1.608 1.542 4.049l-2.63.445c-1.628-.121-1.545-.106-3.14.117-5.436.087-7.383-.73-7.399 4.613-.008 2.685-1.239 15.704 2.499 15.767 31.284.522 35.223-2.302 34.245 3.327-.701 4.036-36.57-2.095-36.71 3.865-.369 15.674.641 15.505.785 15.798l1.757 1.894c1.427.019 15.493-1.471 8.78 4.073l-1.836 1.387c-1.552-.689-1.524-.711-3.081.066l-1.918-.004c-2.431-1.249-3.591-1.807-3.875.944-1.263 3.796-.899 16.039.135 16.451 5.977 2.385 35.444-1.635 35.935 1.348 1.162 7.06-2.969 4.276-10.235 4.269-21.619-.02-26.373-.538-26.449 1.738-.021.609-1.221 15.778 2.475 15.832 9.245.135 10.114-1.104 10.93 1.272 1.188 3.46-7.227 3.292-7.912 3.278-8.015-.16-5.483 3.62-5.524 11.701-.004.764-.043 8.417 2.384 9.246 3.188 1.087 33.798-1.394 34.401 1.69.973 4.976-6.542 2.191-15.282 2.506-16.546.595-21.341-2.147-21.469 4.516-.095 4.924-.396 10.178.625 12.926-.167 2.001-1.002 3.044.922 2.737.513-.082.689-.909 1.201-.991l7.649.945 1.875-.319c2.395 1.923 1.112 3.193 1.027 3.665-2.514.457-2.424.312-4.879 1.146-11.555-3.506-8.78 3.776-8.503 15.905.088 3.859 9.822 2.696 26.528 2.735 7.187.017 11.307-2.817 10.273 4.394-.357 2.488-33.062.527-35.963 1.321-.87.238-2.76 18.018 2.606 18.163l3.133.064.904.002c.417.072 2.491.43 5.285.047 3.457 4.431-1.143 3.475-8.24 4.464-6.863.958-3.598 3.967-4.448 10.799-1.761 14.144 6.989 7.806 35.512 9.756 5.658.387 1.611 6.414-4.092 5.56-13.593-2.036-13.685 1.073-17.989-.217-5.371-1.61-5.38-.258-10.95.238-.122-.059-1.566-2.266-1.828.762l-.248 3.925c-.028.463-1.864 7.071.719 10.263-.481 2.17-.797 2.648 1.426 3.389.628-.017.614.063 7.86.058l3.365 1.295c-1.766 6.681-15.292-.212-13.845 7.987 1.545 8.757-2.809 13.612 4.481 12.518 2.218-.333 2.081-.012 28.038.001 2.729.001 2.86-.184 4.538 1.965-.319 1.388.04 1.353-.203 2.731-2.559 2.074-13.929.841-34.302 1.144-2.637.039-1.866 9.81-1.813 15.645.036 3.982 15.817-1.476 11.803 7.063l-.994.189c-9.333.145-9.824-.705-10.684.906-.112.211-.062.102-.132 11.864-.003.612-.038 6.533 3.792 6.657 25.638.823 27.713.076 29.969-.737 1.985.972 2.005.84 2.168.934 2.043 1.919 3.313 2.809.711 3.879-1.056.433-1.088.484-20.769.666-1.576-.159-1.439-.176-3.123-.08l-.911.009c-2.633-.487-2.539-.493-5.142.088-4.998.051-7.072-1.45-7.425 3.608-.083 1.181-1.015 14.523 2.56 14.581 11.026.177 11.083 1.503 10.884 2.371-.024.107 0 0-.846 1.079-3.144 1.547-12.214-1.96-11.788 3.131-1.847 5.152.024 5.266-.74 10.77-1.185 8.538 14.934 3.022 22.678 5.683.007.114.006.005-.109 3.677-15.013.162-21.853-.407-21.909 2.702-.146 8.068-.155 7.934-.709 15.948-.174 2.527-1.041 1.885-3.475 2.204l-3.118-.075c-2.399-3.155-.583-18.397-1.25-75.044l-.001-3.108c.2-14.077.128-13.906.029-27.929-.006-2.166-.133-2.007-.746-4.037 1.2-4.283.768-4.394.827-243.98.002-5.068-.05-4.942-.101-9.946l-.005-3.107-.002-3.893.002-3.106c.05-5.271.298-31.329.001-65.895l-.005-3.107c.092-6.493.144-6.387.012-12.893l.01-4.07c.066-8.499.173-8.4-.016-16.929v-3.107l.065-10.894c.524-2.629.34-2.5-.04-5.089.268-39.586.153-39.447.038-78.91.269-1.568.278-1.494.009-3.107.041-24.96.393-25.014-.809-27.921.588-1.575.579-1.544.003-3.051.589-7.732 1.033-7.663.722-26.92l.035-3.088c.045-6.554.188-27.374.051-81.916.251-1.617.242-1.542-.001-3.101l-.065-11.916-.315-2.922.38-2.165c.385-.23.376-.188 3.307-1.222" style="fill:#fcc6a4;fill-opacity:.96" transform="translate(-247 -130)scale(1.49023)"/><path d="M319.214 676.507c28.055 29.671 34.08 21.393 47.959 32.418 20.102 15.967 17.687 42.516 20.843 47.575.38.609 1.572.303 1.952.912.347 2.637.461 2.508 1.211 5.046.593 5.525.858 25.118.058 30.04l-2.107 6.929c-.416 2.18.525 1.938.866 3.197l-.112.917c-.646 1.435-.884 1.282-.828 2.741l-.553.219c-.907 1.983-.93 1.888-.801 4.062-.061.886-.167.787-1.937 10.938-.187 3.082-.093 2.926.01 5.999 3.465 19.598-2.35 20.314-4.193 22.084-2.742.5-2.561.758-5 2.235-3.057 1.302-3.145.622-6.309 1.378l-.867.163c-1.666.314-1.524.38-2.869 1.472l-.918.054c-.691-.236-3.514-1.203-9.062 1.059l-.964.74c-2.05-.709-2.031-.698-4.09.074-2.679.606-12.189 2.237-15.073 3.387-1.481-.4-1.369-.447-2.999-.433l-2.072-.796c-6.384-10.794 11.33-12.121 7.961-13.987-4.562-2.529-13.771 11.26-14.82 10.884-4.307-1.54 2.639-9.402 3.143-10.263 4.941-8.441-5.446 3.89-9.054 8.758l-2.071-.826c5.774-9.879 7.238-8.958 7.331-9.941.098-1.028-3.183-3.447-9.318 8.918-.245-.331-10.269-8.75 6.817-17.231 1.956-1.231 2.201-.632 4.061-1.966l.304-.424c3.163-.527 3.144-.502 5.654-2.669 4.246-2.041 3.986-2.219 7.833-4.909 1.571-1.14 1.81-.941 2.279-2.792 1.135-.8 2.578-.879.697-11.858-1.942-5.484.125-6.139-3.085-10.999-3.081-5.973-.269-6.458-1.959-12.991.07-3.707-.403-3.489-1.528-7.152-.53-5.324-.7-5.229-3.145-9.959-.007-.103.306-2.783-1.683-6.074.194-1.189.823-5.026-2.648-14.834l-.892-3.012-.469-4.154c-.88-3.343-.129-3.565-2.687-6.86.117-1.127.62-1.069.216-2.078-.194-.484.121-.399-.123-1.008-.121-1.551-.236-1.421-.94-2.807-.093-1.812-.127-1.706-1.064-3.173-.001-.956-.007-5.956-1.056-11.906.406-5.824-.736-11.186-.939-12.139l-.921-4.879c.603-2.053.452-1.959.367-4.091-.437-4.652-.487-4.617-.477-5.021.029-4.533-.494-4.402-.982-8.951z" style="fill:#fec39f;fill-opacity:.99" transform="translate(-247 -130)scale(1.49023)"/><path d="M501.805 563.545c.159 12.17 1.97 14.077.977 37.935l-.089 3.033c-1.202 6.526-.805 6.414-1.004 12.982-.231 2.144-.211 1.986-.783 4.108-1.333 8.007-.739 8.003-2.095 15.928-.109.637-.973 5.69-1.16 7.992l.155 4.024c.107 12.701 3.358 12.671.482 24.9-.48 1.586-.497 1.468-.619 3.119l-.852 2.034c-.977 1.497-.915 1.385-1.121 3.141l-.785.121c-.405-.473-2.36-.316-2.023-4.382.413-4.974.552-4.949.322-5.854-.9-3.545-1.757 2.575-1.794 2.841-1.171 8.368-.916 8.389-1.258 9.033-1.086 2.044.412 1.811.528 2.319l-1.097.782c-.259.091-.216.119-3.086 1.502l-1.012.38-2.025-.073c.64-4.288 1.312-3.969 2.562-8.112 4.024-13.332-6.7 7.078-4.43 8.66.273.191.694-.442.968-.251l-2.865 1.239c-1.129.794-1.06.742-2.148 1.639l-4.131-.709c-1.782-4.333 1.936-8.424 1.877-13.366-.129-10.871-1.085 2.905-5.948 12.563l-.84.436c-1.058-.349-.888-.641-1.896-.626-14.297.221-2.956-17.706-4.371-29.316-1.462-11.993-1.823 16.825-7.878 20.676-12.454 7.921-2.145-26.676-2.061-26.996 7.296-7.459 5.819-15.627 4.977-28.729-1.68-26.13-1.38-26.016-4.587-52.049 42.106-8.332 42.918-17.279 49.11-10.924" style="fill:#fec5a1;fill-opacity:.99" transform="translate(-247 -130)scale(1.49023)"/><path d="M318.892 661.48c.854.666.423 1.121 1.608 1.253 2.783.311 34.615 14.747 97.037 5.022 12.471-1.943 21.466-6.82 21.364-3.316-.059 2.023-.391 4.032-.45 6.055l-.951.652c-2.435.641-50.948 27.227-59.993 34.006-26.378-3.526-34.208-8.47-58.099-33.602z" style="fill:#fbf0e8;fill-opacity:.99" transform="translate(-247 -130)scale(1.49023)"/><path d="M306.213 554.577c2.259.439 2.209.18 4.121 1.249 6.899 4.856 1.057 6.868-1.24 41.691-3.549 6.283-3.481 34.434-1.805 42.021 1.083 4.904 6.58 24.409-1.82 21.036-6.603-2.652-7.971-31.209-8.84-20.046-.845 10.845 1.006 10.526 4.092 20.91 1.413 4.755 2.71 5.158-.269 9.206-2.948-.929-2.795-.964-3.042-1.036-3.096-1.873-2.633-2.259-5.153-4.78-.463-1.998-.597-1.808-2.025-3.297l-1.011-3.896c-.96-2.927-.971-2.903-1.037-3.161-.135-.533.187-.479.06-.976-.006-4.413-.078-4.252-.42-12.105.231-1.39.227-1.294-.003-2.642 2.782-2.934 2.011-3.269 2.482-7.285.678-1.38.742-1.296.593-2.783 4.024-4.871 5.278-20.382 5.425-22.205.689-8.52 1.886-8.259 1.905-8.995.044-1.626.215-8.07 3.825-19.972l.151-3.096c1.163-7.537 1.812-7.328 2.496-14.904l1.052-1.914c.404-1.542.43-1.428.463-3.02" style="fill:#fec29d;fill-opacity:.98" transform="translate(-247 -130)scale(1.49023)"/><path d="M452.305 655.247c-.084.32-10.393 34.917 2.061 26.996 6.055-3.851 6.416-32.669 7.878-20.676 1.415 11.61-9.926 29.537 4.371 29.316 1.008-.015.838.277 1.896.626-.63 2.041-.552 1.913-.624 4.108l-.397 1.88c-4.675-3.517-11.081.927-21.905-9.096-4.963-4.596-5.757-5.768-13.006-1.74-39.69 22.053-45.498 19.842-47.185 20.592-2.604 1.155-2.813 2.241 4.943 35.261-1.256 4.426-.387 10.59-.369 14.898-.38-.609-1.572-.303-1.952-.912-3.156-5.059-.741-31.608-20.843-47.575-13.879-11.025-19.904-2.747-47.959-32.418l.075-3.869.119-1.088c23.891 25.132 31.721 30.076 58.099 33.602 1.568.118 1.531.072 6.985.096 19.524-4.056 18.151-7.447 54.222-25.429 4.609-2.333 6.507-1.242 7.475-8.367 1.033-7.603 1.287-7.422 2.254-15.125z" style="fill:#f99d7c;fill-opacity:.99" transform="translate(-247 -130)scale(1.49023)"/><path d="M429.099 548.55c1.291-2.134 1.729-4.451 2.616-2.05.15.406 2.341.634.785 5.427-.661 2.034 4.235 34.145 19.734 20.628l.461 1.914c3.207 26.033 2.907 25.919 4.587 52.049.842 13.102 2.319 21.27-4.977 28.729l-3.862 1.08c-1.482.462-4.419 2.079-20.894 5.58.831-2.356.68-2.516.894-2.536.812-.077 5.731-.542 10.057-1.667 10.78-2.804 10.506-68.845-.026-79.175-9.779-9.591-6.738-11.239-9.375-29.979" style="fill:#fcf4df;fill-opacity:1" transform="translate(-247 -130)scale(1.49023)"/><path d="M448.443 656.327c-.967 7.703-1.221 7.522-2.254 15.125-.968 7.125-2.866 6.034-7.475 8.367-1.935-4.457-.759-4.56-.263-9.325.059-2.023.391-4.032.45-6.055.102-3.504-8.893 1.373-21.364 3.316-62.422 9.725-94.254-4.711-97.037-5.022-1.185-.132-.754-.587-1.608-1.253-.533-3.906.139-3.693.732-4.468 24.795 10.829 65.064 12.792 107.925 4.895 16.475-3.501 19.412-5.118 20.894-5.58" style="fill:#e9d3cf;fill-opacity:.99" transform="translate(-247 -130)scale(1.49023)"/><path d="M309.094 597.517c.347 5.084-.05 5.047 1.032 9.006.078 2.88.909 33.351 1.114 35.999.691 8.911 1.589 8.863 8.384 14.49-.593.775-1.265.562-.732 4.468l.516 10.07-.119 1.088-.813-.093c-4.58-.118-4.483.77-9.026.247 6.718-9.728-3.86-9.639-3.833-7.276.044 3.732 1.717 3.264 1.895 6.916l-2.058.265-5.002-2.053c2.979-4.048 1.682-4.451.269-9.206-3.086-10.384-4.937-10.065-4.092-20.91.869-11.163 2.237 17.394 8.84 20.046 8.4 3.373 2.903-16.132 1.82-21.036-1.676-7.587-1.744-35.738 1.805-42.021" style="fill:#fb9f7c;fill-opacity:.99" transform="translate(-247 -130)scale(1.49023)"/><path d="M312.782 546.786c3.293-14.303 8.744-44.467 14.5-62.382 4.535-14.118-.331 9.365-.497 10.163-1.451 7.002-.681 7.026-1.966 13.991-16.574 89.833-11.325 90.792-14.693 97.965-1.082-3.959-.685-3.922-1.032-9.006 2.297-34.823 8.139-36.835 1.24-41.691 1.168-1.601 2.873-2.037 2.181-7.331zm116.317 1.764c-1.539-21.658-1.082-28.175-1.021-31.065.655-31.275 19.294-43.74 13.356-35.03-6.129 8.993-6.783 8.903-8.624 22.119-3.253 23.338 4.255 63.214 9.798 64.572 4.615 1.13 4.632-.108 9.35.433l.276 2.976c-15.499 13.517-20.395-18.594-19.734-20.628 1.556-4.793-.635-5.021-.785-5.427-.887-2.401-1.325-.084-2.616 2.05" style="fill:#fcf4df;fill-opacity:1" transform="translate(-247 -130)scale(1.49023)"/><path d="M357.282 448.696c30.981-1.861 39.202-.644 51.261-6.087 28.355-12.8-4.639 4.443-5.138 4.69-31.144 15.401-44.348 7.094-46.319 7.912-2.038.846.501 10.304.734 11.169-.491.002-.829.651-1.32.653-2.183.009-1.762-7.582-5.03-11.798 1.605-.136 1.597.027 2.921-.884 3.949-.694 3.872-1.715 2.891-5.655" style="fill:#fca476;fill-opacity:.99" transform="translate(-247 -130)scale(1.49023)"/><path d="M438.451 670.494c-.496 4.765-1.672 4.868.263 9.325-36.071 17.982-34.698 21.373-54.222 25.429 6.93-8.013 28.305-17.672 39.846-24.985 7.08-4.486 8.479-2.581 13.162-9.117z" style="fill:#fbf0e9;fill-opacity:.99" transform="translate(-247 -130)scale(1.49023)"/><path d="m500.489 554.488 1.258 6.18c.142 1.469-.108 1.333.058 2.877-6.192-6.355-7.004 2.592-49.11 10.924l-.461-1.914-.276-2.976c3.029-2.26 10.126-3.314 23.469-7.295 12.715-3.794 12.583-3.659 25.062-7.796" style="fill:#fdaa87;fill-opacity:1" transform="translate(-247 -130)scale(1.49023)"/><path d="M345.693 461.559c.167-.005 2.093-2.42 1.832.942-1.559 20.107 31.464 29.641 63.115 16.318 26.322-11.081 30.912-23.935 32.028-24.072.296-.036 2.239.106-.241 3.713-21.241 30.896-96.828 43.845-96.734 3.099" style="fill:#fcf4df;fill-opacity:1" transform="translate(-247 -130)scale(1.49023)"/><path d="M377.507 705.152c9.045-6.779 57.558-33.365 59.993-34.006-4.683 6.536-6.082 4.631-13.162 9.117-11.541 7.313-32.916 16.972-39.846 24.985-5.454-.024-5.417.022-6.985-.096" style="fill:#e6d1cb;fill-opacity:.99" transform="translate(-247 -130)scale(1.49023)"/><path d="M455.547 397.151c.925-.123 10.727-1.424 9.048 7.37-1.375 7.199-2.826-2.773-3.933-3.28-6.554-3.006-8.434 6.748-9.195 7.187-5.647 3.265.945-20.214 12.125-21.503 10.844-1.251 13.019 8.625 10.402 7.081-1.936-1.141-.923-2.628-6.468-4.579-3.574-1.258-11.959 2.869-11.979 7.724" style="fill:#dd825d;fill-opacity:.99" transform="translate(-247 -130)scale(1.49023)"/><path d="M442.853 561.928c23.995-3.226 61.978-20.117 61.781-15.385-.085 2.029-1.738.013-24.21 7.616-4.585 1.551-34.056 10.519-36.811 9.049-.437-.233-.322-1.046-.76-1.28" style="fill:#fcf4df;fill-opacity:1" transform="translate(-247 -130)scale(1.49023)"/><path d="M318.589 854.309c3.608-4.868 13.995-17.199 9.054-8.758-.504.861-7.45 8.723-3.143 10.263 1.049.376 10.258-13.413 14.82-10.884 3.369 1.866-14.345 3.193-7.961 13.987-4.671-.262-4.484-.752-8.914-2.185-1.761-1.465-1.682-1.406-3.856-2.423" style="fill:#f59174;fill-opacity:.97" transform="translate(-247 -130)scale(1.49023)"/><path d="M307.849 395.702c1.055.872 1.302.47 1.898 1.569 5.664 10.435 17.647-.923 18.135 2.12 1.186 7.412-20.496 10.569-20.033-3.689" style="fill:#e1845f;fill-opacity:1" transform="translate(-247 -130)scale(1.49023)"/><path d="M510.826 553.661c-2.535 4.639-3.458 3.675-7.192 6.999l-1.887.008-1.258-6.18c.628-.242 4.664-2.788 10.337-.827" style="fill:#fcf4df;fill-opacity:.96" transform="translate(-247 -130)scale(1.49023)"/><path d="M312.149 376.32c-2.064 7.027 7.214 12.172 1.351 10.18-6.332-2.15-5.785-20.401 5.733-12.643.142.095 2.185 2.93-1.663 1.332-2.917-1.212-3.296-1.314-5.421 1.131" style="fill:#df7e5a;fill-opacity:.99" transform="translate(-247 -130)scale(1.49023)"/><path d="M393.379 867.837c4.384-2.415 9.505-15.972 10.451-10.499.735 4.254-4.632 2.888-4.051 10.162.01.129 0 0-.148 1.613-2.058-.794-1.975-.831-4.242-.338z" style="fill:#f79879;fill-opacity:.98" transform="translate(-247 -130)scale(1.49023)"/><path d="M307.512 672.432c-.178-3.652-1.851-3.184-1.895-6.916-.027-2.363 10.551-2.452 3.833 7.276z" style="fill:#febb95;fill-opacity:.99" transform="translate(-247 -130)scale(1.49023)"/><path d="M405.465 869.831c-3.708-7.188 4.918-10.197 4.943-10.179 2.606 1.843-3.441 2.68-1.055 11.246z" style="fill:#f69576;fill-opacity:.98" transform="translate(-247 -130)scale(1.49023)"/><path d="M467.5 470.965c-4.663 1.181-9.259 1.069-14.407 6.09-1.013.988-2.248-.35-1.367-1.391 4.138-4.889 14.267-7.026 14.774-6.565.522.475.478 1.391 1 1.866" style="fill:#fcf4df;fill-opacity:1" transform="translate(-247 -130)scale(1.49023)"/><path d="M494.911 682.862c-1.652 2.451-1.584 2.458-4.225 3.957-.116-.508-1.614-.275-.528-2.319.342-.644.087-.665 1.258-9.033.037-.266.894-6.386 1.794-2.841.23.905.091.88-.322 5.854-.337 4.066 1.618 3.909 2.023 4.382" style="fill:#f79979;fill-opacity:.96" transform="translate(-247 -130)scale(1.49023)"/><path d="M483.982 390.579c-10.521 1.589-7.696-5.09-5.62-5.338 4.544-.544 3.734 1.297 5.62 5.338" style="fill:#fec5a0;fill-opacity:.99" transform="translate(-247 -130)scale(1.49023)"/><path d="M389.164 864.994c2.137-9.777 8.611-10.64 6.535-7.371-2.727 4.295-2.429 4.34-3.44 9.346l-1.964-.271c-.206-.314-.237-.09-.496-.484-.06-.092 0 0-.635-1.22" style="fill:#f69376;fill-opacity:.96" transform="translate(-247 -130)scale(1.49023)"/><path d="M469.351 691.073c4.863-9.658 5.819-23.434 5.948-12.563.059 4.942-3.659 9.033-1.877 13.366z" style="fill:#f99777;fill-opacity:.99" transform="translate(-247 -130)scale(1.49023)"/><path d="M412.547 870.993c4.322-13.529 8.176-11.517 8.099-10.462-.054.744-2.688 1.484-3.791 4.197-.962 2.366-.767 2.359-.161 4.772.038.153 0 0-1.15 1.602-1.502-.13-1.401.033-2.997-.109" style="fill:#f59073;fill-opacity:.95" transform="translate(-247 -130)scale(1.49023)"/><path d="M314.531 852.46c6.135-12.365 9.416-9.946 9.318-8.918-.093.983-1.557.062-7.331 9.941l-.8-.136z" style="fill:#f2896e;fill-opacity:.99" transform="translate(-247 -130)scale(1.49023)"/><path d="M482.566 689.707c-.274-.191-.695.442-.968.251-2.27-1.582 8.454-21.992 4.43-8.66-1.25 4.143-1.922 3.824-2.562 8.112z" style="fill:#f6886b;fill-opacity:.99" transform="translate(-247 -130)scale(1.49023)"/><path d="m312.782 546.786-.267 1.709c-.831-.33-6.738-2.68-9.977-5.042-22.684-16.537 9.506 2.888 10.244 3.333" style="fill:#fcf4df;fill-opacity:1" transform="translate(-247 -130)scale(1.49023)"/><path d="M349.313 447.773c4.842.165 4.916-.415 7.969.923.981 3.94 1.058 4.961-2.891 5.655 1.688-1.65 3.772-2.863 1.82-3.391-5.096-1.38-6.469-2.757-6.898-3.187" style="fill:#dfa96e;fill-opacity:.09" transform="translate(-247 -130)scale(1.49023)"/><path d="M320.174 701.465c.203.953 1.345 6.315.939 12.139l-1.673-1.044c.032-.566-.108-.467-.077-1.014.009-.162 0 0 .206-2.016-.5-4.587-3.41-5.666.605-8.065" style="fill:#ebae8c;fill-opacity:.06" transform="translate(-247 -130)scale(1.49023)"/><path d="M335.861 748.41c-.5-10.601 3.316 3.725 3.426 4.14 6.197 23.263-3.284-3.734-3.426-4.14" style="fill:#f99375;fill-opacity:1" transform="translate(-247 -130)scale(1.49023)"/><path d="M398.091 773.619c3.787 4.02 2.367 4.624 3.143 9.081-3.927-3.348-2.926-3.976-3.143-9.081" style="fill:#f1b491;fill-opacity:.05" transform="translate(-247 -130)scale(1.49023)"/><path d="M523.451 319.514c3.121 3.81 3.991 5.315.526 9.042-.085-.784-.065-.733-.526-9.042" style="fill:#a26148;fill-opacity:.08" transform="translate(-247 -130)scale(1.49023)"/><path d="M314.592 433.406c3.001.781 2.695 1.201 5.777 3.39-2.557.931-2.291 3.873-3.997 1.882-.259-.302-.184-.341-1.78-5.272" style="fill:#edb488;fill-opacity:.04" transform="translate(-247 -130)scale(1.49023)"/><path d="M297.41 669.608c.247.072.094.107 3.042 1.036l5.002 2.053c-2.72 1.51-2.816.11-5.865.143-2.286.025-.88-1.448-2.179-3.232" style="fill:#ab7a5f;fill-opacity:.07" transform="translate(-247 -130)scale(1.49023)"/><path d="M395.389 868.775c2.267-.493 2.184-.456 4.242.338l1.768 1.569c-3.595.864-4.432 1.55-6.01-1.907" style="fill:#c28f74;fill-opacity:.05" transform="translate(-247 -130)scale(1.49023)"/><path d="M511.344 288.642c4.07.271 4.895 1.589 2.657 5.015z" style="fill:#9f6146;fill-opacity:.05" transform="translate(-247 -130)scale(1.49023)"/><path d="M427.481 227.31c6.511-3.21 6.569-.72 8.017 1.196-4.078-.675-4.006-.558-8.017-1.196" style="fill:#b76d50;fill-opacity:.11" transform="translate(-247 -130)scale(1.49023)"/><path d="m326.767 741.436.469 4.154c-2.605-.885-2.559-.637-4.922-1.938.589-.217.439-1.36 1.028-1.578.458-.168.792.619 1.266.733z" style="fill:#e6aa87;fill-opacity:.04" transform="translate(-247 -130)scale(1.49023)"/><path d="M316.603 242.312c2.091-1.648 2.675-2.268 6.923.989l-2.11.503c-2.61-.49-2.411-.603-4.813-1.492" style="fill:#905941;fill-opacity:.05" transform="translate(-247 -130)scale(1.49023)"/><path d="M214.42 273.783c4.952-1.263 9.065-.18 9.825.021-4.981.692-4.913.894-9.825-.021" style="fill:#cd9b7f;fill-opacity:.04" transform="translate(-247 -130)scale(1.49023)"/><path d="M463.874 804.477c.737 2.431 1.13 2.091 2.948 3.782 3.102 2.886-3.818.359-3.889.346z" style="fill:#c08f74;fill-opacity:.08" transform="translate(-247 -130)scale(1.49023)"/><path d="M383.373 257.173c5.158-4.962 3.252 1.283 3.126 1.324-.258.086-.227-.096-3.126-1.324" style="fill:#d98562;fill-opacity:1" transform="translate(-247 -130)scale(1.49023)"/><path d="M335.604 779.469c1.125 3.663 1.598 3.445 1.528 7.152-2.402-1.819-2.029-2.089-1.905-5.075l.21-1.026z" style="fill:#e6ac8b;fill-opacity:.09" transform="translate(-247 -130)scale(1.49023)"/><path d="M487.565 261.511c.056.492.61 5.382.846 6.134-4.09-.872-2.789-2.496-.846-6.134" style="fill:#bd7153;fill-opacity:.09" transform="translate(-247 -130)scale(1.49023)"/><path d="M331.367 830.17c-2.51 2.167-2.491 2.142-5.654 2.669 1.798-4.011 3.771-2.743 5.654-2.669" style="fill:#e6a684;fill-opacity:.07" transform="translate(-247 -130)scale(1.49023)"/><path d="M219.407 784.919c2.603-.581 2.509-.575 5.142-.088-1.108 1.155-2.02 4.756-5.142.088" style="fill:#eeb695;fill-opacity:.05" transform="translate(-247 -130)scale(1.49023)"/><path d="M381.582 849.584c-.601 1.231.019 4.657-5 2.235 2.439-1.477 2.258-1.735 5-2.235" style="fill:#e2a685;fill-opacity:.07" transform="translate(-247 -130)scale(1.49023)"/><path d="M219.453 661.151c2.257-2.338 2.899-2.294 5.285.047-2.794.383-4.868.025-5.285-.047" style="fill:#ebb492;fill-opacity:.05" transform="translate(-247 -130)scale(1.49023)"/><path d="m305.93 554.262.283.315c-.033 1.592-.059 1.478-.463 3.02l-1.052 1.914c-.719-3.096-1.41-3.641 1.232-5.249" style="fill:#a57f47;fill-opacity:.05" transform="translate(-247 -130)scale(1.49023)"/><path d="M213.497 232.49c2.822-.523 2.762-.204 5.002-.117l-1.926 2.269c-2.102-.022-1.789-.572-3.076-2.152" style="fill:#ecb495;fill-opacity:.07" transform="translate(-247 -130)scale(1.49023)"/><path d="M464.662 716.513c2.114 2.814 1.431 3.586-1.722 5.094z" style="fill:#7a5947;fill-opacity:.09" transform="translate(-247 -130)scale(1.49023)"/><path d="M310.385 257.311c-1.067.908-3.793 2.755-4.131 2.984-.421-5.277 3.393-3.086 4.131-2.984" style="fill:#c87b5b;fill-opacity:.06" transform="translate(-247 -130)scale(1.49023)"/><path d="M503.37 402.429c.744 2.729-.048 3.147-2.874 3.066 1.253-1.808 1.205-1.761 2.874-3.066" style="fill:#c27353;fill-opacity:.05" transform="translate(-247 -130)scale(1.49023)"/><path d="M482.462 245.575c3.457-.112 4.313.797 2.894 3.999-1.275-1.769-2.662-3.679-2.894-3.999" style="fill:#bc7053;fill-opacity:.06" transform="translate(-247 -130)scale(1.49023)"/><path d="M322.581 231.497c1.002 2.589 1.163 2.345 2.158 4.796-1.777.219-2.709 1.015-2.535-.805.204-2.141.387-1.976.377-3.991" style="fill:#b76f51;fill-opacity:.11" transform="translate(-247 -130)scale(1.49023)"/><path d="M507.721 539.421c1.667.987 2.812 1.074 1.166 4.972-1.125-2.345-.988-2.322-1.166-4.972" style="fill:#dbaf32;fill-opacity:.05" transform="translate(-247 -130)scale(1.49023)"/><path d="M204.19 354.464c.38 2.589.564 2.46.04 5.089-2.809-1.458-1.612-2.24-.04-5.089" style="fill:#d59e81;fill-opacity:.07" transform="translate(-247 -130)scale(1.49023)"/><path d="M234.73 826.142c3.29.608 3.186 2.94-.109 3.677.115-3.672.116-3.563.109-3.677" style="fill:#dda685;fill-opacity:.08" transform="translate(-247 -130)scale(1.49023)"/><path d="M322.437 227.494c-1.043-6.494 2.243-.663 2.315-.488-1.25.061-1.167-.121-2.315.488" style="fill:#b67052;fill-opacity:.19" transform="translate(-247 -130)scale(1.49023)"/><path d="m296.608 271.582-2.098 4.921c-.898-3.037-.522-3.289 2.098-4.921" style="fill:#a0654c;fill-opacity:.09" transform="translate(-247 -130)scale(1.49023)"/><path d="M290.258 406.529c1.437 2.52 1.981 2.276 2.007 5.237-2.253-1.993-1.921-2.182-2.007-5.237" style="fill:#e5aa87;fill-opacity:.08" transform="translate(-247 -130)scale(1.49023)"/><path d="M330.323 469.191c-.973 2.097-.93 2.102-3.1 3.144.699-2.505.639-2.768 3.1-3.144" style="fill:#f9ce49;fill-opacity:.04" transform="translate(-247 -130)scale(1.49023)"/><path d="M523.439 354.504c1.33 1.843 1.428 1.794 1.436 1.99l-2.125 2.078z" style="fill:#b56d4f;fill-opacity:.09" transform="translate(-247 -130)scale(1.49023)"/><path d="M325.409 833.263c-1.86 1.334-2.105.735-4.061 1.966.72-.867.565-.822.717-1.937.246-1.799 1.017-.695 3.344-.029" style="fill:#cf9678;fill-opacity:.08" transform="translate(-247 -130)scale(1.49023)"/><path d="M388.503 806.501c.189.301-.519.711-.33 1.011.407.649 3.49 1.703-.471 3.051-.129-2.174-.106-2.079.801-4.062" style="fill:#cf9c7d;fill-opacity:.08" transform="translate(-247 -130)scale(1.49023)"/><path d="M489.589 687.601c-.764.991-.573.964-.642 2.148-.111 1.929-.931.47-2.444-.646 2.87-1.383 2.827-1.411 3.086-1.502" style="fill:#d99372;fill-opacity:.15" transform="translate(-247 -130)scale(1.49023)"/><path d="M455.585 860.588c-1.4 2.33-1.738 1.961-4.061 2.168 1.936-1.527 1.676-1.925 4.061-2.168" style="fill:#dba485;fill-opacity:.04" transform="translate(-247 -130)scale(1.49023)"/><path d="M325.439 439.583c2.264.387 2.098.449 4.091 1.593-.717.022-1.152 1.046-1.87 1.067-.277.009-.104-.239-2.221-2.66" style="fill:#dc9e74;fill-opacity:.08" transform="translate(-247 -130)scale(1.49023)"/><path d="M213.6 376.786c4.011-.059 3.921.083 7.967.005-2.982 1.513-7.357.181-7.967-.005" style="fill:#ae856d;fill-opacity:.05" transform="translate(-247 -130)scale(1.49023)"/><path d="M221.448 324.046c1.363-2.639 1.807-2.657 2.077-2.667.25-.011.587-.024 1.215 2.885-1.606-.569-1.545-.462-3.292-.218" style="fill:#b68c73;fill-opacity:.11" transform="translate(-247 -130)scale(1.49023)"/><path d="m475.074 246.418-.771 4.044-.689-.99-.418-2.389c.155-.036.073-.133 1.878-.665" style="fill:#a76348;fill-opacity:.13" transform="translate(-247 -130)scale(1.49023)"/><path d="M443.62 864.813c-1.544 1.957-1.64 1.737-4.101 1.968 1.95-1.445 1.849-1.405 4.101-1.968" style="fill:#daa485;fill-opacity:.06" transform="translate(-247 -130)scale(1.49023)"/><path d="M385.765 821.501c1.111 2.945 1.147 2.948.01 5.999-.103-3.073-.197-2.917-.01-5.999" style="fill:#cc9577;fill-opacity:.04" transform="translate(-247 -130)scale(1.49023)"/><path d="M217.421 278.893c1.602-.155 1.468-.172 3.121-.067-.522.449-.437 1.381-.959 1.831-1.392 1.197-1.222-.082-2.162-1.764" style="fill:#dda88a;fill-opacity:.07" transform="translate(-247 -130)scale(1.49023)"/><path d="M225.46 784.822c1.684-.096 1.547-.079 3.123.08-.942 1.634-.77 2.929-2.156 1.739-.521-.448-.447-1.371-.967-1.819" style="fill:#dba688;fill-opacity:.06" transform="translate(-247 -130)scale(1.49023)"/><path d="M207.545 108.225c-2.931 1.034-2.922.992-3.307 1.222.418-2.573 1.344-2.971 3.307-1.222" style="fill:#d9a284;fill-opacity:.08" transform="translate(-247 -130)scale(1.49023)"/><path d="M219.419 472.881c1.595-.223 1.512-.238 3.14-.117-2.285 3.897-2.832.667-3.14.117" style="fill:#e2b08d;fill-opacity:.05" transform="translate(-247 -130)scale(1.49023)"/><path d="M517.387 299.557c2.019.832 2.122.719 2.181.898l-1.127 2.057z" style="fill:#bd7153;fill-opacity:.04" transform="translate(-247 -130)scale(1.49023)"/><path d="M215.416 661.085c.913-1.577.72-2.943 2.159-1.729.52.438.454 1.355.974 1.793z" style="fill:#dcaa89;fill-opacity:.07" transform="translate(-247 -130)scale(1.49023)"/><path d="m230.506 352.8 1.967.204c-2.967 3.29-3.512 1.325-3.528 1.032-.008-.159 0 0 1.561-1.236" style="fill:#8d6c59;fill-opacity:.12" transform="translate(-247 -130)scale(1.49023)"/><path d="M409.349 836.287c-1.217 1.869-1.582 1.368-3.016 3.077.849-2.349.608-2.836 3.016-3.077" style="fill:#de9f7e;fill-opacity:.08" transform="translate(-247 -130)scale(1.49023)"/><path d="M220.459 257.608c2.015-1.053 2.089-1.042 4.083 0-2.09.282-1.962.182-4.083 0" style="fill:#efb494;fill-opacity:.04" transform="translate(-247 -130)scale(1.49023)"/><path d="M249.037 733.961c.207.072 3.674 1.277-.203 2.731.243-1.378-.116-1.343.203-2.731" style="fill:#b2896e;fill-opacity:.04" transform="translate(-247 -130)scale(1.49023)"/><path d="m302.202 574.415-.151 3.096c-1.271-1.567-2.007-1.712-1.037-2.295z" style="fill:#d9a372;fill-opacity:.09" transform="translate(-247 -130)scale(1.49023)"/><path d="M333.431 859.713c1.63-.014 1.518.033 2.999.433-1.674.63-1.836 2.651-2.563.965z" style="fill:#a3755f;fill-opacity:.07" transform="translate(-247 -130)scale(1.49023)"/><path d="M476.542 241.26c-1.262.346-1.388.117-2.064 1.244-1.036-2.004-1.577-2.178-.805-2.584.224-.117.409-.215 2.869 1.34" style="fill:#9a5c43;fill-opacity:.16" transform="translate(-247 -130)scale(1.49023)"/><path d="M351.503 856.759c2.059-.772 2.04-.783 4.09-.074-2.143 1.88-2.377.554-4.09.074" style="fill:#dfa181;fill-opacity:.06" transform="translate(-247 -130)scale(1.49023)"/><path d="M498.288 674.447c.26.857 1.472 1.196 1.733 2.053.06.198.082.272-2.352 1.066.122-1.651.139-1.533.619-3.119" style="fill:#9f745d;fill-opacity:.07" transform="translate(-247 -130)scale(1.49023)"/><path d="m392.948 753.458.653 1.999c-1.96-.736-3.911-.71-2.087-1.945.396-.269 1.038.214 1.434-.054" style="fill:#fdbd96;fill-opacity:.05" transform="translate(-247 -130)scale(1.49023)"/><path d="M341.427 460.254c-1.484 1.356-1.41 1.289-3.188 2.034.718-2.041.988-1.897 3.188-2.034" style="fill:#f1c045;fill-opacity:.05" transform="translate(-247 -130)scale(1.49023)"/><path d="M496.817 679.6c.238 1.803 1.043 2.389-1.121 3.141.206-1.756.144-1.644 1.121-3.141" style="fill:#de9e7c;fill-opacity:.05" transform="translate(-247 -130)scale(1.49023)"/><path d="M440.622 431.966c-.962 2.127-1.88 2.296-3.017.333.239-.042.156.05 3.017-.333" style="fill:#d69c6f;fill-opacity:.05" transform="translate(-247 -130)scale(1.49023)"/><path d="M369.406 853.36c-.343.594.545.523.164 1.182-.084.146 0 0-2.08.337l-.953-.047c1.345-1.092 1.203-1.158 2.869-1.472" style="fill:#e8ac8c;fill-opacity:.07" transform="translate(-247 -130)scale(1.49023)"/><path d="M334.336 465.19c-.713 1.414-.684 1.41-2.113 2.149.241-1.736.327-1.869 2.113-2.149" style="fill:#fbcb4d;fill-opacity:.05" transform="translate(-247 -130)scale(1.49023)"/><path d="M326.446 473.449c-.757 3.158-2.166 2.896-2.19 2.914.27-1.991.524-1.845 2.19-2.914" style="fill:#e7ba39;fill-opacity:.1" transform="translate(-247 -130)scale(1.49023)"/><path d="M445.495 431.67c.306-.059 1.99-.383 3.854-.516-1.614 2.873-2.314.974-3.854.516" style="fill:#c68456;fill-opacity:.1" transform="translate(-247 -130)scale(1.49023)"/><path d="M319.143 687.474c-.01.404.04.369.477 5.021l-1.457-1.958c.172-.505-.134-.478.047-1.01.058-.171.069-.152.933-2.053" style="fill:#de9b7a;fill-opacity:.25" transform="translate(-247 -130)scale(1.49023)"/><path d="M288.244 653.498c.127.497-.195.443-.06.976.066.258.077.234 1.037 3.161-1.777-1.671-1.585-1.813-.977-4.137" style="fill:#c68b6b;fill-opacity:.15" transform="translate(-247 -130)scale(1.49023)"/><path d="M501.689 617.495c.637 2.262.948 2.491-.783 4.108.572-2.122.552-1.964.783-4.108" style="fill:#c28b6b;fill-opacity:.11" transform="translate(-247 -130)scale(1.49023)"/><path d="M458.479 237.566c1.767-.062 2.028.053 2.052 1.905-1.233-.789-1.13-.737-2.052-1.905" style="fill:#c57858;fill-opacity:.04" transform="translate(-247 -130)scale(1.49023)"/><path d="M341.479 822.469c-.469 1.851-.708 1.652-2.279 2.792.332-1.935.502-1.791 2.279-2.792" style="fill:#e6a480;fill-opacity:.09" transform="translate(-247 -130)scale(1.49023)"/><path d="M322.169 725.51c.937 1.467.971 1.361 1.064 3.173-1.339-1.308-1.25-1.327-1.064-3.173" style="fill:#e2aa88;fill-opacity:.05" transform="translate(-247 -130)scale(1.49023)"/><path d="M524.382 331.543c1.681 1.572.797 1.803.141 3.957-.037-.315-.008-.291-.141-3.957" style="fill:#ab664a;fill-opacity:.12" transform="translate(-247 -130)scale(1.49023)"/><path d="m237.508 113.328 4.022.351c-1.928 1.352-2.065.895-4.022-.351" style="fill:#bb8c73;fill-opacity:.06" transform="translate(-247 -130)scale(1.49023)"/><path d="m501.747 560.668 1.887-.008s-.858 1.357-1.829 2.885c-.166-1.544.084-1.408-.058-2.877" style="fill:#c79259;fill-opacity:.05" transform="translate(-247 -130)scale(1.49023)"/><path d="M455.524 429.808a26 26 0 0 1 3.79-.55c-.52.859-.488 1.955-3.79.55" style="fill:#c17f50;fill-opacity:.14" transform="translate(-247 -130)scale(1.49023)"/><path d="m290.192 374.375-1.015 3.113c-.639-1.793-.487-1.92 1.015-3.113" style="fill:#d9a687;fill-opacity:.07" transform="translate(-247 -130)scale(1.49023)"/><path d="M247.502 113.61c2.106-.142 2.003-.134 4.03.039-1.769 1.482-1.872.609-4.03-.039" style="fill:#b1836a;fill-opacity:.06" transform="translate(-247 -130)scale(1.49023)"/><path d="M242.501 113.627c2.557.006 2.387.002 5.001-.017-2.52.791-2.456.803-5.001.017" style="fill:#aa8068;fill-opacity:.08" transform="translate(-247 -130)scale(1.49023)"/><path d="M453.561 455.281c1.708.226 1.901.209 2.24 1.869-1.332-.744-1.227-.662-2.24-1.869" style="fill:#f3bb35;fill-opacity:.07" transform="translate(-247 -130)scale(1.49023)"/><path d="M405.864 801.555c.781 1.363.755 1.258.947 2.763-1.476-.83-1.327-1.013-.947-2.763" style="fill:#f1ae8b;fill-opacity:.07" transform="translate(-247 -130)scale(1.49023)"/><path d="M421.61 226.787c1.53-.101 1.479-.141 2.902.542-1.094.055-.997.175-2.004.225-.156.008 0 0-1.95.047z" style="fill:#af664a;fill-opacity:.18" transform="translate(-247 -130)scale(1.49023)"/><path d="M471.585 425.673c-1.311 1.193-1.368.894-3.134.57 1.521-.622 1.453-.649 3.134-.57" style="fill:#cb835a;fill-opacity:.09" transform="translate(-247 -130)scale(1.49023)"/><path d="m224.327 613.756-1.875.319c.208-.578.895-2.95 1.701-1.207.127.274.048.614.174.888" style="fill:#c5977b;fill-opacity:.06" transform="translate(-247 -130)scale(1.49023)"/><path d="M497.501 408.501c-.021 3.215-1.943 1.908-2.031 1.953 1.01-1.186.92-1.071 2.031-1.953" style="fill:#bb6c4b;fill-opacity:.17" transform="translate(-247 -130)scale(1.49023)"/><path d="M442.527 230.361c1.445-.599 1.448-.455 2.656.593-.217-.024-.173-.066-2.656-.593" style="fill:#c87959;fill-opacity:.05" transform="translate(-247 -130)scale(1.49023)"/><path d="M497.651 645.523c.666 2.145 1.498 2.247.155 4.024z" style="fill:#b98165;fill-opacity:.09" transform="translate(-247 -130)scale(1.49023)"/><path d="M246.473 779.423c1.044-1.455 1.474-.697 2.168.934-.163-.094-.183.038-2.168-.934" style="fill:#ae8269;fill-opacity:.05" transform="translate(-247 -130)scale(1.49023)"/><path d="m232.495 113.534 4.002.007-2.995.947z" style="fill:#bc8e74;fill-opacity:.05" transform="translate(-247 -130)scale(1.49023)"/><path d="m510.751 550.397.544.264c.24 1.35.274 1.245.01 2.685l-.479.315z" style="fill:#cb9729;fill-opacity:.3" transform="translate(-247 -130)scale(1.49023)"/><path d="M203.431 241.475c.576 1.507.585 1.476-.003 3.051-.192-1.541-.2-1.456.003-3.051" style="fill:#d6a183;fill-opacity:.05" transform="translate(-247 -130)scale(1.49023)"/><path d="M203.442 740.48c.613 2.03.74 1.871.746 4.037-.642-1.995-.795-1.825-.746-4.037" style="fill:#b88368;fill-opacity:.11" transform="translate(-247 -130)scale(1.49023)"/><path d="m390.295 866.698 1.964.271.18.776c-1.308-.184-1.274-.152-2.144-1.047" style="fill:#e3a07f;fill-opacity:.06" transform="translate(-247 -130)scale(1.49023)"/><path d="m480.591 481.338 1.232.953-.056 1.043c-.977-.756-.973-.721-1.176-1.996" style="fill:#f3be2f;fill-opacity:.09" transform="translate(-247 -130)scale(1.49023)"/><path d="M220.49 468.278c1.711-.438 1.741-1.096 3.157-.008-3.006-.091-2.905.029-3.157.008" style="fill:#d39f80;fill-opacity:.07" transform="translate(-247 -130)scale(1.49023)"/><path d="M217.44 155.139c2.06-.741 2.032-.762 4.081.004z" style="fill:#b0836b;fill-opacity:.11" transform="translate(-247 -130)scale(1.49023)"/><path d="M475.664 475.309c1.563.501 1.495.634 1.576 2.284-.616-1.169-1.432-2.116-1.576-2.284" style="fill:#d5a628;fill-opacity:.12" transform="translate(-247 -130)scale(1.49023)"/><path d="m204.181 390.483-.01 4.07c-.721-2.055-.732-2.034.01-4.07" style="fill:#b77d63;fill-opacity:.14" transform="translate(-247 -130)scale(1.49023)"/><path d="M213.652 226.423c.228.369.042.371.277.752.049.08 0 0 .69.95-.804-.356-.848.272-1.72-.113-1.054-.465.219-.463.753-1.589" style="fill:#ca9d82;fill-opacity:.08" transform="translate(-247 -130)scale(1.49023)"/><path d="M462.656 725.509c.629 1.37.875 1.281.555 2.856-.392-1.415-.37-1.329-.555-2.856" style="fill:#d89a79;fill-opacity:.09" transform="translate(-247 -130)scale(1.49023)"/><path d="M467.528 426.554c-1.249 1.167-1.307.809-3.008 1.134z" style="fill:#a36a49;fill-opacity:.23" transform="translate(-247 -130)scale(1.49023)"/><path d="M376.483 232.434c1.362-.956 1.398-.668 3.033-.273z" style="fill:#ac684b;fill-opacity:.24" transform="translate(-247 -130)scale(1.49023)"/><path d="M491.772 501.313c.99.827 1.262.741 1.115 2.025-.119-.143.042-.217-1.115-2.025" style="fill:#dba824;fill-opacity:.15" transform="translate(-247 -130)scale(1.49023)"/><path d="M298.577 419.431c.893 1.294.808 1.171 1.595 2.418-1.027-.477-.872-.543-1.303-1.604z" style="fill:#d69d79;fill-opacity:.25" transform="translate(-247 -130)scale(1.49023)"/><path d="M389.884 803.541c-.231 1.487-.227 1.412-.828 2.741-.056-1.459.182-1.306.828-2.741" style="fill:#c28c6e;fill-opacity:.11" transform="translate(-247 -130)scale(1.49023)"/><path d="M463.226 760.629c.271 1.544.11 1.482-.438 2.874z" style="fill:#d29678;fill-opacity:.07" transform="translate(-247 -130)scale(1.49023)"/><path d="M287.821 638.751c.23 1.348.234 1.252.003 2.642-.283-1.391-.298-1.301-.003-2.642" style="fill:#dd9f79;fill-opacity:.09" transform="translate(-247 -130)scale(1.49023)"/><path d="M434.084 433.532c.307 1.378.369 1.282.066 2.713-.234-1.391-.25-1.317-.066-2.713" style="fill:#dda377;fill-opacity:.07" transform="translate(-247 -130)scale(1.49023)"/><path d="M481.823 482.291c.642 1.055.57.92.849 2.148l-.905-1.105z" style="fill:#c39523;fill-opacity:.05" transform="translate(-247 -130)scale(1.49023)"/><path d="M397.663 770.486c.251 1.521.335 1.381.064 2.929-.245-1.471-.254-1.389-.064-2.929" style="fill:#d29477;fill-opacity:.1" transform="translate(-247 -130)scale(1.49023)"/><path d="m204.159 407.446.005 3.107c-.508-1.561-.51-1.538-.005-3.107" style="fill:#ce9172;fill-opacity:.13" transform="translate(-247 -130)scale(1.49023)"/><path d="M439.44 649.71c1.436-.324 2.158-1.929 1.975-.445-.02.16 0 0-1.975.445" style="fill:#fee442;fill-opacity:.99" transform="translate(-247 -130)scale(1.49023)"/><path d="M204.165 370.447v3.107c-.506-1.564-.507-1.542 0-3.107" style="fill:#cd8f73;fill-opacity:.13" transform="translate(-247 -130)scale(1.49023)"/><path d="m204.163 476.448-.002 3.106c-.5-1.568-.497-1.545.002-3.106" style="fill:#cd9173;fill-opacity:.13" transform="translate(-247 -130)scale(1.49023)"/><path d="m204.163 483.447.005 3.107c-.503-1.562-.505-1.539-.005-3.107" style="fill:#ce9070;fill-opacity:.14" transform="translate(-247 -130)scale(1.49023)"/><path d="m204.159 772.446.001 3.108c-.496-1.558-.501-1.535-.001-3.108" style="fill:#cc9173;fill-opacity:.13" transform="translate(-247 -130)scale(1.49023)"/><path d="m204.188 211.467-.035 3.088-.641-2.052z" style="fill:#ce9174;fill-opacity:.13" transform="translate(-247 -130)scale(1.49023)"/><path d="M290.896 628.683c.149 1.487.085 1.403-.593 2.783z" style="fill:#926a51;fill-opacity:.11" transform="translate(-247 -130)scale(1.49023)"/><path d="M390.337 742.514c.62 1.456.692 1.312.566 2.854z" style="fill:#f9b490;fill-opacity:.85" transform="translate(-247 -130)scale(1.49023)"/><path d="M225.32 375.443c-.788.778-.701.746-1.85.865.82-.706.812-.538 1.85-.865" style="fill:#e6a787;fill-opacity:.32" transform="translate(-247 -130)scale(1.49023)"/><path d="m203.858 111.612.315 2.922c-.432-1.451-.554-1.329-.315-2.922" style="fill:#c99276;fill-opacity:.15" transform="translate(-247 -130)scale(1.49023)"/><path d="M212.634 176.469c.632.842.563.784.945 1.768-.779-.744-.771-.636-.945-1.768" style="fill:#745b4c;fill-opacity:.08" transform="translate(-247 -130)scale(1.49023)"/><path d="M502.782 601.48c.276 1.557.275 1.49-.089 3.033z" style="fill:#c39272;fill-opacity:.16" transform="translate(-247 -130)scale(1.49023)"/><path d="M212.462 223.513c1.051 2.765 1.123 2.668 1.19 2.91z" style="fill:#846756;fill-opacity:.09" transform="translate(-247 -130)scale(1.49023)"/><path d="m220.471 327.682 1.027-.09-.727.443z" style="fill:#a27c66;fill-opacity:.26" transform="translate(-247 -130)scale(1.49023)"/><path d="m406.225 232.977.314.348-.992-.089z" style="fill:#d07e5c;fill-opacity:.27" transform="translate(-247 -130)scale(1.49023)"/></svg>