<svg xmlns="http://www.w3.org/2000/svg" xml:space="preserve" style="fill-rule:evenodd;clip-rule:evenodd;stroke-linejoin:round;stroke-miterlimit:2" viewBox="0 0 937 613"><path d="M551.903 543.96c2.352-1.58 2.3-1.656 2.54-1.706 7.875-1.634 4.206-8.454 15.06-10.737 7.754-1.632 7.609.136 15.123 2.595 15.711 5.139 83.57-16.783 151.999.923 76.47 19.788 87.496 60.405 118.081 96.251 39.406 36.908 91.919 30.624 120.562 51.501 4.938 5.063 4.322 6.575 1.978 11.596-13.421 17.891-50.125 22.972-66.525 36.278-.458.421-8.039 5.262-13.734 12.22-8.303 10.143-18.794 14.395-20.697 15.167-20.157 8.17-21.418 9.538-22.79 11.028-.357.387-.603.867-.96 1.255-1.883-.009-1.936-.15-3.268 1.094-12.233 3.231-11.599 7.962-22.857 19.972-4.924 5.253-4.016 6.101-9.801 10.276-3.456 2.494-3.019 2.966-6.616 5.312-.222.145-.114.214-1.561 2.928-1.822.494-1.821.462-1.968.533-9.01 4.416-8.114 7.086-33.993 11.93-41.448 7.759-58.703 12.991-75.887 7.827-22.514-6.765-2.875-21.473-8.16-26.633-1.422-1.388-9.105-.718-9.895-.649-3.592.313-28.844 2.515-45.073-.247-26.571-4.52-68.671-16.396-82.48-57.232-2.194-8.888-2.395-8.782-2.986-17.972-1.366-40.835 4.83-43.127 15.053-105.044 5.541-33.56 3.346-62.341 1.154-67.812-.554-1.383-1.5-3.746-18.61.666-.446-4.084 3.389-7.321 6.311-11.32" style="fill:#f2a1a2" transform="translate(-60 -238)"/><path d="M536.608 547.538c-2.258 5.434-2.161 5.37-4.405 10.724-6.326 7.222-28.037 11.292-34.173 70.19-1.031 9.898-.932 9.853-.867 20.075-.263 4.859-1.199 4.519-3.106 7.585l-3.747 4.235c-1.333 1.609-1.328 1.506-3.839 4.106-25.983 14.538-27.235 11.857-53.723 25.533-7.513 3.879-8.914 2.678-12.528 10.396-1.425-.085-1.38-.56-2.799-.167-34.909 9.646-70.544 1.073-80.154-15.602-.672-1.166-.797-.995-1.632-2.037-.049-3.711-1.076-3.967-7.644-13.415-11.234-16.159-19.981-12.459-48.442-43.715-.228-.251-.117-.27-.344-.507-.082-.086-.077-.078-1.048-1.056-.022-.643 1.366-.741 1.344-1.384-.026-.769-2.853-3.644-3.136-3.931-.981-.998-.828-1.049-1.624-2.211-3.059-4.466-22.91-33.445-15.872-65.781 1.032-4.743.722-7.885 4.713-5.227 18.124 12.069 55.07 2.999 44.803 1.379-1.532-.242-12.166-1.92-18.58-5.551-1.75-.99-2.234-2.806-.316-2.226 11.969 3.623 16.392 3.081 30.199-1.083 7.998-2.412-3.876-1.992-16.502-6.99-.24-.095-14.769-7.374-1.693-2.75 2.655.94 17.34 6.133 34.703-5.976 2.48-1.73-3.346-1.873-3.676-1.881-5.961-.147-20.542-5.981-20.721-6.11-4.86-3.508 6.327.001 8.699.22 21.752 2.013 40.499-13.13 43.364-15.444 15.164-12.248 13.711-22.564 17.849-19.803 10.911 7.281 40.847 21.514 59.805 16.421 7.589-2.039 9.614-6.451 9.63-4.027.025 3.767-5.448 7.342 8.281 23.037 15.72 17.97 16.499 17.093 20.922 22.098.171.193 3.96 4.481 3.113.837-8.283-35.628 31.771-49.78 48.354-17.157 6.884 13.543 2.875 18.363 4.792 27.195" style="fill:#fbc0ae" transform="translate(-60 -238)"/><path d="M313.032 414.226c4.009-1.578 13.006-6.668 26.497-6.429.832.015 2.902.624 3.243-.011.754-1.4-.075-1.591-6.419-3.9-6.885-2.506-20.551-3.671-9.903-4.512 3.192-.252 21.852-5.128 43.934 3.418 2.722 1.053 6.827 5.489 8.066-1.303 2.077-11.387-8.7-12.341-5.982-14.027.14-.087 16.833 1.744 21.626 11.24 2.462 4.877 4.377.845 24.384 2.229 46.17 3.194 79.631 32.866 90.561 45.955 33.16 39.711 31.828 70.847 29.488 92.618-.888 4.045-.781 3.974-1.919 8.034-1.917-8.832 2.092-13.652-4.792-27.195-16.583-32.623-56.637-18.471-48.354 17.157.847 3.644-2.942-.644-3.113-.837-4.423-5.005-5.202-4.128-20.922-22.098-13.729-15.695-8.256-19.27-8.281-23.037-.016-2.424-2.041 1.988-9.63 4.027-18.958 5.093-48.894-9.14-59.805-16.421-4.138-2.761-2.685 7.555-17.849 19.803-2.865 2.314-21.612 17.457-43.364 15.444-2.372-.219-13.559-3.728-8.699-.22.179.129 14.76 5.963 20.721 6.11.33.008 6.156.151 3.676 1.881-17.363 12.109-32.048 6.916-34.703 5.976-13.076-4.624 1.453 2.655 1.693 2.75 12.626 4.998 24.5 4.578 16.502 6.99-13.807 4.164-18.23 4.706-30.199 1.083-1.918-.58-1.434 1.236.316 2.226 6.414 3.631 17.048 5.309 18.58 5.551 10.267 1.62-26.679 10.69-44.803-1.379-3.991-2.658-3.681.484-4.713 5.227-7.038 32.336 12.813 61.315 15.872 65.781.796 1.162.643 1.213 1.624 2.211.283.287 3.11 3.162 3.136 3.931.022.643-1.366.741-1.344 1.384-43.365-48.448-37.358-83.934-37.357-84.36l1.043-9.964c.525-2.886 2.235-3.94-.231-4.34-7.28-1.183-7.858.336-19.653-7.086l1.566-1.424c11.126.323 16.406-5.836 24.193-12.088 3.797-3.048-4.716 1.114-15.962-5.549-.253-.15-10.76-7.226-3.249-5.715 24.591 4.946 57.607-52.431 98.101-73.657 2.916-1.529 6.142-2.686 2.822-3.043-8.068-.865-7.997-1.736-16.054-.782z" style="fill:#da9179" transform="translate(-60 -238)"/><path d="M189.641 562.255c11.571 2.575 20.857 8.091 26.708 11.495 14.953 8.699 39.417 36.373 33.145 35.294-1.879-.323-12.769-2.197-23.745 1.956-4.633 1.753.824 2.419 17.901 9.071 29.399 11.453 54.776 35.645 46.859 34.322-13.745-2.297-32.236 1.811-34.96 8.132-4.985 11.567 28.626-4.24 45.866.348 28.625 7.619 26.025 22.585 25.965 27.631-.056 4.729 5.989 17.278 5.828 18.958-.132 1.374-6.811 5.916-7.46 6.357-6.675 4.541-5.078 9.405-2.314 10.808 7.857 3.99 18.999-5.818 20.09-6.042 5.685-1.165 3.054 6.647 33.97 15.933 4.855 1.459 4.928.882 9.872 2.186 2.658.701-3.592 4.176-3.594 4.178-3.918 2.96-30.192 22.811-56.275 24.519-16.452 1.077-16.464-4.451-32.836-9.391-23.639-7.133-23.697-6.742-47.215-14.35-39.684-12.837-97.967-45.263-132.376-97.887-8.111-12.404-16.832-5.966-25.443-8.761-12.803-4.157-12.494-12.657-13.426-15.249 4.477-3.662 4.501-3.797 10.201-4.641 24.969-3.698 25.356-4.12 50.471-22.195 3.24-2.331 29.576-21.284 41.433-27.813 7.754-4.269 7.518-5.68 11.335-4.859" style="fill:#fdf4f4" transform="translate(-60 -238)"/><path d="m125.458 709.288 1.019.347c27.665 22.104 65.331 60.712 145.038 67.696 29.95 2.624 28.268 7.887 37.122 14.974 21.231 16.993 69.44-34.725 113.177-51.888 2.184 2.666 3.242 2.336 4.793 2.699.502.548-.189 1.231 1.893 2.067 17.124 6.874 49.538 5.231 55.03 4.564 34.634-4.207 37.699-7.09 60.897-15.582 1.928 2.182 2.136 2.107 2.077 2.351-.195.808-.628.2-1.259.664-3.333 2.453-17.231 3.668-11.752 5.332 14.195 4.312 15.202 2.813 17.488 2.93 13.809 40.836 55.909 52.712 82.48 57.232 16.229 2.762 41.481.56 45.073.247.79-.069 8.473-.739 9.895.649 5.285 5.16-14.354 19.868 8.16 26.633 17.184 5.164 34.439-.068 75.887-7.827 25.879-4.844 24.983-7.514 33.993-11.93.147-.071.146-.039 1.968-.533l2.945.978c1.636.725 9.487 4.979 16.011 4.179 1.945-.92 1.809-.94 3.5-2.101 5.33-1.091 5.995-.555 8.776-5.252l.739-.392c4.401-1.355 4.793-1.419 7.294-7.624l2.12-1.963c5.713-8.194 2.422-18.764 1.937-20.323-2.619-4.998-2.31-5.093-2.487-5.99 1.332-1.244 1.385-1.103 3.268-1.094.707.277 2.737 1.073 7.941 5.201 15.196 12.284 19.528-.503 18.916-4.015-.062-.357-.795-4.559.255-4.52 4.661.174 4.53.492 8.677 1.933 6.088 2.116 7.7-3.794 10.151-3.865 4.231-.123 4.97 1.133 7.453-2.257 2.055-2.806 2.622-1.807 6.09-2.587 4.561 4.471 4.115 4.885 4.817 11.253 6.025 54.58-113.329 72.681-199.329 63.708-16.11-1.681-20.575-1.124-34.092-8.566-8.118-4.47-1.102-14.312-4.957-14.721-13.425-1.427-64.71 11.659-114.363-29.926-15.465-12.952-14.561-19.389-27.622-20.062-34.113-1.76-70.869-2.601-98.962-4.586-3.121-.22-3.057-.168-12.997-.5-.771-.341-8.114-3.596-10.011-3.289-4.92.796-33.884 17.697-36.755 19.372-48.769 28.458-50.208 25.671-54.325 28.33-18.578 5.182-25.705-3.883-49.027-11.443-43.871-14.222-185.318-16.303-201.743-43.378-9.655-15.915 50.394-36.73 52.801-37.125" style="fill:#f5dfde" transform="translate(-60 -238)"/><path d="M240.8 539.523c-.001.426-6.008 35.912 37.357 84.36.971.978.966.97 1.048 1.056.227.237.116.256.344.507 28.461 31.256 37.208 27.556 48.442 43.715 6.568 9.448 7.595 9.704 7.644 13.415-4.09 4.919-3.366 5.946-2.444 15.96.574 6.236 11.211 31.128 83.388 40.612 3.774.235 3.775.576 4.05.401.297-.191-.182-.864.116-1.054l1.069 1.922c-43.737 17.163-91.946 68.881-113.177 51.888-8.854-7.087-7.172-12.35-37.122-14.974-79.707-6.984-117.373-45.592-145.038-67.696l-.72-.721c-8.092-10.773-8.678-10.155-17.154-20.502-18.271-22.305-13.046-26.157-32.84-47.129-5.793-6.138-4.791-16.232.438-19.52.932 2.592.623 11.092 13.426 15.249 8.611 2.795 17.332-3.643 25.443 8.761 34.409 52.624 92.692 85.05 132.376 97.887 23.518 7.608 23.576 7.217 47.215 14.35 16.372 4.94 16.384 10.468 32.836 9.391 26.083-1.708 52.357-21.559 56.275-24.519.002-.002 6.252-3.477 3.594-4.178-4.944-1.304-5.017-.727-9.872-2.186-30.916-9.286-28.285-17.098-33.97-15.933-1.091.224-12.233 10.032-20.09 6.042-2.764-1.403-4.361-6.267 2.314-10.808.649-.441 7.328-4.983 7.46-6.357.161-1.68-5.884-14.229-5.828-18.958.06-5.046 2.66-20.012-25.965-27.631-17.24-4.588-50.851 11.219-45.866-.348 2.724-6.321 21.215-10.429 34.96-8.132 7.917 1.323-17.46-22.869-46.859-34.322-17.077-6.652-22.534-7.318-17.901-9.071 10.976-4.153 21.866-2.279 23.745-1.956 6.272 1.079-18.192-26.595-33.145-35.294-5.851-3.404-15.137-8.92-26.708-11.495.074-2.197.42-2.691 23.971-13.451 2.721-1.243 12.637-5.2 13.74-5.641 11.624-4.639 11.853-3.715 13.448-3.64" style="fill:#f9e7e6" transform="translate(-60 -238)"/><path d="M545.592 555.28c.192.257.105 1.894 3.002 2.862.075.025 8.178 1.151 9.85 2.447 8.64 6.696-3.925 68.841-11.577 99.992-7.479 30.448-9.343 63.052-33.571 75.502-32.374 16.637-64.15 10.463-86.689 7.033-1.551-.363-2.609-.033-4.793-2.699l-1.069-1.922c-3.1-10.878-2.478-10.968-3.309-18.994.395-7.003.279-6.947 1.434-13.937l1.35-5.182c3.614-7.718 5.015-6.517 12.528-10.396 26.488-13.676 27.74-10.995 53.723-25.533.557.248.472 1.266 1.029 1.514.615.274 1.341-.171 2.014-.159 3.061.056 18.484.34 34.823 15.891 6.535 6.221 2.832-7.527-12.595-14.681-12.242-5.677-13.316-2.443-21.432-6.671l3.747-4.235c.639.398.804 1.34 1.443 1.737.553.344.52-.024 2.093-1.188 7.504-5.548 22.838-15.809 37.51-31.471 1.55-1.655.147-3.109-1.545-1.607-2.378 2.111-27.116 24.067-32.074 23.486-.457-.053-.842-1.448-4.321 1.458-.065-10.222-.164-10.177.867-20.075 6.136-58.898 27.847-62.968 34.173-70.19.158.016.806.957 2.297.234.687-.333 6.317-3.062 9-3.153.437-.015.563.863 1 .85.474-.014.618-.898 1.092-.913" style="fill:#fdf4f4" transform="translate(-60 -238)"/><path d="M692.585 766.334c-3.519-1.709-29.908-14.523-40.633-27.204-28.746-33.985-19.545-73.603-18.304-96.624.124-2.293 2.322-2.31 2.19.016-.096 1.68-.586 10.254 1.972 20.946 13.831 57.803 46.242 73.536 63.58 86.215 13.584 9.934 29.533 17.407 38.428 23.342 2.187 1.459 21.474 13.304 10.703 12.026-25.137-2.985-52.158-16.129-57.936-18.717" style="fill:#e99898" transform="translate(-60 -238)"/><path d="M335.635 682.576c.835 1.042.96.871 1.632 2.037 9.61 16.675 45.245 25.248 80.154 15.602 1.419-.393 1.374.082 2.799.167l-1.35 5.182c-1.155 6.99-1.039 6.934-1.434 13.937-5.858 5.855 1.007 13.884-.857 19.647-72.177-9.484-82.814-34.376-83.388-40.612-.922-10.014-1.646-11.041 2.444-15.96" style="fill:#fbbfae" transform="translate(-60 -238)"/><path d="M545.592 555.28c17.11-4.412 18.056-2.049 18.61-.666 2.192 5.471 4.387 34.252-1.154 67.812-10.223 61.917-16.419 64.209-15.053 105.044-.104.172-1.235-.391-1.348 3.03-.037 1.12 1.095 2.325-2.22 3.665-23.198 8.492-26.263 11.375-60.897 15.582-5.492.667-37.906 2.31-55.03-4.564-2.082-.836-1.391-1.519-1.893-2.067 22.539 3.43 54.315 9.604 86.689-7.033 24.228-12.45 26.092-45.054 33.571-75.502 7.652-31.151 20.217-93.296 11.577-99.992-1.672-1.296-9.775-2.422-9.85-2.447-2.897-.968-2.81-2.605-3.002-2.862" style="fill:#f8e6e6" transform="translate(-60 -238)"/><path d="M424.518 756.821c-22.257 8.045-60.195 37.809-92.964 43.931-2.609.488-2.466.734-5.054 1.166-1.705.285-1.843.254-2 .22-.79-.176-.331-.739-1.073-.904 4.117-2.659 5.556.128 54.325-28.33 2.871-1.675 31.835-18.576 36.755-19.372 1.897-.307 9.24 2.948 10.011 3.289" style="fill:#fbe8e7" transform="translate(-60 -238)"/><path d="M827.135 725.064c-6.651 1.228-31.82-4.786-39.687-9.468-21.689-12.905-26.801-26.583-28.673-36.104-2.079-10.57 4.093-1.91 4.306-1.611 20.664 28.994 39.358 34.676 55.46 42.502 7.029 3.417 8.734 2.054 8.594 4.681" style="fill:#e89898" transform="translate(-60 -238)"/><path d="M910.721 730.661c-.032 5.743 9.203 8.278 7.33 20.662-1.928-2.983-5.523-9.134-12.708-4.201-3.729 2.316-3.918 1.956-6.929 5.142-2.209 1.408-6.354 3.217-.801 6.094.545.283.487.296 2.907 2.13l.202 2.012c-5.579-1.743-8.083-5.761-11.29-4.124-7.126 3.637-6.222 5.332-13.87 7.433-11.641 3.198-14.056 8.859-15.081 9.723-5.204-4.128-7.234-4.924-7.941-5.201.357-.388.603-.868.96-1.255 1.372-1.49 2.633-2.858 22.79-11.028 1.903-.772 12.394-5.024 20.697-15.167 5.695-6.958 13.276-11.799 13.734-12.22" style="fill:#eaa79b" transform="translate(-60 -238)"/><path d="M617.022 769.307c-6.778.147-21.376-13.926-22.971-15.463-19.518-18.815-19.725-59.652-9.765-36.245 11.503 27.037 31.733 47.525 32.736 51.708" style="fill:#e99a9a" transform="translate(-60 -238)"/><path d="M905.343 747.122c7.185-4.933 10.78 1.218 12.708 4.201-2.551 4.759-2.52 4.734-6.028 8.898-3.468.78-4.035-.219-6.09 2.587-2.483 3.39-3.222 2.134-7.453 2.257-2.451.071-4.063 5.981-10.151 3.865-4.147-1.441-4.016-1.759-8.677-1.933-1.05-.039-.317 4.163-.255 4.52.612 3.512-3.72 16.299-18.916 4.015 1.025-.864 3.44-6.525 15.081-9.723 7.648-2.101 6.744-3.796 13.87-7.433 3.207-1.637 5.711 2.381 11.29 4.124l-.202-2.012c-2.42-1.834-2.362-1.847-2.907-2.13-5.553-2.877-1.408-4.686.801-6.094.444.369.427.305 2.11 1.221 5.323 4.44 4.213 5.605 4.941 6.015 2.111 1.189 1.572-4.114 1.653-4.781.503.091.747.797 1.25.888.224.041.208-.028 2.821-.38l1.107-.674c.964-.421 2.515.633 2.098-2.053-.238-1.529-.121-1.604-1.305-2.689-2.702-2.476-3.674-3.279-5.686-.167z" style="fill:#f6baae" transform="translate(-60 -238)"/><path d="M244.504 270.503c-1.112 1.593-4.401 5.4-1.03 4.72 5.066-1.023 21.209-6.298 19.871-.767-.612 2.529-29.466 7.705-29.698 7.605-3.556-1.524.41-5.109 8.371-16.885 7.748-11.46 11.963-14.514 7.492-13.577-1.571.329-26.386 5.528-20.035-1.126.417-.437 28.915-6.016 30.8-3.818 1.682 1.961-3.679 7.565-6.372 11.145-4.766 6.339-4.605 6.333-9.399 12.703" style="fill:#fdd9d8" transform="translate(-60 -238)"/><path d="M220.519 333.517c-5.485 6.076-5.36 6.078-10.91 12.082-.666.721-6.491 5.307-.124 4.658 6.973-.711 22.317-3.429 18.353 1.476-.971 1.201-29.946 6.228-30.948 3.581-1.574-4.155 22.635-25.939 20.478-27.621-.806-.628-27.198 3.208-21.711-3.076.596-.682.588-1.338 28.841-1.954.534-.011 5.616.17-.196 6.679-.301.336-.281.309-3.783 4.175" style="fill:#fddad9" transform="translate(-60 -238)"/><path d="M849.272 771.425c.177.897-.132.992 2.487 5.99-4.855-.21-4.415 1.131-7.878 4.47-6.673 6.432-5.537 7.658-5.014 8.223 1.498 1.616 1.591 1.435 3.006 3.127 2.989 3.572 3.716 2.413 7.949 4.503l-2.12 1.963c-10.886-4.439-9.805-10.25-12.841-7.779-3.885 3.162-5.154 4.328-1.452 7.665 3.96 3.57 4.452 3.096 6.999 7.738l-.739.392c-.816-.454-5.392-3.004-9.21-7.17-2.643-2.884-3.051-.568-5.082.797-5.587 3.754 2.858 3.515 5.516 11.625-1.691 1.161-1.555 1.181-3.5 2.101.626-5.518-.171-5.707-4.854-8.643-1.72-1.079-1.926-.37-11.157 4.464l-2.945-.978c1.447-2.714 1.339-2.783 1.561-2.928 3.597-2.346 3.16-2.818 6.616-5.312 5.785-4.175 4.877-5.023 9.801-10.276 11.258-12.01 10.624-16.741 22.857-19.972" style="fill:#eaa79c" transform="translate(-60 -238)"/><path d="M260.467 379.471c6.057-6.836 12.472-12.343 8.028-11.779-1.034.132-3.843.489-12.993.886-4.668.203-5.321-4.187-1.022-4.351 19.233-.73 24.522-2.075 24.252 1.292-.16 1.994-.85 1.588-16.444 18.832-3.222 3.563 1.697 1.701 15.21 1.195 2.145-.08 2.619 1.978 1.847 2.834-1.379 1.529-24.688 3.377-24.902 3.34-5.198-.916 5.262-11.326 6.024-12.249" style="fill:#fddcdc" transform="translate(-60 -238)"/><path d="M632.83 609.445c.077.812 1.414 14.995-1.379 10.099-2.776-4.87-11.21-36.89-26.235-58.928-2.547-3.736-.258-3.737.016-3.638.803.29 10.331 12.72 12.094 15.577 11.338 18.381 14.801 33.767 15.504 36.89" style="fill:#e89797" transform="translate(-60 -238)"/><path d="M510.487 536.514c.23.232 8.392 8.497-.026 4.078-14.782-7.76-.311 11.453-4.847 14.059-4.987 2.866-17.972-34.967 2.878-38.253 4.73-.746 7.867 3.542 4.032 2.786-8.534-1.682-11.555 13.432-8.97 14.156 3.483.975 3.598.698 6.933 3.174" style="fill:#eba695" transform="translate(-60 -238)"/><path d="M538.527 539.504c4.501-1.145 4.437.013 12.03 1.702.308.069.804-.2.943.083.395.809.007 1.862.403 2.671-2.922 3.999-6.757 7.236-6.311 11.32-.474.015-.618.899-1.092.913-.437.013-.563-.865-1-.85-2.683.091-8.313 2.82-9 3.153-1.491.723-2.139-.218-2.297-.234 2.244-5.354 2.147-5.29 4.405-10.724 1.138-4.06 1.031-3.989 1.919-8.034" style="fill:#f5e1e0" transform="translate(-60 -238)"/><path d="M497.163 648.527c3.479-2.906 3.864-1.511 4.321-1.458 4.958.581 29.696-21.375 32.074-23.486 1.692-1.502 3.095-.048 1.545 1.607-14.672 15.662-30.006 25.923-37.51 31.471-1.573 1.164-1.54 1.532-2.093 1.188-.639-.397-.804-1.339-1.443-1.737 1.907-3.066 2.843-2.726 3.106-7.585" style="fill:#f6e4e4" transform="translate(-60 -238)"/><path d="M851.759 777.415c.485 1.559 3.776 12.129-1.937 20.323-4.233-2.09-4.96-.931-7.949-4.503-1.415-1.692-1.508-1.511-3.006-3.127-.523-.565-1.659-1.791 5.014-8.223 3.463-3.339 3.023-4.68 7.878-4.47" style="fill:#f5b9ae" transform="translate(-60 -238)"/><path d="M490.31 660.347c8.116 4.228 9.19.994 21.432 6.671 15.427 7.154 19.13 20.902 12.595 14.681-16.339-15.551-31.762-15.835-34.823-15.891-.673-.012-1.399.433-2.014.159-.557-.248-.472-1.266-1.029-1.514 2.511-2.6 2.506-2.497 3.839-4.106" style="fill:#f5e2e2" transform="translate(-60 -238)"/><path d="M975.268 682.787c.607-.276.625-1.299 1.232-1.575.499-.226-.017.932 5.992 3.308 23.901 9.452 11.693 16.581 11.553 16.691-1.579-2.707-2.051-5.819-16.799-6.828 2.344-5.021 2.96-6.533-1.978-11.596" style="fill:#fae8e8" transform="translate(-60 -238)"/><path d="M429.362 588.35c-14.025 10.089-16.121 5.396-15.591 4.217 1.531-3.402 14.967-4.534 20.704-23.088.816-2.64 2.773 1.391 1.655 7.965-.959 5.641-6.321 10.401-6.768 10.906" style="fill:#d99380" transform="translate(-60 -238)"/><path d="M340.639 657.944c6.931-3.355 6.719-3.615 12.216-9.09 3.147-3.134 4.449-.287 4.454-.273 3.407 9.983-22.667 19.197-21.905 11.901.093-.884 4.792-2.396 5.235-2.538" style="fill:#d89380" transform="translate(-60 -238)"/><path d="M847.702 799.701c-2.501 6.205-2.893 6.269-7.294 7.624-2.547-4.642-3.039-4.168-6.999-7.738-3.702-3.337-2.433-4.503 1.452-7.665 3.036-2.471 1.955 3.34 12.841 7.779" style="fill:#f6baae" transform="translate(-60 -238)"/><path d="M547.995 727.47c.591 9.19.792 9.084 2.986 17.972-2.286-.117-3.293 1.382-17.488-2.93-5.479-1.664 8.419-2.879 11.752-5.332.631-.464 1.064.144 1.259-.664.059-.244-.149-.169-2.077-2.351 3.315-1.34 2.183-2.545 2.22-3.665.113-3.421 1.244-2.858 1.348-3.03" style="fill:#faecec" transform="translate(-60 -238)"/><path d="M839.669 807.717c-2.781 4.697-3.446 4.161-8.776 5.252-2.658-8.11-11.103-7.871-5.516-11.625 2.031-1.365 2.439-3.681 5.082-.797 3.818 4.166 8.394 6.716 9.21 7.17" style="fill:#f7bbaf" transform="translate(-60 -238)"/><path d="M403.612 668.753c9.002-6.081 2.627-9.634 5.626-13.464 7.236-9.242 6.836 20.155-9.713 17.13-6.026-1.101 3.661-3.558 4.087-3.666" style="fill:#e6a08f" transform="translate(-60 -238)"/><path d="M811.382 810.891c9.231-4.834 9.437-5.543 11.157-4.464 4.683 2.936 5.48 3.125 4.854 8.643-6.524.8-14.375-3.454-16.011-4.179" style="fill:#f7bcae" transform="translate(-60 -238)"/><path d="M381.506 655.271c.388.007 4.985.087 4.693 1.222-1.361 5.296-18.889 2.539-10.794-8.102 1.933-2.542 6.067-3.255 4.234-.831-2.421 3.202-5.751 6.494 1.867 7.711" style="fill:#eba897" transform="translate(-60 -238)"/><path d="M417.436 719.501c.831 8.026.209 8.116 3.309 18.994-.298.19.181.863-.116 1.054-.275.175-.276-.166-4.05-.401 1.864-5.763-5.001-13.792.857-19.647" style="fill:#efb6a8" transform="translate(-60 -238)"/><path d="m905.343 747.122 2.06 2.522c2.768 1.684 3.217 1.152 4.981 3.918l-1.195 1.665c-2.613.352-2.597.421-2.821.38-.503-.091-.747-.797-1.25-.888-2.301-3.574-3.309-4.008-6.594-1.234-1.683-.916-1.666-.852-2.11-1.221 3.011-3.186 3.2-2.826 6.929-5.142" style="fill:#f4baad" transform="translate(-60 -238)"/><path d="M900.524 753.485c3.285-2.774 4.293-2.34 6.594 1.234-.081.667.458 5.97-1.653 4.781-.728-.41.382-1.575-4.941-6.015" style="fill:#edaa9c" transform="translate(-60 -238)"/><path d="M907.403 749.644c2.012-3.112 2.984-2.309 5.686.167 1.184 1.085 1.067 1.16 1.305 2.689.417 2.686-1.134 1.632-2.098 2.053l.088-.991c-1.764-2.766-2.213-2.234-4.981-3.918" style="fill:#eba89b" transform="translate(-60 -238)"/><path d="m313.032 414.226.344 1.649c-.288-.074-.555.363-.843.289-.155-.04-2.926-.914.499-1.938" style="fill:#efd0c8" transform="translate(-60 -238)"/><path d="m223.525 516.709-1.566 1.424c.443-1.057.52-.933 1.566-1.424" style="fill:#e9c4b6" transform="translate(-60 -238)"/><path d="m912.384 753.562-.088.991-1.107.674z" style="fill:#f5baad" transform="translate(-60 -238)"/><path d="m125.757 708.914.72.721-1.019-.347z" style="fill:#f9e6e6" transform="translate(-60 -238)"/></svg>