<svg width="220" height="220" viewBox="0 0 220 220" fill="none" xmlns="http://www.w3.org/2000/svg">
  <defs>
    <radialGradient id="sunCore" cx="0" cy="0" r="1" gradientUnits="userSpaceOnUse" gradientTransform="translate(110 110) rotate(90) scale(62)">
      <stop offset="0" stop-color="#FFF6CF"/>
      <stop offset="0.58" stop-color="#F9D98F"/>
      <stop offset="1" stop-color="#F5BF68"/>
    </radialGradient>
    <radialGradient id="sunGlow" cx="0" cy="0" r="1" gradientUnits="userSpaceOnUse" gradientTransform="translate(110 110) rotate(90) scale(102)">
      <stop offset="0" stop-color="#FFEFB2" stop-opacity="0.88"/>
      <stop offset="0.58" stop-color="#FFE2A2" stop-opacity="0.42"/>
      <stop offset="1" stop-color="white" stop-opacity="0"/>
    </radialGradient>
    <filter id="blur24" x="-60" y="-60" width="340" height="340" filterUnits="userSpaceOnUse" color-interpolation-filters="sRGB">
      <feGaussianBlur stdDeviation="12"/>
    </filter>
  </defs>
  <g filter="url(#blur24)">
    <circle cx="112" cy="108" r="102" fill="url(#sunGlow)"/>
    <path d="M108 38C89 43 73 54 64 71C57 83 54 98 57 114C63 142 89 162 117 165C148 169 177 149 188 121C194 107 194 90 189 76C180 49 154 31 126 33C120 33 114 35 108 38Z" fill="url(#sunCore)"/>
    <path d="M80 72C95 52 122 44 145 53C165 61 179 80 181 101" stroke="#FFF4D7" stroke-opacity="0.7" stroke-width="7" stroke-linecap="round"/>
  </g>
</svg>
