<svg width="220" height="220" viewBox="0 0 220 220" fill="none" xmlns="http://www.w3.org/2000/svg">
  <defs>
    <radialGradient id="moonGlow" cx="0" cy="0" r="1" gradientUnits="userSpaceOnUse" gradientTransform="translate(110 110) rotate(90) scale(102)">
      <stop offset="0" stop-color="#F9FBFF" stop-opacity="0.72"/>
      <stop offset="0.56" stop-color="#DDE7FF" stop-opacity="0.24"/>
      <stop offset="1" stop-color="#DDE7FF" stop-opacity="0"/>
    </radialGradient>
    <linearGradient id="moonCore" x1="76" y1="58" x2="149" y2="164" gradientUnits="userSpaceOnUse">
      <stop stop-color="#FEFFFF"/>
      <stop offset="0.55" stop-color="#EEF3FF"/>
      <stop offset="1" stop-color="#D7E1F3"/>
    </linearGradient>
    <filter id="moonBlur" x="-60" y="-60" width="340" height="340" filterUnits="userSpaceOnUse" color-interpolation-filters="sRGB">
      <feGaussianBlur stdDeviation="12"/>
    </filter>
  </defs>
  <g filter="url(#moonBlur)">
    <circle cx="112" cy="108" r="102" fill="url(#moonGlow)"/>
    <path d="M131 42C111 45 93 55 80 70C68 84 61 101 61 120C61 146 76 170 100 182C120 191 142 191 162 183C145 180 130 171 118 159C106 146 98 130 98 112C98 86 112 62 131 42Z" fill="url(#moonCore)"/>
    <path d="M126 65C114 73 106 88 106 103C106 121 116 137 131 146" stroke="#FFFFFF" stroke-opacity="0.58" stroke-width="6" stroke-linecap="round"/>
  </g>
</svg>
