<svg xmlns="http://www.w3.org/2000/svg" xml:space="preserve" style="fill-rule:evenodd;clip-rule:evenodd;stroke-linejoin:round;stroke-miterlimit:2" viewBox="0 0 194 89"><path d="m604.515 567.541 1.012.77 1.073.764c.258.812-.491 1.732-.232 2.543.118.371.767.15 1.132.284 1.692.618 1.81 1.013 3.994-.472l1.013.034c.197.256-.15.714.047.97l1.932.08c1.684 2.176 1.793 1.956 3.383 4.222-5.72 5.667-6.194 5.036-6.6 5.596-1.527 2.104-2.153 1.011-3.9 1.868-5.236 2.57-9.097 2.016-10.718 3.53-2.484 2.32-10.846-2.159-21.18.876-11.591-3.69-11.939-2.732-12.73-3.431-2.296-2.03-2.47-.379-5.365 1.039-15.503 7.598-20.847 5.691-20.855 5.691l1.23-3.405c.017-1.275-.365-1.388.648-2.134 1.257-.927 1.578-1.447 2.474-.075 1.18 1.81 5.047-1.312 5.397-1.595l-.803-1.117c-.965-.064-8.027-.535-11.838-2.43-.958-1.098-.852-1.05-.958-1.098-1.277-.58-.992-.86-2.092-1.814 5.845-.197 6.13-2.62 8.822-.542 2.713 2.094 4.316-1.074 6.071-.11 2.852 1.565 2.902 1.184 6.053 2.008 1.978-.542 1.875-.965 3.872-.464 1.149.289 1.145.055 1.755-.909 1.035-1.637 2.235-1.289 2.412-1.39l-.107-2.32c-1.809-.003-1.843-.113-1.954-.003-.415.409.371.566-.041.976-.223.222-.638.077-.944.006-9.376-2.17 3.834-5.272 4.375-5.4 5.354 3.317 5.482 3.485 11.824 2.814l1.1-.996c2.697.931 2.737.244 5.539.851l1.098-.058 1.037-.063c1.624.469 1.603.265 3.18-.438 2.95-.855 3.534-.57 3.81-.436.308.15 1.44 2.151 3.984-2.634 7.65-.068 9.09.621 12.05-1.588" style="fill:#f3d7cf;fill-opacity:.97" transform="translate(-484.695 -556.591)scale(1.08587)"/><path d="m502.402 519.043-.428 1.456c-.443 1.899-.605 1.761-1.695 3.29l1.196 1.496c-2.152 1.05-2.228.909-2.584 1.506-.394.451-3.352 1.515.111 2.067l.558.561c-2.107.153-2.009-.088-4.049.061l-2.741-1.09-.252-1.871 2.974-1.038c.218-.112 5.612-2.882-.796-2.951.144-2.503.481-2.563-.097-3.157-1.172-1.204-1.377-.324-2.154 1.127-.704 1.314-1.235.749-1.903 2.033-.812 1.56-.411 1.629-.832 3.299l-2.122-.087c-2.217-1.749-2.773-1.325-2.976-1.169-1.734 1.325-.979 1.648-1.093 3.876-1.397.785-1.27.966-2.973 1.036l-.896-1.248c-.116-.001-.006.005-4.15-.367-2.305-.207-1.923-1.363-2.286-1.621 15.621-15.189 49.274-19.437 65.591 3.895.848 1.076 1.231 2.303 1.299 2.52.158.508.266.3.579.652l.867.11c-.512 1.497-1.525.633-2.017 2.071-.036.105-.145.422.967.998.285.148.762-.248.964.002.435.539-1.059 2.925 3.99 5.321l4.04.447c2.31.744 2.492 1.186 4.342-.343 2.956-.33 4.628 1.4 4.495-1.561-.058-1.295.132-1.172.834-3.13l1.448-.545 1.739.02 2.072 1.037 1.109-.15 1.625.434c-.072.488-.487.125-.552.571-.038.258-.005.241-.061 3.26l1.893 1.489-.496 1.345-.033 1.847-.009.958c-.4.504-.021 1.378-.42 1.882-.199.251-.628-.132-.948-.156-2.012-.15-2.063.727-1.152 2.52.212.417.807-.498 5.06 2.926-2.087 1.291-1.88 1.449-3.958 2.894-1.51-.963-1.331-1.52-3.003-1.127-1.245.293-.419.734.319 2.273.133.278-.345.624-.211.902-.776.718-.784.597-1.215 1.581l-.847 1.027c-3.371-.555-3.347-.145-4.125-.158-2.378-.981-2.379-.77-4.9-.56l-.63-2.004c.463-3.743.506-3.695.521-4.019l.807-.162c2.055-1.561 2.074-1.817 2.091-2.05.019-.258-.216.217-3.191.499-.008-.364-.045-2.1-.638-4.514l1.046.134.863.484 1.455-.032c.099-.521.708-.849.807-1.37.05-.262-1.246-1.674-1.368-1.808-2.075-2.1-2.55-.672-3.764 2.05-.376-.204-1.746-.946-5.013-1.882.061-.451.248-.879.309-1.33.298-2.211-2.353-1.775-3.295-2.133-2.035-.772-1.831.553-2.221.545-.361-.008-.125-.381-3.828-2.393l.296-1.064c.087-.537.307-.393.392-.917.351-2.153-.547-1.843-.841-2.833l-.701-.345c-2.098-1.043-2.747-.471-3.308-2.792.995-4.064-1.654-2.965-3.104-4.976-.314-.437 1.749-2.655 1.761-3.092.047-1.635-.817-.325-3.389 1.062l-1.635-1.547c-.567-.194.466-.678-.048-.854-.102-.035-.719-.247-1.291.395-.263.295.151.885-.112 1.181l-1.012-.03c-.39-.051-.662-.087-4.913-.251-.995-.825-.919-.782-1.434-2.064l-.35.249c-1.329 1.783-3.193 2.185-3.52 2.255-2.536.756-2.407-.142-4.754-1.276.364-.087.719.387 1.084.3.469-.112-.695-1.804 4.928-3.478 6.359-1.893-5.352-1.339-5.922-1.363-2.854-2-3.056-2.748-6.176-1.036" style="fill:#fdeadf;fill-opacity:.98" transform="translate(-484.695 -556.591)scale(1.08587)"/><path d="m528.946 550.612-.294.937.943 1.942c.527.512.321 1.522.848 2.033.554.538 1.455.527 2.145.872.55.275.891.965.941 1.067.58 1.173 1.563.527 1.588.536 2.749 1.767 2.484 2.027 5.418 3.34 4.098-.032 4.102 1.012 7.988-.234l3.977.399c2.521-.21 2.522-.421 4.9.56-.255.75-.994.496-.834 2.454.162 1.974.85 1.551 1.104 2.128.1.227-.384.461-.284.688-.296.352-.374.189-4.925 2.968l-.911 1.31c-1.167.232-1.023.385-2.126.605-.152.03-.142.018-1.918.245-.017-.199-.193-.364-.209-.563-.209-2.501.91-2.622.696-2.599-.24.026-.194.111-2.614 1.497-.387-.005-2.74-.031-4.83-.321.956 2.029.772 2.315 2.979 2.798-1.796.174-1.545.611-3.069 1.443-.923.505-.761-1.586-12.984-2.099-2.561-.107-2.415.713-4.925.751-2.567-.638-2.502-.918-5.038-.21l-3.071 1.015c-3.34 2.655-3.709 1.332-7.94 1.33-.34-.429-3.781-4.777-5.001-4.678-1.48.12-1.354-.164-2.217-1.326-.861-1.159-4.385 1.391-10.963-6.089.89-1.181.804-1.1 1.837-2.155 2.87-3.077 4.765-3.188 8.085-5.121l1.131 3.565c.279.011.568-1.272 3.074-1.101.719.049.49.541 1.196.538.133 0 .123-.008 1.657-.107l1.212-1.494c.731-.16 5.102-1.117 9.347-.489.478.07.813.824 1.276.685 1.01-.303.349-1.006 1.365-1.478.738-.344.731.504 1.46.165-.143 1.623-.086 1.516.324 3.089.008.307-2.041 4.231 4.33 2.157l.85-.206c2.91-.168 3.073-.553 3.175-.794.082-.193-.967-2.087-1.064-2.262l1.92.096c1.431-.874-.453-.725-1.312-2.097-.168-.583.502-.362.351-.887-.026-.088-.176-.608-.833-.783-.69-.184-1.452.173-2.142-.012-2.967-.101-3.524 1.412-8.064-2.368 1.323-.615 1.329-.428 3.946-.782 1.35-.024 1.667-.565 2.501.93.283.509.325 1.497.907 1.493.131-.001-.704-.395.64-1.504 1.529-1.262 1.872-.57 3.457-1.877" style="fill:#f9e1d9;fill-opacity:1" transform="translate(-484.695 -556.591)scale(1.08587)"/><path d="M517.512 573.159c2.536-.708 2.471-.428 5.038.21-.293.135-.64-.384-.932-.249-.407.187-3.348 2.883.882 2.274 3.456-.497 3.226.558 8.079 2.843 1.1.954.815 1.234 2.092 1.814.106.048 0 0 .958 1.098-3.274 2.683-3.437 2.458-3.686 2.727l-2.446-.344c-3.831.897-3.752.952-7.765.743-.77-.808-1.146-.353-3.424-3.596-2.43-3.457-3.411-2.93-6.778-.334l-1.134-.094-1.1 1.05c-.299 1.645-1.102-.38-1.565-.344-.509.038-.831 1.901-2.243.741-.993-.816-.989-2.396-2.77-1.198-2.191 1.473-1.81 1.74-3.206 4.064-.315.106-3.527 1.182-3.971 1.211-13.771.915-13.755 3.346-19.067 1.799-11.964-3.485-13.513.085-23.072-7.982.435-.153.195.51.62.36.943-.332.607-.723 1.478-1.099.361-.156 2.928 1.494 2.159-2.369l.828-.984c1.109 1.753 1.096 1.746 1.197 1.893 1.125 1.634 1.92 1.936 2.674.144l1.975-.856c1.336 1.753 1.481 3.958 3.107 4.255 4.244.776 4.535.524 4.827.271 1.187-1.027 1.177-.838 2.432-1.733.277.61-.435 1.394-.157 2.004.063.14.128-.045 1.816-.633.213.017-.084.612.13.629.429.035.763-.421 1.182-.522.078-.019 0 0 .991-.18l1.793.754c.157.314-.427 1.04-.075 1.052.314.01.244-.152 3.34-2.074-1.233 2.839.642 2.171.729 2.023.414-.706-.231-1.141 1.052-1.675.15-.062.148-.027 2-.367 2.612-.107 2.549-.03 2.77-.053l.557-2.01 1.887-2.413c.331.264 1.469 1.167 4.822 2.192.38.116.963.295 2.96-3.986 6.01 1.229 7.356 1.27 8.005 1.289 4.231.002 4.6 1.325 7.94-1.33z" style="fill:#eccec8;fill-opacity:.97" transform="translate(-484.695 -556.591)scale(1.08587)"/><path d="M467.367 533.39c3.414 1.601 2.381 3.814 6.125 3.605l1.427-.107c1.182-.505 1.131-.467 2.425-.3.013.712.035.613.319 2.676-1.33.325-1.406.019-2.461.999-3.402 3.158-4.558 1.122-4.877 1.031-.788-.226-2.028.14-.827 10.206 1.854-1.293 1.807-1.381 2.002-1.396.54-.042.807.953 1.347.91 1.643 2.29 1.654 2.278 1.724 2.441.07 2.35-.026 2.293-1.081 4.481-.638-.133-.688-1.304-1.326-1.436-4.77-.99.021 1.355.129 1.381.413.099.853.043 1.265.143 5.488-1.273 4.893-2.178 5.107-2.443l-.254-3.135.25-1.811 1.811-1.187c4.221-.264 5.567 1.111 6.685-2.964.565-2.061-.622-1.915-.663-3.977 2.716-1.118 2.747-.564 5.279.835-.292 1.624-.285 1.546-.569 3.158-.191 1.085.361 1.039.065 2.053-.133.455-1.098.536-1.008 1.001.036.185.313-.307 2.032 1.176.79.682.325.808.034 2.763-1.396.263-1.332.183-2.695.768l-.446-.268c-.226-.099-.172-.122-2.694-1.495-1.604 1.061-1.336 1.222-2.263 2.952-2.262 2.849-2.169 2.978-2.703 3.075-.87.157-.556.47-1.204 1.019l-.89.121c-3.262.46-3.523-.585-6.079 1.326-.602-.241-.531-.191-2.853-.845-1.048.272-1.022.141-2 .519-2.211.855-.579 2.844-2.877 3.249-3 .528-2.291 1.521-4.382 3.795l.402.659c-1.586-.766-1.602-.451-3.094.354l-3.199.561-.193 2.159c-.033 2.951.401 4.649.502 5.042.769 3.863-1.798 2.213-2.159 2.369-.871.376-.535.767-1.478 1.099-.425.15-.185-.513-.62-.36-.605-.937-5.561-8.602-.717-13.927.499-.549 5.842-6.422 6.829-6.282 3.088.437 2.98-.185 5.89-1.174 1.43.05 6.868 1.181 3.676-2.467-.191-.218-.228-.012-.451-.314-.459-.62-.435-.544-.885-1.107-1.13-1.43-3.852-13.979 1.623-20.931" style="fill:#f0d3cc;fill-opacity:.96" transform="translate(-484.695 -556.591)scale(1.08587)"/><path d="m505.55 535.46.815-.96c2.726.214 3.752-.705 4.188 2.018-1.131.661-1.882.228-2.022 2.965.485.099.443.116 2.955 1.032.548.47.47.458 1.014.871 1.81 1.372 1.925.87 4 1.591 1.426 3.276 2.479-1.188 2.532-1.413 1.266.516 1.219.34 2.435.992 3.734 2.004 2.3-2.254 2.3-2.257l.49.397c1.243 1.62 1.508 1.642 3.247.65.472-.348 1.276.15 1.748-.198.412-.304.284-.986.493-1.454.296-.663.234-.617.477-1.26 1.414.797 1.346.765 2.238 2.084l-1.112 2.183c.317.306 3.784 3.648 4.168 3.604.497-.058.567-1.002 1.064-1.06.328.084 2.792.715 4.15.834l1.058.923c-.002.007-1.935 1.702-1.265 4.481.387 1.604-.969 1.389-1.035 1.483-3.119-.036-1.479 1.762-1.874 2.488-.136.25-.185.188-2.497 2.545-.025-.009-1.008.637-1.588-.536-.05-.102-.391-.792-.941-1.067-.69-.345-1.591-.334-2.145-.872-.527-.511-.321-1.521-.848-2.033 1.928-.646 1.879-.569 3.936-.92 3.032-.516 1.965-8.594-5.07-4.693-5.111.315-4.998-.279-9.893-1.579-3.591.334-3.526.629-7.071-.023-1.915-.937-1.945-.656-4.025-.56-3.495.024-3.398.131-6.881-.498l-1.139-1.654.191-1.959c2.65-.434 2.299-1.032 4.137-2.901 2.301-.354 2.133-.989 1.77-3.244" style="fill:#fdeae0;fill-opacity:1" transform="translate(-484.695 -556.591)scale(1.08587)"/><path d="M578.655 553.486c.122 5.54-.407 5.477.125 10.929.209 2.136-.613 2.843.72 2.838.112-.001-.448-.486 1.038-.933.947-.285.902.348 1.926.04.459.232.578.911 1.037 1.143l2.082-.62c2.755-1.148 2.789-1.061 2.975-1.24 3.6-3.448 8.921 1.896 7.136-2.11-.227-.509-.998-.63-1.224-1.14 1.706-.606 2.059-1.532 3.083.063.358.557.212 1.344.569 1.9-1.526 3.56 1.171 1.771 1.81 1.592l.571-.445c.09.009 2.03 2.91 3.734-3.106.434-1.533.639-1.375 1.776-2.482.841 1.586 1.095 1.65 2.728.92 2.39-.62 2.328-.288 4.697.379-2.266 1.996-2.127 2.099-4.957 3.25-.534-.218-.204.667-.673.475-.913-.373-.348-1.043-1.34-1.298-.409-.105-.054 1.955-1.002 3.599l-.951.301c-2.96 2.209-4.4 1.52-12.05 1.588-2.544 4.785-3.676 2.784-3.984 2.634-.276-.134-.86-.419-3.81.436-1.981-.879-1.909-.188-3.18.438l-1.037.063c-1.349-1.842-1.245-1.79-2.751-3.475-1.329-1.753-1.267-1.672-2.349-3.55-3.313-6.33-5.756-6.538-7.888-7.356l-.984-.753c2.078-1.445 1.871-1.603 3.958-2.894l1.556 1.385c.265.048.253-.67.518-.622l1.035.154 1.29-.829.562-.364c.248-.108.24.138 3.254-.91" style="fill:#fce8de;fill-opacity:1" transform="translate(-484.695 -556.591)scale(1.08587)"/><path d="m586.81 540.183 1.092 1.054c-.729 4.509 1.211 4.054 1.553 4.293 2.106 2.414 6.998 1.652 12.084 1.708-1.872 5.124.235 7.22.671 7.653l.595 1.65-1.498.783c-1.07.015-1.025-.199-2.01.029-1.879.435-1.008 1.071-.776 2.108l-.905-.141c.124-3.024-.525-3.647.877-3.872.664-.106.925.681.997 0 .074-.691-1.015.168-.943-.504l-1.047-2.255c-.268-.493.268-1.191 0-1.683-.882-1.621-1.056-.07-2.075 1.467l-1.049 1.939c-.397.539-.391.456-1.461 1.411l-1.845.471c-.063-.298.639-.412.576-.71-.054-.25-.209-.121-1.981-2.507l-2.463-.73c-3.282-1.449-4.435-4.126-5.362-.723-2.541 1.717-1.517 2.77-1.336 2.956.232.238.763-.316.995-.078l1.411 3.01c-.754.992-.782.81-2.403 2.003-.714.526 1.815.95 1.99.98.27-.028.251-.015 2.811.021l.259 2.014c-.893 1.586-.913 1.49-2.08 2.945l-1.023.885c-1.024.308-.979-.325-1.926-.04-1.486.447-.926.932-1.038.933-1.333.005-.511-.702-.72-2.838-.532-5.452-.003-5.389-.125-10.929.528-3.07.938-2.874.94-3.136.002-.227-.577-.14-.575-.368l.395-2.417 1.082.04.956.138.979-.078c.058.052.247 1.525 1.905.529.683-.41.881-.717.077-.956-.367-.554-1.422-.327-1.788-.881-1.247-1.884 2.787-2.374 2.874-2.624.141-.405-.513-.83-.367-1.233.078-.215.124-.172 1.677-2.317" style="fill:#feece0;fill-opacity:.98" transform="translate(-484.695 -556.591)scale(1.08587)"/><path d="M601.539 547.238c3.669 1.142 3.537 1.448 3.857 1.537 19.784 5.533 18.717 20.351 12.473 27.961-1.59-2.266-1.699-2.046-3.383-4.222l-1.979-1.05-1.013-.034-2.984-2.008 3.207-.599c3.241.808 4.037 1.772 5.523-1.323l-.74-1.787-1.964-.115c.379-1.943.344-1.94.41-2.098.44-1.056.293-1.014.635-2.193.15-.082 5.97-3.258-.081-2.137-2.683.497-2.717-.204-3.668-2.833-2.203-.322-2.151-.32-4.334-.118-1.648 1.299-1.714 1.211-2.656 3.04-1.909-2.535-1.905-2.521-2.037-2.718 2.053-1.324 1.699-1.657 1.561-1.787l-2.156.137c-.436-.433-2.543-2.529-.671-7.653" style="fill:#fce8dd;fill-opacity:.97" transform="translate(-484.695 -556.591)scale(1.08587)"/><path d="M472.633 566.425c.148.243.15.557.298.8 1.776 2.912 7.639.646 9.053 3.817l.521 1.447c4.299 1.348 3.906 2.137 8.209 3.52l-1.887 2.413c-1.801-.689-2.094-1.319-3.273.16-2.109.073-2.302.061-3.162-1.887l-1.95-1.064c-2.443.181-2.304.494-3.943 2.327l-1.867.128c-1.061-.453-.992-.39-2.182-.422-1.547-.107-1.422-.107-2.941-.202-3.507-.222-7.305-5.489-7.866-9.094 6.299.283 6.27.245 6.811.317 1.909-1.586 1.676-1.924 4.179-2.26" style="fill:#ecd0cb;fill-opacity:1" transform="translate(-484.695 -556.591)scale(1.08587)"/><path d="M550.315 531.079c1.94-1.032 1.92-.76 4.153-.938 1.375-.11 1.936-.916 3.048-.711 2.146.394 2.285.192 3.29-1.668 1.319-2.439 1.13 2.875 3.753 2.017 3.293-1.075 7.36 2.529 9.991 1.994 2.961-.603 2.487 1.004 5.143 2.329.075 1.108-1.256.38-1.187 1.398.068.999 1.071.064 1.349 1 .119.4-.874.6-.755 1l-2.478 1.233c-.012-.004-.896 1.003-.974-.376-.045-.778-.11-.809-.172-.838-.624-.293-.538.504-1.214.186-1.753-.123-3.787-.538-4.112-.605-1.383-7.055-4.032-2.973-4.154-2.6-.215.656-.07 1.467-.494 2.012-.203.26-.78-.376-.983-.116-1.008-1.862-.922-1.935-1.088-2.011-1.539-.705-.389.837-1.079 2.324l-1.739-.02-1.448.545c-2.844-7.161-5.856-.296-5.329 4.691-1.85 1.529-2.032 1.087-4.342.343l1.282-1.433-.027-1.256c.005-2.043-.005-1.953.206-4.077-.642-1.991-1.012-1.835-.953-2.002.289-.82.956-.217 1.058-1 .115-.891-.862-.518-.745-1.421" style="fill:#fce6da;fill-opacity:.9" transform="translate(-484.695 -556.591)scale(1.08587)"/><path d="M508.396 580.251c1.897 1.073 1.889.902 4.025.986l-2.891-.892c3.367-2.596 4.348-3.123 6.778.334 2.278 3.243 2.654 2.788 3.424 3.596-.944 2.885-1.874 2.036-4.232 4.057-1.495 1.281-2.547-.588-3.32 1.168-.488 1.111-.802.666-1.677 1.392l-3.148-1.007c-3.433-.937-3.305-1.052-5.958-3.254-1.794-1.488-1.595-1.811-3.885-2.067 1.396-2.324 1.015-2.591 3.206-4.064 1.781-1.198 1.777.382 2.77 1.198 1.412 1.16 1.734-.703 2.243-.741.463-.036 1.266 1.989 1.565.344z" style="fill:#edcdc7;fill-opacity:.96" transform="translate(-484.695 -556.591)scale(1.08587)"/><path d="M494.658 545.182c3.016.814 3.109 1.408 5.933.036 3.483.629 3.386.522 6.881.498 1.6 1.742 1.909 1.557 4.025.56 3.545.652 3.48.357 7.071.023-1.413 2.799-1.953 3.188-1.211 3.218 2.416.101 2.212.542 4.084 2.053-2.617.354-2.623.167-3.946.782-12.508.797-12.798.094-16.689 2.596-.578-2.272-1.214-3.15-1.386-3.387l-1.214-.642-1.711.55-1.012.153-.855-2.173c-.353-.98-.113-.994-.701-1.949-.395-.641-.307-.921-.282-1 .26-.824.734-.435 1.013-1.318" style="fill:#f5ddd6;fill-opacity:1" transform="translate(-484.695 -556.591)scale(1.08587)"/><path d="M540.549 570.476c2.09.29 4.443.316 4.83.321 1.057.972.904 1.025 2.127 1.665 1.776-.227 1.766-.215 1.918-.245 1.103-.22.959-.373 2.126-.605.287 4.043.458 3.997-.025 7.981-3.151-.824-3.201-.443-6.053-2.008-1.755-.964-3.358 2.204-6.071.11-2.692-2.078-2.977.345-8.822.542-4.853-2.285-4.623-3.34-8.079-2.843-4.23.609-1.289-2.087-.882-2.274.292-.135.639.384.932.249 2.51-.038 2.364-.858 4.925-.751 12.223.513 12.061 2.604 12.984 2.099 1.524-.832 1.273-1.269 3.069-1.443-2.207-.483-2.023-.769-2.979-2.798" style="fill:#f6dcd5;fill-opacity:1" transform="translate(-484.695 -556.591)scale(1.08587)"/><path d="m527.497 583.532.197.548c-.364.734.837 2.396-3.122 2.437.357 2.062-.186 2.875 1.928 2.969.785.035 3.354-.646 3.605-.986.477-.647-.079-.585-.148-1.093l-.344-.903c4.329-.618 4.212.083 8.138 1.996l-1.23 3.405c-1.546.309-1.486.22-3.019.603-3.38.846-19.242-.515-22.999-1.616.875-.726 1.189-.281 1.677-1.392.773-1.756 1.825.113 3.32-1.168 2.358-2.021 3.288-1.172 4.232-4.057 4.013.209 3.934.154 7.765-.743" style="fill:#edcec8;fill-opacity:.98" transform="translate(-484.695 -556.591)scale(1.08587)"/><path d="M517.495 552.352c4.54 3.78 5.097 2.267 8.064 2.368.456.672 1.046.278 1.037 1.526-.018 2.513.293 4.172-1.132 5.213l-.85.206c-6.371 2.074-4.322-1.85-4.33-2.157-.127-2.071-.025-2.034-.324-3.089-.729.339-.722-.509-1.46-.165-1.016.472-.355 1.175-1.365 1.478-.463.139-.798-.615-1.276-.685-4.245-.628-8.616.329-9.347.489l-1.212 1.494c-1.534.099-1.524.107-1.657.107-.706.003-.477-.489-1.196-.538-2.506-.171-2.795 1.112-3.074 1.101l-1.131-3.565c.357-.157.198-.187.439-.293.169-.075.158-.067 2.125-.894 3.891-2.502 4.181-1.799 16.689-2.596" style="fill:#fbe5dd;fill-opacity:1" transform="translate(-484.695 -556.591)scale(1.08587)"/><path d="m474.437 561.602 3.133-.392c.094.306.789.07.883.376.052.171-.062.153-.842 2.065-1.149.502-1.466.663-.77 1.762.865 1.366 1.181.778 2.637-.002 1.62-.867.872-1.578 1.041-1.883l2.427-1.168c.214-.322-.618-.766-.404-1.087 1.871.209 1.984.066 2.013.225l-.641 2.34c-.552 1.864-.086 1.794-.139 3.692-.152 5.514 4.736-.255 8.76 3.613.634.609.677.499 5.961 3.072-1.997 4.281-2.58 4.102-2.96 3.986-3.353-1.025-4.491-1.928-4.822-2.192-4.303-1.383-3.91-2.172-8.209-3.52l-.521-1.447c-1.414-3.171-7.277-.905-9.053-3.817-.148-.243-.15-.557-.298-.8l-.393-2.166c3.038-1.523 2.139-2.519 2.197-2.657" style="fill:#f0d4cf;fill-opacity:1" transform="translate(-484.695 -556.591)scale(1.08587)"/><path d="M477.663 539.264c3.067 2.107 3.344 1.117 4.615.632 1.299.488 1.197.443 1.299.488.418.183.288.259.692.435l2.225 1.688c.041 2.062 1.228 1.916.663 3.977-1.118 4.075-2.464 2.7-6.685 2.964-.098-3.67-.122-3.609-.122-3.923 4.458.221 2.777-1.988 2.521-2.025-.811-.116-.45.677-1.358.72-.867.042-.59-.626-1.405-.587l-2.025.696c-.225-.052-.775.723-1.783-.412-1.064-1.198-2.73-.422-2.755.557-.015.611 1.927 2.443 2.124 2.628 1.255.267 1.193.314 2.484.26-.167.265.255 1.318-1.523 2.415l-2.133.76-1.65.477c-.54.043-.807-.952-1.347-.91-.195.015-.148.103-2.002 1.396-1.201-10.066.039-10.432.827-10.206.319.091 1.475 2.127 4.877-1.031 1.055-.98 1.131-.674 2.461-.999" style="fill:#efd2cc;fill-opacity:1" transform="translate(-484.695 -556.591)scale(1.08587)"/><path d="m506.424 524.429 2.064.191c2.347 1.134 2.218 2.032 4.754 1.276l.067.768c.052 1.4.048 1.331.427 2.713l-.33 1.142c-.258.974.227.95-.049 1.991-.045.169-.072.145-.966 1.954.155 1.515-.03 1.449.151 3.027 1.066-1.625 1.215-1.346 2.963-1.991-.386 3.836-.195 3.78.995 7.477-2.075-.721-2.19-.219-4-1.591-.544-.413-.466-.401-1.014-.871-.08-.262-.357-.434-.438-.696-.447-1.448.348-2.236.337-2.302-.067-.428-.765-.571-.832-.999-.436-2.723-1.462-1.804-4.188-2.018-1.209-3.007 1.635-3.972-.989-5.808-1.575-1.102-.829-1.47.158-3.082z" style="fill:#feece2;fill-opacity:1" transform="translate(-484.695 -556.591)scale(1.08587)"/><path d="m483.914 563.838.84.011 1.904.132c.948.148.797-.273 1.662-.57 6.578 7.48 10.102 4.93 10.963 6.089.863 1.162.737 1.446 2.217 1.326 1.22-.099 4.661 4.249 5.001 4.678-.649-.019-1.995-.06-8.005-1.289-5.284-2.573-5.327-2.463-5.961-3.072-4.024-3.868-8.912 1.901-8.76-3.613.053-1.898-.413-1.828.139-3.692" style="fill:#f3dad4;fill-opacity:1" transform="translate(-484.695 -556.591)scale(1.08587)"/><path d="M497.628 533.769c2.485-.193 2.403-.207 4.9-.287l.735 1.218c-.084.482.551.163.468.638-.125.716-.529.425-.776 1.125l.825 2.241c-1.838 1.869-1.487 2.467-4.137 2.901-.194.157-1.068-.574-1.255 1.012-.013.113 0 0 1.064.947l1.139 1.654c-2.824 1.372-2.917.778-5.933-.036l-1.408-1.448c.08-3.23-.095-4.917-.139-5.342 1.769-1.313 1.63-1.747.257-3.509 1.617-.36 1.513-.389 3.138-.368z" style="fill:#fbe5dc;fill-opacity:1" transform="translate(-484.695 -556.591)scale(1.08587)"/><path d="M579.693 534.102c6.126 3.042 5.433 4.347 7.117 6.081-1.553 2.145-1.599 2.102-1.677 2.317-.146.403.508.828.367 1.233-.087.25-4.121.74-2.874 2.624.366.554 1.421.327 1.788.881l-1.982.427-.979.078c-.35-.448.137-.561-.233-1.033-.512-.656-.177.219-.723.895l-1.082-.04-.468-.145c-.305-.584-.011-1.366-.316-1.95-3.281-6.285-2.275 1.872-2.245 2.117-.517-.531-.504-.444-.988-1.013-.376-.443-1.108-.585-1.339-1.119-.139-.322.581-.633.442-.955.144-1.052.405-1.048-.079-1.856 3.522.558 5.37 1.559 4.999-2.135-.156-1.549-.158-1.479-.321-3.009-.119-.4.874-.6.755-1-.278-.936-1.281-.001-1.349-1-.069-1.018 1.262-.29 1.187-1.398" style="fill:#feeee0;fill-opacity:.97" transform="translate(-484.695 -556.591)scale(1.08587)"/><path d="M458.549 568.722c1.492-.805 1.508-1.12 3.094-.354.561 3.605 4.359 8.872 7.866 9.094 1.519.095 1.394.095 2.941.202l.264.44-.015 1.37c-1.255.895-1.245.706-2.432 1.733-.292.253-.583.505-4.827-.271-1.626-.297-1.771-2.502-3.107-4.255-.911-2.047-.721-2.329-2.943-2.876-1.705.446-1.556.609-2.903 1.695l-.828.984c-.101-.393-.535-2.091-.502-5.042.46.065.883-.433 1.343-.368 2.644.375 4.841 3.173 3.582.752-.128-.246-1.129-2.17-1.533-3.104" style="fill:#e9ccc8;fill-opacity:1" transform="translate(-484.695 -556.591)scale(1.08587)"/><path d="m498.206 550.919 1.214.642c.172.237.808 1.115 1.386 3.387-1.967.827-1.956.819-2.125.894-.241.106-.082.136-.439.293-3.32 1.933-5.215 2.044-8.085 5.121-1.704-2.422-1.664-2.979-4.629-2.559-.895-1.628-.977-1.481-1.299-3.247.927-1.73.659-1.891 2.263-2.952 2.522 1.373 2.468 1.396 2.694 1.495-1.936 1.333-3.45 1.791-1.438 3.005 1.8 1.086 1.878-2.471 1.884-2.737l1.689 1.308c3.045 1.945 3.245.118 4.106-3.428l1.068-.672z" style="fill:#f2d9d2;fill-opacity:1" transform="translate(-484.695 -556.591)scale(1.08587)"/><path d="M485.078 530.758c1.287-.472 1.083-.907 2.422-.887 3.307.049-.079 1.835.282 3.629.284 1.414 1.767.513 3.823.856l1.078.931c.356 2.807.33 2.792.428 3.105.044.425.219 2.112.139 5.342l-1.477-.392c-2.532-1.399-2.563-1.953-5.279-.835l-2.225-1.688c2.05-2.409 1.945-2.667 2.207-2.594.523.146.486 1.047.956 1.32 2.254 1.309 4.659-4.552 1.059-2.83-3.443 1.646-2.22-2.154-3.413-5.957" style="fill:#f8e0d8;fill-opacity:1" transform="translate(-484.695 -556.591)scale(1.08587)"/><path d="M550.315 531.079c-.117.903.86.53.745 1.421-.102.783-.769.18-1.058 1-.059.167.311.011.953 2.002-.484.128-.51.998-.993 1.126-.86.226-1.802-.382-2.664-.162-1.24.317-.946 2.779-.916 3.03.258 2.16.22 2.254.148 2.436-.281.702-.821-.751-1.076-.111-5.049-2.396-3.555-4.782-3.99-5.321-.202-.25-.679.146-.964-.002-1.112-.576-1.003-.893-.967-.998.492-1.438 1.505-.574 2.017-2.071 3.031.53 2.782-.677 5.882-1.322.24-.049.214-.076 2.883-1.028" style="fill:#f9dbcf;fill-opacity:.93" transform="translate(-484.695 -556.591)scale(1.08587)"/><path d="M557.386 567.334c2.385.546 2.578.472 3.507 2.755-.541.128-13.751 3.23-4.375 5.4.306.071.721.216.944-.006.412-.41-.374-.567.041-.976.111-.11.145 0 1.954.003l.107 2.32c-.177.101-1.377-.247-2.412 1.39-.61.964-.606 1.198-1.755.909-1.997-.501-1.894-.078-3.872.464.483-3.984.312-3.938.025-7.981l.911-1.31c4.551-2.779 4.629-2.616 4.925-2.968" style="fill:#f7ddd5;fill-opacity:1" transform="translate(-484.695 -556.591)scale(1.08587)"/><path d="M533.629 581.149c3.811 1.895 10.873 2.366 11.838 2.43l.803 1.117c-.35.283-4.217 3.405-5.397 1.595-.896-1.372-1.217-.852-2.474.075-1.013.746-.631.859-.648 2.134-3.926-1.913-3.809-2.614-8.138-1.996.104-1.729.098-1.719.112-1.868.044-.439.176-.335.218-.76.249-.269.412-.044 3.686-2.727" style="fill:#eed0ca;fill-opacity:1" transform="translate(-484.695 -556.591)scale(1.08587)"/><path d="M473.214 526.252c.363.258-.019 1.414 2.286 1.621 4.144.372 4.034.366 4.15.367l-1.901 2.195c-2.031 1.186-2.615.876-2.889 3.258-1.904 1.704-2.031 1.618-2.053 1.837-.087.89.771.587.685 1.465-3.744.209-2.711-2.004-6.125-3.605 3.152-3.457 2.58-3.861 5.847-7.138" style="fill:#f4d7cf;fill-opacity:.98" transform="translate(-484.695 -556.591)scale(1.08587)"/><path d="m573.596 542.34.826.304c.484.808.223.804.079 1.856-1.547 2.736-.144 2.939-.71 6.083-.565 2.711-.76 2.716-.632 2.917.377.59 1.303.67 1.68 1.26l-1.29.829-1.035-.154c-.265-.048-.253.67-.518.622l-1.556-1.385-1.279-1.973 1.941-1.17c.052-.368-.405-.689-.353-1.057-.865-2.374-.715-2.493-2.84-3.93l.033-1.847.496-1.345c2.874-1.473 2.971-.853 5.158-1.01" style="fill:#feeee2;fill-opacity:1" transform="translate(-484.695 -556.591)scale(1.08587)"/><path d="m566.511 562.336 1.758 3.086-1.52 1.442c-.204.131-3.915 2.527.545 2.977.983.1 1.123.017 1.206-.032.911-.539.429-.934 1.42-1.52l.411.238 2.386 4.376c-6.342.671-6.47.503-11.824-2.814 3.762-3.697 2.999-5.478 2.792-5.962z" style="fill:#fae3db;fill-opacity:1" transform="translate(-484.695 -556.591)scale(1.08587)"/><path d="m566.482 557.566.984.753c2.132.818 4.575 1.026 7.888 7.356-.278.07-.4-.6-.678-.529-1.767.448-1.688 1.387-3.375.595l-2.665-1.244-.134-2-1.023-.3-.968.139-3.191-2.159.267-.563c-.134-.278.344-.624.211-.902-.738-1.539-1.564-1.98-.319-2.273 1.672-.393 1.493.164 3.003 1.127" style="fill:#fbe6dc;fill-opacity:1" transform="translate(-484.695 -556.591)scale(1.08587)"/><path d="M541.788 547.002c.127.508.919.665 1.046 1.174.191.761-.474.589-.419 1.33.047.639.544.342.589.946l-.24 1.025c.132 1.606.05 1.577.775 3.031l-.085 2.03c.149.139.16-.085 2.262-1.189l.74 1.183c.671.491 1.02-.051 2.688 1.968 1.396 1.69 2.44.895 2.726 1l.63 2.004-3.977-.399c-1.694-2.803-2.18-2.311-4.987-2.055l-1.834.823c-.092-.524-.718-.85-.811-1.373-.173-.979.956-2.748-.31-4.106l-1.093-1.428c.066-.094 1.422.121 1.035-1.483-.67-2.779 1.263-4.474 1.265-4.481" style="fill:#feebe1;fill-opacity:1" transform="translate(-484.695 -556.591)scale(1.08587)"/><path d="m472.24 564.259.393 2.166c-2.503.336-2.27.674-4.179 2.26-.541-.072-.512-.034-6.811-.317l-.402-.659c2.091-2.274 1.382-3.267 4.382-3.795 2.298-.405.666-2.394 2.877-3.249.978-.378.952-.247 2-.519-1.025 2.76-1.216 3.799 1.74 4.113" style="fill:#eed2cd;fill-opacity:1" transform="translate(-484.695 -556.591)scale(1.08587)"/><path d="m483.519 528.452.81.252c.657 1.961.705 1.885.749 2.054 1.193 3.803-.03 7.603 3.413 5.957 3.6-1.722 1.195 4.139-1.059 2.83-.47-.273-.433-1.174-.956-1.32-.262-.073-.157.185-2.207 2.594-.404-.176-.274-.252-.692-.435-.102-.045 0 0-1.299-.488.47-3.212.607-3.117.232-6.4l-1.01-.876c-.874-1.978-.888-1.958-.944-2.136-.158-.506.156-.468-.01-.996 1.703-.07 1.576-.251 2.973-1.036" style="fill:#f7ddd5;fill-opacity:1" transform="translate(-484.695 -556.591)scale(1.08587)"/><path d="M529.644 531.435c.621 1.271.533 1.2.621 1.271.945.766 1.156.158 2.024.862.561 2.321 1.21 1.749 3.308 2.792l.108 1.08c-.613 1.096-.835 1.023-.517 2.256.54 1.043.784.807 1.263 1.823.444 1.905.351 1.819.129 3.726-.497.058-.567 1.002-1.064 1.06-.384.044-3.851-3.298-4.168-3.604l1.112-2.183c-.892-1.319-.824-1.287-2.238-2.084l-.075-.911c.674-1.909 1.148-2.173-.372-3.428-.076-2.52-.134-2.447-.131-2.66" style="fill:#feeee2;fill-opacity:1" transform="translate(-484.695 -556.591)scale(1.08587)"/><path d="m501.475 525.285 4.059.325c-.987 1.612-1.733 1.98-.158 3.082 2.624 1.836-.22 2.801.989 5.808l-.815.96-2.287-.76-.735-1.218c.072-3.464-1.159-2.945-2.968-4.063l-.558-.561-.111-2.067c.356-.597.432-.456 2.584-1.506" style="fill:#feeae0;fill-opacity:1" transform="translate(-484.695 -556.591)scale(1.08587)"/><path d="M518.568 546.299c4.895 1.3 4.782 1.894 9.893 1.579.542 1.724.808 1.532.881 1.668l-.396 1.066c-1.585 1.307-1.928.615-3.457 1.877-1.344 1.109-.509 1.503-.64 1.504-.582.004-.624-.984-.907-1.493-.834-1.495-1.151-.954-2.501-.93-1.872-1.511-1.668-1.952-4.084-2.053-.742-.03-.202-.419 1.211-3.218" style="fill:#f7e1d9;fill-opacity:1" transform="translate(-484.695 -556.591)scale(1.08587)"/><path d="M557.4 562.064c.778.013.754-.397 4.125.158l1.939 1.376.221.529c.207.484.97 2.265-2.792 5.962-.929-2.283-1.122-2.209-3.507-2.755-.1-.227.384-.461.284-.688-.254-.577-.942-.154-1.104-2.128-.16-1.958.579-1.704.834-2.454" style="fill:#fae2d9;fill-opacity:1" transform="translate(-484.695 -556.591)scale(1.08587)"/><path d="m487.588 525.745 2.122.087 2.808.687.252 1.871c-.341.536-1.493-.083-1.351 2.124l.186 3.842c-2.056-.343-3.539.558-3.823-.856-.361-1.794 3.025-3.58-.282-3.629-1.339-.02-1.135.415-2.422.887-.044-.169-.092-.093-.749-2.054 1.878-1.238 1.714-1.298 3.259-2.959" style="fill:#fbe3da;fill-opacity:1" transform="translate(-484.695 -556.591)scale(1.08587)"/><path d="m478.792 533.108 1.689-.001 2.029.389c.375 3.283.238 3.188-.232 6.4-1.271.485-1.548 1.475-4.615-.632-.284-2.063-.306-1.964-.319-2.676.505-1.891.47-1.789 1.448-3.48" style="fill:#f3d7d0;fill-opacity:1" transform="translate(-484.695 -556.591)scale(1.08587)"/><path d="M607.517 574.932c-1.087 1.254-1.184 1.211-1.174 1.354.29 4.047-1.923 1.997-5.798.987l-2.042-1.851c2.929-1.797 2.364-4.24 3.911-3.328 1.111.655 1.069.594 2.204 1.221.886.489.931-.166 1.882.297.5.243.518 1.077 1.017 1.32" style="fill:#f8e0d8;fill-opacity:1" transform="translate(-484.695 -556.591)scale(1.08587)"/><path d="M571.301 565.741c1.687.792 1.608-.147 3.375-.595.278-.071.4.599.678.529 1.082 1.878 1.02 1.797 2.349 3.55-.707.238-.754 1.458-1.461 1.696-.393.133-.44-.803-.838-.922l-1.587 1.908-1.1.996-2.386-4.376-.846-1.976z" style="fill:#fae3db;fill-opacity:1" transform="translate(-484.695 -556.591)scale(1.08587)"/><path d="M528.461 547.878c7.035-3.901 8.102 4.177 5.07 4.693-2.057.351-2.008.274-3.936.92l-.943-1.942c.651-.874.542-.859.69-2.003-.073-.136-.339.056-.881-1.668" style="fill:#fbe7de;fill-opacity:1" transform="translate(-484.695 -556.591)scale(1.08587)"/><path d="m569.473 537.475.677-.375c.325.067 2.359.482 4.112.605-.475 2.36-.531 2.27-.666 4.635-2.187.157-2.284-.463-5.158 1.01l-1.893-1.489c.056-3.019.023-3.002.061-3.26.065-.446.48-.083.552-.571.019.011 1.454 2.974 2.315-.555" style="fill:#feebde;fill-opacity:1" transform="translate(-484.695 -556.591)scale(1.08587)"/><path d="M593.346 558.698c1.376.396 1.271.434 2.806.233l1.464.389.905.141c3.177.622 4.168 1.128 2.709 4.006-.495.976-.34.952-.727 2.036l-.571.445-1.81-1.592c-.357-.556-.211-1.343-.569-1.9-1.024-1.595-1.377-.669-3.083-.063l-1.034-.797c.453-3.015-.089-2.891-.09-2.898" style="fill:#feeae0;fill-opacity:1" transform="translate(-484.695 -556.591)scale(1.08587)"/><path d="m593.436 561.596 1.034.797c.226.51.997.631 1.224 1.14 1.785 4.006-3.536-1.338-7.136 2.11-.186.179-.22.092-2.975 1.24l-2.096-1.408c1.167-1.455 1.187-1.359 2.08-2.945 1.831.543 1.813.591 1.978.587.409-.01.571-.73.98-.739l.926-.327c.391-.036.436.877.828.841.272-.025-.086-.852 3.157-1.296m-53.948-8.63 1.093 1.428c1.266 1.358.137 3.127.31 4.106.093.523.719.849.811 1.373l-.165.78-1.002.686c-2.934-1.313-2.669-1.573-5.418-3.34 2.312-2.357 2.361-2.295 2.497-2.545.395-.726-1.245-2.524 1.874-2.488" style="fill:#feebe1;fill-opacity:1" transform="translate(-484.695 -556.591)scale(1.08587)"/><path d="M559.165 537.234c-.702 1.958-.892 1.835-.834 3.13.133 2.961-1.539 1.231-4.495 1.561-.527-4.987 2.485-11.852 5.329-4.691" style="fill:#fde6da;fill-opacity:1" transform="translate(-484.695 -556.591)scale(1.08587)"/><path d="m613.438 561.214 2.143.093c-.342 1.179-.195 1.137-.635 2.193-.066.158-.031.155-.41 2.098-1.7.854-1.708.819-1.836.923-.467.381.064.605-.376.964-2.231-1.299-2.845-2.507-4.11-.214-.094.17-.641 1.163-1.86 1.544-.308.097-.519-.601-.827-.504l-1.012-.77.951-.301c1.861-1.004 1.655-1.146 3.015-2.776 2.83-1.151 2.691-1.254 4.957-3.25" style="fill:#fce5db;fill-opacity:1" transform="translate(-484.695 -556.591)scale(1.08587)"/><path d="M512.278 562.346c2.578 6.061-3.495 6.488-6.913 4.736l.221-.397c1.136-1.063 1.137-.943 1.857-2.293.344-.654-.455-2.568 4.835-2.046" style="fill:#f8e0d8;fill-opacity:1" transform="translate(-484.695 -556.591)scale(1.08587)"/><path d="m492.77 528.39 2.741 1.09c1.499 2.068 2.015 3.92 2.117 4.289l-1.122.746c-1.625-.021-1.521.008-3.138.368l-.685.404-1.078-.931-.186-3.842c-.142-2.207 1.01-1.588 1.351-2.124" style="fill:#fde5dd;fill-opacity:1" transform="translate(-484.695 -556.591)scale(1.08587)"/><path d="M494.696 522.53c.15.294-.325.68-.175.973.477.93.92.443 1.358 1.335.229.465-.589.23-.387.643l-2.974 1.038-2.808-.687c.421-1.67.02-1.739.832-3.299.668-1.284 1.199-.719 1.903-2.033.777-1.451.982-2.331 2.154-1.127.578.594.241.654.097 3.157" style="fill:#fce2d9;fill-opacity:1" transform="translate(-484.695 -556.591)scale(1.08587)"/><path d="M601.307 557.324c.006.007-.169 1.615 3.535 1.935l1.171.656c-1.137 1.107-1.342.949-1.776 2.482-1.704 6.016-3.644 3.115-3.734 3.106.387-1.084.232-1.06.727-2.036 1.459-2.878.468-3.384-2.709-4.006-.232-1.037-1.103-1.673.776-2.108.985-.228.94-.014 2.01-.029" style="fill:#fde9dd;fill-opacity:.99" transform="translate(-484.695 -556.591)scale(1.08587)"/><path d="m515.807 534.325.816.849.894 2.321c.426.214.685-.691 1.115-.896.28-.133.739.17.928-.077.216-.284-.269-.786-.052-1.07l2.024-.795c-.112.304-.739 1.992-1.019 3.919l-.946.131c-2.096.636-2.195 1.538-.535 2.857-.053.225-1.106 4.689-2.532 1.413-1.19-3.697-1.381-3.641-.995-7.477z" style="fill:#feece2;fill-opacity:1" transform="translate(-484.695 -556.591)scale(1.08587)"/><path d="m531.718 565.606-.046 3.198c-.41 2.658-1.525 1.257-4.192.746-3.238-.62-3.243.812-6.435-.05l-.619-1.924c1.136-.29.934-1.133 2.936-.748 1.143.22.971.494 2.137.684 3.316.542 5.821-1.571 6.219-1.906" style="fill:#f9e0d9;fill-opacity:1" transform="translate(-484.695 -556.591)scale(1.08587)"/><path d="M551.472 552.527c.179 1.114.097 1.053.644 2.045l.275.909c-.015.324-.058.276-.521 4.019-.286-.105-1.33.69-2.726-1-1.668-2.019-2.017-1.477-2.688-1.968.054-.259.396-1.911 1.013-3.147.461-.199 3.48-.717 4.003-.858" style="fill:#feede3;fill-opacity:1" transform="translate(-484.695 -556.591)scale(1.08587)"/><path d="M504.478 519.651c.816.067 2.654-.826 1.841 2.728l.105 2.05-.89 1.181-4.059-.325-1.196-1.496c1.09-1.529 1.252-1.391 1.695-3.29z" style="fill:#fde8dd;fill-opacity:1" transform="translate(-484.695 -556.591)scale(1.08587)"/><path d="m541.294 545.882 1.144-.238c1.161.538 2.801 1.101 3.048 1.186 3.267.936 4.637 1.678 5.013 1.882-2.502.409-2.565.247-2.7.419-.176.222-.423.534 2.758 2.217-.885.489-2.143-.317-3.028.172-.42.233.399 1.05.115 1.438-.225.306-.914-.348-1.138-.042h-.584l.741-2.395c-.122-.052-.67-1.631-3.659-.069-.045-.604-.542-.307-.589-.946-.055-.741.61-.569.419-1.33-.127-.509-.919-.666-1.046-1.174l-1.058-.923z" style="fill:#feece1;fill-opacity:1" transform="translate(-484.695 -556.591)scale(1.08587)"/><path d="m491.773 543.342 1.477.392 1.408 1.448c-.279.883-.753.494-1.013 1.318-.025.079-.113.359.282 1 .588.955.348.969.701 1.949-.004 1.242.208 1.102.855 2.173l1.012-.153-1.068.672c-1.889.541-2.875 1.202-3.1 1.352.291-1.955.756-2.081-.034-2.763-1.719-1.483-1.996-.991-2.032-1.176-.09-.465.875-.546 1.008-1.001.296-1.014-.256-.968-.065-2.053.284-1.612.277-1.534.569-3.158" style="fill:#f5dbd4;fill-opacity:1" transform="translate(-484.695 -556.591)scale(1.08587)"/><path d="M607.498 556.219c2.183-.202 2.131-.204 4.334.118.951 2.629.985 3.33 3.668 2.833 6.051-1.121.231 2.055.081 2.137l-2.143-.093c-2.369-.667-2.307-.999-4.697-.379-.178-2.441-.151-2.407-1.243-4.616" style="fill:#fde7dc;fill-opacity:.99" transform="translate(-484.695 -556.591)scale(1.08587)"/><path d="M508.578 520.079c.57.024 12.281-.53 5.922 1.363-5.623 1.674-4.459 3.366-4.928 3.478-.365.087-.72-.387-1.084-.3l-2.064-.191-.105-2.05c1.412-.845 1.21-.956 2.259-2.3" style="fill:#feeade;fill-opacity:1" transform="translate(-484.695 -556.591)scale(1.08587)"/><path d="M536.451 541.519c3.703 2.012 3.467 2.385 3.828 2.393.39.008.186-1.317 2.221-.545.942.358 3.593-.078 3.295 2.133-.061.451-.248.879-.309 1.33-.247-.085-1.887-.648-3.048-1.186l-1.144.238-.564.197c-1.358-.119-3.822-.75-4.15-.834.222-1.907.315-1.821-.129-3.726" style="fill:#feefe3;fill-opacity:1" transform="translate(-484.695 -556.591)scale(1.08587)"/><path d="M550.955 535.502c-.211 2.124-.201 2.034-.206 4.077l.027 1.256-1.282 1.433-4.04-.447c.255-.64.795.813 1.076.111.072-.182.11-.276-.148-2.436-.03-.251-.324-2.713.916-3.03.862-.22 1.804.388 2.664.162.483-.128.509-.998.993-1.126" style="fill:#faddd1;fill-opacity:.99" transform="translate(-484.695 -556.591)scale(1.08587)"/><path d="M516.569 531.736c2.708 1.424 2.78.83 5.279.574 1.965.097 1.852.099 3.724.303.793 1.574.766 1.586.915 1.725l-2.283 1.178c-1.23-.793-1.19-.786-2.672-.859l-3.118-.406-1.791.923-.816-.849-.428-.787c.948-1.552.902-1.579 1.19-1.802" style="fill:#feeee3;fill-opacity:1" transform="translate(-484.695 -556.591)scale(1.08587)"/><path d="M524.359 536.445c2.994.607 3.153-.432 5.788 1.078l.075.911c-.243.643-.181.597-.477 1.26-.209.468-.081 1.15-.493 1.454-.472.348-1.276-.15-1.748.198-2.75-1.572-2.708-1.585-3.151-1.749z" style="fill:#feefe3;fill-opacity:1" transform="translate(-484.695 -556.591)scale(1.08587)"/><path d="m588.174 554.477 2.506 2.073c-.204 2.788-.297 2.726-.289 2.964-1.396-.767-1.399-.596-2.994-.681l-2.946-.269-1.541-1.052c.514-.343-.059-1.259 1.581-1.055 1.729.214 1.87.371 2.975-.997z" style="fill:#feede2;fill-opacity:1" transform="translate(-484.695 -556.591)scale(1.08587)"/><path d="M495.511 529.48c2.04-.149 1.942.092 4.049-.061 1.809 1.118 3.04.599 2.968 4.063-2.497.08-2.415.094-4.9.287-.102-.369-.618-2.221-2.117-4.289" style="fill:#fde7de;fill-opacity:1" transform="translate(-484.695 -556.591)scale(1.08587)"/><path d="m523.459 525.707 1.012.03 1.451-.722 1.635 1.547c-.644 1.789-.18 1.782-.163 1.998l.395.83c-1.376 2.621-1.352 2.613-1.486 2.831-.225.367-.476-.023-.731.392l-1.754-3.006c.696-2.44-.176-3.646-.359-3.9" style="fill:#feeee2;fill-opacity:1" transform="translate(-484.695 -556.591)scale(1.08587)"/><path d="m562.352 536.709 2.167-.313c.203-.26.78.376.983.116.424-.545.279-1.356.494-2.012.122-.373 2.771-4.455 4.154 2.6l-.677.375c-.328.044-.294.051-2.315.555l-1.625-.434-1.109.15z" style="fill:#fde9db;fill-opacity:.99" transform="translate(-484.695 -556.591)scale(1.08587)"/><path d="M485.528 558.697c2.965-.42 2.925.137 4.629 2.559-1.033 1.055-.947.974-1.837 2.155-.865.297-.714.718-1.662.57l-1.904-.132c.481-1.14.394-1.109.924-2.189.235-.48-.168-.545.127-.966.878-1.251-.492-1.631-.498-1.651z" style="fill:#f0d6d0;fill-opacity:1" transform="translate(-484.695 -556.591)scale(1.08587)"/><path d="M527.557 526.562c2.572-1.387 3.436-2.697 3.389-1.062-.012.437-2.075 2.655-1.761 3.092 1.45 2.011 4.099.912 3.104 4.976-.868-.704-1.079-.096-2.024-.862-.088-.071 0 0-.621-1.271l-2.25-2.875c-.017-.216-.481-.209.163-1.998" style="fill:#fef0e4;fill-opacity:1" transform="translate(-484.695 -556.591)scale(1.08587)"/><path d="M556.903 546.503c.943 1.074.761 1.075 1.352 2.276 1.545.929 1.524.837 3.3 1.417l1.081 1.259c-.297.188.171.858-.125 1.046-.583.369-4.814.341-5.098.119-1.165-.909-.542-1.193-.51-6.117" style="fill:#fdebdf;fill-opacity:1" transform="translate(-484.695 -556.591)scale(1.08587)"/><path d="m592.915 555.823.758 1.602-.327 1.273c.001.007.543-.117.09 2.898-3.243.444-2.885 1.271-3.157 1.296-.392.036-.437-.877-.828-.841.089-.197-.023-.142.94-2.537-.008-.238.085-.176.289-2.964l.39-.256z" style="fill:#feebe0;fill-opacity:.99" transform="translate(-484.695 -556.591)scale(1.08587)"/><path d="M576.386 547.587c-.03-.245-1.036-8.402 2.245-2.117.305.584.011 1.366.316 1.95l.073 2.562c-.002.228.577.141.575.368-.002.262-.412.066-.94 3.136-3.014 1.048-3.006.802-3.254.91.395-.441.135-.958 2.048-2.161 1.689-1.062-.027-1.799-.028-1.845-.31-.793.11-.826-.216-1.662-.041-.105 0 0-.819-1.141" style="fill:#fdebdf;fill-opacity:1" transform="translate(-484.695 -556.591)scale(1.08587)"/><path d="m478.411 552.446.254 3.135c-.214.265.381 1.17-5.107 2.443l-.068-.088c1.055-2.188 1.151-2.131 1.081-4.481 1.858-.749 1.808-.694 3.84-1.009" style="fill:#f0d2cd;fill-opacity:1" transform="translate(-484.695 -556.591)scale(1.08587)"/><path d="m576.622 538.733 2.478-1.233c.163 1.53.165 1.46.321 3.009.371 3.694-1.477 2.693-4.999 2.135 1.681-1.64 1.458-1.711 2.2-3.911" style="fill:#fdebde;fill-opacity:1" transform="translate(-484.695 -556.591)scale(1.08587)"/><path d="M513.736 529.377c2.539-.562 2.517-.614 2.742-.607.651.018.343.578 1.033.598l.98 1.084-1.922 1.284c-.288.223-.242.25-1.19 1.802-1.429.87-1.348.905-2.988.926.894-1.809.921-1.785.966-1.954.276-1.041-.209-1.017.049-1.991z" style="fill:#feede2;fill-opacity:1" transform="translate(-484.695 -556.591)scale(1.08587)"/><path d="M567.909 546.542c2.125 1.437 1.975 1.556 2.84 3.93-5.51-3.845-1.707 2.043-1.588 2.227l1.279 1.973c-4.253-3.424-4.848-2.509-5.06-2.926-.911-1.793-.86-2.67 1.152-2.52.32.024.749.407.948.156.399-.504.02-1.378.42-1.882z" style="fill:#fdede1;fill-opacity:.99" transform="translate(-484.695 -556.591)scale(1.08587)"/><path d="M518.546 525.456c4.251.164 4.523.2 4.913.251.183.254 1.055 1.46.359 3.9l-2.251 1.624-1.205-.377c1.076-1.89 1.032-1.905 1.162-2.041 2.278-2.363-.953-1.268-1.86-1.288l-.688-1.447z" style="fill:#fdede1;fill-opacity:1" transform="translate(-484.695 -556.591)scale(1.08587)"/><path d="M521.532 534.657c1.482.073 1.442.066 2.672.859l.155.929-.006 3.152-.096 1.099-.49-.397-1.074-.094c-1.084-.843-1.027-.804-2.18-1.629.28-1.927.907-3.615 1.019-3.919" style="fill:#feede2;fill-opacity:1" transform="translate(-484.695 -556.591)scale(1.08587)"/><path d="M519.567 538.707c1.933 1.312 1.906 1.328 2.087 1.417.527.26.519-.176 1.039.081l1.074.094c0 .003 1.434 4.261-2.3 2.257-1.216-.652-1.169-.476-2.435-.992-1.66-1.319-1.561-2.221.535-2.857" style="fill:#fdebe1;fill-opacity:1" transform="translate(-484.695 -556.591)scale(1.08587)"/><path d="m528.326 532.562 1.449 1.533c1.52 1.255 1.046 1.519.372 3.428-2.635-1.51-2.794-.471-5.788-1.078l-.155-.929 2.283-1.178c1.196-.575 1.16-.576 1.839-1.776" style="fill:#feeee2;fill-opacity:1" transform="translate(-484.695 -556.591)scale(1.08587)"/><path d="M581.84 551.624c.927-3.403 2.08-.726 5.362.723-.629 2.098-.554 2.124-.679 2.266-.236.267-.829-.169-1.065.098l-1.193-.716c-1.26-.482-1.051-.715-2.174-1.478z" style="fill:#fdeee1;fill-opacity:1" transform="translate(-484.695 -556.591)scale(1.08587)"/><path d="M477.749 530.435c.087 1.522-.197 1.655 1.043 2.673-.978 1.691-.943 1.589-1.448 3.48-1.294-.167-1.243-.205-2.425.3.201-1.597-.018-2.943-.059-3.195.274-2.382.858-2.072 2.889-3.258" style="fill:#f3d6ce;fill-opacity:1" transform="translate(-484.695 -556.591)scale(1.08587)"/><path d="M527.694 584.08c.2.79.317.676.529 1.512.56 2.209 1.343 1.406 1.734 1.815.069.508.625.446.148 1.093-.251.34-2.82 1.021-3.605.986-2.114-.094-1.571-.907-1.928-2.969 3.959-.041 2.758-1.703 3.122-2.437" style="fill:#eed1cb;fill-opacity:1" transform="translate(-484.695 -556.591)scale(1.08587)"/><path d="m614.536 565.598 1.964.115c0 2.097-.125 2.133 0 2.264.203.212.537-.689.74-.477-1.486 3.095-2.282 2.131-5.523 1.323l.607-1.338c.44-.359-.091-.583.376-.964.128-.104.136-.069 1.836-.923" style="fill:#fce4da;fill-opacity:1" transform="translate(-484.695 -556.591)scale(1.08587)"/><path d="M543.536 559.05c2.807-.256 3.293-.748 4.987 2.055-3.886 1.246-3.89.202-7.988.234l1.002-.686z" style="fill:#fee9df;fill-opacity:1" transform="translate(-484.695 -556.591)scale(1.08587)"/><path d="m480.514 576.482 1.878.213c.86 1.948 1.053 1.96 3.162 1.887l-.054 1.903c-1.852.34-1.85.305-2 .367-1.283.534-.638.969-1.052 1.675-.087.148-1.962.816-.729-2.023-.034-.285 1.87-.829-.237-1.964-1.145-.616-.915-.75-.968-2.058" style="fill:#ecceca;fill-opacity:1" transform="translate(-484.695 -556.591)scale(1.08587)"/><path d="m473.353 560.991 1.084.611c-.058.138.841 1.134-2.197 2.657-2.956-.314-2.765-1.353-1.74-4.113 2.322.654 2.251.604 2.853.845" style="fill:#edd1cc;fill-opacity:1" transform="translate(-484.695 -556.591)scale(1.08587)"/><path d="M573.791 550.583c.162-.004.256-.244.417-.247.257-.006.238.004 3.213.054.001.046 1.717.783.028 1.845-1.913 1.203-1.653 1.72-2.048 2.161l-.562.364c-.377-.59-1.303-.67-1.68-1.26-.128-.201.067-.206.632-2.917" style="fill:#fdece0;fill-opacity:1" transform="translate(-484.695 -556.591)scale(1.08587)"/><path d="M484.229 555.45c.322 1.766.404 1.619 1.299 3.247l-.221.346c-1.671.767-1.687.721-2.765 2.23-1.616-.115-1.821-.101-2.22-1.729.648-.549.334-.862 1.204-1.019.534-.097.441-.226 2.703-3.075" style="fill:#f1d6d1;fill-opacity:1" transform="translate(-484.695 -556.591)scale(1.08587)"/><path d="M607.498 556.219c1.092 2.209 1.065 2.175 1.243 4.616-1.633.73-1.887.666-2.728-.92l-1.171-.656c.942-1.829 1.008-1.741 2.656-3.04" style="fill:#fde7db;fill-opacity:1" transform="translate(-484.695 -556.591)scale(1.08587)"/><path d="M574.501 544.5c.139.322-.581.633-.442.955.231.534.963.676 1.339 1.119.484.569.471.482.988 1.013.819 1.141.778 1.036.819 1.141.326.836-.094.869.216 1.662-2.975-.05-2.956-.06-3.213-.054-.161.003-.255.243-.417.247.566-3.144-.837-3.347.71-6.083" style="fill:#feede0;fill-opacity:.99" transform="translate(-484.695 -556.591)scale(1.08587)"/><path d="m480.282 544.579.068.946c0 .314.024.253.122 3.923l-1.811 1.187c-.584-.052-.526-.034-4.164-.098l2.133-.76c1.778-1.097 1.356-2.15 1.523-2.415z" style="fill:#efd2cb;fill-opacity:1" transform="translate(-484.695 -556.591)scale(1.08587)"/><path d="m612.324 567.485-.607 1.338-3.207.599-1.91-.347-1.073-.764c.308-.097.519.601.827.504 1.219-.381 1.766-1.374 1.86-1.544 1.265-2.293 1.879-1.085 4.11.214" style="fill:#fce5dc;fill-opacity:1" transform="translate(-484.695 -556.591)scale(1.08587)"/><path d="m479.432 559.665.89-.121c.399 1.628.604 1.614 2.22 1.729-.214.321.618.765.404 1.087l-2.427 1.168c-1.893-.069-1.88-.079-2.044-.075-.494.013-.385.186-.864.198.78-1.912.894-1.894.842-2.065-.094-.306-.789-.07-.883-.376z" style="fill:#f0d4cf;fill-opacity:1" transform="translate(-484.695 -556.591)scale(1.08587)"/><path d="M577.703 569.225c1.506 1.685 1.402 1.633 2.751 3.475l-1.098.058c-2.802-.607-2.842.08-5.539-.851l1.587-1.908c.398.119.445 1.055.838.922.707-.238.754-1.458 1.461-1.696" style="fill:#f9e1d9;fill-opacity:1" transform="translate(-484.695 -556.591)scale(1.08587)"/><path d="m479.65 528.24.896 1.248c.166.528-.148.49.01.996.056.178.07.158.944 2.136l-1.019.487-1.689.001c-1.24-1.018-.956-1.151-1.043-2.673z" style="fill:#f6dad2;fill-opacity:1" transform="translate(-484.695 -556.591)scale(1.08587)"/><path d="M459.39 573.805c.242 1.592.869 3.439.968 3.732-.754 1.792-1.549 1.49-2.674-.144-.101-.147-.088-.14-1.197-1.893 1.347-1.086 1.198-1.249 2.903-1.695" style="fill:#e9cbc7;fill-opacity:1" transform="translate(-484.695 -556.591)scale(1.08587)"/><path d="M582.091 552.517c1.123.763.914.996 2.174 1.478l1.193.716 2.008.749c-1.105 1.368-1.246 1.211-2.975.997-1.64-.204-1.067.712-1.581 1.055l-1.411-3.01z" style="fill:#feede0;fill-opacity:1" transform="translate(-484.695 -556.591)scale(1.08587)"/><path d="m518.739 565.309.928 2.09c-1.915 2.272-2.266 2.804-4.801 1.29.226-.344.3-.224 3.873-3.38" style="fill:#f6dcd5;fill-opacity:1" transform="translate(-484.695 -556.591)scale(1.08587)"/><path d="M595.425 552.473c.063.142-.708 1.308.94 2.123l2.182.348c-.072.672 1.017-.187.943.504-.072.681-.333-.106-.997 0-1.402.225-.753.848-.877 3.872l-1.464-.389-.836-.261c.07-.655.331-.502.402-1.165.265-2.457-.884-2.036-1.342-3.093z" style="fill:#feeade;fill-opacity:.99" transform="translate(-484.695 -556.591)scale(1.08587)"/><path d="M487.588 525.745c-1.545 1.661-1.381 1.721-3.259 2.959l-.81-.252c.114-2.228-.641-2.551 1.093-3.876.203-.156.759-.58 2.976 1.169" style="fill:#fae2d9;fill-opacity:1" transform="translate(-484.695 -556.591)scale(1.08587)"/><path d="m476.499 577.958 2.09.375c-.465.379-.51-.483-.968-.11-.095.077-.573.467-.618 1.403-.017.342.524.551.508.893l-.85.253c-.991.18-.913.161-.991.18-.419.101-.753.557-1.182.522-.214-.017.083-.612-.13-.629l-.575-2.815.849.056z" style="fill:#eaccc8;fill-opacity:1" transform="translate(-484.695 -556.591)scale(1.08587)"/><path d="m480.442 575.631.072.851c.053 1.308-.177 1.442.968 2.058 2.107 1.135.203 1.679.237 1.964-.811-1.042-.856-.997-2.219-1.003l-.911-1.168-2.09-.375c1.639-1.833 1.5-2.146 3.943-2.327" style="fill:#ebcdc9;fill-opacity:1" transform="translate(-484.695 -556.591)scale(1.08587)"/><path d="M474.497 550.537c3.638.064 3.58.046 4.164.098l-.25 1.811c-2.032.315-1.982.26-3.84 1.009-.07-.163-.081-.151-1.724-2.441z" style="fill:#efd3cc;fill-opacity:1" transform="translate(-484.695 -556.591)scale(1.08587)"/><path d="m546.663 550.521-.741 2.395-.206 2.433c-2.102 1.104-2.113 1.328-2.262 1.189l.085-2.03c-.059-1.65-.055-1.573-.775-3.031.311.082 1.731.458 3.899-.956" style="fill:#feece1;fill-opacity:1" transform="translate(-484.695 -556.591)scale(1.08587)"/><path d="m566.749 566.864.79-.286c.203.116.101.204 2.381 1.711-.991.586-.509.981-1.42 1.52-.083.049-.223.132-1.206.032-4.46-.45-.749-2.846-.545-2.977" style="fill:#fbe5dd;fill-opacity:1" transform="translate(-484.695 -556.591)scale(1.08587)"/><path d="M458.549 568.722c.404.934 1.405 2.858 1.533 3.104 1.259 2.421-.938-.377-3.582-.752-.46-.065-.883.433-1.343.368l.193-2.159z" style="fill:#ebccc8;fill-opacity:1" transform="translate(-484.695 -556.591)scale(1.08587)"/><path d="M574.262 537.705c.676.318.59-.479 1.214-.186.062.029.127.06.172.838.078 1.379.962.372.974.376-.742 2.2-.519 2.271-2.2 3.911l-.826-.304c.135-2.365.191-2.275.666-4.635" style="fill:#fdeadc;fill-opacity:1" transform="translate(-484.695 -556.591)scale(1.08587)"/><path d="M534.556 566.428c1.868 1.261 1.838 1.286 2.018 1.362.539.23.465-.371.967-.157-1.999 3.072-3.436 3.028-5.093-.243.975-.798.934-.735 2.108-.962" style="fill:#f9e1d9;fill-opacity:1" transform="translate(-484.695 -556.591)scale(1.08587)"/><path d="M525.559 554.72c.69.185 1.452-.172 2.142.012.657.175.807.695.833.783.151.525-.519.304-.351.887l-.608 2.001c.097.175 1.146 2.069 1.064 2.262-.102.241-.265.626-3.175.794 1.425-1.041 1.114-2.7 1.132-5.213.009-1.248-.581-.854-1.037-1.526" style="fill:#fbe4dc;fill-opacity:.99" transform="translate(-484.695 -556.591)scale(1.08587)"/><path d="m563.32 560.177 3.191 2.159-2.826 1.791-.221-.529-1.939-1.376.847-1.027z" style="fill:#fbe5dc;fill-opacity:.99" transform="translate(-484.695 -556.591)scale(1.08587)"/><path d="m584.451 558.564 2.946.269c-.062 2.074-.726 2.515 1.128 3.545-.409.009-.571.729-.98.739-.165.004-.147-.044-1.978-.587l-.259-2.014z" style="fill:#feece0;fill-opacity:.99" transform="translate(-484.695 -556.591)scale(1.08587)"/><path d="m606.6 569.075 1.91.347 2.984 2.008c-2.184 1.485-2.302 1.09-3.994.472-.365-.134-1.014.087-1.132-.284-.259-.811.49-1.731.232-2.543" style="fill:#fae3d9;fill-opacity:1" transform="translate(-484.695 -556.591)scale(1.08587)"/><path d="M502.402 519.043c3.12-1.712 3.322-.964 6.176 1.036-1.049 1.344-.847 1.455-2.259 2.3.813-3.554-1.025-2.661-1.841-2.728z" style="fill:#fde9de;fill-opacity:1" transform="translate(-484.695 -556.591)scale(1.08587)"/><path d="M495.427 552.141c-.861 3.546-1.061 5.373-4.106 3.428l1.006-2.076c.225-.15 1.211-.811 3.1-1.352" style="fill:#f4d9d4;fill-opacity:1" transform="translate(-484.695 -556.591)scale(1.08587)"/><path d="M478.083 544.329c-1.388 2.365-1.36 2.363-1.499 2.555-.184.254-.732-.036-.915.218-.197-.185-2.139-2.017-2.124-2.628.025-.979 1.691-1.755 2.755-.557 1.008 1.135 1.558.36 1.783.412" style="fill:#f0d2cd;fill-opacity:1" transform="translate(-484.695 -556.591)scale(1.08587)"/><path d="M515.641 526.8c1.716-.474 1.664-.266 3.335-.722l.688 1.447c-.289 1.625-.344 1.49-1.173 2.927l-.98-1.084c-.147-1.801-.219-1.83-1.87-2.568" style="fill:#feece1;fill-opacity:1" transform="translate(-484.695 -556.591)scale(1.08587)"/><path d="m480.108 543.633.174.946-2.129 2.783c-1.291.054-1.229.007-2.484-.26.183-.254.731.036.915-.218.139-.192.111-.19 1.499-2.555z" style="fill:#efd2cc;fill-opacity:1" transform="translate(-484.695 -556.591)scale(1.08587)"/><path d="M554.263 546.662c-.113.234-.847 1.757-1.757 2.726l-1.046-.134-.961-.542c1.214-2.722 1.689-4.15 3.764-2.05" style="fill:#feede2;fill-opacity:1" transform="translate(-484.695 -556.591)scale(1.08587)"/><path d="m503.263 534.7 2.287.76c.363 2.255.531 2.89-1.77 3.244l-.825-2.241c.247-.7.651-.409.776-1.125.083-.475-.552-.156-.468-.638" style="fill:#fce6de;fill-opacity:1" transform="translate(-484.695 -556.591)scale(1.08587)"/><path d="M587.397 558.833c1.595.085 1.598-.086 2.994.681-.963 2.395-.851 2.34-.94 2.537l-.926.327c-1.854-1.03-1.19-1.471-1.128-3.545" style="fill:#fdede1;fill-opacity:1" transform="translate(-484.695 -556.591)scale(1.08587)"/><path d="m550.499 548.712.961.542c.593 2.414.63 4.15.638 4.514l.018.804c-.547-.992-.465-.931-.644-2.045l-.915-1.179c-3.181-1.683-2.934-1.995-2.758-2.217.135-.172.198-.01 2.7-.419" style="fill:#feece1;fill-opacity:.99" transform="translate(-484.695 -556.591)scale(1.08587)"/><path d="m518.491 530.452 1.871.402 1.205.377.281 1.079c-2.499.256-2.571.85-5.279-.574z" style="fill:#feede3;fill-opacity:.99" transform="translate(-484.695 -556.591)scale(1.08587)"/><path d="M485.307 559.043c.006.02 1.376.4.498 1.651-.295.421.108.486-.127.966-.53 1.08-.443 1.049-.924 2.189l-.84-.011.641-2.34c-.029-.159-.142-.016-2.013-.225 1.078-1.509 1.094-1.463 2.765-2.23" style="fill:#f1d5d0;fill-opacity:1" transform="translate(-484.695 -556.591)scale(1.08587)"/><path d="M479.5 579.501c1.363.006 1.408-.039 2.219 1.003-3.096 1.922-3.026 2.084-3.34 2.074-.352-.012.232-.738.075-1.052l-1.793-.754.85-.253z" style="fill:#ebcdc8;fill-opacity:1" transform="translate(-484.695 -556.591)scale(1.08587)"/><path d="M520.571 580.239c2.892-.378 2.906-.28 3.123-.408.427-.252.494-1.573.845-1.223.047.047.027.029-.92 3.288-.288.991-.198 1.396-1.119 1.034z" style="fill:#f0d3ce;fill-opacity:1" transform="translate(-484.695 -556.591)scale(1.08587)"/><path d="M477.611 563.651c.479-.012.37-.185.864-.198.164-.004.151.006 2.044.075-.169.305.579 1.016-1.041 1.883-1.456.78-1.772 1.368-2.637.002-.696-1.099-.379-1.26.77-1.762" style="fill:#f0d5cf;fill-opacity:1" transform="translate(-484.695 -556.591)scale(1.08587)"/><path d="M485.554 578.582c1.179-1.479 1.472-.849 3.273-.16l-.557 2.01c-.221.023-.158-.054-2.77.053z" style="fill:#ebceca;fill-opacity:1" transform="translate(-484.695 -556.591)scale(1.08587)"/><path d="M519.664 527.525c.907.02 4.138-1.075 1.86 1.288-.13.136-.086.151-1.162 2.041l-1.871-.402c.829-1.437.884-1.302 1.173-2.927" style="fill:#fdede1;fill-opacity:.99" transform="translate(-484.695 -556.591)scale(1.08587)"/><path d="m479.432 559.665-1.862 1.545-3.133.392-1.084-.611c2.556-1.911 2.817-.866 6.079-1.326" style="fill:#f0d5cf;fill-opacity:1" transform="translate(-484.695 -556.591)scale(1.08587)"/><path d="M594.376 554.412c.458 1.057 1.607.636 1.342 3.093-.071.663-.332.51-.402 1.165l-1.643-1.245-.758-1.602c1.07-.955 1.064-.872 1.461-1.411" style="fill:#feeadf;fill-opacity:1" transform="translate(-484.695 -556.591)scale(1.08587)"/><path d="M527.789 529.39c.014 1.66.692 1.478.537 3.172-.679 1.2-.643 1.201-1.839 1.776-.149-.139-.122-.151-.915-1.725.255-.415.506-.025.731-.392.134-.218.11-.21 1.486-2.831" style="fill:#feeee2;fill-opacity:.99" transform="translate(-484.695 -556.591)scale(1.08587)"/><path d="M510.553 536.518c.067.428.765.571.832.999.011.066-.784.854-.337 2.302.081.262.358.434.438.696-2.512-.916-2.47-.933-2.955-1.032.14-2.737.891-2.304 2.022-2.965" style="fill:#feebe2;fill-opacity:1" transform="translate(-484.695 -556.591)scale(1.08587)"/><path d="M608.428 574.928c.268-.011 8.204-.326 2.133 2.572-2.007.958-1.537-.428-2.133-2.572" style="fill:#f8e0d8;fill-opacity:.99" transform="translate(-484.695 -556.591)scale(1.08587)"/><path d="M494.696 522.53c6.408.069 1.014 2.839.796 2.951-.202-.413.616-.178.387-.643-.438-.892-.881-.405-1.358-1.335-.15-.293.325-.679.175-.973" style="fill:#fde6db;fill-opacity:1" transform="translate(-484.695 -556.591)scale(1.08587)"/><path d="M459.39 573.805c2.222.547 2.032.829 2.943 2.876l-1.975.856c-.099-.293-.726-2.14-.968-3.732" style="fill:#e9cbc7;fill-opacity:.99" transform="translate(-484.695 -556.591)scale(1.08587)"/><path d="m587.202 552.347 2.463.73c1.772 2.386 1.927 2.257 1.981 2.507.063.298-.639.412-.576.71l-.39.256-2.506-2.073z" style="fill:#feece1;fill-opacity:1" transform="translate(-484.695 -556.591)scale(1.08587)"/><path d="m527.394 528.56 2.25 2.875c-.003.213.055.14.131 2.66l-1.449-1.533c.155-1.694-.523-1.512-.537-3.172z" style="fill:#feefe3;fill-opacity:1" transform="translate(-484.695 -556.591)scale(1.08587)"/><path d="m489.186 553.993.446.268c-.006.266-.084 3.823-1.884 2.737-2.012-1.214-.498-1.672 1.438-3.005" style="fill:#f1d8d2;fill-opacity:1" transform="translate(-484.695 -556.591)scale(1.08587)"/><path d="m550.557 551.348.915 1.179c-.523.141-3.542.659-4.003.858l-.963-.469c.224-.306.913.348 1.138.042.284-.388-.535-1.205-.115-1.438.885-.489 2.143.317 3.028-.172" style="fill:#feece2;fill-opacity:1" transform="translate(-484.695 -556.591)scale(1.08587)"/><path d="m499.471 536.508.032 1.999-2.022.018c-.401-1.817-.55-1.848-.432-1.957z" style="fill:#fae2da" transform="translate(-484.695 -556.591)scale(1.08587)"/><path d="m527.497 583.532 2.446.344c-.042.425-.174.321-.218.76-.014.149-.008.139-.112 1.868l.344.903c-.391-.409-1.174.394-1.734-1.815-.212-.836-.329-.722-.529-1.512z" style="fill:#efd1cb;fill-opacity:1" transform="translate(-484.695 -556.591)scale(1.08587)"/><path d="M454.755 568.715c-.189.087-3.728 1.73-2.301-1.215.736-1.519 1.358-1.256 2.378.165.205.285-.282.765-.077 1.05" style="fill:#ebd0cc;fill-opacity:.99" transform="translate(-484.695 -556.591)scale(1.08587)"/><path d="m595.425 552.473 2.075.216 1.047 2.255-2.182-.348c-1.648-.815-.877-1.981-.94-2.123" style="fill:#feeadd;fill-opacity:.99" transform="translate(-484.695 -556.591)scale(1.08587)"/><path d="M554.263 546.662c.122.134 1.418 1.546 1.368 1.808-.099.521-.708.849-.807 1.37l-1.455.032-.863-.484c.91-.969 1.644-2.492 1.757-2.726" style="fill:#feeee1;fill-opacity:1" transform="translate(-484.695 -556.591)scale(1.08587)"/><path d="m515.379 533.538.428.787-.302 1.175c-1.748.645-1.897.366-2.963 1.991-.181-1.578.004-1.512-.151-3.027 1.64-.021 1.559-.056 2.988-.926" style="fill:#feece2;fill-opacity:1" transform="translate(-484.695 -556.591)scale(1.08587)"/><path d="m518.414 534.251 1.094 1.201c-.217.284.268.786.052 1.07-.189.247-.648-.056-.928.077-.43.205-.689 1.11-1.115.896l-.894-2.321z" style="fill:#feede2;fill-opacity:1" transform="translate(-484.695 -556.591)scale(1.08587)"/><path d="M480.108 543.633c.815-.039.538.629 1.405.587.908-.043.547-.836 1.358-.72.256.037 1.937 2.246-2.521 2.025l-.068-.946z" style="fill:#eed1ca;fill-opacity:1" transform="translate(-484.695 -556.591)scale(1.08587)"/><path d="M543.004 550.452c2.989-1.562 3.537.017 3.659.069-2.168 1.414-3.588 1.038-3.899.956z" style="fill:#feede2;fill-opacity:1" transform="translate(-484.695 -556.591)scale(1.08587)"/><path d="M576.88 559.012c-.294.568.377 1.348.083 1.916-1.264 2.442-2.175-.25-2.233-.423-.615-1.814.317-1.723 2.15-1.493" style="fill:#fbe8dd;fill-opacity:.99" transform="translate(-484.695 -556.591)scale(1.08587)"/><path d="M507.472 545.716c2.08-.096 2.11-.377 4.025.56-2.116.997-2.425 1.182-4.025-.56" style="fill:#fae3dc;fill-opacity:1" transform="translate(-484.695 -556.591)scale(1.08587)"/><path d="M570.749 550.472c-1.648 2.02-1.439 2.068-1.588 2.227-.119-.184-3.922-6.072 1.588-2.227" style="fill:#feece2;fill-opacity:.99" transform="translate(-484.695 -556.591)scale(1.08587)"/><path d="M509.538 530.754c-.085-.256-1.064-3.201-.976-3.225.46-.127.785.554 1.225.739 2.576 1.079 1.215 2.145-.249 2.486" style="fill:#fdece1;fill-opacity:1" transform="translate(-484.695 -556.591)scale(1.08587)"/><path d="m535.597 536.36.701.345c.394 2.8.44 2.708.449 3.75l-.296 1.064c-.479-1.016-.723-.78-1.263-1.823l.517-2.256z" style="fill:#feefe3;fill-opacity:1" transform="translate(-484.695 -556.591)scale(1.08587)"/><path d="m516.762 523.641.35-.249c.515 1.282.439 1.239 1.434 2.064l.43.622c-1.671.456-1.619.248-3.335.722zm-3.453 3.023 2.332.136-1.905 2.577c-.379-1.382-.375-1.313-.427-2.713" style="fill:#feece1;fill-opacity:1" transform="translate(-484.695 -556.591)scale(1.08587)"/><path d="m582.91 557.512 1.541 1.052.857 1.952c-2.56-.036-2.541-.049-2.811-.021.369-1.534.093-1.502.413-2.983" style="fill:#fdebe1;fill-opacity:1" transform="translate(-484.695 -556.591)scale(1.08587)"/><path d="m523.818 529.607 1.754 3.006c-1.872-.204-1.759-.206-3.724-.303l-.281-1.079z" style="fill:#feeee2;fill-opacity:1" transform="translate(-484.695 -556.591)scale(1.08587)"/><path d="M602.805 556.541c.132.197.128.183 2.037 2.718-3.704-.32-3.529-1.928-3.535-1.935z" style="fill:#fee8dd;fill-opacity:1" transform="translate(-484.695 -556.591)scale(1.08587)"/><path d="M474.86 533.693c.041.252.26 1.598.059 3.195l-1.427.107c.086-.878-.772-.575-.685-1.465.022-.219.149-.133 2.053-1.837" style="fill:#f3d7cf;fill-opacity:1" transform="translate(-484.695 -556.591)scale(1.08587)"/><path d="M562.352 536.709c.69-1.487-.46-3.029 1.079-2.324.166.076.08.149 1.088 2.011z" style="fill:#fce8dc;fill-opacity:.99" transform="translate(-484.695 -556.591)scale(1.08587)"/><path d="M515.641 526.8c1.651.738 1.723.767 1.87 2.568-.69-.02-.382-.58-1.033-.598-.225-.007-.203.045-2.742.607z" style="fill:#feece1;fill-opacity:.99" transform="translate(-484.695 -556.591)scale(1.08587)"/><path d="M524.353 539.597c.443.164.401.177 3.151 1.749-1.739.992-2.004.97-3.247-.65z" style="fill:#feede3;fill-opacity:1" transform="translate(-484.695 -556.591)scale(1.08587)"/><path d="M545.922 552.916h.584l.963.469c-.617 1.236-.959 2.888-1.013 3.147l-.74-1.183z" style="fill:#feede2;fill-opacity:1" transform="translate(-484.695 -556.591)scale(1.08587)"/><path d="M493.368 534.883c1.373 1.762 1.512 2.196-.257 3.509-.098-.313-.072-.298-.428-3.105z" style="fill:#fbe2db;fill-opacity:1" transform="translate(-484.695 -556.591)scale(1.08587)"/><path d="m478.589 578.333.911 1.168-1.989 1.018c.016-.342-.525-.551-.508-.893.045-.936.523-1.326.618-1.403.458-.373.503.489.968.11" style="fill:#eacec9" transform="translate(-484.695 -556.591)scale(1.08587)"/><path d="m583.487 565.475 2.096 1.408-2.082.62c-.459-.232-.578-.911-1.037-1.143z" style="fill:#fde9df;fill-opacity:.99" transform="translate(-484.695 -556.591)scale(1.08587)"/><path d="m598.503 575.422 2.042 1.851-3.983-1.205z" style="fill:#f7ded7;fill-opacity:.99" transform="translate(-484.695 -556.591)scale(1.08587)"/><path d="m516.762 523.641-1.121 3.159-2.332-.136-.067-.768c.327-.07 2.191-.472 3.52-2.255" style="fill:#feece1;fill-opacity:1" transform="translate(-484.695 -556.591)scale(1.08587)"/><path d="M608.481 564.464c-1.36 1.63-1.154 1.772-3.015 2.776.948-1.644.593-3.704 1.002-3.599.992.255.427.925 1.34 1.298.469.192.139-.693.673-.475" style="fill:#fde6dc;fill-opacity:1" transform="translate(-484.695 -556.591)scale(1.08587)"/><path d="M511.493 584.478c-2.639-.131-1.882-1.108-1.974-1.195-.725-.685-1.988-.455-1.056-.824 2.264-.897 2.972 1.936 3.03 2.019" style="fill:#edcec9;fill-opacity:1" transform="translate(-484.695 -556.591)scale(1.08587)"/><path d="m507.355 589.885 3.148 1.007c-1.808.584-1.977.565-3.148-1.007" style="fill:#d2bab4;fill-opacity:.04" transform="translate(-484.695 -556.591)scale(1.08587)"/><path d="M582.91 557.512c-.32 1.481-.044 1.449-.413 2.983-.175-.03-2.704-.454-1.99-.98 1.621-1.193 1.649-1.011 2.403-2.003" style="fill:#feece0;fill-opacity:.99" transform="translate(-484.695 -556.591)scale(1.08587)"/><path d="M552.098 553.768c2.975-.282 3.21-.757 3.191-.499-.017.233-.036.489-2.091 2.05l-.807.162-.275-.909z" style="fill:#feede1;fill-opacity:1" transform="translate(-484.695 -556.591)scale(1.08587)"/><path d="m566.511 562.336.968-.139 1.023.3.134 2-.367.925z" style="fill:#fbe4da;fill-opacity:1" transform="translate(-484.695 -556.591)scale(1.08587)"/><path d="m472.714 578.104 1.069-.074.575 2.815c-1.688.588-1.753.773-1.816.633-.278-.61.434-1.394.157-2.004z" style="fill:#eaccc8;fill-opacity:1" transform="translate(-484.695 -556.591)scale(1.08587)"/><path d="M528.183 556.402c.859 1.372 2.743 1.223 1.312 2.097l-1.92-.096z" style="fill:#fbe4db;fill-opacity:1" transform="translate(-484.695 -556.591)scale(1.08587)"/><path d="m598.122 564.356 1.81 1.592c-.639.179-3.336 1.968-1.81-1.592" style="fill:#feeae0;fill-opacity:.99" transform="translate(-484.695 -556.591)scale(1.08587)"/><path d="M595.425 552.473c1.019-1.537 1.193-3.088 2.075-1.467.268.492-.268 1.19 0 1.683z" style="fill:#fdebdf;fill-opacity:.99" transform="translate(-484.695 -556.591)scale(1.08587)"/><path d="M581.491 572.637c1.271-.626 1.199-1.317 3.18-.438-1.577.703-1.556.907-3.18.438" style="fill:#fae2db;fill-opacity:.99" transform="translate(-484.695 -556.591)scale(1.08587)"/><path d="m581.84 551.624.251.893-.592 1.985c-.232-.238-.763.316-.995.078-.181-.186-1.205-1.239 1.336-2.956" style="fill:#feede0;fill-opacity:1" transform="translate(-484.695 -556.591)scale(1.08587)"/><path d="m587.202 552.347.972 2.13-.708.983-2.008-.749c.236-.267.829.169 1.065-.098.125-.142.05-.168.679-2.266" style="fill:#feede1;fill-opacity:.99" transform="translate(-484.695 -556.591)scale(1.08587)"/><path d="m508.396 580.251 1.134.094 2.891.892c-2.136-.084-2.128.087-4.025-.986" style="fill:#eed0c9;fill-opacity:1" transform="translate(-484.695 -556.591)scale(1.08587)"/><path d="m556.903 546.503 1.916.065-.564 2.211c-.591-1.201-.409-1.202-1.352-2.276" style="fill:#feede1;fill-opacity:.99" transform="translate(-484.695 -556.591)scale(1.08587)"/><path d="m568.636 564.497 2.665 1.244-1.816.81-1.091-.343-.125-.786z" style="fill:#fbe5db;fill-opacity:1" transform="translate(-484.695 -556.591)scale(1.08587)"/><path d="m558.819 546.568 1.608.889-2.172 1.322z" style="fill:#feeee1;fill-opacity:1" transform="translate(-484.695 -556.591)scale(1.08587)"/><path d="M545.379 570.797c2.42-1.386 2.374-1.471 2.614-1.497.214-.023-.905.098-.696 2.599.016.199.192.364.209.563-1.223-.64-1.07-.693-2.127-1.665" style="fill:#f8ded7;fill-opacity:.99" transform="translate(-484.695 -556.591)scale(1.08587)"/><path d="m508.425 531.433 3.015-.067-1.942 1.289c-1.714.276-1.04-1.185-1.073-1.222" style="fill:#feede2;fill-opacity:1" transform="translate(-484.695 -556.591)scale(1.08587)"/><path d="m567.539 566.578.855-.37 1.091.343.846 1.976-.411-.238c-2.28-1.507-2.178-1.595-2.381-1.711" style="fill:#fbe4dc;fill-opacity:.99" transform="translate(-484.695 -556.591)scale(1.08587)"/><path d="m582.432 547.665 1.982-.427c.804.239.606.546-.077.956-1.658.996-1.847-.477-1.905-.529" style="fill:#feeddf;fill-opacity:1" transform="translate(-484.695 -556.591)scale(1.08587)"/><path d="m602.21 554.891 2.156-.137c.138.13.492.463-1.561 1.787z" style="fill:#fde9dd;fill-opacity:.99" transform="translate(-484.695 -556.591)scale(1.08587)"/><path d="m593.673 557.425 1.643 1.245.836.261c-1.535.201-1.43.163-2.806-.233z" style="fill:#feeadf;fill-opacity:1" transform="translate(-484.695 -556.591)scale(1.08587)"/><path d="M569.473 537.475c-.861 3.529-2.296.566-2.315.555 2.021-.504 1.987-.511 2.315-.555" style="fill:#fee9dc;fill-opacity:1" transform="translate(-484.695 -556.591)scale(1.08587)"/><path d="M469.498 551.5c1.676 1.839 1.827 1.768 1.807 1.982s-1.891 1.909-1.807-1.982" style="fill:#f0d4cd;fill-opacity:.99" transform="translate(-484.695 -556.591)scale(1.08587)"/><path d="M531.718 565.606c-.093-.536-1.11-.566-1.204-1.101-.096-.552.192-1.469.751-1.502.688-.04.916 1.27.939 1.403.123.709-.619.439-.486 1.2" style="fill:#fae2da;fill-opacity:1" transform="translate(-484.695 -556.591)scale(1.08587)"/><path d="m498.891 526.791.111 2.067c-3.463-.552-.505-1.616-.111-2.067" style="fill:#fde8df;fill-opacity:.99" transform="translate(-484.695 -556.591)scale(1.08587)"/><path d="m492.327 553.493-1.006 2.076-1.689-1.308c1.363-.585 1.299-.505 2.695-.768" style="fill:#f2d9d3;fill-opacity:1" transform="translate(-484.695 -556.591)scale(1.08587)"/><path d="M590 583.5c-.359 1.497.781 2.826-.5 2.088-.964-.557-.863-.981-.837-1.088.212-.886 1.111-.056 1.337-1" style="fill:#f0d3cc;fill-opacity:.99" transform="translate(-484.695 -556.591)scale(1.08587)"/><path d="M606.932 553.5c-.213-.444-.875-.556-1.088-1-.494-1.029 1.478-1.16 1.656-.315.098.467-.666.848-.568 1.315" style="fill:#fee9dd;fill-opacity:.98" transform="translate(-484.695 -556.591)scale(1.08587)"/><path d="M513.5 584.5c1.483-.157 2.521-.53 1.82.771-.349.647-.574.552-.635.527-.863-.366-.267-.909-1.185-1.298" style="fill:#eccfc9;fill-opacity:1" transform="translate(-484.695 -556.591)scale(1.08587)"/><path d="m518.414 534.251 3.118.406-2.024.795z" style="fill:#fdede2;fill-opacity:1" transform="translate(-484.695 -556.591)scale(1.08587)"/><path d="M542.764 551.477c.72 1.458.716 1.381.775 3.031-.725-1.454-.643-1.425-.775-3.031" style="fill:#feece1;fill-opacity:1" transform="translate(-484.695 -556.591)scale(1.08587)"/><path d="m519.567 538.707.946-.131c1.153.825 1.096.786 2.18 1.629-.52-.257-.512.179-1.039-.081-.181-.089-.154-.105-2.087-1.417" style="fill:#feece2;fill-opacity:.99" transform="translate(-484.695 -556.591)scale(1.08587)"/><path d="M481.05 554.228c-.459-1.715-.919-1.77-.294-2.589 1.46-1.911.346 2.388.294 2.589" style="fill:#f0d4cf;fill-opacity:1" transform="translate(-484.695 -556.591)scale(1.08587)"/><path d="m480.442 575.631 1.95 1.064-1.878-.213z" style="fill:#eccfcb;fill-opacity:1" transform="translate(-484.695 -556.591)scale(1.08587)"/><path d="M536.298 536.705c.294.99 1.192.68.841 2.833-.085.524-.305.38-.392.917-.009-1.042-.055-.95-.449-3.75" style="fill:#fef0e4;fill-opacity:1" transform="translate(-484.695 -556.591)scale(1.08587)"/><path d="m616.5 565.713.74 1.787c-.203-.212-.537.689-.74.477-.125-.131 0-.167 0-2.264" style="fill:#fbe4db;fill-opacity:.99" transform="translate(-484.695 -556.591)scale(1.08587)"/><path d="m502.402 519.043 2.076.608-2.504.848z" style="fill:#fde8dd;fill-opacity:1" transform="translate(-484.695 -556.591)scale(1.08587)"/><path d="M570.749 550.472c-.052.368.405.689.353 1.057l-1.941 1.17c.149-.159-.06-.207 1.588-2.227" style="fill:#fdede3;fill-opacity:.99" transform="translate(-484.695 -556.591)scale(1.08587)"/><path d="m473.49 557.936.068.088c-.412-.1-.852-.044-1.265-.143-.108-.026-4.899-2.371-.129-1.381.638.132.688 1.303 1.326 1.436" style="fill:#f0d3cd;fill-opacity:.99" transform="translate(-484.695 -556.591)scale(1.08587)"/><path d="m499.643 541.605-.191 1.959c-1.064-.947-1.077-.834-1.064-.947.187-1.586 1.061-.855 1.255-1.012" style="fill:#fce6de;fill-opacity:1" transform="translate(-484.695 -556.591)scale(1.08587)"/><path d="M528.439 562.396c-1.785 1.936-1.661 2.301-1.841 2.163-.181-.139-.773-.593 1.841-2.163" style="fill:#fae4da;fill-opacity:1" transform="translate(-484.695 -556.591)scale(1.08587)"/><path d="M524.471 525.737c.263-.296-.151-.886.112-1.181.572-.642 1.189-.43 1.291-.395.514.176-.519.66.048.854z" style="fill:#feeee3;fill-opacity:1" transform="translate(-484.695 -556.591)scale(1.08587)"/><path d="m612.507 571.464 1.979 1.05-1.932-.08c-.197-.256.15-.714-.047-.97" style="fill:#fae3da;fill-opacity:1" transform="translate(-484.695 -556.591)scale(1.08587)"/><path d="m568.269 565.422.125.786-.855.37-.79.286z" style="fill:#fbe4db;fill-opacity:.99" transform="translate(-484.695 -556.591)scale(1.08587)"/><path d="M507.443 564.392c-.72 1.35-.721 1.23-1.857 2.293.867-1.284.814-1.217 1.857-2.293" style="fill:#f8e1d8;fill-opacity:1" transform="translate(-484.695 -556.591)scale(1.08587)"/><path d="M467.364 572.624c-.173-.278-.808.332-.98.054-.345-.557 1.148-1.741 1.369-1.385.244.393-.633.938-.389 1.331" style="fill:#ebceca;fill-opacity:1" transform="translate(-484.695 -556.591)scale(1.08587)"/><path d="m578.947 547.42.468.145-.395 2.417z" style="fill:#feecdf;fill-opacity:1" transform="translate(-484.695 -556.591)scale(1.08587)"/><path d="M519.96 556.419c.299 1.055.197 1.018.324 3.089-.41-1.573-.467-1.466-.324-3.089" style="fill:#fae7dd;fill-opacity:1" transform="translate(-484.695 -556.591)scale(1.08587)"/><path d="M545.494 573.425c2.65.456 2.837.26 2.851.491.087 1.438-.691.341-2.851-.491" style="fill:#f7ddd6;fill-opacity:1" transform="translate(-484.695 -556.591)scale(1.08587)"/><path d="m535.705 537.44-.517 2.256c-.318-1.233-.096-1.16.517-2.256" style="fill:#feefe3;fill-opacity:1" transform="translate(-484.695 -556.591)scale(1.08587)"/><path d="M499.471 536.508c.614 1.151 2.038 1.068.949 1.778-.418.272-.469-.071-.917.221z" style="fill:#fbe3db;fill-opacity:1" transform="translate(-484.695 -556.591)scale(1.08587)"/><path d="m541.702 559.873 1.834-.823-1.999 1.603z" style="fill:#fee8e0;fill-opacity:1" transform="translate(-484.695 -556.591)scale(1.08587)"/><path d="m480.481 533.107 1.019-.487 1.01.876z" style="fill:#f4d8d0;fill-opacity:1" transform="translate(-484.695 -556.591)scale(1.08587)"/><path d="m560.514 577.401 2.116.229c-.109.054.109 1.356-1.233.613-.572-.316-.3-.519-.883-.842" style="fill:#f3d7d0;fill-opacity:1" transform="translate(-484.695 -556.591)scale(1.08587)"/><path d="m494.628 549.449.855 2.173c-.647-1.071-.859-.931-.855-2.173" style="fill:#f5dbd4;fill-opacity:1" transform="translate(-484.695 -556.591)scale(1.08587)"/><path d="m590.573 568.075.948.324.944.73z" style="fill:#fce7df;fill-opacity:.99" transform="translate(-484.695 -556.591)scale(1.08587)"/><path d="M580.497 547.605c.546-.676.211-1.551.723-.895.37.472-.117.585.233 1.033z" style="fill:#feeee0;fill-opacity:1" transform="translate(-484.695 -556.591)scale(1.08587)"/><path d="m589.437 567.883 1.136.192c-.141.089-3.304 2.07-2.072-.03.16-.273.775.111.936-.162" style="fill:#fce7de;fill-opacity:1" transform="translate(-484.695 -556.591)scale(1.08587)"/><path d="M472.45 577.664c1.19.032 1.121-.031 2.182.422l-.849-.056-1.069.074z" style="fill:#eacdc9;fill-opacity:.99" transform="translate(-484.695 -556.591)scale(1.08587)"/><path d="m506.512 557.536-1.212 1.494z" style="fill:#f9e3dc;fill-opacity:1" transform="translate(-484.695 -556.591)scale(1.08587)"/><path d="M589.437 567.883c1.161.035 1.162-.226 2.084.516l-.948-.324z" style="fill:#fde7df;fill-opacity:1" transform="translate(-484.695 -556.591)scale(1.08587)"/><path d="M524.572 586.517c-.212-.577-.722.416-.929-.146-.037-.101-.526-1.433.402-1.287.503.079.024 1.354.527 1.433" style="fill:#eed1cb;fill-opacity:1" transform="translate(-484.695 -556.591)scale(1.08587)"/><path d="M512.423 569.448c-.738.736-.465 1.913-1.06 1.057z" style="fill:#f6dcd6;fill-opacity:1" transform="translate(-484.695 -556.591)scale(1.08587)"/><path d="M529.342 549.546c-.148 1.144-.039 1.129-.69 2.003l.294-.937z" style="fill:#fbe4db;fill-opacity:1" transform="translate(-484.695 -556.591)scale(1.08587)"/><path d="M539.436 566.408c.558.424 1.347.075.836.636-.364.4-.536-.106-.876.268z" style="fill:#f9e0d9;fill-opacity:1" transform="translate(-484.695 -556.591)scale(1.08587)"/><path d="m563.587 559.614-.267.563-.948 1.018c.431-.984.439-.863 1.215-1.581" style="fill:#fce7dd;fill-opacity:1" transform="translate(-484.695 -556.591)scale(1.08587)"/><path d="m563.568 541.293-1.025-1.832c.121-.117.246-.07 1.025 1.832" style="fill:#feeadd;fill-opacity:1" transform="translate(-484.695 -556.591)scale(1.08587)"/></svg>