<?xml version="1.0" encoding="UTF-8" standalone="no"?>
<!DOCTYPE svg PUBLIC "-//W3C//DTD SVG 1.1//EN" "http://www.w3.org/Graphics/SVG/1.1/DTD/svg11.dtd">
<svg width="100%" height="100%" viewBox="0 0 300 66" version="1.1" xmlns="http://www.w3.org/2000/svg" xmlns:xlink="http://www.w3.org/1999/xlink" xml:space="preserve" xmlns:serif="http://www.serif.com/" style="fill-rule:evenodd;clip-rule:evenodd;stroke-linejoin:round;stroke-miterlimit:2;">
    <g transform="matrix(0.105764,0,0,0.105764,-89.290078,-89.422888)">
        <path d="M2200,861.9L2200,1466L845.08,1466C879.88,1429.37 926.28,1406.12 974.3,1402.18C974.88,1402.13 975.47,1402.09 976.05,1402.05C1018.31,1398.95 1063.18,1408.95 1101.28,1388.66C1118.35,1379.57 1132.57,1364.99 1149.05,1354.71C1150.56,1353.76 1152.09,1352.85 1153.65,1351.99C1173.59,1340.91 1196.19,1337.58 1218.18,1333.33C1221.16,1332.75 1224.14,1332.16 1227.12,1331.53C1260.84,1324.58 1294.14,1315.3 1327.4,1306.04C1409.89,1283.05 1493.01,1259.83 1569.83,1219.48C1654.9,1174.8 1733.24,1108.85 1826.12,1091.35C1850.68,1086.73 1876.69,1085.31 1898.13,1071.28C1911.94,1062.25 1922.71,1048.65 1933.75,1035.791C1982.7,978.75 2041.68,932.33 2106.26,899.25C2116.27,894.12 2126.42,889.31 2136.68,884.85C2157.35,875.82 2178.5,868.15 2200,861.9Z" style="fill:rgb(250,225,216);fill-rule:nonzero;"/>
    </g>
    <g transform="matrix(0.127672,0,0,0.127672,142.957053,-119.010927)">
        <path d="M1182.54,1466L0,1466L0,946.63C65.89,959.28 129.69,985.12 191.64,1011.93C246.28,1035.57 300.51,1060.17 354.73,1084.77C408.66,1109.24 462.59,1133.71 516.52,1158.18C528.73,1163.72 541.07,1169.33 551.67,1177.54C562.04,1185.56 570.43,1195.82 578.73,1205.97C602.64,1235.26 626.55,1264.54 650.46,1293.82C660.75,1306.43 671.29,1319.26 685.01,1328.02C697.31,1335.87 711.54,1340.04 725.58,1344.01C808.09,1367.3 891.71,1386.68 976.05,1402.05C991.19,1404.81 1006.36,1407.45 1021.55,1409.95C1072.11,1418.29 1124.82,1425.91 1167.33,1454.52C1172.64,1458.09 1177.7,1461.93 1182.54,1466Z" style="fill:rgb(254,243,233);fill-rule:nonzero;"/>
    </g>
</svg>
