<?xml version="1.0" encoding="UTF-8" standalone="no"?>
<!DOCTYPE svg PUBLIC "-//W3C//DTD SVG 1.1//EN" "http://www.w3.org/Graphics/SVG/1.1/DTD/svg11.dtd">
<svg width="100%" height="100%" viewBox="0 0 287 112" version="1.1" xmlns="http://www.w3.org/2000/svg" xmlns:xlink="http://www.w3.org/1999/xlink" xml:space="preserve" xmlns:serif="http://www.serif.com/" style="fill-rule:evenodd;clip-rule:evenodd;stroke-linejoin:round;stroke-miterlimit:2;">
    <g transform="matrix(0.323136,0,0,0.337368,-430.132545,-138.372)">
        <path d="M1095.75,887.083C1136.28,872.21 1176.31,855.962 1215.75,838.378C1223.7,834.832 1231.76,831.143 1238.23,825.319C1244.46,819.714 1248.88,812.434 1253.88,805.716C1277.86,773.526 1315.02,754.529 1349.13,733.371C1441.67,675.971 1519.23,596.078 1614.57,543.441C1680.3,507.144 1754.83,483.49 1809.01,431.492C1815.47,425.289 1822.19,418.394 1831,416.79C1837.17,415.667 1843.77,416.64 1849.45,419.302C1912.02,448.639 1897.38,468.795 1983.79,524.562C2011.91,542.707 2048.899,587.004 2069.28,613.544C2104.34,659.199 2133.72,711.802 2182.33,742.636L1466.3,1050.47L1095.75,887.083Z" style="fill:rgb(254,243,233);fill-rule:nonzero;"/>
    </g>
</svg>
